<?xml version="1.0" encoding="UTF-8" standalone="no"?>
<!-- Created with Vectornator for iOS (http://vectornator.io/) -->

<svg
   xmlns:vectornator="http://vectornator.io"
   xmlns:dc="http://purl.org/dc/elements/1.1/"
   xmlns:cc="http://creativecommons.org/ns#"
   xmlns:rdf="http://www.w3.org/1999/02/22-rdf-syntax-ns#"
   xmlns:svg="http://www.w3.org/2000/svg"
   xmlns="http://www.w3.org/2000/svg"
   xmlns:sodipodi="http://sodipodi.sourceforge.net/DTD/sodipodi-0.dtd"
   xmlns:inkscape="http://www.inkscape.org/namespaces/inkscape"
   style="fill-rule:evenodd;clip-rule:evenodd;stroke-linecap:round;stroke-linejoin:round;"
   xml:space="preserve"
   version="1.1"
   viewBox="0 0 554.893 345.613"
   id="svg1679"
   sodipodi:docname="Blobborg.svg"
   inkscape:version="0.92.4 (5da689c313, 2019-01-14)"><sodipodi:namedview
   pagecolor="#ffffff"
   bordercolor="#666666"
   borderopacity="1"
   objecttolerance="10"
   gridtolerance="10"
   guidetolerance="10"
   inkscape:pageopacity="0"
   inkscape:pageshadow="2"
   inkscape:window-width="3840"
   inkscape:window-height="2047"
   id="namedview1681"
   showgrid="false"
   inkscape:zoom="1.8771588"
   inkscape:cx="74.699092"
   inkscape:cy="125.81432"
   inkscape:window-x="2560"
   inkscape:window-y="0"
   inkscape:window-maximized="1"
   inkscape:current-layer="svg1679" />
<metadata
   id="metadata1614">
<vectornator:setting
   key="DynamicGuides"
   value="1" />
<vectornator:setting
   key="CMYKEnabledKey"
   value="0" />
<vectornator:setting
   key="Units"
   value="Points" />
<vectornator:setting
   key="RulersVisible"
   value="1" />
<vectornator:setting
   key="SnapToGuides"
   value="1" />
<vectornator:setting
   key="GridSpacing"
   value="36" />
<rdf:RDF><cc:Work
     rdf:about=""><dc:format>image/svg+xml</dc:format><dc:type
       rdf:resource="http://purl.org/dc/dcmitype/StillImage" /></cc:Work></rdf:RDF></metadata>
<defs
   id="defs1616">



</defs>
<path
   style="opacity:1;fill:#272822"
   inkscape:connector-curvature="0"
   id="path1622"
   d="m 548.876,299.407 c 0,25.519 -121.523,46.206 -271.429,46.206 -149.907,0 -271.42966,-20.687 -271.42966,-46.206 0,-25.518 121.52266,-46.205 271.42966,-46.205 149.906,0 271.429,20.687 271.429,46.205" />
<path
   d="M 236.72008,259.04413 113.37062,262.2315 41.339073,145.01726 115.96813,30.989703 l 241.50466,8.6e-5 74.62919,114.027471 -52.71922,114.02687 z"
   id="path1686"
   inkscape:connector-curvature="0"
   style="opacity:1;fill:#a9dc76;stroke-width:0.85635972;fill-opacity:1" /><path
   sodipodi:type="star"
   style="opacity:1;fill:#a1ff48;fill-opacity:1;stroke:none;stroke-width:9.23939323;stroke-linecap:round;stroke-linejoin:round;stroke-miterlimit:4;stroke-dasharray:none;stroke-dashoffset:0;stroke-opacity:1"
   id="path1688"
   sodipodi:sides="30"
   sodipodi:cx="236.72054"
   sodipodi:cy="146.6106"
   sodipodi:r1="108.95612"
   sodipodi:r2="54.478054"
   sodipodi:arg1="0.52359878"
   sodipodi:arg2="0.62831854"
   inkscape:flatsided="false"
   inkscape:rounded="0"
   inkscape:randomized="0"
   d="m 331.07931,201.08866 -50.2851,-22.45667 36.8965,40.88448 -44.51724,-32.42079 27.58987,47.66227 -36.80378,-40.96798 17.07742,52.357 -27.4818,-47.72467 5.81861,54.76347 -16.95875,-52.39556 -5.69451,54.77651 -5.6945,-54.77651 -16.95875,52.39556 5.81861,-54.76347 -27.4818,47.72467 17.07742,-52.357 -36.80378,40.96798 27.58987,-47.66227 -44.51724,32.42079 36.8965,-40.88448 -50.2851,22.45667 44.5906,-32.31984 -53.85526,11.51107 50.33586,-22.34267 -55.07168,0.0624 53.8812,-11.38901 -53.88119,-11.38902 55.07167,0.0624 -50.33586,-22.34267 53.85526,11.51107 -44.5906,-32.319836 50.2851,22.456666 -36.8965,-40.884482 44.51724,32.420792 -27.58987,-47.66227 36.80378,40.967977 -17.07742,-52.356993 27.4818,47.724663 -5.81861,-54.763462 16.95875,52.395553 5.69451,-54.776506 5.6945,54.776506 16.95875,-52.395553 -5.81861,54.763463 27.4818,-47.724664 -17.07742,52.356993 36.80378,-40.967976 -27.58987,47.662269 44.51724,-32.420791 -36.8965,40.884481 50.2851,-22.456666 -44.5906,32.319846 53.85526,-11.51108 -50.33586,22.34267 55.07168,-0.0624 -53.8812,11.38902 53.8812,11.38901 -55.07168,-0.0624 50.33586,22.34267 -53.85526,-11.51107 z" /><g
   id="g10"
   vectornator:layerName="g10">
<path
   d="M180.272+237.726L142.118+270.635C135.946+275.96+112.836+247.567+117.432+229.163C122.03+210.76+169.661+214.037+169.661+214.037C175.915+218.372+183.352+235.071+180.272+237.726"
   opacity="1"
   fill="#ff9197"
   id="path1625" />
<path
   d="M158.402+238.539C159.109+246.273+152.278+261.462+145.81+267.451L180.272+237.726C180.272+237.726+157.271+226.911+158.647+238.539"
   opacity="1"
   fill="#fb7c83"
   id="path1627" />
<g
   opacity="1"
   id="g1637">
<path
   d="M442.92+136.717C436.156+136.658+429.426+137.324+422.858+138.577C420.723+138.984+418.766+139.449+417.059+139.89C416.003+140.163+415.246+140.369+414.797+140.51C411.43+141.569+409.58+145.168+410.639+148.535C411.698+151.902+415.26+153.752+418.627+152.693C418.871+152.617+419.431+152.472+420.269+152.255C421.717+151.881+423.372+151.515+425.229+151.161C436.645+148.984+448.724+148.736+459.808+151.672C476.074+155.98+488.045+166.56+494.533+185.485C495.922+189.537+496.678+193.941+496.831+198.653C497.175+209.234+494.551+220.836+489.901+232.466C488.354+236.333+486.702+239.917+485.049+243.117C484.476+244.227+483.916+245.235+483.445+246.071C483.172+246.554+483.017+246.846+482.934+246.983C481.107+250.003+482.066+253.947+485.086+255.774C488.106+257.601+492.013+256.641+493.84+253.622C494.376+252.735+495.279+251.146+496.393+248.989C498.227+245.44+500.048+241.513+501.755+237.244C507.006+224.114+510.007+210.857+509.598+198.251C509.405+192.317+508.463+186.672+506.643+181.363C498.728+158.276+483.368+144.676+463.091+139.307C456.488+137.558+449.684+136.776+442.92+136.717Z"
   opacity="1"
   fill="#272727"
   id="path1629" />
<path
   d="M442.811+111.293C430.952+111.89+418.751+114.447+406.663+118.442C401.858+120.031+397.428+121.733+393.459+123.44C391.048+124.476+389.292+125.316+388.316+125.811C385.167+127.405+383.913+131.234+385.507+134.382C387.102+137.531+390.967+138.822+394.116+137.227C394.277+137.146+394.621+136.94+395.173+136.68C396.124+136.233+397.228+135.729+398.493+135.185C402.134+133.619+406.239+132.056+410.675+130.589C425.351+125.738+440.128+123.204+453.68+124.133C471.417+125.349+485.53+132.43+495.336+146.748C499.831+153.311+500.885+163.226+498.837+175.709C497.491+183.917+494.889+192.785+491.36+201.862C489.472+206.718+487.437+211.315+485.414+215.504C484.709+216.965+484.064+218.283+483.481+219.407C483.139+220.067+482.904+220.51+482.788+220.72C481.089+223.814+482.211+227.703+485.305+229.402C488.399+231.1+492.287+229.979+493.986+226.885C494.149+226.587+494.435+226.032+494.825+225.28C495.463+224.05+496.181+222.658+496.941+221.085C499.102+216.607+501.234+211.683+503.251+206.495C507.077+196.652+509.951+186.975+511.458+177.788C513.988+162.367+512.579+149.311+505.877+139.525C493.704+121.751+475.934+112.834+454.519+111.366C450.659+111.102+446.763+111.094+442.811+111.293Z"
   opacity="1"
   fill="#272727"
   id="path1631" />
<path
   d="M198.095+115.926C182.179+116.249+169.159+118.194+159.722+122.272C153.562+124.935+151.511+130.757+154.251+136.498C155.814+139.773+158.834+143.017+163.151+146.565C165.494+148.491+168.2+150.47+171.212+152.511C174.697+154.872+178.41+157.196+182.119+159.368C183.415+160.128+184.609+160.804+185.693+161.411C186.352+161.779+186.848+162.069+187.116+162.213C190.222+163.89+194.084+162.73+195.761+159.624C197.437+156.518+196.277+152.619+193.171+150.942C193.124+150.917+192.282+150.483+191.931+150.286C190.917+149.719+189.796+149.068+188.575+148.353C185.091+146.312+181.59+144.121+178.362+141.933C175.653+140.097+173.257+138.331+171.249+136.68C169.601+135.326+168.37+134.14+167.419+133.106C174.954+130.447+185.459+128.955+198.387+128.692C209.329+128.47+221.092+129.08+232.783+130.224C236.297+130.568+239.562+130.914+242.449+131.282C243.455+131.41+245.842+131.771+245.988+131.793C249.478+132.316+252.723+129.885+253.246+126.394C253.769+122.904+251.375+119.659+247.884+119.136C247.696+119.107+245.111+118.759+244.054+118.625C241.048+118.242+237.702+117.851+234.06+117.494C221.908+116.305+209.603+115.692+198.095+115.926Z"
   opacity="1"
   fill="#272727"
   id="path1633" />
<path
   d="M204.405+90.9398C199.825+91.0909+196.508+91.5969+194.484+92.4718C187.835+95.3456+186.71+102.38+192.076+106.953C194.386+108.92+197.999+110.662+203.129+112.533C207.527+114.138+212.996+115.781+219.324+117.494C225.087+119.054+231.262+120.572+237.416+121.981C239.568+122.473+245.513+123.782+245.623+123.804C249.078+124.524+252.491+122.299+253.21+118.844C253.929+115.388+251.704+112.012+248.249+111.293C248.156+111.274+242.364+110.024+240.261+109.542C234.258+108.168+228.263+106.677+222.68+105.165C221.54+104.857+220.874+104.594+219.798+104.29C233.693+105.31+253.277+107.477+277.539+110.892C283.819+111.776+290.303+112.701+296.981+113.701C311.775+115.916+326.782+118.294+341.189+120.668C346.232+121.498+359.92+123.831+359.974+123.841C363.452+124.444+366.776+122.102+367.379+118.625C367.982+115.147+365.64+111.86+362.163+111.257C362.103+111.246+348.331+108.918+343.268+108.083C328.803+105.7+313.739+103.305+298.877+101.08C292.164+100.075+285.645+99.1243+279.326+98.2349C243.314+93.1661+218.146+90.4865+204.405+90.9398Z"
   opacity="1"
   fill="#272727"
   id="path1635" />
</g>
<path
   d="M161.54+271.483C180.547+320.87+242.139+295.326+255+293.918C265.403+292.782+277.878+301.055+301.082+301.808C324.285+302.56+336.944+295.877+356.883+298.737C376.823+301.598+407.791+329.163+470.697+310.416C553.824+285.332+450.846+86.9193+318.242+86.9193C185.638+86.9193+142.533+222.101+161.54+271.483L161.54+271.483"
   opacity="1"
   fill="#ffe8e8"
   id="path1639" />
<path
   d="M192.787+274.344C194.112+273.446+235.407+239.782+272.593+239.095C297.817+238.625+318.97+235.944+349.592+248.611C380.212+261.278+414.703+286.091+415.599+286.642C416.497+287.188+417.093+290.31+416.444+291.703C415.795+293.095+413.699+292.676+412.944+292.179C412.191+291.681+374.621+269.396+348.626+258.644C322.631+247.893+300.318+249.155+271.626+249.129C234.434+249.087+196.842+279.973+195.642+280.188C194.44+280.44+191.575+281.263+190.836+279.53C190.219+278.092+191.461+275.239+192.787+274.344L192.787+274.344"
   opacity="1"
   fill="#a7505d"
   id="path1641" />
<path
   d="M253.923+197.723C254.148+215.625+240.049+230.323+222.436+230.553L222.436+230.553C204.822+230.78+190.361+216.453+190.139+198.551C189.914+180.649+204.011+165.951+221.626+165.722L221.626+165.722C239.24+165.494+253.699+179.821+253.923+197.723"
   opacity="1"
   fill="#ffffff"
   id="path1643" />
<path
   d="M223.479+223.746C209.729+224.588+197.909+213.947+197.072+199.97C196.235+185.996+206.696+173.974+220.446+173.11C234.196+172.25+246.031+182.87+246.894+196.884C247.711+210.902+237.231+222.906+223.479+223.746"
   opacity="1"
   fill="#040606"
   id="path1645" />
<path
   d="M226.214+182.034C228.613+178.744+237.335+181.664+240.391+187.132C243.446+192.598+243.418+200.994+238.356+202.689C233.292+204.382+233.662+197.787+231.009+193.137C228.353+188.486+223.814+185.322+226.214+182.036L226.214+182.034"
   opacity="1"
   fill="#ffffff"
   id="path1647" />
<path
   d="M237.811+204.387C239.598+204.492+240.9+206.334+240.723+208.5C240.544+210.665+238.95+212.334+237.164+212.229C235.377+212.125+234.074+210.282+234.253+208.117C234.432+205.951+236.024+204.283+237.811+204.387"
   opacity="1"
   fill="#ffffff"
   id="path1649" />
<path
   d="M393.016+197.41C393.24+215.312+379.142+230.01+361.529+230.237L361.529+230.237C343.915+230.468+329.455+216.14+329.231+198.238C329.007+180.336+343.104+165.638+360.72+165.408L360.72+165.408C378.332+165.181+392.793+179.508+393.016+197.41L393.016+197.41"
   opacity="1"
   fill="#ffffff"
   id="path1651" />
<path
   d="M362.573+223.433C348.822+224.273+337.002+213.632+336.166+199.657C335.329+185.682+345.79+173.66+359.54+172.796C373.288+171.934+385.126+182.557+385.988+196.571C386.805+210.587+376.323+222.593+362.573+223.433"
   opacity="1"
   fill="#040606"
   id="path1653" />
<path
   d="M365.306+181.721C367.706+178.431+376.427+181.351+379.484+186.818C382.539+192.284+382.511+200.682+377.45+202.377C372.386+204.07+372.756+197.472+370.103+192.822C367.448+188.174+362.906+185.01+365.306+181.721L365.306+181.721"
   opacity="1"
   fill="#ffffff"
   id="path1655" />
<path
   d="M376.905+204.073C378.69+204.178+379.994+206.02+379.815+208.185C379.636+210.351+378.043+212.021+376.258+211.916C374.471+211.81+373.169+209.97+373.346+207.803C373.525+205.638+375.117+203.967+376.905+204.073"
   opacity="1"
   fill="#ffffff"
   id="path1657" />
<path
   d="M326.045+195.219C327.494+218.039+309.208+237.793+285.189+239.354C261.17+240.915+240.503+223.691+239.016+200.874C237.528+178.058+255.782+158.276+279.797+156.679C303.815+155.08+324.509+172.271+326.036+195.085"
   opacity="1"
   fill="#ffe8e8"
   id="path1659" />
<path
   d="M322.415+209.861C317.305+225.075+302.818+236.562+285.076+237.711C262.011+239.208+242.169+222.665+240.745+200.756C240.094+190.762+243.39+181.374+249.356+173.974C249.356+173.974+253.113+169.731+250.84+167.929C248.57+166.126+245.333+171.182+245.333+171.182C238.693+179.455+235.028+189.938+235.757+201.096C237.361+225.615+259.571+244.121+285.384+242.444C305.269+241.156+321.499+228.265+327.199+211.201C327.199+211.201+328.537+207.705+326.19+206.866C323.845+206.027+322.415+209.861+322.415+209.861L322.415+209.861"
   opacity="1"
   fill="#a7505d"
   id="path1661" />
<path
   d="M373.642+98.3258C373.642+102.313+448.142+126.248+472.317+213.811C496.982+303.151+441.118+316.306+441.245+316.301C441.733+316.281+441.919+316.249+442.515+316.186C451.128+315.279+460.492+313.457+470.697+310.416C541.666+289+476.988+141.25+374.034+98.489C373.918+98.4409+373.791+98.4175+373.69+98.347C373.626+98.3015+373.667+98.3434+373.667+98.3434"
   opacity="1"
   fill="#e7d2d2"
   id="path1663" />
<path
   d="M448.965+236.721L494.829+285.022C502.251+292.836+532.589+261.62+528.198+236.332C523.806+211.043+463.063+210.559+463.063+210.559C454.782+215.762+445.261+232.822+448.965+236.721L448.965+236.721"
   opacity="1"
   fill="#ff9197"
   id="path1665" />
<path
   d="M516.128+221.615L516.128+221.615C534.873+239.982+517.628+261.638+506.6+271.289C496.663+279.983+457.861+246.026+450.263+238.089L494.829+285.022C502.251+292.836+532.589+261.62+528.198+236.332C527.097+229.998+522.459+225.22+516.128+221.615"
   opacity="1"
   fill="#fb7c83"
   id="path1667" />
</g>
<g
   id="Layer 2"
   vectornator:layerName="Layer 2">
<path
   d="M336.119+86.9193C386.032+92.7553+445.519+137.423+467.998+173.061C493.515+213.515+410.406+223.793+410.406+223.793L347.328+242.55L284.25+208.308C284.25+208.308+283.838+125.445+284.25+124.074C253.926+148.711+253.926+115.664+212.883+148.711C184.14+171.853+163.041+208.308+163.041+208.308C163.041+208.308+170.064+151.312+221.982+113.917C266.569+81.8025+312.148+84.1165+336.119+86.9193Z"
   opacity="1"
   fill="#272727"
   id="path1670" />
<path
   d="M317.954+146.611L379.832+146.611L403.017+216.672L347.475+233.151L295.829+205.115L317.954+146.611Z"
   opacity="1"
   fill="#3c3c3c"
   id="path1672" />
<path
   d="M329.224+168.246L368.941+168.246L383.823+213.215L348.173+223.793L315.023+205.797L329.224+168.246Z"
   opacity="1"
   fill="#ff3f3f"
   id="path1674" />
<path
   d="M332.63+197.674C332.63+189.806+339.008+183.427+346.877+183.427C354.745+183.427+361.124+189.806+361.124+197.674C361.124+205.542+354.745+211.921+346.877+211.921C339.008+211.921+332.63+205.542+332.63+197.674Z"
   opacity="1"
   fill="#ff9191"
   id="path1676" />
</g>
</svg>