<?xml version="1.0" encoding="UTF-8" standalone="no"?> <!-- Created with Vectornator for iOS (http://vectornator.io/) --><!DOCTYPE svg PUBLIC "-//W3C//DTD SVG 1.1//EN" "http://www.w3.org/Graphics/SVG/1.1/DTD/svg11.dtd">
<svg style="fill-rule:evenodd;clip-rule:evenodd;stroke-linecap:round;stroke-linejoin:round;" xmlns:vectornator="http://vectornator.io" xmlns:xlink="http://www.w3.org/1999/xlink" xmlns="http://www.w3.org/2000/svg" xml:space="preserve" version="1.1" viewBox="0 0 554.893 345.613">
<metadata>
<vectornator:setting key="DynamicGuides" value="1"/>
<vectornator:setting key="CMYKEnabledKey" value="0"/>
<vectornator:setting key="Units" value="Points"/>
<vectornator:setting key="GridSpacing" value="36"/>
<vectornator:setting key="SnapToGuides" value="1"/>
<vectornator:setting key="RulersVisible" value="1"/>
</metadata>
<defs/>
<g id="Layer 3" vectornator:layerName="Layer 3">
<path d="M281.122+228.946C380.226+228.946+460.564+251.95+460.564+280.331C460.564+308.707+380.226+331.715+281.122+331.715C182.027+331.715+101.686+308.707+101.686+280.331C101.686+251.95+182.027+228.946+281.122+228.946" opacity="1" fill="#66d9ef"/>
<g opacity="1">
<path d="M344.089+253.961C344.089+247.045+364.147+241.391+414.889+236.476C476.114+230.546+527.129+241.132+529.898+253.339C530.73+257.007+508.318+271.981+467.425+279.429C431.349+286+391.692+272.854+370.684+272.854C354.338+272.854+355.831+263.669+352.315+259.956C348.8+256.243+344.089+255.799+344.089+253.961Z" opacity="1" fill="#a6e22e"/>
<path d="M495.987+265.514C531.486+250.235+512.104+245.02+493.672+238.001C514.789+241.42+528.499+247.173+529.898+253.339C530.73+257.007+508.318+271.981+467.425+279.429C443.669+283.756+412.03+280.042+389.153+274.68C437.005+277.031+468.57+277.315+495.987+265.514Z" opacity="1" fill="#97ce29"/>
</g>
<path stroke="#a1a1a1" stroke-width="2" d="M372.637+91.6837C378.05+139.841+373.795+193.636+397.616+234.781" fill="none" stroke-linecap="round" opacity="1" stroke-linejoin="round"/>
<path stroke="#a1a1a1" stroke-width="2" d="M319.109+91.6837C324.523+139.841+320.268+193.636+344.089+234.781" fill="none" stroke-linecap="round" opacity="1" stroke-linejoin="round"/>
<path d="M319.329+205.792L268.634+205.792C308.281+215.862+336.741+232.039+359.919+251.1L429.351+251.1C405.882+235.996+389.503+222.257+362.228+213.828C352.395+210.789+336.638+205.792+319.329+205.792Z" opacity="1" fill="#c76262"/>
<path d="M303.226+85.9921L303.226+275.123L389.91+275.123L389.91+85.9921L357.404+85.9921L357.404+102.603L335.733+102.603L335.733+85.9921L303.226+85.9921ZM345.829+176.359C380.44+176.359+375.873+219.976+375.873+219.976L316.524+219.976C316.524+219.976+311.219+176.359+345.829+176.359Z" opacity="1" fill="#ffa9a9"/>
<path stroke="#a1a1a1" stroke-width="2" d="M214.827+19.2068C220.851+83.8876+216.146+147.669+242.126+204.412" fill="none" stroke-linecap="round" opacity="1" stroke-linejoin="round"/>
<path stroke="#a1a1a1" stroke-width="2" d="M292.303+21.4506C300.01+85.2727+293.99+149.215+327.226+205.205" fill="none" stroke-linecap="round" opacity="1" stroke-linejoin="round"/>
<path d="M191.41+14.7615L191.41+288.822L317.02+288.822L317.02+14.7615L269.916+14.7615L269.916+38.8313L238.514+38.8313L238.514+14.7615L191.41+14.7615ZM253.144+145.707C303.297+145.707+296.68+205.877+296.68+205.877L210.68+205.877C210.68+205.877+202.992+145.707+253.144+145.707Z" opacity="1" fill="#ffc7c7"/>
<g opacity="1">
<path d="M10.8925+272.743C10.8925+264.169+10.8925+244.468+110.34+249.673C139.68+251.209+168.515+253.375+184.361+258.269C197.455+262.313+200.194+268.864+200.194+272.743C200.194+276.069+236.713+295.382+228.544+297.908C215.655+301.895+122.784+302.62+92.0864+297.908C44.9041+290.666+10.8925+281.317+10.8925+272.743Z" opacity="1" fill="#a6e22e"/>
<path d="M10.8925+272.743C36.1497+288.874+93.6239+293.708+114.026+294.827C142.253+296.375+177.653+297.908+228.038+293.859C229.931+295.838+230.436+297.323+228.544+297.908C215.655+301.895+122.784+302.62+92.0864+297.908C44.9041+290.666+10.8925+281.317+10.8925+272.743Z" opacity="1" fill="#97ce29"/>
</g>
<path d="M205.918+205.447L297.458+205.447C245.187+220.473+207.666+244.614+177.107+273.057L85.5678+273.057C123.86+245.164+161.04+214.006+205.918+205.447Z" opacity="1" fill="#ff8484"/>
<path stroke="#a1a1a1" stroke-width="2" d="M214.921+23.3224C205.866+97.0275+192.448+171.286+144.598+232.103" fill="none" stroke-linecap="round" opacity="1" stroke-linejoin="round"/>
<g opacity="1">
<path d="M209.526+126.173C210.059+125.808+226.647+112.146+241.645+111.794C251.819+111.554+260.346+110.429+272.723+115.477C285.1+120.524+299.062+130.464+299.426+130.684C299.789+130.903+300.036+132.161+299.777+132.724C299.518+133.286+298.671+133.122+298.366+132.923C298.06+132.723+282.861+123.811+272.354+119.526C261.847+115.242+252.849+115.796+241.276+115.843C226.274+115.901+211.173+128.435+210.689+128.524C210.205+128.628+209.051+128.966+208.75+128.269C208.498+127.69+208.993+126.537+209.526+126.173Z" opacity="1" fill="#b06264"/>
<path d="M234.032+95.1436C234.158+102.364+228.501+108.321+221.397+108.449C214.293+108.577+208.431+102.827+208.305+95.6063C208.178+88.3855+213.835+82.4284+220.94+82.3007C228.044+82.173+233.905+87.9229+234.032+95.1436Z" opacity="1" fill="#fffefe"/>
<path d="M221.804+105.702C216.26+106.068+211.47+101.8+211.105+96.1649C210.739+90.5297+214.934+85.6591+220.479+85.2832C226.023+84.9077+230.819+89.1682+231.195+94.8193C231.553+100.471+227.349+105.335+221.804+105.702Z" opacity="1" fill="#000000"/>
<path d="M222.823+88.8709C223.784+87.5395+227.308+88.6995+228.552+90.8988C229.795+93.0972+229.801+96.4844+227.762+97.1783C225.723+97.8712+225.859+95.2099+224.78+93.3397C223.699+91.4694+221.861+90.2022+222.823+88.8709Z" opacity="1" fill="#ffffff"/>
<path d="M226.118+99.3758C226.186+98.5019+226.825+97.825+227.546+97.864C228.267+97.9029+228.796+98.6429+228.729+99.5168C228.661+100.391+228.022+101.068+227.301+101.029C226.58+100.99+226.051+100.25+226.118+99.3758Z" opacity="1" fill="#ffffff"/>
<path d="M263.118+93.988C263.749+103.19+256.412+111.195+246.727+111.873C237.042+112.551+228.671+105.645+228.025+96.4447C227.378+87.244+234.701+79.228+244.386+78.5353C254.07+77.8426+262.453+84.7351+263.114+93.9346" opacity="1" fill="#ffc7c7"/>
<path d="M261.683+99.9008C259.653+106.048+253.832+110.711+246.678+111.21C237.378+111.86+229.341+105.228+228.722+96.3937C228.44+92.3635+229.75+88.57+232.142+85.5734C232.142+85.5734+233.649+83.8544+232.728+83.1319C231.808+82.409+230.513+84.4552+230.513+84.4552C227.851+87.8059+226.395+92.0412+226.711+96.5401C227.407+106.427+236.403+113.847+246.812+113.119C254.83+112.559+261.351+107.327+263.616+100.432C263.616+100.432+264.148+99.019+263.2+98.6854C262.252+98.3517+261.683+99.9008+261.683+99.9008Z" opacity="1" fill="#b06264"/>
<path d="M290.136+94.7366C290.262+101.957+284.606+107.914+277.501+108.042C270.397+108.17+264.535+102.42+264.409+95.1993C264.283+87.9786+269.939+82.0214+277.044+81.8937C284.148+81.766+290.01+87.516+290.136+94.7366Z" opacity="1" fill="#fffefe"/>
<path d="M277.909+105.295C272.364+105.662+267.575+101.393+267.209+95.758C266.843+90.1228+271.039+85.2521+276.583+84.8762C282.127+84.5006+286.923+88.7613+287.299+94.4124C287.657+100.065+283.454+104.928+277.909+105.295Z" opacity="1" fill="#000000"/>
<path d="M278.927+88.4639C279.888+87.1326+283.413+88.2928+284.656+90.4918C285.9+92.6902+285.906+96.0774+283.867+96.7713C281.828+97.4643+281.964+94.8029+280.884+92.9327C279.804+91.0625+277.966+89.7952+278.927+88.4639Z" opacity="1" fill="#ffffff"/>
<path d="M282.223+98.9688C282.291+98.0949+282.93+97.418+283.651+97.4569C284.371+97.4959+284.901+98.2359+284.833+99.1098C284.765+99.9837+284.126+100.661+283.405+100.622C282.685+100.583+282.155+99.8426+282.223+98.9688Z" opacity="1" fill="#ffffff"/>
</g>
<path stroke="#a1a1a1" stroke-width="2" d="M293.071+23.3224C284.016+97.0275+272.682+175.212+224.832+236.029" fill="none" stroke-linecap="round" opacity="1" stroke-linejoin="round"/>
<path stroke="#a1a1a1" stroke-width="2" d="M372.637+92.0407C370.705+142.744+370.497+194.053+353.733+210.456" fill="none" stroke-linecap="round" opacity="1" stroke-linejoin="round"/>
</g>
</svg>
