<?xml version="1.0" encoding="UTF-8" standalone="no"?>
<!-- Created with Inkscape (http://www.inkscape.org/) -->

<svg
   xmlns:dc="http://purl.org/dc/elements/1.1/"
   xmlns:cc="http://creativecommons.org/ns#"
   xmlns:rdf="http://www.w3.org/1999/02/22-rdf-syntax-ns#"
   xmlns:svg="http://www.w3.org/2000/svg"
   xmlns="http://www.w3.org/2000/svg"
   xmlns:xlink="http://www.w3.org/1999/xlink"
   xmlns:sodipodi="http://sodipodi.sourceforge.net/DTD/sodipodi-0.dtd"
   xmlns:inkscape="http://www.inkscape.org/namespaces/inkscape"
   version="1.1"
   id="svg2"
   xml:space="preserve"
   width="549.98669"
   height="349.46667"
   viewBox="0 0 549.98669 349.46667"
   sodipodi:docname="Blobpirate.svg"
   inkscape:version="0.92.4 (5da689c313, 2019-01-14)"><metadata
     id="metadata8"><rdf:RDF><cc:Work
         rdf:about=""><dc:format>image/svg+xml</dc:format><dc:type
           rdf:resource="http://purl.org/dc/dcmitype/StillImage" /><dc:title></dc:title></cc:Work></rdf:RDF></metadata><defs
     id="defs6"><clipPath
       clipPathUnits="userSpaceOnUse"
       id="clipPath16"><path
         d="M 0,0 H 1528 V 1528 H 0 Z"
         id="path14"
         inkscape:connector-curvature="0" /></clipPath><clipPath
       clipPathUnits="userSpaceOnUse"
       id="clipPath20"><path
         d="M 1527.21,0 H 0 v 1527.21 h 1527.21 z"
         id="path18"
         inkscape:connector-curvature="0" /></clipPath><pattern
       patternTransform="matrix(7.07107,-7.07107,7.07107,7.07107,-1001,-467.098)"
       patternUnits="userSpaceOnUse"
       x="0"
       y="0"
       width="152.721"
       height="152.721"
       id="pattern84"><g
         transform="scale(0.1)"
         id="g82"><g
           id="g80"><g
             clip-path="url(#clipPath16)"
             id="g78"><g
               clip-path="url(#clipPath20)"
               id="g76"><path
                 d="m 20,0.00390625 -20,0 L 0,1527.2 l 20,0 L 20,0.00390625"
                 style="fill:#1a2f50;fill-opacity:1;fill-rule:nonzero;stroke:none"
                 id="path22" /><path
                 d="m 76.5625,0.00390625 -20,0 0,1527.19609375 20,0 0,-1527.19609375"
                 style="fill:#1a2f50;fill-opacity:1;fill-rule:nonzero;stroke:none"
                 id="path24" /><path
                 d="m 133.125,0.00390625 -20,0 0,1527.19609375 20,0 0,-1527.19609375"
                 style="fill:#1a2f50;fill-opacity:1;fill-rule:nonzero;stroke:none"
                 id="path26" /><path
                 d="m 189.688,0.00390625 -20,0 0,1527.19609375 20,0 0,-1527.19609375"
                 style="fill:#1a2f50;fill-opacity:1;fill-rule:nonzero;stroke:none"
                 id="path28" /><path
                 d="m 246.25,0.00390625 -20,0 0,1527.19609375 20,0 0,-1527.19609375"
                 style="fill:#1a2f50;fill-opacity:1;fill-rule:nonzero;stroke:none"
                 id="path30" /><path
                 d="m 302.813,0.00390625 -20,0 0,1527.19609375 20,0 0,-1527.19609375"
                 style="fill:#1a2f50;fill-opacity:1;fill-rule:nonzero;stroke:none"
                 id="path32" /><path
                 d="m 359.375,0.00390625 -20,0 0,1527.19609375 20,0 0,-1527.19609375"
                 style="fill:#1a2f50;fill-opacity:1;fill-rule:nonzero;stroke:none"
                 id="path34" /><path
                 d="m 415.938,0.00390625 -20,0 0,1527.19609375 20,0 0,-1527.19609375"
                 style="fill:#1a2f50;fill-opacity:1;fill-rule:nonzero;stroke:none"
                 id="path36" /><path
                 d="m 472.512,0.00390625 -20,0 0,1527.19609375 20,0 0,-1527.19609375"
                 style="fill:#1a2f50;fill-opacity:1;fill-rule:nonzero;stroke:none"
                 id="path38" /><path
                 d="m 529.07,0.00390625 -20,0 0,1527.19609375 20,0 0,-1527.19609375"
                 style="fill:#1a2f50;fill-opacity:1;fill-rule:nonzero;stroke:none"
                 id="path40" /><path
                 d="m 585.637,0.00390625 -20,0 0,1527.19609375 20,0 0,-1527.19609375"
                 style="fill:#1a2f50;fill-opacity:1;fill-rule:nonzero;stroke:none"
                 id="path42" /><path
                 d="m 642.195,0.00390625 -20,0 0,1527.19609375 20,0 0,-1527.19609375"
                 style="fill:#1a2f50;fill-opacity:1;fill-rule:nonzero;stroke:none"
                 id="path44" /><path
                 d="m 698.762,0.00390625 -20,0 0,1527.19609375 20,0 0,-1527.19609375"
                 style="fill:#1a2f50;fill-opacity:1;fill-rule:nonzero;stroke:none"
                 id="path46" /><path
                 d="m 755.32,0.00390625 -20,0 0,1527.19609375 20,0 0,-1527.19609375"
                 style="fill:#1a2f50;fill-opacity:1;fill-rule:nonzero;stroke:none"
                 id="path48" /><path
                 d="m 811.887,0.00390625 -20,0 0,1527.19609375 20,0 0,-1527.19609375"
                 style="fill:#1a2f50;fill-opacity:1;fill-rule:nonzero;stroke:none"
                 id="path50" /><path
                 d="m 868.445,0.00390625 -20,0 0,1527.19609375 20,0 0,-1527.19609375"
                 style="fill:#1a2f50;fill-opacity:1;fill-rule:nonzero;stroke:none"
                 id="path52" /><path
                 d="m 925.012,0.00390625 -20,0 0,1527.19609375 20,0 0,-1527.19609375"
                 style="fill:#1a2f50;fill-opacity:1;fill-rule:nonzero;stroke:none"
                 id="path54" /><path
                 d="m 981.57,0.00390625 -20,0 0,1527.19609375 20,0 0,-1527.19609375"
                 style="fill:#1a2f50;fill-opacity:1;fill-rule:nonzero;stroke:none"
                 id="path56" /><path
                 d="m 1038.13,0.00390625 -20,0 0,1527.19609375 20,0 0,-1527.19609375"
                 style="fill:#1a2f50;fill-opacity:1;fill-rule:nonzero;stroke:none"
                 id="path58" /><path
                 d="m 1094.7,0.00390625 -20,0 0,1527.19609375 20,0 0,-1527.19609375"
                 style="fill:#1a2f50;fill-opacity:1;fill-rule:nonzero;stroke:none"
                 id="path60" /><path
                 d="m 1151.26,0.00390625 -20,0 0,1527.19609375 20,0 0,-1527.19609375"
                 style="fill:#1a2f50;fill-opacity:1;fill-rule:nonzero;stroke:none"
                 id="path62" /><path
                 d="m 1207.82,0.00390625 -20,0 0,1527.19609375 20,0 0,-1527.19609375"
                 style="fill:#1a2f50;fill-opacity:1;fill-rule:nonzero;stroke:none"
                 id="path64" /><path
                 d="m 1264.39,0.00390625 -20,0 0,1527.19609375 20,0 0,-1527.19609375"
                 style="fill:#1a2f50;fill-opacity:1;fill-rule:nonzero;stroke:none"
                 id="path66" /><path
                 d="m 1320.96,0.00390625 -20,0 0,1527.19609375 20,0 0,-1527.19609375"
                 style="fill:#1a2f50;fill-opacity:1;fill-rule:nonzero;stroke:none"
                 id="path68" /><path
                 d="m 1377.52,0.00390625 -20,0 0,1527.19609375 20,0 0,-1527.19609375"
                 style="fill:#1a2f50;fill-opacity:1;fill-rule:nonzero;stroke:none"
                 id="path70" /><path
                 d="m 1434.08,0.00390625 -20,0 0,1527.19609375 20,0 0,-1527.19609375"
                 style="fill:#1a2f50;fill-opacity:1;fill-rule:nonzero;stroke:none"
                 id="path72" /><path
                 d="m 1490.64,0.00390625 -20,0 0,1527.19609375 20,0 0,-1527.19609375"
                 style="fill:#1a2f50;fill-opacity:1;fill-rule:nonzero;stroke:none"
                 id="path74" /></g></g></g></g></pattern><clipPath
       clipPathUnits="userSpaceOnUse"
       id="clipPath94"><path
         d="m 1165.27,2110.91 c 0,0 243.19,817.27 947.53,382.91 704.33,-434.35 466.32,-893.64 419.39,-1091.27 -46.92,-197.63 179.25,-591.03 -119.4,-846.109 C 2114.12,301.352 1205.48,-60.0898 553.34,555.301 -98.8008,1170.69 -6.22656,1857.93 483.781,1839.82 c 490.012,-18.1 528.579,-18.55 681.489,271.09 z"
         id="path92"
         inkscape:connector-curvature="0" /></clipPath><linearGradient
       x1="0"
       y1="0"
       x2="1"
       y2="0"
       gradientUnits="userSpaceOnUse"
       gradientTransform="matrix(2269.74,-1176.21,-1176.21,-2269.74,329.377,2018.77)"
       spreadMethod="pad"
       id="linearGradient100"><stop
         style="stop-opacity:1;stop-color:#1a2f50"
         offset="0"
         id="stop96" /><stop
         style="stop-opacity:1;stop-color:#3f79be"
         offset="1"
         id="stop98" /></linearGradient><clipPath
       clipPathUnits="userSpaceOnUse"
       id="clipPath110"><path
         d="m 4113.9,1227.08 c 0,0 -151.06,600.36 -681.15,490.9 -530.1,-109.45 -396.32,-436.3 -683.79,-666.25 -287.47,-229.949 -190.46,-722.648 300.17,-707.3 490.64,15.351 1170.41,436.05 1064.77,882.65 z"
         id="path108"
         inkscape:connector-curvature="0" /></clipPath><linearGradient
       x1="0"
       y1="0"
       x2="1"
       y2="0"
       gradientUnits="userSpaceOnUse"
       gradientTransform="matrix(-831.173,831.173,831.173,831.173,3762.46,564.29)"
       spreadMethod="pad"
       id="linearGradient116"><stop
         style="stop-opacity:1;stop-color:#1a2f50"
         offset="0"
         id="stop112" /><stop
         style="stop-opacity:1;stop-color:#3f79be"
         offset="1"
         id="stop114" /></linearGradient><linearGradient
       inkscape:collect="always"
       xlink:href="#LinearGradient_2-7"
       id="linearGradient8892"
       gradientUnits="userSpaceOnUse"
       gradientTransform="matrix(0.75000002,0,0,-0.75000002,-459.20392,268.58709)"
       x1="72.241203"
       y1="290.63699"
       x2="554.89301"
       y2="88.023102" /><linearGradient
       gradientTransform="matrix(0.75000002,0,0,-0.75000002,-459.20392,268.58709)"
       y1="290.63699"
       id="LinearGradient_2-7"
       x1="72.241203"
       y2="88.023102"
       x2="554.89301"
       gradientUnits="userSpaceOnUse"><stop
         stop-color="#ffc075"
         offset="0.00603622"
         id="stop1197-9" /><stop
         stop-color="#fd971f"
         offset="1"
         id="stop1199-3" /></linearGradient></defs><sodipodi:namedview
     pagecolor="#ffffff"
     bordercolor="#666666"
     borderopacity="1"
     objecttolerance="10"
     gridtolerance="10"
     guidetolerance="10"
     inkscape:pageopacity="0"
     inkscape:pageshadow="2"
     inkscape:window-width="3840"
     inkscape:window-height="2047"
     id="namedview4"
     showgrid="false"
     inkscape:zoom="3.8201571"
     inkscape:cx="81.122987"
     inkscape:cy="166.86577"
     inkscape:window-x="2560"
     inkscape:window-y="0"
     inkscape:window-maximized="1"
     inkscape:current-layer="g10" /><g
     id="g10"
     inkscape:groupmode="layer"
     inkscape:label="ink_ext_XXXXXX"
     transform="matrix(1.3333333,0,0,-1.3333333,0,349.46667)"><g
       transform="translate(457.36392,-9.37734)"
       id="g8788"><path
         style="clip-rule:evenodd;opacity:1;fill:#9ff0ff;fill-rule:evenodd;stroke-width:0.75;stroke-linecap:round;stroke-linejoin:round"
         inkscape:connector-curvature="0"
         id="path8778"
         d="m -413.58419,85.891588 c 0,90.796502 73.60553,164.402022 164.40203,164.402022 90.7965,0 164.401497,-73.60552 164.401497,-164.402022 0,-14.718 -1.93425,-28.984501 -5.562,-42.558751 -21.616497,-3.41475 -303.044327,-3.41475 -317.825777,0.5505 -3.53362,13.40925 -5.41575,27.489001 -5.41575,42.008251 z" /><path
         inkscape:connector-curvature="0"
         style="clip-rule:evenodd;opacity:1;fill:url(#linearGradient8892);fill-rule:evenodd;stroke-width:0.75;stroke-linecap:round;stroke-linejoin:round"
         id="path8780"
         d="m -208.04316,196.70506 c 47.25075,19.17533 112.198497,-14.74747 126.526497,-48.59797 17.47725,-41.2905 -24.319497,-97.497753 -24.319497,-97.497753 h -294.77978 c 0,0 -67.83878,70.229253 13.42163,100.325253 40.4874,14.99475 57.78765,-23.32875 102.97215,-18.49875 69.27,7.40475 31.68525,46.21275 76.179,64.26922 z" /><path
         style="clip-rule:evenodd;opacity:1;fill:#272822;fill-opacity:1;fill-rule:evenodd;stroke-width:0.75;stroke-linecap:round;stroke-linejoin:round"
         inkscape:connector-curvature="0"
         id="path8782"
         d="m -47.546903,44.031837 c 0,-19.139251 -91.142257,-34.6545011 -203.571757,-34.6545011 -112.43025,0 -203.57225,15.5152501 -203.57225,34.6545011 0,19.1385 91.142,34.653751 203.57225,34.653751 112.4295,0 203.571757,-15.515251 203.571757,-34.653751" /><path
         style="clip-rule:evenodd;opacity:1;fill:#a6e22e;fill-rule:evenodd;stroke-width:0.75;stroke-linecap:round;stroke-linejoin:round"
         inkscape:connector-curvature="0"
         id="path8784"
         d="m -341.29566,192.87834 c -8.02725,11.24137 15.879,1.85025 25.9725,7.57807 10.0935,5.72775 -12.73125,10.99418 -9.4425,13.93155 8.26875,7.3845 25.12875,-1.07265 26.5635,3.5727 1.27575,4.13258 -8.31675,9.48353 0,11.6637 8.88525,2.32928 11.2905,-2.83357 19.5735,0 4.1805,1.43003 24.2085,7.52363 28.09875,6.33165 9.27975,-2.84362 -28.09875,-13.93395 -28.09875,-21.56805 0,-7.63417 28.09875,-1.76295 28.09875,-8.96857 0,-7.20555 -34.9635,2.55105 -28.09875,-12.54105 3.10725,-6.831 20.07225,3.96727 27.2085,-4.401 2.7915,-3.273 -18.408,-4.92225 -21.84,-10.6845 -0.99825,-1.677 -14.4225,-13.8045 -9.288,-20.2935 2.31525,-2.92575 20.4105,18.83025 26.19525,12.2565 5.784,-6.57375 -10.953,-14.94675 -7.81725,-19.569 2.9115,-4.29225 10.36425,-1.82775 18.97275,0 8.60925,1.8285 11.5965,14.77275 15.462,7.3125 3.8655,-7.4595 -20.8335,-41.787 -20.8335,-42.61125 0,-52.513503 -41.961,-46.621503 -75.94125,-46.621503 -0.52275,0 -21.85725,-6.28125 -28.992,-3.81375 -6.89475,2.385 14.21325,14.209501 -3.80325,14.209501 -17.343,0 -24.8988,-0.0735 -24.7935,6.81525 0.0772,5.06925 37.89675,-7.5075 35.44575,5.628755 -3.3735,18.080247 -35.44575,17.417247 -31.1325,21.156747 12.31275,10.67625 63.4545,-17.343747 60.08925,-9.93825 -3.84075,8.451 0.58575,12.56325 -3.84075,21.198 -3.53175,6.89025 -23.343,-12.747 -26.4885,-4.8 -4.7535,12.0075 25.82625,20.892 26.83425,22.227 9.63225,12.7575 -21.46275,9.237 -21.46275,16.5495 0,7.9995 33.9615,-5.06925 31.53375,12.86475 -0.54375,4.0185 -20.25975,-2.56875 -21.40725,0 -2.664,5.964 6.03525,5.7375 15.105,12.795 5.86575,4.5645 -15.105,0.2415 -21.873,9.71925 z" /><path
         style="clip-rule:evenodd;opacity:1;fill:#8bc615;fill-rule:evenodd;stroke-width:0.75;stroke-linecap:round;stroke-linejoin:round"
         inkscape:connector-curvature="0"
         id="path8786"
         d="m -284.58741,195.39736 c -0.24225,4.0098 4.6575,6.78923 6.789,10.65758 2.1315,3.86827 -4.97325,4.263 -4.6575,8.05237 0.53625,6.43425 15.83475,12.28568 28.4985,18.31515 5.709,2.71785 2.48475,3.8223 3.4275,3.53355 3.8595,-1.18275 -0.3525,-3.79215 -6.58875,-6.9861 -8.7585,-4.48515 -21.51,-10.12312 -21.51,-14.58195 0,-7.63417 28.09875,-1.76295 28.09875,-8.96857 0,-7.20555 -34.9635,2.55105 -28.09875,-12.54105 3.10725,-6.831 20.07225,3.96727 27.2085,-4.401 2.7915,-3.273 -18.408,-4.92225 -21.84,-10.6845 -0.99825,-1.677 -14.4225,-13.8045 -9.288,-20.2935 2.31525,-2.92575 20.4105,18.83025 26.19525,12.2565 5.784,-6.57375 -10.953,-14.94675 -7.81725,-19.569 2.9115,-4.29225 10.36425,-1.82775 18.97275,0 8.60925,1.8285 11.5965,14.77275 15.462,7.3125 3.8655,-7.4595 -20.8335,-41.787 -20.8335,-42.61125 -4.02825,7.44825 -1.629,13.5615 -1.629,20.454 0,7.1745 -13.51575,-0.66675 -20.63025,10.22325 -2.74125,4.1955 -9.564,3.34725 -11.76825,4.42875 -11.65275,5.71875 -1.26525,19.55625 0.68325,22.32975 1.94925,2.77275 12.5655,9.47175 10.81875,12.4455 -2.02875,3.45525 -10.83075,-0.35625 -11.493,10.62802 z" /></g><g
       transform="matrix(0.75000002,0,0,-0.75000002,-11.38407,251.97167)"
       style="clip-rule:evenodd;opacity:1;fill-rule:evenodd;stroke-linecap:round;stroke-linejoin:round"
       id="g8794"><path
         style="opacity:1;fill:#66d9ef"
         inkscape:connector-curvature="0"
         d="m 112.58,70.0817 c 9.908,0 17.941,8.032 17.941,17.9414 0,9.908 -8.033,17.9409 -17.941,17.9409 -9.908,0 -17.9411,-8.0329 -17.9411,-17.9409 0,-9.9094 8.0331,-17.9414 17.9411,-17.9414"
         id="path8790" /><path
         style="opacity:1;fill:#ffffff"
         inkscape:connector-curvature="0"
         d="m 116.72,75.1937 c 1.575,-0.0253 2.951,0.4747 4.214,1.2294 1.251,0.7626 2.333,1.836 3.143,3.0986 0.818,1.2534 1.368,2.7094 1.494,4.1974 0.175,1.476 -0.087,2.9786 -0.762,4.304 -0.187,0.3666 -0.636,0.5133 -1.003,0.3266 -0.121,-0.0626 -0.219,-0.1533 -0.288,-0.26 l -0.043,-0.0666 c -0.77,-1.2067 -1.226,-2.2574 -1.796,-3.216 -0.51,-0.972 -1.051,-1.8454 -1.597,-2.7267 -0.549,-0.8787 -1.133,-1.7573 -1.792,-2.668 -0.641,-0.9227 -1.378,-1.8773 -2.094,-2.9933 l -0.073,-0.1134 c -0.216,-0.3346 -0.118,-0.7826 0.217,-0.9973 0.117,-0.076 0.25,-0.112 0.38,-0.1147"
         id="path8792" /></g><g
       transform="matrix(0.75000002,0,0,-0.75000002,-11.38407,251.97167)"
       style="clip-rule:evenodd;opacity:1;fill-rule:evenodd;stroke-linecap:round;stroke-linejoin:round"
       id="g8884"><path
         style="opacity:1;fill:#66d9ef"
         inkscape:connector-curvature="0"
         d="m 106.149,141.644 c 6.982,0 12.64,5.659 12.64,12.639 0,6.981 -5.658,12.641 -12.64,12.641 -6.9809,0 -12.6402,-5.66 -12.6402,-12.641 0,-6.98 5.6593,-12.639 12.6402,-12.639"
         id="path8880" /><path
         style="opacity:1;fill:#ffffff"
         inkscape:connector-curvature="0"
         d="m 109.066,145.244 c 1.109,-0.016 2.079,0.335 2.969,0.867 0.881,0.539 1.644,1.293 2.215,2.184 0.576,0.883 0.964,1.909 1.052,2.956 0.124,1.04 -0.061,2.099 -0.537,3.032 -0.131,0.26 -0.448,0.363 -0.706,0.231 -0.086,-0.044 -0.155,-0.108 -0.203,-0.184 l -0.03,-0.047 c -0.543,-0.849 -0.865,-1.589 -1.266,-2.265 -0.359,-0.686 -0.74,-1.3 -1.125,-1.922 -0.387,-0.618 -0.798,-1.237 -1.263,-1.878 -0.451,-0.651 -0.97,-1.323 -1.475,-2.11 l -0.052,-0.08 c -0.151,-0.236 -0.083,-0.55 0.153,-0.702 0.083,-0.054 0.177,-0.079 0.268,-0.082"
         id="path8882" /></g><g
       id="g10465"
       transform="translate(450.76681,-22.773933)"><path
         d="m -199.65913,194.7847 c 0,0 20.073,55.705 33.915,22.469 0,0 35.998,37.938 36.157,10.776 0,0 22.4,2.522 25.808,-11.313 3.695,-15.003 -7.281,-18.05 -14.732,-21.202 0,0 15.878,-26.985 -23.928,-12.177 0,0 5.883,-26.707 -36.479,-8.389 -42.361,18.318 -20.741,19.836 -20.741,19.836"
         style="fill:#3fbb6b;fill-opacity:1;fill-rule:nonzero;stroke:none;stroke-width:0.09999999"
         id="path106"
         inkscape:connector-curvature="0" /><path
         d="m -185.47913,125.8327 c 0,0 80.19,-0.615 82.753,21.901 1.523,13.391 -15.742,20.705 -33.63699,24.581 -59.96101,12.988 -60.06001,77.884 -122.76801,77.884 -40.912,0 -95.9534,-56.53 -107.3092,-88.27 -11.3567,-31.741 50.1942,-34.248 50.1942,-34.248 l 130.767,-1.848"
         style="fill:#484b4c;fill-opacity:1;fill-rule:nonzero;stroke:none;stroke-width:0.09999999"
         id="path108-5"
         inkscape:connector-curvature="0" /><path
         d="m -185.47913,125.8327 c 0,0 80.19,-0.615 82.753,21.901 1.523,13.391 -15.742,20.705 -33.63699,24.581 -59.96101,12.988 -60.06001,77.884 -122.76801,77.884 -40.912,0 -95.9534,-56.53 -107.3092,-88.27 -11.3567,-31.741 50.1942,-34.248 50.1942,-34.248 z"
         style="fill:none;stroke:#d1d2d0;stroke-width:5;stroke-linecap:butt;stroke-linejoin:miter;stroke-miterlimit:10;stroke-dasharray:none;stroke-opacity:1"
         id="path110"
         inkscape:connector-curvature="0" /><path
         d="m -312.28113,154.9817 c 9.368,-3.919 25.145,-7.609 51.64,-8.341 53.41,-1.477 104.639,1.17 115.99201,1.816 l -0.32601,0.137 c 0,0 -21.264,10.204 -74.257,5.998 -38.84,-3.083 -72.729,1.967 -88.061,4.885"
         style="fill:#171717;fill-opacity:1;fill-rule:nonzero;stroke:none;stroke-width:0.09999999"
         id="path112"
         inkscape:connector-curvature="0" /><path
         d="m -332.22813,83.438602 -28.7626,-14.8617 c -4.6539,-2.40431 -14.8512,18.79369 -9.2266,29.60779 5.6238,10.812898 34.8992,1.6449 34.8992,1.6449 3.26,-3.64369 5.412,-15.19099 3.09,-16.39099"
         style="fill:#f5748f;fill-opacity:1;fill-rule:evenodd;stroke:none;stroke-width:0.09999999"
         id="path114"
         inkscape:connector-curvature="0" /><path
         d="m -335.28613,84.639802 c 0,0 -15.0699,-8.3481 -21.7675,-11.46801 -6.6969,-3.1199 -11.2352,2.53401 -11.2363,2.5359 2.3406,-4.89999 5.3203,-8.1531 7.2992,-7.13079 l 26.1966,13.53669 -0.492,2.52621"
         style="fill:#f36082;fill-opacity:1;fill-rule:evenodd;stroke:none;stroke-width:0.09999999"
         id="path116"
         inkscape:connector-curvature="0" /><path
         d="m -341.16263,64.683502 c 12.2125,-31.7328 51.7895,-15.31871 60.0525,-14.41371 6.684,0.72891 14.7,-4.5863 29.61,-5.0703 14.90901,-0.48399 23.043,3.81021 35.855,1.9723 12.812,-1.83829 32.711,-19.54919 73.13,-7.50389 53.414,16.11799 -12.75399,143.607798 -97.96,143.607798 -85.204,0 -112.9004,-86.860198 -100.6875,-118.592198 v 0"
         style="fill:#f9b1bc;fill-opacity:1;fill-rule:evenodd;stroke:none;stroke-width:0.09999999"
         id="path118"
         inkscape:connector-curvature="0" /><path
         d="m -148.17013,38.157702 c 1.84401,0.445 3.71901,0.9328 5.655,1.5102 40.697,12.28159 11.968,89.204798 -41.702,125.142798 l -9.727,-18.611 c 0,0 18.952,-5.878 20.912,-16.303 2.06401,-10.977 0,-37.244008 0,-37.244008 0,0 43.751,-26.575 37.135,-39.7801 -3.795,-7.5719 -8.742,-12.16879 -12.273,-14.71489"
         style="fill:#f8a2ad;fill-opacity:1;fill-rule:evenodd;stroke:none;stroke-width:0.09999999"
         id="path120"
         inkscape:connector-curvature="0" /><path
         d="m -281.80213,112.0788 c 0.144,-11.50311 -8.915,-20.947198 -20.233,-21.092908 v 0 c -11.317,-0.14809 -20.608,9.057808 -20.752,20.560908 -0.144,11.5029 8.914,20.9469 20.232,21.0949 v 0 c 11.318,0.146 20.609,-9.06 20.753,-20.5629"
         style="fill:#ffffff;fill-opacity:1;fill-rule:nonzero;stroke:none;stroke-width:0.09999999"
         id="path122-8"
         inkscape:connector-curvature="0" /><path
         d="m -301.36413,95.357702 c -8.835,-0.53901 -16.43,6.298098 -16.968,15.276988 -0.538,8.98001 6.185,16.70501 15.019,17.26001 8.835,0.554 16.441,-6.272 16.994,-15.2768 0.526,-9.0063 -6.209,-16.720298 -15.045,-17.260198"
         style="fill:#040606;fill-opacity:1;fill-rule:nonzero;stroke:none;stroke-width:0.09999999"
         id="path124-9"
         inkscape:connector-curvature="0" /><path
         d="m -299.60713,122.1597 c 1.542,2.114 7.146,0.238 9.11,-3.27501 1.963,-3.5121 1.945,-8.90779 -1.308,-9.9969 -3.253,-1.08829 -3.016,3.15081 -4.721,6.13911 -1.705,2.9868 -4.623,5.0198 -3.081,7.1328 v 0"
         style="fill:#ffffff;fill-opacity:1;fill-rule:nonzero;stroke:none;stroke-width:0.09999999"
         id="path126-0"
         inkscape:connector-curvature="0" /><path
         d="m -292.15513,107.7968 c 1.148,-0.0672 1.986,-1.25 1.871,-2.64101 -0.115,-1.39219 -1.139,-2.46529 -2.286,-2.39809 -1.148,0.068 -1.986,1.2508 -1.871,2.643 0.115,1.39099 1.138,2.4648 2.286,2.3961"
         style="fill:#ffffff;fill-opacity:1;fill-rule:nonzero;stroke:none;stroke-width:0.09999999"
         id="path128-2"
         inkscape:connector-curvature="0" /><path
         d="m -235.46012,113.6886 c 0.93099,-14.662898 -10.81901,-27.355898 -26.25201,-28.359008 -15.434,-1.00269 -28.713,10.06411 -29.669,24.725008 -0.956,14.6611 10.773,27.3721 26.205,28.3981 15.431,1.026 28.73,-10.02 29.71001,-24.679"
         style="fill:#f9b1bc;fill-opacity:1;fill-rule:nonzero;stroke:none;stroke-width:0.09999999"
         id="path130-4"
         inkscape:connector-curvature="0" /><path
         d="m -237.79313,104.28159 c -3.28299,-9.776998 -12.59199,-17.158988 -23.99199,-17.895698 -14.82001,-0.96219 -27.57001,9.66601 -28.48501,23.743708 -0.417,6.4221 1.7,12.4551 5.533,17.2091 0,0 2.415,2.727 0.954,3.885 -1.46,1.158 -3.539,-2.091 -3.539,-2.091 -4.266,-5.316 -6.62,-12.05101 -6.153,-19.2199 1.031,-15.755098 15.302,-27.647308 31.88801,-26.570308 12.777,0.82811 23.20599,9.11211 26.868,20.076208 0,0 0.85999,2.24679 -0.64701,2.78589 -1.508,0.5391 -2.427,-1.923 -2.427,-1.923 v 0"
         style="fill:#a7505d;fill-opacity:1;fill-rule:nonzero;stroke:none;stroke-width:0.09999999"
         id="path132-7"
         inkscape:connector-curvature="0" /><path
         d="m -305.46513,139.0497 c -0.986,-1.123 -1.908,-1.821 -2.77,-2.543 -0.849,-0.748 -1.685,-1.275 -2.455,-1.863 -1.583,-1.062 -3.019,-1.971 -4.564,-2.73 -1.54,-0.774 -3.074,-1.581 -4.823,-2.383 -1.769,-0.802 -3.621,-1.676 -6.054,-2.619 l -0.089,-0.034 c -0.309,-0.12 -0.655,0.033 -0.775,0.342 -0.016,0.042 -0.028,0.088 -0.034,0.131 -0.405,2.806 0.43,5.296 1.68,7.489 1.284,2.181 3.123,4.04 5.297,5.353 2.163,1.31 4.634,2.195 7.183,2.188 2.524,0.07 5.091,-0.577 7.353,-2.333 0.287,-0.222 0.339,-0.636 0.116,-0.922 -0.008,-0.01 -0.015,-0.019 -0.024,-0.029 l -0.041,-0.047"
         style="fill:#040606;fill-opacity:1;fill-rule:nonzero;stroke:none;stroke-width:0.09999999"
         id="path134-6"
         inkscape:connector-curvature="0" /><path
         d="m -199.02513,140.0437 c 2.413,1.54 5.029,1.95 7.535,1.649 2.539,-0.227 4.919,-1.334 6.952,-2.839 2.046,-1.506 3.705,-3.527 4.784,-5.815 1.043,-2.298 1.648,-4.855 0.987,-7.612 -0.078,-0.322 -0.401,-0.52 -0.723,-0.443 -0.043,0.01 -0.085,0.025 -0.124,0.045 l -0.088,0.044 c -2.337,1.161 -4.101,2.202 -5.789,3.162 -1.667,0.96 -3.12,1.904 -4.583,2.816 -1.47,0.898 -2.817,1.935 -4.295,3.136 -0.713,0.657 -1.496,1.259 -2.273,2.082 -0.792,0.798 -1.647,1.577 -2.526,2.785 l -0.035,0.05 c -0.214,0.293 -0.148,0.704 0.145,0.918 0.01,0.007 0.022,0.015 0.033,0.022"
         style="fill:#040606;fill-opacity:1;fill-rule:nonzero;stroke:none;stroke-width:0.09999999"
         id="path136-5"
         inkscape:connector-curvature="0" /><path
         d="m -156.41913,87.218692 33.775,-26.286 c 5.464,-4.2539 21.746,18.4899 16.528,34.13521 -5.217,15.645688 -43.856,10.125798 -43.856,10.125798 -4.762,-4.0989 -9.17299,-15.853198 -6.447,-17.975008 v 0"
         style="fill:#f5748f;fill-opacity:1;fill-rule:evenodd;stroke:none;stroke-width:0.09999999"
         id="path138-7"
         inkscape:connector-curvature="0" /><path
         d="m -115.19613,103.2609 v 0 c 13.672,-9.872308 5.398,-28.907108 -0.684,-36.097298 -5.479,-6.477 -33.994,14.9973 -39.583,19.31089 l 32.819,-25.5418 c 5.464,-4.2539 21.746,18.4899 16.528,34.13521 -1.307,3.91989 -4.711,6.509788 -9.08,8.192998"
         style="fill:#f36082;fill-opacity:1;fill-rule:evenodd;stroke:none;stroke-width:0.09999999"
         id="path140-1"
         inkscape:connector-curvature="0" /><path
         sodipodi:nodetypes="sssss"
         inkscape:connector-curvature="0"
         id="path10348"
         d="m -181.5427,114.5859 c 0,-14.3419 -12.78352,-25.9683 -28.55281,-25.9683 -15.76929,0 -28.55282,11.6264 -28.55282,25.9683 0,14.3419 13.47974,20.05057 29.24902,20.05057 15.76929,0 27.85661,-5.70867 27.85661,-20.05057 z"
         style="opacity:1;fill:#1c1c1c;fill-opacity:1;stroke:none;stroke-width:1.32980275;stroke-linecap:round;stroke-linejoin:round;stroke-miterlimit:4;stroke-dasharray:none;stroke-dashoffset:0;stroke-opacity:1" /><path
         d="m -321.43213,62.258492 c 0.852,0.5774 27.386,22.209 51.28001,22.65 16.20799,0.3024 29.79999,2.025 49.47499,-6.1137 19.676,-8.139 41.837,-24.0832 42.414,-24.4363 0.578,-0.3519 0.96,-2.35899 0.543,-3.25269 -0.417,-0.89421 -1.764,-0.62621 -2.249,-0.3063 -0.484,0.32029 -24.625,14.6391 -41.328,21.5481 -16.703,6.90819 -31.04,6.09799 -49.47599,6.114 -23.89801,0.0282 -48.05301,-19.81871 -48.82501,-19.95701 -0.771,-0.1621 -2.612,-0.6898 -3.087,0.42311 -0.395,0.92419 0.402,2.7558 1.254,3.33199 l -9.8e-4,-10e-4"
         style="fill:#a7505d;fill-opacity:1;fill-rule:nonzero;stroke:none;stroke-width:0.09999999"
         id="path146-3"
         inkscape:connector-curvature="0" /><path
         d="m -307.29313,159.4767 c 0,0 -9.997,-1.812 -12.743,-13.277 0,0 7.294,5.519 28.6,3.166 21.306,-2.353 95.093,2.762 120.46801,-9.05 10.791,-5.024 17.601,-2.578 17.601,-2.578 0,0 7.69999,13.576 -8.62301,17.833 l -11.396,3.906 -132.465,4.838 -1.442,-4.838"
         style="fill:#be1c2e;fill-opacity:1;fill-rule:evenodd;stroke:none;stroke-width:0.09999999"
         id="path148-8"
         inkscape:connector-curvature="0" /><path
         d="m -169.80213,145.8267 c 0,0 4.66901,-32.4682 -3.23,-53.174008 0,0 19.213,-8.179 15.674,1.68 -3.53899,9.860998 8.327,-1.27609 8.327,-1.27609 0,0 -7.27899,58.315098 -20.771,52.770098"
         style="fill:#be1c2e;fill-opacity:1;fill-rule:evenodd;stroke:none;stroke-width:0.09999999"
         id="path150-5"
         inkscape:connector-curvature="0" /><path
         sodipodi:nodetypes="csc"
         id="path10378"
         d="m -226.14456,156.8713 c 0,0 12.55267,-26.59348 27.26551,-35.41873 33.10003,-19.85449 63.31726,-10.60148 63.31726,-10.60148"
         style="fill:none;fill-rule:evenodd;stroke:#1c1c1c;stroke-width:3;stroke-linecap:butt;stroke-linejoin:miter;stroke-miterlimit:4;stroke-dasharray:none;stroke-opacity:1"
         inkscape:connector-curvature="0" /><path
         d="m -144.97513,148.5937 c 0,0 -21.264,10.204 -74.257,5.998 -52.993,-4.206 -96.771,6.728 -96.771,6.728 0,0 -8.241,2.111 -13.029,6.53 v 13.116 l 60.018,27.07 59.164,-4.465 61.39401,-41.302 3.48099,-13.675"
         style="fill:#484b4c;fill-opacity:1;fill-rule:nonzero;stroke:none;stroke-width:0.09999999"
         id="path152-1"
         inkscape:connector-curvature="0" /><path
         d="m -252.46813,210.8377 c -1.89499,-0.346 -3.819,1.494 -4.296,4.109 -0.477,2.616 0.672,5.017 2.568,5.363 1.895,0.346 3.818,-1.494 4.296,-4.109 0.477,-2.616 -0.673,-5.017 -2.568,-5.363 z m -3.756,-6.124 h -3.555 c -0.84,0 -1.38499,0.883 -1.00999,1.635 l 1.77699,3.554 c 0.41601,0.833 1.60401,0.833 2.02101,0 l 1.77699,-3.554 c 0.376,-0.752 -0.17,-1.635 -1.01,-1.635 z m -7.311,6.124 c -1.89499,0.346 -3.04399,2.747 -2.56699,5.363 0.477,2.615 2.4,4.455 4.29499,4.109 1.896,-0.346 3.045,-2.747 2.568,-5.363 -0.477,-2.615 -2.401,-4.455 -4.296,-4.109 z m 19.269,5.193 c -0.85699,0.497 -1.393,1.388 -1.61299,2.354 -1.31201,5.764 -6.24201,10.05 -12.12201,10.05 -5.882,0 -10.811,-4.286 -12.123,-10.051 -0.21999,-0.965 -0.756,-1.856 -1.61199,-2.353 -2.08801,-1.213 -3.45101,-3.203 -3.45101,-5.457 0,-3.198 2.74,-5.873 6.404,-6.539 1.032,-0.187 1.782,-1.086 1.782,-2.134 v -0.066 c 0,-1.753 1.413,-3.168 3.156,-3.168 h 11.68701 c 1.74399,0 3.15699,1.413 3.15699,3.157 0,1.093 0.783,2.022 1.858,2.225 3.626,0.689 6.32801,3.349 6.32801,6.525 0,2.254 -1.365,4.245 -3.45101,5.457"
         style="fill:#ffffff;fill-opacity:1;fill-rule:evenodd;stroke:none;stroke-width:0.09999999"
         id="path154-0"
         inkscape:connector-curvature="0" /><path
         d="m -265.55513,173.8937 24.652,17.956 c 0.822,-1.28 2.634,-2.022 4.30901,-1.682 1.863,0.376 2.84199,1.936 2.18899,3.484 -0.65299,1.548 -2.69299,2.497 -4.554,2.121 -0.225,-0.045 -0.436,-0.11 -0.634,-0.188 0.135,0.164 0.261,0.345 0.373,0.545 0.93,1.657 0.65201,3.889 -0.621,4.985 -1.273,1.097 -3.058,0.643 -3.988,-1.014 -0.85299,-1.519 -0.678,-3.512 0.337,-4.679 l -24.669,-17.968 c -0.799,1.324 -2.643,2.101 -4.351,1.756 -1.861,-0.377 -2.841,-1.937 -2.188,-3.485 0.653,-1.547 2.692,-2.497 4.55401,-2.12 0.225,0.045 0.43599,0.11 0.63399,0.188 -0.135,-0.165 -0.261,-0.346 -0.37299,-0.546 -0.93,-1.657 -0.65201,-3.888 0.621,-4.985 1.27299,-1.097 3.05799,-0.643 3.98799,1.014 0.837,1.492 0.687,3.443 -0.279,4.618"
         style="fill:#ffffff;fill-opacity:1;fill-rule:evenodd;stroke:none;stroke-width:0.09999999"
         id="path156-8"
         inkscape:connector-curvature="0" /><path
         d="m -250.44812,173.8937 -24.65201,17.956 c -0.822,-1.28 -2.633,-2.022 -4.31,-1.682 -1.861,0.376 -2.841,1.936 -2.188,3.484 0.653,1.548 2.692,2.497 4.555,2.121 0.224,-0.045 0.435,-0.11 0.633,-0.188 -0.135,0.164 -0.261,0.345 -0.373,0.545 -0.93,1.657 -0.651,3.889 0.621,4.985 1.273,1.097 3.059,0.643 3.988,-1.014 0.853,-1.519 0.67801,-3.512 -0.337,-4.679 l 24.669,-17.968 c 0.8,1.324 2.643,2.101 4.35101,1.756 1.86199,-0.377 2.84199,-1.937 2.18799,-3.485 -0.653,-1.547 -2.69199,-2.497 -4.554,-2.12 -0.225,0.045 -0.43599,0.11 -0.63399,0.188 0.135,-0.165 0.261,-0.346 0.37299,-0.546 0.93,-1.657 0.652,-3.888 -0.621,-4.985 -1.27299,-1.097 -3.05799,-0.643 -3.987,1.014 -0.83799,1.492 -0.68799,3.443 0.27801,4.618"
         style="fill:#ffffff;fill-opacity:1;fill-rule:evenodd;stroke:none;stroke-width:0.09999999"
         id="path158-7"
         inkscape:connector-curvature="0" /></g><g
       transform="matrix(0.75000002,0,0,-0.75000002,-11.38407,251.97167)"
       style="clip-rule:evenodd;opacity:1;fill-rule:evenodd;stroke-linecap:round;stroke-linejoin:round"
       id="g8890"><path
         style="opacity:1;fill:#66d9ef"
         inkscape:connector-curvature="0"
         d="m 132.52,173.844 c 3.663,0 6.633,2.97 6.633,6.634 0,3.662 -2.97,6.632 -6.633,6.632 -3.664,0 -6.633,-2.97 -6.633,-6.632 0,-3.664 2.969,-6.634 6.633,-6.634"
         id="path8886" /><path
         style="opacity:1;fill:#ffffff"
         inkscape:connector-curvature="0"
         d="m 134.05,175.734 c 0.583,-0.008 1.092,0.176 1.558,0.454 0.463,0.283 0.862,0.679 1.163,1.146 0.301,0.464 0.505,1.002 0.551,1.552 0.066,0.545 -0.031,1.101 -0.281,1.592 -0.069,0.134 -0.235,0.189 -0.371,0.12 -0.045,-0.023 -0.081,-0.058 -0.107,-0.096 l -0.015,-0.024 c -0.285,-0.447 -0.454,-0.835 -0.665,-1.19 -0.188,-0.36 -0.388,-0.682 -0.59,-1.008 -0.203,-0.325 -0.418,-0.649 -0.662,-0.986 -0.237,-0.342 -0.51,-0.694 -0.775,-1.107 l -0.026,-0.041 c -0.081,-0.124 -0.044,-0.29 0.08,-0.37 0.044,-0.028 0.093,-0.041 0.14,-0.042"
         id="path8888" /></g><g
       transform="matrix(0.75000002,0,0,-0.75000002,-11.38407,251.97167)"
       style="clip-rule:evenodd;opacity:1;fill-rule:evenodd;stroke-linecap:round;stroke-linejoin:round"
       id="g8878"><path
         style="opacity:1;fill:#66d9ef"
         inkscape:connector-curvature="0"
         d="m 133.965,116.426 c 6.005,0 10.872,4.868 10.872,10.873 0,6.005 -4.867,10.873 -10.872,10.873 -6.006,0 -10.874,-4.868 -10.874,-10.873 0,-6.005 4.868,-10.873 10.874,-10.873"
         id="path8874" /><path
         style="opacity:1;fill:#ffffff"
         inkscape:connector-curvature="0"
         d="m 136.474,119.523 c 0.954,-0.015 1.788,0.288 2.553,0.745 0.758,0.462 1.414,1.112 1.906,1.878 0.495,0.76 0.828,1.642 0.904,2.544 0.107,0.896 -0.052,1.805 -0.461,2.609 -0.113,0.223 -0.385,0.311 -0.607,0.197 -0.075,-0.037 -0.134,-0.093 -0.175,-0.157 l -0.026,-0.04 c -0.467,-0.732 -0.744,-1.369 -1.089,-1.949 -0.309,-0.59 -0.637,-1.119 -0.968,-1.654 -0.332,-0.532 -0.687,-1.064 -1.086,-1.616 -0.388,-0.56 -0.835,-1.138 -1.269,-1.814 l -0.045,-0.07 c -0.13,-0.202 -0.071,-0.473 0.133,-0.604 0.07,-0.045 0.151,-0.068 0.23,-0.069"
         id="path8876" /></g></g></svg>