<?xml version="1.0" encoding="UTF-8" standalone="no"?>
<!-- Created with Vectornator for iOS (http://vectornator.io/) -->

<svg
   xmlns:vectornator="http://vectornator.io"
   xmlns:dc="http://purl.org/dc/elements/1.1/"
   xmlns:cc="http://creativecommons.org/ns#"
   xmlns:rdf="http://www.w3.org/1999/02/22-rdf-syntax-ns#"
   xmlns:svg="http://www.w3.org/2000/svg"
   xmlns="http://www.w3.org/2000/svg"
   xmlns:sodipodi="http://sodipodi.sourceforge.net/DTD/sodipodi-0.dtd"
   xmlns:inkscape="http://www.inkscape.org/namespaces/inkscape"
   style="fill-rule:evenodd;clip-rule:evenodd;stroke-linecap:round;stroke-linejoin:round;"
   xml:space="preserve"
   version="1.1"
   viewBox="0 0 79.375 39.6875"
   id="svg1309"
   sodipodi:docname="Blobextended.svg"
   inkscape:version="0.92.4 (5da689c313, 2019-01-14)"><sodipodi:namedview
   pagecolor="#ffffff"
   bordercolor="#666666"
   borderopacity="1"
   objecttolerance="10"
   gridtolerance="10"
   guidetolerance="10"
   inkscape:pageopacity="0"
   inkscape:pageshadow="2"
   inkscape:window-width="3840"
   inkscape:window-height="2047"
   id="namedview1311"
   showgrid="false"
   inkscape:zoom="20.447244"
   inkscape:cx="36.683032"
   inkscape:cy="17.76383"
   inkscape:window-x="2560"
   inkscape:window-y="0"
   inkscape:window-maximized="1"
   inkscape:current-layer="svg1309" />
<metadata
   id="metadata1236">
<vectornator:setting
   key="DynamicGuides"
   value="1" />
<vectornator:setting
   key="Units"
   value="Points" />
<vectornator:setting
   key="GridSpacing"
   value="36" />
<vectornator:setting
   key="SnapToGuides"
   value="1" />
<vectornator:setting
   key="RulersVisible"
   value="1" />
<rdf:RDF><cc:Work
     rdf:about=""><dc:format>image/svg+xml</dc:format><dc:type
       rdf:resource="http://purl.org/dc/dcmitype/StillImage" /></cc:Work></rdf:RDF></metadata>
<defs
   id="defs1238">

























</defs>
<path
   style="opacity:1;fill:#2e2f28;fill-opacity:1"
   inkscape:connector-curvature="0"
   id="path1240"
   d="m 74.6728,33.838 c 0,3.2306 -15.3844,5.8495 -34.3621,5.8495 -18.9776,0 -34.36199,-2.6189 -34.36199,-5.8495 0,-3.2305 15.38439,-5.8494 34.36199,-5.8494 18.9777,0 34.3621,2.6189 34.3621,5.8494" /><path
   style="opacity:1;fill:#ff9197;stroke-width:1.09587407"
   inkscape:connector-curvature="0"
   id="path1242"
   d="m 21.147502,32.526425 -5.060308,2.092133 c -0.818837,0.338406 -2.233391,-3.380223 -1.130394,-5.122005 1.102778,-1.741673 5.905117,0.22312 5.905117,0.22312 0.497198,0.660812 0.694236,2.637768 0.285585,2.806752 z" /><path
   style="opacity:1;fill:#d97f84;stroke-width:1.09587407"
   inkscape:connector-curvature="0"
   id="path1244"
   d="M 52.427364,20.597178 C 62.374942,15.517473 70.054608,8.5333583 76.212215,0.27134463 75.356009,4.9276368 75.264722,9.481289 78.682754,13.564187 c -3.51129,2.244131 -6.036732,5.691861 -7.193647,10.810141 -3.778683,-0.495226 -7.426848,-0.08011 -10.604335,3.615069 -1.432417,-2.754918 -3.281923,-4.297689 -6.157278,-2.859026 l -2.2735,0.157148 -1.030122,-4.017693 z" /><path
   style="opacity:1;fill:#d97f84;stroke-width:1.09587407"
   inkscape:connector-curvature="0"
   id="path1246"
   d="M 18.751812,19.696151 C 11.909503,15.75473 6.627072,10.335633 2.3916064,3.924923 c 0.5888898,3.6129105 0.6517272,7.146261 -1.69935003,10.314213 2.41517493,1.741235 4.15229973,4.416373 4.94809063,8.38782 2.5991831,-0.384323 5.108406,-0.06225 7.294127,2.805 0.985191,-2.137612 2.257391,-3.334636 4.235224,-2.218378 l 1.563813,0.121861 0.708482,-3.117323 z" /><path
   style="opacity:1;fill:#ca6c71;stroke-width:1.09587407"
   inkscape:connector-curvature="0"
   id="path1248"
   d="m 0.69225637,14.239136 c 2.41517493,1.741235 4.15229973,4.416373 4.94809063,8.38782 2.5991831,-0.384323 5.108406,-0.06225 7.294127,2.805 0.985191,-2.137612 2.257391,-3.334636 4.235224,-2.218378 l 1.563813,0.121861 c 0,0 -3.360608,-2.012134 -5.632464,0.01951 -0.668264,0.59758 -2.174653,-0.978506 -3.033928,-1.378829 C 8.6422638,21.312236 6.6650111,21.674971 5.8009802,20.310498 4.1189012,17.654318 2.0316227,14.609542 0.69225637,14.239136 Z" /><path
   style="opacity:1;fill:#ffc7c7;stroke-width:1.09587407"
   inkscape:connector-curvature="0"
   id="path1250"
   d="m 17.751717,32.215635 c 2.065613,5.367044 8.295876,2.452019 9.693664,2.299035 1.130503,-0.123505 2.949764,0.914616 5.471589,0.996587 2.521716,0.08164 4.917187,-0.551882 7.084169,-0.241092 2.167091,0.3109 4.512919,3.21387 11.349419,1.176531 5.805284,-1.751865 9.205671,-4.699985 2.894642,-11.28849 -1.641181,-1.713289 -2.733986,-7.131948 -6.123525,-9.553611 -3.860107,-2.758095 -10.862523,-3.725424 -14.081434,-3.725424 -2.734973,0 -5.20584,2.455197 -7.805801,4.201362 -2.01323,1.35198 -4.326621,1.944848 -5.493946,2.752727 -6.648887,4.601684 -4.461851,9.555035 -2.988777,13.382375 z" /><path
   style="opacity:1;fill:#f7b5b5;stroke-width:1.09587407"
   inkscape:connector-curvature="0"
   id="path1252"
   d="m 40.001139,35.270165 c 2.167091,0.3109 4.512919,3.21387 11.349419,1.176531 5.805284,-1.751865 9.205671,-4.699985 2.894642,-11.28849 -1.641181,-1.713289 -2.733986,-7.131948 -6.123525,-9.553611 1.877452,1.934328 2.400184,4.504591 5.389618,10.780881 0.527116,1.106833 4.122459,4.640698 0.902014,6.994306 -5.839913,4.267991 -10.528829,2.235364 -14.412168,1.890383 z" /><path
   style="opacity:1;fill:#ff9197;stroke-width:1.09587407"
   inkscape:connector-curvature="0"
   id="path1254"
   d="m 50.196713,33.300331 6.175469,3.776821 c 0.999109,0.611059 3.303732,-3.520496 2.129831,-6.050978 -1.17379,-2.530483 -7.562955,-0.869248 -7.562955,-0.869248 -0.72262,0.779386 -1.240968,2.838533 -0.742345,3.143405 z" /><g
   style="opacity:1"
   id="g1278"
   transform="matrix(1.0958741,0,0,1.0958741,-3.8050026,-3.027346)">
<path
   style="opacity:1;fill:#b06264"
   inkscape:connector-curvature="0"
   id="path1256"
   d="m 22.7695,32.4434 c 0.1314,-0.0891 4.2267,-3.4277 7.9144,-3.4959 2.5016,-0.0465 4.5994,-0.3124 7.6362,0.9437 3.0367,1.2562 6.4571,3.7171 6.5462,3.7716 0.089,0.0543 0.1481,0.3639 0.0838,0.502 -0.0644,0.138 -0.2724,0.0966 -0.3472,0.0472 -0.0748,-0.0495 -3.8006,-2.2594 -6.3786,-3.3257 -2.578,-1.0663 -4.7908,-0.9411 -7.6361,-0.9436 -3.6884,-0.0043 -7.4166,3.0588 -7.5356,3.0801 -0.1191,0.025 -0.4032,0.1066 -0.4765,-0.0653 -0.0611,-0.1426 0.062,-0.4254 0.1934,-0.5143 z" />
<path
   style="opacity:1;fill:#fffefe"
   inkscape:connector-curvature="0"
   id="path1258"
   d="m 28.8325,24.8447 c 0.0222,1.7753 -1.3759,3.233 -3.1227,3.2556 -1.7468,0.0227 -3.1808,-1.3981 -3.203,-3.1735 -0.0222,-1.7754 1.3759,-3.2331 3.1227,-3.2557 1.7468,-0.0227 3.1808,1.3982 3.203,3.1736 z" />
<path
   style="opacity:1;fill:#000000"
   inkscape:connector-curvature="0"
   id="path1260"
   d="m 25.8134,27.4255 c -1.3637,0.0833 -2.5359,-0.972 -2.6189,-2.3579 -0.0831,-1.3859 0.9545,-2.5782 2.318,-2.6638 1.3636,-0.0855 2.5374,0.9678 2.6229,2.3577 0.0811,1.39 -0.9583,2.5806 -2.322,2.664 z" />
<path
   style="opacity:1;fill:#ffffff"
   inkscape:connector-curvature="0"
   id="path1262"
   d="m 26.0845,23.2887 c 0.2379,-0.3261 1.1029,-0.0366 1.406,0.5056 0.303,0.542 0.3003,1.3748 -0.2018,1.5429 -0.5022,0.1679 -0.4655,-0.4863 -0.7287,-0.9474 -0.2632,-0.4612 -0.7136,-0.775 -0.4756,-1.101 z" />
<path
   style="opacity:1;fill:#ffffff"
   inkscape:connector-curvature="0"
   id="path1264"
   d="m 26.8818,25.8754 c 0.0177,-0.2147 0.1757,-0.3803 0.3529,-0.3699 0.1771,0.0105 0.3064,0.1931 0.2887,0.4078 -0.0178,0.2148 -0.1757,0.3804 -0.3529,0.37 -0.1772,-0.0105 -0.3064,-0.1931 -0.2887,-0.4079 z" />
<path
   style="opacity:1;fill:#ffc7c7"
   inkscape:connector-curvature="0"
   id="path1266"
   d="m 35.9849,24.5963 c 0.1438,2.2631 -1.6697,4.2221 -4.0517,4.3769 -2.3821,0.1548 -4.4316,-1.5532 -4.5792,-3.816 -0.1475,-2.2629 1.6627,-4.2246 4.0445,-4.383 2.3818,-0.1585 4.4342,1.5464 4.5856,3.809" />
<path
   style="opacity:1;fill:#b06264"
   inkscape:connector-curvature="0"
   id="path1268"
   d="m 35.6249,26.0482 c -0.5068,1.5089 -1.9435,2.6481 -3.703,2.762 -2.2873,0.1485 -4.2551,-1.4919 -4.3964,-3.6647 -0.0644,-0.9912 0.2624,-1.9223 0.8541,-2.6561 0,0 0.3726,-0.4207 0.1472,-0.5995 -0.2253,-0.1788 -0.5462,0.3226 -0.5462,0.3226 -0.6585,0.8206 -1.0219,1.86 -0.9497,2.9665 0.1591,2.4317 2.3617,4.267 4.9216,4.1008 1.972,-0.1279 3.5817,-1.4063 4.1469,-3.0986 0,0 0.1326,-0.3467 -0.1,-0.4299 -0.2327,-0.0832 -0.3746,0.2969 -0.3745,0.2969 z" />
<path
   style="opacity:1;fill:#fffefe"
   inkscape:connector-curvature="0"
   id="path1270"
   d="m 42.6266,24.8135 c 0.0222,1.7754 -1.3759,3.2331 -3.1227,3.2557 -1.7468,0.0227 -3.1808,-1.3981 -3.203,-3.1735 -0.0222,-1.7754 1.3759,-3.2331 3.1227,-3.2557 1.7468,-0.0227 3.1808,1.3982 3.203,3.1735 z" />
<path
   style="opacity:1;fill:#000000"
   inkscape:connector-curvature="0"
   id="path1272"
   d="m 39.6074,27.3944 c -1.3636,0.0833 -2.5358,-0.972 -2.6189,-2.3579 -0.083,-1.3859 0.9545,-2.5782 2.3181,-2.6638 1.3635,-0.0856 2.5374,0.9678 2.6228,2.3577 0.0811,1.39 -0.9583,2.5806 -2.322,2.664 z" />
<path
   style="opacity:1;fill:#ffffff"
   inkscape:connector-curvature="0"
   id="path1274"
   d="m 39.8785,23.2576 c 0.238,-0.3261 1.103,-0.0366 1.406,0.5056 0.303,0.542 0.3004,1.3748 -0.2018,1.5429 -0.5022,0.1679 -0.4654,-0.4863 -0.7286,-0.9474 -0.2633,-0.4612 -0.7136,-0.775 -0.4756,-1.101 z" />
<path
   style="opacity:1;fill:#ffffff"
   inkscape:connector-curvature="0"
   id="path1276"
   d="m 40.6759,25.8443 c 0.0177,-0.2147 0.1757,-0.3804 0.3528,-0.3699 0.1772,0.0105 0.3064,0.193 0.2887,0.4078 -0.0177,0.2148 -0.1757,0.3804 -0.3528,0.3699 -0.1772,-0.0104 -0.3064,-0.193 -0.2887,-0.4078 z" />
</g><path
   style="opacity:1;fill:none;stroke:#572100;stroke-width:0.73417211;stroke-linecap:round;stroke-linejoin:round"
   inkscape:connector-curvature="0"
   id="path1280"
   d="m 19.973711,8.5962615 c 0.07616,0.275174 6.711791,8.4748325 6.711791,8.4748325" /><path
   style="opacity:1;fill:#78dce8;fill-opacity:1;stroke-width:1.09587407"
   inkscape:connector-curvature="0"
   id="path1282"
   d="m 19.770207,8.5560429 -1.900464,8.9828801 5.591588,-4.290895 z" /><path
   d="m 58.41259,17.423527 -8.55242,6.485383 c -0.202518,0.541581 -0.213696,1.032313 0.562293,1.314062 L 60.93595,21.875406 c -0.918671,-1.142449 -1.721618,-1.797014 -2.52336,-4.451879 z"
   id="path1284"
   inkscape:connector-curvature="0"
   style="opacity:1;fill:#ff6188;fill-opacity:1;stroke-width:1.09587407" /><path
   d="m 58.41259,17.423527 c 2.362157,0.925137 2.697604,2.614427 2.52336,4.451879 -2.405882,-1.374336 -2.712508,-2.41969 -2.52336,-4.451879 z"
   id="path1286"
   inkscape:connector-curvature="0"
   style="opacity:1;fill:#c04664;fill-opacity:1;stroke-width:1.09587407" /><path
   d="m 34.012516,13.523969 c 0.470678,0.688428 1.098394,1.259488 2.408731,1.618825 1.692906,0.464212 3.796984,0.629141 5.564191,0.431007 1.304638,-0.146189 2.070106,-0.57106 2.706699,-1.138613 0,0 -0.807878,-4.923981 -4.33988,-5.5707661 -0.04866,-0.00899 -0.09885,-0.010959 -0.149149,-0.015561 -0.05567,-0.00515 -0.11156,-0.022246 -0.165696,-0.012712 -1.254666,0.2207091 -6.024896,4.6877111 -6.024896,4.6878201 z"
   id="path1290"
   inkscape:connector-curvature="0"
   style="opacity:1;fill:#ff6188;fill-opacity:1;stroke-width:1.09587407" /><path
   d="m 41.951027,15.577637 c 1.319214,-0.143998 2.45443,-0.489089 3.096612,-1.061573 0,0 -0.347173,-5.257347 -4.844531,-5.6672035 1.059053,0.5536355 1.809727,4.4214135 1.747919,6.7287765 z"
   id="path1292"
   inkscape:connector-curvature="0"
   style="opacity:1;fill:#78dce8;fill-opacity:1;stroke-width:1.09587407" /><path
   d="m 33.576248,13.556297 c 0.472103,0.69051 1.541128,1.230448 2.856944,1.589785 0.323064,-2.304404 1.937067,-5.807585 3.769916,-6.2972215 -4.497248,-0.4098569 -6.62686,4.7074365 -6.62686,4.7074365 z"
   id="path1294"
   inkscape:connector-curvature="0"
   style="opacity:1;fill:#ffd866;fill-opacity:1;stroke-width:1.09587407" /><path
   d="m 40.235984,8.29654 -0.03748,0.5353344"
   id="path1296"
   inkscape:connector-curvature="0"
   style="opacity:1;fill:none;stroke:#000000;stroke-width:0.23542881;stroke-linecap:round;stroke-linejoin:round" /><path
   d="m 40.262505,8.3684293 c 0.0114,-0.2863519 0.57621,-0.4965077 1.26157,-0.4692971 0.68525,0.027221 1.231653,0.2814643 1.220256,0.5679258 -0.0114,0.2863519 -0.576101,0.496541 -1.261461,0.469253 -0.68536,-0.02718 -1.231653,-0.2814202 -1.220365,-0.5678817 z"
   id="path1298"
   inkscape:connector-curvature="0"
   style="opacity:1;fill:#ff6188;fill-opacity:1;stroke-width:1.09587407" /><path
   d="m 37.708241,8.1679939 c 0.01984,-0.2859135 0.590567,-0.4792147 1.274831,-0.4317196 0.684154,0.047495 1.222776,0.3178583 1.202941,0.6037719 -0.01994,0.2859135 -0.590676,0.4792257 -1.274831,0.4317743 -0.684263,-0.047451 -1.222886,-0.3178034 -1.202941,-0.6038266 z"
   id="path1300"
   inkscape:connector-curvature="0"
   style="opacity:1;fill:#78dce8;fill-opacity:1;stroke-width:1.09587407" /><path
   style="opacity:1;fill:#d37075;stroke-width:1.09587407"
   inkscape:connector-curvature="0"
   id="path1304"
   d="m 52.584294,34.760584 3.787888,2.316568 c 0.999109,0.611059 3.303732,-3.520496 2.129831,-6.050978 0.03671,1.244036 -0.581361,5.344468 -2.327198,5.233127 -1.044477,-0.06674 -3.590521,-1.498717 -3.590521,-1.498717 z" /><path
   style="opacity:1;fill:#ca6c71;stroke-width:1.09587407"
   inkscape:connector-curvature="0"
   id="path1306"
   d="M 76.212215,0.27134463 C 75.356009,4.9276368 75.264722,9.481289 78.682754,13.564187 c -3.51129,2.244131 -6.036732,5.691861 -7.193647,10.810141 -3.778683,-0.495226 -7.426848,-0.08011 -10.604335,3.615069 2.123256,-4.599603 6.091636,-3.870627 8.898936,-5.798708 1.261242,-0.866289 1.621017,-2.503634 2.808945,-4.651766 1.113627,-2.013888 3.217924,-3.202583 3.475783,-4.49144 0.629361,-3.146255 -2.137064,-6.0217844 0.143779,-12.77613837 z" />
</svg>