<?xml version="1.0" encoding="UTF-8" standalone="no"?>
<!-- Created with Inkscape (http://www.inkscape.org/) -->

<svg
   version="1.1"
   id="svg2"
   xml:space="preserve"
   width="571.20001"
   height="362.33334"
   viewBox="0 0 571.20001 362.33334"
   sodipodi:docname="Blobsherlock.svg"
   inkscape:version="1.2 (dc2aeda, 2022-05-15)"
   xmlns:inkscape="http://www.inkscape.org/namespaces/inkscape"
   xmlns:sodipodi="http://sodipodi.sourceforge.net/DTD/sodipodi-0.dtd"
   xmlns="http://www.w3.org/2000/svg"
   xmlns:svg="http://www.w3.org/2000/svg"
   xmlns:rdf="http://www.w3.org/1999/02/22-rdf-syntax-ns#"
   xmlns:cc="http://creativecommons.org/ns#"
   xmlns:dc="http://purl.org/dc/elements/1.1/"><metadata
     id="metadata8"><rdf:RDF><cc:Work
         rdf:about=""><dc:format>image/svg+xml</dc:format><dc:type
           rdf:resource="http://purl.org/dc/dcmitype/StillImage" /></cc:Work></rdf:RDF></metadata><defs
     id="defs6"><clipPath
       clipPathUnits="userSpaceOnUse"
       id="clipPath164"><path
         d="m 2090.2,2162.28 c 0,0 93.42,-51.68 199.94,-207.7 106.53,-156.02 203.7,-563.57 203.7,-563.57 0,0 118.42,36.17 315.08,0.26 0,0 -34.55,301.83 -359.36,614.15 -177.1,170.3 -359.36,156.86 -359.36,156.86"
         id="path162"
         inkscape:connector-curvature="0" /></clipPath></defs><sodipodi:namedview
     pagecolor="#ffffff"
     bordercolor="#666666"
     borderopacity="1"
     objecttolerance="10"
     gridtolerance="10"
     guidetolerance="10"
     inkscape:pageopacity="0"
     inkscape:pageshadow="2"
     inkscape:window-width="1622"
     inkscape:window-height="910"
     id="namedview4"
     showgrid="false"
     inkscape:zoom="0.71900834"
     inkscape:cx="276.77009"
     inkscape:cy="147.42527"
     inkscape:window-x="1582"
     inkscape:window-y="93"
     inkscape:window-maximized="0"
     inkscape:current-layer="g10"
     inkscape:showpageshadow="0"
     inkscape:pagecheckerboard="0"
     inkscape:deskcolor="#d1d1d1" /><g
     id="g10"
     inkscape:groupmode="layer"
     inkscape:label="ink_ext_XXXXXX"
     transform="matrix(1.3333333,0,0,-1.3333333,0,362.33333)"><g
       id="g1380"
       transform="translate(6.1150135)"><path
         style="clip-rule:evenodd;fill:#b0f2ff;fill-opacity:1;fill-rule:evenodd;stroke-width:0.75;stroke-linecap:round;stroke-linejoin:round"
         inkscape:connector-curvature="0"
         id="path975"
         d="m 45.619698,76.514242 c 0,90.796488 73.605512,164.402018 164.402012,164.402018 90.79658,0 164.40158,-73.60553 164.40158,-164.402018 0,-14.718 -1.93425,-28.984501 -5.562,-42.558751 -21.6165,-3.41475 -303.044391,-3.41475 -317.825841,0.5505 -3.533625,13.40925 -5.415751,27.489001 -5.415751,42.008251 z" /><path
         d="m 411.657,34.65449 c 0,-19.13925 -91.14226,-34.6545 -203.57176,-34.6545 -112.43025,0 -203.57225,15.51525 -203.57225,34.6545 0,19.1385 91.142,34.65375 203.57225,34.65375 112.4295,0 203.57176,-15.51525 203.57176,-34.65375"
         id="path1213"
         inkscape:connector-curvature="0"
         style="clip-rule:evenodd;fill:#1e1f1b;fill-rule:evenodd;stroke-width:0.75;stroke-linecap:round;stroke-linejoin:round" /><g
         id="g985"
         transform="matrix(0.75000002,0,0,-0.75000002,1.1476572e-4,259.20974)"
         style="clip-rule:evenodd;fill-rule:evenodd;stroke-linecap:round;stroke-linejoin:round"><path
           id="path979"
           style="fill:#97da12;fill-opacity:1;stroke-width:2.0366"
           d="m 155.07767,52.68763 c 4.9342,0 8.90649,4.03517 8.90649,9.04747 0,0 0,10.85685 0,21.0883 0,10.23143 9.71781,26.86689 9.71781,40.30034 0,13.43345 -17.96394,26.86687 -17.96394,40.30037 0,13.4334 19.04522,26.8669 19.04522,40.3003 0,13.4335 -10.79908,27.888 -10.79908,40.3004 0,12.4123 0,34.1738 0,34.1738 0,5.0123 -3.97229,9.0475 -8.90649,9.0475 -4.93418,0 -8.90649,-4.0352 -8.90649,-9.0475 0,0 0,-21.7615 0,-34.1738 0,-12.4124 10.79909,-26.8669 10.79909,-40.3004 0,-13.4334 -19.04521,-26.8669 -19.04521,-40.3003 0,-13.4335 17.96394,-26.86692 17.96394,-40.30037 0,-13.43345 -9.71781,-30.06891 -9.71781,-40.30034 0,-10.23145 0,-21.0883 0,-21.0883 0,-5.0123 3.9723,-9.04747 8.90647,-9.04747 z"
           sodipodi:nodetypes="sszzzzzssszzzzzss" /><path
           id="path981"
           style="fill:#b6ee47;fill-opacity:1;stroke-width:2.0366"
           d="m 138.12252,34.07106 c 4.9342,0 8.9065,4.03517 8.9065,9.04747 0,0 0,26.37067 0,39.70487 0,13.3342 9.7178,26.86689 9.7178,40.30034 0,13.43345 -17.96394,26.86687 -17.96394,40.30037 0,13.4334 19.04521,26.8669 19.04521,40.3003 0,13.4335 -10.79908,27.888 -10.79908,40.3004 0,12.4123 0,34.1738 0,34.1738 0,5.0123 -3.97229,9.0475 -8.90649,9.0475 -4.93418,0 -8.90646,-4.0352 -8.90646,-9.0475 0,0 0,-21.7615 0,-34.1738 0,-12.4124 10.79907,-26.8669 10.79907,-40.3004 0,-13.4334 -19.04521,-26.8669 -19.04521,-40.3003 0,-13.4335 17.96393,-26.86692 17.96393,-40.30037 0,-13.43345 -9.71779,-26.96614 -9.71779,-40.30034 0,-13.3342 0,-39.70487 0,-39.70487 0,-5.0123 3.97228,-9.04747 8.90646,-9.04747 z"
           sodipodi:nodetypes="sszzzzzssszzzzzss" /><path
           id="path983"
           style="fill:#a6e22e;fill-opacity:1;stroke-width:2.0366"
           d="m 121.35619,66.49096 c 4.93419,0 8.90648,4.03517 8.90648,9.04747 0,0 0,-0.64592 0,7.28497 0,7.93088 9.71782,26.86689 9.71782,40.30034 0,13.43345 -17.96395,26.86687 -17.96395,40.30037 0,13.4334 19.04521,26.8669 19.04521,40.3003 0,13.4335 -10.79908,27.888 -10.79908,40.3004 0,12.4123 0,34.1738 0,34.1738 0,5.0123 -3.97229,9.0475 -8.90648,9.0475 -4.93419,0 -8.90648,-4.0352 -8.90648,-9.0475 0,0 0,-21.7615 0,-34.1738 0,-12.4124 10.79908,-26.8669 10.79908,-40.3004 0,-13.4334 -19.04521,-26.8669 -19.04521,-40.3003 0,-13.4335 17.96394,-26.86692 17.96394,-40.30037 0,-13.43345 -9.71781,-32.36946 -9.71781,-40.30034 0,-7.93089 0,-7.28497 0,-7.28497 0,-5.0123 3.97229,-9.04747 8.90648,-9.04747 z"
           sodipodi:nodetypes="sszzzzzssszzzzzss" /></g><g
         id="g993"
         transform="matrix(0.75000002,0,0,-0.75000002,1.1476572e-4,259.20974)"
         style="clip-rule:evenodd;fill-rule:evenodd;stroke-linecap:round;stroke-linejoin:round"><path
           id="path987"
           style="fill:#97da12;fill-opacity:1;stroke-width:1.83294"
           d="m 232.70847,73.040388 c 4.34916,0.871676 7.04788,5.120716 6.05094,9.527006 0,0 -2.15941,9.544194 -4.19443,18.538606 -2.03501,8.99441 3.22182,25.3353 0.54994,37.14458 -2.67189,11.80928 -21.17779,20.4451 -23.84967,32.2543 -2.67189,11.80931 11.44329,26.98307 8.77141,38.79237 -2.6719,11.80931 -15.06553,22.60848 -17.53433,33.52009 -2.46879,10.91162 -6.79711,30.04209 -6.79711,30.04209 -0.99694,4.40623 -5.30083,7.25183 -9.64999,6.38015 -4.34915,-0.87169 -7.04786,-5.12076 -6.05094,-9.52699 0,0 4.32832,-19.13046 6.79712,-30.04208 2.46879,-10.91161 14.86244,-21.71078 17.53432,-33.52009 2.6719,-11.8093 -11.4433,-26.98307 -8.7714,-38.79237 2.67188,-11.8092 21.17777,-20.44502 23.84966,-32.2543 2.67188,-11.80929 -2.58495,-28.15017 -0.54993,-37.144578 2.03501,-8.994416 4.19442,-18.53861 4.19442,-18.53861 0.99694,-4.4063 5.30084,-7.251849 9.64999,-6.380174 z"
           sodipodi:nodetypes="sszzzzzssszzzzzss" /><path
           id="path989"
           style="fill:#b6ee47;fill-opacity:1;stroke-width:1.83294"
           d="m 221.46645,53.679366 c 4.34916,0.871666 7.04788,5.120706 6.05095,9.526996 0,0 -5.24508,23.182325 -7.89722,34.904345 -2.65216,11.722033 3.22181,25.335303 0.54992,37.144573 -2.67189,11.80932 -21.17778,20.44503 -23.84966,32.25434 -2.6719,11.8093 11.44329,26.98306 8.7714,38.79237 -2.6719,11.8093 -15.06552,22.60837 -17.53433,33.52009 -2.46879,10.91161 -6.7971,30.04198 -6.7971,30.04198 -0.99694,4.40633 -5.30083,7.25184 -9.64999,6.38015 -4.34916,-0.87158 -7.04787,-5.12065 -6.05093,-9.52698 0,0 4.32831,-19.13037 6.7971,-30.04199 2.4688,-10.91171 14.86244,-21.71078 17.53432,-33.52009 2.6719,-11.8093 -11.44329,-26.98306 -8.7714,-38.79237 2.67189,-11.8093 21.17777,-20.44502 23.84967,-32.25433 2.67188,-11.80928 -3.20209,-25.42255 -0.54993,-37.144575 2.65214,-11.72203 7.89722,-34.904346 7.89722,-34.904346 0.99693,-4.40629 5.30083,-7.251838 9.64998,-6.380163 z"
           sodipodi:nodetypes="sszzzzzssszzzzzss" /><path
           id="path991"
           style="fill:#a6e22e;fill-opacity:1;stroke-width:1.83294"
           d="m 200.2398,79.217597 c 4.34916,0.871677 7.04788,5.120706 6.05094,9.527006 0,0 0.12846,-0.567833 -1.44896,6.404165 -1.57745,6.972002 3.2218,25.335302 0.54992,37.144572 -2.67189,11.80927 -21.17778,20.44508 -23.84967,32.25439 -2.67188,11.8092 11.4433,26.98306 8.77141,38.79227 -2.67188,11.8093 -15.06553,22.60847 -17.53431,33.52009 -2.46881,10.91171 -6.79712,30.04208 -6.79712,30.04208 -0.99693,4.40623 -5.30083,7.25184 -9.64999,6.38015 -4.34915,-0.87168 -7.04787,-5.12075 -6.05094,-9.52698 0,0 4.32831,-19.13037 6.79712,-30.04208 2.46879,-10.91162 14.86243,-21.71079 17.53432,-33.5201 2.67188,-11.8092 -11.44329,-26.98306 -8.77142,-38.79227 2.6719,-11.8093 21.17779,-20.44512 23.84967,-32.25438 2.6719,-11.80927 -2.12736,-30.172568 -0.54992,-37.144575 1.57743,-6.971996 1.44896,-6.404174 1.44896,-6.404174 0.99694,-4.40629 5.30084,-7.251839 9.64999,-6.380164 z"
           sodipodi:nodetypes="sszzzzzssszzzzzss" /></g><g
         id="g1001"
         transform="matrix(0.6937345,0,0,-0.6937345,7.1762208,243.47264)"
         style="clip-rule:evenodd;fill-rule:evenodd;stroke-linecap:round;stroke-linejoin:round"><path
           id="path995"
           style="fill:#97da12;fill-opacity:1;stroke-width:1.83294"
           d="m 74.62883,67.380015 c 4.34915,-0.871675 8.653049,1.973884 9.649993,6.380173 0,0 2.1594,9.544195 4.19442,18.53861 2.03501,8.994402 13.909357,21.901802 16.581247,33.711082 2.67188,11.80925 -10.490221,26.79204 -7.818335,38.60135 2.671895,11.8093 22.130845,20.25405 24.802735,32.06335 2.67188,11.80921 -3.9718,26.42392 -1.503,37.33554 2.4688,10.91171 6.79711,30.04208 6.79711,30.04208 0.99694,4.40623 -1.70179,8.6553 -6.05094,9.52699 -4.34915,0.87168 -8.65305,-1.97393 -9.64998,-6.38016 0,0 -4.32832,-19.13036 -6.79712,-30.04208 -2.46878,-10.91162 4.17489,-25.52633 1.503,-37.33553 -2.67188,-11.80931 -22.130838,-20.25405 -24.802729,-32.06336 -2.671891,-11.8093 10.490226,-26.7921 7.818336,-38.60135 C 86.681675,117.34744 74.807329,104.44004 72.772314,95.445631 70.7373,86.451225 68.577894,76.90702 68.577894,76.90702 67.580956,72.500731 70.279677,68.251691 74.62883,67.380015 Z"
           sodipodi:nodetypes="sszzzzzssszzzzzss" /><path
           id="path997"
           style="fill:#b6ee47;fill-opacity:1;stroke-width:1.83294"
           d="m 55.981209,54.009578 c 4.349159,-0.871676 8.653054,1.973873 9.649992,6.380162 0,0 5.245076,23.182326 7.897223,34.904345 2.652147,11.722035 13.909362,21.901805 16.581255,33.711095 2.671887,11.80932 -10.490222,26.79211 -7.818343,38.60132 2.671895,11.8093 22.130854,20.25405 24.802734,32.06335 2.6719,11.8093 -3.9718,26.42392 -1.503,37.33554 2.4688,10.91171 6.79711,30.04208 6.79711,30.04208 0.99695,4.40633 -1.70179,8.6553 -6.05093,9.52698 -4.34915,0.87169 -8.653048,-1.97382 -9.649986,-6.38015 0,0 -4.328319,-19.13037 -6.797118,-30.04208 -2.468791,-10.91162 4.174893,-25.52623 1.502997,-37.33554 -2.671885,-11.8093 -22.13084,-20.25405 -24.802731,-32.06335 -2.67188,-11.80921 10.490233,-26.792 7.818339,-38.60132 C 71.736864,120.34273 60.479646,110.16296 57.827499,98.440928 55.175352,86.718898 49.930278,63.536582 49.930278,63.536582 c -0.996939,-4.406299 1.701783,-8.655329 6.050931,-9.527004 z"
           sodipodi:nodetypes="sszzzzzssszzzzzss" /><path
           id="path999"
           style="fill:#a6e22e;fill-opacity:1;stroke-width:1.83294"
           d="m 47.651068,85.471688 c 4.349158,-0.871676 8.653054,1.973872 9.649992,6.380172 0,0 -0.128468,-0.567832 1.448965,6.404165 1.577438,6.972005 13.909364,21.901805 16.581252,33.711085 2.671888,11.80928 -10.490224,26.79207 -7.818333,38.60138 2.671879,11.8092 22.130846,20.25405 24.802721,32.06325 2.671896,11.8093 -3.971779,26.42402 -1.502987,37.33563 2.468789,10.91162 6.797108,30.04199 6.797108,30.04199 0.996938,4.40633 -1.701777,8.6554 -6.050938,9.52708 -4.349148,0.87169 -8.653051,-1.97392 -9.649981,-6.38015 0,0 -4.328321,-19.13047 -6.797114,-30.04208 -2.468792,-10.91162 4.174882,-25.52633 1.502991,-37.33564 -2.67188,-11.8092 -22.130835,-20.25395 -24.802725,-32.06325 -2.67189,-11.80931 10.490221,-26.7921 7.818334,-38.60137 -2.671888,-11.80928 -15.003815,-26.73909 -16.581253,-33.71108 -1.577438,-6.972009 -1.448965,-6.404178 -1.448965,-6.404178 -0.996937,-4.40629 1.701784,-8.65533 6.050933,-9.527004 z"
           sodipodi:nodetypes="sszzzzzssszzzzzss" /></g><path
         style="color:#000000;clip-rule:nonzero;fill:#ffb763;fill-opacity:1;fill-rule:nonzero;stroke-width:0.693262;stroke-linecap:round;stroke-linejoin:miter;-inkscape-stroke:none"
         d="m 290.59201,213.80768 c -3.21513,0.12378 -5.93081,-2.1712 -6.06596,-5.12627 -0.31296,-6.84281 -1.12011,-9.8496 -2.42079,-12.18154 -0.45549,-0.81664 -1.24174,-1.72895 -1.98995,-2.63777 -1.15988,2.60409 -2.73628,4.95159 -4.20877,7.10329 -2.76073,4.03415 -5.53642,7.13057 -5.53642,7.13057 -2.04245,2.28591 -5.71438,2.61719 -8.20148,0.73992 -2.48709,-1.87728 -2.8475,-5.25222 -0.80505,-7.53817 0,0 2.35788,-2.64635 4.67772,-6.03624 2.31976,-3.38989 4.0828,-7.8503 4.05909,-8.6195 v 0.0286 c -0.22786,-6.20345 2.11533,-11.93308 4.13392,-17.657 2.01852,-5.72392 3.82871,-11.36649 3.83167,-16.44327 0,-5.97375 -3.45434,-12.44082 -6.14087,-16.69509 -1.72718,2.43015 -2.98605,4.49227 -3.28232,5.98044 -2.52499,12.68483 -1.37833,8.44125 -2.14954,18.04643 -0.32592,4.05828 -2.67417,7.27191 -5.27798,9.67487 -2.60374,2.40297 -5.62261,4.20023 -8.50931,5.6546 -5.77346,2.90875 -11.303,4.44996 -11.303,4.44996 -3.07644,0.86995 -6.33757,-0.71739 -7.28349,-3.54517 -0.94554,-2.8272 0.78126,-5.82368 3.85713,-6.69309 0,0 4.59231,-1.31972 9.12801,-3.60488 2.26785,-1.14258 4.45008,-2.5259 5.85271,-3.82036 1.40264,-1.29446 1.86492,-2.29628 1.91373,-2.90389 0.567,-7.06111 0.5179,-8.62258 1.4957,-14.32603 -5.73274,2.99238 -11.97146,6.97173 -20.5807,14.5506 -2.32418,2.04543 -6.01223,1.97221 -8.23814,-0.16356 -2.22678,-2.136 -2.14773,-5.52682 0.17652,-7.57322 15.07689,-13.27249 25.27237,-17.54008 34.44702,-21.59809 0.3202,-0.43584 0.62058,-0.93628 0.93499,-1.35913 2.35361,-3.1655 4.54481,-6.06654 5.78069,-9.08552 1.23596,-3.01896 1.7245,-6.10134 0.47314,-10.55627 -0.69976,-2.49139 -2.10854,-5.47727 -4.29916,-8.89729 -1.95951,5.05031 -4.44126,10.27017 -7.15773,15.2788 -4.88394,9.00507 -9.84223,16.73039 -14.63471,21.06197 -2.29474,2.07423 -5.98453,2.04574 -8.24103,-0.0636 -2.25664,-2.10921 -2.22562,-5.50055 0.0695,-7.57452 1.25794,-1.13698 3.72313,-4.36995 6.44032,-8.44169 -3.33958,0.80966 -6.83348,1.5284 -10.61662,2.0407 -3.18404,0.43171 -6.14601,-1.59087 -6.61539,-4.51745 -0.46974,-2.92699 1.73165,-5.6496 4.91635,-6.08043 8.34342,-1.12981 15.29911,-3.1751 20.4112,-5.45726 3.59152,-7.224795 6.525,-14.640945 7.33424,-19.421145 2.02466,-11.9592 -1.66795,-34.714291 -1.66795,-34.714291 -0.51601,-2.919218 1.64011,-5.670345 4.81613,-6.145298 3.17658,-0.475012 6.17073,1.506863 6.6874,4.426613 0,0 0.35108,2.0403 0.78386,4.95234 0.74034,0.284663 2.72898,1.084088 6.41343,2.083433 4.2954,1.16511 9.69789,2.038245 12.74497,1.70187 8.50953,-0.939533 15.60131,-3.24741 21.98876,-6.577575 4.55349,-2.374013 13.53485,-5.684236 22.07779,-8.806433 8.54293,-3.122198 16.19252,-5.780543 16.19252,-5.780543 3.01049,-1.046535 6.37394,0.348338 7.5122,3.115485 1.1387,2.767013 -0.37899,5.858505 -3.38962,6.90471 0,0 -7.01173,2.463338 -14.34228,5.119756 5.15439,1.326885 10.06474,1.82343 14.74057,0.877522 3.14304,-0.635527 6.25159,1.191165 6.9431,4.080008 0.69153,2.888437 -1.2951,5.745382 -4.43756,6.38157 -11.18203,2.262022 -21.92563,-0.691823 -28.04077,-2.790278 -6.11505,-2.098455 -7.00305,-1.693162 -8.17176,-1.192357 1.53584,1.439737 1.8167,1.801627 4.28934,3.928065 3.65232,3.141075 8.07442,6.597585 11.90182,9.073883 0.97007,-0.640373 1.97889,-1.19634 3.00123,-1.556445 3.10219,-1.092796 6.32383,-1.305608 9.58416,-1.129351 6.52058,0.352463 13.24972,2.241158 18.42682,5.889548 2.55435,1.799768 3.03746,5.162033 1.07904,7.509593 -1.95814,2.347762 -5.61633,2.791807 -8.17046,0.99177 -2.44812,-1.725263 -7.72176,-3.430388 -11.89611,-3.682748 7.2957,6.967118 9.91744,15.393113 9.91744,15.393113 0.9854,2.815665 -0.69904,5.832515 -3.76246,6.738485 -3.06393,0.90656 -6.34719,-0.64184 -7.33287,-3.45817 0,0 -4.51797,-11.090988 -12.45262,-14.984163 -3.88185,-1.904655 -7.70752,-4.60068 -11.38067,-7.429177 -0.22446,1.58097 -0.43482,3.130237 -0.40257,4.433122 0.0808,3.261173 0.7749,5.55291 3.4772,8.366378 2.12944,2.217233 1.90057,5.601158 -0.51125,7.558913 -2.41254,1.958087 -6.09532,1.747732 -8.22548,-0.469898 -4.47359,-4.657507 -6.26678,-10.142948 -6.39224,-15.211335 -0.1149,-4.639695 0.86731,-8.988278 1.7668,-13.334266 -1.75653,-1.617997 -3.50988,-3.179692 -4.11694,-3.771082 -4.09198,1.547272 -8.46194,2.768407 -13.13625,3.608775 0.17282,2.39967 0.4761,5.48697 1.13414,8.91291 1.3852,7.212038 4.5709,15.032881 8.6266,18.103501 11.39499,8.627512 15.80479,7.660932 29.83287,10.387602 h 0.009 c 0.0557,0.0106 0.0869,0.014 0.1426,0.0246 5.08374,0.99371 18.27402,0.73077 29.34144,-0.0818 11.06742,-0.81258 20.46906,-1.95496 20.46906,-1.95496 3.19018,-0.38768 6.11838,1.67488 6.54061,4.60699 0.42259,2.93271 -1.82168,5.62489 -5.01245,6.0129 0,0 -5.54466,0.60183 -12.42579,1.2436 0.5902,0.5135 1.31716,1.11314 1.86998,1.57333 3.51364,2.92498 5.75784,4.31347 8.60541,4.25911 3.21752,-0.0618 5.88027,2.28576 5.94737,5.2431 0.0673,2.95733 -2.48688,5.40471 -5.70447,5.46637 -7.30459,0.13952 -12.65242,-3.6826 -16.67268,-7.02931 -4.02025,-3.34671 -7.35058,-6.44478 -10.89885,-7.28961 -3.54821,-0.84473 -6.64938,-0.60872 -9.65358,-0.57828 2.49614,2.27995 5.31276,4.67201 8.75937,7.06436 11.47952,7.96827 21.582,12.59174 21.582,12.59174 2.88142,1.31768 4.05504,4.53286 2.62131,7.18119 -1.43307,2.64815 -4.9303,3.72735 -7.81171,2.41061 0,0 -11.03416,-5.04138 -23.41519,-13.63544 -9.45905,-6.56573 -15.95194,-13.72338 -18.68533,-16.98972 -6.67288,-1.22578 -12.36579,-2.0502 -18.14156,-4.09821 1.81814,3.76264 3.77324,7.31177 5.00536,8.51564 2.03081,1.98422 4.15086,2.57762 7.99243,3.76845 3.84165,1.19084 9.13372,3.02877 13.88903,7.63035 2.8271,2.73579 5.64307,6.60509 8.39209,10.76269 7.64258,4.63751 12.03834,7.63477 17.77015,8.24565 3.19691,0.34088 5.48783,2.99925 5.11687,5.93759 -0.37089,2.93778 -3.26221,5.04324 -6.45862,4.70308 -2.08092,-0.22177 -3.98698,-0.64409 -5.80759,-1.17739 1.07449,1.94837 3.38681,5.97783 3.38681,5.97783 1.41493,2.65727 0.21787,5.86567 -2.67352,7.16562 -2.89111,1.30051 -6.38189,0.20024 -7.79617,-2.45735 0,0 -3.35556,-6.30377 -7.65914,-13.51989 -4.3035,-7.21612 -9.94448,-15.5739 -12.72097,-18.26063 -3.00615,-2.90898 -5.55124,-3.7379 -9.16323,-4.85756 -1.05604,-0.32734 -2.36915,-0.83865 -3.60149,-1.26956 -0.26734,4.35485 -0.0202,9.59365 0.59173,11.37022 2.11462,6.13802 5.3774,11.43706 9.9528,15.21005 4.69391,3.87073 19.11046,13.06556 19.11046,13.06556 2.65485,1.67218 3.33213,5.00595 1.51262,7.446 -1.81981,2.43975 -5.44683,3.06163 -8.10125,1.38899 0,0 -13.88209,-8.63189 -20.30382,-13.92751 -6.54041,-5.39335 -10.71143,-12.48883 -13.28169,-19.94948 -1.72045,-4.99315 -1.43496,-10.58681 -1.11288,-15.47357 0.23718,-3.59916 0.50611,-5.14769 0.70331,-6.53862 -3.43533,-4.20263 -5.72935,-9.43389 -7.66196,-14.21829 -1.73701,-4.30012 -2.75032,-7.41402 -3.23712,-8.95311 -7.09207,-6.268452 -9.75799,-15.485503 -11.24646,-23.235028 -0.72796,-3.790087 -1.08295,-7.223002 -1.28238,-9.93186 -4.00768,-0.31923 -7.85467,-1.173683 -11.15614,-2.06922 -0.7446,-0.201983 -1.1857,-0.375518 -1.86847,-0.578963 0.47653,6.122768 0.673,12.831008 -0.0819,18.977168 6.38898,7.538176 10.21023,14.122603 11.89474,20.119543 1.82305,6.49044 1.07274,12.30938 -0.85025,17.00664 -0.32056,0.783 -0.6981,1.49531 -1.06486,2.22108 1.79189,2.07174 10.99828,13.3059 10.99083,27.02292 0,5.25606 -1.29858,10.03813 -2.74987,14.5584 5.75617,-0.48408 15.43231,-0.6992 24.60023,2.51965 6.51791,2.28839 13.42176,6.05014 19.52141,10.17984 6.09958,4.1297 11.28436,8.38075 14.3861,12.87214 1.72522,2.4974 0.9209,5.80742 -1.79652,7.39278 -2.71712,1.58567 -6.3184,0.84638 -8.04325,-1.65121 -1.4858,-2.15141 -6.0591,-6.33351 -11.45834,-9.98901 -0.50155,-0.33958 -1.06732,-0.61524 -1.58327,-0.94893 -0.0846,0.49936 -0.23914,1.0929 -0.26271,1.53698 -0.11194,2.11026 0.0962,3.72787 2.43489,6.6866 1.89146,2.39313 1.31419,5.74247 -1.28947,7.48106 -2.60366,1.73849 -6.24776,1.20786 -8.13929,-1.18519 -3.69051,-4.66886 -4.85691,-9.54132 -4.64662,-13.50432 0.14911,-2.81021 0.67322,-4.97947 1.10724,-6.8995 -1.48153,-0.67298 -3.04904,-1.4939 -4.38811,-1.96405 -9.26395,-3.25255 -23.91978,-1.13671 -23.91978,-1.13671 -0.27298,0.29511 -0.57328,1.09137 1.51602,3.62466 2.08924,2.53327 5.1356,5.28546 7.46679,9.46513 2.3312,4.17966 3.34985,9.10887 3.69326,16.6185 0.13472,2.95511 -2.36221,5.45118 -5.57735,5.57541 z"
         id="path1003"
         sodipodi:nodetypes="ssscscscsccscccssscscssccccccssscsscscccccscsccsssscccccscccscssccsccccscsscsscccsscccscccccsscsccscccsccssscsscccccsssccscccscscscscsccsscccssccsscssssscsccscss" /></g><g
       id="g2585"><path
         inkscape:connector-curvature="0"
         id="path122"
         style="fill:#593016;fill-opacity:1;fill-rule:nonzero;stroke:none;stroke-width:0.1"
         d="m 213.8,216.055 c 0,0 20.989,2.178 44.595,-25.053 24.675,-28.465 49.226,-64.824 27.584,-56.331 -21.396,8.398 -30.227,7.773 -30.227,7.773 L 213.8,216.055" /><path
         inkscape:connector-curvature="0"
         id="path124"
         style="fill:#f5748f;fill-opacity:1;fill-rule:evenodd;stroke:none;stroke-width:0.1"
         d="M 120.639,73.9621 91.877,59.1012 c -4.654,-2.4043 -14.8512,18.7937 -9.227,29.6066 5.6238,10.8141 34.9,1.6461 34.9,1.6461 3.259,-3.6437 5.411,-15.1918 3.089,-16.3918" /><path
         inkscape:connector-curvature="0"
         id="path126"
         style="fill:#f36082;fill-opacity:1;fill-rule:evenodd;stroke:none;stroke-width:0.1"
         d="m 117.581,75.1629 c 0,0 -15.069,-8.3469 -21.7669,-11.4668 -6.6969,-3.1211 -11.2356,2.5348 -11.2368,2.5359 2.3411,-4.9011 5.32,-8.1539 7.2997,-7.13 l 26.197,13.5351 -0.493,2.5258" /><path
         inkscape:connector-curvature="0"
         id="path128"
         style="fill:#f9b1bc;fill-opacity:1;fill-rule:evenodd;stroke:none;stroke-width:0.1"
         d="m 111.084,48.8641 c 12.213,-31.7321 51.789,-15.3192 60.053,-14.4153 6.684,0.7313 14.7,-4.5859 29.609,-5.0699 6.53,-0.2109 11.759,0.493 16.652,1.1981 6.279,0.9039 12.002,1.8089 19.204,0.7761 12.812,-1.839 32.711,-19.55 73.131,-7.5043 53.412,16.1184 -12.755,143.6072 -97.96,143.6072 -85.205,0 -112.9015,-86.8599 -100.689,-118.5919 v 0" /><path
         inkscape:connector-curvature="0"
         id="path130"
         style="fill:#f8a2ad;fill-opacity:1;fill-rule:evenodd;stroke:none;stroke-width:0.1"
         d="m 225.141,166.414 -49.687,-4.971 -0.001,-0.001 c -2.588,-0.922 -5.092,-1.944 -7.52,-3.048 -0.167,-0.076 -0.337,-0.15 -0.504,-0.227 -0.649,-0.299 -1.289,-0.609 -1.927,-0.921 -0.257,-0.126 -0.515,-0.251 -0.771,-0.379 -0.598,-0.299 -1.189,-0.605 -1.777,-0.914 -0.284,-0.151 -0.567,-0.301 -0.85,-0.454 -0.565,-0.305 -1.126,-0.614 -1.681,-0.928 -0.294,-0.167 -0.584,-0.337 -0.875,-0.506 -0.543,-0.315 -1.085,-0.631 -1.618,-0.955 -0.28,-0.171 -0.555,-0.346 -0.832,-0.519 -1.733,-1.078 -3.416,-2.203 -5.051,-3.371 -0.372,-0.266 -0.746,-0.528 -1.113,-0.798 -0.382,-0.282 -0.757,-0.57 -1.134,-0.856 -0.393,-0.298 -0.785,-0.596 -1.172,-0.899 -0.355,-0.278 -0.705,-0.56 -1.054,-0.842 -0.403,-0.324 -0.804,-0.651 -1.2,-0.981 -0.325,-0.272 -0.649,-0.544 -0.971,-0.819 -0.419,-0.359 -0.834,-0.722 -1.245,-1.086 -0.29,-0.257 -0.581,-0.512 -0.867,-0.772 -0.459,-0.416 -0.91,-0.838 -1.359,-1.261 -0.231,-0.216 -0.464,-0.43 -0.692,-0.648 -0.668,-0.642 -1.328,-1.288 -1.974,-1.943 l -0.016,-0.016 0.035,-0.449 c 0,0 39.745,-14.25 116.53,-10.088 18.09,0.981 35.01,-8.939 43.059,-25.169 13.518,-27.2508 27.293,-67.0039 1.809,-81.0168 2.901,0.5976 5.906,1.3359 9.05,2.2726 50.582,15.2641 -6.08,130.4062 -84.592,142.5652" /><path
         inkscape:connector-curvature="0"
         id="path132"
         style="fill:#ffffff;fill-opacity:1;fill-rule:nonzero;stroke:none;stroke-width:0.1"
         d="m 170.445,96.259 c 0.144,-11.5031 -8.915,-20.9469 -20.233,-21.0942 -11.318,-0.1468 -20.609,9.059 -20.753,20.5622 -0.143,11.503 8.915,20.947 20.233,21.095 v 0 c 11.318,0.146 20.609,-9.06 20.753,-20.563" /><path
         inkscape:connector-curvature="0"
         id="path134"
         style="fill:#040606;fill-opacity:1;fill-rule:nonzero;stroke:none;stroke-width:0.1"
         d="m 150.883,79.5371 c -8.835,-0.5391 -16.43,6.2981 -16.968,15.2777 -0.538,8.9792 6.185,16.7052 15.019,17.2592 8.835,0.554 16.44,-6.271 16.994,-15.276 0.526,-9.0058 -6.209,-16.721 -15.045,-17.2609" /><path
         inkscape:connector-curvature="0"
         id="path136"
         style="fill:#ffffff;fill-opacity:1;fill-rule:nonzero;stroke:none;stroke-width:0.1"
         d="m 152.64,106.341 c 1.542,2.112 7.146,0.237 9.109,-3.276 1.964,-3.5119 1.946,-8.908 -1.307,-9.997 -3.254,-1.0871 -3.016,3.1511 -4.721,6.1379 -1.705,2.9891 -4.623,5.0221 -3.081,7.1341 v 10e-4" /><path
         inkscape:connector-curvature="0"
         id="path138"
         style="fill:#ffffff;fill-opacity:1;fill-rule:nonzero;stroke:none;stroke-width:0.1"
         d="m 160.092,91.9781 c 1.148,-0.0691 1.986,-1.2511 1.871,-2.6429 -0.115,-1.3911 -1.139,-2.4653 -2.286,-2.3961 -1.148,0.0668 -1.986,1.25 -1.871,2.641 0.115,1.3918 1.138,2.4648 2.286,2.398" /><path
         inkscape:connector-curvature="0"
         id="path140"
         style="fill:#f9b1bc;fill-opacity:1;fill-rule:nonzero;stroke:none;stroke-width:0.1"
         d="m 216.787,97.868 c 0.931,-14.6629 -10.819,-27.3551 -26.252,-28.3578 -15.434,-1.0032 -28.713,10.0628 -29.669,24.725 -0.956,14.6608 10.773,27.3718 26.205,28.3978 15.431,1.026 28.73,-10.019 29.71,-24.6799" /><path
         inkscape:connector-curvature="0"
         id="path142"
         style="fill:#f8a2ad;fill-opacity:1;fill-rule:evenodd;stroke:none;stroke-width:0.1"
         d="m 168.464,115.404 c 0,0 3.139,-7.676 20.361,-2.457 17.221,5.217 19.723,-3.155 19.723,-3.155 l 61.879,29.309 -21.962,27.313 -96.261,-10.017 16.26,-40.993" /><path
         inkscape:connector-curvature="0"
         id="path144"
         style="fill:#a7505d;fill-opacity:1;fill-rule:nonzero;stroke:none;stroke-width:0.1"
         d="m 214.454,88.4609 c -3.283,-9.7757 -12.592,-17.157 -23.992,-17.8949 -14.82,-0.9621 -27.57,9.666 -28.485,23.7442 -0.418,6.4228 1.7,12.4548 5.533,17.2088 0,0 2.415,2.726 0.954,3.885 -1.46,1.159 -3.539,-2.09 -3.539,-2.09 -4.266,-5.317 -6.62,-12.052 -6.153,-19.221 1.031,-15.7559 15.302,-27.6461 31.888,-26.57 12.777,0.829 23.206,9.1122 26.868,20.077 0,0 0.86,2.2461 -0.648,2.7852 -1.507,0.5386 -2.426,-1.9243 -2.426,-1.9243 v 0" /><path
         inkscape:connector-curvature="0"
         id="path146"
         style="fill:#040606;fill-opacity:1;fill-rule:nonzero;stroke:none;stroke-width:0.1"
         d="m 212.876,50.5512 c -2.442,4.6297 -6.503,7.9859 -10.563,9.2039 -0.098,0.0328 -0.198,0.0609 -0.297,0.0898 -0.178,0.0481 -0.354,0.0942 -0.531,0.134 -0.231,0.0531 -0.464,0.1 -0.701,0.1371 -0.171,0.0289 -0.34,0.05 -0.51,0.0699 -0.17,0.018 -0.34,0.036 -0.513,0.0473 -0.239,0.0148 -0.477,0.0219 -0.713,0.0207 -0.182,0.0012 -0.364,-0.0051 -0.548,-0.0129 -0.104,-0.0051 -0.208,-0.009 -0.31,-0.0191 -4.23,-0.2821 -8.937,-2.6469 -12.351,-6.6149 -5.209,-6.0531 -5.43,-13.5109 -0.494,-16.659 2.731,-1.741 6.467,-1.7898 10.144,-0.4628 1.344,0.4839 2.956,0.3019 4.158,-0.4704 3.288,-2.1128 6.941,-2.9007 9.993,-1.8128 5.513,1.966 6.961,9.2859 3.236,16.3492" /><path
         inkscape:connector-curvature="0"
         id="path148"
         style="fill:#d5474f;fill-opacity:1;fill-rule:nonzero;stroke:none;stroke-width:0.1"
         d="m 198.654,45.8602 c -5.689,0.6418 -10.682,-2.2141 -11.153,-6.3801 -0.146,-1.2942 0.204,-2.5492 0.868,-3.7012 2.191,-0.4348 4.665,-0.1789 7.12,0.7063 1.344,0.4839 2.956,0.3019 4.158,-0.4704 2.195,-1.4109 4.55,-2.2128 6.783,-2.2777 0.904,0.975 1.525,2.1199 1.672,3.4141 0.471,4.1668 -3.759,8.0648 -9.448,8.709" /><path
         inkscape:connector-curvature="0"
         id="path150"
         style="fill:#040606;fill-opacity:1;fill-rule:nonzero;stroke:none;stroke-width:0.1"
         d="m 212.876,50.5512 1.327,0.7 c -2.632,4.9668 -6.943,8.5738 -11.459,9.941 l -0.431,-1.4371 0.481,1.4211 c -0.155,0.0519 -0.274,0.084 -0.355,0.1078 l -0.016,0.0051 -0.017,0.0039 c -0.186,0.05 -0.382,0.1019 -0.59,0.1492 l 0.009,-0.0024 c -0.261,0.0602 -0.53,0.1153 -0.81,0.1582 l 0.015,-0.0019 c -0.209,0.0348 -0.403,0.059 -0.585,0.0801 l -0.007,8e-4 h -10e-4 c -0.176,0.0191 -0.37,0.039 -0.583,0.0531 l 0.005,-0.0012 c -0.258,0.0172 -0.514,0.025 -0.767,0.025 h -0.054 l 0.01,-1.5 0.008,1.5 h -0.048 c -0.202,0 -0.392,-0.0059 -0.572,-0.0141 h -0.009 l -0.012,-7e-4 c -0.084,-0.0051 -0.207,-0.009 -0.367,-0.0243 l 0.142,-1.4929 -0.1,1.4972 c -4.706,-0.3269 -9.714,-2.8793 -13.388,-7.1339 -2.891,-3.3641 -4.413,-7.1801 -4.419,-10.7141 0,-1.6449 0.338,-3.2332 1.048,-4.6461 0.707,-1.4129 1.793,-2.6418 3.207,-3.541 1.761,-1.1231 3.831,-1.6258 5.963,-1.6258 1.162,8e-4 2.348,0.1488 3.533,0.4289 0.741,0.175 1.497,0.2617 2.252,0.2617 1.494,0.0012 2.982,-0.3406 4.333,-1.0058 1.975,-0.9719 4.053,-1.527 6.102,-1.5282 1.166,0 2.322,0.1821 3.422,0.5743 2.049,0.7257 3.672,2.1179 4.726,3.88 1.058,1.7618 1.573,3.8731 1.574,6.1219 -0.001,2.7012 -0.741,5.6149 -2.24,8.4602 l -1.327,-0.7 -1.327,-0.7 c 1.296,-2.4543 1.895,-4.9114 1.894,-7.0602 0,-1.793 -0.414,-3.3621 -1.145,-4.5762 -0.737,-1.2148 -1.766,-2.0968 -3.162,-2.6 -0.752,-0.2679 -1.56,-0.4 -2.415,-0.4 -1.499,-0.0019 -3.145,0.4153 -4.776,1.2192 -1.769,0.8711 -3.709,1.3148 -5.659,1.3148 -0.986,0 -1.974,-0.1129 -2.943,-0.3429 -0.978,-0.2309 -1.935,-0.3477 -2.842,-0.3477 -1.669,8e-4 -3.151,0.3906 -4.35,1.1547 -0.966,0.6191 -1.661,1.4101 -2.14,2.3582 -0.475,0.948 -0.728,2.0621 -0.728,3.3 -0.006,2.6519 1.191,5.8559 3.693,8.757 3.155,3.6828 7.56,5.859 11.314,6.0969 l 0.021,0.002 0.021,0.0019 c 0.045,0.0043 0.13,0.0082 0.253,0.0152 l -0.085,1.4969 0.064,-1.498 c 0.16,0.007 0.308,0.0109 0.444,0.0109 h 0.031 0.01 0.008 0.035 c 0.19,0 0.381,-0.0059 0.571,-0.018 h 0.005 c 0.132,-0.0089 0.279,-0.023 0.443,-0.041 l -0.008,0.0012 c 0.158,-0.0191 0.302,-0.0371 0.435,-0.059 l 0.006,-0.0012 0.008,-0.0019 c 0.195,-0.0301 0.391,-0.0692 0.593,-0.116 l 0.005,-8e-4 0.003,-0.0012 c 0.146,-0.0328 0.304,-0.0738 0.472,-0.1191 l 0.391,1.448 -0.424,-1.439 c 0.119,-0.0348 0.199,-0.0571 0.241,-0.0719 l 0.025,-0.0078 0.024,-0.0082 c 3.605,-1.068 7.414,-4.1739 9.667,-8.4668 l 1.327,0.7" /><path
         inkscape:connector-curvature="0"
         id="path152"
         style="fill:#845131;fill-opacity:1;fill-rule:nonzero;stroke:none;stroke-width:0.1"
         d="m 209.02,216.228 c 0,0 -16.565,0 -40.049,-19.075 -18.154,-14.746 -29.088,-37.575 -33.117,-47.18 -1.523,-3.629 -2.365,-7.52 -2.363,-11.456 0.005,-9.232 3.093,-24.494 23.253,-25.514 29.03,-1.469 92.64,26.098 92.64,26.098 0,0 -9.717,40.755 -20.37,56.357 -10.653,15.602 -19.994,20.77 -19.994,20.77" /><path
         inkscape:connector-curvature="0"
         id="path154"
         style="fill:#be1c2e;fill-opacity:1;fill-rule:nonzero;stroke:none;stroke-width:0.1"
         d="m 209.02,216.228 c 0,0 9.342,-5.168 19.994,-20.77 10.653,-15.602 20.37,-56.357 20.37,-56.357 0,0 11.842,3.617 31.508,0.026 0,0 -3.455,30.183 -35.936,61.415 -17.71,17.03 -35.936,15.686 -35.936,15.686" /><path
         inkscape:connector-curvature="0"
         id="path156"
         style="fill:#bd8f56;fill-opacity:1;fill-rule:nonzero;stroke:none;stroke-width:0.1"
         d="m 160.242,145.485 c 6.401,-1.798 22.513,-5.708 39.89,-5.154 0.573,0.019 0.681,-0.802 0.12,-0.921 -11.899,-2.49 -38.988,-6.938 -42.601,3.265 -0.584,1.649 0.908,3.283 2.591,2.81" /><g
         id="g158"
         transform="scale(0.1)"><g
           clip-path="url(#clipPath164)"
           id="g160"><path
             inkscape:connector-curvature="0"
             id="path166"
             style="fill:#871627;fill-opacity:1;fill-rule:nonzero;stroke:none"
             d="m 2403.22,1721.49 -7.33,1.99 c -21.86,61.86 -46.17,122.62 -71.62,172.48 l 117.62,-31.9 -38.67,-142.57 m 63.7,266.98 -114.09,30.94 14.35,52.93 c 27.12,-18.35 54.81,-40.4 82.38,-66.92 5.89,-5.66 11.67,-11.3 17.36,-16.95" /><path
             inkscape:connector-curvature="0"
             id="path168"
             style="fill:#871627;fill-opacity:1;fill-rule:nonzero;stroke:none"
             d="m 2493.84,1391.01 v 0 c 0,0 -4.68,19.63 -13.11,51.91 l 31.92,117.7 122.2,-33.15 -32.88,-121.25 c -69.6,-3.44 -108.13,-15.21 -108.13,-15.21 m 174.16,258.67 -122.21,33.14 38.67,142.57 30.51,-8.27 c 26.7,-36.48 49.81,-71.93 69.76,-105.73 L 2668,1649.68" /><path
             inkscape:connector-curvature="0"
             id="path170"
             style="fill:#871627;fill-opacity:1;fill-rule:nonzero;stroke:none"
             d="m 2614.97,1817.12 -30.51,8.27 -142.57,38.67 -117.62,31.9 c -11.2,21.93 -22.61,41.74 -34.13,58.62 -28.5,41.74 -56.08,76.03 -81.16,103.85 l 143.85,-39.02 114.09,-30.94 c 58.78,-58.3 107.57,-116.05 148.05,-171.35" /><path
             inkscape:connector-curvature="0"
             id="path172"
             style="fill:#871627;fill-opacity:1;fill-rule:nonzero;stroke:none"
             d="m 2786.3,1486.4 -151.45,41.07 -122.2,33.15 -70.17,19.03 c -13.57,45.4 -29.32,94.96 -46.59,143.83 l 7.33,-1.99 142.57,-38.67 122.21,-33.14 58.79,-15.95 c 28.32,-57.36 47.14,-107.66 59.51,-147.33" /></g></g><path
         inkscape:connector-curvature="0"
         id="path174"
         style="fill:#593016;fill-opacity:1;fill-rule:nonzero;stroke:none;stroke-width:0.1"
         d="m 220.07,206.743 c -6.437,6.928 -11.05,9.485 -11.05,9.485 l -1.005,-0.637 c 0,0 29.008,-16.357 38.589,-77.24 l 0.109,-0.382 c 1.717,0.719 2.671,1.132 2.671,1.132 0,0 -0.237,0.994 -0.678,2.733 -0.088,0.348 -0.184,0.725 -0.289,1.13 -0.209,0.811 -0.448,1.732 -0.717,2.748 -0.135,0.508 -0.278,1.04 -0.426,1.593 -0.15,0.554 -0.306,1.129 -0.469,1.724 -0.163,0.595 -0.332,1.21 -0.509,1.842 -0.44,1.58 -0.923,3.271 -1.441,5.041 -0.231,0.79 -0.471,1.597 -0.716,2.416 -0.305,1.015 -0.619,2.05 -0.945,3.1 -0.117,0.38 -0.237,0.761 -0.357,1.144 -0.33,1.055 -0.672,2.123 -1.021,3.198 -0.072,0.223 -0.146,0.448 -0.219,0.672 -0.31,0.945 -0.627,1.896 -0.95,2.848 -0.068,0.2 -0.136,0.4 -0.204,0.6 -0.2,0.585 -0.403,1.17 -0.608,1.755 -0.071,0.205 -0.143,0.409 -0.214,0.614 -0.896,2.537 -1.833,5.055 -2.802,7.489 -0.086,0.216 -0.172,0.431 -0.258,0.645 -0.259,0.641 -0.52,1.278 -0.782,1.905 -0.154,0.366 -0.308,0.73 -0.462,1.091 -2.014,4.693 -4.139,8.9 -6.303,12.069 -3.169,4.641 -6.219,8.352 -8.944,11.285" /><path
         inkscape:connector-curvature="0"
         id="path176"
         style="fill:#040606;fill-opacity:1;fill-rule:nonzero;stroke:none;stroke-width:0.1"
         d="m 273.448,137.652 c 2.738,0.836 5.368,0.528 7.701,-0.436 2.385,-0.899 4.38,-2.605 5.934,-4.601 1.566,-2 2.622,-4.391 3.047,-6.885 0.388,-2.495 0.283,-5.119 -1.093,-7.598 -0.162,-0.289 -0.526,-0.393 -0.815,-0.232 l -0.108,0.076 -0.074,0.066 c -1.938,1.746 -3.357,3.222 -4.726,4.601 -1.349,1.371 -2.495,2.671 -3.659,3.943 -1.174,1.259 -2.193,2.619 -3.295,4.174 -0.51,0.824 -1.104,1.614 -1.631,2.615 -0.549,0.982 -1.163,1.962 -1.685,3.362 l -0.02,0.056 c -0.127,0.341 0.046,0.72 0.386,0.846 l 0.038,0.013" /><path
         inkscape:connector-curvature="0"
         id="path178"
         style="fill:#beaf8e;fill-opacity:1;fill-rule:nonzero;stroke:none;stroke-width:0.1"
         d="M 289.073,76.368 279.007,61.8 l -8.786,6.0711 10.066,14.568 8.786,-6.0711" /><path
         inkscape:connector-curvature="0"
         id="path180"
         style="fill:#695b4c;fill-opacity:1;fill-rule:nonzero;stroke:none;stroke-width:0.1"
         d="m 265.787,133.378 c 19.319,-13.348 24.16,-39.8319 10.811,-59.151 -13.35,-19.3211 -39.832,-24.1598 -59.152,-10.8122 -19.32,13.3493 -24.16,39.8322 -10.812,59.1522 13.349,19.32 39.832,24.16 59.153,10.811" /><path
         inkscape:connector-curvature="0"
         id="path182"
         style="fill:#a5dff2;fill-opacity:1;fill-rule:nonzero;stroke:none;stroke-width:0.1"
         d="m 262.235,128.238 c 16.48,-11.387 20.609,-33.979 9.222,-50.4591 -11.387,-16.482 -33.979,-20.6109 -50.46,-9.223 -16.48,11.3871 -20.609,33.9781 -9.222,50.4591 11.388,16.481 33.978,20.61 50.46,9.223" /><path
         inkscape:connector-curvature="0"
         id="path184"
         style="fill:#533f37;fill-opacity:1;fill-rule:nonzero;stroke:none;stroke-width:0.1"
         d="m 297.466,68.575 -9.325,6.4441 -8.201,-11.8691 9.326,-6.4441 c 10.019,-6.9227 19.453,-14.7618 27.357,-24.027 0.761,-0.8918 1.67,-1.6859 2.722,-2.3449 4.884,-3.0602 12.149,-1.75 15.651,2.8281 4.134,5.4059 2.872,13.102 -2.661,16.9238 -0.672,0.4641 -1.375,0.8493 -2.097,1.1563 -11.413,4.85 -22.57,10.2848 -32.772,17.3328" /><path
         inkscape:connector-curvature="0"
         id="path186"
         style="fill:#695b4c;fill-opacity:1;fill-rule:nonzero;stroke:none;stroke-width:0.1"
         d="m 332.335,50.0859 c -0.672,0.4641 -1.375,0.8493 -2.097,1.1563 -11.413,4.85 -22.57,10.2848 -32.772,17.3328 l -9.326,6.4441 -6.798,-9.839 7.923,-5.4742 c 10.02,-6.9227 19.454,-14.7618 27.358,-24.027 0.761,-0.891 1.67,-1.6859 2.722,-2.3449 4.884,-3.0602 12.149,-1.7488 15.651,2.8281 1.314,1.7199 2.079,3.6711 2.338,5.6559 -0.403,3.225 -2.114,6.2742 -4.999,8.2679" /><path
         inkscape:connector-curvature="0"
         id="path188"
         style="fill:#f5748f;fill-opacity:1;fill-rule:evenodd;stroke:none;stroke-width:0.1"
         d="M 295.769,71.2 325.24,40.166 c 4.768,-5.0219 24.262,15.0352 21.44,31.284 -2.822,16.2488 -41.852,16.5621 -41.852,16.5621 -5.322,-3.343 -11.439,-14.3062 -9.059,-16.8121" /><path
         inkscape:connector-curvature="0"
         id="path190"
         style="fill:#f36082;fill-opacity:1;fill-rule:evenodd;stroke:none;stroke-width:0.1"
         d="m 338.924,80.907 v 0 c 12.045,-11.8019 1.022,-29.3879 -6.065,-35.589 -6.385,-5.5871 -31.373,19.905 -36.256,25.0039 L 325.24,40.166 c 4.768,-5.0219 24.262,15.0352 21.44,31.284 -0.707,4.0719 -3.686,7.141 -7.756,9.457" /><path
         inkscape:connector-curvature="0"
         id="path192"
         style="fill:#ffffff;fill-opacity:1;fill-rule:nonzero;stroke:none;stroke-width:0.1"
         d="m 278.497,99.148 c 0.258,-20.6832 -16.029,-37.664 -36.379,-37.9289 -20.351,-0.264 -37.057,16.2887 -37.315,36.9719 -0.259,20.683 16.028,37.665 36.378,37.929 h 10e-4 c 20.351,0.264 37.057,-16.289 37.315,-36.972" /><path
         inkscape:connector-curvature="0"
         id="path194"
         style="fill:#040606;fill-opacity:1;fill-rule:nonzero;stroke:none;stroke-width:0.1"
         d="m 243.325,69.0809 c -15.888,-0.97 -29.544,11.3242 -30.511,27.4703 -0.967,16.1458 11.12,30.0358 27.005,31.0328 15.885,0.996 29.561,-11.275 30.556,-27.467 0.945,-16.194 -11.164,-30.065 -27.05,-31.0361" /><path
         inkscape:connector-curvature="0"
         id="path196"
         style="fill:#ffffff;fill-opacity:1;fill-rule:nonzero;stroke:none;stroke-width:0.1"
         d="m 246.483,117.275 c 2.771,3.799 12.849,0.425 16.379,-5.891 3.53,-6.314 3.499,-16.016 -2.351,-17.975 -5.85,-1.9551 -5.422,5.6648 -8.488,11.038 -3.068,5.373 -8.314,9.028 -5.541,12.827 l 0.001,0.001" /><path
         inkscape:connector-curvature="0"
         id="path198"
         style="fill:#ffffff;fill-opacity:1;fill-rule:nonzero;stroke:none;stroke-width:0.1"
         d="m 259.882,91.448 c 2.064,-0.121 3.57,-2.248 3.364,-4.7511 -0.207,-2.5008 -2.047,-4.4309 -4.112,-4.309 -2.063,0.1223 -3.569,2.2492 -3.363,4.7512 0.207,2.5019 2.047,4.432 4.111,4.3089" /><path
         inkscape:connector-curvature="0"
         id="path200"
         style="fill:#be1c2e;fill-opacity:1;fill-rule:nonzero;stroke:none;stroke-width:0.1"
         d="m 209.794,215.737 c -0.606,-0.044 -1.327,-0.117 -2.149,-0.15 -0.408,-0.018 -0.835,-0.014 -1.254,-0.006 l -0.626,0.02 -0.461,0.027 c -1.232,0.072 -2.47,0.149 -3.705,0.325 -2.457,0.312 -4.987,0.823 -7.208,1.806 -1.112,0.481 -2.142,1.086 -2.95,1.813 -0.38,0.368 -0.676,0.78 -0.951,1.185 -0.155,0.427 -0.427,0.857 -0.417,1.297 -0.232,1.789 1.196,3.427 2.984,4.627 0.438,0.317 0.957,0.572 1.44,0.857 0.201,0.13 0.586,0.296 0.957,0.449 0.332,0.153 0.828,0.297 1.303,0.425 0.451,0.133 1.111,0.216 1.679,0.284 0.634,0.027 1.295,0.058 1.897,-0.024 1.278,-0.12 2.181,-0.448 2.938,-0.757 1.418,-0.639 2.158,-1.324 2.835,-1.97 0.648,-0.656 1.175,-1.292 1.576,-1.945 0.834,-1.295 1.381,-2.586 1.777,-3.886 0.188,-0.65 0.329,-1.302 0.441,-1.954 l 0.117,-0.982 0.021,-0.494 0.006,-0.247 -0.004,-0.125 -0.002,-0.063 c -0.006,-0.017 0.007,0.023 0.016,-0.154 -0.006,-0.136 -0.128,-0.279 -0.26,-0.358 z m -1.374,0.706 c -0.139,-0.06 -0.269,-0.184 -0.281,-0.3 0.003,-0.158 0.008,-0.098 -0.006,-0.096 l -0.045,0.055 -0.091,0.109 -0.172,0.221 -0.352,0.44 -0.683,0.88 -1.348,1.743 c -0.903,1.149 -1.807,2.289 -2.814,3.339 -0.519,0.52 -0.999,1.039 -1.564,1.476 -0.536,0.439 -1.183,0.811 -1.597,0.978 -0.19,0.056 -0.312,0.087 -0.215,0.049 l 0.157,-0.01 c -0.041,-0.023 -0.086,-0.011 -0.193,-0.075 -0.091,-0.044 -0.181,-0.067 -0.369,-0.179 -0.311,-0.183 -0.693,-0.347 -0.962,-0.539 -2.353,-1.55 -2.647,-3.182 -0.015,-4.691 0.626,-0.373 1.432,-0.692 2.242,-1.034 0.889,-0.296 1.784,-0.6 2.789,-0.849 0.955,-0.296 2.031,-0.473 3.07,-0.727 l 0.395,-0.09 0.242,-0.061 c 0.16,-0.046 0.313,-0.095 0.484,-0.168 0.337,-0.139 0.775,-0.32 1.328,-0.471" /><path
         inkscape:connector-curvature="0"
         id="path202"
         style="fill:#be1c2e;fill-opacity:1;fill-rule:nonzero;stroke:none;stroke-width:0.1"
         d="m 208.799,216.642 c 0.569,0.134 1.025,0.301 1.376,0.43 0.178,0.066 0.336,0.112 0.5,0.152 l 0.249,0.053 0.404,0.078 c 1.064,0.221 2.156,0.365 3.141,0.631 1.029,0.217 1.956,0.493 2.875,0.76 0.844,0.317 1.682,0.611 2.347,0.964 2.787,1.424 2.666,3.063 0.481,4.684 -0.249,0.2 -0.613,0.376 -0.905,0.568 -0.175,0.117 -0.262,0.143 -0.349,0.19 -0.1,0.066 -0.146,0.056 -0.184,0.08 l 0.157,0.006 c 0.101,0.034 -0.024,0.007 -0.22,-0.043 -0.431,-0.154 -1.115,-0.504 -1.697,-0.927 -0.61,-0.419 -1.145,-0.922 -1.718,-1.425 -1.116,-1.018 -2.139,-2.127 -3.161,-3.246 l -1.531,-1.698 -0.774,-0.858 -0.398,-0.428 -0.196,-0.215 -0.101,-0.107 -0.051,-0.053 c -0.014,-0.001 -0.015,-0.061 0.004,0.096 0,0.116 -0.117,0.245 -0.249,0.308 z m -0.935,-0.905 c -0.132,0.079 -0.255,0.222 -0.26,0.358 0.009,0.177 0.022,0.137 0.015,0.154 l -0.002,0.063 -0.003,0.125 0.006,0.247 0.022,0.494 0.115,0.982 c 0.113,0.652 0.254,1.304 0.442,1.954 0.396,1.3 0.943,2.591 1.777,3.886 0.401,0.653 0.927,1.289 1.576,1.945 0.676,0.646 1.417,1.331 2.835,1.97 0.756,0.309 1.66,0.637 2.938,0.757 0.602,0.082 1.263,0.051 1.897,0.024 0.568,-0.068 1.228,-0.151 1.679,-0.284 0.475,-0.128 0.971,-0.272 1.303,-0.425 0.371,-0.153 0.755,-0.319 0.957,-0.449 0.483,-0.285 1.002,-0.54 1.44,-0.857 1.788,-1.2 3.216,-2.838 2.983,-4.627 0.011,-0.44 -0.261,-0.87 -0.417,-1.297 -0.274,-0.405 -0.571,-0.817 -0.95,-1.185 -0.808,-0.727 -1.839,-1.332 -2.95,-1.813 -2.221,-0.983 -4.752,-1.494 -7.208,-1.806 -1.235,-0.176 -2.473,-0.253 -3.706,-0.325 l -0.46,-0.027 -0.626,-0.02 c -0.419,-0.008 -0.846,-0.012 -1.254,0.006 -0.822,0.033 -1.543,0.106 -2.149,0.15" /></g></g></svg>
