<?xml version="1.0" encoding="UTF-8" standalone="no"?>
<!-- Created with Vectornator for iOS (http://vectornator.io/) -->

<svg
   xmlns:vectornator="http://vectornator.io"
   xmlns:dc="http://purl.org/dc/elements/1.1/"
   xmlns:cc="http://creativecommons.org/ns#"
   xmlns:rdf="http://www.w3.org/1999/02/22-rdf-syntax-ns#"
   xmlns:svg="http://www.w3.org/2000/svg"
   xmlns="http://www.w3.org/2000/svg"
   xmlns:sodipodi="http://sodipodi.sourceforge.net/DTD/sodipodi-0.dtd"
   xmlns:inkscape="http://www.inkscape.org/namespaces/inkscape"
   style="fill-rule:evenodd;clip-rule:evenodd;stroke-linecap:round;stroke-linejoin:round;"
   xml:space="preserve"
   version="1.1"
   viewBox="0 0 79.375 39.6875"
   id="svg1327"
   sodipodi:docname="Blobboring.svg"
   inkscape:version="0.92.4 (5da689c313, 2019-01-14)"><sodipodi:namedview
   pagecolor="#ffffff"
   bordercolor="#666666"
   borderopacity="1"
   objecttolerance="10"
   gridtolerance="10"
   guidetolerance="10"
   inkscape:pageopacity="0"
   inkscape:pageshadow="2"
   inkscape:window-width="3840"
   inkscape:window-height="2047"
   id="namedview1329"
   showgrid="false"
   inkscape:zoom="10.223622"
   inkscape:cx="52.689242"
   inkscape:cy="27.216876"
   inkscape:window-x="2560"
   inkscape:window-y="0"
   inkscape:window-maximized="1"
   inkscape:current-layer="svg1327" />
<metadata
   id="metadata1178">
<vectornator:setting
   key="DynamicGuides"
   value="1" />
<vectornator:setting
   key="Units"
   value="Points" />
<vectornator:setting
   key="RulersVisible"
   value="1" />
<vectornator:setting
   key="SnapToGuides"
   value="1" />
<vectornator:setting
   key="GridSpacing"
   value="36" />
<rdf:RDF><cc:Work
     rdf:about=""><dc:format>image/svg+xml</dc:format><dc:type
       rdf:resource="http://purl.org/dc/dcmitype/StillImage" /></cc:Work></rdf:RDF></metadata>
<defs
   id="defs1180">




















</defs>
<path
   style="opacity:1;fill:#2e2f28;fill-opacity:1"
   inkscape:connector-curvature="0"
   id="path1182"
   d="m 79.375,29.9166 c 0,4.1879 -17.7686,7.583 -39.6875,7.583 -21.9188,0 -39.68750321609,-3.3951 -39.68750321609,-7.583 0,-4.1879 17.76870321609,-7.583 39.68750321609,-7.583 21.9189,0 39.6875,3.3951 39.6875,7.583" /><rect
   style="opacity:1;fill:#78dce8;fill-opacity:1;stroke:none;stroke-width:12.86245537;stroke-linecap:round;stroke-linejoin:round;stroke-miterlimit:4;stroke-dasharray:none;stroke-dashoffset:0;stroke-opacity:1"
   id="rect1023"
   width="26.489819"
   height="25.763597"
   x="11.0786"
   y="1.191002" /><rect
   style="opacity:1;fill:#3dbac8;fill-opacity:1;stroke:none;stroke-width:9.57147598;stroke-linecap:round;stroke-linejoin:round;stroke-miterlimit:4;stroke-dasharray:none;stroke-dashoffset:0;stroke-opacity:1"
   id="rect1025"
   width="22.303894"
   height="0.51873016"
   x="11.0786"
   y="13.813436" /><rect
   y="1.191002"
   x="33.314831"
   height="25.763597"
   width="4.2535868"
   id="rect1027"
   style="opacity:1;fill:#48c0cf;fill-opacity:1;stroke:none;stroke-width:5.15420914;stroke-linecap:round;stroke-linejoin:round;stroke-miterlimit:4;stroke-dasharray:none;stroke-dashoffset:0;stroke-opacity:1" /><g
   style="opacity:1"
   id="g1218">
<path
   style="opacity:1;fill:#f5748f"
   inkscape:connector-curvature="0"
   id="path1184"
   d="m 33.8276,19.7072 -4.6982,4.0522 c -0.76,0.6557 -3.6056,-2.8404 -3.0396,-5.1066 0.5662,-2.266 6.4312,-1.8626 6.4312,-1.8626 0.77,0.5338 1.6859,2.5901 1.3066,2.917" />
<path
   style="opacity:1;fill:#f36082"
   inkscape:connector-curvature="0"
   id="path1186"
   d="m 31.1346,19.8073 c 0.0871,0.9524 -0.7541,2.8226 -1.5505,3.5601 l 4.2435,-3.6602 c 0,0 -2.8322,-1.3317 -2.6628,0.1001" />
<path
   style="opacity:1;fill:#ffc7c7"
   inkscape:connector-curvature="0"
   id="path1188"
   d="m 31.521,23.864 c 2.3405,6.0812 9.9247,2.9359 11.5083,2.7624 1.2809,-0.1399 2.8171,0.8789 5.6744,0.9716 2.8571,0.0925 4.4159,-0.7303 6.8711,-0.3781 2.4552,0.3522 6.2686,3.7465 14.0145,1.438 C 79.8252,25.5692 67.145,1.13748 50.8167,1.13748 34.4883,1.13748 29.1806,17.7832 31.521,23.864 v 0" />
<path
   style="opacity:1;fill:#a7505d"
   inkscape:connector-curvature="0"
   id="path1190"
   d="m 35.3687,24.2162 c 0.1631,-0.1105 5.2479,-4.2559 9.8269,-4.3404 3.106,-0.0578 5.7108,-0.388 9.4814,1.1717 3.7704,1.5597 8.0175,4.6152 8.1279,4.683 0.1105,0.0673 0.1839,0.4517 0.104,0.6232 -0.0799,0.1714 -0.338,0.1198 -0.431,0.0587 -0.0927,-0.0614 -4.719,-2.8054 -7.9199,-4.1294 -3.2009,-1.3238 -5.9484,-1.1684 -9.4814,-1.1716 -4.5797,-0.0053 -9.2087,3.798 -9.3564,3.8244 -0.148,0.031 -0.5008,0.1324 -0.5918,-0.081 -0.0759,-0.1771 0.077,-0.5284 0.2403,-0.6386 v 0" />
<path
   style="opacity:1;fill:#ffffff"
   inkscape:connector-curvature="0"
   id="path1192"
   d="m 42.8967,14.7814 c 0.0276,2.2044 -1.7084,4.0142 -3.8771,4.0425 v 0 c -2.169,0.028 -3.9497,-1.7362 -3.9771,-3.9406 -0.0276,-2.2043 1.7083,-4.0141 3.8772,-4.0423 v 0 c 2.1689,-0.0282 3.9494,1.736 3.977,3.9404" />
<path
   style="opacity:1;fill:#040606"
   inkscape:connector-curvature="0"
   id="path1194"
   d="m 39.1479,17.9857 c -1.6931,0.1037 -3.1485,-1.2065 -3.2516,-2.9276 -0.1031,-1.7207 1.185,-3.2011 2.8782,-3.3074 1.6931,-0.106 3.1504,1.2017 3.2566,2.9274 0.1006,1.7261 -1.1899,3.2042 -2.8832,3.3076" />
<path
   style="opacity:1;fill:#ffffff"
   inkscape:connector-curvature="0"
   id="path1196"
   d="m 39.4847,12.8495 c 0.2955,-0.4051 1.3694,-0.0456 1.7458,0.6278 0.3761,0.673 0.3727,1.7069 -0.2507,1.9156 -0.6236,0.2085 -0.578,-0.6037 -0.9047,-1.1763 -0.3269,-0.5726 -0.8859,-0.9622 -0.5904,-1.3669 v -2e-4" />
<path
   style="opacity:1;fill:#ffffff"
   inkscape:connector-curvature="0"
   id="path1198"
   d="m 40.9127,15.602 c 0.22,0.0128 0.3804,0.2397 0.3586,0.5065 -0.0221,0.2665 -0.2183,0.472 -0.4383,0.4591 -0.22,-0.0128 -0.3804,-0.2397 -0.3584,-0.5063 0.0221,-0.2667 0.2181,-0.4721 0.4381,-0.4593" />
<path
   style="opacity:1;fill:#ffffff"
   inkscape:connector-curvature="0"
   id="path1200"
   d="m 60.024,14.7429 c 0.0276,2.2043 -1.7084,4.0142 -3.8772,4.0422 v 0 c -2.1689,0.0283 -3.9494,-1.7359 -3.977,-3.9402 -0.0276,-2.2045 1.7083,-4.0143 3.8774,-4.0426 v 0 c 2.1687,-0.028 3.9494,1.7362 3.9768,3.9406 v 0" />
<path
   style="opacity:1;fill:#040606"
   inkscape:connector-curvature="0"
   id="path1202"
   d="m 56.2754,17.9472 c -1.6933,0.1035 -3.1487,-1.2069 -3.2517,-2.9276 -0.1031,-1.7209 1.1851,-3.2013 2.8782,-3.3076 1.6929,-0.1062 3.1505,1.2019 3.2567,2.9276 0.1006,1.7258 -1.1901,3.2041 -2.8832,3.3076" />
<path
   style="opacity:1;fill:#ffffff"
   inkscape:connector-curvature="0"
   id="path1204"
   d="m 56.6119,12.811 c 0.2955,-0.4051 1.3695,-0.0456 1.7458,0.6276 0.3762,0.673 0.3728,1.7071 -0.2504,1.9158 -0.6236,0.2085 -0.578,-0.6039 -0.9047,-1.1765 -0.327,-0.5724 -0.8862,-0.962 -0.5907,-1.3669 v 0" />
<path
   style="opacity:1;fill:#ffffff"
   inkscape:connector-curvature="0"
   id="path1206"
   d="m 58.0402,15.5633 c 0.2198,0.013 0.3804,0.2397 0.3584,0.5063 -0.0221,0.2667 -0.2183,0.4724 -0.4381,0.4595 -0.22,-0.013 -0.3804,-0.2397 -0.3586,-0.5065 0.0221,-0.2666 0.2181,-0.4724 0.4383,-0.4593" />
<path
   style="opacity:1;fill:#ffc7c7"
   inkscape:connector-curvature="0"
   id="path1208"
   d="m 51.7775,14.473 c 0.1785,2.81 -2.0733,5.2425 -5.0308,5.4346 -2.9577,0.1923 -5.5024,-1.9286 -5.6856,-4.7382 -0.1833,-2.8095 2.0644,-5.2454 5.0216,-5.44202 2.9575,-0.19681 5.5057,1.92002 5.6937,4.72922" />
<path
   style="opacity:1;fill:#a7505d"
   inkscape:connector-curvature="0"
   id="path1210"
   d="m 51.3304,16.276 c -0.6291,1.8734 -2.413,3.2879 -4.5977,3.4293 -2.84,0.1844 -5.2834,-1.8526 -5.4587,-4.5504 -0.0801,-1.2307 0.3257,-2.3866 1.0603,-3.2979 0,0 0.4626,-0.5224 0.1828,-0.7443 -0.2796,-0.2221 -0.6782,0.4005 -0.6782,0.4005 -0.8175,1.0188 -1.2688,2.3096 -1.1791,3.6835 0.1975,3.0192 2.9324,5.2979 6.1109,5.0915 2.4485,-0.1586 4.4471,-1.746 5.1488,-3.8472 0,0 0.1648,-0.4304 -0.1241,-0.5338 -0.2888,-0.1033 -0.465,0.3688 -0.465,0.3688 v 0" />
<path
   style="opacity:1;fill:#f6aeae"
   inkscape:connector-curvature="0"
   id="path1212"
   d="m 57.6384,2.54203 c 0,0.49101 9.1736,3.43824 12.1504,14.22037 3.0372,11.0009 -3.8417,12.6208 -3.8261,12.6202 0.0602,-0.0025 0.083,-0.0064 0.1564,-0.0141 1.0606,-0.1117 2.2137,-0.3361 3.4702,-0.7106 C 78.3281,26.0209 70.364,7.82752 57.6867,2.56213 57.6724,2.55621 57.6567,2.55332 57.6444,2.54464 57.6364,2.53904 57.6415,2.5442 57.6415,2.5442" />
<path
   style="opacity:1;fill:#f5748f"
   inkscape:connector-curvature="0"
   id="path1214"
   d="m 66.9133,19.5834 5.6476,5.9476 c 0.9139,0.9623 4.6496,-2.8816 4.1088,-5.9955 -0.5408,-3.1139 -8.0203,-3.1735 -8.0203,-3.1735 -1.0197,0.6406 -2.1922,2.7414 -1.7361,3.2214 v 0" />
<path
   style="opacity:1;fill:#f36082"
   inkscape:connector-curvature="0"
   id="path1216"
   d="m 75.1836,17.7234 v 0 c 2.3081,2.2617 0.1847,4.9282 -1.1733,6.1166 -1.2236,1.0706 -6.0016,-3.1108 -6.9371,-4.0881 l 5.4877,5.7791 c 0.9139,0.9623 4.6496,-2.8816 4.1088,-5.9955 -0.1355,-0.7799 -0.7065,-1.3683 -1.4861,-1.8121" />
</g><g
   style="opacity:0"
   id="g1250">
<path
   style="opacity:1;fill:#ff9197"
   inkscape:connector-curvature="0"
   id="path1220"
   d="m 34.8798,18.2865 -4.4704,4.2006 c -0.7233,0.6796 -3.6815,-2.6542 -3.2176,-4.9167 0.4638,-2.2624 6.2745,-2.1107 6.2745,-2.1107 0.7831,0.4949 1.7744,2.4876 1.4135,2.8268 z" />
<path
   style="opacity:1;fill:#ffc7c7"
   inkscape:connector-curvature="0"
   id="path1222"
   d="m 32.0302,23.5785 c 2.3141,6.0126 9.8129,2.9027 11.3787,2.7313 1.2665,-0.1384 2.7853,0.8689 5.6103,0.9606 2.825,0.0916 4.3662,-0.7221 6.7938,-0.3738 2.4277,0.3482 6.1979,3.7042 13.8566,1.4218 C 79.7901,25.2644 67.2528,1.10797 51.1084,1.10797 34.9641,1.10797 29.7161,17.566 32.0302,23.5785 Z" />
<path
   style="opacity:1;fill:#ff9197"
   inkscape:connector-curvature="0"
   id="path1224"
   d="m 67.0238,19.3462 5.584,5.8804 c 0.9035,0.9515 4.5973,-2.8489 4.0625,-5.9278 -0.5348,-3.0788 -7.93,-3.1379 -7.93,-3.1379 -1.0083,0.6333 -2.1674,2.7105 -1.7165,3.1853 z" />
<g
   style="opacity:1"
   id="g1248">
<path
   style="opacity:1;fill:#b06264"
   inkscape:connector-curvature="0"
   id="path1226"
   d="m 35.8344,23.9268 c 0.1614,-0.1094 5.1889,-4.2081 9.7162,-4.2917 3.0711,-0.0571 5.6465,-0.3835 9.3746,1.1585 3.7282,1.5422 7.9272,4.5633 8.0366,4.6302 0.1093,0.0667 0.1818,0.4468 0.1028,0.6164 -0.079,0.1693 -0.3343,0.1185 -0.4261,0.0579 -0.0919,-0.0608 -4.6659,-2.7738 -7.8308,-4.0828 -3.165,-1.3091 -5.8815,-1.1554 -9.3746,-1.1585 -4.5281,-0.0052 -9.1051,3.7552 -9.2512,3.7813 -0.1461,0.0308 -0.495,0.1309 -0.585,-0.0801 -0.075,-0.1751 0.0762,-0.5223 0.2375,-0.6314 z" />
<path
   style="opacity:1;fill:#fffefe"
   inkscape:connector-curvature="0"
   id="path1228"
   d="m 43.2777,14.5981 c 0.0273,2.1796 -1.6891,3.9691 -3.8336,3.9969 -2.1444,0.0279 -3.905,-1.7165 -3.9322,-3.896 -0.0273,-2.1796 1.6891,-3.9691 3.8336,-3.9969 2.1445,-0.0279 3.905,1.7165 3.9322,3.896 z" />
<path
   style="opacity:1;fill:#000000"
   inkscape:connector-curvature="0"
   id="path1230"
   d="m 39.5713,17.7665 c -1.6742,0.1023 -3.1132,-1.1932 -3.2151,-2.8947 -0.102,-1.7014 1.1717,-3.1651 2.8457,-3.2702 1.674,-0.105 3.1151,1.1882 3.22,2.8944 0.0995,1.7065 -1.1765,3.1682 -2.8506,3.2705 z" />
<path
   style="opacity:1;fill:#ffffff"
   inkscape:connector-curvature="0"
   id="path1232"
   d="m 39.9041,12.688 c 0.2921,-0.4004 1.354,-0.045 1.7261,0.6207 0.372,0.6654 0.3687,1.6878 -0.2478,1.8941 -0.6165,0.2061 -0.5714,-0.597 -0.8945,-1.1631 -0.3232,-0.5661 -0.876,-0.9514 -0.5839,-1.3516 z" />
<path
   style="opacity:1;fill:#ffffff"
   inkscape:connector-curvature="0"
   id="path1234"
   d="m 40.8829,15.8636 c 0.0218,-0.2637 0.2157,-0.467 0.4332,-0.4541 0.2175,0.0128 0.3762,0.237 0.3544,0.5006 -0.0217,0.2637 -0.2157,0.467 -0.4332,0.4542 -0.2174,-0.0129 -0.3761,-0.237 -0.3544,-0.5007 z" />
<path
   style="opacity:1;fill:#ffc7c7"
   inkscape:connector-curvature="0"
   id="path1236"
   d="m 52.0585,14.2932 c 0.1765,2.7783 -2.0499,5.1833 -4.9742,5.3734 -2.9243,0.19 -5.4405,-1.9068 -5.6216,-4.6848 -0.1812,-2.778 2.0412,-5.18638 4.9652,-5.38085 2.924,-0.19446 5.4437,1.89855 5.6295,4.67615" />
<path
   style="opacity:1;fill:#b06264"
   inkscape:connector-curvature="0"
   id="path1238"
   d="m 51.6165,16.0757 c -0.6221,1.8524 -2.3859,3.251 -4.546,3.3908 -2.808,0.1823 -5.2238,-1.8315 -5.3973,-4.499 -0.0791,-1.2169 0.3221,-2.3599 1.0485,-3.2608 0,0 0.4574,-0.5165 0.1808,-0.736 -0.2767,-0.2196 -0.6706,0.3961 -0.6706,0.3961 -0.8085,1.0073 -1.2545,2.2834 -1.166,3.6418 0.1954,2.9853 2.8994,5.2385 6.0421,5.0345 2.4209,-0.1571 4.3971,-1.7266 5.091,-3.8041 0,0 0.1629,-0.4257 -0.1228,-0.5278 -0.2856,-0.1022 -0.4598,0.3645 -0.4597,0.3645 z" />
<path
   style="opacity:1;fill:#fffefe"
   inkscape:connector-curvature="0"
   id="path1240"
   d="m 60.2122,14.56 c 0.0272,2.1795 -1.6892,3.969 -3.8336,3.9968 -2.1445,0.0279 -3.905,-1.7164 -3.9323,-3.896 -0.0272,-2.1796 1.6892,-3.9691 3.8337,-3.9969 2.1444,-0.0278 3.905,1.7165 3.9322,3.8961 z" />
<path
   style="opacity:1;fill:#000000"
   inkscape:connector-curvature="0"
   id="path1242"
   d="m 56.5057,17.7284 c -1.6741,0.1022 -3.1132,-1.1933 -3.2151,-2.8948 -0.102,-1.7014 1.1718,-3.1651 2.8458,-3.2702 1.6739,-0.105 3.115,1.1882 3.2199,2.8944 0.0996,1.7065 -1.1765,3.1682 -2.8506,3.2706 z" />
<path
   style="opacity:1;fill:#ffffff"
   inkscape:connector-curvature="0"
   id="path1244"
   d="m 56.8385,12.6498 c 0.2921,-0.4004 1.3541,-0.0449 1.7261,0.6207 0.372,0.6654 0.3687,1.6878 -0.2478,1.8941 -0.6165,0.2061 -0.5714,-0.597 -0.8945,-1.1631 -0.3231,-0.5661 -0.876,-0.9513 -0.5838,-1.3516 z" />
<path
   style="opacity:1;fill:#ffffff"
   inkscape:connector-curvature="0"
   id="path1246"
   d="m 57.8174,15.8254 c 0.0217,-0.2637 0.2157,-0.467 0.4332,-0.4541 0.2174,0.0128 0.3761,0.2369 0.3544,0.5006 -0.0218,0.2637 -0.2157,0.467 -0.4332,0.4542 -0.2175,-0.0129 -0.3762,-0.237 -0.3544,-0.5007 z" />
</g>
</g><path
   style="opacity:1;fill:#a9dc76;fill-opacity:1"
   inkscape:connector-curvature="0"
   id="path1252"
   d="m 36.938372,6.5719725 c 10.5719,3.6840195 19.110343,2.6736602 27.641943,0.3926202 0,0 -6.808615,8.5819073 -19.320615,7.9026073 C 32.7478,14.1879 36.938372,6.5719725 36.938372,6.5719725 Z"
   sodipodi:nodetypes="ccsc" /><path
   style="opacity:1;fill:#fff5d7;fill-opacity:1"
   inkscape:connector-curvature="0"
   id="path1254"
   d="m 61.051,26.708 h 13.8057 l -8.5918,6.7559 H 52.4593 Z" /><path
   style="opacity:1;fill:#ffd866;fill-opacity:1"
   inkscape:connector-curvature="0"
   id="path1256"
   d="M 68.3388,26.5854 75.173,15.8281 c 0.2367,-0.3725 0.724,-0.4837 1.0927,-0.2495 0.3688,0.2343 0.4751,0.7227 0.2385,1.0952 L 69.67,27.4311 Z" /><path
   style="opacity:1;fill:#ffe5ba"
   inkscape:connector-curvature="0"
   id="path1258"
   d="m 67.6049,29.2112 0.7382,-2.6325 c 0.1254,-0.1975 0.6128,-0.3087 0.9815,-0.0745 0.3688,0.2343 0.4751,0.7227 0.3496,0.9202 z" /><path
   style="opacity:1;fill:#4c4c4c"
   inkscape:connector-curvature="0"
   id="path1260"
   d="m 67.6049,29.2112 0.1845,-0.6581 c 0,0 0.0889,-0.0294 0.2052,0.0446 0.1164,0.0739 0.1276,0.1668 0.1276,0.1668 z" /><path
   d="m 20.168,23.4371 -4.206,3.6348 h 19.3742 v 1.1373 l 5.654,-4.7721 z"
   id="path1262"
   inkscape:connector-curvature="0"
   style="opacity:1;fill:#4e4e4e" /><g
   id="g1306"
   style="opacity:1">
<g
   id="g1276"
   style="opacity:1">
<path
   d="m 33.6281,27.1724 0.0522,0.0175 c 0.424,0.1426 0.4812,0.4381 0.1277,0.66 l -0.3706,0.2327 c -0.3536,0.2219 -0.9839,0.2862 -1.4079,0.1437 l -0.0522,-0.0176 c -0.4241,-0.1425 -0.4812,-0.438 -0.1277,-0.6599 l 0.3706,-0.2327 c 0.3536,-0.2219 0.9839,-0.2863 1.4079,-0.1437 z"
   id="path1264"
   inkscape:connector-curvature="0"
   style="opacity:1;fill:#a1a1a1" />
<path
   d="m 30.8817,27.1724 0.0522,0.0175 c 0.424,0.1426 0.4812,0.4381 0.1276,0.66 l -0.3706,0.2327 c -0.3535,0.2219 -0.9838,0.2862 -1.4079,0.1437 l -0.0522,-0.0176 c -0.424,-0.1425 -0.4811,-0.438 -0.1276,-0.6599 l 0.3706,-0.2327 c 0.3535,-0.2219 0.9838,-0.2863 1.4079,-0.1437 z"
   id="path1266"
   inkscape:connector-curvature="0"
   style="opacity:1;fill:#a1a1a1" />
<path
   d="m 28.1352,27.1724 0.0522,0.0175 c 0.4241,0.1426 0.4812,0.4381 0.1277,0.66 l -0.3706,0.2327 c -0.3535,0.2219 -0.9839,0.2862 -1.4079,0.1437 l -0.0522,-0.0176 c -0.424,-0.1425 -0.4812,-0.438 -0.1277,-0.6599 l 0.3706,-0.2327 c 0.3536,-0.2219 0.9839,-0.2863 1.4079,-0.1437 z"
   id="path1268"
   inkscape:connector-curvature="0"
   style="opacity:1;fill:#a1a1a1" />
<path
   d="m 25.3888,27.1724 0.0522,0.0175 c 0.424,0.1426 0.4812,0.4381 0.1277,0.66 l -0.3706,0.2327 c -0.3536,0.2219 -0.9839,0.2862 -1.4079,0.1437 L 23.738,28.2087 c -0.4241,-0.1425 -0.4812,-0.438 -0.1277,-0.6599 l 0.3706,-0.2327 c 0.3536,-0.2219 0.9839,-0.2863 1.4079,-0.1437 z"
   id="path1270"
   inkscape:connector-curvature="0"
   style="opacity:1;fill:#a1a1a1" />
<path
   d="m 22.6424,27.1724 0.0522,0.0175 c 0.424,0.1426 0.4812,0.4381 0.1276,0.66 l -0.3706,0.2327 c -0.3535,0.2219 -0.9838,0.2862 -1.4079,0.1437 l -0.0522,-0.0176 c -0.424,-0.1425 -0.4811,-0.438 -0.1276,-0.6599 l 0.3706,-0.2327 c 0.3535,-0.2219 0.9838,-0.2863 1.4079,-0.1437 z"
   id="path1272"
   inkscape:connector-curvature="0"
   style="opacity:1;fill:#a1a1a1" />
<path
   d="m 19.8959,27.1724 0.0522,0.0175 c 0.4241,0.1426 0.4812,0.4381 0.1277,0.66 l -0.3706,0.2327 c -0.3535,0.2219 -0.9839,0.2862 -1.4079,0.1437 l -0.0522,-0.0176 c -0.424,-0.1425 -0.4812,-0.438 -0.1277,-0.6599 l 0.3706,-0.2327 c 0.3536,-0.2219 0.9839,-0.2863 1.4079,-0.1437 z"
   id="path1274"
   inkscape:connector-curvature="0"
   style="opacity:1;fill:#a1a1a1" />
</g>
<g
   id="g1290"
   style="opacity:1">
<path
   d="m 35.0234,25.6786 0.0522,0.0175 c 0.424,0.1426 0.4811,0.4381 0.1276,0.66 l -0.3706,0.2327 c -0.3535,0.2219 -0.9838,0.2862 -1.4079,0.1437 l -0.0522,-0.0176 c -0.424,-0.1425 -0.4812,-0.438 -0.1276,-0.6599 l 0.3706,-0.2327 c 0.3535,-0.2219 0.9838,-0.2863 1.4079,-0.1437 z"
   id="path1278"
   inkscape:connector-curvature="0"
   style="opacity:1;fill:#a1a1a1" />
<path
   d="m 32.2769,25.6786 0.0522,0.0175 c 0.4241,0.1426 0.4812,0.4381 0.1277,0.66 l -0.3706,0.2327 c -0.3536,0.2219 -0.9839,0.2863 -1.4079,0.1437 L 30.6261,26.7149 C 30.202,26.5724 30.1449,26.2769 30.4984,26.055 l 0.3706,-0.2327 c 0.3536,-0.2219 0.9839,-0.2863 1.4079,-0.1437 z"
   id="path1280"
   inkscape:connector-curvature="0"
   style="opacity:1;fill:#a1a1a1" />
<path
   d="m 29.5305,25.6786 0.0522,0.0175 c 0.424,0.1426 0.4812,0.4381 0.1276,0.66 l -0.3706,0.2327 c -0.3535,0.2219 -0.9838,0.2862 -1.4079,0.1437 l -0.0522,-0.0176 c -0.424,-0.1425 -0.4811,-0.438 -0.1276,-0.6599 l 0.3706,-0.2327 c 0.3535,-0.2219 0.9839,-0.2863 1.4079,-0.1437 z"
   id="path1282"
   inkscape:connector-curvature="0"
   style="opacity:1;fill:#a1a1a1" />
<path
   d="m 26.7841,25.6786 0.0522,0.0175 c 0.424,0.1426 0.4811,0.4381 0.1276,0.66 l -0.3706,0.2327 c -0.3535,0.2219 -0.9838,0.2863 -1.4079,0.1437 l -0.0522,-0.0176 c -0.424,-0.1425 -0.4812,-0.438 -0.1276,-0.6599 l 0.3706,-0.2327 c 0.3535,-0.2219 0.9838,-0.2863 1.4079,-0.1437 z"
   id="path1284"
   inkscape:connector-curvature="0"
   style="opacity:1;fill:#a1a1a1" />
<path
   d="m 24.0376,25.6786 0.0522,0.0175 c 0.4241,0.1426 0.4812,0.4381 0.1277,0.66 l -0.3706,0.2327 c -0.3536,0.2219 -0.9839,0.2863 -1.4079,0.1437 l -0.0522,-0.0176 c -0.424,-0.1425 -0.4812,-0.438 -0.1277,-0.6599 l 0.3706,-0.2327 c 0.3536,-0.2219 0.9839,-0.2863 1.4079,-0.1437 z"
   id="path1286"
   inkscape:connector-curvature="0"
   style="opacity:1;fill:#a1a1a1" />
<path
   d="m 21.2912,25.6786 0.0522,0.0175 c 0.424,0.1426 0.4812,0.4381 0.1276,0.66 l -0.3706,0.2327 c -0.3535,0.2219 -0.9838,0.2862 -1.4079,0.1437 l -0.0522,-0.0176 c -0.424,-0.1425 -0.4811,-0.438 -0.1276,-0.6599 l 0.3706,-0.2327 c 0.3535,-0.2219 0.9839,-0.2863 1.4079,-0.1437 z"
   id="path1288"
   inkscape:connector-curvature="0"
   style="opacity:1;fill:#a1a1a1" />
</g>
<g
   id="g1304"
   style="opacity:1">
<path
   d="m 36.6022,24.1848 0.0522,0.0175 c 0.424,0.1426 0.4812,0.4381 0.1277,0.66 l -0.3706,0.2327 c -0.3536,0.2219 -0.9839,0.2862 -1.4079,0.1437 l -0.0522,-0.0176 c -0.4241,-0.1425 -0.4812,-0.438 -0.1277,-0.6599 l 0.3706,-0.2327 c 0.3535,-0.2219 0.9839,-0.2863 1.4079,-0.1437 z"
   id="path1292"
   inkscape:connector-curvature="0"
   style="opacity:1;fill:#a1a1a1" />
<path
   d="m 33.8558,24.1848 0.0522,0.0175 c 0.424,0.1426 0.4811,0.4381 0.1276,0.66 L 33.665,25.095 c -0.3535,0.2219 -0.9839,0.2863 -1.4079,0.1437 l -0.0522,-0.0176 c -0.424,-0.1425 -0.4812,-0.438 -0.1276,-0.6599 l 0.3706,-0.2327 c 0.3535,-0.2219 0.9838,-0.2863 1.4079,-0.1437 z"
   id="path1294"
   inkscape:connector-curvature="0"
   style="opacity:1;fill:#a1a1a1" />
<path
   d="m 31.1093,24.1848 0.0522,0.0175 c 0.424,0.1426 0.4812,0.4381 0.1277,0.66 l -0.3706,0.2327 c -0.3536,0.2219 -0.9839,0.2862 -1.4079,0.1437 l -0.0522,-0.0176 c -0.4241,-0.1425 -0.4812,-0.438 -0.1277,-0.6599 l 0.3706,-0.2327 c 0.3535,-0.2219 0.9839,-0.2863 1.4079,-0.1437 z"
   id="path1296"
   inkscape:connector-curvature="0"
   style="opacity:1;fill:#a1a1a1" />
<path
   d="m 28.3629,24.1848 0.0522,0.0175 c 0.424,0.1426 0.4812,0.4381 0.1277,0.66 l -0.3706,0.2327 c -0.3536,0.2219 -0.9839,0.2863 -1.4079,0.1437 l -0.0522,-0.0176 c -0.4241,-0.1425 -0.4812,-0.438 -0.1277,-0.6599 l 0.3706,-0.2327 c 0.3535,-0.2219 0.9839,-0.2863 1.4079,-0.1437 z"
   id="path1298"
   inkscape:connector-curvature="0"
   style="opacity:1;fill:#a1a1a1" />
<path
   d="m 25.6165,24.1848 0.0522,0.0175 c 0.424,0.1426 0.4811,0.4381 0.1276,0.66 l -0.3706,0.2327 c -0.3535,0.2219 -0.9839,0.2863 -1.4079,0.1437 l -0.0522,-0.0176 c -0.424,-0.1425 -0.4812,-0.438 -0.1276,-0.6599 l 0.3706,-0.2327 c 0.3535,-0.2219 0.9838,-0.2863 1.4079,-0.1437 z"
   id="path1300"
   inkscape:connector-curvature="0"
   style="opacity:1;fill:#a1a1a1" />
<path
   d="m 22.87,24.1848 0.0522,0.0175 c 0.424,0.1426 0.4812,0.4381 0.1277,0.66 l -0.3706,0.2327 c -0.3536,0.2219 -0.9839,0.2862 -1.4079,0.1437 l -0.0522,-0.0176 c -0.4241,-0.1425 -0.4812,-0.438 -0.1277,-0.6599 l 0.3706,-0.2327 c 0.3535,-0.2219 0.9839,-0.2863 1.4079,-0.1437 z"
   id="path1302"
   inkscape:connector-curvature="0"
   style="opacity:1;fill:#a1a1a1" />
</g>
</g><path
   d="m 12.3705,27.0571 c 0,-1.237 0.674,-2.2398 1.5054,-2.2398 0.8314,0 1.5054,1.0028 1.5054,2.2398 0,1.2369 -0.674,2.2397 -1.5054,2.2397 -0.8314,0 -1.5054,-1.0028 -1.5054,-2.2397 z"
   id="path1308"
   inkscape:connector-curvature="0"
   style="opacity:1;fill:#fffad4" /><path
   d="m 34.1925,26.9906 c 0,0 -0.5124,-3.9925 -1.6155,-5.3974 -1.1032,-1.4048 -2.8562,-2.6446 -4.3694,-2.8639 -0.2938,-0.0426 -0.5782,-0.0614 -0.8531,-0.0572 -1.1404,0.0176 -6.9983,-0.009 -7.8097,0.754 -1.0071,0.947 -2.0063,2.2863 -1.5812,4.003 0.425,1.7166 4.3112,1.9831 5.3974,3.5615 h 10.8315"
   id="path1310"
   inkscape:connector-curvature="0"
   style="opacity:1;fill:#fff5d7;fill-opacity:1" /><path
   d="m 13.8175,24.8173 h 18.7642 v 0 4.4795 0 H 13.8175 v 0 z"
   id="path1312"
   inkscape:connector-curvature="0"
   style="opacity:1;fill:#ffd866;fill-opacity:1" /><path
   d="m 31.1417,27.0571 c 0,-1.237 0.674,-2.2398 1.5054,-2.2398 0.8314,0 1.5054,1.0028 1.5054,2.2398 0,1.2369 -0.674,2.2397 -1.5054,2.2397 -0.8314,0 -1.5054,-1.0028 -1.5054,-2.2397 z"
   id="path1314"
   inkscape:connector-curvature="0"
   style="opacity:1;fill:#fff5d7;fill-opacity:1" /><path
   d="m 32.002,26.9546 v 7.4915 l 8.9882,-7.7838 4e-4,-3.2285 -5.5076,4.5735 -0.054,-1.0869 z"
   id="path1316"
   inkscape:connector-curvature="0"
   style="opacity:1;fill:#c5c5c5" /><path
   d="m 11.0786,26.9546 0.0028,7.494 H 32.0047 L 32.002,26.9546 H 11.0786"
   id="path1318"
   inkscape:connector-curvature="0"
   style="opacity:1;fill:#9b9b9b" /><path
   d="M 22.2589,38.5795 H 2.65203 c 0,0 2.98703,-0.413 4.07559,-0.8078 C 7.81618,37.377 8.69161,37.0307 9.33453,36.1929 9.97746,35.3552 10.3115,34.4537 10.2525,33.0352 10.1934,31.6167 9.46607,29.7303 8.37989,28.1519 7.29371,26.5735 4.76608,25.4992 4.34101,23.7825 3.91595,22.0659 4.21517,20.8375 5.22223,19.8905 5.99334,19.1654 6.90774,18.733 7.976,18.6789 c 0.32687,-0.0166 19.6436,0 19.6436,0 -1.1221,0.0272 -1.9892,0.4581 -2.7905,1.2116 -1.007,0.947 -1.3063,2.1754 -0.8812,3.892 0.4251,1.7167 2.9527,2.791 4.0389,4.3694 1.0862,1.5784 1.8135,3.4648 1.8725,4.8833 0.0591,1.4185 -0.2749,2.32 -0.9179,3.1577 -0.6429,0.8378 -1.5183,1.1841 -2.6069,1.5788 -1.0885,0.3948 -4.0756,0.8078 -4.0756,0.8078"
   id="path1320"
   inkscape:connector-curvature="0"
   style="opacity:1;fill:#ffd866;fill-opacity:1" /><path
   style="opacity:1;fill:#f3ba18;fill-opacity:1"
   inkscape:connector-curvature="0"
   id="path1324"
   d="m 76.2657,15.5786 c 0.3688,0.2343 0.4751,0.7227 0.2385,1.0952 0,0 -4.1045,6.3777 -5.759,9.0635 -0.8072,1.3105 -1.0206,1.5786 -1.0206,1.5786 0,0 -0.0466,-0.2478 -0.129,-0.4436 -0.0823,-0.1957 -0.2004,-0.3393 -0.2004,-0.3393 0,0 6.3012,-10.0206 6.8705,-10.9544 z" />
<path
   sodipodi:nodetypes="scscs"
   d="m 50.442647,13.574829 c 9.512205,-1.498876 12.69538,-5.4876936 14.137668,-6.6102363 0,0 -6.808615,8.5819123 -19.320615,7.9026073 -3.900328,-0.211758 -6.177589,-1.097584 -7.464683,-2.216648 1.982403,1.108448 6.104418,1.955317 12.64763,0.924277 z"
   id="path1021"
   inkscape:connector-curvature="0"
   style="opacity:1;fill:#88bf51;fill-opacity:1" /><path
   style="opacity:1;fill:#c1f9ff;fill-opacity:1;stroke:none;stroke-width:10;stroke-linecap:round;stroke-linejoin:round;stroke-miterlimit:4;stroke-dasharray:none;stroke-dashoffset:0;stroke-opacity:1"
   d="m 19.617404,4.3291435 v 3.5976562 h 5.429687 V 4.3291435 Z m 0.835937,0.5546875 h 3.757813 v 2.4882813 h -3.757813 z"
   id="rect1029"
   inkscape:connector-curvature="0" /></svg>