<?xml version="1.0" encoding="UTF-8" standalone="no"?>
<!-- Created with Inkscape (http://www.inkscape.org/) -->

<svg
   version="1.1"
   id="svg2"
   xml:space="preserve"
   width="554.89331"
   height="345.61334"
   viewBox="0 0 554.89331 345.61334"
   sodipodi:docname="Blobchef.svg"
   inkscape:version="1.2 (dc2aeda, 2022-05-15)"
   xmlns:inkscape="http://www.inkscape.org/namespaces/inkscape"
   xmlns:sodipodi="http://sodipodi.sourceforge.net/DTD/sodipodi-0.dtd"
   xmlns="http://www.w3.org/2000/svg"
   xmlns:svg="http://www.w3.org/2000/svg"
   xmlns:rdf="http://www.w3.org/1999/02/22-rdf-syntax-ns#"
   xmlns:cc="http://creativecommons.org/ns#"
   xmlns:dc="http://purl.org/dc/elements/1.1/"><metadata
     id="metadata8"><rdf:RDF><cc:Work
         rdf:about=""><dc:format>image/svg+xml</dc:format><dc:type
           rdf:resource="http://purl.org/dc/dcmitype/StillImage" /></cc:Work></rdf:RDF></metadata><defs
     id="defs6" /><sodipodi:namedview
     pagecolor="#ffffff"
     bordercolor="#666666"
     borderopacity="1"
     objecttolerance="10"
     gridtolerance="10"
     guidetolerance="10"
     inkscape:pageopacity="0"
     inkscape:pageshadow="2"
     inkscape:window-width="1920"
     inkscape:window-height="1027"
     id="namedview4"
     showgrid="false"
     inkscape:zoom="0.682844"
     inkscape:cx="446.66132"
     inkscape:cy="214.54388"
     inkscape:window-x="1512"
     inkscape:window-y="25"
     inkscape:window-maximized="0"
     inkscape:current-layer="g10"
     inkscape:showpageshadow="0"
     inkscape:pagecheckerboard="0"
     inkscape:deskcolor="#d1d1d1" /><g
     id="g10"
     inkscape:groupmode="layer"
     inkscape:label="ink_ext_XXXXXX"
     transform="matrix(1.3333333,0,0,-1.3333333,0,345.61333)"><g
       id="g1380"><path
         style="clip-rule:evenodd;fill:#b0f2ff;fill-opacity:1;fill-rule:evenodd;stroke-width:0.75;stroke-linecap:round;stroke-linejoin:round"
         inkscape:connector-curvature="0"
         id="path975"
         d="m 45.619698,76.514242 c 0,90.796488 73.605512,164.402018 164.402012,164.402018 90.79658,0 164.40158,-73.60553 164.40158,-164.402018 0,-14.718 -1.93425,-28.984501 -5.562,-42.558751 -21.6165,-3.41475 -303.044391,-3.41475 -317.825841,0.5505 -3.533625,13.40925 -5.415751,27.489001 -5.415751,42.008251 z" /><path
         d="m 411.657,34.65449 c 0,-19.13925 -91.14226,-34.6545 -203.57176,-34.6545 -112.43025,0 -203.57225,15.51525 -203.57225,34.6545 0,19.1385 91.142,34.65375 203.57225,34.65375 112.4295,0 203.57176,-15.51525 203.57176,-34.65375"
         id="path1213"
         inkscape:connector-curvature="0"
         style="clip-rule:evenodd;fill:#1e1f1b;fill-rule:evenodd;stroke-width:0.75;stroke-linecap:round;stroke-linejoin:round" /><g
         id="g985"
         transform="matrix(0.75000002,0,0,-0.75000002,1.1476572e-4,259.20974)"
         style="clip-rule:evenodd;fill-rule:evenodd;stroke-linecap:round;stroke-linejoin:round"><path
           id="path979"
           style="fill:#97da12;fill-opacity:1;stroke-width:2.0366"
           d="m 155.07767,52.68763 c 4.9342,0 8.90649,4.03517 8.90649,9.04747 0,0 0,10.85685 0,21.0883 0,10.23143 9.71781,26.86689 9.71781,40.30034 0,13.43345 -17.96394,26.86687 -17.96394,40.30037 0,13.4334 19.04522,26.8669 19.04522,40.3003 0,13.4335 -10.79908,27.888 -10.79908,40.3004 0,12.4123 0,34.1738 0,34.1738 0,5.0123 -3.97229,9.0475 -8.90649,9.0475 -4.93418,0 -8.90649,-4.0352 -8.90649,-9.0475 0,0 0,-21.7615 0,-34.1738 0,-12.4124 10.79909,-26.8669 10.79909,-40.3004 0,-13.4334 -19.04521,-26.8669 -19.04521,-40.3003 0,-13.4335 17.96394,-26.86692 17.96394,-40.30037 0,-13.43345 -9.71781,-30.06891 -9.71781,-40.30034 0,-10.23145 0,-21.0883 0,-21.0883 0,-5.0123 3.9723,-9.04747 8.90647,-9.04747 z"
           sodipodi:nodetypes="sszzzzzssszzzzzss" /><path
           id="path981"
           style="fill:#b6ee47;fill-opacity:1;stroke-width:2.0366"
           d="m 138.12252,34.07106 c 4.9342,0 8.9065,4.03517 8.9065,9.04747 0,0 0,26.37067 0,39.70487 0,13.3342 9.7178,26.86689 9.7178,40.30034 0,13.43345 -17.96394,26.86687 -17.96394,40.30037 0,13.4334 19.04521,26.8669 19.04521,40.3003 0,13.4335 -10.79908,27.888 -10.79908,40.3004 0,12.4123 0,34.1738 0,34.1738 0,5.0123 -3.97229,9.0475 -8.90649,9.0475 -4.93418,0 -8.90646,-4.0352 -8.90646,-9.0475 0,0 0,-21.7615 0,-34.1738 0,-12.4124 10.79907,-26.8669 10.79907,-40.3004 0,-13.4334 -19.04521,-26.8669 -19.04521,-40.3003 0,-13.4335 17.96393,-26.86692 17.96393,-40.30037 0,-13.43345 -9.71779,-26.96614 -9.71779,-40.30034 0,-13.3342 0,-39.70487 0,-39.70487 0,-5.0123 3.97228,-9.04747 8.90646,-9.04747 z"
           sodipodi:nodetypes="sszzzzzssszzzzzss" /><path
           id="path983"
           style="fill:#a6e22e;fill-opacity:1;stroke-width:2.0366"
           d="m 121.35619,66.49096 c 4.93419,0 8.90648,4.03517 8.90648,9.04747 0,0 0,-0.64592 0,7.28497 0,7.93088 9.71782,26.86689 9.71782,40.30034 0,13.43345 -17.96395,26.86687 -17.96395,40.30037 0,13.4334 19.04521,26.8669 19.04521,40.3003 0,13.4335 -10.79908,27.888 -10.79908,40.3004 0,12.4123 0,34.1738 0,34.1738 0,5.0123 -3.97229,9.0475 -8.90648,9.0475 -4.93419,0 -8.90648,-4.0352 -8.90648,-9.0475 0,0 0,-21.7615 0,-34.1738 0,-12.4124 10.79908,-26.8669 10.79908,-40.3004 0,-13.4334 -19.04521,-26.8669 -19.04521,-40.3003 0,-13.4335 17.96394,-26.86692 17.96394,-40.30037 0,-13.43345 -9.71781,-32.36946 -9.71781,-40.30034 0,-7.93089 0,-7.28497 0,-7.28497 0,-5.0123 3.97229,-9.04747 8.90648,-9.04747 z"
           sodipodi:nodetypes="sszzzzzssszzzzzss" /></g><g
         id="g993"
         transform="matrix(0.75000002,0,0,-0.75000002,1.1476572e-4,259.20974)"
         style="clip-rule:evenodd;fill-rule:evenodd;stroke-linecap:round;stroke-linejoin:round"><path
           id="path987"
           style="fill:#97da12;fill-opacity:1;stroke-width:1.83294"
           d="m 232.70847,73.040388 c 4.34916,0.871676 7.04788,5.120716 6.05094,9.527006 0,0 -2.15941,9.544194 -4.19443,18.538606 -2.03501,8.99441 3.22182,25.3353 0.54994,37.14458 -2.67189,11.80928 -21.17779,20.4451 -23.84967,32.2543 -2.67189,11.80931 11.44329,26.98307 8.77141,38.79237 -2.6719,11.80931 -15.06553,22.60848 -17.53433,33.52009 -2.46879,10.91162 -6.79711,30.04209 -6.79711,30.04209 -0.99694,4.40623 -5.30083,7.25183 -9.64999,6.38015 -4.34915,-0.87169 -7.04786,-5.12076 -6.05094,-9.52699 0,0 4.32832,-19.13046 6.79712,-30.04208 2.46879,-10.91161 14.86244,-21.71078 17.53432,-33.52009 2.6719,-11.8093 -11.4433,-26.98307 -8.7714,-38.79237 2.67188,-11.8092 21.17777,-20.44502 23.84966,-32.2543 2.67188,-11.80929 -2.58495,-28.15017 -0.54993,-37.144578 2.03501,-8.994416 4.19442,-18.53861 4.19442,-18.53861 0.99694,-4.4063 5.30084,-7.251849 9.64999,-6.380174 z"
           sodipodi:nodetypes="sszzzzzssszzzzzss" /><path
           id="path989"
           style="fill:#b6ee47;fill-opacity:1;stroke-width:1.83294"
           d="m 221.46645,53.679366 c 4.34916,0.871666 7.04788,5.120706 6.05095,9.526996 0,0 -5.24508,23.182325 -7.89722,34.904345 -2.65216,11.722033 3.22181,25.335303 0.54992,37.144573 -2.67189,11.80932 -21.17778,20.44503 -23.84966,32.25434 -2.6719,11.8093 11.44329,26.98306 8.7714,38.79237 -2.6719,11.8093 -15.06552,22.60837 -17.53433,33.52009 -2.46879,10.91161 -6.7971,30.04198 -6.7971,30.04198 -0.99694,4.40633 -5.30083,7.25184 -9.64999,6.38015 -4.34916,-0.87158 -7.04787,-5.12065 -6.05093,-9.52698 0,0 4.32831,-19.13037 6.7971,-30.04199 2.4688,-10.91171 14.86244,-21.71078 17.53432,-33.52009 2.6719,-11.8093 -11.44329,-26.98306 -8.7714,-38.79237 2.67189,-11.8093 21.17777,-20.44502 23.84967,-32.25433 2.67188,-11.80928 -3.20209,-25.42255 -0.54993,-37.144575 2.65214,-11.72203 7.89722,-34.904346 7.89722,-34.904346 0.99693,-4.40629 5.30083,-7.251838 9.64998,-6.380163 z"
           sodipodi:nodetypes="sszzzzzssszzzzzss" /><path
           id="path991"
           style="fill:#a6e22e;fill-opacity:1;stroke-width:1.83294"
           d="m 200.2398,79.217597 c 4.34916,0.871677 7.04788,5.120706 6.05094,9.527006 0,0 0.12846,-0.567833 -1.44896,6.404165 -1.57745,6.972002 3.2218,25.335302 0.54992,37.144572 -2.67189,11.80927 -21.17778,20.44508 -23.84967,32.25439 -2.67188,11.8092 11.4433,26.98306 8.77141,38.79227 -2.67188,11.8093 -15.06553,22.60847 -17.53431,33.52009 -2.46881,10.91171 -6.79712,30.04208 -6.79712,30.04208 -0.99693,4.40623 -5.30083,7.25184 -9.64999,6.38015 -4.34915,-0.87168 -7.04787,-5.12075 -6.05094,-9.52698 0,0 4.32831,-19.13037 6.79712,-30.04208 2.46879,-10.91162 14.86243,-21.71079 17.53432,-33.5201 2.67188,-11.8092 -11.44329,-26.98306 -8.77142,-38.79227 2.6719,-11.8093 21.17779,-20.44512 23.84967,-32.25438 2.6719,-11.80927 -2.12736,-30.172568 -0.54992,-37.144575 1.57743,-6.971996 1.44896,-6.404174 1.44896,-6.404174 0.99694,-4.40629 5.30084,-7.251839 9.64999,-6.380164 z"
           sodipodi:nodetypes="sszzzzzssszzzzzss" /></g><g
         id="g1001"
         transform="matrix(0.6937345,0,0,-0.6937345,7.1762208,243.47264)"
         style="clip-rule:evenodd;fill-rule:evenodd;stroke-linecap:round;stroke-linejoin:round"><path
           id="path995"
           style="fill:#97da12;fill-opacity:1;stroke-width:1.83294"
           d="m 74.62883,67.380015 c 4.34915,-0.871675 8.653049,1.973884 9.649993,6.380173 0,0 2.1594,9.544195 4.19442,18.53861 2.03501,8.994402 13.909357,21.901802 16.581247,33.711082 2.67188,11.80925 -10.490221,26.79204 -7.818335,38.60135 2.671895,11.8093 22.130845,20.25405 24.802735,32.06335 2.67188,11.80921 -3.9718,26.42392 -1.503,37.33554 2.4688,10.91171 6.79711,30.04208 6.79711,30.04208 0.99694,4.40623 -1.70179,8.6553 -6.05094,9.52699 -4.34915,0.87168 -8.65305,-1.97393 -9.64998,-6.38016 0,0 -4.32832,-19.13036 -6.79712,-30.04208 -2.46878,-10.91162 4.17489,-25.52633 1.503,-37.33553 -2.67188,-11.80931 -22.130838,-20.25405 -24.802729,-32.06336 -2.671891,-11.8093 10.490226,-26.7921 7.818336,-38.60135 C 86.681675,117.34744 74.807329,104.44004 72.772314,95.445631 70.7373,86.451225 68.577894,76.90702 68.577894,76.90702 67.580956,72.500731 70.279677,68.251691 74.62883,67.380015 Z"
           sodipodi:nodetypes="sszzzzzssszzzzzss" /><path
           id="path997"
           style="fill:#b6ee47;fill-opacity:1;stroke-width:1.83294"
           d="m 55.981209,54.009578 c 4.349159,-0.871676 8.653054,1.973873 9.649992,6.380162 0,0 5.245076,23.182326 7.897223,34.904345 2.652147,11.722035 13.909362,21.901805 16.581255,33.711095 2.671887,11.80932 -10.490222,26.79211 -7.818343,38.60132 2.671895,11.8093 22.130854,20.25405 24.802734,32.06335 2.6719,11.8093 -3.9718,26.42392 -1.503,37.33554 2.4688,10.91171 6.79711,30.04208 6.79711,30.04208 0.99695,4.40633 -1.70179,8.6553 -6.05093,9.52698 -4.34915,0.87169 -8.653048,-1.97382 -9.649986,-6.38015 0,0 -4.328319,-19.13037 -6.797118,-30.04208 -2.468791,-10.91162 4.174893,-25.52623 1.502997,-37.33554 -2.671885,-11.8093 -22.13084,-20.25405 -24.802731,-32.06335 -2.67188,-11.80921 10.490233,-26.792 7.818339,-38.60132 C 71.736864,120.34273 60.479646,110.16296 57.827499,98.440928 55.175352,86.718898 49.930278,63.536582 49.930278,63.536582 c -0.996939,-4.406299 1.701783,-8.655329 6.050931,-9.527004 z"
           sodipodi:nodetypes="sszzzzzssszzzzzss" /><path
           id="path999"
           style="fill:#a6e22e;fill-opacity:1;stroke-width:1.83294"
           d="m 47.651068,85.471688 c 4.349158,-0.871676 8.653054,1.973872 9.649992,6.380172 0,0 -0.128468,-0.567832 1.448965,6.404165 1.577438,6.972005 13.909364,21.901805 16.581252,33.711085 2.671888,11.80928 -10.490224,26.79207 -7.818333,38.60138 2.671879,11.8092 22.130846,20.25405 24.802721,32.06325 2.671896,11.8093 -3.971779,26.42402 -1.502987,37.33563 2.468789,10.91162 6.797108,30.04199 6.797108,30.04199 0.996938,4.40633 -1.701777,8.6554 -6.050938,9.52708 -4.349148,0.87169 -8.653051,-1.97392 -9.649981,-6.38015 0,0 -4.328321,-19.13047 -6.797114,-30.04208 -2.468792,-10.91162 4.174882,-25.52633 1.502991,-37.33564 -2.67188,-11.8092 -22.130835,-20.25395 -24.802725,-32.06325 -2.67189,-11.80931 10.490221,-26.7921 7.818334,-38.60137 -2.671888,-11.80928 -15.003815,-26.73909 -16.581253,-33.71108 -1.577438,-6.972009 -1.448965,-6.404178 -1.448965,-6.404178 -0.996937,-4.40629 1.701784,-8.65533 6.050933,-9.527004 z"
           sodipodi:nodetypes="sszzzzzssszzzzzss" /></g><path
         style="color:#000000;clip-rule:nonzero;fill:#ffb763;fill-opacity:1;fill-rule:nonzero;stroke-width:0.693262;stroke-linecap:round;stroke-linejoin:miter;-inkscape-stroke:none"
         d="m 290.59201,213.80768 c -3.21513,0.12378 -5.93081,-2.1712 -6.06596,-5.12627 -0.31296,-6.84281 -1.12011,-9.8496 -2.42079,-12.18154 -0.45549,-0.81664 -1.24174,-1.72895 -1.98995,-2.63777 -1.15988,2.60409 -2.73628,4.95159 -4.20877,7.10329 -2.76073,4.03415 -5.53642,7.13057 -5.53642,7.13057 -2.04245,2.28591 -5.71438,2.61719 -8.20148,0.73992 -2.48709,-1.87728 -2.8475,-5.25222 -0.80505,-7.53817 0,0 2.35788,-2.64635 4.67772,-6.03624 2.31976,-3.38989 4.0828,-7.8503 4.05909,-8.6195 v 0.0286 c -0.22786,-6.20345 2.11533,-11.93308 4.13392,-17.657 2.01852,-5.72392 3.82871,-11.36649 3.83167,-16.44327 0,-5.97375 -3.45434,-12.44082 -6.14087,-16.69509 -1.72718,2.43015 -2.98605,4.49227 -3.28232,5.98044 -2.52499,12.68483 -1.37833,8.44125 -2.14954,18.04643 -0.32592,4.05828 -2.67417,7.27191 -5.27798,9.67487 -2.60374,2.40297 -5.62261,4.20023 -8.50931,5.6546 -5.77346,2.90875 -11.303,4.44996 -11.303,4.44996 -3.07644,0.86995 -6.33757,-0.71739 -7.28349,-3.54517 -0.94554,-2.8272 0.78126,-5.82368 3.85713,-6.69309 0,0 4.59231,-1.31972 9.12801,-3.60488 2.26785,-1.14258 4.45008,-2.5259 5.85271,-3.82036 1.40264,-1.29446 1.86492,-2.29628 1.91373,-2.90389 0.567,-7.06111 0.5179,-8.62258 1.4957,-14.32603 -5.73274,2.99238 -11.97146,6.97173 -20.5807,14.5506 -2.32418,2.04543 -6.01223,1.97221 -8.23814,-0.16356 -2.22678,-2.136 -2.14773,-5.52682 0.17652,-7.57322 15.07689,-13.27249 25.27237,-17.54008 34.44702,-21.59809 0.3202,-0.43584 0.62058,-0.93628 0.93499,-1.35913 2.35361,-3.1655 4.54481,-6.06654 5.78069,-9.08552 1.23596,-3.01896 1.7245,-6.10134 0.47314,-10.55627 -0.69976,-2.49139 -2.10854,-5.47727 -4.29916,-8.89729 -1.95951,5.05031 -4.44126,10.27017 -7.15773,15.2788 -4.88394,9.00507 -9.84223,16.73039 -14.63471,21.06197 -2.29474,2.07423 -5.98453,2.04574 -8.24103,-0.0636 -2.25664,-2.10921 -2.22562,-5.50055 0.0695,-7.57452 1.25794,-1.13698 3.72313,-4.36995 6.44032,-8.44169 -3.33958,0.80966 -6.83348,1.5284 -10.61662,2.0407 -3.18404,0.43171 -6.14601,-1.59087 -6.61539,-4.51745 -0.46974,-2.92699 1.73165,-5.6496 4.91635,-6.08043 8.34342,-1.12981 15.29911,-3.1751 20.4112,-5.45726 3.59152,-7.224795 6.525,-14.640945 7.33424,-19.421145 2.02466,-11.9592 -1.66795,-34.714291 -1.66795,-34.714291 -0.51601,-2.919218 1.64011,-5.670345 4.81613,-6.145298 3.17658,-0.475012 6.17073,1.506863 6.6874,4.426613 0,0 0.35108,2.0403 0.78386,4.95234 0.74034,0.284663 2.72898,1.084088 6.41343,2.083433 4.2954,1.16511 9.69789,2.038245 12.74497,1.70187 8.50953,-0.939533 15.60131,-3.24741 21.98876,-6.577575 4.55349,-2.374013 13.53485,-5.684236 22.07779,-8.806433 8.54293,-3.122198 16.19252,-5.780543 16.19252,-5.780543 3.01049,-1.046535 6.37394,0.348338 7.5122,3.115485 1.1387,2.767013 -0.37899,5.858505 -3.38962,6.90471 0,0 -7.01173,2.463338 -14.34228,5.119756 5.15439,1.326885 10.06474,1.82343 14.74057,0.877522 3.14304,-0.635527 6.25159,1.191165 6.9431,4.080008 0.69153,2.888437 -1.2951,5.745382 -4.43756,6.38157 -11.18203,2.262022 -21.92563,-0.691823 -28.04077,-2.790278 -6.11505,-2.098455 -7.00305,-1.693162 -8.17176,-1.192357 1.53584,1.439737 1.8167,1.801627 4.28934,3.928065 3.65232,3.141075 8.07442,6.597585 11.90182,9.073883 0.97007,-0.640373 1.97889,-1.19634 3.00123,-1.556445 3.10219,-1.092796 6.32383,-1.305608 9.58416,-1.129351 6.52058,0.352463 13.24972,2.241158 18.42682,5.889548 2.55435,1.799768 3.03746,5.162033 1.07904,7.509593 -1.95814,2.347762 -5.61633,2.791807 -8.17046,0.99177 -2.44812,-1.725263 -7.72176,-3.430388 -11.89611,-3.682748 7.2957,6.967118 9.91744,15.393113 9.91744,15.393113 0.9854,2.815665 -0.69904,5.832515 -3.76246,6.738485 -3.06393,0.90656 -6.34719,-0.64184 -7.33287,-3.45817 0,0 -4.51797,-11.090988 -12.45262,-14.984163 -3.88185,-1.904655 -7.70752,-4.60068 -11.38067,-7.429177 -0.22446,1.58097 -0.43482,3.130237 -0.40257,4.433122 0.0808,3.261173 0.7749,5.55291 3.4772,8.366378 2.12944,2.217233 1.90057,5.601158 -0.51125,7.558913 -2.41254,1.958087 -6.09532,1.747732 -8.22548,-0.469898 -4.47359,-4.657507 -6.26678,-10.142948 -6.39224,-15.211335 -0.1149,-4.639695 0.86731,-8.988278 1.7668,-13.334266 -1.75653,-1.617997 -3.50988,-3.179692 -4.11694,-3.771082 -4.09198,1.547272 -8.46194,2.768407 -13.13625,3.608775 0.17282,2.39967 0.4761,5.48697 1.13414,8.91291 1.3852,7.212038 4.5709,15.032881 8.6266,18.103501 11.39499,8.627512 15.80479,7.660932 29.83287,10.387602 h 0.009 c 0.0557,0.0106 0.0869,0.014 0.1426,0.0246 5.08374,0.99371 18.27402,0.73077 29.34144,-0.0818 11.06742,-0.81258 20.46906,-1.95496 20.46906,-1.95496 3.19018,-0.38768 6.11838,1.67488 6.54061,4.60699 0.42259,2.93271 -1.82168,5.62489 -5.01245,6.0129 0,0 -5.54466,0.60183 -12.42579,1.2436 0.5902,0.5135 1.31716,1.11314 1.86998,1.57333 3.51364,2.92498 5.75784,4.31347 8.60541,4.25911 3.21752,-0.0618 5.88027,2.28576 5.94737,5.2431 0.0673,2.95733 -2.48688,5.40471 -5.70447,5.46637 -7.30459,0.13952 -12.65242,-3.6826 -16.67268,-7.02931 -4.02025,-3.34671 -7.35058,-6.44478 -10.89885,-7.28961 -3.54821,-0.84473 -6.64938,-0.60872 -9.65358,-0.57828 2.49614,2.27995 5.31276,4.67201 8.75937,7.06436 11.47952,7.96827 21.582,12.59174 21.582,12.59174 2.88142,1.31768 4.05504,4.53286 2.62131,7.18119 -1.43307,2.64815 -4.9303,3.72735 -7.81171,2.41061 0,0 -11.03416,-5.04138 -23.41519,-13.63544 -9.45905,-6.56573 -15.95194,-13.72338 -18.68533,-16.98972 -6.67288,-1.22578 -12.36579,-2.0502 -18.14156,-4.09821 1.81814,3.76264 3.77324,7.31177 5.00536,8.51564 2.03081,1.98422 4.15086,2.57762 7.99243,3.76845 3.84165,1.19084 9.13372,3.02877 13.88903,7.63035 2.8271,2.73579 5.64307,6.60509 8.39209,10.76269 7.64258,4.63751 12.03834,7.63477 17.77015,8.24565 3.19691,0.34088 5.48783,2.99925 5.11687,5.93759 -0.37089,2.93778 -3.26221,5.04324 -6.45862,4.70308 -2.08092,-0.22177 -3.98698,-0.64409 -5.80759,-1.17739 1.07449,1.94837 3.38681,5.97783 3.38681,5.97783 1.41493,2.65727 0.21787,5.86567 -2.67352,7.16562 -2.89111,1.30051 -6.38189,0.20024 -7.79617,-2.45735 0,0 -3.35556,-6.30377 -7.65914,-13.51989 -4.3035,-7.21612 -9.94448,-15.5739 -12.72097,-18.26063 -3.00615,-2.90898 -5.55124,-3.7379 -9.16323,-4.85756 -1.05604,-0.32734 -2.36915,-0.83865 -3.60149,-1.26956 -0.26734,4.35485 -0.0202,9.59365 0.59173,11.37022 2.11462,6.13802 5.3774,11.43706 9.9528,15.21005 4.69391,3.87073 19.11046,13.06556 19.11046,13.06556 2.65485,1.67218 3.33213,5.00595 1.51262,7.446 -1.81981,2.43975 -5.44683,3.06163 -8.10125,1.38899 0,0 -13.88209,-8.63189 -20.30382,-13.92751 -6.54041,-5.39335 -10.71143,-12.48883 -13.28169,-19.94948 -1.72045,-4.99315 -1.43496,-10.58681 -1.11288,-15.47357 0.23718,-3.59916 0.50611,-5.14769 0.70331,-6.53862 -3.43533,-4.20263 -5.72935,-9.43389 -7.66196,-14.21829 -1.73701,-4.30012 -2.75032,-7.41402 -3.23712,-8.95311 -7.09207,-6.268452 -9.75799,-15.485503 -11.24646,-23.235028 -0.72796,-3.790087 -1.08295,-7.223002 -1.28238,-9.93186 -4.00768,-0.31923 -7.85467,-1.173683 -11.15614,-2.06922 -0.7446,-0.201983 -1.1857,-0.375518 -1.86847,-0.578963 0.47653,6.122768 0.673,12.831008 -0.0819,18.977168 6.38898,7.538176 10.21023,14.122603 11.89474,20.119543 1.82305,6.49044 1.07274,12.30938 -0.85025,17.00664 -0.32056,0.783 -0.6981,1.49531 -1.06486,2.22108 1.79189,2.07174 10.99828,13.3059 10.99083,27.02292 0,5.25606 -1.29858,10.03813 -2.74987,14.5584 5.75617,-0.48408 15.43231,-0.6992 24.60023,2.51965 6.51791,2.28839 13.42176,6.05014 19.52141,10.17984 6.09958,4.1297 11.28436,8.38075 14.3861,12.87214 1.72522,2.4974 0.9209,5.80742 -1.79652,7.39278 -2.71712,1.58567 -6.3184,0.84638 -8.04325,-1.65121 -1.4858,-2.15141 -6.0591,-6.33351 -11.45834,-9.98901 -0.50155,-0.33958 -1.06732,-0.61524 -1.58327,-0.94893 -0.0846,0.49936 -0.23914,1.0929 -0.26271,1.53698 -0.11194,2.11026 0.0962,3.72787 2.43489,6.6866 1.89146,2.39313 1.31419,5.74247 -1.28947,7.48106 -2.60366,1.73849 -6.24776,1.20786 -8.13929,-1.18519 -3.69051,-4.66886 -4.85691,-9.54132 -4.64662,-13.50432 0.14911,-2.81021 0.67322,-4.97947 1.10724,-6.8995 -1.48153,-0.67298 -3.04904,-1.4939 -4.38811,-1.96405 -9.26395,-3.25255 -23.91978,-1.13671 -23.91978,-1.13671 -0.27298,0.29511 -0.57328,1.09137 1.51602,3.62466 2.08924,2.53327 5.1356,5.28546 7.46679,9.46513 2.3312,4.17966 3.34985,9.10887 3.69326,16.6185 0.13472,2.95511 -2.36221,5.45118 -5.57735,5.57541 z"
         id="path1003"
         sodipodi:nodetypes="ssscscscsccscccssscscssccccccssscsscscccccscsccsssscccccscccscssccsccccscsscsscccsscccscccccsscsccscccsccssscsscccccsssccscccscscscscsccsscccssccsscssssscsccscss" /></g><g
       transform="translate(-90.86744,-130.28385)"
       id="g12820"><path
         inkscape:connector-curvature="0"
         id="path106"
         style="fill:#f5748f;fill-opacity:1;fill-rule:evenodd;stroke:none;stroke-width:0.1"
         d="m 209.74484,195.92064 -32.1371,-3.9211 c -5.1992,-0.6351 -7.3808,22.7867 1.6551,30.9668 9.0363,8.1791 33.29,-10.6051 33.29,-10.6051 1.788,-4.5508 -0.214,-16.125 -2.808,-16.4406" /><path
         inkscape:connector-curvature="0"
         id="path108"
         style="fill:#f36082;fill-opacity:1;fill-rule:evenodd;stroke:none;stroke-width:0.1"
         d="m 200.67184,204.39134 c -2.905,-8.3238 -14.3598,-11.1289 -19.9543,-12.0129 l 29.0273,3.5422 c 0,0 -5.187,19.6047 -9.073,8.4707" /><path
         inkscape:connector-curvature="0"
         id="path110"
         style="fill:#f9b1bc;fill-opacity:1;fill-rule:evenodd;stroke:none;stroke-width:0.1"
         d="m 202.53384,175.37964 c 12.213,-31.7332 51.789,-15.3203 60.053,-14.4152 6.684,0.73 14.7,-4.586 29.61,-5.07 14.909,-0.4828 23.043,3.811 35.855,1.9731 12.812,-1.8379 32.711,-19.55 73.131,-7.5039 53.413,16.1179 -12.755,143.6078 -97.96,143.6078 -85.205,0 -112.9018,-86.861 -100.689,-118.5918 v 0" /><path
         inkscape:connector-curvature="0"
         id="path112"
         style="fill:#f8a2ad;fill-opacity:1;fill-rule:evenodd;stroke:none;stroke-width:0.1"
         d="m 316.59084,292.92844 -49.686,-4.971 c -10e-4,0 -10e-4,0 -0.002,-0.001 -2.588,-0.922 -5.092,-1.944 -7.52,-3.048 -0.167,-0.076 -0.337,-0.149 -0.504,-0.226 -0.649,-0.3 -1.289,-0.609 -1.927,-0.921 -0.257,-0.126 -0.516,-0.251 -0.771,-0.379 -0.598,-0.299 -1.189,-0.605 -1.777,-0.915 -0.284,-0.15 -0.568,-0.301 -0.85,-0.454 -0.564,-0.305 -1.126,-0.613 -1.681,-0.928 -0.294,-0.166 -0.584,-0.336 -0.875,-0.506 -0.543,-0.315 -1.084,-0.63 -1.618,-0.955 -0.28,-0.17 -0.554,-0.346 -0.832,-0.518 -1.734,-1.078 -3.416,-2.204 -5.051,-3.371 -0.372,-0.266 -0.746,-0.529 -1.113,-0.799 -0.382,-0.281 -0.757,-0.569 -1.134,-0.855 -0.393,-0.298 -0.785,-0.596 -1.172,-0.9 -0.355,-0.277 -0.705,-0.559 -1.054,-0.841 -0.403,-0.325 -0.803,-0.652 -1.199,-0.982 -0.327,-0.271 -0.65,-0.544 -0.972,-0.819 -0.419,-0.359 -0.834,-0.721 -1.246,-1.086 -0.289,-0.256 -0.58,-0.512 -0.866,-0.771 -0.459,-0.416 -0.91,-0.837 -1.36,-1.261 -0.23,-0.216 -0.464,-0.43 -0.691,-0.649 -0.669,-0.641 -1.328,-1.288 -1.974,-1.943 -0.006,-0.005 -0.011,-0.01 -0.016,-0.016 l 0.034,-0.449 c 0,0 39.746,-14.25 116.531,-10.087 18.09,0.981 35.009,-8.938 43.06,-25.169 13.517,-27.2511 27.292,-67.0038 1.808,-81.0171 2.901,0.5981 5.906,1.3359 9.05,2.2723 50.582,15.2636 -6.08,130.4058 -84.592,142.5648" /><path
         inkscape:connector-curvature="0"
         id="path114"
         style="fill:#a7505d;fill-opacity:1;fill-rule:nonzero;stroke:none;stroke-width:0.1"
         d="m 222.61184,173.54134 c 0.851,0.577 27.385,22.2082 51.279,22.6492 16.208,0.302 29.8,2.025 49.476,-6.114 19.675,-8.1391 41.837,-24.0832 42.413,-24.4371 0.577,-0.3508 0.96,-2.3571 0.543,-3.252 -0.417,-0.8941 -1.764,-0.625 -2.249,-0.3059 -0.484,0.32 -24.625,14.6391 -41.328,21.5481 -16.703,6.9078 -31.04,6.0969 -49.476,6.1137 -23.898,0.0273 -48.053,-19.8188 -48.824,-19.9567 -0.772,-0.1621 -2.613,-0.691 -3.088,0.4227 -0.396,0.9242 0.402,2.757 1.254,3.332 v 0" /><path
         inkscape:connector-curvature="0"
         id="path116"
         style="fill:#593016;fill-opacity:1;fill-rule:nonzero;stroke:none;stroke-width:0.1"
         d="m 331.49684,188.57334 c -3.795,0.1762 -9.378,4.1539 -13.295,8.0711 -3.917,3.918 -8.785,9.3782 -18.993,9.3782 -10.209,0 -17.45,-9.3782 -17.45,-9.3782 0,0 -7.241,9.3782 -17.45,9.3782 -10.208,0 -15.075,-5.4602 -18.992,-9.3782 -3.918,-3.9172 -9.501,-7.8949 -13.296,-8.0711 -5.104,-0.2379 -14.837,10.5641 -14.837,10.5641 0,0 1.661,-15.1941 8.665,-21.9602 7.003,-6.7656 17.331,-13.5328 31.219,-10.5648 13.889,2.968 24.691,14.2449 24.691,14.2449 0,0 10.802,-11.2769 24.691,-14.2449 13.889,-2.968 24.216,3.7992 31.22,10.5648 7.003,6.7661 8.665,21.9602 8.665,21.9602 0,0 -9.734,-10.802 -14.838,-10.5641" /><path
         inkscape:connector-curvature="0"
         id="path118"
         style="fill:#3f2114;fill-opacity:1;fill-rule:nonzero;stroke:none;stroke-width:0.1"
         d="m 281.75884,185.95934 c 0,0 -30.934,-33.0129 -58.949,-4.8571 0.88,-1.4648 1.886,-2.8109 3.039,-3.925 7.003,-6.7656 17.331,-13.5328 31.219,-10.5648 13.889,2.968 24.691,14.2449 24.691,14.2449 0,0 10.802,-11.2769 24.691,-14.2449 13.889,-2.968 24.216,3.7992 31.22,10.5648 1.153,1.1141 2.159,2.4602 3.039,3.925 -28.015,-28.1558 -58.95,4.8571 -58.95,4.8571" /><path
         inkscape:connector-curvature="0"
         id="path120"
         style="fill:#ffffff;fill-opacity:1;fill-rule:nonzero;stroke:none;stroke-width:0.1"
         d="m 261.89484,222.77454 c 0.144,-11.5031 -8.915,-20.9473 -20.232,-21.0949 v 0 c -11.318,-0.1461 -20.61,9.0598 -20.753,20.5629 -0.144,11.5029 8.914,20.9469 20.232,21.0939 v 0 c 11.318,0.147 20.609,-9.059 20.753,-20.5619" /><path
         inkscape:connector-curvature="0"
         id="path122"
         style="fill:#040606;fill-opacity:1;fill-rule:nonzero;stroke:none;stroke-width:0.1"
         d="m 242.33284,206.05344 c -8.835,-0.541 -16.43,6.2961 -16.968,15.277 -0.538,8.979 6.184,16.704 15.019,17.259 8.835,0.553 16.44,-6.271 16.994,-15.2758 0.525,-9.0071 -6.209,-16.7203 -15.045,-17.2602" /><path
         inkscape:connector-curvature="0"
         id="path124"
         style="fill:#ffffff;fill-opacity:1;fill-rule:nonzero;stroke:none;stroke-width:0.1"
         d="m 244.08984,232.85544 c 1.542,2.114 7.146,0.238 9.11,-3.276 1.963,-3.512 1.945,-8.9068 -1.308,-9.9959 -3.254,-1.0879 -3.016,3.15 -4.721,6.1379 -1.706,2.988 -4.623,5.021 -3.081,7.133 v 10e-4" /><path
         inkscape:connector-curvature="0"
         id="path126"
         style="fill:#ffffff;fill-opacity:1;fill-rule:nonzero;stroke:none;stroke-width:0.1"
         d="m 251.54184,218.49254 c 1.148,-0.0672 1.985,-1.2512 1.871,-2.643 -0.115,-1.391 -1.139,-2.4633 -2.287,-2.3961 -1.148,0.0672 -1.985,1.2512 -1.87,2.6422 0.115,1.3918 1.138,2.4637 2.286,2.3969" /><path
         inkscape:connector-curvature="0"
         id="path128"
         style="fill:#ffffff;fill-opacity:1;fill-rule:nonzero;stroke:none;stroke-width:0.1"
         d="m 351.26884,222.97534 c 0.144,-11.5027 -8.915,-20.9469 -20.232,-21.093 v 0 c -11.318,-0.148 -20.609,9.0582 -20.753,20.561 -0.144,11.5031 8.914,20.9471 20.233,21.0951 v 0 c 11.317,0.146 20.609,-9.06 20.752,-20.5631 v 0" /><path
         inkscape:connector-curvature="0"
         id="path130"
         style="fill:#040606;fill-opacity:1;fill-rule:nonzero;stroke:none;stroke-width:0.1"
         d="m 331.70784,206.25464 c -8.836,-0.5402 -16.431,6.2976 -16.968,15.2769 -0.538,8.9799 6.184,16.7049 15.019,17.2599 8.834,0.554 16.44,-6.272 16.994,-15.277 0.525,-9.0059 -6.21,-16.72 -15.045,-17.2598" /><path
         inkscape:connector-curvature="0"
         id="path132"
         style="fill:#ffffff;fill-opacity:1;fill-rule:nonzero;stroke:none;stroke-width:0.1"
         d="m 333.46384,233.05644 c 1.542,2.114 7.146,0.238 9.11,-3.275 1.963,-3.512 1.945,-8.9081 -1.307,-9.9971 -3.254,-1.0879 -3.016,3.1511 -4.721,6.1391 -1.706,2.987 -4.624,5.02 -3.082,7.133 v 0" /><path
         inkscape:connector-curvature="0"
         id="path134"
         style="fill:#ffffff;fill-opacity:1;fill-rule:nonzero;stroke:none;stroke-width:0.1"
         d="m 340.91684,218.69444 c 1.147,-0.0679 1.985,-1.2511 1.87,-2.6422 -0.115,-1.3918 -1.139,-2.4648 -2.286,-2.3976 -1.148,0.068 -1.985,1.2508 -1.871,2.643 0.115,1.391 1.138,2.4648 2.287,2.3968" /><path
         inkscape:connector-curvature="0"
         id="path136"
         style="fill:#f9b1bc;fill-opacity:1;fill-rule:nonzero;stroke:none;stroke-width:0.1"
         d="m 308.23684,224.38354 c 0.931,-14.6629 -10.819,-27.3563 -26.252,-28.359 -15.434,-1.0031 -28.713,10.0641 -29.669,24.725 -0.956,14.6609 10.773,27.3719 26.204,28.3979 15.433,1.027 28.73,-10.019 29.711,-24.678" /><path
         inkscape:connector-curvature="0"
         id="path138"
         style="fill:#a7505d;fill-opacity:1;fill-rule:nonzero;stroke:none;stroke-width:0.1"
         d="m 305.90384,214.97534 c -3.283,-9.7758 -12.592,-17.157 -23.992,-17.8949 -14.82,-0.9621 -27.57,9.6672 -28.485,23.7449 -0.418,6.4221 1.7,12.4541 5.533,17.2091 0,0 2.414,2.726 0.954,3.884 -1.459,1.159 -3.539,-2.09 -3.539,-2.09 -4.266,-5.316 -6.621,-12.052 -6.153,-19.2211 1.031,-15.7551 15.302,-27.6457 31.888,-26.5687 12.777,0.8277 23.206,9.1109 26.868,20.0758 0,0 0.86,2.246 -0.648,2.7851 -1.507,0.5391 -2.426,-1.9242 -2.426,-1.9242 v 0" /><path
         inkscape:connector-curvature="0"
         id="path140"
         style="fill:#040606;fill-opacity:1;fill-rule:nonzero;stroke:none;stroke-width:0.1"
         d="m 235.34184,252.34944 c -0.741,-1.296 -1.505,-2.165 -2.205,-3.045 -0.682,-0.903 -1.396,-1.586 -2.032,-2.317 -1.338,-1.356 -2.564,-2.535 -3.925,-3.588 -1.355,-1.067 -2.696,-2.165 -4.248,-3.301 -1.573,-1.139 -3.213,-2.367 -5.408,-3.777 l -0.08,-0.052 c -0.279,-0.178 -0.649,-0.097 -0.828,0.181 -0.024,0.038 -0.045,0.08 -0.06,0.121 -0.958,2.668 -0.638,5.274 0.148,7.675 0.821,2.392 2.25,4.582 4.118,6.304 1.857,1.717 4.1,3.079 6.599,3.582 2.458,0.574 5.104,0.453 7.671,-0.814 0.325,-0.161 0.459,-0.555 0.299,-0.881 -0.006,-0.01 -0.012,-0.022 -0.018,-0.033 l -0.031,-0.055" /><path
         inkscape:connector-curvature="0"
         id="path142"
         style="fill:#040606;fill-opacity:1;fill-rule:nonzero;stroke:none;stroke-width:0.1"
         d="m 340.83384,253.31844 c 2.567,1.267 5.212,1.388 7.67,0.814 2.499,-0.503 4.743,-1.865 6.599,-3.582 1.869,-1.722 3.297,-3.912 4.119,-6.304 0.786,-2.401 1.106,-5.007 0.147,-7.675 -0.111,-0.311 -0.455,-0.474 -0.767,-0.361 -0.042,0.015 -0.082,0.035 -0.118,0.057 l -0.083,0.054 c -2.195,1.41 -3.834,2.638 -5.408,3.777 -1.552,1.136 -2.892,2.234 -4.247,3.301 -1.362,1.053 -2.587,2.232 -3.925,3.588 -0.637,0.731 -1.35,1.414 -2.033,2.317 -0.699,0.88 -1.464,1.749 -2.204,3.045 l -0.03,0.054 c -0.18,0.315 -0.071,0.717 0.245,0.897 0.01,0.005 0.023,0.012 0.035,0.018" /><path
         inkscape:connector-curvature="0"
         id="path144"
         style="fill:#a5dff2;fill-opacity:1;fill-rule:nonzero;stroke:none;stroke-width:0.1"
         d="m 379.08284,287.95044 c 27.606,4.324 46.252,20.988 41.645,37.22 -4.606,16.231 -30.719,25.884 -58.327,21.56 -5.71,-0.894 -11.007,-2.341 -15.824,-4.179 -4.713,8.065 -11.76,15.895 -20.994,22.715 -29.128,21.514 -68.802,24.863 -88.615,7.48 -8.64,-7.58 -12.07,-17.852 -10.784,-28.808 -13.21,0.699 -24.758,-3.042 -30.081,-10.847 -8.5396,-12.522 2.172,-30.753 23.926,-40.72 5.863,-2.686 11.927,-4.496 17.826,-5.461 -0.775,-15.457 -7.121,-22.546 -7.121,-22.546 0,0 24.456,-6.459 73.177,-7.935 48.72,-1.476 75.391,3.22 75.391,3.22 0,0 -6.605,11.743 -6.33,27.574 2.023,0.17 4.061,0.406 6.111,0.727" /><path
         inkscape:connector-curvature="0"
         id="path146"
         style="fill:#d0f0f7;fill-opacity:1;fill-rule:nonzero;stroke:none;stroke-width:0.1"
         d="m 322.31684,298.22744 c -21.743,16.839 -54.884,10.456 -74.022,-14.256 -4.559,-5.887 -7.909,-14.446 -10.077,-21.211 10.616,-2.013 32.526,-5.326 65.693,-6.331 14.175,-0.43 26.469,-0.334 36.798,0.013 -0.001,17.704 -6.813,32.818 -18.392,41.785" /><path
         inkscape:connector-curvature="0"
         id="path148"
         style="fill:#d0f0f7;fill-opacity:1;fill-rule:nonzero;stroke:none;stroke-width:0.1"
         d="m 235.14984,371.02244 c -0.311,-0.315 -0.613,-0.633 -0.908,-0.956 -0.144,-0.158 -0.29,-0.315 -0.43,-0.475 -0.324,-0.368 -0.635,-0.741 -0.939,-1.118 -0.148,-0.186 -0.295,-0.373 -0.439,-0.561 -0.274,-0.357 -0.541,-0.716 -0.797,-1.08 -0.167,-0.239 -0.328,-0.481 -0.487,-0.722 -0.155,-0.233 -0.306,-0.468 -0.453,-0.704 -0.175,-0.28 -0.348,-0.56 -0.513,-0.844 -0.093,-0.161 -0.181,-0.325 -0.271,-0.488 -0.637,-1.144 -1.2,-2.318 -1.681,-3.521 -0.018,-0.043 -0.035,-0.087 -0.052,-0.131 -1.069,-2.708 -1.75,-5.553 -2.053,-8.49 -0.006,0 -0.013,0.001 -0.02,0.002 -0.269,-2.603 -0.242,-5.278 0.077,-7.996 -13.21,0.699 -24.758,-3.042 -30.081,-10.847 -6.1162,-8.968 -2.354,-20.865 8.265,-30.556 3.418,-0.538 7.003,-0.826 10.7,-0.826 22.337,0 40.621,10.443 42.213,23.68 8.009,-2.325 16.93,-3.627 26.341,-3.627 16.296,0 31.136,3.892 42.283,10.271 2.122,-19.761 23.525,-35.291 49.632,-35.291 19.719,0 36.758,8.859 44.833,21.709 0.425,1.372 0.711,2.759 0.88,4.154 -0.115,0.855 -0.279,1.71 -0.522,2.565 -4.606,16.231 -30.719,25.884 -58.327,21.56 -5.71,-0.894 -11.007,-2.341 -15.824,-4.179 -2.496,4.271 -5.652,8.474 -9.435,12.498 -0.336,0.357 -0.675,0.713 -1.02,1.067 -0.112,0.115 -0.227,0.229 -0.34,0.343 -0.332,0.337 -0.667,0.672 -1.008,1.006 -0.135,0.133 -0.274,0.264 -0.412,0.397 -0.326,0.314 -0.653,0.628 -0.987,0.939 -0.164,0.154 -0.332,0.304 -0.497,0.456 -0.316,0.29 -0.63,0.579 -0.952,0.866 -0.2,0.178 -0.407,0.354 -0.61,0.532 -0.297,0.259 -0.592,0.52 -0.896,0.777 -0.245,0.209 -0.497,0.416 -0.747,0.623 -0.269,0.224 -0.535,0.448 -0.809,0.67 -0.319,0.26 -0.647,0.516 -0.972,0.772 -0.214,0.169 -0.424,0.34 -0.641,0.507 -0.548,0.424 -1.104,0.846 -1.668,1.262 -29.128,21.514 -68.802,24.863 -88.615,7.48 -0.485,-0.426 -0.948,-0.862 -1.399,-1.304 -0.142,-0.139 -0.28,-0.28 -0.419,-0.42" /><path
         inkscape:connector-curvature="0"
         id="path150"
         style="fill:#f5748f;fill-opacity:1;fill-rule:evenodd;stroke:none;stroke-width:0.1"
         d="m 387.21884,197.71634 29.47,-31.0359 c 4.769,-5.0211 24.263,15.0371 21.441,31.2859 -2.822,16.2492 -41.852,16.5602 -41.852,16.5602 -5.321,-3.343 -11.439,-14.3051 -9.059,-16.8102 v 0" /><path
         inkscape:connector-curvature="0"
         id="path152"
         style="fill:#f36082;fill-opacity:1;fill-rule:evenodd;stroke:none;stroke-width:0.1"
         d="m 430.37484,207.42264 v 0 c 12.044,-11.802 1.02,-29.3891 -6.066,-35.5903 -6.385,-5.5867 -31.374,19.9051 -36.256,25.0051 l 28.636,-30.157 c 4.769,-5.0211 24.263,15.0371 21.441,31.2859 -0.707,4.0699 -3.687,7.1402 -7.755,9.4563" /><path
         inkscape:connector-curvature="0"
         id="path154"
         style="fill:#5f6263;fill-opacity:1;fill-rule:nonzero;stroke:none;stroke-width:0.1"
         d="m 207.39384,255.63544 -0.079,0.009 c -2.042,0.231 -4.23,0.13 -6.328,-0.439 -2.1,-0.558 -4.059,-1.571 -5.697,-2.828 -3.297,-2.547 -5.368,-5.814 -6.9418,-9.025 -1.5625,-3.243 -2.6446,-6.551 -3.4926,-9.863 -0.8531,-3.311 -1.4621,-6.633 -1.9403,-9.952 -0.9457,-6.6391 -1.3617,-13.2699 -1.5046,-19.8828 -0.1055,-5.5543 -0.0231,-11.0711 0.2753,-16.6184 0.0516,-0.9609 -0.7265,-1.7609 -1.689,-1.725 l -36.1977,1.3653 c -0.9547,0.0359 -1.8004,-0.6629 -1.8996,-1.6129 -0.0363,-0.35 -0.0621,-0.7043 -0.0758,-1.0602 -0.3906,-10.3711 9.07,-19.1469 21.1305,-19.6012 12.0613,-0.4546 22.1551,7.5844 22.5453,17.9551 0.0106,0.2801 -0.002,0.6403 -0.0258,1.0063 -0.0961,1.5207 -0.1718,3.0418 -0.1582,4.566 0.0477,5.1617 0.2844,10.3547 0.6875,15.4969 0.5203,6.45 1.3114,12.8718 2.584,19.1289 0.6399,3.125 1.3996,6.212 2.3571,9.187 0.9487,2.975 2.1017,5.85 3.5397,8.424 1.428,2.564 3.203,4.823 5.216,6.153 2.01,1.338 4.133,1.751 6.538,1.326 0.078,-0.013 0.169,-0.027 0.249,-0.036 2.649,-0.3 4.989,2.035 4.402,4.919 -0.342,1.681 -1.791,2.914 -3.495,3.107" /><path
         inkscape:connector-curvature="0"
         id="path156"
         style="fill:#75797b;fill-opacity:1;fill-rule:nonzero;stroke:none;stroke-width:0.1"
         d="m 209.42184,254.72944 c -0.008,0.037 -0.023,0.071 -0.032,0.108 -0.573,0.426 -1.257,0.715 -1.996,0.798 l -0.079,0.009 c -2.042,0.231 -4.23,0.13 -6.328,-0.439 -2.1,-0.558 -4.059,-1.571 -5.697,-2.828 -3.297,-2.547 -5.368,-5.814 -6.9418,-9.025 -1.5625,-3.243 -2.6446,-6.551 -3.4926,-9.863 -0.8531,-3.311 -1.4621,-6.633 -1.9403,-9.952 -0.9457,-6.6391 -1.3617,-13.2699 -1.5046,-19.8828 -0.1055,-5.5543 -0.0231,-11.0711 0.2753,-16.6184 0.0516,-0.9609 -0.7265,-1.7609 -1.689,-1.725 l -36.1977,1.3653 c -0.9547,0.0359 -1.8004,-0.6629 -1.8996,-1.6129 -0.0363,-0.35 -0.0621,-0.7043 -0.0758,-1.0602 -0.1195,-3.1762 0.6887,-6.2012 2.2086,-8.8851 3.7844,-4.8977 10.1383,-8.2387 17.4547,-8.5149 12.0606,-0.4551 22.1543,7.584 22.5449,17.9551 0.011,0.2809 -0.002,0.6398 -0.0253,1.0059 -0.0965,1.521 -0.1723,3.0421 -0.1583,4.566 0.0469,5.1621 0.284,10.355 0.6875,15.4968 0.52,6.45 1.3106,12.8723 2.584,19.1302 0.6391,3.125 1.3996,6.212 2.3571,9.186 0.9488,2.975 2.1019,5.85 3.5389,8.424 1.429,2.564 3.204,4.823 5.217,6.153 2.01,1.338 4.133,1.751 6.538,1.326 0.078,-0.013 0.169,-0.027 0.248,-0.036 2.649,-0.299 4.989,2.035 4.403,4.919" /><path
         inkscape:connector-curvature="0"
         id="path158"
         style="fill:#bd8f56;fill-opacity:1;fill-rule:nonzero;stroke:none;stroke-width:0.1"
         d="m 147.00894,186.55464 c 0,0 -2.3102,-5.4141 2.468,-5.5024 4.7777,-0.0898 2.8668,4.5512 5.1871,4.1411 2.3207,-0.409 -3.2762,-8.736 3.959,-7.7797 7.2347,0.9547 0.6882,8.6258 4.2347,8.5437 l -15.8488,0.5973" /><path
         inkscape:connector-curvature="0"
         id="path160"
         style="fill:#bd8f56;fill-opacity:1;fill-rule:nonzero;stroke:none;stroke-width:0.1"
         d="m 169.54724,185.70544 c 0,0 -2.734,-4.5649 3.1359,-4.6532 5.8699,-0.0898 2.9793,4.4231 2.9793,4.4231 l -6.1152,0.2301" /><path
         inkscape:connector-curvature="0"
         id="path162"
         style="fill:#d7b890;fill-opacity:1;fill-rule:nonzero;stroke:none;stroke-width:0.1"
         d="m 174.28664,181.78944 c -0.1621,0 -0.3101,0.1082 -0.3539,0.2718 -0.0519,0.1961 0.0641,0.3981 0.2598,0.45 0.2906,0.0774 0.4871,0.2203 0.6008,0.4383 0.2363,0.4539 0.0699,1.1527 -0.0145,1.3848 -0.0691,0.189 0.0285,0.4 0.2184,0.4703 0.1898,0.068 0.4004,-0.0281 0.4703,-0.2172 0.0172,-0.0461 0.4117,-1.1371 -0.0219,-1.973 -0.2109,-0.4071 -0.5687,-0.6809 -1.064,-0.8122 -0.0313,-0.008 -0.0633,-0.0128 -0.095,-0.0128" /><path
         inkscape:connector-curvature="0"
         id="path164"
         style="fill:#d7b890;fill-opacity:1;fill-rule:nonzero;stroke:none;stroke-width:0.1"
         d="m 159.06594,177.83154 c -0.1824,0 -0.3402,0.136 -0.3636,0.3207 -0.0247,0.2012 0.1175,0.3852 0.3183,0.409 0.6914,0.0871 1.1817,0.3801 1.4988,0.8953 1.0598,1.7258 -0.182,5.2368 -0.1945,5.2719 -0.0683,0.191 0.0309,0.4012 0.2211,0.4699 0.1902,0.0661 0.4012,-0.03 0.4699,-0.2218 0.0567,-0.1582 1.3711,-3.8809 0.1285,-5.9039 -0.4351,-0.7071 -1.1187,-1.1243 -2.0324,-1.2383 -0.0156,-0.002 -0.0312,-0.003 -0.0461,-0.003" /><path
         inkscape:connector-curvature="0"
         id="path166"
         style="fill:#d7b890;fill-opacity:1;fill-rule:nonzero;stroke:none;stroke-width:0.1"
         d="m 149.44214,181.38044 c -0.1965,0 -0.359,0.155 -0.366,0.3531 -0.007,0.2027 0.1504,0.373 0.3527,0.3809 1.0117,0.0371 1.7375,0.3269 2.0988,0.839 0.2457,0.3481 0.2442,0.6871 0.2442,0.691 -0.008,0.202 0.1504,0.3719 0.3523,0.3801 0.2012,0.004 0.3727,-0.15 0.3809,-0.3519 0.002,-0.059 0.0109,-0.5922 -0.3781,-1.143 -0.3473,-0.4922 -1.093,-1.091 -2.6707,-1.1492 -0.005,0 -0.01,0 -0.0141,0" /></g></g></svg>
