<?xml version="1.0" encoding="UTF-8" standalone="no"?>
<!-- Created with Inkscape (http://www.inkscape.org/) -->

<svg
   version="1.1"
   id="svg2"
   xml:space="preserve"
   width="542.85333"
   height="345.97333"
   viewBox="0 0 542.85333 345.97333"
   sodipodi:docname="Blobgangsta.svg"
   inkscape:version="1.1 (1:1.1+202105261517+ce6663b3b7)"
   inkscape:export-filename="/home/ash/src/go/benthos/website/static/img/Blobgangsta.png"
   inkscape:export-xdpi="96"
   inkscape:export-ydpi="96"
   xmlns:inkscape="http://www.inkscape.org/namespaces/inkscape"
   xmlns:sodipodi="http://sodipodi.sourceforge.net/DTD/sodipodi-0.dtd"
   xmlns="http://www.w3.org/2000/svg"
   xmlns:svg="http://www.w3.org/2000/svg"
   xmlns:rdf="http://www.w3.org/1999/02/22-rdf-syntax-ns#"
   xmlns:cc="http://creativecommons.org/ns#"
   xmlns:dc="http://purl.org/dc/elements/1.1/"><metadata
     id="metadata8"><rdf:RDF><cc:Work
         rdf:about=""><dc:format>image/svg+xml</dc:format><dc:type
           rdf:resource="http://purl.org/dc/dcmitype/StillImage" /></cc:Work></rdf:RDF></metadata><defs
     id="defs6"><linearGradient
       gradientTransform="matrix(0.75000002,0,0,-0.75000002,-4.51501,259.20976)"
       y1="290.63699"
       id="LinearGradient_2-7"
       x1="72.241203"
       y2="88.023102"
       x2="554.89301"
       gradientUnits="userSpaceOnUse"><stop
         stop-color="#ffc075"
         offset="0.00603622"
         id="stop1197-9" /><stop
         stop-color="#fd971f"
         offset="1"
         id="stop1199-3" /></linearGradient></defs><sodipodi:namedview
     pagecolor="#ffffff"
     bordercolor="#666666"
     borderopacity="1"
     objecttolerance="10"
     gridtolerance="10"
     guidetolerance="10"
     inkscape:pageopacity="0"
     inkscape:pageshadow="2"
     inkscape:window-width="1920"
     inkscape:window-height="1016"
     id="namedview4"
     showgrid="false"
     inkscape:zoom="1.9293649"
     inkscape:cx="262.52162"
     inkscape:cy="238.93873"
     inkscape:window-x="1280"
     inkscape:window-y="27"
     inkscape:window-maximized="1"
     inkscape:current-layer="g10"
     inkscape:pagecheckerboard="0"
     height="720px" /><g
     id="g10"
     inkscape:groupmode="layer"
     inkscape:label="ink_ext_XXXXXX"
     transform="matrix(1.3333333,0,0,-1.3333333,0,345.97333)"><path
       inkscape:connector-curvature="0"
       id="path28861"
       style="fill:#040606;fill-opacity:1;fill-rule:nonzero;stroke:none;stroke-width:0.1"
       d="m 154.01486,135.15758 c -0.741,-1.297 -1.505,-2.165 -2.205,-3.045 -0.683,-0.904 -1.396,-1.587 -2.032,-2.318 -1.338,-1.356 -2.564,-2.535 -3.925,-3.588 -1.355,-1.067 -2.696,-2.165 -4.248,-3.3 -1.573,-1.14 -3.213,-2.367 -5.408,-3.778 l -0.08,-0.051 c -0.279,-0.179 -0.649,-0.098 -0.828,0.18 -0.024,0.038 -0.045,0.08 -0.06,0.121 -0.958,2.668 -0.638,5.275 0.148,7.674 0.821,2.394 2.25,4.583 4.118,6.305 1.857,1.718 4.1,3.079 6.6,3.582 2.458,0.574 5.103,0.453 7.67,-0.814 0.325,-0.161 0.459,-0.554 0.299,-0.88 -0.006,-0.011 -0.012,-0.023 -0.018,-0.034 l -0.031,-0.054" /><path
       inkscape:connector-curvature="0"
       id="path28863"
       style="fill:#040606;fill-opacity:1;fill-rule:nonzero;stroke:none;stroke-width:0.1"
       d="m 259.50686,136.12558 c 2.567,1.267 5.212,1.388 7.67,0.814 2.499,-0.503 4.743,-1.864 6.599,-3.582 1.869,-1.722 3.297,-3.911 4.119,-6.305 0.786,-2.399 1.106,-5.006 0.147,-7.674 -0.111,-0.311 -0.455,-0.473 -0.767,-0.361 -0.042,0.016 -0.082,0.035 -0.118,0.058 l -0.083,0.053 c -2.195,1.411 -3.834,2.638 -5.407,3.778 -1.553,1.135 -2.894,2.233 -4.248,3.3 -1.362,1.053 -2.587,2.232 -3.925,3.588 -0.637,0.731 -1.349,1.414 -2.033,2.318 -0.699,0.88 -1.464,1.748 -2.204,3.045 l -0.03,0.052 c -0.18,0.316 -0.071,0.718 0.245,0.898 0.01,0.006 0.023,0.013 0.035,0.018" /><path
       inkscape:connector-curvature="0"
       id="path28865"
       style="fill:#f5748f;fill-opacity:1;fill-rule:evenodd;stroke:none;stroke-width:0.1"
       d="m 126.84786,74.511577 -29.6566,-12.9828 c -4.7984,-2.1012 -13.6136,19.7078 -7.3066,30.1378 6.3066,10.430093 34.9332,-0.5992 34.9332,-0.5992 3.019,-3.8457 4.425,-15.5066 2.03,-16.5558" /><path
       inkscape:connector-curvature="0"
       id="path28867"
       style="fill:#f36082;fill-opacity:1;fill-rule:evenodd;stroke:none;stroke-width:0.1"
       d="m 115.72566,80.022477 c -1.007,-8.7598 -10.5598,-14.784 -15.6648,-17.2379 l 26.788,11.727 c 0,0 -7.6267,35.937003 -11.1232,5.5109" /><path
       inkscape:connector-curvature="0"
       id="path28869"
       style="fill:#f9b1bc;fill-opacity:1;fill-rule:evenodd;stroke:none;stroke-width:0.1"
       d="m 126.55228,59.061217 c 12.2126,-31.7321 47.40664,-11.589719 55.66964,-10.685419 6.684,0.7301 13.80666,-6.716165 28.71666,-7.200165 14.909,-0.4832 24.07377,4.841673 36.88577,3.003473 12.812,-1.8379 30.29955,-19.944797 70.71955,-7.898697 53.413,16.1191 -11.44304,140.498171 -96.64804,140.498171 -85.205,0 -107.55648,-85.986563 -95.34358,-117.717363 v 0"
       sodipodi:nodetypes="cccccscc" /><path
       inkscape:connector-curvature="0"
       id="path28871"
       style="fill:#2f3031;fill-opacity:1;fill-rule:evenodd;stroke:none;stroke-width:0.1"
       d="m 291.13786,85.107677 c -15.256,-30.4211 -73.675,1.2699 -94.511,-0.6219 -20.838,-1.8934 -52.88,-17.9024 -63.628,3.5457 -10.7486,21.448103 8.611,59.214103 39.023,55.399103 12.626,-1.584 21.687,-9.217 33.907,-10.421 17.721,-1.747 33.439,14.567 53.453,8.467 21.058,-6.418 43.418,-33.115 31.756,-56.368903 z m -69.242,91.670903 c -85.205,0 -112.9015,-86.861203 -100.6886,-118.592003 v 0 c 12.2126,-31.7321 51.7896,-15.3192 60.0526,-14.4149 6.684,0.7301 14.7,-4.5859 29.61,-5.0691 14.909,-0.484 23.043,3.8101 35.855,1.9719 12.812,-1.8379 32.711,-19.55 73.131,-7.5039 53.7729,16.210345 -11.6632,143.884803 -97.96,143.608003"
       sodipodi:nodetypes="ccccccccssccccc" /><path
       inkscape:connector-curvature="0"
       id="path28873"
       style="fill:#ffffff;fill-opacity:1;fill-rule:nonzero;stroke:none;stroke-width:0.1"
       d="m 180.56786,105.58147 c 0.144,-11.501996 -8.915,-20.946893 -20.233,-21.093793 v 0 c -11.317,-0.1472 -20.609,9.058997 -20.752,20.561793 -0.144,11.50311 8.914,20.94811 20.232,21.09411 v 0 c 11.318,0.147 20.609,-9.059 20.753,-20.56211" /><path
       inkscape:connector-curvature="0"
       id="path28875"
       style="fill:#040606;fill-opacity:1;fill-rule:nonzero;stroke:none;stroke-width:0.1"
       d="m 161.00586,88.860777 c -8.835,-0.5402 -16.43,6.296897 -16.968,15.276893 -0.538,8.97991 6.185,16.70391 15.019,17.25891 8.835,0.554 16.441,-6.271 16.994,-15.27491 0.526,-9.006996 -6.209,-16.721093 -15.045,-17.260893" /><path
       inkscape:connector-curvature="0"
       id="path28877"
       style="fill:#f9b1bc;fill-opacity:1;fill-rule:nonzero;stroke:none;stroke-width:0.1"
       d="m 176.36286,95.999474 -39.624,22.425106 10.313,5.551 5.001,5.475 22.213,3.559 7.331,-16.012 -5.234,-20.998106" /><path
       inkscape:connector-curvature="0"
       id="path28879"
       style="fill:#040606;fill-opacity:1;fill-rule:nonzero;stroke:none;stroke-width:0.1"
       d="m 171.52586,111.39458 c -1.204,0.884 -1.98,1.742 -2.774,2.538 -0.819,0.781 -1.417,1.568 -2.07,2.284 -1.194,1.485 -2.225,2.836 -3.116,4.309 -0.905,1.468 -1.842,2.925 -2.793,4.597 -0.953,1.693 -1.985,3.461 -3.135,5.803 l -0.043,0.086 c -0.146,0.297 -0.023,0.656 0.274,0.803 0.041,0.019 0.085,0.035 0.127,0.045 2.76,0.647 5.314,0.031 7.608,-1.023 2.283,-1.089 4.295,-2.759 5.792,-4.811 1.494,-2.041 2.59,-4.426 2.805,-6.966 0.29,-2.508 -0.133,-5.122 -1.684,-7.527 -0.197,-0.306 -0.604,-0.393 -0.909,-0.197 -0.011,0.007 -0.021,0.014 -0.031,0.022 l -0.051,0.037" /><path
       inkscape:connector-curvature="0"
       id="path28881"
       style="fill:#f9b1bc;fill-opacity:1;fill-rule:nonzero;stroke:none;stroke-width:0.1"
       d="m 226.90986,107.19048 c 0.931,-14.661703 -10.819,-27.355903 -26.252,-28.359003 -15.434,-1.002 -28.713,10.0641 -29.669,24.724993 -0.956,14.66111 10.773,27.37211 26.205,28.39911 15.432,1.026 28.73,-10.02 29.71,-24.6792" /><path
       inkscape:connector-curvature="0"
       id="path28883"
       style="fill:#a7505d;fill-opacity:1;fill-rule:nonzero;stroke:none;stroke-width:0.1"
       d="m 224.57686,97.783374 c -3.283,-9.776897 -12.592,-17.157797 -23.992,-17.895697 -14.82,-0.9621 -27.57,9.6668 -28.485,23.744993 -0.417,6.42191 1.7,12.45391 5.533,17.20891 0,0 2.414,2.726 0.954,3.884 -1.46,1.159 -3.539,-2.09 -3.539,-2.09 -4.266,-5.316 -6.621,-12.052 -6.153,-19.22091 1.031,-15.753893 15.302,-27.646093 31.888,-26.569893 12.777,0.8289 23.206,9.1117 26.868,20.076897 0,0 0.86,2.2457 -0.648,2.7848 -1.507,0.540196 -2.426,-1.9231 -2.426,-1.9231 v 0" /><path
       inkscape:connector-curvature="0"
       id="path28885"
       style="fill:#ffffff;fill-opacity:1;fill-rule:nonzero;stroke:none;stroke-width:0.1"
       d="m 272.94186,104.78337 c 0.144,-11.502696 -8.915,-20.947593 -20.232,-21.093693 v 0 c -11.318,-0.1481 -20.609,9.0578 -20.753,20.560893 -0.144,11.50301 8.914,20.94801 20.232,21.09501 v 0 c 11.318,0.147 20.61,-9.059 20.753,-20.56221 v 0" /><path
       inkscape:connector-curvature="0"
       id="path28887"
       style="fill:#040606;fill-opacity:1;fill-rule:nonzero;stroke:none;stroke-width:0.1"
       d="m 253.38086,88.061577 c -8.836,-0.5399 -16.431,6.297997 -16.969,15.276893 -0.538,8.98011 6.185,16.70511 15.02,17.25911 8.835,0.555 16.44,-6.27 16.994,-15.27511 0.525,-9.006996 -6.209,-16.721093 -15.045,-17.260893" /><path
       inkscape:connector-curvature="0"
       id="path28889"
       style="fill:#f9b1bc;fill-opacity:1;fill-rule:nonzero;stroke:none;stroke-width:0.1"
       d="m 231.95486,95.999474 39.624,22.425106 -10.312,5.551 -5.219,1.052 -5.856,1.012 -23.471,-9.042 5.234,-20.998106" /><path
       inkscape:connector-curvature="0"
       id="path28891"
       style="fill:#f5748f;fill-opacity:1;fill-rule:evenodd;stroke:none;stroke-width:0.1"
       d="m 304.48786,68.476377 33.344,-26.8308 c 5.395,-4.3418 22.043,18.1351 17.08,33.8628 -4.962,15.7282 -43.685,10.8364 -43.685,10.8364 -4.829,-4.0211 -9.431,-15.7012 -6.739,-17.8684 v 0" /><path
       inkscape:connector-curvature="0"
       id="path28893"
       style="fill:#f36082;fill-opacity:1;fill-rule:evenodd;stroke:none;stroke-width:0.1"
       d="m 345.96586,83.847477 v 0 c 13.51,-10.0918 4.929,-28.991 -1.269,-36.0809 -5.584,-6.3878 -33.746,15.5469 -39.265,19.9508 l 32.4,-26.0718 c 5.395,-4.3411 22.043,18.1351 17.08,33.8628 -1.243,3.9403 -4.605,6.5864 -8.946,8.3391" /><path
       inkscape:connector-curvature="0"
       id="path28895"
       style="fill:#040606;fill-opacity:1;fill-rule:nonzero;stroke:none;stroke-width:0.1"
       d="m 231.06086,112.51158 c -0.647,2.789 -0.16,5.392 0.962,7.653 1.061,2.319 2.899,4.192 4.996,5.607 2.103,1.425 4.561,2.315 7.079,2.567 2.515,0.217 5.126,-0.067 7.505,-1.611 0.277,-0.18 0.356,-0.551 0.175,-0.828 -0.024,-0.038 -0.052,-0.072 -0.083,-0.103 l -0.071,-0.068 c -1.875,-1.814 -3.444,-3.13 -4.914,-4.401 -1.46,-1.251 -2.836,-2.306 -4.185,-3.38 -1.336,-1.085 -2.763,-2.009 -4.389,-3.001 -0.857,-0.453 -1.686,-0.99 -2.721,-1.449 -1.017,-0.48 -2.036,-1.026 -3.469,-1.45 l -0.058,-0.017 c -0.348,-0.104 -0.714,0.095 -0.818,0.443 -0.003,0.013 -0.006,0.026 -0.009,0.038" /><path
       inkscape:connector-curvature="0"
       id="path28897"
       style="fill:#ffffff;fill-opacity:1;fill-rule:nonzero;stroke:none;stroke-width:0.1"
       d="m 259.58986,98.078774 c 1.147,-0.068 1.985,-1.2512 1.87,-2.643 -0.114,-1.3922 -1.139,-2.464097 -2.286,-2.396097 -1.148,0.0668 -1.985,1.249997 -1.87,2.641797 0.114,1.3922 1.137,2.4641 2.286,2.3973" /><path
       inkscape:connector-curvature="0"
       id="path28899"
       style="fill:#ffffff;fill-opacity:1;fill-rule:nonzero;stroke:none;stroke-width:0.1"
       d="m 165.81786,98.078774 c 1.147,-0.068 1.985,-1.2512 1.87,-2.643 -0.115,-1.3922 -1.138,-2.464097 -2.286,-2.396097 -1.148,0.0668 -1.985,1.249997 -1.871,2.641797 0.116,1.3922 1.139,2.4641 2.287,2.3973" /><path
       d="m 86.019553,95.554858 c 0.993075,1.59044 3.207227,1.999577 4.945616,0.914034 1.738388,-1.085289 2.342593,-3.254601 1.349771,-4.844788 -0.993075,-1.590441 -3.207481,-1.999578 -4.945869,-0.914288 -1.738388,1.085542 -2.342594,3.254855 -1.349518,4.845042 z"
       opacity="1"
       fill="#ffc800"
       id="path28903"
       style="clip-rule:evenodd;fill-rule:evenodd;stroke-width:0.253336;stroke-linecap:round;stroke-linejoin:round" /><path
       d="m 91.692748,93.93959 c 0.993076,1.590187 3.207228,1.999578 4.945617,0.914035 1.738388,-1.085543 2.342593,-3.254602 1.349771,-4.845042 -0.993075,-1.590187 -3.207228,-1.999577 -4.945616,-0.914035 -1.738388,1.085543 -2.342847,3.254602 -1.349772,4.845042 z"
       opacity="1"
       fill="#ffc800"
       id="path28905"
       style="clip-rule:evenodd;fill-rule:evenodd;stroke-width:0.253336;stroke-linecap:round;stroke-linejoin:round" /><path
       d="m 97.709467,92.257696 c 0.993075,1.59044 3.207223,1.999577 4.945613,0.914034 1.73839,-1.085289 2.34285,-3.254601 1.34977,-4.844788 -0.99307,-1.590441 -3.20722,-1.999579 -4.945611,-0.914035 -1.738389,1.08529 -2.342594,3.254602 -1.349772,4.844789 z"
       opacity="1"
       fill="#ffc800"
       id="path28907"
       style="clip-rule:evenodd;fill-rule:evenodd;stroke-width:0.253336;stroke-linecap:round;stroke-linejoin:round" /><path
       d="m 103.43586,90.609241 c 0.99308,1.590188 3.20723,1.999578 4.94562,0.914035 1.73839,-1.085543 2.34285,-3.254601 1.34977,-4.845042 -0.99307,-1.590189 -3.20723,-1.999579 -4.94561,-0.914036 -1.73839,1.085544 -2.3426,3.254603 -1.34978,4.845043 z"
       opacity="1"
       fill="#ffc800"
       id="path28909"
       style="clip-rule:evenodd;fill-rule:evenodd;stroke-width:0.253336;stroke-linecap:round;stroke-linejoin:round" /><g
       opacity="1"
       id="g28927"
       style="clip-rule:evenodd;fill-rule:evenodd;stroke-linecap:round;stroke-linejoin:round"
       transform="matrix(0.25333553,0,0,-0.25333553,-38.494101,216.92056)"><path
         d="m 452.32,302.166 80.772,-41.52 65.082,240.751 -80.771,41.521 z"
         opacity="1"
         fill="#93cc65"
         id="path28913" /><path
         d="m 461.31,308.195 67.847,-34.877 60.027,222.051 -67.847,34.877 z"
         opacity="1"
         fill="#81ad5c"
         id="path28915" /><g
         opacity="0.453479"
         id="g28919"><path
           d="m 513.356,310.469 c -1.478,0.76 -2.888,0.621 -4.232,-0.416 -1.343,-1.037 -2.5,-2.834 -3.469,-5.39 l -3.934,2.023 -0.503,-1.862 3.867,-1.988 c -0.359,-1.421 -0.649,-3.022 -0.871,-4.801 -0.221,-1.78 -0.298,-3.246 -0.23,-4.398 l 1.717,-0.882 c -0.089,1.354 -0.057,2.904 0.098,4.648 0.156,1.744 0.417,3.298 0.786,4.662 l 8.468,-4.353 c -0.112,-2.473 -0.069,-4.372 0.13,-5.696 0.199,-1.324 0.566,-2.402 1.1,-3.235 0.534,-0.833 1.279,-1.495 2.235,-1.987 1.378,-0.708 2.732,-0.579 4.062,0.386 1.331,0.965 2.439,2.617 3.324,4.954 l 3.2,-1.645 0.503,1.862 -3.167,1.628 c 0.716,3.07 1.043,5.965 0.981,8.684 l -1.705,0.013 c 0.105,-2.515 -0.154,-5.157 -0.776,-7.926 l -8.101,4.164 c 0.149,3.641 -0.044,6.297 -0.579,7.969 -0.536,1.671 -1.503,2.867 -2.904,3.586 z m -0.616,-2.562 c 0.944,-0.486 1.594,-1.37 1.95,-2.652 0.356,-1.283 0.472,-3.088 0.349,-5.415 l -7.851,4.035 c 0.65,1.795 1.466,3.056 2.447,3.782 0.981,0.726 2.016,0.809 3.105,0.25 z m 6.455,-18.607 c -0.955,0.491 -1.621,1.33 -1.996,2.518 -0.375,1.188 -0.513,2.855 -0.413,5.003 l 7.551,-3.881 c -0.671,-1.732 -1.465,-2.891 -2.382,-3.475 -0.918,-0.584 -1.838,-0.639 -2.76,-0.165 z"
           opacity="0.453479"
           fill="#000000"
           id="path28917" /></g><g
         opacity="0.453479"
         id="g28923"><path
           d="m 533.128,515.05 c -1.478,0.76 -2.888,0.621 -4.232,-0.416 -1.343,-1.037 -2.5,-2.834 -3.469,-5.39 l -3.934,2.022 -0.503,-1.861 3.867,-1.988 c -0.359,-1.421 -0.649,-3.022 -0.871,-4.802 -0.222,-1.779 -0.298,-3.245 -0.23,-4.397 l 1.717,-0.883 c -0.09,1.355 -0.057,2.905 0.098,4.649 0.155,1.744 0.417,3.298 0.786,4.662 l 8.467,-4.353 c -0.111,-2.473 -0.068,-4.372 0.131,-5.696 0.199,-1.324 0.566,-2.402 1.1,-3.235 0.534,-0.833 1.279,-1.496 2.235,-1.987 1.378,-0.708 2.732,-0.58 4.062,0.386 1.331,0.965 2.438,2.617 3.323,4.954 l 3.201,-1.645 0.503,1.862 -3.167,1.628 c 0.716,3.07 1.043,5.965 0.981,8.684 l -1.705,0.013 c 0.105,-2.515 -0.154,-5.157 -0.776,-7.926 l -8.101,4.164 c 0.149,3.641 -0.044,6.297 -0.58,7.968 -0.535,1.672 -1.503,2.867 -2.903,3.587 z m -0.617,-2.562 c 0.945,-0.486 1.595,-1.37 1.951,-2.652 0.356,-1.283 0.472,-3.088 0.349,-5.416 l -7.851,4.036 c 0.65,1.795 1.465,3.056 2.446,3.782 0.981,0.726 2.016,0.809 3.105,0.25 z m 6.456,-18.608 c -0.956,0.492 -1.621,1.331 -1.996,2.519 -0.375,1.187 -0.513,2.855 -0.413,5.003 l 7.551,-3.882 c -0.671,-1.732 -1.465,-2.89 -2.383,-3.474 -0.917,-0.585 -1.837,-0.64 -2.759,-0.166 z"
           opacity="0.453479"
           fill="#000000"
           id="path28921" /></g><path
         d="m 531.64,425.431 c -13.096,6.732 -26.575,1.601 -30.106,-11.46 -3.531,-13.061 4.224,-29.107 17.32,-35.839 13.096,-6.732 26.575,-1.601 30.106,11.46 3.531,13.061 -4.224,29.107 -17.32,35.839 z"
         opacity="0.309852"
         fill="#000000"
         id="path28925" /></g><g
       opacity="1"
       id="g28943"
       style="clip-rule:evenodd;fill-rule:evenodd;stroke-linecap:round;stroke-linejoin:round"
       transform="matrix(0.25333553,0,0,-0.25333553,-38.494101,216.92056)"><path
         d="m 430.929,320.175 75.427,-49.29 92.956,232.89 -75.428,49.29 z"
         opacity="1"
         fill="#93cc65"
         id="path28929" /><path
         d="m 440.573,325.277 63.359,-41.404 85.735,214.8 -63.359,41.404 z"
         opacity="1"
         fill="#81ad5c"
         id="path28931" /><g
         opacity="0.453479"
         id="g28935"><path
           d="m 492.583,322.375 c -1.38,0.902 -2.799,0.904 -4.256,0.006 -1.457,-0.897 -2.818,-2.569 -4.082,-5.014 l -3.673,2.401 -0.719,-1.801 3.611,-2.36 c -0.523,-1.377 -1,-2.939 -1.429,-4.687 -0.429,-1.747 -0.677,-3.197 -0.745,-4.349 l 1.604,-1.048 c 0.07,1.356 0.284,2.893 0.643,4.612 0.359,1.718 0.802,3.237 1.328,4.557 l 7.907,-5.168 c -0.401,-2.447 -0.58,-4.339 -0.538,-5.675 0.043,-1.336 0.281,-2.445 0.714,-3.326 0.433,-0.881 1.096,-1.613 1.988,-2.196 1.287,-0.841 2.648,-0.848 4.084,-0.02 1.436,0.828 2.731,2.36 3.886,4.596 l 2.988,-1.953 0.719,1.801 -2.957,1.932 c 1.072,2.981 1.736,5.827 1.994,8.537 l -1.694,0.182 c -0.191,-2.511 -0.758,-5.112 -1.701,-7.803 l -7.565,4.943 c 0.575,3.605 0.695,6.265 0.359,7.98 -0.336,1.714 -1.158,2.999 -2.466,3.853 z m -0.914,-2.486 c 0.882,-0.577 1.425,-1.52 1.628,-2.83 0.203,-1.31 0.107,-3.116 -0.288,-5.418 l -7.332,4.791 c 0.857,1.72 1.816,2.892 2.876,3.517 1.061,0.624 2.099,0.604 3.116,-0.06 z m 4.235,-19.139 c -0.893,0.583 -1.456,1.484 -1.689,2.702 -0.234,1.218 -0.175,2.889 0.176,5.015 l 7.051,-4.608 c -0.87,-1.656 -1.795,-2.728 -2.776,-3.218 -0.98,-0.49 -1.901,-0.454 -2.762,0.109 z"
           opacity="0.453479"
           fill="#000000"
           id="path28933" /></g><g
         opacity="0.453479"
         id="g28939"><path
           d="m 536.248,523.801 c -1.38,0.901 -2.799,0.903 -4.257,0.006 -1.457,-0.898 -2.817,-2.57 -4.081,-5.014 l -3.674,2.4 -0.718,-1.801 3.611,-2.36 c -0.524,-1.377 -1,-2.939 -1.429,-4.687 -0.43,-1.747 -0.678,-3.197 -0.745,-4.349 l 1.603,-1.047 c 0.07,1.355 0.285,2.893 0.644,4.611 0.358,1.719 0.801,3.238 1.328,4.557 l 7.907,-5.167 c -0.401,-2.448 -0.581,-4.34 -0.538,-5.676 0.042,-1.336 0.28,-2.444 0.713,-3.326 0.434,-0.881 1.096,-1.613 1.989,-2.196 1.287,-0.841 2.648,-0.848 4.084,-0.02 1.436,0.828 2.731,2.36 3.885,4.596 l 2.989,-1.953 0.718,1.801 -2.957,1.932 c 1.072,2.982 1.737,5.827 1.994,8.537 l -1.693,0.182 c -0.191,-2.511 -0.758,-5.112 -1.702,-7.803 l -7.565,4.943 c 0.576,3.605 0.695,6.265 0.359,7.98 -0.336,1.715 -1.158,2.999 -2.465,3.854 z m -0.914,-2.487 c 0.882,-0.576 1.424,-1.52 1.628,-2.83 0.203,-1.31 0.107,-3.116 -0.289,-5.418 l -7.331,4.791 c 0.857,1.72 1.815,2.892 2.876,3.517 1.06,0.625 2.099,0.605 3.116,-0.06 z m 4.234,-19.139 c -0.892,0.584 -1.455,1.484 -1.689,2.702 -0.233,1.218 -0.174,2.889 0.177,5.015 l 7.051,-4.608 c -0.87,-1.655 -1.796,-2.728 -2.776,-3.218 -0.981,-0.49 -1.902,-0.454 -2.763,0.109 z"
           opacity="0.453479"
           fill="#000000"
           id="path28937" /></g><path
         d="m 524.251,434.852 c -12.229,7.992 -26.232,4.229 -31.275,-8.406 -5.043,-12.635 0.783,-29.356 13.013,-37.348 12.23,-7.992 26.232,-4.228 31.275,8.407 5.043,12.634 -0.783,29.355 -13.013,37.347 z"
         opacity="0.309852"
         fill="#000000"
         id="path28941" /></g><g
       opacity="1"
       id="g28959"
       style="clip-rule:evenodd;fill-rule:evenodd;stroke-linecap:round;stroke-linejoin:round"
       transform="matrix(0.25333553,0,0,-0.25333553,-38.494101,216.92056)"><path
         d="m 412.809,336.203 70.023,-55.624 116.48,223.77 -70.023,55.624 z"
         opacity="1"
         fill="#93cc65"
         id="path28945" /><path
         d="m 422.934,340.443 58.82,-46.724 107.432,206.389 -58.819,46.724 z"
         opacity="1"
         fill="#81ad5c"
         id="path28947" /><g
         opacity="0.453479"
         id="g28951"><path
           d="m 474.413,333.035 c -1.281,1.018 -2.693,1.143 -4.236,0.376 -1.543,-0.767 -3.07,-2.313 -4.579,-4.637 l -3.41,2.709 -0.901,-1.73 3.352,-2.663 c -0.662,-1.326 -1.297,-2.84 -1.904,-4.542 -0.607,-1.702 -1.003,-3.124 -1.189,-4.265 l 1.489,-1.182 c 0.209,1.343 0.58,2.855 1.114,4.535 0.534,1.679 1.131,3.153 1.791,4.421 l 7.341,-5.832 c -0.652,-2.402 -1.025,-4.269 -1.12,-5.603 -0.095,-1.334 0.028,-2.458 0.369,-3.373 0.341,-0.915 0.925,-1.701 1.754,-2.359 1.194,-0.949 2.549,-1.074 4.063,-0.375 1.515,0.699 2.962,2.112 4.341,4.238 l 2.774,-2.204 0.901,1.73 -2.746,2.181 c 1.374,2.875 2.328,5.65 2.863,8.325 l -1.667,0.328 c -0.448,-2.482 -1.28,-5.022 -2.496,-7.62 l -7.023,5.579 c 0.943,3.539 1.336,6.176 1.178,7.912 -0.159,1.737 -0.845,3.087 -2.059,4.051 z m -1.165,-2.396 c 0.819,-0.65 1.262,-1.636 1.33,-2.958 0.067,-1.322 -0.214,-3.112 -0.845,-5.369 l -6.806,5.406 c 1.03,1.638 2.105,2.722 3.225,3.252 1.12,0.529 2.152,0.419 3.096,-0.331 z m 2.248,-19.421 c -0.829,0.658 -1.297,1.604 -1.404,2.836 -0.107,1.233 0.123,2.892 0.691,4.978 l 6.546,-5.2 c -1.036,-1.573 -2.068,-2.56 -3.094,-2.963 -1.027,-0.402 -1.94,-0.286 -2.739,0.349 z"
           opacity="0.453479"
           fill="#000000"
           id="path28949" /></g><g
         opacity="0.453479"
         id="g28955"><path
           d="m 538.589,529.764 c -1.282,1.018 -2.694,1.144 -4.237,0.376 -1.543,-0.767 -3.069,-2.312 -4.579,-4.637 l -3.41,2.709 -0.901,-1.73 3.353,-2.663 c -0.663,-1.326 -1.298,-2.84 -1.905,-4.542 -0.607,-1.702 -1.003,-3.124 -1.188,-4.265 l 1.488,-1.182 c 0.209,1.344 0.581,2.855 1.115,4.535 0.534,1.68 1.13,3.153 1.79,4.421 l 7.341,-5.831 c -0.651,-2.402 -1.024,-4.27 -1.119,-5.604 -0.095,-1.333 0.027,-2.458 0.368,-3.373 0.341,-0.915 0.926,-1.701 1.754,-2.359 1.195,-0.949 2.549,-1.074 4.064,-0.375 1.514,0.7 2.961,2.112 4.34,4.238 l 2.774,-2.204 0.901,1.73 -2.745,2.181 c 1.373,2.875 2.328,5.65 2.863,8.326 l -1.668,0.328 c -0.448,-2.483 -1.28,-5.023 -2.496,-7.62 l -7.023,5.578 c 0.944,3.539 1.336,6.176 1.178,7.913 -0.158,1.736 -0.845,3.086 -2.058,4.05 z m -1.166,-2.395 c 0.819,-0.651 1.262,-1.637 1.33,-2.959 0.067,-1.322 -0.214,-3.112 -0.844,-5.369 l -6.806,5.406 c 1.029,1.638 2.104,2.722 3.224,3.252 1.12,0.53 2.152,0.419 3.096,-0.33 z m 2.248,-19.422 c -0.828,0.659 -1.296,1.604 -1.403,2.837 -0.108,1.232 0.123,2.891 0.691,4.977 l 6.546,-5.2 c -1.037,-1.572 -2.068,-2.56 -3.095,-2.962 -1.026,-0.403 -1.939,-0.287 -2.739,0.348 z"
           opacity="0.453479"
           fill="#000000"
           id="path28953" /></g><path
         d="m 517.502,442.257 c -11.353,9.019 -25.68,6.489 -31.999,-5.651 -6.319,-12.14 -2.238,-29.293 9.115,-38.312 11.354,-9.019 25.68,-6.488 32,5.651 6.319,12.14 2.238,29.293 -9.116,38.312 z"
         opacity="0.309852"
         fill="#000000"
         id="path28957" /></g><g
       opacity="1"
       id="g28975"
       style="clip-rule:evenodd;fill-rule:evenodd;stroke-linecap:round;stroke-linejoin:round"
       transform="matrix(0.25333553,0,0,-0.25333553,-38.494101,216.92056)"><path
         d="m 387.807,368.476 60.82,-64.124 149.547,206.487 -60.82,64.124 z"
         opacity="1"
         fill="#93cc65"
         id="path28961" /><path
         d="M 398.481,371.365 449.569,317.501 587.5,507.949 536.412,561.814 Z"
         opacity="1"
         fill="#81ad5c"
         id="path28963" /><g
         opacity="0.453479"
         id="g28967"><path
           d="m 448.315,357.375 c -1.113,1.174 -2.492,1.48 -4.137,0.92 -1.645,-0.56 -3.392,-1.893 -5.242,-3.999 l -2.962,3.123 -1.157,-1.596 2.912,-3.071 c -0.859,-1.226 -1.719,-2.643 -2.58,-4.25 -0.861,-1.607 -1.471,-2.963 -1.829,-4.069 l 1.293,-1.363 c 0.412,1.304 1.011,2.752 1.797,4.346 0.785,1.594 1.602,2.976 2.449,4.146 l 6.376,-6.723 c -1.012,-2.294 -1.668,-4.095 -1.966,-5.403 -0.298,-1.308 -0.348,-2.437 -0.151,-3.387 0.198,-0.95 0.656,-1.804 1.376,-2.563 1.037,-1.093 2.359,-1.392 3.966,-0.896 1.606,0.497 3.255,1.708 4.945,3.635 l 2.41,-2.541 1.156,1.597 -2.384,2.514 c 1.8,2.668 3.169,5.293 4.107,7.872 l -1.6,0.541 c -0.824,-2.4 -2.036,-4.808 -3.637,-7.222 l -6.1,6.431 c 1.476,3.382 2.268,5.942 2.376,7.682 0.109,1.739 -0.364,3.165 -1.418,4.276 z m -1.52,-2.221 c 0.711,-0.75 0.999,-1.784 0.864,-3.101 -0.135,-1.318 -0.688,-3.053 -1.657,-5.207 l -5.912,6.233 c 1.27,1.489 2.5,2.423 3.69,2.802 1.19,0.38 2.195,0.137 3.015,-0.727 z m -0.745,-19.519 c -0.719,0.759 -1.038,1.755 -0.956,2.99 0.083,1.234 0.564,2.847 1.446,4.838 l 5.685,-5.994 c -1.266,-1.423 -2.438,-2.268 -3.516,-2.533 -1.078,-0.266 -1.964,-0.033 -2.659,0.699 z"
           opacity="0.453479"
           fill="#000000"
           id="path28965" /></g><g
         opacity="0.453479"
         id="g28971"><path
           d="m 541.942,543.853 c -1.113,1.173 -2.492,1.48 -4.137,0.92 -1.646,-0.56 -3.393,-1.893 -5.243,-3.999 l -2.962,3.123 -1.156,-1.597 2.911,-3.07 c -0.859,-1.227 -1.719,-2.643 -2.58,-4.25 -0.861,-1.607 -1.471,-2.963 -1.829,-4.069 l 1.293,-1.363 c 0.413,1.303 1.012,2.752 1.797,4.346 0.786,1.594 1.602,2.975 2.449,4.145 l 6.376,-6.722 c -1.012,-2.294 -1.667,-4.095 -1.965,-5.403 -0.298,-1.308 -0.349,-2.437 -0.151,-3.387 0.197,-0.95 0.656,-1.804 1.375,-2.563 1.038,-1.094 2.36,-1.393 3.966,-0.896 1.607,0.496 3.255,1.708 4.946,3.634 l 2.409,-2.541 1.157,1.597 -2.385,2.515 c 1.8,2.668 3.169,5.292 4.108,7.872 l -1.601,0.54 c -0.823,-2.4 -2.035,-4.807 -3.636,-7.222 l -6.1,6.432 c 1.475,3.381 2.267,5.942 2.376,7.681 0.109,1.74 -0.364,3.165 -1.418,4.277 z m -1.521,-2.221 c 0.711,-0.75 0.999,-1.784 0.864,-3.102 -0.135,-1.317 -0.687,-3.053 -1.657,-5.206 l -5.911,6.233 c 1.27,1.488 2.5,2.422 3.69,2.802 1.189,0.38 2.194,0.137 3.014,-0.727 z m -0.744,-19.519 c -0.72,0.758 -1.039,1.755 -0.956,2.989 0.082,1.235 0.564,2.847 1.445,4.839 l 5.686,-5.995 c -1.267,-1.423 -2.439,-2.267 -3.517,-2.533 -1.078,-0.266 -1.964,-0.032 -2.658,0.7 z"
           opacity="0.453479"
           fill="#000000"
           id="path28969" /></g><path
         d="m 507.681,459.941 c -9.861,10.397 -24.433,9.744 -32.546,-1.458 -8.113,-11.202 -6.696,-28.712 3.165,-39.109 9.862,-10.397 24.433,-9.745 32.546,1.458 8.113,11.202 6.696,28.712 -3.165,39.109 z"
         opacity="0.309852"
         fill="#000000"
         id="path28973" /></g><g
       opacity="1"
       id="g28991"
       style="clip-rule:evenodd;fill-rule:evenodd;stroke-linecap:round;stroke-linejoin:round"
       transform="matrix(0.25333553,0,0,-0.25333553,-38.494101,216.92056)"><path
         d="m 372.139,404.368 48.283,-72.581 185.039,180.551 -48.283,72.582 z"
         opacity="1"
         fill="#93cc65"
         id="path28977" /><path
         d="m 383.188,405.574 40.558,-60.969 170.666,166.528 -40.558,60.968 z"
         opacity="1"
         fill="#81ad5c"
         id="path28979" /><g
         opacity="0.453479"
         id="g28983"><path
           d="m 429.771,384.11 c -0.883,1.328 -2.187,1.843 -3.911,1.544 -1.724,-0.299 -3.689,-1.344 -5.897,-3.136 l -2.351,3.535 -1.431,-1.396 2.312,-3.475 c -1.071,-1.077 -2.177,-2.342 -3.318,-3.793 -1.142,-1.452 -1.99,-2.695 -2.544,-3.73 l 1.026,-1.543 c 0.644,1.221 1.498,2.557 2.563,4.008 1.065,1.45 2.121,2.687 3.169,3.71 l 5.062,-7.609 c -1.415,-2.106 -2.389,-3.78 -2.921,-5.024 -0.532,-1.244 -0.788,-2.349 -0.766,-3.316 0.022,-0.967 0.318,-1.88 0.889,-2.739 0.824,-1.238 2.073,-1.736 3.747,-1.494 1.675,0.243 3.52,1.183 5.538,2.822 l 1.913,-2.876 1.431,1.397 -1.894,2.845 c 2.261,2.354 4.089,4.73 5.484,7.129 l -1.48,0.779 c -1.249,-2.239 -2.882,-4.426 -4.9,-6.559 l -4.843,7.279 c 2.07,3.107 3.318,5.509 3.742,7.207 0.424,1.699 0.217,3.177 -0.62,4.435 z m -1.903,-1.956 c 0.564,-0.849 0.66,-1.912 0.287,-3.191 -0.374,-1.278 -1.234,-2.904 -2.582,-4.877 l -4.693,7.054 c 1.523,1.272 2.906,2.004 4.148,2.195 1.242,0.191 2.189,-0.203 2.84,-1.181 z m -4.289,-19.129 c -0.571,0.859 -0.704,1.891 -0.398,3.095 0.306,1.204 1.075,2.72 2.306,4.547 l 4.514,-6.785 c -1.508,-1.208 -2.817,-1.86 -3.928,-1.956 -1.111,-0.096 -1.943,0.271 -2.494,1.099 z"
           opacity="0.453479"
           fill="#000000"
           id="path28981" /></g><g
         opacity="0.453479"
         id="g28987"><path
           d="m 556.035,553.542 c -0.883,1.328 -2.187,1.843 -3.911,1.544 -1.724,-0.299 -3.689,-1.344 -5.897,-3.135 l -2.351,3.535 -1.431,-1.397 2.312,-3.475 c -1.071,-1.077 -2.177,-2.341 -3.318,-3.793 -1.142,-1.451 -1.99,-2.695 -2.544,-3.73 l 1.026,-1.542 c 0.644,1.221 1.498,2.557 2.563,4.007 1.065,1.451 2.121,2.688 3.169,3.71 l 5.062,-7.609 c -1.415,-2.105 -2.389,-3.78 -2.921,-5.024 -0.532,-1.243 -0.788,-2.349 -0.766,-3.316 0.022,-0.966 0.318,-1.879 0.889,-2.738 0.824,-1.238 2.073,-1.736 3.747,-1.494 1.675,0.242 3.52,1.183 5.538,2.822 l 1.913,-2.876 1.431,1.396 -1.894,2.846 c 2.261,2.354 4.089,4.73 5.484,7.129 l -1.48,0.779 c -1.249,-2.239 -2.882,-4.426 -4.9,-6.56 l -4.843,7.279 c 2.07,3.107 3.317,5.51 3.742,7.208 0.424,1.698 0.217,3.176 -0.62,4.434 z m -1.903,-1.956 c 0.564,-0.848 0.66,-1.912 0.287,-3.19 -0.374,-1.278 -1.234,-2.904 -2.582,-4.878 l -4.693,7.055 c 1.523,1.272 2.906,2.004 4.148,2.195 1.242,0.191 2.189,-0.203 2.84,-1.182 z m -4.289,-19.128 c -0.571,0.859 -0.704,1.89 -0.398,3.094 0.306,1.205 1.075,2.72 2.306,4.548 l 4.514,-6.785 c -1.508,-1.208 -2.817,-1.86 -3.928,-1.956 -1.111,-0.096 -1.943,0.27 -2.494,1.099 z"
           opacity="0.453479"
           fill="#000000"
           id="path28985" /></g><path
         d="m 506.977,476.089 c -7.829,11.768 -22.313,13.368 -32.352,3.573 -10.039,-9.796 -11.83,-27.276 -4.001,-39.045 7.828,-11.768 22.313,-13.368 32.351,-3.572 10.039,9.795 11.831,27.276 4.002,39.044 z"
         opacity="0.309852"
         fill="#000000"
         id="path28989" /></g><g
       opacity="1"
       id="g29007"
       style="clip-rule:evenodd;fill-rule:evenodd;stroke-linecap:round;stroke-linejoin:round"
       transform="matrix(0.25333553,0,0,-0.25333553,-38.494101,216.92056)"><path
         d="m 359.174,436.788 35.394,-78.611 213.375,151.842 -35.395,78.611 z"
         opacity="1"
         fill="#93cc65"
         id="path28993" /><path
         d="m 370.292,436.396 29.732,-66.033 196.8,140.048 -29.731,66.033 z"
         opacity="1"
         fill="#81ad5c"
         id="path28995" /><g
         opacity="0.453479"
         id="g28999"><path
           d="m 412.669,408.522 c -0.647,1.438 -1.848,2.133 -3.601,2.085 -1.754,-0.048 -3.873,-0.799 -6.356,-2.252 l -1.724,3.828 -1.65,-1.174 1.694,-3.764 c -1.239,-0.91 -2.546,-2.001 -3.92,-3.271 -1.373,-1.271 -2.422,-2.377 -3.145,-3.32 l 0.752,-1.671 c 0.844,1.114 1.914,2.311 3.212,3.592 1.297,1.28 2.55,2.35 3.759,3.21 l 3.71,-8.241 c -1.755,-1.877 -3,-3.392 -3.737,-4.544 -0.736,-1.152 -1.176,-2.208 -1.318,-3.166 -0.142,-0.958 -0.004,-1.902 0.415,-2.832 0.603,-1.341 1.753,-2.012 3.448,-2.013 1.694,0 3.677,0.664 5.947,1.994 l 1.403,-3.114 1.65,1.174 -1.388,3.082 c 2.632,2.001 4.84,4.087 6.624,6.257 l -1.329,0.981 c -1.613,-2.033 -3.597,-3.959 -5.952,-5.778 l -3.55,7.884 c 2.571,2.773 4.21,4.967 4.917,6.584 0.706,1.617 0.753,3.106 0.139,4.469 z m -2.211,-1.659 c 0.414,-0.92 0.328,-1.984 -0.257,-3.193 -0.586,-1.209 -1.711,-2.692 -3.377,-4.449 l -3.44,7.641 c 1.72,1.039 3.21,1.563 4.469,1.574 1.259,0.011 2.128,-0.514 2.605,-1.573 z m -7.478,-18.281 c -0.419,0.93 -0.375,1.968 0.131,3.114 0.507,1.145 1.523,2.532 3.049,4.161 l 3.309,-7.349 c -1.694,-0.977 -3.098,-1.433 -4.212,-1.369 -1.114,0.064 -1.873,0.545 -2.277,1.443 z"
           opacity="0.453479"
           fill="#000000"
           id="path28997" /></g><g
         opacity="0.453479"
         id="g29003"><path
           d="m 566.102,557.8 c -0.647,1.438 -1.848,2.133 -3.602,2.085 -1.753,-0.048 -3.872,-0.799 -6.356,-2.253 l -1.723,3.829 -1.65,-1.174 1.694,-3.764 c -1.24,-0.911 -2.546,-2.001 -3.92,-3.271 -1.374,-1.271 -2.422,-2.377 -3.145,-3.32 l 0.752,-1.671 c 0.843,1.114 1.914,2.311 3.211,3.591 1.298,1.281 2.551,2.351 3.76,3.211 l 3.71,-8.241 c -1.755,-1.877 -3.001,-3.392 -3.737,-4.544 -0.736,-1.153 -1.176,-2.208 -1.318,-3.166 -0.143,-0.958 -0.004,-1.902 0.414,-2.832 0.604,-1.341 1.753,-2.012 3.448,-2.013 1.695,0 3.678,0.664 5.948,1.994 l 1.402,-3.114 1.651,1.174 -1.388,3.082 c 2.631,2.001 4.839,4.087 6.624,6.256 l -1.329,0.982 c -1.613,-2.033 -3.598,-3.959 -5.953,-5.778 l -3.549,7.884 c 2.571,2.773 4.21,4.967 4.917,6.584 0.706,1.616 0.753,3.106 0.139,4.469 z m -2.211,-1.66 c 0.413,-0.919 0.328,-1.983 -0.258,-3.192 -0.585,-1.209 -1.711,-2.692 -3.376,-4.449 l -3.441,7.641 c 1.721,1.038 3.21,1.563 4.47,1.574 1.259,0.011 2.127,-0.514 2.605,-1.574 z m -7.478,-18.28 c -0.419,0.93 -0.375,1.968 0.131,3.113 0.506,1.146 1.523,2.533 3.049,4.162 l 3.308,-7.349 c -1.694,-0.977 -3.097,-1.433 -4.211,-1.369 -1.114,0.064 -1.873,0.545 -2.277,1.443 z"
           opacity="0.453479"
           fill="#000000"
           id="path29001" /></g><path
         d="m 504.518,488.319 c -5.739,12.746 -19.775,16.401 -31.351,8.163 -11.576,-8.237 -16.308,-25.248 -10.569,-37.994 5.739,-12.746 19.776,-16.401 31.352,-8.163 11.575,8.238 16.307,25.248 10.568,37.994 z"
         opacity="0.309852"
         fill="#000000"
         id="path29005" /></g><g
       opacity="1"
       id="g29023"
       style="clip-rule:evenodd;fill-rule:evenodd;stroke-linecap:round;stroke-linejoin:round"
       transform="matrix(0.25333553,0,0,-0.25333553,-38.494101,216.92056)"><path
         d="m 354.509,471.507 21.736,-82.7 236.363,119.653 -21.737,82.7 z"
         opacity="1"
         fill="#93cc65"
         id="path29009" /><path
         d="M 365.428,469.538 383.686,400.07 601.689,510.429 583.43,579.897 Z"
         opacity="1"
         fill="#81ad5c"
         id="path29011" /><g
         opacity="0.453479"
         id="g29015"><path
           d="m 402.603,435.97 c -0.398,1.513 -1.467,2.37 -3.208,2.572 -1.74,0.202 -3.96,-0.238 -6.658,-1.321 l -1.059,4.028 -1.828,-0.925 1.041,-3.96 c -1.378,-0.723 -2.853,-1.615 -4.424,-2.674 -1.571,-1.06 -2.793,-2.004 -3.666,-2.833 l 0.462,-1.757 c 1.021,0.98 2.28,2.011 3.777,3.091 1.497,1.08 2.916,1.959 4.255,2.637 l 2.278,-8.669 c -2.05,-1.605 -3.535,-2.925 -4.457,-3.958 -0.921,-1.034 -1.533,-2.014 -1.835,-2.94 -0.302,-0.927 -0.324,-1.879 -0.067,-2.858 0.371,-1.411 1.393,-2.237 3.068,-2.478 1.674,-0.242 3.745,0.132 6.211,1.123 l 0.862,-3.276 1.827,0.925 -0.852,3.243 c 2.937,1.602 5.469,3.348 7.598,5.238 l -1.149,1.159 c -1.935,-1.779 -4.22,-3.4 -6.853,-4.861 l -2.18,8.294 c 3.007,2.373 4.996,4.308 5.966,5.804 0.971,1.497 1.267,2.962 0.891,4.396 z m -2.465,-1.325 c 0.254,-0.967 -0.009,-2.006 -0.791,-3.118 -0.782,-1.111 -2.144,-2.416 -4.085,-3.914 l -2.113,8.038 c 1.875,0.781 3.435,1.088 4.681,0.919 1.246,-0.168 2.015,-0.81 2.308,-1.925 z m -10.464,-16.997 c -0.258,0.979 -0.04,1.998 0.653,3.058 0.693,1.06 1.931,2.286 3.713,3.678 l 2.032,-7.731 c -1.838,-0.725 -3.302,-0.976 -4.392,-0.754 -1.089,0.222 -1.758,0.805 -2.006,1.749 z"
           opacity="0.453479"
           fill="#000000"
           id="path29013" /></g><g
         opacity="0.453479"
         id="g29019"><path
           d="m 579.313,561.618 c -0.397,1.514 -1.466,2.371 -3.207,2.573 -1.741,0.202 -3.96,-0.239 -6.659,-1.321 l -1.058,4.027 -1.828,-0.925 1.041,-3.959 c -1.378,-0.724 -2.853,-1.615 -4.424,-2.675 -1.571,-1.059 -2.793,-2.003 -3.666,-2.832 l 0.462,-1.758 c 1.021,0.981 2.28,2.011 3.777,3.092 1.497,1.08 2.915,1.959 4.254,2.637 l 2.279,-8.67 c -2.05,-1.605 -3.535,-2.924 -4.457,-3.958 -0.921,-1.033 -1.533,-2.014 -1.835,-2.94 -0.302,-0.926 -0.324,-1.879 -0.067,-2.857 0.371,-1.411 1.393,-2.237 3.067,-2.479 1.675,-0.242 3.745,0.133 6.212,1.124 l 0.861,-3.277 1.828,0.926 -0.852,3.242 c 2.937,1.603 5.469,3.349 7.598,5.239 l -1.149,1.159 c -1.935,-1.78 -4.22,-3.4 -6.853,-4.862 l -2.18,8.294 c 3.007,2.373 4.996,4.308 5.966,5.805 0.97,1.497 1.267,2.962 0.89,4.395 z m -2.464,-1.324 c 0.254,-0.968 -0.01,-2.007 -0.791,-3.118 -0.782,-1.111 -2.144,-2.416 -4.085,-3.915 l -2.113,8.039 c 1.874,0.781 3.435,1.087 4.681,0.919 1.246,-0.169 2.015,-0.81 2.308,-1.925 z m -10.465,-16.997 c -0.257,0.979 -0.039,1.998 0.654,3.058 0.693,1.059 1.931,2.285 3.713,3.677 l 2.032,-7.731 c -1.838,-0.724 -3.302,-0.975 -4.392,-0.753 -1.089,0.222 -1.758,0.805 -2.007,1.749 z"
           opacity="0.453479"
           fill="#000000"
           id="path29017" /></g><path
         d="m 506.776,501.737 c -3.524,13.409 -16.776,19.017 -29.599,12.526 -12.823,-6.492 -20.361,-22.624 -16.837,-36.033 3.524,-13.409 16.777,-19.017 29.6,-12.526 12.823,6.492 20.361,22.624 16.836,36.033 z"
         opacity="0.309852"
         fill="#000000"
         id="path29021" /></g><path
       style="fill:#6f4c85;fill-opacity:1;stroke:none;stroke-width:0.657304px;stroke-linecap:butt;stroke-linejoin:miter;stroke-opacity:1"
       d="m 146.14595,149.32823 c -11.63959,-8.84757 -50.41956,-17.25119 -47.06397,-29.79951 3.35562,-12.54834 59.34651,-26.240756 86.27476,-20.846526 26.92825,5.394236 74.35364,30.578196 73.42423,35.609636 -0.92941,5.03146 -100.99543,23.88396 -112.63502,15.0364 z"
       id="path29027"
       sodipodi:nodetypes="zzzzz" /><path
       style="fill:#47265b;fill-opacity:1;stroke:none;stroke-width:0.657304px;stroke-linecap:butt;stroke-linejoin:miter;stroke-opacity:1"
       d="m 146.67413,141.20117 c -0.11209,3.54034 -4.70685,47.79422 -4.27073,49.67223 0.43611,1.87801 0.58485,12.51787 17.13934,23.84937 16.55449,11.33149 43.41287,16.16718 43.41287,16.16718 0,0 18.66826,2.85575 34.71936,-2.37166 16.05109,-5.22741 27.85783,-12.03686 31.3252,-14.54259 3.46736,-2.50573 9.7146,-12.38038 14.46121,-31.10292 4.7466,-18.72257 5.66254,-30.2207 3.91515,-32.49113 -1.7474,-2.27044 -26.87619,-22.0716 -83.77678,-23.1432 -56.90058,-1.07158 -56.81354,10.4224 -56.92562,13.96272 z"
       id="path29029"
       sodipodi:nodetypes="zzzczzzzzz" /><path
       style="fill:#5b3c6f;fill-opacity:1;stroke:none;stroke-width:0.657304px;stroke-linecap:butt;stroke-linejoin:miter;stroke-opacity:1"
       d="m 146.67413,141.20117 c -0.11209,3.54034 -4.70685,47.79422 -4.27073,49.67223 0.43611,1.87801 0.58485,12.51787 17.13934,23.84937 16.55449,11.33149 46.03548,19.19297 59.05323,6.44825 6.56207,-6.42445 11.50579,-14.94197 14.23167,-25.78501 6.74445,-26.82828 7.1804,-64.4848 7.1804,-64.4848 0,0 -22.38402,-3.39864 -36.40829,-3.66276 -56.90058,-1.07158 -56.81354,10.4224 -56.92562,13.96272 z"
       id="path29031"
       sodipodi:nodetypes="zzzsscsz" /><ellipse
       style="fill:#5b3c6f;fill-opacity:1;stroke:none;stroke-width:1.31461;stroke-linecap:round;stroke-linejoin:round;stroke-opacity:1"
       id="ellipse29033"
       cx="231.99338"
       cy="-203.27332"
       transform="matrix(0.99182945,0.12757091,0.12757091,-0.99182945,0,0)"
       rx="5.7054501"
       ry="3.0472026" /><path
       d="m 229.66225,51.590016 c 0.74931,1.200042 2.42016,1.50875 3.73183,0.689862 1.31168,-0.81908 1.76757,-2.45571 1.01826,-3.655752 -0.74931,-1.199851 -2.41996,-1.50875 -3.73164,-0.689671 -1.31167,0.818888 -1.76757,2.455709 -1.01845,3.655561 z"
       opacity="1"
       fill="#ffc800"
       id="path29035"
       style="clip-rule:evenodd;fill-rule:evenodd;stroke-width:0.19115;stroke-linecap:round;stroke-linejoin:round" /><path
       d="m 233.90389,51.820878 c 0.74931,1.200042 2.41997,1.50875 3.73164,0.68967 1.31168,-0.818888 1.76757,-2.455709 1.01845,-3.65556 -0.74931,-1.200042 -2.42016,-1.50875 -3.73183,-0.689862 -1.31167,0.81908 -1.76757,2.455901 -1.01826,3.655752 z"
       opacity="1"
       fill="#ffc800"
       id="path29037"
       style="clip-rule:evenodd;fill-rule:evenodd;stroke-width:0.19115;stroke-linecap:round;stroke-linejoin:round" /><path
       d="m 238.61553,51.980024 c 0.74931,1.199851 2.41996,1.50875 3.73163,0.68967 1.31168,-0.819079 1.76757,-2.455709 1.01845,-3.655751 -0.74931,-1.199851 -2.41996,-1.508751 -3.73164,-0.689671 -1.31167,0.81908 -1.76775,2.455709 -1.01844,3.655752 z"
       opacity="1"
       fill="#ffc800"
       id="path29039"
       style="clip-rule:evenodd;fill-rule:evenodd;stroke-width:0.19115;stroke-linecap:round;stroke-linejoin:round" /><path
       d="m 220.18489,52.027018 c 0.89878,1.092379 2.5954,1.181697 3.78959,0.19921 1.1942,-0.982488 1.43368,-2.664464 0.53506,-3.757056 -0.89879,-1.092378 -2.59541,-1.181698 -3.7896,-0.199209 -1.19419,0.982488 -1.43387,2.664487 -0.53505,3.757055 z"
       opacity="1"
       fill="#ffc800"
       id="path29041"
       style="clip-rule:evenodd;fill-rule:evenodd;stroke-width:0.19115;stroke-linecap:round;stroke-linejoin:round" /><path
       d="m 182.30129,44.491404 c 0,2.66867 0.5749,5.211034 1.61477,7.523409 1.03974,2.312376 2.54445,4.394902 4.40365,6.143757 1.85934,1.748856 6.93574,5.661017 9.05852,5.661017 2.12278,0 4.61684,0 5.47141,0 2.83718,0 5.53999,-0.540757 7.99838,-1.518867 2.45839,-0.97811 4.67222,-2.393294 6.53142,-4.14215 1.85934,-1.748855 3.36391,-3.831381 4.40379,-6.143757 1.03973,-2.312375 1.61477,-4.854739 1.61477,-7.523409 0,-2.66867 -0.57504,-5.211036 -1.61477,-7.523411 -1.03988,-2.312376 -2.54445,-4.394902 -4.40379,-6.143757 -1.8592,-1.748856 -4.07303,-3.16404 -6.53142,-4.14215 -2.45839,-0.97811 -5.1612,-1.518867 -7.99838,-1.518867 -1.43267,0 -4.6346,0 -5.47141,0 -1.0464,0 -1.23836,1.006285 -2.52696,1.518867 -2.45839,0.97811 -4.67222,2.393294 -6.53156,4.14215 -1.8592,1.748855 -3.36391,3.831381 -4.40365,6.143757 -1.03987,2.312375 -1.61477,4.854741 -1.61477,7.523411 z"
       opacity="1"
       fill="#d8aa00"
       id="path29043"
       style="clip-rule:evenodd;fill-rule:evenodd;stroke-width:0.138798;stroke-linecap:round;stroke-linejoin:round" /><path
       d="m 224.79077,51.922446 c 0.89881,1.092567 2.5956,1.181671 3.78982,0.199373 1.1942,-0.982489 1.43368,-2.664464 0.53487,-3.757032 -0.89879,-1.092378 -2.59541,-1.181697 -3.7896,-0.199209 -1.19422,0.982298 -1.43369,2.664464 -0.53509,3.756868 z"
       opacity="1"
       fill="#ffc800"
       id="path29045"
       style="clip-rule:evenodd;fill-rule:evenodd;stroke-width:0.19115;stroke-linecap:round;stroke-linejoin:round" /><path
       d="m 176.82987,44.491404 c 0,10.67468 9.19981,19.328183 20.54836,19.328183 11.34854,0 20.54835,-8.653503 20.54835,-19.328183 0,-10.674682 -9.19981,-19.328185 -20.54835,-19.328185 -11.34855,0 -20.54836,8.653503 -20.54836,19.328185 z"
       opacity="1"
       fill="#ffc800"
       id="path29047"
       style="clip-rule:evenodd;fill-rule:evenodd;stroke-width:0.138798;stroke-linecap:round;stroke-linejoin:round" /><path
       d="m 243.19599,52.474495 c 0.74931,1.200042 2.42016,1.50875 3.73183,0.689862 1.31168,-0.81908 1.76757,-2.45571 1.01826,-3.655752 -0.74931,-1.199851 -2.41996,-1.50875 -3.73164,-0.689671 -1.31167,0.818888 -1.76757,2.455709 -1.01845,3.655561 z"
       opacity="1"
       fill="#ffc800"
       id="path29051"
       style="clip-rule:evenodd;fill-rule:evenodd;stroke-width:0.19115;stroke-linecap:round;stroke-linejoin:round" /><path
       d="m 247.67213,53.24439 c 0.74931,1.200042 2.41997,1.50875 3.73164,0.68967 1.31168,-0.818888 1.76757,-2.455709 1.01845,-3.65556 -0.74931,-1.200042 -2.42016,-1.50875 -3.73183,-0.689862 -1.31167,0.81908 -1.76757,2.455901 -1.01826,3.655752 z"
       opacity="1"
       fill="#ffc800"
       id="path29053"
       style="clip-rule:evenodd;fill-rule:evenodd;stroke-width:0.19115;stroke-linecap:round;stroke-linejoin:round" /><path
       d="m 252.41634,54.47303 c 0.74931,1.199851 2.41996,1.50875 3.73163,0.68967 1.31168,-0.819079 1.76757,-2.455709 1.01845,-3.655751 -0.74931,-1.199851 -2.41996,-1.508751 -3.73164,-0.689671 -1.31167,0.81908 -1.76775,2.455709 -1.01844,3.655752 z"
       opacity="1"
       fill="#ffc800"
       id="path29055"
       style="clip-rule:evenodd;fill-rule:evenodd;stroke-width:0.19115;stroke-linecap:round;stroke-linejoin:round" /><path
       d="m 257.16729,55.846293 c 0.74931,1.200042 2.42016,1.50875 3.73183,0.689862 1.31168,-0.81908 1.76757,-2.45571 1.01826,-3.655752 -0.74931,-1.199851 -2.41996,-1.50875 -3.73164,-0.689671 -1.31167,0.818888 -1.76757,2.455709 -1.01845,3.655561 z"
       opacity="1"
       fill="#ffc800"
       id="path29057"
       style="clip-rule:evenodd;fill-rule:evenodd;stroke-width:0.19115;stroke-linecap:round;stroke-linejoin:round" /><path
       d="m 261.52667,56.855377 c 0.74931,1.200042 2.41997,1.50875 3.73164,0.68967 1.31168,-0.818888 1.76757,-2.455709 1.01845,-3.65556 -0.74931,-1.200042 -2.42016,-1.50875 -3.73183,-0.689862 -1.31167,0.81908 -1.76757,2.455901 -1.01826,3.655752 z"
       opacity="1"
       fill="#ffc800"
       id="path29059"
       style="clip-rule:evenodd;fill-rule:evenodd;stroke-width:0.19115;stroke-linecap:round;stroke-linejoin:round" /><path
       d="m 266.0619,58.888285 c 0.74931,1.199851 2.41996,1.50875 3.73163,0.68967 1.31168,-0.819079 1.76757,-2.455709 1.01845,-3.655751 -0.74931,-1.199851 -2.41996,-1.508751 -3.73164,-0.689671 -1.31167,0.81908 -1.76775,2.455709 -1.01844,3.655752 z"
       opacity="1"
       fill="#ffc800"
       id="path29061"
       style="clip-rule:evenodd;fill-rule:evenodd;stroke-width:0.19115;stroke-linecap:round;stroke-linejoin:round" /><path
       d="m 270.29528,61.220608 c 0.74931,1.200042 2.42016,1.50875 3.73183,0.689862 1.31168,-0.81908 1.76757,-2.45571 1.01826,-3.655752 -0.74931,-1.199851 -2.41996,-1.50875 -3.73164,-0.689671 -1.31167,0.818888 -1.76757,2.455709 -1.01845,3.655561 z"
       opacity="1"
       fill="#ffc800"
       id="path29063"
       style="clip-rule:evenodd;fill-rule:evenodd;stroke-width:0.19115;stroke-linecap:round;stroke-linejoin:round" /><path
       d="m 274.80529,63.6728 c 0.74931,1.200042 2.41997,1.50875 3.73164,0.68967 1.31168,-0.818888 1.76757,-2.455709 1.01845,-3.65556 -0.74931,-1.200042 -2.42016,-1.50875 -3.73183,-0.689862 -1.31167,0.81908 -1.76757,2.455901 -1.01826,3.655752 z"
       opacity="1"
       fill="#ffc800"
       id="path29065"
       style="clip-rule:evenodd;fill-rule:evenodd;stroke-width:0.19115;stroke-linecap:round;stroke-linejoin:round" /><path
       d="m 278.99603,66.592108 c 0.74931,1.199851 2.41996,1.50875 3.73163,0.68967 1.31168,-0.819079 1.76757,-2.455709 1.01845,-3.655751 -0.74931,-1.199851 -2.41996,-1.508751 -3.73164,-0.689671 -1.31167,0.81908 -1.76775,2.455709 -1.01844,3.655752 z"
       opacity="1"
       fill="#ffc800"
       id="path29067"
       style="clip-rule:evenodd;fill-rule:evenodd;stroke-width:0.19115;stroke-linecap:round;stroke-linejoin:round" /><path
       d="m 282.91403,68.693931 c 0.36794,1.366086 1.8768,2.14736 3.36992,1.745317 1.49319,-0.402223 2.40533,-1.835538 2.03739,-3.201624 -0.36798,-1.365902 -1.8766,-2.1473 -3.36978,-1.745078 -1.49313,0.402043 -2.40534,1.835536 -2.03753,3.201385 z"
       opacity="1"
       fill="#ffc800"
       id="path29069"
       style="clip-rule:evenodd;fill-rule:evenodd;stroke-width:0.19115;stroke-linecap:round;stroke-linejoin:round" /><path
       d="m 286.79155,70.927174 c 0.36793,1.366086 1.8766,2.147304 3.36978,1.745077 1.49314,-0.402039 2.40533,-1.835536 2.03753,-3.201384 -0.36793,-1.366085 -1.8768,-2.147359 -3.36993,-1.745317 -1.49317,0.402227 -2.40538,1.83572 -2.03738,3.201624 z"
       opacity="1"
       fill="#ffc800"
       id="path29071"
       style="clip-rule:evenodd;fill-rule:evenodd;stroke-width:0.19115;stroke-linecap:round;stroke-linejoin:round" /><path
       d="m 290.53955,74.191129 c 0.368,1.365904 1.87661,2.147301 3.36979,1.745075 1.49319,-0.402222 2.40533,-1.835536 2.03758,-3.201567 -0.368,-1.365903 -1.8766,-2.147301 -3.36979,-1.745078 -1.49319,0.402226 -2.40551,1.835484 -2.03758,3.20157 z"
       opacity="1"
       fill="#ffc800"
       id="path29073"
       style="clip-rule:evenodd;fill-rule:evenodd;stroke-width:0.19115;stroke-linecap:round;stroke-linejoin:round" /><path
       d="m 293.9117,77.653777 c 0.36793,1.366086 1.87678,2.147358 3.36991,1.745316 1.49319,-0.402223 2.40533,-1.835537 2.0374,-3.201622 -0.36799,-1.365904 -1.8766,-2.147301 -3.36979,-1.745079 -1.49312,0.402042 -2.40533,1.835537 -2.03752,3.201385 z"
       opacity="1"
       fill="#ffc800"
       id="path29075"
       style="clip-rule:evenodd;fill-rule:evenodd;stroke-width:0.19115;stroke-linecap:round;stroke-linejoin:round" /><path
       d="m 297.51365,81.31156 c 0.36793,1.366087 1.8766,2.147304 3.36978,1.745078 1.49314,-0.402039 2.40533,-1.835537 2.03753,-3.201384 -0.36793,-1.366086 -1.87679,-2.147358 -3.36991,-1.745316 -1.49318,0.402225 -2.4054,1.83572 -2.0374,3.201622 z"
       opacity="1"
       fill="#ffc800"
       id="path29077"
       style="clip-rule:evenodd;fill-rule:evenodd;stroke-width:0.19115;stroke-linecap:round;stroke-linejoin:round" /><path
       d="m 300.67429,85.323424 c 0.36798,1.365902 1.8766,2.1473 3.36978,1.745074 1.49318,-0.402223 2.40533,-1.835537 2.03757,-3.201567 -0.36799,-1.365904 -1.8766,-2.147302 -3.36979,-1.745079 -1.49317,0.402226 -2.4055,1.835484 -2.03756,3.201572 z"
       opacity="1"
       fill="#ffc800"
       id="path29079"
       style="clip-rule:evenodd;fill-rule:evenodd;stroke-width:0.19115;stroke-linecap:round;stroke-linejoin:round" /><path
       d="m 303.75074,88.421994 c -0.16436,1.405189 0.94763,2.689897 2.48344,2.869673 1.53595,0.179614 2.91422,-0.813719 3.07861,-2.218904 0.16435,-1.405023 -0.94746,-2.689767 -2.48339,-2.8694 -1.53583,-0.179801 -2.91423,0.813714 -3.07866,2.218631 z"
       opacity="1"
       fill="#ffc800"
       id="path29081"
       style="clip-rule:evenodd;fill-rule:evenodd;stroke-width:0.19115;stroke-linecap:round;stroke-linejoin:round" /><path
       d="m 306.52487,91.932936 c -0.16436,1.405188 0.94747,2.689768 2.4834,2.869398 1.53584,0.1798 2.91422,-0.81372 3.07865,-2.218629 0.16437,-1.405185 -0.94762,-2.689896 -2.48344,-2.869677 -1.53593,-0.179612 -2.91434,0.813869 -3.07861,2.218908 z"
       opacity="1"
       fill="#ffc800"
       id="path29083"
       style="clip-rule:evenodd;fill-rule:evenodd;stroke-width:0.19115;stroke-linecap:round;stroke-linejoin:round" /><path
       d="m 308.79683,96.353244 c -0.16435,1.40503 0.94747,2.68978 2.48341,2.86941 1.53594,0.17961 2.91421,-0.81372 3.07876,-2.21879 0.16434,-1.40503 -0.94747,-2.68977 -2.48341,-2.8694 -1.53595,-0.17962 -2.91437,0.8136 -3.07876,2.21878 z"
       opacity="1"
       fill="#ffc800"
       id="path29085"
       style="clip-rule:evenodd;fill-rule:evenodd;stroke-width:0.19115;stroke-linecap:round;stroke-linejoin:round" /><path
       d="m 310.64606,100.81885 c -0.16436,1.40519 0.9476,2.68989 2.48343,2.86967 1.53595,0.17962 2.91422,-0.81372 3.07861,-2.2189 0.16435,-1.40502 -0.94746,-2.689756 -2.4834,-2.869396 -1.53581,-0.1798 -2.91422,0.81372 -3.07864,2.218626 z"
       opacity="1"
       fill="#ffc800"
       id="path29087"
       style="clip-rule:evenodd;fill-rule:evenodd;stroke-width:0.19115;stroke-linecap:round;stroke-linejoin:round" /><path
       d="m 312.63644,105.55085 c -0.16436,1.40519 0.94745,2.68977 2.4834,2.86941 1.53581,0.1799 2.91421,-0.81372 3.07864,-2.21864 0.16436,-1.40518 -0.94762,-2.68989 -2.48343,-2.86967 -1.53594,-0.17961 -2.91435,0.81387 -3.07861,2.2189 z"
       opacity="1"
       fill="#ffc800"
       id="path29089"
       style="clip-rule:evenodd;fill-rule:evenodd;stroke-width:0.19115;stroke-linecap:round;stroke-linejoin:round" /><path
       d="m 314.08572,110.44824 c -0.16435,1.40501 0.94746,2.68976 2.48341,2.86939 1.5359,0.17991 2.91422,-0.81372 3.07875,-2.21879 0.16434,-1.40503 -0.94746,-2.68977 -2.48341,-2.86941 -1.53593,-0.17961 -2.91436,0.81361 -3.07875,2.21881 z"
       opacity="1"
       fill="#ffc800"
       id="path29091"
       style="clip-rule:evenodd;fill-rule:evenodd;stroke-width:0.19115;stroke-linecap:round;stroke-linejoin:round" /><path
       d="m 314.89504,115.36528 c -0.16435,1.40501 0.94746,2.68976 2.48341,2.86939 1.5359,0.17991 2.91422,-0.81372 3.07875,-2.21879 0.16434,-1.40503 -0.94746,-2.68977 -2.48341,-2.86941 -1.53593,-0.17961 -2.91436,0.81361 -3.07875,2.21881 z"
       opacity="1"
       fill="#ffc800"
       id="path29093"
       style="clip-rule:evenodd;fill-rule:evenodd;stroke-width:0.19115;stroke-linecap:round;stroke-linejoin:round" /><path
       d="m 174.99911,52.362891 c -0.74931,1.200042 -2.42016,1.50875 -3.73183,0.689862 -1.31168,-0.81908 -1.76757,-2.45571 -1.01826,-3.655752 0.74931,-1.199851 2.41996,-1.50875 3.73164,-0.689671 1.31167,0.818888 1.76757,2.455709 1.01845,3.655561 z"
       opacity="1"
       fill="#ffc800"
       id="path29095"
       style="clip-rule:evenodd;fill-rule:evenodd;stroke-width:0.19115;stroke-linecap:round;stroke-linejoin:round" /><path
       d="m 170.75747,52.593753 c -0.74931,1.200042 -2.41997,1.50875 -3.73164,0.68967 -1.31168,-0.818888 -1.76757,-2.455709 -1.01845,-3.65556 0.74931,-1.200042 2.42016,-1.50875 3.73183,-0.689862 1.31167,0.81908 1.76757,2.455901 1.01826,3.655752 z"
       opacity="1"
       fill="#ffc800"
       id="path29097"
       style="clip-rule:evenodd;fill-rule:evenodd;stroke-width:0.19115;stroke-linecap:round;stroke-linejoin:round" /><path
       d="m 166.33899,53.232576 c -0.74931,1.199851 -2.41996,1.50875 -3.73163,0.68967 -1.31168,-0.819079 -1.76757,-2.455709 -1.01845,-3.655751 0.74931,-1.199851 2.41996,-1.508751 3.73164,-0.689671 1.31167,0.81908 1.76775,2.455709 1.01844,3.655752 z"
       opacity="1"
       fill="#ffc800"
       id="path29099"
       style="clip-rule:evenodd;fill-rule:evenodd;stroke-width:0.19115;stroke-linecap:round;stroke-linejoin:round" /><path
       d="m 179.87059,52.695321 c -0.89881,1.092567 -2.5956,1.181671 -3.78982,0.199373 -1.1942,-0.982489 -1.43368,-2.664464 -0.53487,-3.757032 0.89879,-1.092378 2.59541,-1.181697 3.7896,-0.199209 1.19422,0.982298 1.43369,2.664464 0.53509,3.756868 z"
       opacity="1"
       fill="#ffc800"
       id="path29101"
       style="clip-rule:evenodd;fill-rule:evenodd;stroke-width:0.19115;stroke-linecap:round;stroke-linejoin:round" /><path
       d="m 161.85795,54.28575 c -0.74931,1.200042 -2.42016,1.50875 -3.73183,0.689862 -1.31168,-0.81908 -1.76757,-2.45571 -1.01826,-3.655752 0.74931,-1.199851 2.41996,-1.50875 3.73164,-0.689671 1.31167,0.818888 1.76757,2.455709 1.01845,3.655561 z"
       opacity="1"
       fill="#ffc800"
       id="path29103"
       style="clip-rule:evenodd;fill-rule:evenodd;stroke-width:0.19115;stroke-linecap:round;stroke-linejoin:round" /><path
       d="m 157.50354,55.843204 c -0.74931,1.200042 -2.41997,1.50875 -3.73164,0.68967 -1.31168,-0.818888 -1.76757,-2.455709 -1.01845,-3.65556 0.74931,-1.200042 2.42016,-1.50875 3.73183,-0.689862 1.31167,0.81908 1.76757,2.455901 1.01826,3.655752 z"
       opacity="1"
       fill="#ffc800"
       id="path29105"
       style="clip-rule:evenodd;fill-rule:evenodd;stroke-width:0.19115;stroke-linecap:round;stroke-linejoin:round" /><path
       d="m 153.66272,57.577493 c -0.48387,1.329279 -2.05398,1.978312 -3.50713,1.449414 -1.45315,-0.528896 -2.23891,-2.035208 -1.75527,-3.364635 0.48386,-1.329279 2.05397,-1.978313 3.50713,-1.449417 1.45315,0.528899 2.23909,2.035171 1.75527,3.364638 z"
       opacity="1"
       fill="#ffc800"
       id="path29107"
       style="clip-rule:evenodd;fill-rule:evenodd;stroke-width:0.19115;stroke-linecap:round;stroke-linejoin:round" /><path
       d="m 149.30042,59.907238 c -0.48383,1.329466 -2.05418,1.978354 -3.50728,1.449643 -1.45316,-0.528896 -2.23892,-2.035209 -1.75509,-3.364675 0.48386,-1.329279 2.05397,-1.978312 3.50713,-1.449417 1.45311,0.528711 2.23891,2.035208 1.75524,3.364449 z"
       opacity="1"
       fill="#ffc800"
       id="path29109"
       style="clip-rule:evenodd;fill-rule:evenodd;stroke-width:0.19115;stroke-linecap:round;stroke-linejoin:round" /><path
       d="m 145.24554,61.799441 c -0.48383,1.329465 -2.05398,1.978314 -3.50713,1.449415 -1.45312,-0.528708 -2.23892,-2.035208 -1.75524,-3.364447 0.48383,-1.329466 2.05417,-1.978354 3.50728,-1.449643 1.45315,0.528898 2.23896,2.035396 1.75509,3.364675 z"
       opacity="1"
       fill="#ffc800"
       id="path29111"
       style="clip-rule:evenodd;fill-rule:evenodd;stroke-width:0.19115;stroke-linecap:round;stroke-linejoin:round" /><path
       d="m 141.23122,64.729668 c -0.48387,1.329279 -2.05398,1.978312 -3.50713,1.449413 -1.45315,-0.528895 -2.23891,-2.035208 -1.75527,-3.364634 0.48386,-1.329279 2.05397,-1.978313 3.50713,-1.449417 1.45315,0.528898 2.23909,2.035171 1.75527,3.364638 z"
       opacity="1"
       fill="#ffc800"
       id="path29113"
       style="clip-rule:evenodd;fill-rule:evenodd;stroke-width:0.19115;stroke-linecap:round;stroke-linejoin:round" /><path
       d="m 137.57433,67.890114 c -0.48382,1.329466 -2.05417,1.978354 -3.50728,1.449643 -1.45315,-0.528896 -2.23891,-2.035209 -1.75509,-3.364675 0.48387,-1.329279 2.05398,-1.978312 3.50713,-1.449417 1.45311,0.528711 2.23892,2.035209 1.75524,3.364449 z"
       opacity="1"
       fill="#ffc800"
       id="path29115"
       style="clip-rule:evenodd;fill-rule:evenodd;stroke-width:0.19115;stroke-linecap:round;stroke-linejoin:round" /><path
       d="m 133.67173,71.225252 c -0.48383,1.329466 -2.05398,1.978314 -3.50713,1.449416 -1.45312,-0.528709 -2.23892,-2.035208 -1.75524,-3.364448 0.48383,-1.329465 2.05417,-1.978353 3.50728,-1.449643 1.45315,0.528899 2.23895,2.035396 1.75509,3.364675 z"
       opacity="1"
       fill="#ffc800"
       id="path29117"
       style="clip-rule:evenodd;fill-rule:evenodd;stroke-width:0.19115;stroke-linecap:round;stroke-linejoin:round" /><path
       d="m 130.17843,74.951039 c -0.48387,1.329279 -2.05398,1.978313 -3.50712,1.449414 -1.45316,-0.528895 -2.23892,-2.035208 -1.75528,-3.364634 0.48386,-1.329279 2.05398,-1.978313 3.50713,-1.449417 1.45315,0.528898 2.23909,2.035171 1.75527,3.364637 z"
       opacity="1"
       fill="#ffc800"
       id="path29119"
       style="clip-rule:evenodd;fill-rule:evenodd;stroke-width:0.19115;stroke-linecap:round;stroke-linejoin:round" /><path
       d="m 126.78219,77.820529 c -0.0763,1.41271 -1.39006,2.490233 -2.93412,2.406957 -1.54416,-0.08344 -2.73401,-1.296137 -2.65772,-2.708848 0.0764,-1.412538 1.38988,-2.490133 2.93403,-2.406695 1.54407,0.08327 2.73403,1.296134 2.65781,2.708586 z"
       opacity="1"
       fill="#ffc800"
       id="path29121"
       style="clip-rule:evenodd;fill-rule:evenodd;stroke-width:0.19115;stroke-linecap:round;stroke-linejoin:round" /><path
       d="m 123.45284,80.810169 c -0.0763,1.412709 -1.38988,2.490138 -2.93403,2.406694 -1.54408,-0.08327 -2.73402,-1.296135 -2.65781,-2.708584 0.0763,-1.412707 1.39006,-2.490233 2.93412,-2.40696 1.54415,0.08345 2.73411,1.296306 2.65772,2.70885 z"
       opacity="1"
       fill="#ffc800"
       id="path29123"
       style="clip-rule:evenodd;fill-rule:evenodd;stroke-width:0.19115;stroke-linecap:round;stroke-linejoin:round" /><g
       id="g1106"
       transform="matrix(0.7509155,0,0,0.7509155,82.850879,-277.37648)"
       style="fill:#cb9f00;fill-opacity:1"><path
         d="m 152.608,444.545 c -8.994,0 -16.288,-7.293 -16.288,-16.29 0,-7.196 4.667,-13.302 11.14,-15.457 0.815,-0.149 1.112,0.354 1.112,0.786 0,0.387 -0.014,1.411 -0.022,2.77 -4.531,-0.984 -5.487,2.184 -5.487,2.184 -0.741,1.882 -1.809,2.383 -1.809,2.383 -1.479,1.01 0.112,0.99 0.112,0.99 1.635,-0.115 2.495,-1.679 2.495,-1.679 1.453,-2.489 3.813,-1.77 4.741,-1.353 0.148,1.052 0.569,1.77 1.034,2.177 -3.617,0.412 -7.42,1.809 -7.42,8.051 0,1.779 0.635,3.232 1.677,4.371 -0.168,0.412 -0.727,2.068 0.16,4.311 0,0 1.367,0.438 4.479,-1.669 1.299,0.361 2.693,0.541 4.078,0.548 1.384,-0.007 2.777,-0.187 4.078,-0.548 3.11,2.107 4.475,1.669 4.475,1.669 0.889,-2.243 0.33,-3.899 0.163,-4.311 1.044,-1.139 1.674,-2.592 1.674,-4.371 0,-6.258 -3.809,-7.635 -7.437,-8.038 0.584,-0.503 1.105,-1.497 1.105,-3.017 0,-2.177 -0.02,-3.934 -0.02,-4.468 0,-0.436 0.294,-0.943 1.12,-0.784 6.468,2.159 11.131,8.26 11.131,15.455 0,8.997 -7.294,16.29 -16.291,16.29"
         style="fill:#cb9f00;fill-opacity:1;fill-rule:evenodd;stroke:none;stroke-width:0.1"
         id="path14" /></g></g></svg>
