<?xml version="1.0" encoding="UTF-8" standalone="no"?>
<!-- Created with Inkscape (http://www.inkscape.org/) -->

<svg
   xmlns:dc="http://purl.org/dc/elements/1.1/"
   xmlns:cc="http://creativecommons.org/ns#"
   xmlns:rdf="http://www.w3.org/1999/02/22-rdf-syntax-ns#"
   xmlns:svg="http://www.w3.org/2000/svg"
   xmlns="http://www.w3.org/2000/svg"
   xmlns:sodipodi="http://sodipodi.sourceforge.net/DTD/sodipodi-0.dtd"
   xmlns:inkscape="http://www.inkscape.org/namespaces/inkscape"
   version="1.1"
   id="svg2"
   xml:space="preserve"
   width="571.20001"
   height="362.33334"
   viewBox="0 0 571.20001 362.33334"
   sodipodi:docname="Blobsherlock.svg"
   inkscape:version="0.92.4 (5da689c313, 2019-01-14)"><metadata
     id="metadata8"><rdf:RDF><cc:Work
         rdf:about=""><dc:format>image/svg+xml</dc:format><dc:type
           rdf:resource="http://purl.org/dc/dcmitype/StillImage" /><dc:title></dc:title></cc:Work></rdf:RDF></metadata><defs
     id="defs6"><clipPath
       clipPathUnits="userSpaceOnUse"
       id="clipPath20"><path
         d="m 1720.59,26.3711 c -244.08,0 -473.54,128.5199 -527.7,339.9999 62.62,-54.973 142.81,-72.301 221.9,-72.301 128.48,0 254.03,45.77 296.58,50.418 4.28,0.473 8.62,0.692 13.03,0.692 64.37,0 143.53,-46.86 283.06,-51.391 8.03,-0.258 15.88,-0.379 23.53,-0.379 54.59,0 100.08,6.18 142.99,12.36 42.9,6.179 83.21,12.359 127.41,12.359 20.49,0 41.82,-1.328 64.63,-4.598 35.57,-5.109 76.62,-22.449 125.99,-42.261 -37,6.05 -72.32,9.64 -105.94,9.64 -82.23,0 -154.41,-21.441 -216.97,-80.75 C 2042.55,80.1992 1878.48,26.3711 1720.59,26.3711 M 3242.14,134.699 c -162.01,0 -308.59,29.883 -440.46,62.633 9.3,-0.344 18.76,-0.523 28.39,-0.523 77.62,0 165.99,11.5 267.26,41.679 v 0 c 0.12,0.043 0.26,0.082 0.38,0.114 0.03,0.007 0.07,0.019 0.1,0.027 0.09,0.031 0.19,0.062 0.29,0.09 0.03,0.011 0.06,0.019 0.09,0.031 0.1,0.031 0.2,0.059 0.29,0.09 0.04,0.012 0.06,0.019 0.09,0.031 0.12,0.027 0.17,0.051 0.29,0.09 0.04,0.008 0.08,0.019 0.11,0.027 0.1,0.032 0.19,0.063 0.28,0.082 0.03,0.012 0.07,0.032 0.1,0.039 0.09,0.02 0.19,0.051 0.28,0.082 0.03,0.008 0.07,0.02 0.1,0.028 0.09,0.031 0.21,0.07 0.3,0.101 l 0.07,0.02 c 0.09,0.031 0.21,0.07 0.31,0.09 l 0.08,0.031 c 0.12,0.039 0.19,0.059 0.31,0.098 l 0.06,0.023 c 0.12,0.027 0.21,0.059 0.33,0.098 l 0.05,0.019 c 0.12,0.031 0.24,0.071 0.36,0.11 h 0.01 c 0.15,0.05 0.22,0.07 0.37,0.121 l 0.02,0.011 c 101.11,32.168 158.36,105.129 178.77,201.891 l 0.01,0.027 c 0.02,0.11 0.05,0.223 0.07,0.34 l 0.01,0.031 c 0.02,0.11 0.04,0.192 0.06,0.309 0.01,0.031 0.01,0.043 0.02,0.07 0.02,0.11 0.04,0.2 0.06,0.313 l 0.01,0.047 c 0.03,0.113 0.04,0.203 0.07,0.312 l 0.01,0.059 c 0.04,0.199 0.09,0.461 0.14,0.672 0.02,0.09 0.02,0.109 0.04,0.207 0.01,0.062 0.03,0.152 0.04,0.211 0.02,0.09 0.05,0.218 0.06,0.308 l 0.01,0.032 c 0.02,0.101 0.04,0.21 0.06,0.3 0.01,0.032 0.01,0.032 0.01,0.059 0.05,0.25 0.09,0.43 0.14,0.672 l 0.01,0.039 c 0.04,0.211 0.09,0.469 0.13,0.68 v 0.019 c 47.43,240.832 -128.74,625.481 -421.7,900.081 21.67,-8.49 38.69,-12.46 51.53,-12.46 115.22,0.01 -105.7,319.86 -327.61,575.86 -203.51,234.77 -387.57,250.94 -434.46,250.94 -7.5,0 -11.49,-0.41 -11.49,-0.41 l 0.22,-0.39 c -17.01,1.95 -30.14,2.37 -38.34,2.37 -6.3,0 -9.68,-0.25 -9.68,-0.25 v 0 c 0,0 -165.65,0 -400.49,-190.75 -48.98,-39.78 -92.71,-85.46 -131.23,-132.82 -11.11,47.92 -25.76,96.57 -44.42,145.73 -158.72,418.1 191.07,733.08 600.45,733.08 265.81,0 556.69,-132.7 749.98,-456.13 383.34,-641.43 573.3,-173.38 1141.39,-614.1 C 4364.36,1369.18 4469.52,546.289 3748.17,239.68 3565.14,161.891 3396.63,134.711 3242.14,134.699 M 2177.28,2091.62 c -51.61,50.93 -86.74,70.48 -87.08,70.66 0.34,-0.18 35.47,-19.73 87.08,-70.65 v -0.01"
         id="path18"
         inkscape:connector-curvature="0" /></clipPath><linearGradient
       x1="0"
       y1="0"
       x2="1"
       y2="0"
       gradientUnits="userSpaceOnUse"
       gradientTransform="matrix(-2087.77,-2087.77,-2087.77,2087.77,3505.69,2153.61)"
       spreadMethod="pad"
       id="linearGradient26"><stop
         style="stop-opacity:1;stop-color:#1a2f50"
         offset="0"
         id="stop22" /><stop
         style="stop-opacity:1;stop-color:#3f79be"
         offset="1"
         id="stop24" /></linearGradient><clipPath
       clipPathUnits="userSpaceOnUse"
       id="clipPath32"><path
         d="M 0,0 H 1528 V 1528 H 0 Z"
         id="path30"
         inkscape:connector-curvature="0" /></clipPath><clipPath
       clipPathUnits="userSpaceOnUse"
       id="clipPath36"><path
         d="M 1527.21,0 H 0 v 1527.21 h 1527.21 z"
         id="path34"
         inkscape:connector-curvature="0" /></clipPath><pattern
       patternTransform="matrix(7.07107,-7.07107,7.07107,7.07107,-869,486.902)"
       patternUnits="userSpaceOnUse"
       x="0"
       y="0"
       width="152.721"
       height="152.721"
       id="pattern100"><g
         transform="scale(0.1)"
         id="g98"><g
           id="g96"><g
             clip-path="url(#clipPath32)"
             id="g94"><g
               clip-path="url(#clipPath36)"
               id="g92"><path
                 d="m 20,0.00390625 -20,0 L 0,1527.2 l 20,0 L 20,0.00390625"
                 style="fill:#1a2f50;fill-opacity:1;fill-rule:nonzero;stroke:none"
                 id="path38" /><path
                 d="m 76.5625,0.00390625 -20,0 0,1527.19609375 20,0 0,-1527.19609375"
                 style="fill:#1a2f50;fill-opacity:1;fill-rule:nonzero;stroke:none"
                 id="path40" /><path
                 d="m 133.125,0.00390625 -20,0 0,1527.19609375 20,0 0,-1527.19609375"
                 style="fill:#1a2f50;fill-opacity:1;fill-rule:nonzero;stroke:none"
                 id="path42" /><path
                 d="m 189.688,0.00390625 -20,0 0,1527.19609375 20,0 0,-1527.19609375"
                 style="fill:#1a2f50;fill-opacity:1;fill-rule:nonzero;stroke:none"
                 id="path44" /><path
                 d="m 246.25,0.00390625 -20,0 0,1527.19609375 20,0 0,-1527.19609375"
                 style="fill:#1a2f50;fill-opacity:1;fill-rule:nonzero;stroke:none"
                 id="path46" /><path
                 d="m 302.813,0.00390625 -20,0 0,1527.19609375 20,0 0,-1527.19609375"
                 style="fill:#1a2f50;fill-opacity:1;fill-rule:nonzero;stroke:none"
                 id="path48" /><path
                 d="m 359.375,0.00390625 -20,0 0,1527.19609375 20,0 0,-1527.19609375"
                 style="fill:#1a2f50;fill-opacity:1;fill-rule:nonzero;stroke:none"
                 id="path50" /><path
                 d="m 415.938,0.00390625 -20,0 0,1527.19609375 20,0 0,-1527.19609375"
                 style="fill:#1a2f50;fill-opacity:1;fill-rule:nonzero;stroke:none"
                 id="path52" /><path
                 d="m 472.512,0.00390625 -20,0 0,1527.19609375 20,0 0,-1527.19609375"
                 style="fill:#1a2f50;fill-opacity:1;fill-rule:nonzero;stroke:none"
                 id="path54" /><path
                 d="m 529.07,0.00390625 -20,0 0,1527.19609375 20,0 0,-1527.19609375"
                 style="fill:#1a2f50;fill-opacity:1;fill-rule:nonzero;stroke:none"
                 id="path56" /><path
                 d="m 585.637,0.00390625 -20,0 0,1527.19609375 20,0 0,-1527.19609375"
                 style="fill:#1a2f50;fill-opacity:1;fill-rule:nonzero;stroke:none"
                 id="path58" /><path
                 d="m 642.195,0.00390625 -20,0 0,1527.19609375 20,0 0,-1527.19609375"
                 style="fill:#1a2f50;fill-opacity:1;fill-rule:nonzero;stroke:none"
                 id="path60" /><path
                 d="m 698.762,0.00390625 -20,0 0,1527.19609375 20,0 0,-1527.19609375"
                 style="fill:#1a2f50;fill-opacity:1;fill-rule:nonzero;stroke:none"
                 id="path62" /><path
                 d="m 755.32,0.00390625 -20,0 0,1527.19609375 20,0 0,-1527.19609375"
                 style="fill:#1a2f50;fill-opacity:1;fill-rule:nonzero;stroke:none"
                 id="path64" /><path
                 d="m 811.887,0.00390625 -20,0 0,1527.19609375 20,0 0,-1527.19609375"
                 style="fill:#1a2f50;fill-opacity:1;fill-rule:nonzero;stroke:none"
                 id="path66" /><path
                 d="m 868.445,0.00390625 -20,0 0,1527.19609375 20,0 0,-1527.19609375"
                 style="fill:#1a2f50;fill-opacity:1;fill-rule:nonzero;stroke:none"
                 id="path68" /><path
                 d="m 925.012,0.00390625 -20,0 0,1527.19609375 20,0 0,-1527.19609375"
                 style="fill:#1a2f50;fill-opacity:1;fill-rule:nonzero;stroke:none"
                 id="path70" /><path
                 d="m 981.57,0.00390625 -20,0 0,1527.19609375 20,0 0,-1527.19609375"
                 style="fill:#1a2f50;fill-opacity:1;fill-rule:nonzero;stroke:none"
                 id="path72" /><path
                 d="m 1038.13,0.00390625 -20,0 0,1527.19609375 20,0 0,-1527.19609375"
                 style="fill:#1a2f50;fill-opacity:1;fill-rule:nonzero;stroke:none"
                 id="path74" /><path
                 d="m 1094.7,0.00390625 -20,0 0,1527.19609375 20,0 0,-1527.19609375"
                 style="fill:#1a2f50;fill-opacity:1;fill-rule:nonzero;stroke:none"
                 id="path76" /><path
                 d="m 1151.26,0.00390625 -20,0 0,1527.19609375 20,0 0,-1527.19609375"
                 style="fill:#1a2f50;fill-opacity:1;fill-rule:nonzero;stroke:none"
                 id="path78" /><path
                 d="m 1207.82,0.00390625 -20,0 0,1527.19609375 20,0 0,-1527.19609375"
                 style="fill:#1a2f50;fill-opacity:1;fill-rule:nonzero;stroke:none"
                 id="path80" /><path
                 d="m 1264.39,0.00390625 -20,0 0,1527.19609375 20,0 0,-1527.19609375"
                 style="fill:#1a2f50;fill-opacity:1;fill-rule:nonzero;stroke:none"
                 id="path82" /><path
                 d="m 1320.96,0.00390625 -20,0 0,1527.19609375 20,0 0,-1527.19609375"
                 style="fill:#1a2f50;fill-opacity:1;fill-rule:nonzero;stroke:none"
                 id="path84" /><path
                 d="m 1377.52,0.00390625 -20,0 0,1527.19609375 20,0 0,-1527.19609375"
                 style="fill:#1a2f50;fill-opacity:1;fill-rule:nonzero;stroke:none"
                 id="path86" /><path
                 d="m 1434.08,0.00390625 -20,0 0,1527.19609375 20,0 0,-1527.19609375"
                 style="fill:#1a2f50;fill-opacity:1;fill-rule:nonzero;stroke:none"
                 id="path88" /><path
                 d="m 1490.64,0.00390625 -20,0 0,1527.19609375 20,0 0,-1527.19609375"
                 style="fill:#1a2f50;fill-opacity:1;fill-rule:nonzero;stroke:none"
                 id="path90" /></g></g></g></g></pattern><clipPath
       clipPathUnits="userSpaceOnUse"
       id="clipPath110"><path
         d="m 1075.68,1483.74 c 0,0 -106.504,423.29 -480.25,346.12 C 221.684,1752.69 316.004,1522.24 113.324,1360.12 -89.3594,1197.99 -20.9609,850.621 324.961,861.441 670.883,872.262 1150.16,1168.88 1075.68,1483.74 Z"
         id="path108"
         inkscape:connector-curvature="0" /></clipPath><linearGradient
       x1="0"
       y1="0"
       x2="1"
       y2="0"
       gradientUnits="userSpaceOnUse"
       gradientTransform="matrix(-586.018,586.018,586.018,586.018,827.89,1016.45)"
       spreadMethod="pad"
       id="linearGradient116"><stop
         style="stop-opacity:1;stop-color:#1a2f50"
         offset="0"
         id="stop112" /><stop
         style="stop-opacity:1;stop-color:#3f79be"
         offset="1"
         id="stop114" /></linearGradient><clipPath
       clipPathUnits="userSpaceOnUse"
       id="clipPath164"><path
         d="m 2090.2,2162.28 c 0,0 93.42,-51.68 199.94,-207.7 106.53,-156.02 203.7,-563.57 203.7,-563.57 0,0 118.42,36.17 315.08,0.26 0,0 -34.55,301.83 -359.36,614.15 -177.1,170.3 -359.36,156.86 -359.36,156.86"
         id="path162"
         inkscape:connector-curvature="0" /></clipPath><linearGradient
       y1="296.12399"
       id="LinearGradient"
       x1="164.543"
       y2="24.3913"
       x2="519.659"
       gradientUnits="userSpaceOnUse"
       gradientTransform="matrix(0.75000002,0,0,-0.75000002,6.115002,259.20975)"><stop
         stop-color="#3e8cca"
         offset="0"
         id="stop1659" /><stop
         stop-color="#004a85"
         offset="1"
         id="stop1661" /></linearGradient><linearGradient
       y1="290.63699"
       id="LinearGradient_2"
       x1="72.241203"
       y2="88.023102"
       x2="554.89301"
       gradientUnits="userSpaceOnUse"
       gradientTransform="matrix(0.75000002,0,0,-0.75000002,6.115002,259.20975)"><stop
         stop-color="#ffc075"
         offset="0.00603622"
         id="stop1664" /><stop
         stop-color="#fd971f"
         offset="1"
         id="stop1666" /></linearGradient></defs><sodipodi:namedview
     pagecolor="#ffffff"
     bordercolor="#666666"
     borderopacity="1"
     objecttolerance="10"
     gridtolerance="10"
     guidetolerance="10"
     inkscape:pageopacity="0"
     inkscape:pageshadow="2"
     inkscape:window-width="3840"
     inkscape:window-height="2047"
     id="namedview4"
     showgrid="false"
     inkscape:zoom="1.8422506"
     inkscape:cx="186.08659"
     inkscape:cy="211.90333"
     inkscape:window-x="2560"
     inkscape:window-y="0"
     inkscape:window-maximized="1"
     inkscape:current-layer="g10" /><g
     id="g10"
     inkscape:groupmode="layer"
     inkscape:label="ink_ext_XXXXXX"
     transform="matrix(1.3333333,0,0,-1.3333333,0,362.33333)"><path
       id="path1674"
       d="m 51.734728,76.514245 c 0,90.796505 73.605532,164.402025 164.402032,164.402025 90.7965,0 164.4015,-73.60552 164.4015,-164.402025 0,-14.718 -1.93425,-28.984501 -5.562,-42.558751 -21.6165,-3.41475 -303.044331,-3.41475 -317.825782,0.5505 -3.533625,13.40925 -5.41575,27.489001 -5.41575,42.008251 z"
       inkscape:connector-curvature="0"
       style="clip-rule:evenodd;opacity:1;fill:url(#LinearGradient);fill-rule:evenodd;stroke-width:0.75;stroke-linecap:round;stroke-linejoin:round" /><path
       id="path1676"
       d="m 51.734728,76.514245 c 0,90.796505 73.605532,164.402025 164.402032,164.402025 90.7965,0 164.4015,-73.60552 164.4015,-164.402025 0,-14.718 -1.93425,-28.984501 -5.562,-42.558751 -21.6165,-3.41475 -303.044331,-3.41475 -317.825782,0.5505 -3.533625,13.40925 -5.41575,27.489001 -5.41575,42.008251 z"
       inkscape:connector-curvature="0"
       style="clip-rule:evenodd;opacity:1;fill:#9ff0ff;fill-rule:evenodd;stroke-width:0.75;stroke-linecap:round;stroke-linejoin:round" /><path
       id="path1678"
       d="m 257.27576,187.32772 c 47.25075,19.17533 112.1985,-14.74747 126.5265,-48.59797 17.47725,-41.290504 -24.3195,-97.497756 -24.3195,-97.497756 H 64.702979 c 0,0 -67.8387772,70.229256 13.421625,100.325256 C 118.612,156.552 135.91226,118.2285 181.09676,123.0585 c 69.27,7.40475 31.68525,46.21275 76.179,64.26922 z"
       inkscape:connector-curvature="0"
       style="clip-rule:evenodd;opacity:1;fill:url(#LinearGradient_2);fill-rule:evenodd;stroke-width:0.75;stroke-linecap:round;stroke-linejoin:round" /><path
       id="path1680"
       d="M 417.77201,34.654494 C 417.77201,15.515244 326.62976,-6.91226e-6 214.20026,-6.91226e-6 101.77,-6.91226e-6 10.628007,15.515244 10.628007,34.654494 c 0,19.138501 91.141993,34.653751 203.572253,34.653751 112.4295,0 203.57175,-15.51525 203.57175,-34.653751"
       inkscape:connector-curvature="0"
       style="clip-rule:evenodd;opacity:1;fill:#272822;fill-rule:evenodd;stroke-width:0.75;stroke-linecap:round;stroke-linejoin:round;fill-opacity:1" /><path
       id="path1682"
       d="m 124.02326,183.501 c -8.02726,11.24137 15.879,1.85025 25.9725,7.57807 10.0935,5.72775 -12.73125,10.99418 -9.4425,13.93155 8.26875,7.3845 25.12875,-1.07265 26.5635,3.5727 1.27575,4.13258 -8.31675,9.48353 0,11.6637 8.88525,2.32928 11.2905,-2.83357 19.5735,0 4.1805,1.43003 24.2085,7.52363 28.09875,6.33165 9.27975,-2.84362 -28.09875,-13.93395 -28.09875,-21.56805 0,-7.63417 28.09875,-1.76295 28.09875,-8.96857 0,-7.20555 -34.9635,2.55105 -28.09875,-12.54105 3.10725,-6.831 20.07225,3.96727 27.2085,-4.401 2.7915,-3.273 -18.408,-4.92225 -21.84,-10.6845 -0.99825,-1.677 -14.4225,-13.8045 -9.288,-20.2935 2.31525,-2.92575 20.4105,18.83025 26.19525,12.2565 5.784,-6.57375 -10.953,-14.94675 -7.81725,-19.569 2.9115,-4.29225 10.36425,-1.82775 18.97275,0 8.60925,1.8285 11.5965,14.77275 15.462,7.3125 3.8655,-7.4595 -20.8335,-41.787 -20.8335,-42.61125 0,-52.513505 -41.961,-46.621505 -75.94125,-46.621505 -0.52275,0 -21.85726,-6.281251 -28.99201,-3.81375 -6.89475,2.385 14.21326,14.2095 -3.80325,14.2095 -17.342996,0 -24.898796,-0.0735 -24.793496,6.81525 0.07725,5.06925 37.896756,-7.5075 35.445746,5.62875 -3.3735,18.080251 -35.445746,17.417251 -31.132496,21.156755 12.31275,10.67625 63.454506,-17.343755 60.089256,-9.938254 -3.84075,8.451004 0.58575,12.563254 -3.84075,21.198004 -3.53175,6.89025 -23.34301,-12.747 -26.48851,-4.8 -4.7535,12.0075 25.82626,20.892 26.83426,22.227 9.63225,12.7575 -21.46275,9.237 -21.46275,16.5495 0,7.9995 33.9615,-5.06925 31.53375,12.86475 -0.54375,4.0185 -20.25975,-2.56875 -21.40725,0 -2.664,5.964 6.03525,5.7375 15.105,12.795 5.86575,4.5645 -15.105,0.2415 -21.873,9.71925 z"
       inkscape:connector-curvature="0"
       style="clip-rule:evenodd;opacity:1;fill:#a6e22e;fill-rule:evenodd;stroke-width:0.75;stroke-linecap:round;stroke-linejoin:round" /><path
       id="path1684"
       d="m 180.73151,186.02002 c -0.24225,4.0098 4.6575,6.78923 6.789,10.65758 2.1315,3.86827 -4.97325,4.263 -4.6575,8.05237 0.53625,6.43425 15.83475,12.28568 28.4985,18.31515 5.709,2.71785 2.48475,3.8223 3.4275,3.53355 3.8595,-1.18275 -0.3525,-3.79215 -6.58875,-6.9861 -8.7585,-4.48515 -21.51,-10.12312 -21.51,-14.58195 0,-7.63417 28.09875,-1.76295 28.09875,-8.96857 0,-7.20555 -34.9635,2.55105 -28.09875,-12.54105 3.10725,-6.831 20.07225,3.96727 27.2085,-4.401 2.7915,-3.273 -18.408,-4.92225 -21.84,-10.6845 -0.99825,-1.677 -14.4225,-13.8045 -9.288,-20.2935 2.31525,-2.92575 20.4105,18.83025 26.19525,12.2565 5.784,-6.57375 -10.953,-14.94675 -7.81725,-19.569 2.9115,-4.29225 10.36425,-1.82775 18.97275,0 8.60925,1.8285 11.5965,14.77275 15.462,7.3125 3.8655,-7.4595 -20.8335,-41.787 -20.8335,-42.61125 -4.02825,7.44825 -1.629,13.5615 -1.629,20.454 0,7.1745 -13.51575,-0.66675 -20.63025,10.22325 -2.74125,4.1955 -9.564,3.34725 -11.76825,4.42875 -11.65275,5.71875 -1.26525,19.55625 0.68325,22.32975 1.94925,2.77275 12.5655,9.47175 10.81875,12.4455 -2.02875,3.45525 -10.83075,-0.35625 -11.493,10.62802 z"
       inkscape:connector-curvature="0"
       style="clip-rule:evenodd;opacity:1;fill:#8bc615;fill-rule:evenodd;stroke-width:0.75;stroke-linecap:round;stroke-linejoin:round" /><g
       id="g1725"
       style="clip-rule:evenodd;opacity:1;fill-rule:evenodd;stroke-linecap:round;stroke-linejoin:round"
       transform="matrix(0.75000002,0,0,-0.75000002,6.115002,259.20975)"><path
         id="path1721"
         d="m 112.58,70.0817 c 9.908,0 17.941,8.032 17.941,17.9414 0,9.908 -8.033,17.9409 -17.941,17.9409 -9.908,0 -17.9411,-8.0329 -17.9411,-17.9409 0,-9.9094 8.0331,-17.9414 17.9411,-17.9414"
         inkscape:connector-curvature="0"
         style="opacity:1;fill:#66d9ef" /><path
         id="path1723"
         d="m 116.72,75.1937 c 1.575,-0.0253 2.951,0.4747 4.214,1.2294 1.251,0.7626 2.333,1.836 3.143,3.0986 0.818,1.2534 1.368,2.7094 1.494,4.1974 0.175,1.476 -0.087,2.9786 -0.762,4.304 -0.187,0.3666 -0.636,0.5133 -1.003,0.3266 -0.121,-0.0626 -0.219,-0.1533 -0.288,-0.26 l -0.043,-0.0666 c -0.77,-1.2067 -1.226,-2.2574 -1.796,-3.216 -0.51,-0.972 -1.051,-1.8454 -1.597,-2.7267 -0.549,-0.8787 -1.133,-1.7573 -1.792,-2.668 -0.641,-0.9227 -1.378,-1.8773 -2.094,-2.9933 l -0.073,-0.1134 c -0.216,-0.3346 -0.118,-0.7826 0.217,-0.9973 0.117,-0.076 0.25,-0.112 0.38,-0.1147"
         inkscape:connector-curvature="0"
         style="opacity:1;fill:#ffffff" /></g><g
       id="g1731"
       style="clip-rule:evenodd;opacity:1;fill-rule:evenodd;stroke-linecap:round;stroke-linejoin:round"
       transform="matrix(0.75000002,0,0,-0.75000002,6.115002,259.20975)"><path
         id="path1727"
         d="m 133.965,116.426 c 6.005,0 10.872,4.868 10.872,10.873 0,6.005 -4.867,10.873 -10.872,10.873 -6.006,0 -10.874,-4.868 -10.874,-10.873 0,-6.005 4.868,-10.873 10.874,-10.873"
         inkscape:connector-curvature="0"
         style="opacity:1;fill:#66d9ef" /><path
         id="path1729"
         d="m 136.474,119.523 c 0.954,-0.015 1.788,0.288 2.553,0.745 0.758,0.462 1.414,1.112 1.906,1.878 0.495,0.76 0.828,1.642 0.904,2.544 0.107,0.896 -0.052,1.805 -0.461,2.609 -0.113,0.223 -0.385,0.311 -0.607,0.197 -0.075,-0.037 -0.134,-0.093 -0.175,-0.157 l -0.026,-0.04 c -0.467,-0.732 -0.744,-1.369 -1.089,-1.949 -0.309,-0.59 -0.637,-1.119 -0.968,-1.654 -0.332,-0.532 -0.687,-1.064 -1.086,-1.616 -0.388,-0.56 -0.835,-1.138 -1.269,-1.814 l -0.045,-0.07 c -0.13,-0.202 -0.071,-0.473 0.133,-0.604 0.07,-0.045 0.151,-0.068 0.23,-0.069"
         inkscape:connector-curvature="0"
         style="opacity:1;fill:#ffffff" /></g><g
       id="g1737"
       style="clip-rule:evenodd;opacity:1;fill-rule:evenodd;stroke-linecap:round;stroke-linejoin:round"
       transform="matrix(0.75000002,0,0,-0.75000002,6.115002,259.20975)"><path
         id="path1733"
         d="m 106.149,141.644 c 6.982,0 12.64,5.659 12.64,12.639 0,6.981 -5.658,12.641 -12.64,12.641 -6.9809,0 -12.6402,-5.66 -12.6402,-12.641 0,-6.98 5.6593,-12.639 12.6402,-12.639"
         inkscape:connector-curvature="0"
         style="opacity:1;fill:#66d9ef" /><path
         id="path1735"
         d="m 109.066,145.244 c 1.109,-0.016 2.079,0.335 2.969,0.867 0.881,0.539 1.644,1.293 2.215,2.184 0.576,0.883 0.964,1.909 1.052,2.956 0.124,1.04 -0.061,2.099 -0.537,3.032 -0.131,0.26 -0.448,0.363 -0.706,0.231 -0.086,-0.044 -0.155,-0.108 -0.203,-0.184 l -0.03,-0.047 c -0.543,-0.849 -0.865,-1.589 -1.266,-2.265 -0.359,-0.686 -0.74,-1.3 -1.125,-1.922 -0.387,-0.618 -0.798,-1.237 -1.263,-1.878 -0.451,-0.651 -0.97,-1.323 -1.475,-2.11 l -0.052,-0.08 c -0.151,-0.236 -0.083,-0.55 0.153,-0.702 0.083,-0.054 0.177,-0.079 0.268,-0.082"
         inkscape:connector-curvature="0"
         style="opacity:1;fill:#ffffff" /></g><g
       id="g1743"
       style="clip-rule:evenodd;opacity:1;fill-rule:evenodd;stroke-linecap:round;stroke-linejoin:round"
       transform="matrix(0.75000002,0,0,-0.75000002,6.115002,259.20975)"><path
         id="path1739"
         d="m 132.52,173.844 c 3.663,0 6.633,2.97 6.633,6.634 0,3.662 -2.97,6.632 -6.633,6.632 -3.664,0 -6.633,-2.97 -6.633,-6.632 0,-3.664 2.969,-6.634 6.633,-6.634"
         inkscape:connector-curvature="0"
         style="opacity:1;fill:#66d9ef" /><path
         id="path1741"
         d="m 134.05,175.734 c 0.583,-0.008 1.092,0.176 1.558,0.454 0.463,0.283 0.862,0.679 1.163,1.146 0.301,0.464 0.505,1.002 0.551,1.552 0.066,0.545 -0.031,1.101 -0.281,1.592 -0.069,0.134 -0.235,0.189 -0.371,0.12 -0.045,-0.023 -0.081,-0.058 -0.107,-0.096 l -0.015,-0.024 c -0.285,-0.447 -0.454,-0.835 -0.665,-1.19 -0.188,-0.36 -0.388,-0.682 -0.59,-1.008 -0.203,-0.325 -0.418,-0.649 -0.662,-0.986 -0.237,-0.342 -0.51,-0.694 -0.775,-1.107 l -0.026,-0.041 c -0.081,-0.124 -0.044,-0.29 0.08,-0.37 0.044,-0.028 0.093,-0.041 0.14,-0.042"
         inkscape:connector-curvature="0"
         style="opacity:1;fill:#ffffff" /></g><path
       inkscape:connector-curvature="0"
       id="path122"
       style="fill:#593016;fill-opacity:1;fill-rule:nonzero;stroke:none;stroke-width:0.1"
       d="m 213.8,216.055 c 0,0 20.989,2.178 44.595,-25.053 24.675,-28.465 49.226,-64.824 27.584,-56.331 -21.396,8.398 -30.227,7.773 -30.227,7.773 L 213.8,216.055" /><path
       inkscape:connector-curvature="0"
       id="path124"
       style="fill:#f5748f;fill-opacity:1;fill-rule:evenodd;stroke:none;stroke-width:0.1"
       d="M 120.639,73.9621 91.877,59.1012 c -4.654,-2.4043 -14.8512,18.7937 -9.227,29.6066 5.6238,10.8141 34.9,1.6461 34.9,1.6461 3.259,-3.6437 5.411,-15.1918 3.089,-16.3918" /><path
       inkscape:connector-curvature="0"
       id="path126"
       style="fill:#f36082;fill-opacity:1;fill-rule:evenodd;stroke:none;stroke-width:0.1"
       d="m 117.581,75.1629 c 0,0 -15.069,-8.3469 -21.7669,-11.4668 -6.6969,-3.1211 -11.2356,2.5348 -11.2368,2.5359 2.3411,-4.9011 5.32,-8.1539 7.2997,-7.13 l 26.197,13.5351 -0.493,2.5258" /><path
       inkscape:connector-curvature="0"
       id="path128"
       style="fill:#f9b1bc;fill-opacity:1;fill-rule:evenodd;stroke:none;stroke-width:0.1"
       d="m 111.084,48.8641 c 12.213,-31.7321 51.789,-15.3192 60.053,-14.4153 6.684,0.7313 14.7,-4.5859 29.609,-5.0699 6.53,-0.2109 11.759,0.493 16.652,1.1981 6.279,0.9039 12.002,1.8089 19.204,0.7761 12.812,-1.839 32.711,-19.55 73.131,-7.5043 53.412,16.1184 -12.755,143.6072 -97.96,143.6072 -85.205,0 -112.9015,-86.8599 -100.689,-118.5919 v 0" /><path
       inkscape:connector-curvature="0"
       id="path130"
       style="fill:#f8a2ad;fill-opacity:1;fill-rule:evenodd;stroke:none;stroke-width:0.1"
       d="m 225.141,166.414 -49.687,-4.971 -0.001,-0.001 c -2.588,-0.922 -5.092,-1.944 -7.52,-3.048 -0.167,-0.076 -0.337,-0.15 -0.504,-0.227 -0.649,-0.299 -1.289,-0.609 -1.927,-0.921 -0.257,-0.126 -0.515,-0.251 -0.771,-0.379 -0.598,-0.299 -1.189,-0.605 -1.777,-0.914 -0.284,-0.151 -0.567,-0.301 -0.85,-0.454 -0.565,-0.305 -1.126,-0.614 -1.681,-0.928 -0.294,-0.167 -0.584,-0.337 -0.875,-0.506 -0.543,-0.315 -1.085,-0.631 -1.618,-0.955 -0.28,-0.171 -0.555,-0.346 -0.832,-0.519 -1.733,-1.078 -3.416,-2.203 -5.051,-3.371 -0.372,-0.266 -0.746,-0.528 -1.113,-0.798 -0.382,-0.282 -0.757,-0.57 -1.134,-0.856 -0.393,-0.298 -0.785,-0.596 -1.172,-0.899 -0.355,-0.278 -0.705,-0.56 -1.054,-0.842 -0.403,-0.324 -0.804,-0.651 -1.2,-0.981 -0.325,-0.272 -0.649,-0.544 -0.971,-0.819 -0.419,-0.359 -0.834,-0.722 -1.245,-1.086 -0.29,-0.257 -0.581,-0.512 -0.867,-0.772 -0.459,-0.416 -0.91,-0.838 -1.359,-1.261 -0.231,-0.216 -0.464,-0.43 -0.692,-0.648 -0.668,-0.642 -1.328,-1.288 -1.974,-1.943 l -0.016,-0.016 0.035,-0.449 c 0,0 39.745,-14.25 116.53,-10.088 18.09,0.981 35.01,-8.939 43.059,-25.169 13.518,-27.2508 27.293,-67.0039 1.809,-81.0168 2.901,0.5976 5.906,1.3359 9.05,2.2726 50.582,15.2641 -6.08,130.4062 -84.592,142.5652" /><path
       inkscape:connector-curvature="0"
       id="path132"
       style="fill:#ffffff;fill-opacity:1;fill-rule:nonzero;stroke:none;stroke-width:0.1"
       d="m 170.445,96.259 c 0.144,-11.5031 -8.915,-20.9469 -20.233,-21.0942 -11.318,-0.1468 -20.609,9.059 -20.753,20.5622 -0.143,11.503 8.915,20.947 20.233,21.095 v 0 c 11.318,0.146 20.609,-9.06 20.753,-20.563" /><path
       inkscape:connector-curvature="0"
       id="path134"
       style="fill:#040606;fill-opacity:1;fill-rule:nonzero;stroke:none;stroke-width:0.1"
       d="m 150.883,79.5371 c -8.835,-0.5391 -16.43,6.2981 -16.968,15.2777 -0.538,8.9792 6.185,16.7052 15.019,17.2592 8.835,0.554 16.44,-6.271 16.994,-15.276 0.526,-9.0058 -6.209,-16.721 -15.045,-17.2609" /><path
       inkscape:connector-curvature="0"
       id="path136"
       style="fill:#ffffff;fill-opacity:1;fill-rule:nonzero;stroke:none;stroke-width:0.1"
       d="m 152.64,106.341 c 1.542,2.112 7.146,0.237 9.109,-3.276 1.964,-3.5119 1.946,-8.908 -1.307,-9.997 -3.254,-1.0871 -3.016,3.1511 -4.721,6.1379 -1.705,2.9891 -4.623,5.0221 -3.081,7.1341 v 10e-4" /><path
       inkscape:connector-curvature="0"
       id="path138"
       style="fill:#ffffff;fill-opacity:1;fill-rule:nonzero;stroke:none;stroke-width:0.1"
       d="m 160.092,91.9781 c 1.148,-0.0691 1.986,-1.2511 1.871,-2.6429 -0.115,-1.3911 -1.139,-2.4653 -2.286,-2.3961 -1.148,0.0668 -1.986,1.25 -1.871,2.641 0.115,1.3918 1.138,2.4648 2.286,2.398" /><path
       inkscape:connector-curvature="0"
       id="path140"
       style="fill:#f9b1bc;fill-opacity:1;fill-rule:nonzero;stroke:none;stroke-width:0.1"
       d="m 216.787,97.868 c 0.931,-14.6629 -10.819,-27.3551 -26.252,-28.3578 -15.434,-1.0032 -28.713,10.0628 -29.669,24.725 -0.956,14.6608 10.773,27.3718 26.205,28.3978 15.431,1.026 28.73,-10.019 29.71,-24.6799" /><path
       inkscape:connector-curvature="0"
       id="path142"
       style="fill:#f8a2ad;fill-opacity:1;fill-rule:evenodd;stroke:none;stroke-width:0.1"
       d="m 168.464,115.404 c 0,0 3.139,-7.676 20.361,-2.457 17.221,5.217 19.723,-3.155 19.723,-3.155 l 61.879,29.309 -21.962,27.313 -96.261,-10.017 16.26,-40.993" /><path
       inkscape:connector-curvature="0"
       id="path144"
       style="fill:#a7505d;fill-opacity:1;fill-rule:nonzero;stroke:none;stroke-width:0.1"
       d="m 214.454,88.4609 c -3.283,-9.7757 -12.592,-17.157 -23.992,-17.8949 -14.82,-0.9621 -27.57,9.666 -28.485,23.7442 -0.418,6.4228 1.7,12.4548 5.533,17.2088 0,0 2.415,2.726 0.954,3.885 -1.46,1.159 -3.539,-2.09 -3.539,-2.09 -4.266,-5.317 -6.62,-12.052 -6.153,-19.221 1.031,-15.7559 15.302,-27.6461 31.888,-26.57 12.777,0.829 23.206,9.1122 26.868,20.077 0,0 0.86,2.2461 -0.648,2.7852 -1.507,0.5386 -2.426,-1.9243 -2.426,-1.9243 v 0" /><path
       inkscape:connector-curvature="0"
       id="path146"
       style="fill:#040606;fill-opacity:1;fill-rule:nonzero;stroke:none;stroke-width:0.1"
       d="m 212.876,50.5512 c -2.442,4.6297 -6.503,7.9859 -10.563,9.2039 -0.098,0.0328 -0.198,0.0609 -0.297,0.0898 -0.178,0.0481 -0.354,0.0942 -0.531,0.134 -0.231,0.0531 -0.464,0.1 -0.701,0.1371 -0.171,0.0289 -0.34,0.05 -0.51,0.0699 -0.17,0.018 -0.34,0.036 -0.513,0.0473 -0.239,0.0148 -0.477,0.0219 -0.713,0.0207 -0.182,0.0012 -0.364,-0.0051 -0.548,-0.0129 -0.104,-0.0051 -0.208,-0.009 -0.31,-0.0191 -4.23,-0.2821 -8.937,-2.6469 -12.351,-6.6149 -5.209,-6.0531 -5.43,-13.5109 -0.494,-16.659 2.731,-1.741 6.467,-1.7898 10.144,-0.4628 1.344,0.4839 2.956,0.3019 4.158,-0.4704 3.288,-2.1128 6.941,-2.9007 9.993,-1.8128 5.513,1.966 6.961,9.2859 3.236,16.3492" /><path
       inkscape:connector-curvature="0"
       id="path148"
       style="fill:#d5474f;fill-opacity:1;fill-rule:nonzero;stroke:none;stroke-width:0.1"
       d="m 198.654,45.8602 c -5.689,0.6418 -10.682,-2.2141 -11.153,-6.3801 -0.146,-1.2942 0.204,-2.5492 0.868,-3.7012 2.191,-0.4348 4.665,-0.1789 7.12,0.7063 1.344,0.4839 2.956,0.3019 4.158,-0.4704 2.195,-1.4109 4.55,-2.2128 6.783,-2.2777 0.904,0.975 1.525,2.1199 1.672,3.4141 0.471,4.1668 -3.759,8.0648 -9.448,8.709" /><path
       inkscape:connector-curvature="0"
       id="path150"
       style="fill:#040606;fill-opacity:1;fill-rule:nonzero;stroke:none;stroke-width:0.1"
       d="m 212.876,50.5512 1.327,0.7 c -2.632,4.9668 -6.943,8.5738 -11.459,9.941 l -0.431,-1.4371 0.481,1.4211 c -0.155,0.0519 -0.274,0.084 -0.355,0.1078 l -0.016,0.0051 -0.017,0.0039 c -0.186,0.05 -0.382,0.1019 -0.59,0.1492 l 0.009,-0.0024 c -0.261,0.0602 -0.53,0.1153 -0.81,0.1582 l 0.015,-0.0019 c -0.209,0.0348 -0.403,0.059 -0.585,0.0801 l -0.007,8e-4 h -10e-4 c -0.176,0.0191 -0.37,0.039 -0.583,0.0531 l 0.005,-0.0012 c -0.258,0.0172 -0.514,0.025 -0.767,0.025 h -0.054 l 0.01,-1.5 0.008,1.5 h -0.048 c -0.202,0 -0.392,-0.0059 -0.572,-0.0141 h -0.009 l -0.012,-7e-4 c -0.084,-0.0051 -0.207,-0.009 -0.367,-0.0243 l 0.142,-1.4929 -0.1,1.4972 c -4.706,-0.3269 -9.714,-2.8793 -13.388,-7.1339 -2.891,-3.3641 -4.413,-7.1801 -4.419,-10.7141 0,-1.6449 0.338,-3.2332 1.048,-4.6461 0.707,-1.4129 1.793,-2.6418 3.207,-3.541 1.761,-1.1231 3.831,-1.6258 5.963,-1.6258 1.162,8e-4 2.348,0.1488 3.533,0.4289 0.741,0.175 1.497,0.2617 2.252,0.2617 1.494,0.0012 2.982,-0.3406 4.333,-1.0058 1.975,-0.9719 4.053,-1.527 6.102,-1.5282 1.166,0 2.322,0.1821 3.422,0.5743 2.049,0.7257 3.672,2.1179 4.726,3.88 1.058,1.7618 1.573,3.8731 1.574,6.1219 -0.001,2.7012 -0.741,5.6149 -2.24,8.4602 l -1.327,-0.7 -1.327,-0.7 c 1.296,-2.4543 1.895,-4.9114 1.894,-7.0602 0,-1.793 -0.414,-3.3621 -1.145,-4.5762 -0.737,-1.2148 -1.766,-2.0968 -3.162,-2.6 -0.752,-0.2679 -1.56,-0.4 -2.415,-0.4 -1.499,-0.0019 -3.145,0.4153 -4.776,1.2192 -1.769,0.8711 -3.709,1.3148 -5.659,1.3148 -0.986,0 -1.974,-0.1129 -2.943,-0.3429 -0.978,-0.2309 -1.935,-0.3477 -2.842,-0.3477 -1.669,8e-4 -3.151,0.3906 -4.35,1.1547 -0.966,0.6191 -1.661,1.4101 -2.14,2.3582 -0.475,0.948 -0.728,2.0621 -0.728,3.3 -0.006,2.6519 1.191,5.8559 3.693,8.757 3.155,3.6828 7.56,5.859 11.314,6.0969 l 0.021,0.002 0.021,0.0019 c 0.045,0.0043 0.13,0.0082 0.253,0.0152 l -0.085,1.4969 0.064,-1.498 c 0.16,0.007 0.308,0.0109 0.444,0.0109 h 0.031 0.01 0.008 0.035 c 0.19,0 0.381,-0.0059 0.571,-0.018 h 0.005 c 0.132,-0.0089 0.279,-0.023 0.443,-0.041 l -0.008,0.0012 c 0.158,-0.0191 0.302,-0.0371 0.435,-0.059 l 0.006,-0.0012 0.008,-0.0019 c 0.195,-0.0301 0.391,-0.0692 0.593,-0.116 l 0.005,-8e-4 0.003,-0.0012 c 0.146,-0.0328 0.304,-0.0738 0.472,-0.1191 l 0.391,1.448 -0.424,-1.439 c 0.119,-0.0348 0.199,-0.0571 0.241,-0.0719 l 0.025,-0.0078 0.024,-0.0082 c 3.605,-1.068 7.414,-4.1739 9.667,-8.4668 l 1.327,0.7" /><path
       inkscape:connector-curvature="0"
       id="path152"
       style="fill:#845131;fill-opacity:1;fill-rule:nonzero;stroke:none;stroke-width:0.1"
       d="m 209.02,216.228 c 0,0 -16.565,0 -40.049,-19.075 -18.154,-14.746 -29.088,-37.575 -33.117,-47.18 -1.523,-3.629 -2.365,-7.52 -2.363,-11.456 0.005,-9.232 3.093,-24.494 23.253,-25.514 29.03,-1.469 92.64,26.098 92.64,26.098 0,0 -9.717,40.755 -20.37,56.357 -10.653,15.602 -19.994,20.77 -19.994,20.77" /><path
       inkscape:connector-curvature="0"
       id="path154"
       style="fill:#be1c2e;fill-opacity:1;fill-rule:nonzero;stroke:none;stroke-width:0.1"
       d="m 209.02,216.228 c 0,0 9.342,-5.168 19.994,-20.77 10.653,-15.602 20.37,-56.357 20.37,-56.357 0,0 11.842,3.617 31.508,0.026 0,0 -3.455,30.183 -35.936,61.415 -17.71,17.03 -35.936,15.686 -35.936,15.686" /><path
       inkscape:connector-curvature="0"
       id="path156"
       style="fill:#bd8f56;fill-opacity:1;fill-rule:nonzero;stroke:none;stroke-width:0.1"
       d="m 160.242,145.485 c 6.401,-1.798 22.513,-5.708 39.89,-5.154 0.573,0.019 0.681,-0.802 0.12,-0.921 -11.899,-2.49 -38.988,-6.938 -42.601,3.265 -0.584,1.649 0.908,3.283 2.591,2.81" /><g
       id="g158"
       transform="scale(0.1)"><g
         clip-path="url(#clipPath164)"
         id="g160"><path
           inkscape:connector-curvature="0"
           id="path166"
           style="fill:#871627;fill-opacity:1;fill-rule:nonzero;stroke:none"
           d="m 2403.22,1721.49 -7.33,1.99 c -21.86,61.86 -46.17,122.62 -71.62,172.48 l 117.62,-31.9 -38.67,-142.57 m 63.7,266.98 -114.09,30.94 14.35,52.93 c 27.12,-18.35 54.81,-40.4 82.38,-66.92 5.89,-5.66 11.67,-11.3 17.36,-16.95" /><path
           inkscape:connector-curvature="0"
           id="path168"
           style="fill:#871627;fill-opacity:1;fill-rule:nonzero;stroke:none"
           d="m 2493.84,1391.01 v 0 c 0,0 -4.68,19.63 -13.11,51.91 l 31.92,117.7 122.2,-33.15 -32.88,-121.25 c -69.6,-3.44 -108.13,-15.21 -108.13,-15.21 m 174.16,258.67 -122.21,33.14 38.67,142.57 30.51,-8.27 c 26.7,-36.48 49.81,-71.93 69.76,-105.73 L 2668,1649.68" /><path
           inkscape:connector-curvature="0"
           id="path170"
           style="fill:#871627;fill-opacity:1;fill-rule:nonzero;stroke:none"
           d="m 2614.97,1817.12 -30.51,8.27 -142.57,38.67 -117.62,31.9 c -11.2,21.93 -22.61,41.74 -34.13,58.62 -28.5,41.74 -56.08,76.03 -81.16,103.85 l 143.85,-39.02 114.09,-30.94 c 58.78,-58.3 107.57,-116.05 148.05,-171.35" /><path
           inkscape:connector-curvature="0"
           id="path172"
           style="fill:#871627;fill-opacity:1;fill-rule:nonzero;stroke:none"
           d="m 2786.3,1486.4 -151.45,41.07 -122.2,33.15 -70.17,19.03 c -13.57,45.4 -29.32,94.96 -46.59,143.83 l 7.33,-1.99 142.57,-38.67 122.21,-33.14 58.79,-15.95 c 28.32,-57.36 47.14,-107.66 59.51,-147.33" /></g></g><path
       inkscape:connector-curvature="0"
       id="path174"
       style="fill:#593016;fill-opacity:1;fill-rule:nonzero;stroke:none;stroke-width:0.1"
       d="m 220.07,206.743 c -6.437,6.928 -11.05,9.485 -11.05,9.485 l -1.005,-0.637 c 0,0 29.008,-16.357 38.589,-77.24 l 0.109,-0.382 c 1.717,0.719 2.671,1.132 2.671,1.132 0,0 -0.237,0.994 -0.678,2.733 -0.088,0.348 -0.184,0.725 -0.289,1.13 -0.209,0.811 -0.448,1.732 -0.717,2.748 -0.135,0.508 -0.278,1.04 -0.426,1.593 -0.15,0.554 -0.306,1.129 -0.469,1.724 -0.163,0.595 -0.332,1.21 -0.509,1.842 -0.44,1.58 -0.923,3.271 -1.441,5.041 -0.231,0.79 -0.471,1.597 -0.716,2.416 -0.305,1.015 -0.619,2.05 -0.945,3.1 -0.117,0.38 -0.237,0.761 -0.357,1.144 -0.33,1.055 -0.672,2.123 -1.021,3.198 -0.072,0.223 -0.146,0.448 -0.219,0.672 -0.31,0.945 -0.627,1.896 -0.95,2.848 -0.068,0.2 -0.136,0.4 -0.204,0.6 -0.2,0.585 -0.403,1.17 -0.608,1.755 -0.071,0.205 -0.143,0.409 -0.214,0.614 -0.896,2.537 -1.833,5.055 -2.802,7.489 -0.086,0.216 -0.172,0.431 -0.258,0.645 -0.259,0.641 -0.52,1.278 -0.782,1.905 -0.154,0.366 -0.308,0.73 -0.462,1.091 -2.014,4.693 -4.139,8.9 -6.303,12.069 -3.169,4.641 -6.219,8.352 -8.944,11.285" /><path
       inkscape:connector-curvature="0"
       id="path176"
       style="fill:#040606;fill-opacity:1;fill-rule:nonzero;stroke:none;stroke-width:0.1"
       d="m 273.448,137.652 c 2.738,0.836 5.368,0.528 7.701,-0.436 2.385,-0.899 4.38,-2.605 5.934,-4.601 1.566,-2 2.622,-4.391 3.047,-6.885 0.388,-2.495 0.283,-5.119 -1.093,-7.598 -0.162,-0.289 -0.526,-0.393 -0.815,-0.232 l -0.108,0.076 -0.074,0.066 c -1.938,1.746 -3.357,3.222 -4.726,4.601 -1.349,1.371 -2.495,2.671 -3.659,3.943 -1.174,1.259 -2.193,2.619 -3.295,4.174 -0.51,0.824 -1.104,1.614 -1.631,2.615 -0.549,0.982 -1.163,1.962 -1.685,3.362 l -0.02,0.056 c -0.127,0.341 0.046,0.72 0.386,0.846 l 0.038,0.013" /><path
       inkscape:connector-curvature="0"
       id="path178"
       style="fill:#beaf8e;fill-opacity:1;fill-rule:nonzero;stroke:none;stroke-width:0.1"
       d="M 289.073,76.368 279.007,61.8 l -8.786,6.0711 10.066,14.568 8.786,-6.0711" /><path
       inkscape:connector-curvature="0"
       id="path180"
       style="fill:#695b4c;fill-opacity:1;fill-rule:nonzero;stroke:none;stroke-width:0.1"
       d="m 265.787,133.378 c 19.319,-13.348 24.16,-39.8319 10.811,-59.151 -13.35,-19.3211 -39.832,-24.1598 -59.152,-10.8122 -19.32,13.3493 -24.16,39.8322 -10.812,59.1522 13.349,19.32 39.832,24.16 59.153,10.811" /><path
       inkscape:connector-curvature="0"
       id="path182"
       style="fill:#a5dff2;fill-opacity:1;fill-rule:nonzero;stroke:none;stroke-width:0.1"
       d="m 262.235,128.238 c 16.48,-11.387 20.609,-33.979 9.222,-50.4591 -11.387,-16.482 -33.979,-20.6109 -50.46,-9.223 -16.48,11.3871 -20.609,33.9781 -9.222,50.4591 11.388,16.481 33.978,20.61 50.46,9.223" /><path
       inkscape:connector-curvature="0"
       id="path184"
       style="fill:#533f37;fill-opacity:1;fill-rule:nonzero;stroke:none;stroke-width:0.1"
       d="m 297.466,68.575 -9.325,6.4441 -8.201,-11.8691 9.326,-6.4441 c 10.019,-6.9227 19.453,-14.7618 27.357,-24.027 0.761,-0.8918 1.67,-1.6859 2.722,-2.3449 4.884,-3.0602 12.149,-1.75 15.651,2.8281 4.134,5.4059 2.872,13.102 -2.661,16.9238 -0.672,0.4641 -1.375,0.8493 -2.097,1.1563 -11.413,4.85 -22.57,10.2848 -32.772,17.3328" /><path
       inkscape:connector-curvature="0"
       id="path186"
       style="fill:#695b4c;fill-opacity:1;fill-rule:nonzero;stroke:none;stroke-width:0.1"
       d="m 332.335,50.0859 c -0.672,0.4641 -1.375,0.8493 -2.097,1.1563 -11.413,4.85 -22.57,10.2848 -32.772,17.3328 l -9.326,6.4441 -6.798,-9.839 7.923,-5.4742 c 10.02,-6.9227 19.454,-14.7618 27.358,-24.027 0.761,-0.891 1.67,-1.6859 2.722,-2.3449 4.884,-3.0602 12.149,-1.7488 15.651,2.8281 1.314,1.7199 2.079,3.6711 2.338,5.6559 -0.403,3.225 -2.114,6.2742 -4.999,8.2679" /><path
       inkscape:connector-curvature="0"
       id="path188"
       style="fill:#f5748f;fill-opacity:1;fill-rule:evenodd;stroke:none;stroke-width:0.1"
       d="M 295.769,71.2 325.24,40.166 c 4.768,-5.0219 24.262,15.0352 21.44,31.284 -2.822,16.2488 -41.852,16.5621 -41.852,16.5621 -5.322,-3.343 -11.439,-14.3062 -9.059,-16.8121" /><path
       inkscape:connector-curvature="0"
       id="path190"
       style="fill:#f36082;fill-opacity:1;fill-rule:evenodd;stroke:none;stroke-width:0.1"
       d="m 338.924,80.907 v 0 c 12.045,-11.8019 1.022,-29.3879 -6.065,-35.589 -6.385,-5.5871 -31.373,19.905 -36.256,25.0039 L 325.24,40.166 c 4.768,-5.0219 24.262,15.0352 21.44,31.284 -0.707,4.0719 -3.686,7.141 -7.756,9.457" /><path
       inkscape:connector-curvature="0"
       id="path192"
       style="fill:#ffffff;fill-opacity:1;fill-rule:nonzero;stroke:none;stroke-width:0.1"
       d="m 278.497,99.148 c 0.258,-20.6832 -16.029,-37.664 -36.379,-37.9289 -20.351,-0.264 -37.057,16.2887 -37.315,36.9719 -0.259,20.683 16.028,37.665 36.378,37.929 h 10e-4 c 20.351,0.264 37.057,-16.289 37.315,-36.972" /><path
       inkscape:connector-curvature="0"
       id="path194"
       style="fill:#040606;fill-opacity:1;fill-rule:nonzero;stroke:none;stroke-width:0.1"
       d="m 243.325,69.0809 c -15.888,-0.97 -29.544,11.3242 -30.511,27.4703 -0.967,16.1458 11.12,30.0358 27.005,31.0328 15.885,0.996 29.561,-11.275 30.556,-27.467 0.945,-16.194 -11.164,-30.065 -27.05,-31.0361" /><path
       inkscape:connector-curvature="0"
       id="path196"
       style="fill:#ffffff;fill-opacity:1;fill-rule:nonzero;stroke:none;stroke-width:0.1"
       d="m 246.483,117.275 c 2.771,3.799 12.849,0.425 16.379,-5.891 3.53,-6.314 3.499,-16.016 -2.351,-17.975 -5.85,-1.9551 -5.422,5.6648 -8.488,11.038 -3.068,5.373 -8.314,9.028 -5.541,12.827 l 0.001,0.001" /><path
       inkscape:connector-curvature="0"
       id="path198"
       style="fill:#ffffff;fill-opacity:1;fill-rule:nonzero;stroke:none;stroke-width:0.1"
       d="m 259.882,91.448 c 2.064,-0.121 3.57,-2.248 3.364,-4.7511 -0.207,-2.5008 -2.047,-4.4309 -4.112,-4.309 -2.063,0.1223 -3.569,2.2492 -3.363,4.7512 0.207,2.5019 2.047,4.432 4.111,4.3089" /><path
       inkscape:connector-curvature="0"
       id="path200"
       style="fill:#be1c2e;fill-opacity:1;fill-rule:nonzero;stroke:none;stroke-width:0.1"
       d="m 209.794,215.737 c -0.606,-0.044 -1.327,-0.117 -2.149,-0.15 -0.408,-0.018 -0.835,-0.014 -1.254,-0.006 l -0.626,0.02 -0.461,0.027 c -1.232,0.072 -2.47,0.149 -3.705,0.325 -2.457,0.312 -4.987,0.823 -7.208,1.806 -1.112,0.481 -2.142,1.086 -2.95,1.813 -0.38,0.368 -0.676,0.78 -0.951,1.185 -0.155,0.427 -0.427,0.857 -0.417,1.297 -0.232,1.789 1.196,3.427 2.984,4.627 0.438,0.317 0.957,0.572 1.44,0.857 0.201,0.13 0.586,0.296 0.957,0.449 0.332,0.153 0.828,0.297 1.303,0.425 0.451,0.133 1.111,0.216 1.679,0.284 0.634,0.027 1.295,0.058 1.897,-0.024 1.278,-0.12 2.181,-0.448 2.938,-0.757 1.418,-0.639 2.158,-1.324 2.835,-1.97 0.648,-0.656 1.175,-1.292 1.576,-1.945 0.834,-1.295 1.381,-2.586 1.777,-3.886 0.188,-0.65 0.329,-1.302 0.441,-1.954 l 0.117,-0.982 0.021,-0.494 0.006,-0.247 -0.004,-0.125 -0.002,-0.063 c -0.006,-0.017 0.007,0.023 0.016,-0.154 -0.006,-0.136 -0.128,-0.279 -0.26,-0.358 z m -1.374,0.706 c -0.139,-0.06 -0.269,-0.184 -0.281,-0.3 0.003,-0.158 0.008,-0.098 -0.006,-0.096 l -0.045,0.055 -0.091,0.109 -0.172,0.221 -0.352,0.44 -0.683,0.88 -1.348,1.743 c -0.903,1.149 -1.807,2.289 -2.814,3.339 -0.519,0.52 -0.999,1.039 -1.564,1.476 -0.536,0.439 -1.183,0.811 -1.597,0.978 -0.19,0.056 -0.312,0.087 -0.215,0.049 l 0.157,-0.01 c -0.041,-0.023 -0.086,-0.011 -0.193,-0.075 -0.091,-0.044 -0.181,-0.067 -0.369,-0.179 -0.311,-0.183 -0.693,-0.347 -0.962,-0.539 -2.353,-1.55 -2.647,-3.182 -0.015,-4.691 0.626,-0.373 1.432,-0.692 2.242,-1.034 0.889,-0.296 1.784,-0.6 2.789,-0.849 0.955,-0.296 2.031,-0.473 3.07,-0.727 l 0.395,-0.09 0.242,-0.061 c 0.16,-0.046 0.313,-0.095 0.484,-0.168 0.337,-0.139 0.775,-0.32 1.328,-0.471" /><path
       inkscape:connector-curvature="0"
       id="path202"
       style="fill:#be1c2e;fill-opacity:1;fill-rule:nonzero;stroke:none;stroke-width:0.1"
       d="m 208.799,216.642 c 0.569,0.134 1.025,0.301 1.376,0.43 0.178,0.066 0.336,0.112 0.5,0.152 l 0.249,0.053 0.404,0.078 c 1.064,0.221 2.156,0.365 3.141,0.631 1.029,0.217 1.956,0.493 2.875,0.76 0.844,0.317 1.682,0.611 2.347,0.964 2.787,1.424 2.666,3.063 0.481,4.684 -0.249,0.2 -0.613,0.376 -0.905,0.568 -0.175,0.117 -0.262,0.143 -0.349,0.19 -0.1,0.066 -0.146,0.056 -0.184,0.08 l 0.157,0.006 c 0.101,0.034 -0.024,0.007 -0.22,-0.043 -0.431,-0.154 -1.115,-0.504 -1.697,-0.927 -0.61,-0.419 -1.145,-0.922 -1.718,-1.425 -1.116,-1.018 -2.139,-2.127 -3.161,-3.246 l -1.531,-1.698 -0.774,-0.858 -0.398,-0.428 -0.196,-0.215 -0.101,-0.107 -0.051,-0.053 c -0.014,-0.001 -0.015,-0.061 0.004,0.096 0,0.116 -0.117,0.245 -0.249,0.308 z m -0.935,-0.905 c -0.132,0.079 -0.255,0.222 -0.26,0.358 0.009,0.177 0.022,0.137 0.015,0.154 l -0.002,0.063 -0.003,0.125 0.006,0.247 0.022,0.494 0.115,0.982 c 0.113,0.652 0.254,1.304 0.442,1.954 0.396,1.3 0.943,2.591 1.777,3.886 0.401,0.653 0.927,1.289 1.576,1.945 0.676,0.646 1.417,1.331 2.835,1.97 0.756,0.309 1.66,0.637 2.938,0.757 0.602,0.082 1.263,0.051 1.897,0.024 0.568,-0.068 1.228,-0.151 1.679,-0.284 0.475,-0.128 0.971,-0.272 1.303,-0.425 0.371,-0.153 0.755,-0.319 0.957,-0.449 0.483,-0.285 1.002,-0.54 1.44,-0.857 1.788,-1.2 3.216,-2.838 2.983,-4.627 0.011,-0.44 -0.261,-0.87 -0.417,-1.297 -0.274,-0.405 -0.571,-0.817 -0.95,-1.185 -0.808,-0.727 -1.839,-1.332 -2.95,-1.813 -2.221,-0.983 -4.752,-1.494 -7.208,-1.806 -1.235,-0.176 -2.473,-0.253 -3.706,-0.325 l -0.46,-0.027 -0.626,-0.02 c -0.419,-0.008 -0.846,-0.012 -1.254,0.006 -0.822,0.033 -1.543,0.106 -2.149,0.15" /></g></svg>