<?xml version="1.0" encoding="UTF-8" standalone="no"?>
<!-- Created with Inkscape (http://www.inkscape.org/) -->

<svg
   xmlns:dc="http://purl.org/dc/elements/1.1/"
   xmlns:cc="http://creativecommons.org/ns#"
   xmlns:rdf="http://www.w3.org/1999/02/22-rdf-syntax-ns#"
   xmlns:svg="http://www.w3.org/2000/svg"
   xmlns="http://www.w3.org/2000/svg"
   xmlns:xlink="http://www.w3.org/1999/xlink"
   xmlns:sodipodi="http://sodipodi.sourceforge.net/DTD/sodipodi-0.dtd"
   xmlns:inkscape="http://www.inkscape.org/namespaces/inkscape"
   version="1.1"
   id="svg2"
   xml:space="preserve"
   width="549.98669"
   height="349.46667"
   viewBox="0 0 549.98669 349.46667"
   sodipodi:docname="Blobviking.svg"
   inkscape:version="0.92.4 (5da689c313, 2019-01-14)"><metadata
     id="metadata8"><rdf:RDF><cc:Work
         rdf:about=""><dc:format>image/svg+xml</dc:format><dc:type
           rdf:resource="http://purl.org/dc/dcmitype/StillImage" /><dc:title /></cc:Work></rdf:RDF></metadata><defs
     id="defs6"><linearGradient
       inkscape:collect="always"
       xlink:href="#LinearGradient_2-7"
       id="linearGradient8892"
       gradientUnits="userSpaceOnUse"
       gradientTransform="matrix(0.75000002,0,0,-0.75000002,-459.20392,268.58709)"
       x1="72.241203"
       y1="290.63699"
       x2="554.89301"
       y2="88.023102" /><linearGradient
       gradientTransform="matrix(0.75000002,0,0,-0.75000002,-459.20392,268.58709)"
       y1="290.63699"
       id="LinearGradient_2-7"
       x1="72.241203"
       y2="88.023102"
       x2="554.89301"
       gradientUnits="userSpaceOnUse"><stop
         stop-color="#ffc075"
         offset="0.00603622"
         id="stop1197-9" /><stop
         stop-color="#fd971f"
         offset="1"
         id="stop1199-3" /></linearGradient></defs><sodipodi:namedview
     pagecolor="#ffffff"
     bordercolor="#666666"
     borderopacity="1"
     objecttolerance="10"
     gridtolerance="10"
     guidetolerance="10"
     inkscape:pageopacity="0"
     inkscape:pageshadow="2"
     inkscape:window-width="3840"
     inkscape:window-height="2047"
     id="namedview4"
     showgrid="false"
     inkscape:zoom="0.9550393"
     inkscape:cx="341.67478"
     inkscape:cy="-4.2154382"
     inkscape:window-x="2560"
     inkscape:window-y="0"
     inkscape:window-maximized="1"
     inkscape:current-layer="g10" /><g
     id="g10"
     inkscape:groupmode="layer"
     inkscape:label="ink_ext_XXXXXX"
     transform="matrix(1.3333333,0,0,-1.3333333,0,349.46667)"><g
       id="g8990"
       transform="translate(317.02669,-254.36709)"><g
         id="g8788"
         transform="translate(140.33723,244.98975)"><path
           d="m -413.58419,85.891588 c 0,90.796502 73.60553,164.402022 164.40203,164.402022 90.7965,0 164.401497,-73.60552 164.401497,-164.402022 0,-14.718 -1.93425,-28.984501 -5.562,-42.558751 -21.616497,-3.41475 -303.044327,-3.41475 -317.825777,0.5505 -3.53362,13.40925 -5.41575,27.489001 -5.41575,42.008251 z"
           id="path8778"
           inkscape:connector-curvature="0"
           style="clip-rule:evenodd;opacity:1;fill:#9ff0ff;fill-rule:evenodd;stroke-width:0.75;stroke-linecap:round;stroke-linejoin:round" /><path
           d="m -208.04316,196.70506 c 47.25075,19.17533 112.198497,-14.74747 126.526497,-48.59797 17.47725,-41.2905 -24.319497,-97.497753 -24.319497,-97.497753 h -294.77978 c 0,0 -67.83878,70.229253 13.42163,100.325253 40.4874,14.99475 57.78765,-23.32875 102.97215,-18.49875 69.27,7.40475 31.68525,46.21275 76.179,64.26922 z"
           id="path8780"
           style="clip-rule:evenodd;opacity:1;fill:url(#linearGradient8892);fill-rule:evenodd;stroke-width:0.75;stroke-linecap:round;stroke-linejoin:round"
           inkscape:connector-curvature="0" /><path
           d="m -47.546903,44.031837 c 0,-19.139251 -91.142257,-34.6545011 -203.571757,-34.6545011 -112.43025,0 -203.57225,15.5152501 -203.57225,34.6545011 0,19.1385 91.142,34.653751 203.57225,34.653751 112.4295,0 203.571757,-15.515251 203.571757,-34.653751"
           id="path8782"
           inkscape:connector-curvature="0"
           style="clip-rule:evenodd;opacity:1;fill:#272822;fill-opacity:1;fill-rule:evenodd;stroke-width:0.75;stroke-linecap:round;stroke-linejoin:round" /><path
           d="m -341.29566,192.87834 c -8.02725,11.24137 15.879,1.85025 25.9725,7.57807 10.0935,5.72775 -12.73125,10.99418 -9.4425,13.93155 8.26875,7.3845 25.12875,-1.07265 26.5635,3.5727 1.27575,4.13258 -8.31675,9.48353 0,11.6637 8.88525,2.32928 11.2905,-2.83357 19.5735,0 4.1805,1.43003 24.2085,7.52363 28.09875,6.33165 9.27975,-2.84362 -28.09875,-13.93395 -28.09875,-21.56805 0,-7.63417 28.09875,-1.76295 28.09875,-8.96857 0,-7.20555 -34.9635,2.55105 -28.09875,-12.54105 3.10725,-6.831 20.07225,3.96727 27.2085,-4.401 2.7915,-3.273 -18.408,-4.92225 -21.84,-10.6845 -0.99825,-1.677 -14.4225,-13.8045 -9.288,-20.2935 2.31525,-2.92575 20.4105,18.83025 26.19525,12.2565 5.784,-6.57375 -10.953,-14.94675 -7.81725,-19.569 2.9115,-4.29225 10.36425,-1.82775 18.97275,0 8.60925,1.8285 11.5965,14.77275 15.462,7.3125 3.8655,-7.4595 -20.8335,-41.787 -20.8335,-42.61125 0,-52.513503 -41.961,-46.621503 -75.94125,-46.621503 -0.52275,0 -21.85725,-6.28125 -28.992,-3.81375 -6.89475,2.385 14.21325,14.209501 -3.80325,14.209501 -17.343,0 -24.8988,-0.0735 -24.7935,6.81525 0.0772,5.06925 37.89675,-7.5075 35.44575,5.628755 -3.3735,18.080247 -35.44575,17.417247 -31.1325,21.156747 12.31275,10.67625 63.4545,-17.343747 60.08925,-9.93825 -3.84075,8.451 0.58575,12.56325 -3.84075,21.198 -3.53175,6.89025 -23.343,-12.747 -26.4885,-4.8 -4.7535,12.0075 25.82625,20.892 26.83425,22.227 9.63225,12.7575 -21.46275,9.237 -21.46275,16.5495 0,7.9995 33.9615,-5.06925 31.53375,12.86475 -0.54375,4.0185 -20.25975,-2.56875 -21.40725,0 -2.664,5.964 6.03525,5.7375 15.105,12.795 5.86575,4.5645 -15.105,0.2415 -21.873,9.71925 z"
           id="path8784"
           inkscape:connector-curvature="0"
           style="clip-rule:evenodd;opacity:1;fill:#a6e22e;fill-rule:evenodd;stroke-width:0.75;stroke-linecap:round;stroke-linejoin:round" /><path
           d="m -284.58741,195.39736 c -0.24225,4.0098 4.6575,6.78923 6.789,10.65758 2.1315,3.86827 -4.97325,4.263 -4.6575,8.05237 0.53625,6.43425 15.83475,12.28568 28.4985,18.31515 5.709,2.71785 2.48475,3.8223 3.4275,3.53355 3.8595,-1.18275 -0.3525,-3.79215 -6.58875,-6.9861 -8.7585,-4.48515 -21.51,-10.12312 -21.51,-14.58195 0,-7.63417 28.09875,-1.76295 28.09875,-8.96857 0,-7.20555 -34.9635,2.55105 -28.09875,-12.54105 3.10725,-6.831 20.07225,3.96727 27.2085,-4.401 2.7915,-3.273 -18.408,-4.92225 -21.84,-10.6845 -0.99825,-1.677 -14.4225,-13.8045 -9.288,-20.2935 2.31525,-2.92575 20.4105,18.83025 26.19525,12.2565 5.784,-6.57375 -10.953,-14.94675 -7.81725,-19.569 2.9115,-4.29225 10.36425,-1.82775 18.97275,0 8.60925,1.8285 11.5965,14.77275 15.462,7.3125 3.8655,-7.4595 -20.8335,-41.787 -20.8335,-42.61125 -4.02825,7.44825 -1.629,13.5615 -1.629,20.454 0,7.1745 -13.51575,-0.66675 -20.63025,10.22325 -2.74125,4.1955 -9.564,3.34725 -11.76825,4.42875 -11.65275,5.71875 -1.26525,19.55625 0.68325,22.32975 1.94925,2.77275 12.5655,9.47175 10.81875,12.4455 -2.02875,3.45525 -10.83075,-0.35625 -11.493,10.62802 z"
           id="path8786"
           inkscape:connector-curvature="0"
           style="clip-rule:evenodd;opacity:1;fill:#8bc615;fill-rule:evenodd;stroke-width:0.75;stroke-linecap:round;stroke-linejoin:round" /></g><g
         id="g8794"
         style="clip-rule:evenodd;opacity:1;fill-rule:evenodd;stroke-linecap:round;stroke-linejoin:round"
         transform="matrix(0.75000002,0,0,-0.75000002,-328.41076,506.33876)"><path
           id="path8790"
           d="m 112.58,70.0817 c 9.908,0 17.941,8.032 17.941,17.9414 0,9.908 -8.033,17.9409 -17.941,17.9409 -9.908,0 -17.9411,-8.0329 -17.9411,-17.9409 0,-9.9094 8.0331,-17.9414 17.9411,-17.9414"
           inkscape:connector-curvature="0"
           style="opacity:1;fill:#66d9ef" /><path
           id="path8792"
           d="m 116.72,75.1937 c 1.575,-0.0253 2.951,0.4747 4.214,1.2294 1.251,0.7626 2.333,1.836 3.143,3.0986 0.818,1.2534 1.368,2.7094 1.494,4.1974 0.175,1.476 -0.087,2.9786 -0.762,4.304 -0.187,0.3666 -0.636,0.5133 -1.003,0.3266 -0.121,-0.0626 -0.219,-0.1533 -0.288,-0.26 l -0.043,-0.0666 c -0.77,-1.2067 -1.226,-2.2574 -1.796,-3.216 -0.51,-0.972 -1.051,-1.8454 -1.597,-2.7267 -0.549,-0.8787 -1.133,-1.7573 -1.792,-2.668 -0.641,-0.9227 -1.378,-1.8773 -2.094,-2.9933 l -0.073,-0.1134 c -0.216,-0.3346 -0.118,-0.7826 0.217,-0.9973 0.117,-0.076 0.25,-0.112 0.38,-0.1147"
           inkscape:connector-curvature="0"
           style="opacity:1;fill:#ffffff" /></g><g
         id="g8878"
         style="clip-rule:evenodd;opacity:1;fill-rule:evenodd;stroke-linecap:round;stroke-linejoin:round"
         transform="matrix(0.75000002,0,0,-0.75000002,-328.41076,506.33876)"><path
           id="path8874"
           d="m 133.965,116.426 c 6.005,0 10.872,4.868 10.872,10.873 0,6.005 -4.867,10.873 -10.872,10.873 -6.006,0 -10.874,-4.868 -10.874,-10.873 0,-6.005 4.868,-10.873 10.874,-10.873"
           inkscape:connector-curvature="0"
           style="opacity:1;fill:#66d9ef" /><path
           id="path8876"
           d="m 136.474,119.523 c 0.954,-0.015 1.788,0.288 2.553,0.745 0.758,0.462 1.414,1.112 1.906,1.878 0.495,0.76 0.828,1.642 0.904,2.544 0.107,0.896 -0.052,1.805 -0.461,2.609 -0.113,0.223 -0.385,0.311 -0.607,0.197 -0.075,-0.037 -0.134,-0.093 -0.175,-0.157 l -0.026,-0.04 c -0.467,-0.732 -0.744,-1.369 -1.089,-1.949 -0.309,-0.59 -0.637,-1.119 -0.968,-1.654 -0.332,-0.532 -0.687,-1.064 -1.086,-1.616 -0.388,-0.56 -0.835,-1.138 -1.269,-1.814 l -0.045,-0.07 c -0.13,-0.202 -0.071,-0.473 0.133,-0.604 0.07,-0.045 0.151,-0.068 0.23,-0.069"
           inkscape:connector-curvature="0"
           style="opacity:1;fill:#ffffff" /></g><g
         id="g8884"
         style="clip-rule:evenodd;opacity:1;fill-rule:evenodd;stroke-linecap:round;stroke-linejoin:round"
         transform="matrix(0.75000002,0,0,-0.75000002,-328.41076,506.33876)"><path
           id="path8880"
           d="m 106.149,141.644 c 6.982,0 12.64,5.659 12.64,12.639 0,6.981 -5.658,12.641 -12.64,12.641 -6.9809,0 -12.6402,-5.66 -12.6402,-12.641 0,-6.98 5.6593,-12.639 12.6402,-12.639"
           inkscape:connector-curvature="0"
           style="opacity:1;fill:#66d9ef" /><path
           id="path8882"
           d="m 109.066,145.244 c 1.109,-0.016 2.079,0.335 2.969,0.867 0.881,0.539 1.644,1.293 2.215,2.184 0.576,0.883 0.964,1.909 1.052,2.956 0.124,1.04 -0.061,2.099 -0.537,3.032 -0.131,0.26 -0.448,0.363 -0.706,0.231 -0.086,-0.044 -0.155,-0.108 -0.203,-0.184 l -0.03,-0.047 c -0.543,-0.849 -0.865,-1.589 -1.266,-2.265 -0.359,-0.686 -0.74,-1.3 -1.125,-1.922 -0.387,-0.618 -0.798,-1.237 -1.263,-1.878 -0.451,-0.651 -0.97,-1.323 -1.475,-2.11 l -0.052,-0.08 c -0.151,-0.236 -0.083,-0.55 0.153,-0.702 0.083,-0.054 0.177,-0.079 0.268,-0.082"
           inkscape:connector-curvature="0"
           style="opacity:1;fill:#ffffff" /></g><g
         id="g8890"
         style="clip-rule:evenodd;opacity:1;fill-rule:evenodd;stroke-linecap:round;stroke-linejoin:round"
         transform="matrix(0.75000002,0,0,-0.75000002,-328.41076,506.33876)"><path
           id="path8886"
           d="m 132.52,173.844 c 3.663,0 6.633,2.97 6.633,6.634 0,3.662 -2.97,6.632 -6.633,6.632 -3.664,0 -6.633,-2.97 -6.633,-6.632 0,-3.664 2.969,-6.634 6.633,-6.634"
           inkscape:connector-curvature="0"
           style="opacity:1;fill:#66d9ef" /><path
           id="path8888"
           d="m 134.05,175.734 c 0.583,-0.008 1.092,0.176 1.558,0.454 0.463,0.283 0.862,0.679 1.163,1.146 0.301,0.464 0.505,1.002 0.551,1.552 0.066,0.545 -0.031,1.101 -0.281,1.592 -0.069,0.134 -0.235,0.189 -0.371,0.12 -0.045,-0.023 -0.081,-0.058 -0.107,-0.096 l -0.015,-0.024 c -0.285,-0.447 -0.454,-0.835 -0.665,-1.19 -0.188,-0.36 -0.388,-0.682 -0.59,-1.008 -0.203,-0.325 -0.418,-0.649 -0.662,-0.986 -0.237,-0.342 -0.51,-0.694 -0.775,-1.107 l -0.026,-0.041 c -0.081,-0.124 -0.044,-0.29 0.08,-0.37 0.044,-0.028 0.093,-0.041 0.14,-0.042"
           inkscape:connector-curvature="0"
           style="opacity:1;fill:#ffffff" /></g></g><g
       id="g9036"
       transform="translate(0,3.8870765)"><path
         d="m 135.16346,116.66601 c -0.741,-1.297 -1.505,-2.166 -2.204,-3.046 -0.684,-0.902 -1.396,-1.586 -2.033,-2.317 -1.339,-1.356 -2.564,-2.534 -3.925,-3.587 -1.355,-1.067 -2.696,-2.166 -4.248,-3.302 -1.573,-1.138 -3.212,-2.367 -5.408,-3.777 l -0.08,-0.052 c -0.279,-0.178 -0.649,-0.097 -0.828,0.181 -0.024,0.038 -0.045,0.081 -0.06,0.121 -0.958,2.668 -0.638,5.275 0.147,7.675 0.822,2.392 2.251,4.582 4.119,6.304 1.857,1.717 4.1,3.079 6.6,3.582 2.458,0.574 5.103,0.454 7.67,-0.814 0.325,-0.16 0.459,-0.555 0.298,-0.88 -0.005,-0.011 -0.011,-0.022 -0.017,-0.033 l -0.031,-0.055"
         style="fill:#040606;fill-opacity:1;fill-rule:nonzero;stroke:none;stroke-width:0.1"
         id="path122"
         inkscape:connector-curvature="0" /><path
         d="m 240.65446,117.63401 c 2.568,1.268 5.213,1.388 7.671,0.814 2.499,-0.503 4.742,-1.865 6.6,-3.582 1.868,-1.722 3.297,-3.912 4.118,-6.304 0.785,-2.4 1.106,-5.007 0.147,-7.675 -0.112,-0.311 -0.455,-0.473 -0.766,-0.361 -0.042,0.015 -0.082,0.035 -0.119,0.058 l -0.083,0.053 c -2.195,1.41 -3.834,2.639 -5.407,3.777 -1.552,1.136 -2.894,2.235 -4.248,3.302 -1.362,1.053 -2.587,2.231 -3.925,3.587 -0.637,0.731 -1.35,1.415 -2.033,2.317 -0.7,0.88 -1.463,1.749 -2.205,3.046 l -0.029,0.053 c -0.181,0.316 -0.07,0.717 0.244,0.897 0.012,0.006 0.025,0.013 0.035,0.018"
         style="fill:#040606;fill-opacity:1;fill-rule:nonzero;stroke:none;stroke-width:0.1"
         id="path124"
         inkscape:connector-curvature="0" /><path
         d="m 106.26136,109.59201 c 0,0 91.4821,-43.691195 211.5081,-29.100895 l -36.07,38.634895 -131.348,17.178 -44.0901,-26.712"
         style="fill:#75797b;fill-opacity:1;fill-rule:nonzero;stroke:none;stroke-width:0.1"
         id="path126"
         inkscape:connector-curvature="0" /><path
         d="m 102.41176,66.616115 -31.512896,7.4211 c -5.0984,1.2007 0.9449,23.9338 12.2508,28.488795 11.3051,4.554 27.577796,-21.450995 27.577796,-21.450995 0.106,-4.8878 -5.7716,-15.0589 -8.3157,-14.4589"
         style="fill:#f5748f;fill-opacity:1;fill-rule:evenodd;stroke:none;stroke-width:0.1"
         id="path128"
         inkscape:connector-curvature="0" /><path
         d="m 96.824264,77.700015 c -6.0641,-6.4011 -17.3203,-5.4832 -22.8762,-4.3808 l 28.463696,-6.7031 c 0,0 15.4757,33.3169 -5.587496,11.0839"
         style="fill:#f36082;fill-opacity:1;fill-rule:evenodd;stroke:none;stroke-width:0.1"
         id="path130"
         inkscape:connector-curvature="0" /><path
         d="m 102.35586,39.695015 c 12.2126,-31.7328005 51.7896,-15.32 60.0526,-14.4149 6.684,0.7301 14.7,-4.5851 29.61,-5.0699 14.909,-0.4832 23.043,3.8109 35.855,1.9727 12.813,-1.8379 32.711,-19.5500005 73.13,-7.5039 53.413,16.1179 -12.755,143.606995 -97.959,143.606995 -85.205,0 -112.901496,-86.858995 -100.6886,-118.590995 v 0"
         style="fill:#f9b1bc;fill-opacity:1;fill-rule:evenodd;stroke:none;stroke-width:0.1"
         id="path132"
         inkscape:connector-curvature="0" /><path
         d="m 216.41246,157.24501 -49.686,-4.972 c -0.001,0 -0.001,0 -0.001,0 -2.589,-0.923 -5.093,-1.944 -7.521,-3.048 -0.167,-0.076 -0.337,-0.15 -0.504,-0.227 -0.649,-0.299 -1.289,-0.609 -1.927,-0.921 -0.257,-0.126 -0.516,-0.251 -0.77,-0.379 -0.599,-0.299 -1.19,-0.605 -1.778,-0.914 -0.284,-0.15 -0.568,-0.302 -0.849,-0.455 -0.565,-0.304 -1.127,-0.613 -1.682,-0.928 -0.294,-0.166 -0.584,-0.336 -0.875,-0.505 -0.543,-0.316 -1.085,-0.631 -1.618,-0.956 -0.28,-0.17 -0.554,-0.345 -0.832,-0.518 -1.733,-1.078 -3.416,-2.203 -5.051,-3.371 -0.372,-0.265 -0.746,-0.529 -1.113,-0.799 -0.382,-0.281 -0.757,-0.569 -1.134,-0.855 -0.393,-0.298 -0.785,-0.596 -1.172,-0.9 -0.355,-0.277 -0.705,-0.559 -1.054,-0.841 -0.403,-0.325 -0.803,-0.651 -1.199,-0.982 -0.326,-0.271 -0.65,-0.544 -0.972,-0.819 -0.419,-0.359 -0.834,-0.721 -1.246,-1.086 -0.289,-0.256 -0.58,-0.512 -0.865,-0.771 -0.459,-0.416 -0.911,-0.837 -1.36,-1.26 -0.231,-0.217 -0.465,-0.431 -0.692,-0.65 -0.668,-0.64 -1.328,-1.288 -1.974,-1.943 -0.006,-0.005 -0.011,-0.01 -0.016,-0.016 l 0.035,-0.449 c 0,0 39.745,-14.25 116.53,-10.087 18.09,0.981 35.01,-8.938 43.06,-25.168995 13.517,-27.2509 27.293,-67.004 1.808,-81.0169 2.902,0.598 5.906,1.3359 9.05,2.2719 50.582,15.2652 -6.08,130.405995 -84.592,142.565995"
         style="fill:#f8a2ad;fill-opacity:1;fill-rule:evenodd;stroke:none;stroke-width:0.1"
         id="path134"
         inkscape:connector-curvature="0" /><path
         d="m 122.43346,37.857115 c 0.851,0.5769 27.385,22.209 51.278,22.6488 16.208,0.302 29.801,2.025 49.477,-6.1129 19.675,-8.1398 41.836,-24.084 42.414,-24.4379 0.577,-0.3511 0.96,-2.357 0.543,-3.2519 -0.417,-0.8942 -1.765,-0.625 -2.249,-0.3063 -0.485,0.3211 -24.625,14.6403 -41.329,21.5481 -16.703,6.909 -31.04,6.0968 -49.476,6.114 -23.898,0.027 -48.053,-19.8179 -48.824,-19.9558 -0.772,-0.1633 -2.613,-0.691 -3.088,0.4218 -0.395,0.925 0.402,2.7571 1.254,3.3329 v -8e-4"
         style="fill:#a7505d;fill-opacity:1;fill-rule:nonzero;stroke:none;stroke-width:0.1"
         id="path136"
         inkscape:connector-curvature="0" /><path
         d="m 161.71646,87.089915 c 0.144,-11.5027 -8.915,-20.9469 -20.233,-21.0949 v 0 c -11.317,-0.1461 -20.608,9.0601 -20.752,20.5629 -0.145,11.5031 8.914,20.947095 20.232,21.095095 v 0 c 11.318,0.146 20.609,-9.059995 20.753,-20.563095"
         style="fill:#ffffff;fill-opacity:1;fill-rule:nonzero;stroke:none;stroke-width:0.1"
         id="path138"
         inkscape:connector-curvature="0" /><path
         d="m 142.15446,70.369215 c -8.835,-0.5402 -16.43,6.2969 -16.968,15.2769 -0.538,8.9789 6.185,16.703895 15.019,17.258895 8.835,0.554 16.441,-6.270995 16.994,-15.275995 0.526,-9.0071 -6.209,-16.72 -15.045,-17.2598"
         style="fill:#040606;fill-opacity:1;fill-rule:nonzero;stroke:none;stroke-width:0.1"
         id="path140"
         inkscape:connector-curvature="0" /><path
         d="m 157.51146,77.509015 -39.624,22.424 10.313,5.550995 5.001,5.474 22.213,3.56 7.331,-16.010995 -5.234,-20.998"
         style="fill:#f9b1bc;fill-opacity:1;fill-rule:nonzero;stroke:none;stroke-width:0.1"
         id="path142"
         inkscape:connector-curvature="0" /><path
         d="m 152.67446,92.903015 c -1.204,0.884 -1.98,1.743 -2.774,2.538 -0.819,0.781 -1.417,1.568 -2.07,2.284 -1.194,1.484 -2.225,2.835995 -3.115,4.309995 -0.906,1.466 -1.843,2.924 -2.795,4.596 -0.952,1.694 -1.984,3.462 -3.134,5.804 l -0.043,0.086 c -0.145,0.297 -0.023,0.655 0.274,0.802 0.041,0.019 0.085,0.035 0.127,0.045 2.76,0.648 5.314,0.032 7.608,-1.023 2.283,-1.09 4.295,-2.759 5.792,-4.811 1.494,-2.041 2.59,-4.426 2.805,-6.966 0.29,-2.507995 -0.133,-5.120995 -1.684,-7.527995 -0.197,-0.304 -0.604,-0.392 -0.909,-0.196 -0.011,0.007 -0.021,0.015 -0.031,0.022 l -0.051,0.037"
         style="fill:#040606;fill-opacity:1;fill-rule:nonzero;stroke:none;stroke-width:0.1"
         id="path144"
         inkscape:connector-curvature="0" /><path
         d="m 208.05846,88.700015 c 0.931,-14.6628 -10.819,-27.357 -26.252,-28.3601 -15.434,-1.0027 -28.713,10.0641 -29.669,24.7262 -0.956,14.6609 10.773,27.370895 26.205,28.396895 15.432,1.027 28.73,-10.019 29.71,-24.677795"
         style="fill:#f9b1bc;fill-opacity:1;fill-rule:nonzero;stroke:none;stroke-width:0.1"
         id="path146"
         inkscape:connector-curvature="0" /><path
         d="m 205.72546,79.291815 c -3.283,-9.7757 -12.592,-17.1578 -23.992,-17.8949 -14.82,-0.9629 -27.57,9.666 -28.485,23.7442 -0.417,6.4219 1.7,12.4539 5.533,17.208895 0,0 2.414,2.727 0.954,3.885 -1.46,1.158 -3.539,-2.091 -3.539,-2.091 -4.266,-5.315995 -6.621,-12.050995 -6.153,-19.220095 1.031,-15.7559 15.302,-27.6469 31.888,-26.5699 12.777,0.8281 23.206,9.1121 26.868,20.0761 0,0 0.86,2.2469 -0.648,2.786 -1.507,0.539 -2.426,-1.925 -2.426,-1.925 v 7e-4"
         style="fill:#a7505d;fill-opacity:1;fill-rule:nonzero;stroke:none;stroke-width:0.1"
         id="path148"
         inkscape:connector-curvature="0" /><path
         d="m 166.29946,78.066815 c 0,0 28.078,2.5954 32.018,20.9842 4.465,20.836995 64.93,7.432995 97.782,-20.2092 l 6.218,3.543 -7.86,24.099195 -122.558,30.521 -5.6,-58.938195"
         style="fill:#f8a2ad;fill-opacity:1;fill-rule:nonzero;stroke:none;stroke-width:0.1"
         id="path150"
         inkscape:connector-curvature="0" /><path
         d="m 254.09046,86.291115 c 0.144,-11.5032 -8.914,-20.9469 -20.233,-21.093 v 0 c -11.317,-0.1481 -20.608,9.0578 -20.752,20.5609 -0.144,11.503 8.915,20.946995 20.232,21.094995 0,0 0,0 0.001,0 11.317,0.146 20.608,-9.059995 20.752,-20.562895 v 0"
         style="fill:#ffffff;fill-opacity:1;fill-rule:nonzero;stroke:none;stroke-width:0.1"
         id="path152"
         inkscape:connector-curvature="0" /><path
         d="m 234.52846,69.570015 c -8.835,-0.5391 -16.429,6.298 -16.967,15.2769 -0.538,8.9801 6.184,16.705095 15.018,17.260095 8.835,0.554 16.441,-6.271995 16.994,-15.276895 0.526,-9.0051 -6.209,-16.7199 -15.045,-17.2601"
         style="fill:#040606;fill-opacity:1;fill-rule:nonzero;stroke:none;stroke-width:0.1"
         id="path154"
         inkscape:connector-curvature="0" /><path
         d="m 213.10346,77.509015 39.625,22.424 -10.313,5.550995 -5.219,1.052 -5.855,1.011 -23.472,-9.039995 5.234,-20.998"
         style="fill:#f9b1bc;fill-opacity:1;fill-rule:nonzero;stroke:none;stroke-width:0.1"
         id="path156"
         inkscape:connector-curvature="0" /><path
         d="m 188.76646,91.210015 -22.467,-13.1432 -3.735,0.9731 -9.408,21.494095 23.23,50.435 16.845,-4.411 -4.465,-55.347995"
         style="fill:#75797b;fill-opacity:1;fill-rule:nonzero;stroke:none;stroke-width:0.1"
         id="path158"
         inkscape:connector-curvature="0" /><path
         d="m 123.80246,128.60101 c 20.353,47.201 61.255,77.418 103.91,71.878 44.282,-5.751 76.893,-48.277 82.867,-101.899995 0.736,-6.606 -46.191,29.914995 -95.643,37.914995 -45.468,7.355 -93.9,-14.305 -91.134,-7.893"
         style="fill:#533f37;fill-opacity:1;fill-rule:nonzero;stroke:none;stroke-width:0.1"
         id="path160"
         inkscape:connector-curvature="0" /><path
         d="m 310.57946,98.579015 c -3.296,29.581995 -14.709,55.767995 -31.704,74.283995 6.19,-12.323 12.666,-35.977 -1.558,-36.559 -19.255,-0.788 -102.022,25.312 -136.094,7.587 0,0 55.004,-4.371 73.713,-7.397 49.452,-8 96.379,-44.520995 95.643,-37.914995"
         style="fill:#41322d;fill-opacity:1;fill-rule:nonzero;stroke:none;stroke-width:0.1"
         id="path162"
         inkscape:connector-curvature="0" /><path
         d="m 233.59846,199.48401 c 0,0 -20.164,-7.27 -26.444,-56.898 h -4.883 l 7.642,51.218 23.685,5.68"
         style="fill:#351f16;fill-opacity:1;fill-rule:nonzero;stroke:none;stroke-width:0.1"
         id="path164"
         inkscape:connector-curvature="0" /><path
         d="m 169.14246,146.88501 c 0,0 22.664,74.399 64.456,52.599 0,0 -22.444,-4.991 -28.955,-56.898 l -35.501,4.299"
         style="fill:#533f37;fill-opacity:1;fill-rule:nonzero;stroke:none;stroke-width:0.1"
         id="path166"
         inkscape:connector-curvature="0" /><path
         d="m 170.18246,149.99501 c -0.691,-1.964 -1.04,-3.11 -1.04,-3.11 l 35.501,-4.299 c 0.225,1.794 0.471,3.527 0.733,5.211 -12.078,1.58 -24.198,2.558 -35.194,2.198"
         style="fill:#41322d;fill-opacity:1;fill-rule:nonzero;stroke:none;stroke-width:0.1"
         id="path168"
         inkscape:connector-curvature="0" /><path
         d="m 169.14246,146.88501 2.824,-0.343 1.227,0.343 c 0,0 15.613,52.604 46.312,56.569 -32.767,1.168 -50.363,-56.569 -50.363,-56.569"
         style="fill:#64524c;fill-opacity:1;fill-rule:nonzero;stroke:none;stroke-width:0.1"
         id="path170"
         inkscape:connector-curvature="0" /><path
         d="m 121.80346,132.82901 c 0,0 46.717,41.517 189.718,-25.483 0,0 3.647,-6.911 4.473,-14.995995 0.404,-3.9441 1.775,-11.8589 1.775,-11.8589 l -6.593,0.4519 c -157.689,73.879995 -201.013,26.912995 -201.013,26.912995 l -3.9021,1.736 c 0,0 6.9781,8.51 8.6951,12.465 3.209,7.396 6.847,10.772 6.847,10.772"
         style="fill:#75797b;fill-opacity:1;fill-rule:nonzero;stroke:none;stroke-width:0.1"
         id="path172"
         inkscape:connector-curvature="0" /><path
         d="m 118.80346,135.82901 c 0,0 49.145,41.517 192.145,-25.483 0,0 3.809,-3.434 5.114,-13.968995 1.304,-10.5352 1.707,-15.8859 1.707,-15.8859 -46.428,23.768895 -85.658,35.525895 -115.289,40.908895 -71.474,12.985 -96.2191,-11.808 -96.2191,-11.808 0,0 2.4851,8.07 5.6951,15.465 3.209,7.395 6.847,10.772 6.847,10.772"
         style="fill:#d1d2d0;fill-opacity:1;fill-rule:nonzero;stroke:none;stroke-width:0.1"
         id="path174"
         inkscape:connector-curvature="0" /><path
         d="m 312.93746,52.820015 37.01,21.491 c 5.99,3.4762 -9.013,27.082995 -25.475,28.096995 -16.461,1.013 -25.794,-36.886095 -25.794,-36.886095 2.02,-5.95 11.27,-14.4379 14.259,-12.7019 v 0"
         style="fill:#f5748f;fill-opacity:1;fill-rule:evenodd;stroke:none;stroke-width:0.1"
         id="path176"
         inkscape:connector-curvature="0" /><path
         d="m 313.47846,97.050015 v 0 c 14.268,8.986995 28.828,-5.805 33.22,-14.1351 3.959,-7.5039 -26.623,-25.9168 -32.715,-29.4867 l 35.964,20.8828 c 5.99,3.4762 -9.013,27.082995 -25.475,28.096995 -4.123,0.254 -7.8,-1.935 -10.994,-5.357995"
         style="fill:#f36082;fill-opacity:1;fill-rule:evenodd;stroke:none;stroke-width:0.1"
         id="path178"
         inkscape:connector-curvature="0" /><path
         d="m 185.03146,92.184015 -22.467,-13.1441 -13.143,22.467095 17.741,38.517 21.7,-0.342 -3.831,-47.497995"
         style="fill:#d1d2d0;fill-opacity:1;fill-rule:nonzero;stroke:none;stroke-width:0.1"
         id="path180"
         inkscape:connector-curvature="0" /><path
         d="m 254.13146,179.81901 49.3,11.402 c 1.905,0.441 3.352,-1.696 2.237,-3.301 l -27.351,-39.375 c 0,0 -27.535,5.971 -24.186,31.274"
         style="fill:#beaf8e;fill-opacity:1;fill-rule:nonzero;stroke:none;stroke-width:0.1"
         id="path182"
         inkscape:connector-curvature="0" /><path
         d="m 171.73246,186.83701 -41.457,18.155 c -1.602,0.701 -3.227,-0.938 -2.511,-2.534 l 17.549,-39.124 c 0,0 25.19,0.707 26.419,23.503"
         style="fill:#beaf8e;fill-opacity:1;fill-rule:nonzero;stroke:none;stroke-width:0.1"
         id="path184"
         inkscape:connector-curvature="0" /><path
         d="m 274.41046,155.60901 c -6.844,-1.11 -15.593,5.065 -15.694,5.138 7.135,-9.485 19.601,-12.202 19.601,-12.202 l 25.936,37.337 c -0.002,-0.002 -22.959,-29.157 -29.843,-30.273"
         style="fill:#a99981;fill-opacity:1;fill-rule:nonzero;stroke:none;stroke-width:0.1"
         id="path186"
         inkscape:connector-curvature="0" /><path
         d="m 159.40946,167.21601 c 5.994,3.197 11.752,9.017 12.323,19.621 l -15.908,6.967 v 0 c 0,0 15.836,-14.706 3.585,-26.588"
         style="fill:#a99981;fill-opacity:1;fill-rule:nonzero;stroke:none;stroke-width:0.1"
         id="path188"
         inkscape:connector-curvature="0" /><path
         d="m 212.20946,94.021015 c -0.646,2.789 -0.16,5.391 0.961,7.652995 1.062,2.318 2.9,4.191 4.997,5.606 2.103,1.424 4.561,2.315 7.078,2.568 2.516,0.216 5.127,-0.068 7.505,-1.611 0.277,-0.181 0.357,-0.552 0.177,-0.829 -0.025,-0.038 -0.053,-0.073 -0.084,-0.103 l -0.071,-0.068 c -1.874,-1.815 -3.445,-3.13 -4.914,-4.401 -1.46,-1.252 -2.835,-2.306 -4.184,-3.380995 -1.336,-1.085 -2.764,-2.007 -4.39,-3.001 -0.857,-0.452 -1.686,-0.99 -2.721,-1.448 -1.016,-0.48 -2.037,-1.025 -3.469,-1.45 l -0.058,-0.018 c -0.348,-0.102 -0.714,0.096 -0.817,0.444 -0.004,0.013 -0.008,0.026 -0.01,0.039"
         style="fill:#040606;fill-opacity:1;fill-rule:nonzero;stroke:none;stroke-width:0.1"
         id="path190"
         inkscape:connector-curvature="0" /><path
         d="m 240.73746,79.586015 c 1.149,-0.0668 1.986,-1.25 1.871,-2.641 -0.115,-1.3918 -1.138,-2.4649 -2.286,-2.3981 -1.148,0.0692 -1.985,1.2512 -1.871,2.643 0.115,1.391 1.139,2.4652 2.286,2.3961"
         style="fill:#ffffff;fill-opacity:1;fill-rule:nonzero;stroke:none;stroke-width:0.1"
         id="path192"
         inkscape:connector-curvature="0" /><path
         d="m 146.96646,79.586015 c 1.148,-0.0668 1.985,-1.25 1.87,-2.641 -0.115,-1.3918 -1.138,-2.4649 -2.286,-2.3981 -1.148,0.0692 -1.985,1.2512 -1.87,2.643 0.114,1.391 1.138,2.4652 2.286,2.3961"
         style="fill:#ffffff;fill-opacity:1;fill-rule:nonzero;stroke:none;stroke-width:0.1"
         id="path194"
         inkscape:connector-curvature="0" /><path
         d="m 356.15846,125.68901 -56.507,-17.794 c 0,0 -8.953,-1.53 -13.629,8.633 -4.677,10.163 1.474,17.783 1.474,17.783 l 50.275,31.34 18.387,-39.962"
         style="fill:#75797b;fill-opacity:1;fill-rule:nonzero;stroke:none;stroke-width:0.1"
         id="path196"
         inkscape:connector-curvature="0" /><path
         d="m 309.73446,111.07101 14.175,4.463 c -10.367,-2.178 -22.381,27.525 -22.381,27.525 l -3.767,-2.349 11.973,-29.639"
         style="fill:#5f6263;fill-opacity:1;fill-rule:nonzero;stroke:none;stroke-width:0.1"
         id="path198"
         inkscape:connector-curvature="0" /><path
         d="m 324.98546,115.87201 c -10e-4,0 -10e-4,0 -10e-4,0 h 10e-4 v 0"
         style="fill:#5f6263;fill-opacity:1;fill-rule:nonzero;stroke:none;stroke-width:0.1"
         id="path200"
         inkscape:connector-curvature="0" /><path
         d="m 356.15846,125.68901 1.828,2.548 -17.215,37.414 h -3 l 18.387,-39.962"
         style="fill:#e8e8e6;fill-opacity:1;fill-rule:nonzero;stroke:none;stroke-width:0.1"
         id="path202"
         inkscape:connector-curvature="0" /><path
         d="m 344.85746,122.13001 11.301,3.559 -18.387,39.962 -10.055,-6.267 17.141,-37.254"
         style="fill:#d1d2d0;fill-opacity:1;fill-rule:nonzero;stroke:none;stroke-width:0.1"
         id="path204"
         inkscape:connector-curvature="0" /><path
         d="m 336.02746,54.027015 v 0 c -3.422,-1.575 -7.471,-0.0102 -8.945,3.4582 l -35.621,83.834795 c -0.847,1.99 0.044,4.293 2.009,5.197 v 0 c 1.965,0.905 4.293,0.083 5.255,-1.855 l 40.496,-81.590895 c 1.676,-3.3761 0.23,-7.4691 -3.194,-9.0441"
         style="fill:#845131;fill-opacity:1;fill-rule:nonzero;stroke:none;stroke-width:0.1"
         id="path206"
         inkscape:connector-curvature="0" /><path
         d="m 333.94546,57.377015 c -2.07,-1.702 -4.307,-1.607 -5.745,-1.6738 1.895,-2.1703 5.064,-2.9481 7.827,-1.6762 3.424,1.575 4.87,5.668 3.194,9.0441 l -8.197,16.5129 c 3.297,-9.7308 6.316,-19.4172 2.921,-22.207"
         style="fill:#533f37;fill-opacity:1;fill-rule:nonzero;stroke:none;stroke-width:0.1"
         id="path208"
         inkscape:connector-curvature="0" /></g></g></svg>