<?xml version="1.0" encoding="UTF-8" standalone="no"?>
<!-- Created with Vectornator for iOS (http://vectornator.io/) -->

<svg
   xmlns:vectornator="http://vectornator.io"
   xmlns:dc="http://purl.org/dc/elements/1.1/"
   xmlns:cc="http://creativecommons.org/ns#"
   xmlns:rdf="http://www.w3.org/1999/02/22-rdf-syntax-ns#"
   xmlns:svg="http://www.w3.org/2000/svg"
   xmlns="http://www.w3.org/2000/svg"
   xmlns:sodipodi="http://sodipodi.sourceforge.net/DTD/sodipodi-0.dtd"
   xmlns:inkscape="http://www.inkscape.org/namespaces/inkscape"
   style="fill-rule:evenodd;clip-rule:evenodd;stroke-linecap:round;stroke-linejoin:round;"
   xml:space="preserve"
   version="1.1"
   viewBox="0 0 554.893 345.613"
   id="svg1039"
   sodipodi:docname="Blobscales.svg"
   inkscape:version="0.92.4 (5da689c313, 2019-01-14)"><sodipodi:namedview
   pagecolor="#ffffff"
   bordercolor="#666666"
   borderopacity="1"
   objecttolerance="10"
   gridtolerance="10"
   guidetolerance="10"
   inkscape:pageopacity="0"
   inkscape:pageshadow="2"
   inkscape:window-width="3840"
   inkscape:window-height="2047"
   id="namedview1041"
   showgrid="false"
   inkscape:zoom="1.8771587"
   inkscape:cx="207.42593"
   inkscape:cy="132.68858"
   inkscape:window-x="2560"
   inkscape:window-y="0"
   inkscape:window-maximized="1"
   inkscape:current-layer="svg1039" />
<metadata
   id="metadata996">
<vectornator:setting
   key="DynamicGuides"
   value="1" />
<vectornator:setting
   key="CMYKEnabledKey"
   value="0" />
<vectornator:setting
   key="Units"
   value="Points" />
<vectornator:setting
   key="RulersVisible"
   value="1" />
<vectornator:setting
   key="SnapToGuides"
   value="1" />
<vectornator:setting
   key="GridSpacing"
   value="36" />
<rdf:RDF><cc:Work
     rdf:about=""><dc:format>image/svg+xml</dc:format><dc:type
       rdf:resource="http://purl.org/dc/dcmitype/StillImage" /></cc:Work></rdf:RDF></metadata>
<defs
   id="defs998" />
<g
   id="Layer 3"
   vectornator:layerName="Layer 3"
   transform="matrix(0.89335814,0,0,0.89335814,29.58743,18.266713)">
<path
   d="m 260.525,68.0165 c 93.241,0 168.826,55.4935 168.826,123.9565 0,68.455 -75.584,123.957 -168.826,123.957 -93.232,0 -168.8201,-55.502 -168.8201,-123.957 0,-68.463 75.5881,-123.9565 168.8201,-123.9565"
   id="path1000"
   inkscape:connector-curvature="0"
   style="opacity:1;fill:#66d9ef" />
<path
   d="m 10.511,237.235 c 0,-26.812 0,-88.418 99.447,-72.141 29.34,4.802 58.176,11.577 74.022,26.879 13.094,12.646 15.832,33.131 15.832,45.262 0,10.401 36.519,70.795 28.351,78.695 -12.89,12.467 -105.761,14.734 -136.4582,0 C 44.5226,293.283 10.511,264.047 10.511,237.235 Z"
   id="path1002"
   inkscape:connector-curvature="0"
   style="opacity:1;fill:#a6e22e" />
<path
   d="m 358.551,150.681 c 0,-29.804 20.058,-54.1744 70.8,-75.3564 61.225,-25.5579 112.239,20.0658 115.009,72.6774 0.832,15.808 -21.581,80.344 -62.473,112.447 -36.076,28.322 -90.166,28.372 -111.174,28.373 -16.346,10e-4 -0.42,-96.298 -3.936,-112.301 -3.515,-16.004 -8.226,-17.918 -8.226,-25.84 z"
   id="path1004"
   inkscape:connector-curvature="0"
   style="opacity:1;fill:#a6e22e" />
<path
   d="m 58.6561,207.143 c 0,-5.147 41.3839,-160.372 170.2779,-184.5159 178.726,-33.4786 237.833,79.4709 239.626,83.3409 1.23,2.654 -27.727,-0.982 -54.54,10.424 -26.812,11.406 -49.976,35.2 -49.976,35.2 0,0 -21.9,-54.7582 -91.232,-45.624 -77.493,10.209 -80.47,80.974 -80.47,80.974 0,0 -34.046,-14.721 -65.45,-9.671 -31.4044,5.05 -68.2359,35.643 -68.2359,29.872 z"
   id="path1006"
   inkscape:connector-curvature="0"
   style="opacity:1;fill:#fb7c83" />
<path
   d="M 61.2559,230.231 C 61.7193,220.82 105.33,55.2302 234.223,31.0862 412.95,-2.39233 470.404,126.495 471.16,129.057 c 0.528,1.79 -27.727,-0.982 -54.54,10.424 -26.813,11.406 -50.161,35.355 -50.161,35.355 0,0 -21.715,-54.914 -91.048,-45.779 -77.492,10.209 -80.174,81.026 -80.174,81.026 0,0 -34.341,-14.774 -65.746,-9.724 -31.4037,5.05 -68.7447,40.22 -68.2351,29.872 z"
   id="path1008"
   inkscape:connector-curvature="0"
   style="opacity:1;fill:#ffc7c7" />
<path
   d="m 510.449,200.476 c 35.499,-65.852 16.117,-88.328 -2.315,-118.5793 21.117,14.7359 34.827,39.5293 36.226,66.1053 0.832,15.808 -21.581,80.344 -62.473,112.447 -23.756,18.65 -55.323,25.04 -80.112,27.231 43.56,-15.022 81.257,-36.345 108.674,-87.204 z"
   id="path1010"
   inkscape:connector-curvature="0"
   style="opacity:1;fill:#97ce29" />
<path
   d="m 10.511,237.235 c 25.2572,50.445 82.7313,65.56 103.133,69.06 28.228,4.841 63.627,9.635 114.012,-3.028 1.893,6.188 2.399,10.833 0.507,12.663 -12.89,12.467 -105.761,14.734 -136.4582,0 C 44.5226,293.283 10.511,264.047 10.511,237.235 Z"
   id="path1012"
   inkscape:connector-curvature="0"
   style="opacity:1;fill:#97ce29" />
<g
   id="g1036"
   style="opacity:1">
<path
   d="m 219.977,119.324 c 0.688,-0.466 22.138,-17.952 41.453,-18.309 13.103,-0.244 24.09,-1.637 39.996,4.943 15.905,6.579 33.821,19.468 34.287,19.754 0.466,0.284 0.776,1.906 0.439,2.629 -0.338,0.723 -1.426,0.505 -1.819,0.247 -0.391,-0.258 -19.906,-11.834 -33.409,-17.419 -13.502,-5.584 -25.092,-4.929 -39.996,-4.942 -19.319,-0.022 -38.845,16.021 -39.468,16.133 -0.625,0.131 -2.113,0.558 -2.497,-0.342 -0.32,-0.747 0.325,-2.229 1.014,-2.694 v 0"
   id="path1014"
   inkscape:connector-curvature="0"
   style="opacity:1;fill:#a7505d" />
<path
   d="m 251.733,79.5248 c 0.116,9.299 -7.207,16.9336 -16.355,17.0529 v 0 c -9.15,0.1181 -16.661,-7.3239 -16.777,-16.6228 -0.116,-9.2989 7.206,-16.9333 16.355,-17.0521 v 0 c 9.15,-0.1189 16.661,7.3232 16.777,16.622"
   id="path1016"
   inkscape:connector-curvature="0"
   style="opacity:1;fill:#ffffff" />
<path
   d="m 235.919,93.042 c -7.142,0.4373 -13.282,-5.0897 -13.717,-12.3498 -0.434,-7.2585 5,-13.5034 12.142,-13.952 7.142,-0.4471 13.29,5.0694 13.737,12.3488 0.425,7.2812 -5.019,13.5165 -12.162,13.953"
   id="path1018"
   inkscape:connector-curvature="0"
   style="opacity:1;fill:#040606" />
<path
   d="m 237.34,71.3755 c 1.246,-1.709 5.776,-0.1924 7.364,2.6483 1.587,2.839 1.572,7.2001 -1.057,8.0806 -2.631,0.8794 -2.438,-2.5465 -3.817,-4.9619 -1.379,-2.4154 -3.737,-4.0589 -2.49,-5.7662 v -8e-4"
   id="path1020"
   inkscape:connector-curvature="0"
   style="opacity:1;fill:#ffffff" />
<path
   d="m 243.364,82.9863 c 0.928,0.0543 1.604,1.0115 1.512,2.1366 -0.093,1.1245 -0.921,1.9913 -1.849,1.937 -0.928,-0.0544 -1.604,-1.0115 -1.511,-2.136 0.093,-1.1251 0.92,-1.9916 1.848,-1.9376"
   id="path1022"
   inkscape:connector-curvature="0"
   style="opacity:1;fill:#ffffff" />
<path
   d="m 323.982,79.3625 c 0.116,9.2986 -7.207,16.9332 -16.355,17.0513 v 0 c -9.15,0.1197 -16.66,-7.3225 -16.777,-16.6213 -0.116,-9.299 7.206,-16.9334 16.356,-17.053 v 0 c 9.149,-0.1181 16.66,7.324 16.776,16.623 v 0"
   id="path1024"
   inkscape:connector-curvature="0"
   style="opacity:1;fill:#ffffff" />
<path
   d="m 308.169,92.8793 c -7.143,0.4367 -13.283,-5.0909 -13.717,-12.3497 -0.435,-7.2592 4.999,-13.5041 12.142,-13.9527 7.141,-0.4479 13.289,5.0702 13.737,12.3498 0.425,7.2802 -5.02,13.5162 -12.162,13.9526"
   id="path1026"
   inkscape:connector-curvature="0"
   style="opacity:1;fill:#040606" />
<path
   d="m 309.589,71.213 c 1.246,-1.7089 5.776,-0.1924 7.364,2.6475 1.587,2.8391 1.572,7.2012 -1.056,8.0815 -2.631,0.8795 -2.439,-2.5473 -3.817,-4.9627 -1.379,-2.4147 -3.738,-4.0582 -2.491,-5.7663 v 0"
   id="path1028"
   inkscape:connector-curvature="0"
   style="opacity:1;fill:#ffffff" />
<path
   d="m 315.614,82.8231 c 0.927,0.0549 1.604,1.0114 1.511,2.1359 -0.093,1.1251 -0.921,1.9926 -1.848,1.9382 -0.928,-0.0549 -1.604,-1.0111 -1.512,-2.1365 0.093,-1.1245 0.92,-1.9926 1.849,-1.9376"
   id="path1030"
   inkscape:connector-curvature="0"
   style="opacity:1;fill:#ffffff" />
<path
   d="m 289.195,78.2241 c 0.753,11.8533 -8.746,22.1149 -21.221,22.9249 -12.477,0.811 -23.212,-8.1355 -23.985,-19.9872 -0.772,-11.8517 8.709,-22.1272 21.183,-22.9566 12.476,-0.8302 23.225,8.0993 24.019,19.9494"
   id="path1032"
   inkscape:connector-curvature="0"
   style="opacity:1;fill:#ffc7c7" />
<path
   d="m 287.309,85.8296 c -2.654,7.9026 -10.179,13.8695 -19.395,14.4664 -11.98,0.777 -22.287,-7.8152 -23.027,-19.1955 -0.337,-5.1916 1.375,-10.0678 4.473,-13.9117 0,0 1.952,-2.2036 0.772,-3.1398 -1.18,-0.9369 -2.861,1.6896 -2.861,1.6896 -3.449,4.2974 -5.353,9.7427 -4.974,15.5381 0.833,12.7363 12.37,22.3483 25.778,21.4783 10.328,-0.669 18.759,-7.3656 21.719,-16.2295 0,0 0.696,-1.8156 -0.523,-2.2514 -1.219,-0.4358 -1.962,1.5555 -1.962,1.5555 v 0"
   id="path1034"
   inkscape:connector-curvature="0"
   style="opacity:1;fill:#a7505d" />
</g>
</g>
</svg>