<?xml version="1.0" encoding="UTF-8" standalone="no"?>
<svg
   xmlns:dc="http://purl.org/dc/elements/1.1/"
   xmlns:cc="http://creativecommons.org/ns#"
   xmlns:rdf="http://www.w3.org/1999/02/22-rdf-syntax-ns#"
   xmlns:svg="http://www.w3.org/2000/svg"
   xmlns="http://www.w3.org/2000/svg"
   xmlns:sodipodi="http://sodipodi.sourceforge.net/DTD/sodipodi-0.dtd"
   xmlns:inkscape="http://www.inkscape.org/namespaces/inkscape"
   version="1.1"
   id="svg2"
   xml:space="preserve"
   width="800"
   height="420"
   viewBox="0 0 800 420"
   sodipodi:docname="Blobsocial.svg"
   inkscape:version="1.0 (b51213c273, 2020-08-10)"><metadata
     id="metadata8"><rdf:RDF><cc:Work
         rdf:about=""><dc:format>image/svg+xml</dc:format><dc:type
           rdf:resource="http://purl.org/dc/dcmitype/StillImage" /><dc:title /></cc:Work></rdf:RDF></metadata><defs
     id="defs6"><clipPath
       clipPathUnits="userSpaceOnUse"
       id="clipPath70"><path
         d="m 3699.09,635.641 h 78.64 c 151.7,0 284.26,102.398 322.6,249.168 l 16.65,63.75 c 33.08,126.631 -62.47,250.351 -193.35,250.351 l -348.95,-0.01 c -86.18,1.05 -154.28,-72.8 -146.27,-158.62 l 16.12,-172.721 c 12.27,-131.43 122.57,-231.918 254.56,-231.918 z"
         id="path68" /></clipPath><clipPath
       clipPathUnits="userSpaceOnUse"
       id="clipPath90"><path
         d="m 4863.79,635.641 h -78.63 c -151.69,0 -284.27,102.398 -322.61,249.168 l -16.65,63.75 c -33.08,126.631 62.48,250.351 193.36,250.351 l 348.94,-0.01 c 86.19,1.05 154.28,-72.8 146.27,-158.62 L 5118.35,867.559 C 5106.09,736.129 4995.78,635.641 4863.79,635.641 Z"
         id="path88" /></clipPath></defs><sodipodi:namedview
     pagecolor="#ffffff"
     bordercolor="#666666"
     borderopacity="1"
     objecttolerance="10"
     gridtolerance="10"
     guidetolerance="10"
     inkscape:pageopacity="0"
     inkscape:pageshadow="2"
     inkscape:window-width="1920"
     inkscape:window-height="1016"
     id="namedview4"
     showgrid="false"
     inkscape:zoom="0.76755324"
     inkscape:cx="155.38564"
     inkscape:cy="258.87964"
     inkscape:window-x="1280"
     inkscape:window-y="27"
     inkscape:window-maximized="1"
     inkscape:current-layer="g10"
     inkscape:document-rotation="0" /><g
     id="g10"
     inkscape:groupmode="layer"
     inkscape:label="ink_ext_XXXXXX"
     transform="matrix(1.3333333,0,0,-1.3333333,0,386.02667)"><path
       style="clip-rule:evenodd;fill:#a6f6ff;fill-opacity:1;fill-rule:evenodd;stroke-width:0.952869;stroke-linecap:round;stroke-linejoin:round"
       inkscape:connector-curvature="0"
       id="path1048"
       d="m 78.795604,41.094413 c 0,108.925267 99.037096,197.227187 221.204726,197.227187 122.16773,0 221.20408,-88.30192 221.20408,-197.227187 0,-17.656674 -2.60259,-34.7716793 -7.48376,-51.0562057 -29.08521,-4.0965493 -407.74947,-4.0965493 -427.638066,0.660424 -4.754533,16.0865804 -7.28698,32.9775637 -7.28698,50.3957817 z" /><ellipse
       style="fill:#ffd866;stroke:none;stroke-width:2.24134;stroke-linecap:round;fill-opacity:1"
       id="path898"
       cx="300"
       cy="-4.7862744"
       transform="scale(1,-1)"
       rx="289.51743"
       ry="29.623877" /><g
       id="g1065"
       transform="translate(8.8134631,-0.64226674)"><path
         d="m 245.006,162.447 c -21.392,-4.797 -56.005,-35.537 -59.813,-60.038 12.366,-3.791 47.698,-15.9762 87.116,0.676 33.468,14.138 45.326,40.748 44.499,55.809 0,0 -6.099,18.285 -71.802,3.553"
         style="fill:#976d46;fill-opacity:1;fill-rule:nonzero;stroke:none;stroke-width:0.1"
         id="path14" /><path
         d="m 258.951,70.9809 28.763,14.8621 c 4.653,2.4039 14.85,-18.793 9.226,-29.6071 -5.624,-10.8129 -34.899,-1.6449 -34.899,-1.6449 -3.261,3.643 -5.412,15.191 -3.09,16.3899"
         style="fill:#f5748f;fill-opacity:1;fill-rule:evenodd;stroke:none;stroke-width:0.1"
         id="path16" /><path
         d="m 295.95,54.8191 c -5.798,-1.3293 -19.404,-3.6921 -22.78,2.4278 -4.324,7.8383 -7.578,0.4902 -7.578,0.4902 l 0.712,-4.3101 c 7.802,-1.9372 24.087,-4.9989 29.646,1.3921"
         style="fill:#f36082;fill-opacity:1;fill-rule:evenodd;stroke:none;stroke-width:0.1"
         id="path18" /><path
         d="M 270.902,31.4371 C 258.689,-0.294922 219.113,16.118 210.849,17.0219 c -6.684,0.7312 -14.7,-4.5848 -29.609,-5.0688 -14.91,-0.4832 -23.043,3.811 -35.856,1.9731 C 132.572,12.0879 112.674,-5.62383 72.2539,6.42188 18.841,22.5398 85.009,150.029 170.214,150.029 c 85.204,0 112.901,-86.8591 100.688,-118.5919 v 0"
         style="fill:#f9b1bc;fill-opacity:1;fill-rule:evenodd;stroke:none;stroke-width:0.1"
         id="path20" /><path
         d="M 250.825,29.6 C 249.973,30.177 223.44,51.809 199.546,52.2488 183.338,52.5512 169.745,54.273 150.07,46.1359 130.394,37.9961 108.233,22.052 107.656,21.698 c -0.577,-0.3511 -0.96,-2.357 -0.543,-3.2531 0.417,-0.8929 1.765,-0.625 2.249,-0.3051 0.485,0.3211 24.625,14.6391 41.328,21.5473 16.704,6.9098 31.041,6.0981 49.476,6.1149 23.898,0.0269 48.054,-19.8188 48.825,-19.9559 0.771,-0.1633 2.612,-0.6922 3.087,0.4219 0.396,0.9242 -0.402,2.7558 -1.253,3.3332 V 29.6"
         style="fill:#a7505d;fill-opacity:1;fill-rule:nonzero;stroke:none;stroke-width:0.1"
         id="path22" /><path
         d="m 211.541,78.8332 c -0.143,-11.5031 8.915,-20.9473 20.233,-21.0953 v 0 c 11.318,-0.1457 20.609,9.0601 20.753,20.5633 0.144,11.5027 -8.915,20.9468 -20.232,21.0937 0,0 0,0 -10e-4,0 -11.318,0.1473 -20.609,-9.059 -20.753,-20.5617"
         style="fill:#ffffff;fill-opacity:1;fill-rule:nonzero;stroke:none;stroke-width:0.1"
         id="path24" /><path
         d="m 231.103,62.1109 c 8.836,-0.5398 16.43,6.2981 16.968,15.2782 0.539,8.9789 -6.184,16.7039 -15.019,17.2578 -8.835,0.5551 -16.44,-6.2699 -16.994,-15.275 -0.525,-9.0071 6.209,-16.7207 15.045,-17.261"
         style="fill:#040606;fill-opacity:1;fill-rule:nonzero;stroke:none;stroke-width:0.1"
         id="path26" /><path
         d="m 229.346,88.9141 c -1.541,2.1129 -7.146,0.2371 -9.109,-3.275 -1.963,-3.5129 -1.946,-8.909 1.308,-9.9969 3.253,-1.0883 3.015,3.15 4.72,6.1379 1.706,2.9879 4.624,5.0211 3.082,7.1328 l -0.001,0.0012"
         style="fill:#ffffff;fill-opacity:1;fill-rule:nonzero;stroke:none;stroke-width:0.1"
         id="path28" /><path
         d="m 221.894,74.5512 c -1.148,-0.0684 -1.985,-1.25 -1.87,-2.6422 0.114,-1.391 1.138,-2.4649 2.286,-2.3969 1.148,0.068 1.985,1.2508 1.87,2.6418 -0.114,1.3922 -1.138,2.4652 -2.286,2.3973"
         style="fill:#ffffff;fill-opacity:1;fill-rule:nonzero;stroke:none;stroke-width:0.1"
         id="path30" /><path
         d="M 79.148,30.1539 44.632,4.85 C 39.0477,0.755078 23.427,23.957 29.0914,39.4461 c 5.6645,15.4891 44.1285,8.8617 44.1285,8.8617 4.643,-4.2359 8.7149,-16.1109 5.9281,-18.1539 v 0"
         style="fill:#f5748f;fill-opacity:1;fill-rule:evenodd;stroke:none;stroke-width:0.1"
         id="path32" /><path
         d="m 38.4035,47.3738 v 0 C 24.4531,37.8988 32.177,18.6352 38.0488,11.273 43.3398,4.64102 72.4602,25.2871 78.1715,29.4379 L 44.632,4.85 C 39.0477,0.755078 23.427,23.957 29.0914,39.4461 c 1.4191,3.8801 4.8965,6.3719 9.3121,7.9277"
         style="fill:#f36082;fill-opacity:1;fill-rule:evenodd;stroke:none;stroke-width:0.1"
         id="path34" /><path
         d="M 122.167,79.034 C 122.023,67.5309 131.082,58.0871 142.4,57.9398 v 0 c 11.317,-0.1468 20.609,9.059 20.752,20.5622 0.145,11.5031 -8.914,20.9468 -20.232,21.0949 v 0 C 131.602,99.743 122.311,90.5371 122.167,79.034 v 0"
         style="fill:#ffffff;fill-opacity:1;fill-rule:nonzero;stroke:none;stroke-width:0.1"
         id="path36" /><path
         d="m 141.729,62.3121 c 8.835,-0.5391 16.43,6.2981 16.968,15.2777 0.538,8.9793 -6.185,16.7051 -15.019,17.2602 -8.835,0.5531 -16.441,-6.2719 -16.994,-15.277 -0.526,-9.0058 6.209,-16.721 15.045,-17.2609"
         style="fill:#040606;fill-opacity:1;fill-rule:nonzero;stroke:none;stroke-width:0.1"
         id="path38" /><path
         d="m 139.972,89.116 c -1.542,2.1121 -7.146,0.236 -9.11,-3.2762 -1.963,-3.5117 -1.945,-8.907 1.308,-9.9968 3.254,-1.0871 3.016,3.1511 4.721,6.1379 1.705,2.989 4.623,5.0222 3.081,7.1339 v 0.0012"
         style="fill:#ffffff;fill-opacity:1;fill-rule:nonzero;stroke:none;stroke-width:0.1"
         id="path40" /><path
         d="m 132.52,74.7531 c -1.148,-0.0679 -1.986,-1.2511 -1.87,-2.6429 0.114,-1.3911 1.138,-2.4653 2.286,-2.3961 1.148,0.0668 1.985,1.25 1.87,2.641 -0.115,1.3918 -1.138,2.4648 -2.286,2.398"
         style="fill:#ffffff;fill-opacity:1;fill-rule:nonzero;stroke:none;stroke-width:0.1"
         id="path42" /><path
         d="m 165.199,80.4422 c -0.931,-14.6633 10.819,-27.3563 26.253,-28.359 15.433,-1.0031 28.713,10.0629 29.669,24.7258 0.956,14.6609 -10.773,27.371 -26.205,28.397 -15.432,1.026 -28.73,-10.0201 -29.711,-24.679"
         style="fill:#f9b1bc;fill-opacity:1;fill-rule:nonzero;stroke:none;stroke-width:0.1"
         id="path44" /><path
         d="m 167.532,71.0352 c 3.284,-9.7762 12.592,-17.1582 23.993,-17.8954 14.819,-0.9628 27.569,9.6661 28.484,23.7442 0.418,6.4219 -1.7,12.4539 -5.533,17.209 0,0 -2.414,2.7261 -0.954,3.884 1.46,1.1589 3.539,-2.0899 3.539,-2.0899 4.267,-5.3172 6.621,-12.0512 6.153,-19.2199 -1.031,-15.7563 -15.301,-27.6481 -31.887,-26.5703 -12.778,0.8281 -23.207,9.1121 -26.869,20.0761 0,0 -0.86,2.2469 0.648,2.786 1.507,0.539 2.426,-1.925 2.426,-1.925 v 0.0012"
         style="fill:#a7505d;fill-opacity:1;fill-rule:nonzero;stroke:none;stroke-width:0.1"
         id="path46" /><path
         d="M 360.336,36.759 331.573,21.8969 c -4.653,-2.4039 -14.85,18.7929 -9.226,29.6082 5.624,10.8121 34.899,1.6437 34.899,1.6437 3.26,-3.6429 5.412,-15.1898 3.09,-16.3898"
         style="fill:#f5748f;fill-opacity:1;fill-rule:evenodd;stroke:none;stroke-width:0.1"
         id="path48" /><path
         d="M 333.846,27.0852 C 326.505,24.6379 322.394,41.659 321.127,48.018 318.693,36.7238 327.38,19.7301 331.573,21.8969 l 18.747,9.6871 c -2.549,-0.557 -9.361,-2.1281 -16.474,-4.4988"
         style="fill:#f36082;fill-opacity:1;fill-rule:evenodd;stroke:none;stroke-width:0.1"
         id="path50" /><path
         d="m 343.385,29.184 c 12.213,-31.73283 51.789,-15.3199 60.053,-14.4149 6.684,0.7297 14.7,-4.5863 29.609,-5.07027 14.909,-0.48281 23.043,3.81137 35.855,1.97307 12.813,-1.83792 32.711,-19.55003 73.131,-7.50393 53.412,16.11793 -12.755,143.60703 -97.96,143.60703 -85.205,0 -112.901,-86.8602 -100.688,-118.591 v 0"
         style="fill:#f9b1bc;fill-opacity:1;fill-rule:evenodd;stroke:none;stroke-width:0.1"
         id="path52" /><path
         d="m 363.462,27.3461 c 0.852,0.5769 27.386,22.2078 51.279,22.6488 16.208,0.302 29.8,2.0242 49.476,-6.114 19.676,-8.1387 41.837,-24.0829 42.414,-24.4368 0.577,-0.3511 0.96,-2.357 0.543,-3.2531 -0.417,-0.893 -1.765,-0.625 -2.249,-0.3051 -0.484,0.3211 -24.625,14.6391 -41.328,21.5481 -16.703,6.909 -31.04,6.0969 -49.477,6.114 -23.897,0.027 -48.052,-19.8199 -48.824,-19.9558 -0.771,-0.1633 -2.612,-0.6922 -3.087,0.4219 -0.396,0.923 0.401,2.7558 1.253,3.332 v 0"
         style="fill:#a7505d;fill-opacity:1;fill-rule:nonzero;stroke:none;stroke-width:0.1"
         id="path54" /><path
         d="m 532.231,40.3879 39.658,-16.0918 c 6.417,-2.6039 15.887,23.7148 6.604,37.3469 -9.281,13.6332 -44.955,-2.2039 -44.955,-2.2039 -3.466,-5.2411 -4.509,-17.752 -1.307,-19.0512 v 0"
         style="fill:#f5748f;fill-opacity:1;fill-rule:evenodd;stroke:none;stroke-width:0.1"
         id="path56" /><path
         d="m 576.507,26.5609 c -13.903,2.4051 -37.632,15.009 -40.661,16.5243 -4,2 -4.267,11.875 -4.267,11.875 l -0.009,-0.0153 c -0.217,-0.7301 -0.409,-1.4879 -0.573,-2.259 -0.002,-0.007 -0.004,-0.014 -0.005,-0.0218 -0.161,-0.759 -0.295,-1.5289 -0.4,-2.2961 -0.003,-0.0211 -0.006,-0.043 -0.009,-0.0641 -0.101,-0.75 -0.176,-1.4937 -0.221,-2.2207 -0.002,-0.0352 -0.004,-0.0703 -0.006,-0.1051 -0.041,-0.709 -0.055,-1.3972 -0.039,-2.0531 10e-4,-0.0441 10e-4,-0.0891 0.002,-0.134 0.009,-0.318 0.026,-0.6289 0.049,-0.9301 0.002,-0.032 0.006,-0.0629 0.009,-0.0949 0.023,-0.2719 0.052,-0.5351 0.087,-0.789 0.006,-0.043 0.011,-0.0879 0.018,-0.1309 0.039,-0.268 0.085,-0.5242 0.138,-0.7672 0.01,-0.0449 0.021,-0.0879 0.031,-0.132 0.05,-0.2141 0.105,-0.4168 0.167,-0.609 0.01,-0.034 0.02,-0.0699 0.031,-0.1027 0.069,-0.2082 0.147,-0.3993 0.23,-0.5793 0.02,-0.0399 0.039,-0.0778 0.059,-0.1161 0.081,-0.1597 0.167,-0.3078 0.26,-0.4386 0.01,-0.016 0.02,-0.034 0.031,-0.0481 0.101,-0.139 0.213,-0.2562 0.33,-0.3601 0.028,-0.0239 0.057,-0.0469 0.085,-0.0692 0.122,-0.0968 0.249,-0.1797 0.387,-0.2359 l 39.658,-16.0918 c 1.467,-0.5949 3.093,0.334 4.618,2.2648"
         style="fill:#f36082;fill-opacity:1;fill-rule:evenodd;stroke:none;stroke-width:0.1"
         id="path58" /><path
         d="m 334.561,125.189 h 19.035 l 36.086,0.001 c 6.428,0 12.833,-0.788 19.07,-2.347 l 18.369,-4.592 v -14.763 h -3.385 c -2.454,0 -4.554,-1.841 -4.781,-4.2841 -0.118,-1.282 -0.343,-2.575 -0.68,-3.8711 l -1.987,-7.6027 C 411.716,70.2262 395.904,58.0129 377.813,58.0129 h -9.378 c -15.743,0 -28.898,11.984 -30.362,27.659 l -1.922,20.6001 c -0.025,0.268 -0.042,0.535 -0.052,0.799 -0.031,0.821 -0.766,1.455 -1.586,1.464 -2.211,0.026 -3.995,1.826 -3.995,4.043 v 8.568 c 0,2.234 1.809,4.043 4.043,4.043"
         style="fill:#2f3031;fill-opacity:1;fill-rule:nonzero;stroke:none;stroke-width:0.1"
         id="path60" /><path
         d="m 369.909,63.5641 h 7.864 c 15.17,0 28.426,10.2398 32.26,24.9168 l 1.665,6.375 c 3.308,12.6631 -6.247,25.0351 -19.335,25.0351 l -34.895,-0.001 c -8.618,0.105 -15.428,-7.28 -14.627,-15.862 l 1.612,-17.2721 c 1.227,-13.143 12.257,-23.1918 25.456,-23.1918"
         style="fill:#767a7c;fill-opacity:1;fill-rule:nonzero;stroke:none;stroke-width:0.1"
         id="path62" /><g
         id="g64"
         transform="scale(0.1)"><g
           id="g66"
           clip-path="url(#clipPath70)"><path
             d="m 3575.88,601.828 -151.01,151 559.02,559.022 151,-151.01 -559.01,-559.012"
             style="fill:#8e9190;fill-opacity:1;fill-rule:nonzero;stroke:none"
             id="path72" /><path
             d="m 3646.42,549.602 -32.4,32.378 559.02,559.03 32.39,-32.4 -559.01,-559.008"
             style="fill:#8e9190;fill-opacity:1;fill-rule:nonzero;stroke:none"
             id="path74" /></g></g><path
         d="m 449.087,78.1879 c 0.932,-14.6629 -10.818,-27.3559 -26.252,-28.359 -15.434,-1.0027 -28.713,10.0641 -29.669,24.725 -0.956,14.6621 10.774,27.3721 26.205,28.3981 15.432,1.026 28.73,-10.0192 29.711,-24.679"
         style="fill:#f9b1bc;fill-opacity:1;fill-rule:nonzero;stroke:none;stroke-width:0.1"
         id="path76" /><path
         d="m 446.754,68.7801 c -3.283,-9.775 -12.592,-17.1571 -23.992,-17.8949 -14.819,-0.9622 -27.569,9.6668 -28.485,23.7449 -0.418,6.4219 1.701,12.4539 5.534,17.209 0,0 2.414,2.7257 0.954,3.8847 -1.46,1.1582 -3.539,-2.0906 -3.539,-2.0906 -4.267,-5.3172 -6.621,-12.0523 -6.154,-19.2211 1.032,-15.7551 15.302,-27.6461 31.888,-26.5691 12.777,0.8281 23.207,9.1109 26.869,20.0761 0,0 0.86,2.2469 -0.648,2.786 -1.508,0.539 -2.427,-1.925 -2.427,-1.925 v 0"
         style="fill:#a7505d;fill-opacity:1;fill-rule:nonzero;stroke:none;stroke-width:0.1"
         id="path78" /><path
         d="m 521.729,125.189 h -19.036 l -36.086,0.001 c -6.429,0 -12.833,-0.788 -19.07,-2.347 l -18.369,-4.592 v -14.763 h 3.384 c 2.454,0 4.556,-1.841 4.781,-4.2841 0.118,-1.282 0.343,-2.575 0.682,-3.8711 L 440,87.7301 c 4.572,-17.5039 20.384,-29.7172 38.477,-29.7172 h 9.378 c 15.742,0 28.897,11.984 30.36,27.659 l 1.923,20.6001 c 0.025,0.268 0.042,0.535 0.052,0.799 0.032,0.821 0.765,1.455 1.586,1.464 2.211,0.026 3.996,1.826 3.996,4.043 v 8.568 c 0,2.234 -1.811,4.043 -4.043,4.043"
         style="fill:#2f3031;fill-opacity:1;fill-rule:nonzero;stroke:none;stroke-width:0.1"
         id="path80" /><path
         d="m 486.379,63.5641 h -7.863 c -15.169,0 -28.427,10.2398 -32.261,24.9168 l -1.665,6.375 c -3.308,12.6631 6.248,25.0351 19.336,25.0351 l 34.894,-0.001 c 8.619,0.105 15.428,-7.28 14.627,-15.862 L 511.835,86.7559 C 510.609,73.6129 499.578,63.5641 486.379,63.5641"
         style="fill:#767a7c;fill-opacity:1;fill-rule:nonzero;stroke:none;stroke-width:0.1"
         id="path82" /><g
         id="g84"
         transform="scale(0.1)"><g
           id="g86"
           clip-path="url(#clipPath90)"><path
             d="m 4625.74,590.488 -151.01,151 559.02,559.032 151.01,-151.01 -559.02,-559.022"
             style="fill:#8e9190;fill-opacity:1;fill-rule:nonzero;stroke:none"
             id="path92" /><path
             d="m 4696.27,538.262 -32.39,32.386 559.02,559.022 32.39,-32.4 -559.02,-559.008"
             style="fill:#8e9190;fill-opacity:1;fill-rule:nonzero;stroke:none"
             id="path94" /></g></g><path
         d="m 316.808,158.894 c 0,30.102 -108.909,0.292 -115.778,-0.751 -3.179,-0.483 -5.966,1.216 -9.184,0.941 L 144.201,152.986 114.728,137.997 5.20508,111.301 C -8.3125,103.571 -6.83633,-0.385938 154.211,95.973 c 60.687,36.311 95.733,60.592 121.254,66.096 28.362,6.116 41.343,-3.175 41.343,-3.175"
         style="fill:#ba8d5c;fill-opacity:1;fill-rule:nonzero;stroke:none;stroke-width:0.1"
         id="path96" /><path
         d="m 83.2754,131.95 c -0.7336,0.223 -3.1016,7.68 -3.3465,8.494 -0.9176,3.048 -1.5609,6.177 -1.9348,9.329 -0.748,6.31 -0.414,12.722 0.9914,18.813 2.9219,12.663 10.4481,22.028 21.1715,28.056 3.293,1.851 6.774,3.342 10.361,4.489 10.068,3.219 20.832,3.81 31.474,3.24 8.562,-0.457 17.292,-1.707 25.144,-5.662 12.425,-6.258 19.804,-18.458 26.894,-30.991 0.701,-1.238 1.709,-5.968 0.954,-6.652 -2.748,-2.489 -6.184,-3.971 -9.603,-5.294 -11.48,-4.441 -23.434,-7.514 -35.412,-10.358 -22.046,-5.234 -44.276,-9.727 -66.6467,-13.468 -0.0145,-0.002 -0.0301,-0.001 -0.0469,0.004"
         style="fill:#ba8d5c;fill-opacity:1;fill-rule:nonzero;stroke:none;stroke-width:0.1"
         id="path98" /><path
         d="m 79.7168,141.168 c 1.0621,-6.372 2.8328,-10.795 2.8328,-10.795 41.7074,-1.385 92.7064,25.044 116.7254,27.756 -1.991,5.762 -10.266,19.549 -12.88,22.209 -40.362,-25.492 -92.8704,-39.17 -106.6782,-39.17"
         style="fill:#4db0e6;fill-opacity:1;fill-rule:nonzero;stroke:none;stroke-width:0.1"
         id="path100" /><path
         d="m 89.9488,134.524 c 0,0 -80.8238,-6.094 -76.7945,-96.5631 0,0 4.0055,19.65 15.2594,18.7711 13.2234,-1.032 16.4785,14.945 16.4785,14.945 0,0 18.8312,48.919 49.9879,57.131 l -4.9313,5.716"
         style="fill:#4db0e6;fill-opacity:1;fill-rule:nonzero;stroke:none;stroke-width:0.1"
         id="path102" /><path
         d="m 62.1754,126.778 c -3.0676,-3.326 0.8941,-10.494 8.8262,-5.419 0,0 -26.3899,-25.516 -27.2274,-53.418 l 17.1594,3.191 26.2012,59.805 -6.7621,2.344 c 0,0 -15.1297,-3.178 -18.1973,-6.503"
         style="fill:#3a81ad;fill-opacity:1;fill-rule:nonzero;stroke:none;stroke-width:0.1"
         id="path104" /><path
         d="m 84.3094,130.169 c 0,0 -50.4434,-35.8069 -40.5106,-90.462 0,0 7.4379,23.9801 25.95,23.552 0,0 1.5465,45.12 24.6321,66.305 l -10.0715,0.605"
         style="fill:#4db0e6;fill-opacity:1;fill-rule:nonzero;stroke:none;stroke-width:0.1"
         id="path106" /><path
         d="m 163.345,147.979 c -21.667,-5.662 -37.297,-10.721 -46.276,-10.721 -3.407,6.432 -7.829,8.517 -12.078,8.519 -8.216,-2.243 -13.1832,-3.199 -18.4844,-3.985 l 3.5481,-11.376 c 10.1753,0.412 20.7533,2.234 31.2493,4.763 -0.003,0.006 -0.006,0.011 -0.008,0.016 14.625,3.523 29.083,8.396 42.048,12.784 h 0.001"
         style="fill:#3a81ad;fill-opacity:1;fill-rule:nonzero;stroke:none;stroke-width:0.1"
         id="path108" /><path
         d="m 84.3473,140.151 c 0,0 -9.8832,9.951 -17.8082,0 -7.9246,-9.951 -4.059,-20.002 1.1597,-17.876 5.2188,2.126 16.6485,8.441 16.6485,8.441 v 9.435"
         style="fill:#4db0e6;fill-opacity:1;fill-rule:nonzero;stroke:none;stroke-width:0.1"
         id="path110" /><path
         d="m 94.3809,139.523 c 0,0 9.8831,9.951 17.8081,0 7.925,-9.952 4.059,-20.003 -1.16,-17.877 -5.218,2.127 -16.6481,8.442 -16.6481,8.442 v 9.435"
         style="fill:#4db0e6;fill-opacity:1;fill-rule:nonzero;stroke:none;stroke-width:0.1"
         id="path112" /><path
         d="m 108.43,126.081 c 0,0 -8.106,11.052 -1.474,8.105 6.632,-2.948 -2.21,11.053 -13.2634,5.895 -7.1188,-3.322 -2.9274,-5.116 0.9578,-5.973 2.8164,-0.62 5.4126,-1.98 7.4676,-4.004 2.952,-2.905 6.77,-6.315 6.312,-4.023"
         style="fill:#3a81ad;fill-opacity:1;fill-rule:nonzero;stroke:none;stroke-width:0.1"
         id="path114" /><path
         d="m 68.5398,126.081 c 0,0 8.1055,11.052 1.4735,8.105 -6.6313,-2.948 2.2109,11.053 13.2637,5.895 7.1191,-3.322 2.9277,-5.116 -0.9575,-5.973 -2.8164,-0.62 -5.4125,-1.98 -7.4683,-4.004 -2.9516,-2.905 -6.7699,-6.315 -6.3114,-4.023"
         style="fill:#3a81ad;fill-opacity:1;fill-rule:nonzero;stroke:none;stroke-width:0.1"
         id="path116" /><path
         d="m 84.7156,133.892 c 3.261,-6.477 11.1801,-2.143 11.9813,-5.396 1.3812,1.717 2.1625,3.927 2.0246,6.3 l -0.043,0.735 c -0.2957,5.079 -4.6523,8.956 -9.7305,8.66 v 0 c -0.5539,-0.032 -1.0902,-0.121 -1.6109,-0.246 -2.5289,-2.096 -4.9195,-5.491 -2.6215,-10.053"
         style="fill:#4db0e6;fill-opacity:1;fill-rule:nonzero;stroke:none;stroke-width:0.1"
         id="path118" /><path
         d="m 80.2883,134.46 0.043,-0.735 c 0.2957,-5.079 4.6523,-8.956 9.7304,-8.66 v 0 c 2.7051,0.158 5.061,1.474 6.6352,3.431 -0.8012,3.253 -8.7203,-1.081 -11.9813,5.396 -2.298,4.562 0.0926,7.957 2.6215,10.053 -4.2598,-1.017 -7.3121,-4.96 -7.0488,-9.485"
         style="fill:#3a81ad;fill-opacity:1;fill-rule:nonzero;stroke:none;stroke-width:0.1"
         id="path120" /><path
         d="M 437.105,103.488 H 418.49 v 16.404 h 18.615 v -16.404"
         style="fill:#2f3031;fill-opacity:1;fill-rule:nonzero;stroke:none;stroke-width:0.1"
         id="path122" /><path
         d="m 399.868,169.796 c 0,0 -4.984,-8.661 0,-18.362 0,0 -16.862,1.386 -20.355,15.59 -3.494,14.205 20.355,2.772 20.355,2.772"
         style="fill:#94d67b;fill-opacity:1;fill-rule:nonzero;stroke:none;stroke-width:0.1"
         id="path124" /><path
         d="m 403.263,167.471 c -4.162,-0.688 -8.414,-0.763 -12.639,-0.735 -15.86,0.101 -31.78,1.615 -47.116,5.661 -9.451,2.494 -31.056,14.311 -36.042,37.5 -4.08,18.976 -5.962,44.367 18.936,47.497 8.716,1.095 17.469,-1.039 26.071,-2.824 19.824,-4.112 39.971,-6.424 59.958,-9.656 7.418,-1.199 15.518,-2.934 20.106,-8.884 3.4,-4.409 4.14,-10.269 4.422,-15.828 0.586,-11.563 -0.427,-23.648 -6.193,-33.688 -5.469,-9.521 -15.142,-16.523 -25.896,-18.745 -0.534,-0.11 -1.07,-0.209 -1.607,-0.298"
         style="fill:#94d67b;fill-opacity:1;fill-rule:nonzero;stroke:none;stroke-width:0.1"
         id="path126" /><path
         d="m 206.539,208.413 c 0,0 6.253,-12.058 0,-25.562 0,0 21.153,1.929 25.536,21.704 4.383,19.774 -25.536,3.858 -25.536,3.858"
         style="fill:#bbe37e;fill-opacity:1;fill-rule:nonzero;stroke:none;stroke-width:0.1"
         id="path128" /><path
         d="m 309.682,213.473 c -3.421,-2.458 -7.193,-4.407 -10.986,-6.252 -14.24,-6.93 -29.158,-12.623 -44.674,-15.79 -9.561,-1.952 -34.129,-0.938 -48.855,17.608 -12.052,15.177 -24.975,37.068 -4.078,50.89 7.316,4.839 16.095,6.803 24.583,9.013 19.562,5.095 38.616,11.945 57.934,17.899 7.17,2.21 15.187,4.243 21.928,0.948 4.993,-2.44 8.25,-7.357 10.963,-12.207 5.643,-10.09 10.087,-21.354 9.369,-32.892 -0.679,-10.942 -6.237,-21.49 -14.878,-28.238 -0.429,-0.335 -0.865,-0.661 -1.306,-0.979"
         style="fill:#bbe37e;fill-opacity:1;fill-rule:nonzero;stroke:none;stroke-width:0.1"
         id="path130" /></g></g></svg>
