<?xml version="1.0" encoding="UTF-8" standalone="no"?>
<!-- Created with Inkscape (http://www.inkscape.org/) -->

<svg
   xmlns:dc="http://purl.org/dc/elements/1.1/"
   xmlns:cc="http://creativecommons.org/ns#"
   xmlns:rdf="http://www.w3.org/1999/02/22-rdf-syntax-ns#"
   xmlns:svg="http://www.w3.org/2000/svg"
   xmlns="http://www.w3.org/2000/svg"
   xmlns:sodipodi="http://sodipodi.sourceforge.net/DTD/sodipodi-0.dtd"
   xmlns:inkscape="http://www.inkscape.org/namespaces/inkscape"
   version="1.1"
   id="svg2"
   xml:space="preserve"
   width="554.89331"
   height="345.61334"
   viewBox="0 0 554.89331 345.61334"
   sodipodi:docname="Blobchef.svg"
   inkscape:version="0.92.4 (5da689c313, 2019-01-14)"><metadata
     id="metadata8"><rdf:RDF><cc:Work
         rdf:about=""><dc:format>image/svg+xml</dc:format><dc:type
           rdf:resource="http://purl.org/dc/dcmitype/StillImage" /><dc:title /></cc:Work></rdf:RDF></metadata><defs
     id="defs6"><clipPath
       clipPathUnits="userSpaceOnUse"
       id="clipPath22"><path
         d="m 1022.23,421.039 c 0,0 -1102.4917,175.051 -815.289,1009.361 287.204,834.31 1235.049,-271.93 1445.629,144.99 210.58,416.93 944.65,1180.34 1500.53,856.08 C 3708.97,2107.21 4598.38,1333.98 3912.8,757.082 3227.22,180.172 1022.23,421.039 1022.23,421.039 Z"
         id="path20"
         inkscape:connector-curvature="0" /></clipPath><linearGradient
       x1="0"
       y1="0"
       x2="1"
       y2="0"
       gradientUnits="userSpaceOnUse"
       gradientTransform="matrix(-3176.16,-1833.75,-1833.75,3176.16,3742.83,2138.18)"
       spreadMethod="pad"
       id="linearGradient28"><stop
         style="stop-opacity:1;stop-color:#1a2f50"
         offset="0"
         id="stop24" /><stop
         style="stop-opacity:1;stop-color:#3f79be"
         offset="1"
         id="stop26" /></linearGradient><clipPath
       clipPathUnits="userSpaceOnUse"
       id="clipPath34"><path
         d="M 0,0 H 1528 V 1528 H 0 Z"
         id="path32"
         inkscape:connector-curvature="0" /></clipPath><clipPath
       clipPathUnits="userSpaceOnUse"
       id="clipPath38"><path
         d="M 1527.21,0 H 0 v 1527.21 h 1527.21 z"
         id="path36"
         inkscape:connector-curvature="0" /></clipPath><pattern
       patternTransform="matrix(7.07107,-7.07107,7.07107,7.07107,-1377,-438.098)"
       patternUnits="userSpaceOnUse"
       x="0"
       y="0"
       width="152.721"
       height="152.721"
       id="pattern102"><g
         transform="scale(0.1)"
         id="g100"><g
           id="g98"><g
             clip-path="url(#clipPath34)"
             id="g96"><g
               clip-path="url(#clipPath38)"
               id="g94"><path
                 d="m 20,0.00390625 -20,0 L 0,1527.2 l 20,0 L 20,0.00390625"
                 style="fill:#1a2f50;fill-opacity:1;fill-rule:nonzero;stroke:none"
                 id="path40" /><path
                 d="m 76.5625,0.00390625 -20,0 0,1527.19609375 20,0 0,-1527.19609375"
                 style="fill:#1a2f50;fill-opacity:1;fill-rule:nonzero;stroke:none"
                 id="path42" /><path
                 d="m 133.125,0.00390625 -20,0 0,1527.19609375 20,0 0,-1527.19609375"
                 style="fill:#1a2f50;fill-opacity:1;fill-rule:nonzero;stroke:none"
                 id="path44" /><path
                 d="m 189.688,0.00390625 -20,0 0,1527.19609375 20,0 0,-1527.19609375"
                 style="fill:#1a2f50;fill-opacity:1;fill-rule:nonzero;stroke:none"
                 id="path46" /><path
                 d="m 246.25,0.00390625 -20,0 0,1527.19609375 20,0 0,-1527.19609375"
                 style="fill:#1a2f50;fill-opacity:1;fill-rule:nonzero;stroke:none"
                 id="path48" /><path
                 d="m 302.813,0.00390625 -20,0 0,1527.19609375 20,0 0,-1527.19609375"
                 style="fill:#1a2f50;fill-opacity:1;fill-rule:nonzero;stroke:none"
                 id="path50" /><path
                 d="m 359.375,0.00390625 -20,0 0,1527.19609375 20,0 0,-1527.19609375"
                 style="fill:#1a2f50;fill-opacity:1;fill-rule:nonzero;stroke:none"
                 id="path52" /><path
                 d="m 415.938,0.00390625 -20,0 0,1527.19609375 20,0 0,-1527.19609375"
                 style="fill:#1a2f50;fill-opacity:1;fill-rule:nonzero;stroke:none"
                 id="path54" /><path
                 d="m 472.512,0.00390625 -20,0 0,1527.19609375 20,0 0,-1527.19609375"
                 style="fill:#1a2f50;fill-opacity:1;fill-rule:nonzero;stroke:none"
                 id="path56" /><path
                 d="m 529.07,0.00390625 -20,0 0,1527.19609375 20,0 0,-1527.19609375"
                 style="fill:#1a2f50;fill-opacity:1;fill-rule:nonzero;stroke:none"
                 id="path58" /><path
                 d="m 585.637,0.00390625 -20,0 0,1527.19609375 20,0 0,-1527.19609375"
                 style="fill:#1a2f50;fill-opacity:1;fill-rule:nonzero;stroke:none"
                 id="path60" /><path
                 d="m 642.195,0.00390625 -20,0 0,1527.19609375 20,0 0,-1527.19609375"
                 style="fill:#1a2f50;fill-opacity:1;fill-rule:nonzero;stroke:none"
                 id="path62" /><path
                 d="m 698.762,0.00390625 -20,0 0,1527.19609375 20,0 0,-1527.19609375"
                 style="fill:#1a2f50;fill-opacity:1;fill-rule:nonzero;stroke:none"
                 id="path64" /><path
                 d="m 755.32,0.00390625 -20,0 0,1527.19609375 20,0 0,-1527.19609375"
                 style="fill:#1a2f50;fill-opacity:1;fill-rule:nonzero;stroke:none"
                 id="path66" /><path
                 d="m 811.887,0.00390625 -20,0 0,1527.19609375 20,0 0,-1527.19609375"
                 style="fill:#1a2f50;fill-opacity:1;fill-rule:nonzero;stroke:none"
                 id="path68" /><path
                 d="m 868.445,0.00390625 -20,0 0,1527.19609375 20,0 0,-1527.19609375"
                 style="fill:#1a2f50;fill-opacity:1;fill-rule:nonzero;stroke:none"
                 id="path70" /><path
                 d="m 925.012,0.00390625 -20,0 0,1527.19609375 20,0 0,-1527.19609375"
                 style="fill:#1a2f50;fill-opacity:1;fill-rule:nonzero;stroke:none"
                 id="path72" /><path
                 d="m 981.57,0.00390625 -20,0 0,1527.19609375 20,0 0,-1527.19609375"
                 style="fill:#1a2f50;fill-opacity:1;fill-rule:nonzero;stroke:none"
                 id="path74" /><path
                 d="m 1038.13,0.00390625 -20,0 0,1527.19609375 20,0 0,-1527.19609375"
                 style="fill:#1a2f50;fill-opacity:1;fill-rule:nonzero;stroke:none"
                 id="path76" /><path
                 d="m 1094.7,0.00390625 -20,0 0,1527.19609375 20,0 0,-1527.19609375"
                 style="fill:#1a2f50;fill-opacity:1;fill-rule:nonzero;stroke:none"
                 id="path78" /><path
                 d="m 1151.26,0.00390625 -20,0 0,1527.19609375 20,0 0,-1527.19609375"
                 style="fill:#1a2f50;fill-opacity:1;fill-rule:nonzero;stroke:none"
                 id="path80" /><path
                 d="m 1207.82,0.00390625 -20,0 0,1527.19609375 20,0 0,-1527.19609375"
                 style="fill:#1a2f50;fill-opacity:1;fill-rule:nonzero;stroke:none"
                 id="path82" /><path
                 d="m 1264.39,0.00390625 -20,0 0,1527.19609375 20,0 0,-1527.19609375"
                 style="fill:#1a2f50;fill-opacity:1;fill-rule:nonzero;stroke:none"
                 id="path84" /><path
                 d="m 1320.96,0.00390625 -20,0 0,1527.19609375 20,0 0,-1527.19609375"
                 style="fill:#1a2f50;fill-opacity:1;fill-rule:nonzero;stroke:none"
                 id="path86" /><path
                 d="m 1377.52,0.00390625 -20,0 0,1527.19609375 20,0 0,-1527.19609375"
                 style="fill:#1a2f50;fill-opacity:1;fill-rule:nonzero;stroke:none"
                 id="path88" /><path
                 d="m 1434.08,0.00390625 -20,0 0,1527.19609375 20,0 0,-1527.19609375"
                 style="fill:#1a2f50;fill-opacity:1;fill-rule:nonzero;stroke:none"
                 id="path90" /><path
                 d="m 1490.64,0.00390625 -20,0 0,1527.19609375 20,0 0,-1527.19609375"
                 style="fill:#1a2f50;fill-opacity:1;fill-rule:nonzero;stroke:none"
                 id="path92" /></g></g></g></g></pattern><linearGradient
       gradientTransform="matrix(0.75000002,0,0,-0.75000002,-100.44696,734.05596)"
       y1="290.63699"
       id="LinearGradient_2-7"
       x1="72.241203"
       y2="88.023102"
       x2="554.89301"
       gradientUnits="userSpaceOnUse"><stop
         stop-color="#ffc075"
         offset="0.00603622"
         id="stop1197-9" /><stop
         stop-color="#fd971f"
         offset="1"
         id="stop1199-3" /></linearGradient></defs><sodipodi:namedview
     pagecolor="#ffffff"
     bordercolor="#666666"
     borderopacity="1"
     objecttolerance="10"
     gridtolerance="10"
     guidetolerance="10"
     inkscape:pageopacity="0"
     inkscape:pageshadow="2"
     inkscape:window-width="2325"
     inkscape:window-height="1578"
     id="namedview4"
     showgrid="false"
     inkscape:zoom="0.682844"
     inkscape:cx="579.40114"
     inkscape:cy="219.08296"
     inkscape:window-x="4035"
     inkscape:window-y="288"
     inkscape:window-maximized="0"
     inkscape:current-layer="g10" /><g
     id="g10"
     inkscape:groupmode="layer"
     inkscape:label="ink_ext_XXXXXX"
     transform="matrix(1.3333333,0,0,-1.3333333,0,345.61333)"><g
       id="g12874"
       transform="translate(100.44694,-474.84622)"><path
         d="m -54.82723,551.36046 c 0,90.7965 73.60553,164.40202 164.40203,164.40202 90.7965,0 164.4015,-73.60552 164.4015,-164.40202 0,-14.718 -1.93425,-28.9845 -5.562,-42.55875 -21.6165,-3.41475 -303.04433,-3.41475 -317.82578,0.5505 -3.53362,13.40925 -5.41575,27.489 -5.41575,42.00825 z"
         id="path1209-7"
         inkscape:connector-curvature="0"
         style="clip-rule:evenodd;opacity:1;fill:#a6e22e;fill-opacity:1;fill-rule:evenodd;stroke-width:0.75;stroke-linecap:round;stroke-linejoin:round" /><path
         d="m 150.7138,662.17393 c 47.25075,19.17533 112.1985,-14.74747 126.5265,-48.59797 17.47725,-41.2905 -24.3195,-97.49775 -24.3195,-97.49775 H -41.85898 c 0,0 -67.83878,70.22925 13.42163,100.32525 40.4874,14.99475 57.78765,-23.32875 102.97215,-18.49875 69.27,7.40475 31.68525,46.21275 76.179,64.26922 z"
         id="path1211-8"
         style="clip-rule:evenodd;opacity:1;fill:url(#LinearGradient_2-7);fill-rule:evenodd;stroke-width:0.75;stroke-linecap:round;stroke-linejoin:round"
         inkscape:connector-curvature="0" /><path
         d="m 311.21006,509.50071 c 0,-19.13925 -91.14226,-34.6545 -203.57176,-34.6545 -112.43025,0 -203.57225,15.51525 -203.57225,34.6545 0,19.1385 91.142,34.65375 203.57225,34.65375 112.4295,0 203.57176,-15.51525 203.57176,-34.65375"
         id="path1213"
         inkscape:connector-curvature="0"
         style="clip-rule:evenodd;opacity:1;fill:#1e1f1b;fill-rule:evenodd;stroke-width:0.75;stroke-linecap:round;stroke-linejoin:round" /><g
         transform="matrix(0.75000002,0,0,-0.75000002,-109.99101,726.81789)"
         style="clip-rule:evenodd;opacity:1;fill-rule:evenodd;stroke-linecap:round;stroke-linejoin:round"
         id="g1258"><path
           style="opacity:1;fill:#66d9ef"
           inkscape:connector-curvature="0"
           d="m 112.58,70.0817 c 9.908,0 17.941,8.032 17.941,17.9414 0,9.908 -8.033,17.9409 -17.941,17.9409 -9.908,0 -17.9411,-8.0329 -17.9411,-17.9409 0,-9.9094 8.0331,-17.9414 17.9411,-17.9414"
           id="path1254" /><path
           style="opacity:1;fill:#ffffff"
           inkscape:connector-curvature="0"
           d="m 116.72,75.1937 c 1.575,-0.0253 2.951,0.4747 4.214,1.2294 1.251,0.7626 2.333,1.836 3.143,3.0986 0.818,1.2534 1.368,2.7094 1.494,4.1974 0.175,1.476 -0.087,2.9786 -0.762,4.304 -0.187,0.3666 -0.636,0.5133 -1.003,0.3266 -0.121,-0.0626 -0.219,-0.1533 -0.288,-0.26 l -0.043,-0.0666 c -0.77,-1.2067 -1.226,-2.2574 -1.796,-3.216 -0.51,-0.972 -1.051,-1.8454 -1.597,-2.7267 -0.549,-0.8787 -1.133,-1.7573 -1.792,-2.668 -0.641,-0.9227 -1.378,-1.8773 -2.094,-2.9933 l -0.073,-0.1134 c -0.216,-0.3346 -0.118,-0.7826 0.217,-0.9973 0.117,-0.076 0.25,-0.112 0.38,-0.1147"
           id="path1256" /></g><g
         transform="matrix(0.75000002,0,0,-0.75000002,-109.99101,726.81789)"
         style="clip-rule:evenodd;opacity:1;fill-rule:evenodd;stroke-linecap:round;stroke-linejoin:round"
         id="g1264"><path
           style="opacity:1;fill:#66d9ef"
           inkscape:connector-curvature="0"
           d="m 133.965,116.426 c 6.005,0 10.872,4.868 10.872,10.873 0,6.005 -4.867,10.873 -10.872,10.873 -6.006,0 -10.874,-4.868 -10.874,-10.873 0,-6.005 4.868,-10.873 10.874,-10.873"
           id="path1260" /><path
           style="opacity:1;fill:#ffffff"
           inkscape:connector-curvature="0"
           d="m 136.474,119.523 c 0.954,-0.015 1.788,0.288 2.553,0.745 0.758,0.462 1.414,1.112 1.906,1.878 0.495,0.76 0.828,1.642 0.904,2.544 0.107,0.896 -0.052,1.805 -0.461,2.609 -0.113,0.223 -0.385,0.311 -0.607,0.197 -0.075,-0.037 -0.134,-0.093 -0.175,-0.157 l -0.026,-0.04 c -0.467,-0.732 -0.744,-1.369 -1.089,-1.949 -0.309,-0.59 -0.637,-1.119 -0.968,-1.654 -0.332,-0.532 -0.687,-1.064 -1.086,-1.616 -0.388,-0.56 -0.835,-1.138 -1.269,-1.814 l -0.045,-0.07 c -0.13,-0.202 -0.071,-0.473 0.133,-0.604 0.07,-0.045 0.151,-0.068 0.23,-0.069"
           id="path1262" /></g><g
         transform="translate(-191.31438,344.56237)"
         id="g12820"><path
           inkscape:connector-curvature="0"
           id="path106"
           style="fill:#f5748f;fill-opacity:1;fill-rule:evenodd;stroke:none;stroke-width:0.1"
           d="m 209.74484,195.92064 -32.1371,-3.9211 c -5.1992,-0.6351 -7.3808,22.7867 1.6551,30.9668 9.0363,8.1791 33.29,-10.6051 33.29,-10.6051 1.788,-4.5508 -0.214,-16.125 -2.808,-16.4406" /><path
           inkscape:connector-curvature="0"
           id="path108"
           style="fill:#f36082;fill-opacity:1;fill-rule:evenodd;stroke:none;stroke-width:0.1"
           d="m 200.67184,204.39134 c -2.905,-8.3238 -14.3598,-11.1289 -19.9543,-12.0129 l 29.0273,3.5422 c 0,0 -5.187,19.6047 -9.073,8.4707" /><path
           inkscape:connector-curvature="0"
           id="path110"
           style="fill:#f9b1bc;fill-opacity:1;fill-rule:evenodd;stroke:none;stroke-width:0.1"
           d="m 202.53384,175.37964 c 12.213,-31.7332 51.789,-15.3203 60.053,-14.4152 6.684,0.73 14.7,-4.586 29.61,-5.07 14.909,-0.4828 23.043,3.811 35.855,1.9731 12.812,-1.8379 32.711,-19.55 73.131,-7.5039 53.413,16.1179 -12.755,143.6078 -97.96,143.6078 -85.205,0 -112.9018,-86.861 -100.689,-118.5918 v 0" /><path
           inkscape:connector-curvature="0"
           id="path112"
           style="fill:#f8a2ad;fill-opacity:1;fill-rule:evenodd;stroke:none;stroke-width:0.1"
           d="m 316.59084,292.92844 -49.686,-4.971 c -10e-4,0 -10e-4,0 -0.002,-0.001 -2.588,-0.922 -5.092,-1.944 -7.52,-3.048 -0.167,-0.076 -0.337,-0.149 -0.504,-0.226 -0.649,-0.3 -1.289,-0.609 -1.927,-0.921 -0.257,-0.126 -0.516,-0.251 -0.771,-0.379 -0.598,-0.299 -1.189,-0.605 -1.777,-0.915 -0.284,-0.15 -0.568,-0.301 -0.85,-0.454 -0.564,-0.305 -1.126,-0.613 -1.681,-0.928 -0.294,-0.166 -0.584,-0.336 -0.875,-0.506 -0.543,-0.315 -1.084,-0.63 -1.618,-0.955 -0.28,-0.17 -0.554,-0.346 -0.832,-0.518 -1.734,-1.078 -3.416,-2.204 -5.051,-3.371 -0.372,-0.266 -0.746,-0.529 -1.113,-0.799 -0.382,-0.281 -0.757,-0.569 -1.134,-0.855 -0.393,-0.298 -0.785,-0.596 -1.172,-0.9 -0.355,-0.277 -0.705,-0.559 -1.054,-0.841 -0.403,-0.325 -0.803,-0.652 -1.199,-0.982 -0.327,-0.271 -0.65,-0.544 -0.972,-0.819 -0.419,-0.359 -0.834,-0.721 -1.246,-1.086 -0.289,-0.256 -0.58,-0.512 -0.866,-0.771 -0.459,-0.416 -0.91,-0.837 -1.36,-1.261 -0.23,-0.216 -0.464,-0.43 -0.691,-0.649 -0.669,-0.641 -1.328,-1.288 -1.974,-1.943 -0.006,-0.005 -0.011,-0.01 -0.016,-0.016 l 0.034,-0.449 c 0,0 39.746,-14.25 116.531,-10.087 18.09,0.981 35.009,-8.938 43.06,-25.169 13.517,-27.2511 27.292,-67.0038 1.808,-81.0171 2.901,0.5981 5.906,1.3359 9.05,2.2723 50.582,15.2636 -6.08,130.4058 -84.592,142.5648" /><path
           inkscape:connector-curvature="0"
           id="path114"
           style="fill:#a7505d;fill-opacity:1;fill-rule:nonzero;stroke:none;stroke-width:0.1"
           d="m 222.61184,173.54134 c 0.851,0.577 27.385,22.2082 51.279,22.6492 16.208,0.302 29.8,2.025 49.476,-6.114 19.675,-8.1391 41.837,-24.0832 42.413,-24.4371 0.577,-0.3508 0.96,-2.3571 0.543,-3.252 -0.417,-0.8941 -1.764,-0.625 -2.249,-0.3059 -0.484,0.32 -24.625,14.6391 -41.328,21.5481 -16.703,6.9078 -31.04,6.0969 -49.476,6.1137 -23.898,0.0273 -48.053,-19.8188 -48.824,-19.9567 -0.772,-0.1621 -2.613,-0.691 -3.088,0.4227 -0.396,0.9242 0.402,2.757 1.254,3.332 v 0" /><path
           inkscape:connector-curvature="0"
           id="path116"
           style="fill:#593016;fill-opacity:1;fill-rule:nonzero;stroke:none;stroke-width:0.1"
           d="m 331.49684,188.57334 c -3.795,0.1762 -9.378,4.1539 -13.295,8.0711 -3.917,3.918 -8.785,9.3782 -18.993,9.3782 -10.209,0 -17.45,-9.3782 -17.45,-9.3782 0,0 -7.241,9.3782 -17.45,9.3782 -10.208,0 -15.075,-5.4602 -18.992,-9.3782 -3.918,-3.9172 -9.501,-7.8949 -13.296,-8.0711 -5.104,-0.2379 -14.837,10.5641 -14.837,10.5641 0,0 1.661,-15.1941 8.665,-21.9602 7.003,-6.7656 17.331,-13.5328 31.219,-10.5648 13.889,2.968 24.691,14.2449 24.691,14.2449 0,0 10.802,-11.2769 24.691,-14.2449 13.889,-2.968 24.216,3.7992 31.22,10.5648 7.003,6.7661 8.665,21.9602 8.665,21.9602 0,0 -9.734,-10.802 -14.838,-10.5641" /><path
           inkscape:connector-curvature="0"
           id="path118"
           style="fill:#3f2114;fill-opacity:1;fill-rule:nonzero;stroke:none;stroke-width:0.1"
           d="m 281.75884,185.95934 c 0,0 -30.934,-33.0129 -58.949,-4.8571 0.88,-1.4648 1.886,-2.8109 3.039,-3.925 7.003,-6.7656 17.331,-13.5328 31.219,-10.5648 13.889,2.968 24.691,14.2449 24.691,14.2449 0,0 10.802,-11.2769 24.691,-14.2449 13.889,-2.968 24.216,3.7992 31.22,10.5648 1.153,1.1141 2.159,2.4602 3.039,3.925 -28.015,-28.1558 -58.95,4.8571 -58.95,4.8571" /><path
           inkscape:connector-curvature="0"
           id="path120"
           style="fill:#ffffff;fill-opacity:1;fill-rule:nonzero;stroke:none;stroke-width:0.1"
           d="m 261.89484,222.77454 c 0.144,-11.5031 -8.915,-20.9473 -20.232,-21.0949 v 0 c -11.318,-0.1461 -20.61,9.0598 -20.753,20.5629 -0.144,11.5029 8.914,20.9469 20.232,21.0939 v 0 c 11.318,0.147 20.609,-9.059 20.753,-20.5619" /><path
           inkscape:connector-curvature="0"
           id="path122"
           style="fill:#040606;fill-opacity:1;fill-rule:nonzero;stroke:none;stroke-width:0.1"
           d="m 242.33284,206.05344 c -8.835,-0.541 -16.43,6.2961 -16.968,15.277 -0.538,8.979 6.184,16.704 15.019,17.259 8.835,0.553 16.44,-6.271 16.994,-15.2758 0.525,-9.0071 -6.209,-16.7203 -15.045,-17.2602" /><path
           inkscape:connector-curvature="0"
           id="path124"
           style="fill:#ffffff;fill-opacity:1;fill-rule:nonzero;stroke:none;stroke-width:0.1"
           d="m 244.08984,232.85544 c 1.542,2.114 7.146,0.238 9.11,-3.276 1.963,-3.512 1.945,-8.9068 -1.308,-9.9959 -3.254,-1.0879 -3.016,3.15 -4.721,6.1379 -1.706,2.988 -4.623,5.021 -3.081,7.133 v 10e-4" /><path
           inkscape:connector-curvature="0"
           id="path126"
           style="fill:#ffffff;fill-opacity:1;fill-rule:nonzero;stroke:none;stroke-width:0.1"
           d="m 251.54184,218.49254 c 1.148,-0.0672 1.985,-1.2512 1.871,-2.643 -0.115,-1.391 -1.139,-2.4633 -2.287,-2.3961 -1.148,0.0672 -1.985,1.2512 -1.87,2.6422 0.115,1.3918 1.138,2.4637 2.286,2.3969" /><path
           inkscape:connector-curvature="0"
           id="path128"
           style="fill:#ffffff;fill-opacity:1;fill-rule:nonzero;stroke:none;stroke-width:0.1"
           d="m 351.26884,222.97534 c 0.144,-11.5027 -8.915,-20.9469 -20.232,-21.093 v 0 c -11.318,-0.148 -20.609,9.0582 -20.753,20.561 -0.144,11.5031 8.914,20.9471 20.233,21.0951 v 0 c 11.317,0.146 20.609,-9.06 20.752,-20.5631 v 0" /><path
           inkscape:connector-curvature="0"
           id="path130"
           style="fill:#040606;fill-opacity:1;fill-rule:nonzero;stroke:none;stroke-width:0.1"
           d="m 331.70784,206.25464 c -8.836,-0.5402 -16.431,6.2976 -16.968,15.2769 -0.538,8.9799 6.184,16.7049 15.019,17.2599 8.834,0.554 16.44,-6.272 16.994,-15.277 0.525,-9.0059 -6.21,-16.72 -15.045,-17.2598" /><path
           inkscape:connector-curvature="0"
           id="path132"
           style="fill:#ffffff;fill-opacity:1;fill-rule:nonzero;stroke:none;stroke-width:0.1"
           d="m 333.46384,233.05644 c 1.542,2.114 7.146,0.238 9.11,-3.275 1.963,-3.512 1.945,-8.9081 -1.307,-9.9971 -3.254,-1.0879 -3.016,3.1511 -4.721,6.1391 -1.706,2.987 -4.624,5.02 -3.082,7.133 v 0" /><path
           inkscape:connector-curvature="0"
           id="path134"
           style="fill:#ffffff;fill-opacity:1;fill-rule:nonzero;stroke:none;stroke-width:0.1"
           d="m 340.91684,218.69444 c 1.147,-0.0679 1.985,-1.2511 1.87,-2.6422 -0.115,-1.3918 -1.139,-2.4648 -2.286,-2.3976 -1.148,0.068 -1.985,1.2508 -1.871,2.643 0.115,1.391 1.138,2.4648 2.287,2.3968" /><path
           inkscape:connector-curvature="0"
           id="path136"
           style="fill:#f9b1bc;fill-opacity:1;fill-rule:nonzero;stroke:none;stroke-width:0.1"
           d="m 308.23684,224.38354 c 0.931,-14.6629 -10.819,-27.3563 -26.252,-28.359 -15.434,-1.0031 -28.713,10.0641 -29.669,24.725 -0.956,14.6609 10.773,27.3719 26.204,28.3979 15.433,1.027 28.73,-10.019 29.711,-24.678" /><path
           inkscape:connector-curvature="0"
           id="path138"
           style="fill:#a7505d;fill-opacity:1;fill-rule:nonzero;stroke:none;stroke-width:0.1"
           d="m 305.90384,214.97534 c -3.283,-9.7758 -12.592,-17.157 -23.992,-17.8949 -14.82,-0.9621 -27.57,9.6672 -28.485,23.7449 -0.418,6.4221 1.7,12.4541 5.533,17.2091 0,0 2.414,2.726 0.954,3.884 -1.459,1.159 -3.539,-2.09 -3.539,-2.09 -4.266,-5.316 -6.621,-12.052 -6.153,-19.2211 1.031,-15.7551 15.302,-27.6457 31.888,-26.5687 12.777,0.8277 23.206,9.1109 26.868,20.0758 0,0 0.86,2.246 -0.648,2.7851 -1.507,0.5391 -2.426,-1.9242 -2.426,-1.9242 v 0" /><path
           inkscape:connector-curvature="0"
           id="path140"
           style="fill:#040606;fill-opacity:1;fill-rule:nonzero;stroke:none;stroke-width:0.1"
           d="m 235.34184,252.34944 c -0.741,-1.296 -1.505,-2.165 -2.205,-3.045 -0.682,-0.903 -1.396,-1.586 -2.032,-2.317 -1.338,-1.356 -2.564,-2.535 -3.925,-3.588 -1.355,-1.067 -2.696,-2.165 -4.248,-3.301 -1.573,-1.139 -3.213,-2.367 -5.408,-3.777 l -0.08,-0.052 c -0.279,-0.178 -0.649,-0.097 -0.828,0.181 -0.024,0.038 -0.045,0.08 -0.06,0.121 -0.958,2.668 -0.638,5.274 0.148,7.675 0.821,2.392 2.25,4.582 4.118,6.304 1.857,1.717 4.1,3.079 6.599,3.582 2.458,0.574 5.104,0.453 7.671,-0.814 0.325,-0.161 0.459,-0.555 0.299,-0.881 -0.006,-0.01 -0.012,-0.022 -0.018,-0.033 l -0.031,-0.055" /><path
           inkscape:connector-curvature="0"
           id="path142"
           style="fill:#040606;fill-opacity:1;fill-rule:nonzero;stroke:none;stroke-width:0.1"
           d="m 340.83384,253.31844 c 2.567,1.267 5.212,1.388 7.67,0.814 2.499,-0.503 4.743,-1.865 6.599,-3.582 1.869,-1.722 3.297,-3.912 4.119,-6.304 0.786,-2.401 1.106,-5.007 0.147,-7.675 -0.111,-0.311 -0.455,-0.474 -0.767,-0.361 -0.042,0.015 -0.082,0.035 -0.118,0.057 l -0.083,0.054 c -2.195,1.41 -3.834,2.638 -5.408,3.777 -1.552,1.136 -2.892,2.234 -4.247,3.301 -1.362,1.053 -2.587,2.232 -3.925,3.588 -0.637,0.731 -1.35,1.414 -2.033,2.317 -0.699,0.88 -1.464,1.749 -2.204,3.045 l -0.03,0.054 c -0.18,0.315 -0.071,0.717 0.245,0.897 0.01,0.005 0.023,0.012 0.035,0.018" /><path
           inkscape:connector-curvature="0"
           id="path144"
           style="fill:#a5dff2;fill-opacity:1;fill-rule:nonzero;stroke:none;stroke-width:0.1"
           d="m 379.08284,287.95044 c 27.606,4.324 46.252,20.988 41.645,37.22 -4.606,16.231 -30.719,25.884 -58.327,21.56 -5.71,-0.894 -11.007,-2.341 -15.824,-4.179 -4.713,8.065 -11.76,15.895 -20.994,22.715 -29.128,21.514 -68.802,24.863 -88.615,7.48 -8.64,-7.58 -12.07,-17.852 -10.784,-28.808 -13.21,0.699 -24.758,-3.042 -30.081,-10.847 -8.5396,-12.522 2.172,-30.753 23.926,-40.72 5.863,-2.686 11.927,-4.496 17.826,-5.461 -0.775,-15.457 -7.121,-22.546 -7.121,-22.546 0,0 24.456,-6.459 73.177,-7.935 48.72,-1.476 75.391,3.22 75.391,3.22 0,0 -6.605,11.743 -6.33,27.574 2.023,0.17 4.061,0.406 6.111,0.727" /><path
           inkscape:connector-curvature="0"
           id="path146"
           style="fill:#d0f0f7;fill-opacity:1;fill-rule:nonzero;stroke:none;stroke-width:0.1"
           d="m 322.31684,298.22744 c -21.743,16.839 -54.884,10.456 -74.022,-14.256 -4.559,-5.887 -7.909,-14.446 -10.077,-21.211 10.616,-2.013 32.526,-5.326 65.693,-6.331 14.175,-0.43 26.469,-0.334 36.798,0.013 -0.001,17.704 -6.813,32.818 -18.392,41.785" /><path
           inkscape:connector-curvature="0"
           id="path148"
           style="fill:#d0f0f7;fill-opacity:1;fill-rule:nonzero;stroke:none;stroke-width:0.1"
           d="m 235.14984,371.02244 c -0.311,-0.315 -0.613,-0.633 -0.908,-0.956 -0.144,-0.158 -0.29,-0.315 -0.43,-0.475 -0.324,-0.368 -0.635,-0.741 -0.939,-1.118 -0.148,-0.186 -0.295,-0.373 -0.439,-0.561 -0.274,-0.357 -0.541,-0.716 -0.797,-1.08 -0.167,-0.239 -0.328,-0.481 -0.487,-0.722 -0.155,-0.233 -0.306,-0.468 -0.453,-0.704 -0.175,-0.28 -0.348,-0.56 -0.513,-0.844 -0.093,-0.161 -0.181,-0.325 -0.271,-0.488 -0.637,-1.144 -1.2,-2.318 -1.681,-3.521 -0.018,-0.043 -0.035,-0.087 -0.052,-0.131 -1.069,-2.708 -1.75,-5.553 -2.053,-8.49 -0.006,0 -0.013,0.001 -0.02,0.002 -0.269,-2.603 -0.242,-5.278 0.077,-7.996 -13.21,0.699 -24.758,-3.042 -30.081,-10.847 -6.1162,-8.968 -2.354,-20.865 8.265,-30.556 3.418,-0.538 7.003,-0.826 10.7,-0.826 22.337,0 40.621,10.443 42.213,23.68 8.009,-2.325 16.93,-3.627 26.341,-3.627 16.296,0 31.136,3.892 42.283,10.271 2.122,-19.761 23.525,-35.291 49.632,-35.291 19.719,0 36.758,8.859 44.833,21.709 0.425,1.372 0.711,2.759 0.88,4.154 -0.115,0.855 -0.279,1.71 -0.522,2.565 -4.606,16.231 -30.719,25.884 -58.327,21.56 -5.71,-0.894 -11.007,-2.341 -15.824,-4.179 -2.496,4.271 -5.652,8.474 -9.435,12.498 -0.336,0.357 -0.675,0.713 -1.02,1.067 -0.112,0.115 -0.227,0.229 -0.34,0.343 -0.332,0.337 -0.667,0.672 -1.008,1.006 -0.135,0.133 -0.274,0.264 -0.412,0.397 -0.326,0.314 -0.653,0.628 -0.987,0.939 -0.164,0.154 -0.332,0.304 -0.497,0.456 -0.316,0.29 -0.63,0.579 -0.952,0.866 -0.2,0.178 -0.407,0.354 -0.61,0.532 -0.297,0.259 -0.592,0.52 -0.896,0.777 -0.245,0.209 -0.497,0.416 -0.747,0.623 -0.269,0.224 -0.535,0.448 -0.809,0.67 -0.319,0.26 -0.647,0.516 -0.972,0.772 -0.214,0.169 -0.424,0.34 -0.641,0.507 -0.548,0.424 -1.104,0.846 -1.668,1.262 -29.128,21.514 -68.802,24.863 -88.615,7.48 -0.485,-0.426 -0.948,-0.862 -1.399,-1.304 -0.142,-0.139 -0.28,-0.28 -0.419,-0.42" /><path
           inkscape:connector-curvature="0"
           id="path150"
           style="fill:#f5748f;fill-opacity:1;fill-rule:evenodd;stroke:none;stroke-width:0.1"
           d="m 387.21884,197.71634 29.47,-31.0359 c 4.769,-5.0211 24.263,15.0371 21.441,31.2859 -2.822,16.2492 -41.852,16.5602 -41.852,16.5602 -5.321,-3.343 -11.439,-14.3051 -9.059,-16.8102 v 0" /><path
           inkscape:connector-curvature="0"
           id="path152"
           style="fill:#f36082;fill-opacity:1;fill-rule:evenodd;stroke:none;stroke-width:0.1"
           d="m 430.37484,207.42264 v 0 c 12.044,-11.802 1.02,-29.3891 -6.066,-35.5903 -6.385,-5.5867 -31.374,19.9051 -36.256,25.0051 l 28.636,-30.157 c 4.769,-5.0211 24.263,15.0371 21.441,31.2859 -0.707,4.0699 -3.687,7.1402 -7.755,9.4563" /><path
           inkscape:connector-curvature="0"
           id="path154"
           style="fill:#5f6263;fill-opacity:1;fill-rule:nonzero;stroke:none;stroke-width:0.1"
           d="m 207.39384,255.63544 -0.079,0.009 c -2.042,0.231 -4.23,0.13 -6.328,-0.439 -2.1,-0.558 -4.059,-1.571 -5.697,-2.828 -3.297,-2.547 -5.368,-5.814 -6.9418,-9.025 -1.5625,-3.243 -2.6446,-6.551 -3.4926,-9.863 -0.8531,-3.311 -1.4621,-6.633 -1.9403,-9.952 -0.9457,-6.6391 -1.3617,-13.2699 -1.5046,-19.8828 -0.1055,-5.5543 -0.0231,-11.0711 0.2753,-16.6184 0.0516,-0.9609 -0.7265,-1.7609 -1.689,-1.725 l -36.1977,1.3653 c -0.9547,0.0359 -1.8004,-0.6629 -1.8996,-1.6129 -0.0363,-0.35 -0.0621,-0.7043 -0.0758,-1.0602 -0.3906,-10.3711 9.07,-19.1469 21.1305,-19.6012 12.0613,-0.4546 22.1551,7.5844 22.5453,17.9551 0.0106,0.2801 -0.002,0.6403 -0.0258,1.0063 -0.0961,1.5207 -0.1718,3.0418 -0.1582,4.566 0.0477,5.1617 0.2844,10.3547 0.6875,15.4969 0.5203,6.45 1.3114,12.8718 2.584,19.1289 0.6399,3.125 1.3996,6.212 2.3571,9.187 0.9487,2.975 2.1017,5.85 3.5397,8.424 1.428,2.564 3.203,4.823 5.216,6.153 2.01,1.338 4.133,1.751 6.538,1.326 0.078,-0.013 0.169,-0.027 0.249,-0.036 2.649,-0.3 4.989,2.035 4.402,4.919 -0.342,1.681 -1.791,2.914 -3.495,3.107" /><path
           inkscape:connector-curvature="0"
           id="path156"
           style="fill:#75797b;fill-opacity:1;fill-rule:nonzero;stroke:none;stroke-width:0.1"
           d="m 209.42184,254.72944 c -0.008,0.037 -0.023,0.071 -0.032,0.108 -0.573,0.426 -1.257,0.715 -1.996,0.798 l -0.079,0.009 c -2.042,0.231 -4.23,0.13 -6.328,-0.439 -2.1,-0.558 -4.059,-1.571 -5.697,-2.828 -3.297,-2.547 -5.368,-5.814 -6.9418,-9.025 -1.5625,-3.243 -2.6446,-6.551 -3.4926,-9.863 -0.8531,-3.311 -1.4621,-6.633 -1.9403,-9.952 -0.9457,-6.6391 -1.3617,-13.2699 -1.5046,-19.8828 -0.1055,-5.5543 -0.0231,-11.0711 0.2753,-16.6184 0.0516,-0.9609 -0.7265,-1.7609 -1.689,-1.725 l -36.1977,1.3653 c -0.9547,0.0359 -1.8004,-0.6629 -1.8996,-1.6129 -0.0363,-0.35 -0.0621,-0.7043 -0.0758,-1.0602 -0.1195,-3.1762 0.6887,-6.2012 2.2086,-8.8851 3.7844,-4.8977 10.1383,-8.2387 17.4547,-8.5149 12.0606,-0.4551 22.1543,7.584 22.5449,17.9551 0.011,0.2809 -0.002,0.6398 -0.0253,1.0059 -0.0965,1.521 -0.1723,3.0421 -0.1583,4.566 0.0469,5.1621 0.284,10.355 0.6875,15.4968 0.52,6.45 1.3106,12.8723 2.584,19.1302 0.6391,3.125 1.3996,6.212 2.3571,9.186 0.9488,2.975 2.1019,5.85 3.5389,8.424 1.429,2.564 3.204,4.823 5.217,6.153 2.01,1.338 4.133,1.751 6.538,1.326 0.078,-0.013 0.169,-0.027 0.248,-0.036 2.649,-0.299 4.989,2.035 4.403,4.919" /><path
           inkscape:connector-curvature="0"
           id="path158"
           style="fill:#bd8f56;fill-opacity:1;fill-rule:nonzero;stroke:none;stroke-width:0.1"
           d="m 147.00894,186.55464 c 0,0 -2.3102,-5.4141 2.468,-5.5024 4.7777,-0.0898 2.8668,4.5512 5.1871,4.1411 2.3207,-0.409 -3.2762,-8.736 3.959,-7.7797 7.2347,0.9547 0.6882,8.6258 4.2347,8.5437 l -15.8488,0.5973" /><path
           inkscape:connector-curvature="0"
           id="path160"
           style="fill:#bd8f56;fill-opacity:1;fill-rule:nonzero;stroke:none;stroke-width:0.1"
           d="m 169.54724,185.70544 c 0,0 -2.734,-4.5649 3.1359,-4.6532 5.8699,-0.0898 2.9793,4.4231 2.9793,4.4231 l -6.1152,0.2301" /><path
           inkscape:connector-curvature="0"
           id="path162"
           style="fill:#d7b890;fill-opacity:1;fill-rule:nonzero;stroke:none;stroke-width:0.1"
           d="m 174.28664,181.78944 c -0.1621,0 -0.3101,0.1082 -0.3539,0.2718 -0.0519,0.1961 0.0641,0.3981 0.2598,0.45 0.2906,0.0774 0.4871,0.2203 0.6008,0.4383 0.2363,0.4539 0.0699,1.1527 -0.0145,1.3848 -0.0691,0.189 0.0285,0.4 0.2184,0.4703 0.1898,0.068 0.4004,-0.0281 0.4703,-0.2172 0.0172,-0.0461 0.4117,-1.1371 -0.0219,-1.973 -0.2109,-0.4071 -0.5687,-0.6809 -1.064,-0.8122 -0.0313,-0.008 -0.0633,-0.0128 -0.095,-0.0128" /><path
           inkscape:connector-curvature="0"
           id="path164"
           style="fill:#d7b890;fill-opacity:1;fill-rule:nonzero;stroke:none;stroke-width:0.1"
           d="m 159.06594,177.83154 c -0.1824,0 -0.3402,0.136 -0.3636,0.3207 -0.0247,0.2012 0.1175,0.3852 0.3183,0.409 0.6914,0.0871 1.1817,0.3801 1.4988,0.8953 1.0598,1.7258 -0.182,5.2368 -0.1945,5.2719 -0.0683,0.191 0.0309,0.4012 0.2211,0.4699 0.1902,0.0661 0.4012,-0.03 0.4699,-0.2218 0.0567,-0.1582 1.3711,-3.8809 0.1285,-5.9039 -0.4351,-0.7071 -1.1187,-1.1243 -2.0324,-1.2383 -0.0156,-0.002 -0.0312,-0.003 -0.0461,-0.003" /><path
           inkscape:connector-curvature="0"
           id="path166"
           style="fill:#d7b890;fill-opacity:1;fill-rule:nonzero;stroke:none;stroke-width:0.1"
           d="m 149.44214,181.38044 c -0.1965,0 -0.359,0.155 -0.366,0.3531 -0.007,0.2027 0.1504,0.373 0.3527,0.3809 1.0117,0.0371 1.7375,0.3269 2.0988,0.839 0.2457,0.3481 0.2442,0.6871 0.2442,0.691 -0.008,0.202 0.1504,0.3719 0.3523,0.3801 0.2012,0.004 0.3727,-0.15 0.3809,-0.3519 0.002,-0.059 0.0109,-0.5922 -0.3781,-1.143 -0.3473,-0.4922 -1.093,-1.091 -2.6707,-1.1492 -0.005,0 -0.01,0 -0.0141,0" /></g><g
         transform="matrix(0.75000002,0,0,-0.75000002,-109.99101,726.81789)"
         style="clip-rule:evenodd;opacity:1;fill-rule:evenodd;stroke-linecap:round;stroke-linejoin:round"
         id="g1270"><path
           style="opacity:1;fill:#66d9ef"
           inkscape:connector-curvature="0"
           d="m 106.149,141.644 c 6.982,0 12.64,5.659 12.64,12.639 0,6.981 -5.658,12.641 -12.64,12.641 -6.9809,0 -12.6402,-5.66 -12.6402,-12.641 0,-6.98 5.6593,-12.639 12.6402,-12.639"
           id="path1266" /><path
           style="opacity:1;fill:#ffffff"
           inkscape:connector-curvature="0"
           d="m 109.066,145.244 c 1.109,-0.016 2.079,0.335 2.969,0.867 0.881,0.539 1.644,1.293 2.215,2.184 0.576,0.883 0.964,1.909 1.052,2.956 0.124,1.04 -0.061,2.099 -0.537,3.032 -0.131,0.26 -0.448,0.363 -0.706,0.231 -0.086,-0.044 -0.155,-0.108 -0.203,-0.184 l -0.03,-0.047 c -0.543,-0.849 -0.865,-1.589 -1.266,-2.265 -0.359,-0.686 -0.74,-1.3 -1.125,-1.922 -0.387,-0.618 -0.798,-1.237 -1.263,-1.878 -0.451,-0.651 -0.97,-1.323 -1.475,-2.11 l -0.052,-0.08 c -0.151,-0.236 -0.083,-0.55 0.153,-0.702 0.083,-0.054 0.177,-0.079 0.268,-0.082"
           id="path1268" /></g><g
         transform="matrix(0.75000002,0,0,-0.75000002,-109.99101,726.81789)"
         style="clip-rule:evenodd;opacity:1;fill-rule:evenodd;stroke-linecap:round;stroke-linejoin:round"
         id="g1276"><path
           style="opacity:1;fill:#66d9ef"
           inkscape:connector-curvature="0"
           d="m 132.52,173.844 c 3.663,0 6.633,2.97 6.633,6.634 0,3.662 -2.97,6.632 -6.633,6.632 -3.664,0 -6.633,-2.97 -6.633,-6.632 0,-3.664 2.969,-6.634 6.633,-6.634"
           id="path1272" /><path
           style="opacity:1;fill:#ffffff"
           inkscape:connector-curvature="0"
           d="m 134.05,175.734 c 0.583,-0.008 1.092,0.176 1.558,0.454 0.463,0.283 0.862,0.679 1.163,1.146 0.301,0.464 0.505,1.002 0.551,1.552 0.066,0.545 -0.031,1.101 -0.281,1.592 -0.069,0.134 -0.235,0.189 -0.371,0.12 -0.045,-0.023 -0.081,-0.058 -0.107,-0.096 l -0.015,-0.024 c -0.285,-0.447 -0.454,-0.835 -0.665,-1.19 -0.188,-0.36 -0.388,-0.682 -0.59,-1.008 -0.203,-0.325 -0.418,-0.649 -0.662,-0.986 -0.237,-0.342 -0.51,-0.694 -0.775,-1.107 l -0.026,-0.041 c -0.081,-0.124 -0.044,-0.29 0.08,-0.37 0.044,-0.028 0.093,-0.041 0.14,-0.042"
           id="path1274" /></g></g></g></svg>