<?xml version="1.0" encoding="UTF-8" standalone="no"?>
<!-- Created with Inkscape (http://www.inkscape.org/) -->

<svg
   version="1.1"
   id="svg2"
   xml:space="preserve"
   width="542.85333"
   height="345.97333"
   viewBox="0 0 542.85333 345.97333"
   sodipodi:docname="Blobninja.svg"
   inkscape:version="1.2 (dc2aeda, 2022-05-15)"
   xmlns:inkscape="http://www.inkscape.org/namespaces/inkscape"
   xmlns:sodipodi="http://sodipodi.sourceforge.net/DTD/sodipodi-0.dtd"
   xmlns="http://www.w3.org/2000/svg"
   xmlns:svg="http://www.w3.org/2000/svg"
   xmlns:rdf="http://www.w3.org/1999/02/22-rdf-syntax-ns#"
   xmlns:cc="http://creativecommons.org/ns#"
   xmlns:dc="http://purl.org/dc/elements/1.1/"><metadata
     id="metadata8"><rdf:RDF><cc:Work
         rdf:about=""><dc:format>image/svg+xml</dc:format><dc:type
           rdf:resource="http://purl.org/dc/dcmitype/StillImage" /></cc:Work></rdf:RDF></metadata><defs
     id="defs6" /><sodipodi:namedview
     pagecolor="#ffffff"
     bordercolor="#666666"
     borderopacity="1"
     objecttolerance="10"
     gridtolerance="10"
     guidetolerance="10"
     inkscape:pageopacity="0"
     inkscape:pageshadow="2"
     inkscape:window-width="1604"
     inkscape:window-height="786"
     id="namedview4"
     showgrid="false"
     inkscape:zoom="0.82691078"
     inkscape:cx="262.42251"
     inkscape:cy="245.49202"
     inkscape:window-x="1708"
     inkscape:window-y="223"
     inkscape:window-maximized="0"
     inkscape:current-layer="g10"
     inkscape:showpageshadow="0"
     inkscape:pagecheckerboard="0"
     inkscape:deskcolor="#d1d1d1" /><g
     id="g10"
     inkscape:groupmode="layer"
     inkscape:label="ink_ext_XXXXXX"
     transform="matrix(1.3333333,0,0,-1.3333333,0,345.97333)"><path
       style="clip-rule:evenodd;fill:#b0f2ff;fill-opacity:1;fill-rule:evenodd;stroke-width:0.75;stroke-linecap:round;stroke-linejoin:round"
       inkscape:connector-curvature="0"
       id="path975"
       d="m 41.104708,76.514254 c 0,90.796486 73.605512,164.402016 164.402012,164.402016 90.79658,0 164.40158,-73.60553 164.40158,-164.402016 0,-14.718 -1.93425,-28.984501 -5.562,-42.558751 -21.6165,-3.41475 -303.044391,-3.41475 -317.825841,0.5505 -3.533625,13.40925 -5.415751,27.489001 -5.415751,42.008251 z" /><path
       d="M 407.14201,34.654502 C 407.14201,15.515252 315.99975,1.8e-6 203.57025,1.8e-6 91.14,1.8e-6 -0.002,15.515252 -0.002,34.654502 c 0,19.1385 91.142,34.65375 203.57225,34.65375 112.4295,0 203.57176,-15.51525 203.57176,-34.65375"
       id="path1213-8"
       inkscape:connector-curvature="0"
       style="clip-rule:evenodd;fill:#414339;fill-rule:evenodd;stroke-width:0.75;stroke-linecap:round;stroke-linejoin:round;fill-opacity:1" /><g
       id="g985"
       transform="matrix(0.75000002,0,0,-0.75000002,-4.5148752,259.20975)"
       style="clip-rule:evenodd;fill-rule:evenodd;stroke-linecap:round;stroke-linejoin:round"><path
         id="path979"
         style="fill:#97da12;fill-opacity:1;stroke-width:2.0366"
         d="m 155.07767,52.68763 c 4.9342,0 8.90649,4.03517 8.90649,9.04747 0,0 0,10.85685 0,21.0883 0,10.23143 9.71781,26.86689 9.71781,40.30034 0,13.43345 -17.96394,26.86687 -17.96394,40.30037 0,13.4334 19.04522,26.8669 19.04522,40.3003 0,13.4335 -10.79908,27.888 -10.79908,40.3004 0,12.4123 0,34.1738 0,34.1738 0,5.0123 -3.97229,9.0475 -8.90649,9.0475 -4.93418,0 -8.90649,-4.0352 -8.90649,-9.0475 0,0 0,-21.7615 0,-34.1738 0,-12.4124 10.79909,-26.8669 10.79909,-40.3004 0,-13.4334 -19.04521,-26.8669 -19.04521,-40.3003 0,-13.4335 17.96394,-26.86692 17.96394,-40.30037 0,-13.43345 -9.71781,-30.06891 -9.71781,-40.30034 0,-10.23145 0,-21.0883 0,-21.0883 0,-5.0123 3.9723,-9.04747 8.90647,-9.04747 z"
         sodipodi:nodetypes="sszzzzzssszzzzzss" /><path
         id="path981"
         style="fill:#b6ee47;fill-opacity:1;stroke-width:2.0366"
         d="m 138.12252,34.07106 c 4.9342,0 8.9065,4.03517 8.9065,9.04747 0,0 0,26.37067 0,39.70487 0,13.3342 9.7178,26.86689 9.7178,40.30034 0,13.43345 -17.96394,26.86687 -17.96394,40.30037 0,13.4334 19.04521,26.8669 19.04521,40.3003 0,13.4335 -10.79908,27.888 -10.79908,40.3004 0,12.4123 0,34.1738 0,34.1738 0,5.0123 -3.97229,9.0475 -8.90649,9.0475 -4.93418,0 -8.90646,-4.0352 -8.90646,-9.0475 0,0 0,-21.7615 0,-34.1738 0,-12.4124 10.79907,-26.8669 10.79907,-40.3004 0,-13.4334 -19.04521,-26.8669 -19.04521,-40.3003 0,-13.4335 17.96393,-26.86692 17.96393,-40.30037 0,-13.43345 -9.71779,-26.96614 -9.71779,-40.30034 0,-13.3342 0,-39.70487 0,-39.70487 0,-5.0123 3.97228,-9.04747 8.90646,-9.04747 z"
         sodipodi:nodetypes="sszzzzzssszzzzzss" /><path
         id="path983"
         style="fill:#a6e22e;fill-opacity:1;stroke-width:2.0366"
         d="m 121.35619,66.49096 c 4.93419,0 8.90648,4.03517 8.90648,9.04747 0,0 0,-0.64592 0,7.28497 0,7.93088 9.71782,26.86689 9.71782,40.30034 0,13.43345 -17.96395,26.86687 -17.96395,40.30037 0,13.4334 19.04521,26.8669 19.04521,40.3003 0,13.4335 -10.79908,27.888 -10.79908,40.3004 0,12.4123 0,34.1738 0,34.1738 0,5.0123 -3.97229,9.0475 -8.90648,9.0475 -4.93419,0 -8.90648,-4.0352 -8.90648,-9.0475 0,0 0,-21.7615 0,-34.1738 0,-12.4124 10.79908,-26.8669 10.79908,-40.3004 0,-13.4334 -19.04521,-26.8669 -19.04521,-40.3003 0,-13.4335 17.96394,-26.86692 17.96394,-40.30037 0,-13.43345 -9.71781,-32.36946 -9.71781,-40.30034 0,-7.93089 0,-7.28497 0,-7.28497 0,-5.0123 3.97229,-9.04747 8.90648,-9.04747 z"
         sodipodi:nodetypes="sszzzzzssszzzzzss" /></g><g
       id="g993"
       transform="matrix(0.75000002,0,0,-0.75000002,-4.5148752,259.20975)"
       style="clip-rule:evenodd;fill-rule:evenodd;stroke-linecap:round;stroke-linejoin:round"><path
         id="path987"
         style="fill:#97da12;fill-opacity:1;stroke-width:1.83294"
         d="m 232.70847,73.040388 c 4.34916,0.871676 7.04788,5.120716 6.05094,9.527006 0,0 -2.15941,9.544194 -4.19443,18.538606 -2.03501,8.99441 3.22182,25.3353 0.54994,37.14458 -2.67189,11.80928 -21.17779,20.4451 -23.84967,32.2543 -2.67189,11.80931 11.44329,26.98307 8.77141,38.79237 -2.6719,11.80931 -15.06553,22.60848 -17.53433,33.52009 -2.46879,10.91162 -6.79711,30.04209 -6.79711,30.04209 -0.99694,4.40623 -5.30083,7.25183 -9.64999,6.38015 -4.34915,-0.87169 -7.04786,-5.12076 -6.05094,-9.52699 0,0 4.32832,-19.13046 6.79712,-30.04208 2.46879,-10.91161 14.86244,-21.71078 17.53432,-33.52009 2.6719,-11.8093 -11.4433,-26.98307 -8.7714,-38.79237 2.67188,-11.8092 21.17777,-20.44502 23.84966,-32.2543 2.67188,-11.80929 -2.58495,-28.15017 -0.54993,-37.144578 2.03501,-8.994416 4.19442,-18.53861 4.19442,-18.53861 0.99694,-4.4063 5.30084,-7.251849 9.64999,-6.380174 z"
         sodipodi:nodetypes="sszzzzzssszzzzzss" /><path
         id="path989"
         style="fill:#b6ee47;fill-opacity:1;stroke-width:1.83294"
         d="m 221.46645,53.679366 c 4.34916,0.871666 7.04788,5.120706 6.05095,9.526996 0,0 -5.24508,23.182325 -7.89722,34.904345 -2.65216,11.722033 3.22181,25.335303 0.54992,37.144573 -2.67189,11.80932 -21.17778,20.44503 -23.84966,32.25434 -2.6719,11.8093 11.44329,26.98306 8.7714,38.79237 -2.6719,11.8093 -15.06552,22.60837 -17.53433,33.52009 -2.46879,10.91161 -6.7971,30.04198 -6.7971,30.04198 -0.99694,4.40633 -5.30083,7.25184 -9.64999,6.38015 -4.34916,-0.87158 -7.04787,-5.12065 -6.05093,-9.52698 0,0 4.32831,-19.13037 6.7971,-30.04199 2.4688,-10.91171 14.86244,-21.71078 17.53432,-33.52009 2.6719,-11.8093 -11.44329,-26.98306 -8.7714,-38.79237 2.67189,-11.8093 21.17777,-20.44502 23.84967,-32.25433 2.67188,-11.80928 -3.20209,-25.42255 -0.54993,-37.144575 2.65214,-11.72203 7.89722,-34.904346 7.89722,-34.904346 0.99693,-4.40629 5.30083,-7.251838 9.64998,-6.380163 z"
         sodipodi:nodetypes="sszzzzzssszzzzzss" /><path
         id="path991"
         style="fill:#a6e22e;fill-opacity:1;stroke-width:1.83294"
         d="m 200.2398,79.217597 c 4.34916,0.871677 7.04788,5.120706 6.05094,9.527006 0,0 0.12846,-0.567833 -1.44896,6.404165 -1.57745,6.972002 3.2218,25.335302 0.54992,37.144572 -2.67189,11.80927 -21.17778,20.44508 -23.84967,32.25439 -2.67188,11.8092 11.4433,26.98306 8.77141,38.79227 -2.67188,11.8093 -15.06553,22.60847 -17.53431,33.52009 -2.46881,10.91171 -6.79712,30.04208 -6.79712,30.04208 -0.99693,4.40623 -5.30083,7.25184 -9.64999,6.38015 -4.34915,-0.87168 -7.04787,-5.12075 -6.05094,-9.52698 0,0 4.32831,-19.13037 6.79712,-30.04208 2.46879,-10.91162 14.86243,-21.71079 17.53432,-33.5201 2.67188,-11.8092 -11.44329,-26.98306 -8.77142,-38.79227 2.6719,-11.8093 21.17779,-20.44512 23.84967,-32.25438 2.6719,-11.80927 -2.12736,-30.172568 -0.54992,-37.144575 1.57743,-6.971996 1.44896,-6.404174 1.44896,-6.404174 0.99694,-4.40629 5.30084,-7.251839 9.64999,-6.380164 z"
         sodipodi:nodetypes="sszzzzzssszzzzzss" /></g><g
       id="g1001"
       transform="matrix(0.6937345,0,0,-0.6937345,2.6612308,243.47265)"
       style="clip-rule:evenodd;fill-rule:evenodd;stroke-linecap:round;stroke-linejoin:round"><path
         id="path995"
         style="fill:#97da12;fill-opacity:1;stroke-width:1.83294"
         d="m 74.62883,67.380015 c 4.34915,-0.871675 8.653049,1.973884 9.649993,6.380173 0,0 2.1594,9.544195 4.19442,18.53861 2.03501,8.994402 13.909357,21.901802 16.581247,33.711082 2.67188,11.80925 -10.490221,26.79204 -7.818335,38.60135 2.671895,11.8093 22.130845,20.25405 24.802735,32.06335 2.67188,11.80921 -3.9718,26.42392 -1.503,37.33554 2.4688,10.91171 6.79711,30.04208 6.79711,30.04208 0.99694,4.40623 -1.70179,8.6553 -6.05094,9.52699 -4.34915,0.87168 -8.65305,-1.97393 -9.64998,-6.38016 0,0 -4.32832,-19.13036 -6.79712,-30.04208 -2.46878,-10.91162 4.17489,-25.52633 1.503,-37.33553 -2.67188,-11.80931 -22.130838,-20.25405 -24.802729,-32.06336 -2.671891,-11.8093 10.490226,-26.7921 7.818336,-38.60135 C 86.681675,117.34744 74.807329,104.44004 72.772314,95.445631 70.7373,86.451225 68.577894,76.90702 68.577894,76.90702 67.580956,72.500731 70.279677,68.251691 74.62883,67.380015 Z"
         sodipodi:nodetypes="sszzzzzssszzzzzss" /><path
         id="path997"
         style="fill:#b6ee47;fill-opacity:1;stroke-width:1.83294"
         d="m 55.981209,54.009578 c 4.349159,-0.871676 8.653054,1.973873 9.649992,6.380162 0,0 5.245076,23.182326 7.897223,34.904345 2.652147,11.722035 13.909362,21.901805 16.581255,33.711095 2.671887,11.80932 -10.490222,26.79211 -7.818343,38.60132 2.671895,11.8093 22.130854,20.25405 24.802734,32.06335 2.6719,11.8093 -3.9718,26.42392 -1.503,37.33554 2.4688,10.91171 6.79711,30.04208 6.79711,30.04208 0.99695,4.40633 -1.70179,8.6553 -6.05093,9.52698 -4.34915,0.87169 -8.653048,-1.97382 -9.649986,-6.38015 0,0 -4.328319,-19.13037 -6.797118,-30.04208 -2.468791,-10.91162 4.174893,-25.52623 1.502997,-37.33554 -2.671885,-11.8093 -22.13084,-20.25405 -24.802731,-32.06335 -2.67188,-11.80921 10.490233,-26.792 7.818339,-38.60132 C 71.736864,120.34273 60.479646,110.16296 57.827499,98.440928 55.175352,86.718898 49.930278,63.536582 49.930278,63.536582 c -0.996939,-4.406299 1.701783,-8.655329 6.050931,-9.527004 z"
         sodipodi:nodetypes="sszzzzzssszzzzzss" /><path
         id="path999"
         style="fill:#a6e22e;fill-opacity:1;stroke-width:1.83294"
         d="m 47.651068,85.471688 c 4.349158,-0.871676 8.653054,1.973872 9.649992,6.380172 0,0 -0.128468,-0.567832 1.448965,6.404165 1.577438,6.972005 13.909364,21.901805 16.581252,33.711085 2.671888,11.80928 -10.490224,26.79207 -7.818333,38.60138 2.671879,11.8092 22.130846,20.25405 24.802721,32.06325 2.671896,11.8093 -3.971779,26.42402 -1.502987,37.33563 2.468789,10.91162 6.797108,30.04199 6.797108,30.04199 0.996938,4.40633 -1.701777,8.6554 -6.050938,9.52708 -4.349148,0.87169 -8.653051,-1.97392 -9.649981,-6.38015 0,0 -4.328321,-19.13047 -6.797114,-30.04208 -2.468792,-10.91162 4.174882,-25.52633 1.502991,-37.33564 -2.67188,-11.8092 -22.130835,-20.25395 -24.802725,-32.06325 -2.67189,-11.80931 10.490221,-26.7921 7.818334,-38.60137 -2.671888,-11.80928 -15.003815,-26.73909 -16.581253,-33.71108 -1.577438,-6.972009 -1.448965,-6.404178 -1.448965,-6.404178 -0.996937,-4.40629 1.701784,-8.65533 6.050933,-9.527004 z"
         sodipodi:nodetypes="sszzzzzssszzzzzss" /></g><path
       style="color:#000000;clip-rule:nonzero;fill:#ffb763;fill-opacity:1;fill-rule:nonzero;stroke-width:0.693262;stroke-linecap:round;stroke-linejoin:miter;-inkscape-stroke:none"
       d="m 286.07702,213.80769 c -3.21513,0.12378 -5.93081,-2.1712 -6.06596,-5.12627 -0.31296,-6.84281 -1.12011,-9.8496 -2.42079,-12.18154 -0.45549,-0.81664 -1.24174,-1.72895 -1.98995,-2.63777 -1.15988,2.60409 -2.73628,4.95159 -4.20877,7.10329 -2.76073,4.03415 -5.53642,7.13057 -5.53642,7.13057 -2.04245,2.28591 -5.71438,2.61719 -8.20148,0.73992 -2.48709,-1.87728 -2.8475,-5.25222 -0.80505,-7.53817 0,0 2.35788,-2.64635 4.67772,-6.03624 2.31976,-3.38989 4.0828,-7.8503 4.05909,-8.6195 v 0.0286 c -0.22786,-6.20345 2.11533,-11.93308 4.13392,-17.657 2.01852,-5.72392 3.82871,-11.36649 3.83167,-16.44327 0,-5.97375 -3.45434,-12.44082 -6.14087,-16.69509 -1.72718,2.43015 -2.98605,4.49227 -3.28232,5.98044 -2.52499,12.68483 -1.37833,8.44125 -2.14954,18.04643 -0.32592,4.05828 -2.67417,7.27191 -5.27798,9.67487 -2.60374,2.40297 -5.62261,4.20023 -8.50931,5.6546 -5.77346,2.90875 -11.303,4.44996 -11.303,4.44996 -3.07644,0.86995 -6.33757,-0.71739 -7.28349,-3.54517 -0.94554,-2.8272 0.78126,-5.82368 3.85713,-6.69309 0,0 4.59231,-1.31972 9.12801,-3.60488 2.26785,-1.14258 4.45008,-2.5259 5.85271,-3.82036 1.40264,-1.29446 1.86492,-2.29628 1.91373,-2.90389 0.567,-7.06111 0.5179,-8.62258 1.4957,-14.32603 -5.73274,2.99238 -11.97146,6.97173 -20.5807,14.5506 -2.32418,2.04543 -6.01223,1.97221 -8.23814,-0.16356 -2.22678,-2.136 -2.14773,-5.52682 0.17652,-7.57322 15.07689,-13.27249 25.27237,-17.54008 34.44702,-21.59809 0.3202,-0.43584 0.62058,-0.93628 0.93499,-1.35913 2.35361,-3.1655 4.54481,-6.06654 5.78069,-9.08552 1.23596,-3.01896 1.7245,-6.10134 0.47314,-10.55627 -0.69976,-2.49139 -2.10854,-5.47727 -4.29916,-8.89729 -1.95951,5.05031 -4.44126,10.27017 -7.15773,15.2788 -4.88394,9.00507 -9.84223,16.73039 -14.63471,21.06197 -2.29474,2.07423 -5.98453,2.04574 -8.24103,-0.0636 -2.25664,-2.10921 -2.22562,-5.50055 0.0695,-7.57452 1.25794,-1.13698 3.72313,-4.36995 6.44032,-8.44169 -3.33958,0.80966 -6.83348,1.5284 -10.61662,2.0407 -3.18404,0.43171 -6.14601,-1.59087 -6.61539,-4.51745 -0.46974,-2.92699 1.73165,-5.6496 4.91635,-6.08043 8.34342,-1.12981 15.29911,-3.1751 20.4112,-5.45726 3.59152,-7.224793 6.525,-14.640943 7.33424,-19.421143 2.02466,-11.9592 -1.66795,-34.714291 -1.66795,-34.714291 -0.51601,-2.919218 1.64011,-5.670345 4.81613,-6.145298 3.17658,-0.475012 6.17073,1.506863 6.6874,4.426613 0,0 0.35108,2.0403 0.78386,4.95234 0.74034,0.284663 2.72898,1.084088 6.41343,2.083433 4.2954,1.16511 9.69789,2.038245 12.74497,1.70187 8.50953,-0.939533 15.60131,-3.24741 21.98876,-6.577575 4.55349,-2.374013 13.53485,-5.684236 22.07779,-8.806433 8.54293,-3.122198 16.19252,-5.780543 16.19252,-5.780543 3.01049,-1.046535 6.37394,0.348338 7.5122,3.115485 1.1387,2.767013 -0.37899,5.858505 -3.38962,6.90471 0,0 -7.01173,2.463338 -14.34228,5.119756 5.15439,1.326885 10.06474,1.82343 14.74057,0.877522 3.14304,-0.635527 6.25159,1.191165 6.9431,4.080008 0.69153,2.888437 -1.2951,5.745382 -4.43756,6.38157 -11.18203,2.262022 -21.92563,-0.691823 -28.04077,-2.790278 -6.11505,-2.098455 -7.00305,-1.693162 -8.17176,-1.192357 1.53584,1.439737 1.8167,1.801627 4.28934,3.928065 3.65232,3.141075 8.07442,6.597585 11.90182,9.073883 0.97007,-0.640373 1.97889,-1.19634 3.00123,-1.556445 3.10219,-1.092796 6.32383,-1.305608 9.58416,-1.129351 6.52058,0.352463 13.24972,2.241158 18.42682,5.889548 2.55435,1.799768 3.03746,5.162033 1.07904,7.509593 -1.95814,2.347762 -5.61633,2.791807 -8.17046,0.99177 -2.44812,-1.725263 -7.72176,-3.430388 -11.89611,-3.682748 7.2957,6.967118 9.91744,15.393113 9.91744,15.393113 0.9854,2.815665 -0.69904,5.832513 -3.76246,6.738483 -3.06393,0.90656 -6.34719,-0.64184 -7.33287,-3.45817 0,0 -4.51797,-11.090986 -12.45262,-14.984161 -3.88185,-1.904655 -7.70752,-4.60068 -11.38067,-7.429177 -0.22446,1.58097 -0.43482,3.130237 -0.40257,4.433122 0.0808,3.261173 0.7749,5.55291 3.4772,8.366378 2.12944,2.217233 1.90057,5.601158 -0.51125,7.558913 -2.41254,1.958085 -6.09532,1.747732 -8.22548,-0.469898 -4.47359,-4.657507 -6.26678,-10.142948 -6.39224,-15.211335 -0.1149,-4.639695 0.86731,-8.988278 1.7668,-13.334266 -1.75653,-1.617997 -3.50988,-3.179692 -4.11694,-3.771082 -4.09198,1.547272 -8.46194,2.768407 -13.13625,3.608775 0.17282,2.39967 0.4761,5.48697 1.13414,8.91291 1.3852,7.212038 4.5709,15.032881 8.6266,18.103501 11.39499,8.62751 15.80479,7.66093 29.83287,10.3876 h 0.009 c 0.0557,0.0106 0.0869,0.014 0.1426,0.0246 5.08374,0.99371 18.27402,0.73077 29.34144,-0.0818 11.06742,-0.81258 20.46906,-1.95496 20.46906,-1.95496 3.19018,-0.38768 6.11838,1.67488 6.54061,4.60699 0.42259,2.93271 -1.82168,5.62489 -5.01245,6.0129 0,0 -5.54466,0.60183 -12.42579,1.2436 0.5902,0.5135 1.31716,1.11314 1.86998,1.57333 3.51364,2.92498 5.75784,4.31347 8.60541,4.25911 3.21752,-0.0618 5.88027,2.28576 5.94737,5.2431 0.0673,2.95733 -2.48688,5.40471 -5.70447,5.46637 -7.30459,0.13952 -12.65242,-3.6826 -16.67268,-7.02931 -4.02025,-3.34671 -7.35058,-6.44478 -10.89885,-7.28961 -3.54821,-0.84473 -6.64938,-0.60872 -9.65358,-0.57828 2.49614,2.27995 5.31276,4.67201 8.75937,7.06436 11.47952,7.96827 21.582,12.59174 21.582,12.59174 2.88142,1.31768 4.05504,4.53286 2.62131,7.18119 -1.43307,2.64815 -4.9303,3.72735 -7.81171,2.41061 0,0 -11.03416,-5.04138 -23.41519,-13.63544 -9.45905,-6.56573 -15.95194,-13.72338 -18.68533,-16.98972 -6.67288,-1.22578 -12.36579,-2.0502 -18.14156,-4.09821 1.81814,3.76264 3.77324,7.31177 5.00536,8.51564 2.03081,1.98422 4.15086,2.57762 7.99243,3.76845 3.84165,1.19084 9.13372,3.02877 13.88903,7.63035 2.8271,2.73579 5.64307,6.60509 8.39209,10.76269 7.64258,4.63751 12.03834,7.63477 17.77015,8.24565 3.19691,0.34088 5.48783,2.99925 5.11687,5.93759 -0.37089,2.93778 -3.26221,5.04324 -6.45862,4.70308 -2.08092,-0.22177 -3.98698,-0.64409 -5.80759,-1.17739 1.07449,1.94837 3.38681,5.97783 3.38681,5.97783 1.41493,2.65727 0.21787,5.86567 -2.67352,7.16562 -2.89111,1.30051 -6.38189,0.20024 -7.79617,-2.45735 0,0 -3.35556,-6.30377 -7.65914,-13.51989 -4.3035,-7.21612 -9.94448,-15.5739 -12.72097,-18.26063 -3.00615,-2.90898 -5.55124,-3.7379 -9.16323,-4.85756 -1.05604,-0.32734 -2.36915,-0.83865 -3.60149,-1.26956 -0.26734,4.35485 -0.0202,9.59365 0.59173,11.37022 2.11462,6.13802 5.3774,11.43706 9.9528,15.21005 4.69391,3.87073 19.11046,13.06556 19.11046,13.06556 2.65485,1.67218 3.33213,5.00595 1.51262,7.446 -1.81981,2.43975 -5.44683,3.06163 -8.10125,1.38899 0,0 -13.88209,-8.63189 -20.30382,-13.92751 -6.54041,-5.39335 -10.71143,-12.48883 -13.28169,-19.94948 -1.72045,-4.99315 -1.43496,-10.58681 -1.11288,-15.47357 0.23718,-3.59916 0.50611,-5.14769 0.70331,-6.53862 -3.43533,-4.20263 -5.72935,-9.43389 -7.66196,-14.21829 -1.73701,-4.30012 -2.75032,-7.41402 -3.23712,-8.95311 -7.09207,-6.26845 -9.75799,-15.485501 -11.24646,-23.235026 -0.72796,-3.790087 -1.08295,-7.223002 -1.28238,-9.93186 -4.00768,-0.31923 -7.85467,-1.173683 -11.15614,-2.06922 -0.7446,-0.201983 -1.1857,-0.375518 -1.86847,-0.578963 0.47653,6.122768 0.673,12.831008 -0.0819,18.977168 6.38898,7.538176 10.21023,14.122601 11.89474,20.119541 1.82305,6.49044 1.07274,12.30938 -0.85025,17.00664 -0.32056,0.783 -0.6981,1.49531 -1.06486,2.22108 1.79189,2.07174 10.99828,13.3059 10.99083,27.02292 0,5.25606 -1.29858,10.03813 -2.74987,14.5584 5.75617,-0.48408 15.43231,-0.6992 24.60023,2.51965 6.51791,2.28839 13.42176,6.05014 19.52141,10.17984 6.09958,4.1297 11.28436,8.38075 14.3861,12.87214 1.72522,2.4974 0.9209,5.80742 -1.79652,7.39278 -2.71712,1.58567 -6.3184,0.84638 -8.04325,-1.65121 -1.4858,-2.15141 -6.0591,-6.33351 -11.45834,-9.98901 -0.50155,-0.33958 -1.06732,-0.61524 -1.58327,-0.94893 -0.0846,0.49936 -0.23914,1.0929 -0.26271,1.53698 -0.11194,2.11026 0.0962,3.72787 2.43489,6.6866 1.89146,2.39313 1.31419,5.74247 -1.28947,7.48106 -2.60366,1.73849 -6.24776,1.20786 -8.13929,-1.18519 -3.69051,-4.66886 -4.85691,-9.54132 -4.64662,-13.50432 0.14911,-2.81021 0.67322,-4.97947 1.10724,-6.8995 -1.48153,-0.67298 -3.04904,-1.4939 -4.38811,-1.96405 -9.26395,-3.25255 -23.91978,-1.13671 -23.91978,-1.13671 -0.27298,0.29511 -0.57328,1.09137 1.51602,3.62466 2.08924,2.53327 5.1356,5.28546 7.46679,9.46513 2.3312,4.17966 3.34985,9.10887 3.69326,16.6185 0.13472,2.95511 -2.36221,5.45118 -5.57735,5.57541 z"
       id="path1003"
       sodipodi:nodetypes="ssscscscsccscccssscscssccccccssscsscscccccscsccsssscccccscccscssccsccccscsscsscccsscccscccccsscsccscccsccssscsscccccsssccscccscscscscsccsscccssccsscssssscsccscss" /><g
       id="g1781"><path
         inkscape:connector-curvature="0"
         id="path122"
         style="fill:#040606;fill-opacity:1;fill-rule:nonzero;stroke:none;stroke-width:0.1"
         d="m 127.074,128.15676 c -0.741,-1.297 -1.505,-2.165 -2.205,-3.045 -0.683,-0.904 -1.396,-1.587 -2.032,-2.318 -1.338,-1.356 -2.564,-2.535 -3.925,-3.588 -1.355,-1.067 -2.696,-2.165 -4.248,-3.3 -1.573,-1.14 -3.213,-2.367 -5.408,-3.778 l -0.08,-0.051 c -0.279,-0.179 -0.649,-0.098 -0.828,0.18 -0.024,0.038 -0.045,0.08 -0.06,0.121 -0.958,2.668 -0.638,5.275 0.148,7.674 0.821,2.394 2.25,4.583 4.118,6.305 1.857,1.718 4.1,3.079 6.6,3.582 2.458,0.574 5.103,0.453 7.67,-0.814 0.325,-0.161 0.459,-0.554 0.299,-0.88 -0.006,-0.011 -0.012,-0.023 -0.018,-0.034 l -0.031,-0.054" /><path
         inkscape:connector-curvature="0"
         id="path124"
         style="fill:#040606;fill-opacity:1;fill-rule:nonzero;stroke:none;stroke-width:0.1"
         d="m 232.566,129.12476 c 2.567,1.267 5.212,1.388 7.67,0.814 2.499,-0.503 4.743,-1.864 6.599,-3.582 1.869,-1.722 3.297,-3.911 4.119,-6.305 0.786,-2.399 1.106,-5.006 0.147,-7.674 -0.111,-0.311 -0.455,-0.473 -0.767,-0.361 -0.042,0.016 -0.082,0.035 -0.118,0.058 l -0.083,0.053 c -2.195,1.411 -3.834,2.638 -5.407,3.778 -1.553,1.135 -2.894,2.233 -4.248,3.3 -1.362,1.053 -2.587,2.232 -3.925,3.588 -0.637,0.731 -1.349,1.414 -2.033,2.318 -0.699,0.88 -1.464,1.748 -2.204,3.045 l -0.03,0.052 c -0.18,0.316 -0.071,0.718 0.245,0.898 0.01,0.006 0.023,0.013 0.035,0.018" /><path
         inkscape:connector-curvature="0"
         id="path126"
         style="fill:#f5748f;fill-opacity:1;fill-rule:evenodd;stroke:none;stroke-width:0.1"
         d="m 99.906999,67.510756 -29.6566,-12.9828 c -4.7984,-2.1012 -13.6136,19.7078 -7.3066,30.1378 6.3066,10.4301 34.9332,-0.5992 34.9332,-0.5992 3.019001,-3.8457 4.425001,-15.5066 2.03,-16.5558" /><path
         inkscape:connector-curvature="0"
         id="path128"
         style="fill:#f36082;fill-opacity:1;fill-rule:evenodd;stroke:none;stroke-width:0.1"
         d="m 88.784799,73.021656 c -1.007,-8.7598 -10.5598,-14.784 -15.6648,-17.2379 l 26.788,11.727 c 0,0 -7.6267,35.937004 -11.1232,5.5109" /><path
         inkscape:connector-curvature="0"
         id="path130"
         style="fill:#f9b1bc;fill-opacity:1;fill-rule:evenodd;stroke:none;stroke-width:0.1"
         d="m 99.611422,52.060396 c 12.212598,-31.7321 47.406638,-11.589719 55.669638,-10.685419 6.684,0.7301 13.80666,-6.716165 28.71666,-7.200165 14.909,-0.4832 24.07377,4.841673 36.88577,3.003473 12.812,-1.8379 30.29955,-19.944797 70.71955,-7.898697 53.413,16.1191 -11.44304,140.498172 -96.64804,140.498172 -85.205,0 -107.556478,-85.986564 -95.343578,-117.717364 v 0"
         sodipodi:nodetypes="cccccscc" /><path
         inkscape:connector-curvature="0"
         id="path132"
         style="fill:#2f3031;fill-opacity:1;fill-rule:evenodd;stroke:none;stroke-width:0.1"
         d="m 264.197,78.106856 c -15.256,-30.4211 -73.675,1.2699 -94.511,-0.6219 -20.838,-1.8934 -52.88,-17.9024 -63.628,3.5457 -10.748601,21.448104 8.611,59.214104 39.023,55.399104 12.626,-1.584 21.687,-9.217 33.907,-10.421 17.721,-1.747 33.439,14.567 53.453,8.467 21.058,-6.418 43.418,-33.115 31.756,-56.368904 z m -69.242,91.670904 c -85.205,0 -112.901501,-86.861204 -100.688601,-118.592004 v 0 C 106.479,19.453656 146.056,35.866556 154.319,36.770856 c 6.684,0.7301 14.7,-4.5859 29.61,-5.0691 14.909,-0.484 23.043,3.8101 35.855,1.9719 12.812,-1.8379 32.711,-19.55 73.131,-7.5039 53.413,16.1191 -12.755,143.608004 -97.96,143.608004" /><path
         inkscape:connector-curvature="0"
         id="path134"
         style="fill:#ffffff;fill-opacity:1;fill-rule:nonzero;stroke:none;stroke-width:0.1"
         d="m 153.627,98.580656 c 0.144,-11.502 -8.915,-20.9469 -20.233,-21.0938 v 0 c -11.317,-0.1472 -20.609,9.059 -20.752,20.5618 -0.144,11.503104 8.914,20.948104 20.232,21.094104 v 0 c 11.318,0.147 20.609,-9.059 20.753,-20.562104" /><path
         inkscape:connector-curvature="0"
         id="path136"
         style="fill:#040606;fill-opacity:1;fill-rule:nonzero;stroke:none;stroke-width:0.1"
         d="m 134.065,81.859956 c -8.835,-0.5402 -16.43,6.2969 -16.968,15.2769 -0.538,8.979904 6.185,16.703904 15.019,17.258904 8.835,0.554 16.441,-6.271 16.994,-15.274904 0.526,-9.007 -6.209,-16.7211 -15.045,-17.2609" /><path
         inkscape:connector-curvature="0"
         id="path138"
         style="fill:#f9b1bc;fill-opacity:1;fill-rule:nonzero;stroke:none;stroke-width:0.1"
         d="m 149.422,88.998656 -39.624,22.425104 10.313,5.551 5.001,5.475 22.213,3.559 7.331,-16.012 -5.234,-20.998104" /><path
         inkscape:connector-curvature="0"
         id="path140"
         style="fill:#040606;fill-opacity:1;fill-rule:nonzero;stroke:none;stroke-width:0.1"
         d="m 144.585,104.39376 c -1.204,0.884 -1.98,1.742 -2.774,2.538 -0.819,0.781 -1.417,1.568 -2.07,2.284 -1.194,1.485 -2.225,2.836 -3.116,4.309 -0.905,1.468 -1.842,2.925 -2.793,4.597 -0.953,1.693 -1.985,3.461 -3.135,5.803 l -0.043,0.086 c -0.146,0.297 -0.023,0.656 0.274,0.803 0.041,0.019 0.085,0.035 0.127,0.045 2.76,0.647 5.314,0.031 7.608,-1.023 2.283,-1.089 4.295,-2.759 5.792,-4.811 1.494,-2.041 2.59,-4.426 2.805,-6.966 0.29,-2.508 -0.133,-5.122 -1.684,-7.527 -0.197,-0.306 -0.604,-0.393 -0.909,-0.197 -0.011,0.007 -0.021,0.014 -0.031,0.022 l -0.051,0.037" /><path
         inkscape:connector-curvature="0"
         id="path142"
         style="fill:#f9b1bc;fill-opacity:1;fill-rule:nonzero;stroke:none;stroke-width:0.1"
         d="M 199.969,100.18966 C 200.9,85.527956 189.15,72.833756 173.717,71.830656 c -15.434,-1.002 -28.713,10.0641 -29.669,24.725 -0.956,14.661104 10.773,27.372104 26.205,28.399104 15.432,1.026 28.73,-10.02 29.71,-24.6792" /><path
         inkscape:connector-curvature="0"
         id="path144"
         style="fill:#a7505d;fill-opacity:1;fill-rule:nonzero;stroke:none;stroke-width:0.1"
         d="m 197.636,90.782556 c -3.283,-9.7769 -12.592,-17.1578 -23.992,-17.8957 -14.82,-0.9621 -27.57,9.6668 -28.485,23.745 -0.417,6.421904 1.7,12.453904 5.533,17.208904 0,0 2.414,2.726 0.954,3.884 -1.46,1.159 -3.539,-2.09 -3.539,-2.09 -4.266,-5.316 -6.621,-12.052 -6.153,-19.220904 1.031,-15.7539 15.302,-27.6461 31.888,-26.5699 12.777,0.8289 23.206,9.1117 26.868,20.0769 0,0 0.86,2.2457 -0.648,2.7848 -1.507,0.5402 -2.426,-1.9231 -2.426,-1.9231 v 0" /><path
         inkscape:connector-curvature="0"
         id="path146"
         style="fill:#ffffff;fill-opacity:1;fill-rule:nonzero;stroke:none;stroke-width:0.1"
         d="m 246.001,97.782556 c 0.144,-11.5027 -8.915,-20.9476 -20.232,-21.0937 v 0 c -11.318,-0.1481 -20.609,9.0578 -20.753,20.5609 -0.144,11.503004 8.914,20.948004 20.232,21.095004 v 0 c 11.318,0.147 20.61,-9.059 20.753,-20.562204 v 0" /><path
         inkscape:connector-curvature="0"
         id="path148"
         style="fill:#040606;fill-opacity:1;fill-rule:nonzero;stroke:none;stroke-width:0.1"
         d="m 226.44,81.060756 c -8.836,-0.5399 -16.431,6.298 -16.969,15.2769 -0.538,8.980104 6.185,16.705104 15.02,17.259104 8.835,0.555 16.44,-6.27 16.994,-15.275104 0.525,-9.007 -6.209,-16.7211 -15.045,-17.2609" /><path
         inkscape:connector-curvature="0"
         id="path150"
         style="fill:#f9b1bc;fill-opacity:1;fill-rule:nonzero;stroke:none;stroke-width:0.1"
         d="m 205.014,88.998656 39.624,22.425104 -10.312,5.551 -5.219,1.052 -5.856,1.012 -23.471,-9.042 5.234,-20.998104" /><path
         inkscape:connector-curvature="0"
         id="path152"
         style="fill:#f5748f;fill-opacity:1;fill-rule:evenodd;stroke:none;stroke-width:0.1"
         d="m 277.547,61.475556 33.344,-26.8308 c 5.395,-4.3418 22.043,18.1351 17.08,33.8628 -4.962,15.7282 -43.685,10.8364 -43.685,10.8364 -4.829,-4.0211 -9.431,-15.7012 -6.739,-17.8684 v 0" /><path
         inkscape:connector-curvature="0"
         id="path154"
         style="fill:#f36082;fill-opacity:1;fill-rule:evenodd;stroke:none;stroke-width:0.1"
         d="m 319.025,76.846656 v 0 c 13.51,-10.0918 4.929,-28.991 -1.269,-36.0809 -5.584,-6.3878 -33.746,15.5469 -39.265,19.9508 l 32.4,-26.0718 c 5.395,-4.3411 22.043,18.1351 17.08,33.8628 -1.243,3.9403 -4.605,6.5864 -8.946,8.3391" /><path
         inkscape:connector-curvature="0"
         id="path156"
         style="fill:#040606;fill-opacity:1;fill-rule:nonzero;stroke:none;stroke-width:0.1"
         d="m 204.12,105.51076 c -0.647,2.789 -0.16,5.392 0.962,7.653 1.061,2.319 2.899,4.192 4.996,5.607 2.103,1.425 4.561,2.315 7.079,2.567 2.515,0.217 5.126,-0.067 7.505,-1.611 0.277,-0.18 0.356,-0.551 0.175,-0.828 -0.024,-0.038 -0.052,-0.072 -0.083,-0.103 l -0.071,-0.068 c -1.875,-1.814 -3.444,-3.13 -4.914,-4.401 -1.46,-1.251 -2.836,-2.306 -4.185,-3.38 -1.336,-1.085 -2.763,-2.009 -4.389,-3.001 -0.857,-0.453 -1.686,-0.99 -2.721,-1.449 -1.017,-0.48 -2.036,-1.026 -3.469,-1.45 l -0.058,-0.017 c -0.348,-0.104 -0.714,0.095 -0.818,0.443 -0.003,0.013 -0.006,0.026 -0.009,0.038" /><path
         inkscape:connector-curvature="0"
         id="path158"
         style="fill:#ffffff;fill-opacity:1;fill-rule:nonzero;stroke:none;stroke-width:0.1"
         d="m 232.649,91.077956 c 1.147,-0.068 1.985,-1.2512 1.87,-2.643 -0.114,-1.3922 -1.139,-2.4641 -2.286,-2.3961 -1.148,0.0668 -1.985,1.25 -1.87,2.6418 0.114,1.3922 1.137,2.4641 2.286,2.3973" /><path
         inkscape:connector-curvature="0"
         id="path160"
         style="fill:#ffffff;fill-opacity:1;fill-rule:nonzero;stroke:none;stroke-width:0.1"
         d="m 138.877,91.077956 c 1.147,-0.068 1.985,-1.2512 1.87,-2.643 -0.115,-1.3922 -1.138,-2.4641 -2.286,-2.3961 -1.148,0.0668 -1.985,1.25 -1.871,2.6418 0.116,1.3922 1.139,2.4641 2.287,2.3973" /><path
         inkscape:connector-curvature="0"
         id="path162"
         style="fill:#2f3031;fill-opacity:1;fill-rule:evenodd;stroke:none;stroke-width:0.1"
         d="m 261.7,135.12176 c 0,0 11.655,31.562 29.847,40.238 0.804,0.384 1.576,-0.583 1.042,-1.298 -3.016,-4.044 -6.401,-12.069 6.367,-19.114 0.787,-0.435 0.47,-1.627 -0.429,-1.607 -8.338,0.182 -26.031,-1.849 -33.857,-21.07 l -2.97,2.851" /><path
         inkscape:connector-curvature="0"
         id="path164"
         style="fill:#2f3031;fill-opacity:1;fill-rule:evenodd;stroke:none;stroke-width:0.1"
         d="m 266.272,135.65576 c 0,0 14.586,0.852 24.285,7.515 14.572,10.012 39.42,15.805 48.619,1.754 0.388,-0.593 0.147,-1.389 -0.508,-1.658 -2.769,-1.139 -9.033,-4.707 -6.636,-13.074 0.304,-1.065 -0.932,-1.885 -1.78,-1.173 -5.685,4.776 -17.005,12.432 -29.276,10.359 -17.524,-2.961 -24.698,-8.778 -33.136,-7.301 l -1.568,3.578" /><path
         inkscape:connector-curvature="0"
         id="path166"
         style="fill:#2f3031;fill-opacity:1;fill-rule:evenodd;stroke:none;stroke-width:0.1"
         d="m 207.629,181.04076 -2.998,38.863 c -0.143,1.851 1.242,3.468 3.093,3.61 l 8.845,0.683 c 1.851,0.143 3.468,-1.242 3.61,-3.093 l 2.999,-38.863 -15.549,-1.2" /><path
         inkscape:connector-curvature="0"
         id="path168"
         style="fill:#ffffff;fill-opacity:1;fill-rule:evenodd;stroke:none;stroke-width:0.1"
         d="m 207.185,214.97676 5.397,3.227 5.83,-2.361 -5.398,-3.228 -5.829,2.362" /><path
         inkscape:connector-curvature="0"
         id="path170"
         style="fill:#ffffff;fill-opacity:1;fill-rule:evenodd;stroke:none;stroke-width:0.1"
         d="m 207.719,208.05476 5.398,3.227 5.829,-2.361 -5.398,-3.228 -5.829,2.362" /><path
         inkscape:connector-curvature="0"
         id="path172"
         style="fill:#ffffff;fill-opacity:1;fill-rule:evenodd;stroke:none;stroke-width:0.1"
         d="m 208.253,201.13276 5.398,3.227 5.829,-2.361 -5.398,-3.227 -5.829,2.361" /><path
         inkscape:connector-curvature="0"
         id="path174"
         style="fill:#ffffff;fill-opacity:1;fill-rule:evenodd;stroke:none;stroke-width:0.1"
         d="m 208.788,194.21076 5.397,3.227 5.829,-2.361 -5.397,-3.228 -5.829,2.362" /><path
         inkscape:connector-curvature="0"
         id="path176"
         style="fill:#ffffff;fill-opacity:1;fill-rule:evenodd;stroke:none;stroke-width:0.1"
         d="m 209.322,187.28876 5.397,3.227 5.829,-2.361 -5.397,-3.228 -5.829,2.362" /><path
         inkscape:connector-curvature="0"
         id="path178"
         style="fill:#2f3031;fill-opacity:1;fill-rule:evenodd;stroke:none;stroke-width:0.1"
         d="m 199.342,177.81076 v 0 c -0.11,1.422 0.954,2.664 2.376,2.775 l 27.372,2.111 c 1.422,0.11 2.664,-0.954 2.774,-2.376 v 0 c 0.109,-1.422 -0.954,-2.664 -2.376,-2.774 l -27.372,-2.112 c -1.423,-0.11 -2.664,0.954 -2.774,2.376" /><path
         inkscape:connector-curvature="0"
         id="path180"
         style="fill:#2f3031;fill-opacity:1;fill-rule:evenodd;stroke:none;stroke-width:0.1"
         d="m 208.994,143.74276 -2.55,33.037 18.56,1.432 2.549,-33.037 -18.559,-1.432" /><path
         inkscape:connector-curvature="0"
         id="path182"
         style="fill:#2f3031;fill-opacity:1;fill-rule:evenodd;stroke:none;stroke-width:0.1"
         d="m 247.011,174.30876 21.893,32.249 c 1.043,1.537 3.134,1.937 4.67,0.894 l 7.339,-4.983 c 1.537,-1.043 1.936,-3.133 0.893,-4.67 l -21.892,-32.249 -12.903,8.759" /><path
         inkscape:connector-curvature="0"
         id="path184"
         style="fill:#ffffff;fill-opacity:1;fill-rule:evenodd;stroke:none;stroke-width:0.1"
         d="m 267.828,201.11376 6.232,-0.844 3.083,-5.481 -6.231,0.844 -3.084,5.481" /><path
         inkscape:connector-curvature="0"
         id="path186"
         style="fill:#ffffff;fill-opacity:1;fill-rule:evenodd;stroke:none;stroke-width:0.1"
         d="m 263.928,195.36976 6.233,-0.844 3.083,-5.481 -6.232,0.844 -3.084,5.481" /><path
         inkscape:connector-curvature="0"
         id="path188"
         style="fill:#ffffff;fill-opacity:1;fill-rule:evenodd;stroke:none;stroke-width:0.1"
         d="m 260.029,189.62476 6.231,-0.843 3.084,-5.48 -6.231,0.843 -3.084,5.48" /><path
         inkscape:connector-curvature="0"
         id="path190"
         style="fill:#ffffff;fill-opacity:1;fill-rule:evenodd;stroke:none;stroke-width:0.1"
         d="m 256.129,183.88176 6.232,-0.843 3.084,-5.482 -6.233,0.844 -3.083,5.481" /><path
         inkscape:connector-curvature="0"
         id="path192"
         style="fill:#ffffff;fill-opacity:1;fill-rule:evenodd;stroke:none;stroke-width:0.1"
         d="m 252.23,178.13776 6.231,-0.843 3.084,-5.482 -6.232,0.844 -3.083,5.481" /><path
         inkscape:connector-curvature="0"
         id="path194"
         style="fill:#2f3031;fill-opacity:1;fill-rule:evenodd;stroke:none;stroke-width:0.1"
         d="m 238.518,176.95376 v 0 c 0.801,1.18 2.407,1.487 3.587,0.685 l 22.714,-15.419 c 1.18,-0.801 1.487,-2.407 0.686,-3.587 v 0 c -0.801,-1.18 -2.407,-1.488 -3.588,-0.686 l -22.712,15.419 c -1.181,0.801 -1.488,2.407 -0.687,3.588" /><path
         inkscape:connector-curvature="0"
         id="path196"
         style="fill:#2f3031;fill-opacity:1;fill-rule:evenodd;stroke:none;stroke-width:0.1"
         d="m 224.815,144.30276 18.611,27.415 15.402,-10.456 -18.612,-27.414 -15.401,10.455" /><path
         inkscape:connector-curvature="0"
         id="path198"
         style="fill:#e9e9e9;fill-opacity:1;fill-rule:nonzero;stroke:none;stroke-width:0.1"
         d="m 68.908999,89.408756 c -1.7051,0 -3.0867,1.382 -3.0867,3.0879 0,1.7051 1.3816,3.0859 3.0867,3.0859 1.7051,0 3.0875,-1.3808 3.0875,-3.0859 0,-1.7059 -1.3824,-3.0879 -3.0875,-3.0879 z m 15.0914,-1.023 c -0.5863,-0.2758 -1.2398,-0.4348 -1.9312,-0.4321 -2.4867,0.0063 -4.4961,2.0289 -4.4883,4.5153 0.0074,2.4867 2.0293,4.4957 4.5164,4.4879 0.6926,-0.0012 1.3457,-0.1653 1.9309,-0.4461 -0.0086,0.034 -0.0149,0.0699 -0.0247,0.1058 l 7.52,8.629204 -11.2809,-1.969 c -0.1004,0.105 -0.209,0.204 -0.3125,0.306 -0.0496,-0.643 -0.234,-1.286 -0.5754,-1.883 -1.2336,-2.159004 -3.984,-2.909004 -6.1429,-1.675 -2.1586,1.234 -2.9086,3.984 -1.6747,6.143 0.3438,0.602 0.8082,1.089 1.3418,1.459 -0.0492,0.013 -0.0968,0.031 -0.1464,0.043 l -3.8235,10.786 -3.8226,-10.786 c -0.0899,-0.022 -0.1762,-0.052 -0.2657,-0.077 0.5356,-0.365 1.0032,-0.848 1.3512,-1.447 1.2508,-2.149 0.5234,-4.904 -1.6254,-6.155004 -2.1492,-1.2511 -4.9055,-0.5242 -6.1562,1.625004 -0.3473,0.596 -0.5368,1.24 -0.591,1.885 -0.0387,-0.039 -0.0801,-0.075 -0.118,-0.114 l -11.261,2.078 7.436,-8.702904 c -0.0145,-0.0519 -0.0242,-0.1043 -0.0383,-0.1562 0.5863,0.2762 1.2395,0.4351 1.9316,0.4332 2.4864,-0.007 4.4961,-2.0301 4.4883,-4.516 -0.0082,-2.486 -2.0301,-4.4961 -4.5164,-4.4879 -0.6926,0.0019 -1.3461,0.1648 -1.9316,0.4469 0.0094,-0.0352 0.0156,-0.0711 0.025,-0.1059 l -7.5196,-8.6293 11.2809,1.968 c 0.1004,-0.1047 0.209,-0.2028 0.3121,-0.3059 0.0496,0.643 0.2344,1.286 0.5754,1.8828 1.234,2.1602 3.984,2.9094 6.1426,1.675 2.1594,-1.2328 2.9094,-3.984 1.6754,-6.1418 -0.3438,-0.6019 -0.8082,-1.0898 -1.3422,-1.4601 0.0496,-0.0129 0.0973,-0.0309 0.1469,-0.0418 l 3.8226,-10.7871 3.8235,10.7871 c 0.0898,0.0219 0.1761,0.0519 0.2652,0.0758 -0.5359,0.366 -1.0031,0.8492 -1.3508,1.4472 -1.2516,2.1489 -0.5234,4.9051 1.6254,6.1559 2.1492,1.2512 4.9051,0.5238 6.1559,-1.6258 0.3476,-0.5961 0.5371,-1.2402 0.5914,-1.8844 0.0386,0.0391 0.08,0.0742 0.1179,0.1133 l 11.261,-2.0769 -7.4367,8.7019 c 0.0148,0.052 0.025,0.1039 0.0386,0.1559" /></g></g></svg>
