<?xml version="1.0" encoding="UTF-8" standalone="no"?>
<svg
   style="fill-rule:evenodd;clip-rule:evenodd;stroke-linecap:round;stroke-linejoin:round;"
   xml:space="preserve"
   version="1.1"
   viewBox="0 0 554.893 345.613"
   id="svg1279"
   sodipodi:docname="logo_hero.svg"
   inkscape:version="1.2.2 (b0a84865, 2022-12-01)"
   xmlns:inkscape="http://www.inkscape.org/namespaces/inkscape"
   xmlns:sodipodi="http://sodipodi.sourceforge.net/DTD/sodipodi-0.dtd"
   xmlns="http://www.w3.org/2000/svg"
   xmlns:svg="http://www.w3.org/2000/svg"
   xmlns:rdf="http://www.w3.org/1999/02/22-rdf-syntax-ns#"
   xmlns:cc="http://creativecommons.org/ns#"
   xmlns:dc="http://purl.org/dc/elements/1.1/"
   xmlns:vectornator="http://vectornator.io"><sodipodi:namedview
   pagecolor="#ffffff"
   bordercolor="#666666"
   borderopacity="1"
   objecttolerance="10"
   gridtolerance="10"
   guidetolerance="10"
   inkscape:pageopacity="0"
   inkscape:pageshadow="2"
   inkscape:window-width="1512"
   inkscape:window-height="916"
   id="namedview1281"
   showgrid="false"
   inkscape:zoom="3.3638695"
   inkscape:cx="238.86182"
   inkscape:cy="180.44695"
   inkscape:window-x="0"
   inkscape:window-y="38"
   inkscape:window-maximized="1"
   inkscape:current-layer="svg1279"
   inkscape:document-rotation="0"
   inkscape:pagecheckerboard="0"
   inkscape:snap-nodes="false"
   showguides="false"
   inkscape:showpageshadow="0"
   inkscape:deskcolor="#d1d1d1" />
<metadata
   id="metadata1190">
<vectornator:setting
   key="DynamicGuides"
   value="1" />
<vectornator:setting
   key="CMYKEnabledKey"
   value="0" />
<vectornator:setting
   key="Units"
   value="Points" />
<vectornator:setting
   key="GridSpacing"
   value="36" />
<vectornator:setting
   key="SnapToGuides"
   value="1" />
<vectornator:setting
   key="RulersVisible"
   value="1" />
<rdf:RDF><cc:Work
     rdf:about=""><dc:format>image/svg+xml</dc:format><dc:type
       rdf:resource="http://purl.org/dc/dcmitype/StillImage" /></cc:Work></rdf:RDF></metadata>
<defs
   id="defs1202" />



<style
   type="text/css"
   id="style2">
	.st0{fill-rule:evenodd;clip-rule:evenodd;fill:#F18F97;}
	.st1{fill-rule:evenodd;clip-rule:evenodd;fill:#EF7B88;}
	.st2{fill-rule:evenodd;clip-rule:evenodd;fill:#F8C6C8;}
	.st3{fill:#B16365;}
	.st4{fill:#FFFFFF;}
	.st5{fill:#020203;}
	.st6{fill:#F8C6C8;}
	.st7{fill:#183051;}
	.st8{fill:url(#SVGID_1_);}
	.st9{fill:#3D3D3B;}
	.st10{fill:#422A19;}
	.st11{fill:#754E24;}
	.st12{fill:#DADADA;}
</style><style
   id="style2647">svg {enable-background:new 0 0 288 288}</style><style
   id="style2649">.st3{fill:#375c93}.st4{fill:#8dc63f}</style><ellipse
   style="fill:#bababa;fill-opacity:0.245399;stroke:none;stroke-width:10.4455;stroke-linecap:round;stroke-dasharray:none"
   id="ellipse382"
   cx="278.88113"
   cy="293.53912"
   rx="226.70984"
   ry="30.377993" /><path
   style="fill:#ff9097;fill-opacity:1;stroke:none;stroke-width:1px;stroke-linecap:butt;stroke-linejoin:miter;stroke-opacity:1"
   d="m 125.33749,217.40512 c 0,0 -45.223665,-1.50628 -52.586914,14.80603 -7.36324,16.3123 7.388169,39.18072 18.379899,41.8653 10.991725,2.68459 45.439165,-19.91154 45.439165,-19.91154 z"
   id="path384"
   sodipodi:nodetypes="czzcc" /><path
   style="fill:#996554;fill-opacity:1;stroke:none;stroke-width:1px;stroke-linecap:butt;stroke-linejoin:miter;stroke-opacity:1"
   d="m 74.192096,184.07282 c -6.51731,2.98561 6.403639,40.88866 14.591469,59.02514 8.1878,18.13648 24.141165,53.24073 33.615755,49.2747 9.47459,-3.96603 -4.56765,-40.50306 -12.79989,-58.69889 -8.23222,-18.19583 -28.890015,-52.58656 -35.407334,-49.60095 z"
   id="path386"
   sodipodi:nodetypes="zzzzz" /><path
   style="fill:#915d4b;fill-opacity:1;stroke:none;stroke-width:1px;stroke-linecap:butt;stroke-linejoin:miter;stroke-opacity:1"
   d="m 74.192096,184.07282 c 11.502669,3.73901 56.717144,85.39105 48.207224,108.29984 9.47459,-3.96603 -4.56765,-40.50306 -12.79989,-58.69889 -8.23222,-18.19583 -28.890005,-52.58656 -35.407334,-49.60095 z"
   id="path388"
   sodipodi:nodetypes="cczc" /><path
   style="fill:#f7f2f1;fill-opacity:1;stroke:none;stroke-width:1px;stroke-linecap:butt;stroke-linejoin:miter;stroke-opacity:1"
   d="m 70.925896,175.76133 c -3.11773,1.33148 -1.2892,7.45931 0.19176,11.04675 1.48097,3.58744 1.89701,10.6108 1.89701,10.6108 l 11.711689,-5.7628 c 0,0 -5.05566,-6.75642 -6.548379,-9.46327 -1.49271,-2.70684 -4.13436,-7.76296 -7.25208,-6.43148 z"
   id="path390"
   sodipodi:nodetypes="zzcczz" /><path
   style="fill:#e9e9e9;fill-opacity:1;stroke:none;stroke-width:1px;stroke-linecap:butt;stroke-linejoin:miter;stroke-opacity:1"
   d="m 70.925896,175.76133 c 8.554159,11.35786 9.212349,18.13941 13.800469,15.89475 0,0 -5.05567,-6.75642 -6.548379,-9.46327 -1.49272,-2.70684 -4.13437,-7.76296 -7.25209,-6.43148 z"
   id="path392"
   sodipodi:nodetypes="cczc" /><path
   style="fill:#784230;fill-opacity:1;stroke:none;stroke-width:1.27727px;stroke-linecap:butt;stroke-linejoin:miter;stroke-opacity:1"
   d="m 43.037554,122.84562 c -2.281501,3.73231 6.865758,14.43978 5.386349,21.48743 -1.479408,7.04767 -1.732898,13.70296 2.407375,21.4339 4.140287,7.73094 13.563838,18.66399 21.506978,16.64567 7.943149,-2.0183 2.5448,-5.35927 4.6704,-10.63471 2.12559,-5.27544 7.621129,-8.45366 2.00693,-20.77958 -5.61418,-12.3259 -33.696545,-31.88502 -35.978032,-28.15271 z"
   id="path394"
   sodipodi:nodetypes="zzzzzzz" /><path
   style="fill:#ffc8c9;fill-opacity:1;stroke:none;stroke-width:1px;stroke-linecap:butt;stroke-linejoin:miter;stroke-opacity:1"
   d="m 113.47288,171.78335 c 10.5045,-55.7515 66.66745,-94.9234 137.869,-94.30001 71.20155,0.62338 110.5812,23.8062 142.04687,66.84558 31.46566,43.03938 78.8752,131.22297 31.63227,158.16142 -47.2429,26.93844 -86.56549,-2.69217 -120.56077,-7.16203 -33.99527,-4.46986 -37.08571,4.88873 -62.07089,2.98418 -24.98519,-1.90455 -19.16548,-6.41419 -35.81014,-7.75886 -16.64465,-1.34467 -25.94265,14.68179 -62.66773,4.17785 -36.72507,-10.50395 -40.94312,-67.19663 -30.43861,-122.94813 z"
   id="path396"
   sodipodi:nodetypes="zzzzzzzzz" /><path
   style="fill:#fdbcbe;fill-opacity:1;stroke:none;stroke-width:1px;stroke-linecap:butt;stroke-linejoin:miter;stroke-opacity:1"
   d="m 320.11241,87.84397 c 31.25241,10.77908 53.78304,29.82161 73.27634,56.48495 31.46566,43.03938 78.8752,131.22297 31.63227,158.16142 -47.2429,26.93844 -86.56549,-2.69217 -120.56077,-7.16203 223.85031,63.02387 125.81791,-132.64336 15.65216,-207.48434 z"
   id="path398"
   sodipodi:nodetypes="cszcc" /><path
   id="path568"
   style="fill:#ffffff;stroke-width:0.724436"
   d="m 149.87986,174.76394 c 0,4.53433 1.01405,8.83945 2.83466,12.71458 14.11279,10.60377 39.18288,9.14477 52.83485,7.56307 4.90971,-5.41319 7.88632,-12.50902 7.88632,-20.27765 0,-6.84098 -9.26547,-11.30075 -15.09903,-16.32601 -5.83354,-5.02527 -25.11942,-11.98927 -41.39197,-3.00862 -4.41826,5.28226 -7.06482,12.00935 -7.06483,19.33463 z"
   sodipodi:nodetypes="sccszcs" /><path
   id="path570"
   style="fill:#000000;stroke-width:0.836411"
   d="m 157.50456,173.14478 c 0,12.66386 10.81376,22.92994 24.15321,22.92994 13.33945,0 24.15321,-10.26608 24.15321,-22.92994 0,-9.54794 -6.14701,-17.73289 -14.88895,-21.18263 -2.85288,-1.12581 -5.98212,-1.74731 -9.26426,-1.74731 -3.33431,0 -6.51082,0.64142 -9.40009,1.80137 -8.66971,3.48063 -14.75312,11.63015 -14.75312,21.12857 z"
   sodipodi:nodetypes="sssssss" /><path
   id="path578"
   style="fill:#ffffff;stroke-width:2.79517"
   d="m 200.13297,164.87698 c 2.83372,5.61262 1.05246,15.13784 -4.3666,14.629 -4.16187,-0.39078 -2.43495,-4.73626 -5.26867,-10.34889 -2.83372,-5.6126 -9.3204,-3.02058 -6.44895,-10.7983 2.64974,-7.17722 13.25054,0.90554 16.08427,6.51817 z"
   sodipodi:nodetypes="ssssss" /><ellipse
   style="fill:#ffffff;stroke-width:3"
   id="ellipse580"
   cx="193.39522"
   cy="185.98563"
   rx="3.0828464"
   ry="3.3294742" /><path
   style="fill:none;stroke:#000000;stroke-width:4;stroke-linecap:round;stroke-linejoin:miter;stroke-dasharray:none;stroke-opacity:1"
   d="m 152.30602,187.37094 c 0,0 8.98899,6.92234 24.03413,8.39901 15.04514,1.47667 29.52371,-0.64133 29.52371,-0.64133"
   id="path1201"
   sodipodi:nodetypes="czc" /><path
   style="fill:none;stroke:#000000;stroke-width:4;stroke-linecap:round;stroke-linejoin:miter;stroke-dasharray:none;stroke-opacity:1"
   d="m 156.7816,154.84835 c 0,0 10.59424,-7.97522 29.00269,-3.47073 6.76225,1.6547 12.43822,6.91726 16.34718,10.45977 6.73215,6.10103 11.34089,11.21167 11.34089,11.21167"
   id="path1203"
   sodipodi:nodetypes="cssc" /><path
   id="path1205"
   style="fill:#ffffff;stroke-width:0.724436"
   d="m 344.98567,174.76394 c 0,4.53433 -1.01405,8.83945 -2.83466,12.71458 -3.38119,-0.31042 -7.9754,1.80241 -12.07132,3.10774 -13.85262,4.41471 -30.22698,5.67608 -40.76353,4.45533 -4.90971,-5.41319 -7.88632,-12.50902 -7.88632,-20.27765 0,-6.84098 5.10362,-14.57078 14.50448,-20.78516 9.40086,-6.21438 25.71398,-7.53012 41.98653,1.45053 4.41826,5.28226 7.06482,12.00935 7.06482,19.33463 z"
   sodipodi:nodetypes="scscszcs" /><path
   id="path1207"
   style="fill:#000000;stroke-width:0.836411"
   d="m 337.36097,173.14478 c 0,12.66386 -10.81376,22.92994 -24.15321,22.92994 -13.33945,0 -24.15321,-10.26608 -24.15321,-22.92994 0,-9.54794 6.14701,-17.73289 14.88895,-21.18263 2.85288,-1.12581 5.98212,-1.74731 9.26426,-1.74731 3.33431,0 6.51082,0.64142 9.40009,1.80137 8.66971,3.48063 14.75312,11.63015 14.75312,21.12857 z"
   sodipodi:nodetypes="sssssss" /><path
   style="fill:none;stroke:#000000;stroke-width:4;stroke-linecap:round;stroke-linejoin:miter;stroke-dasharray:none;stroke-opacity:1"
   d="m 342.55951,187.37094 c -6.52143,-1.22291 -9.59413,1.52959 -15.82605,3.55765 -4.28398,1.39413 -11.27513,5.04918 -17.95415,5.28854 -12.3034,0.42775 -19.77764,-1.08851 -19.77764,-1.08851"
   id="path1213"
   sodipodi:nodetypes="cscc" /><g
   id="g1219"
   transform="matrix(-1,0,0,1,619.45417,600.21506)"><path
     id="path1209"
     style="fill:#ffffff;stroke-width:2.79517"
     d="m 288.1397,-436.04191 c -2.83372,5.61262 -1.05246,15.13784 4.3666,14.629 4.16187,-0.39078 2.43495,-4.73626 5.26867,-10.34889 2.83372,-5.6126 9.3204,-3.02058 6.44895,-10.7983 -2.64974,-7.17722 -13.25054,0.90554 -16.08427,6.51817 z"
     sodipodi:nodetypes="ssssss" /><ellipse
     style="fill:#ffffff;stroke-width:3"
     id="ellipse1211"
     cx="-294.87744"
     cy="-414.93326"
     rx="3.0828464"
     ry="3.3294742"
     transform="scale(-1,1)" /></g><path
   style="fill:#4083b3;fill-opacity:1;stroke:none;stroke-width:1px;stroke-linecap:butt;stroke-linejoin:miter;stroke-opacity:1"
   d="m 119.18003,56.25437 c 7.9538,-39.90089 124.47354,-28.32597 140.6059,-29.38663 16.13238,-1.06067 100.60752,16.7791 120.51986,38.64202 45.4071,49.85515 51.33731,77.87114 55.77283,105.21208 0.68329,4.2119 2.78514,16.79208 0.57553,21.09709 -6.10329,11.89113 -18.64666,18.10204 -48.91935,0.44677 -17.03623,-9.93566 -19.90975,-26.47054 -35.88711,-34.24297 -24.38048,-11.86024 -65.59556,-22.59462 -82.38743,-26.35962 -21.95632,-4.92294 -40.80752,-9.43704 -54.47135,-13.5441 -10.47095,-3.14736 -20.7488,-1.45299 -31.01202,2.30521 -23.65597,8.66237 -58.32009,21.85213 -61.74042,13.19916 -1.68833,-4.27124 4.7914,-12.98781 5.82868,-15.04627 1.03923,-6.28466 0.97943,-21.56753 0.75891,-24.59815 -7.92885,-7.06634 -13.6677,-17.53955 -9.64403,-37.72459 z"
   id="path426"
   sodipodi:nodetypes="szsssssssssccs" /><path
   style="fill:#4794cc;fill-opacity:1;stroke:none;stroke-width:1px;stroke-linecap:butt;stroke-linejoin:miter;stroke-opacity:1"
   d="m 117.46914,63.52569 c 2.22508,-52.97089 93.88145,-41.94039 140.98377,-38.49087 47.10232,3.44952 100.35211,21.32969 113.09934,32.65314 12.74723,11.32345 71.13858,80.82801 56.43105,116.44749 -3.84402,9.30967 -23.29382,-0.80927 -43.51411,-19.07599 -41.14792,-3.36252 -87.52715,-12.39883 -115.99061,-19.30484 -16.39884,-3.9788 -88.60129,-19.95173 -112.14244,-25.47069 -30.35445,-7.11626 -40.02121,-19.28065 -38.867,-46.75824 z"
   id="path428"
   sodipodi:nodetypes="szzscsss" /><path
   style="fill:#4794cc;fill-opacity:1;stroke:none;stroke-opacity:1"
   d="m 381.05495,41.03726 c 3.20817,-0.74148 12.61631,5.56956 12.40402,8.98222 -0.21231,3.41266 -9.82245,11.87011 -11.28125,18.36543 -1.45879,6.49532 -8.3874,-6.9639 -8.30052,-7.21786 0.0869,-0.25396 3.96957,-19.38831 7.17775,-20.12979 z"
   id="path430"
   sodipodi:nodetypes="zzzzz" /><path
   style="fill:#4083b3;fill-opacity:1;stroke:none;stroke-opacity:1"
   d="m 387.81486,43.80987 c 1.12885,0.3927 5.8564,2.79695 5.6441,6.20961 -0.2123,3.41266 -9.82244,11.87011 -11.28124,18.36543 -0.76976,3.42736 -4.49043,-0.86175 -5.04386,-1.51405 -0.55343,-0.6523 6.70722,-7.63283 10.0083,-16.27264 1.04352,-3.84516 -0.22798,-7.10167 0.6727,-6.78835 z"
   id="path432"
   sodipodi:nodetypes="szszcs" /><path
   style="fill:#ffc8c9;fill-opacity:1;stroke:#d89497;stroke-width:4;stroke-linecap:round;stroke-linejoin:miter;stroke-dasharray:none;stroke-opacity:1"
   d="m 216.92336,148.82914 c 0,0 -23.82241,43.1116 -2.54242,65.63581 21.27999,22.52422 42.78773,-0.6882 42.78773,-0.6882"
   id="path434"
   sodipodi:nodetypes="czc" /><path
   style="fill:#b16165;fill-opacity:1;stroke:none;stroke-width:1px;stroke-linecap:butt;stroke-linejoin:miter;stroke-opacity:1"
   d="m 226.175,267.3501 c -4.14351,-2.65591 -13.2914,-13.17209 -13.20502,-16.11581 0.0864,-2.94372 11.66008,-12.46385 16.08416,-12.41585 4.42408,0.048 6.71825,4.79704 10.59506,4.79704 3.8768,0 6.17097,-4.74904 10.59505,-4.79704 4.42408,-0.048 25.00216,-1.48973 29.395,4.58595 4.39285,6.07568 -15.32543,20.11531 -19.46894,22.77122 -4.14351,2.65591 -20.52111,3.68246 -20.52111,3.68246 0,0 -9.33069,0.14794 -13.4742,-2.50797 z"
   id="path436"
   sodipodi:nodetypes="zzzzzzzcz" /><path
   style="fill:#ff9097;fill-opacity:1;stroke:none;stroke-width:1px;stroke-linecap:butt;stroke-linejoin:miter;stroke-opacity:1"
   d="m 390.50997,227.4856 c -2.67228,7.82683 9.52517,33.32544 11.32227,59.62189 1.7971,26.29644 51.03767,1.3637 56.42495,-13.33126 5.38727,-14.69495 -31.97043,-61.53595 -31.97043,-61.53595 0,0 -33.10449,7.41849 -35.77679,15.24532 z"
   id="path438"
   sodipodi:nodetypes="zzzcz" /><path
   style="fill:#ff8088;fill-opacity:1;stroke:none;stroke-width:1px;stroke-linecap:butt;stroke-linejoin:miter;stroke-opacity:1"
   d="m 427.86302,296.10948 c 13.46235,-4.65963 27.64368,-14.83074 30.39416,-22.33325 5.38728,-14.69495 -31.97043,-61.53595 -31.97043,-61.53595 25.27527,48.19441 52.57353,58.86932 1.57627,83.8692 z"
   id="path440"
   sodipodi:nodetypes="cscc" /><path
   id="path442"
   style="fill:#ffd59e;fill-opacity:1;stroke:none;stroke-width:1px;stroke-linecap:butt;stroke-linejoin:miter;stroke-opacity:1"
   d="m 448.08616,173.99924 c -5.23881,0.0269 -10.2627,0.41776 -14.82227,1.02343 -24.3177,3.23024 -55.77563,24.88481 -50.09961,44.69336 5.67602,19.80857 41.55603,2.80277 48.65821,19.82422 7.10216,17.02146 -23.18822,19.37283 -13.33594,38.20508 9.85228,18.83226 50.35067,8.00714 67.40039,-6.48828 17.04972,-14.49543 34.73487,-33.15713 21.98632,-64.87695 -10.3582,-25.77236 -37.08562,-32.49754 -59.7871,-32.38086 z m 1.20898,82.13476 a 12.432294,9.5410633 0 0 1 12.43164,9.54102 12.432294,9.5410633 0 0 1 -12.43164,9.54101 12.432294,9.5410633 0 0 1 -12.43359,-9.54101 12.432294,9.5410633 0 0 1 12.43359,-9.54102 z" /><path
   style="fill:#2ba9a8;fill-opacity:1;stroke:none;stroke-width:1.56243px;stroke-linecap:butt;stroke-linejoin:miter;stroke-opacity:1"
   d="m 469.19808,240.8363 c -5.38669,-1.00856 -14.24561,9.49125 -20.06401,7.72626 -5.8184,-1.76509 -7.60186,-7.16606 -11.06544,-12.01645 -3.46357,-4.85039 -10.42503,-9.86634 -9.36863,-16.97575 1.05645,-7.10941 12.90219,-3.17515 15.98038,-9.6766 3.07815,-6.50149 -3.97566,-20.55757 0.15062,-23.96867 4.12662,-3.41132 7.2104,5.51508 12.08166,6.73205 4.8713,1.21686 11.61552,-3.91367 16.49784,-0.77486 4.88232,3.13873 4.87462,10.96176 9.53798,16.09492 4.66337,5.13326 17.96487,2.89769 18.37971,12.62506 0.41482,9.72737 -17.54448,6.06031 -20.91091,12.12988 -3.36636,6.06952 1.80473,13.68648 -1.51819,15.62245 -3.32275,1.93618 -4.3144,-6.50973 -9.7011,-7.51825 z"
   id="path444"
   sodipodi:nodetypes="zzzzzzzzzzzzz" /><path
   id="path446"
   style="fill:#f0c48a;fill-opacity:1;stroke:none;stroke-width:1px;stroke-linecap:butt;stroke-linejoin:miter;stroke-opacity:1"
   d="m 448.08616,173.99924 c 93.40218,12.7011 66.35958,103.53909 -12.62782,113.55216 16.28016,1.76521 38.80428,-6.41153 50.4286,-16.29435 17.04972,-14.49542 34.73487,-33.15713 21.98632,-64.87695 -10.3582,-25.77236 -37.08562,-32.49754 -59.7871,-32.38086 z"
   sodipodi:nodetypes="ccssc" /><path
   style="fill:#b72caf;fill-opacity:1;stroke:none;stroke-width:0.729398px;stroke-linecap:butt;stroke-linejoin:miter;stroke-opacity:1"
   d="m 482.00842,254.57854 c -4.71099,1.11478 -6.0071,-7.20818 -10.63775,-6.50138 -4.63067,0.70677 -1.72139,7.53347 -6.22609,7.3241 -4.50468,-0.20938 -0.73993,-6.86632 -2.03194,-9.56866 -1.29201,-2.70234 -6.62719,-4.21761 -5.1544,-6.58282 1.47276,-2.36523 7.26191,-2.73533 10.08245,-3.0632 2.82049,-0.32788 3.27588,1.15982 6.12291,0.40332 2.84701,-0.75651 4.00053,-5.77062 8.14483,-5.86986 4.14429,-0.0992 4.83917,4.92925 7.68443,6.49322 2.84529,1.56396 8.85901,0.29052 8.69069,3.01852 -0.16828,2.728 -10.07254,3.13905 -12.99799,5.75985 -2.92546,2.62077 1.03379,7.47212 -3.67714,8.58691 z"
   id="path448"
   sodipodi:nodetypes="zzzzzzzzzzzz" /><path
   style="fill:#71c6d7;fill-opacity:1;stroke:none;stroke-width:0.503978px;stroke-linecap:butt;stroke-linejoin:miter;stroke-opacity:1"
   d="m 492.55572,225.62276 c 0.84811,1.89535 10.97617,2.27202 12.57546,4.47954 1.59924,2.20756 -4.52629,3.50805 -3.43494,5.25292 0.5103,0.81588 1.95632,1.20308 3.43319,1.54762 1.68163,0.3923 1.43713,1.96881 1.86296,2.82034 0.79982,1.59938 0.87545,4.01113 -2.29989,4.07293 -0.74788,0.0146 -1.10875,-1.50924 -1.6657,-1.88519 -1.80772,-1.22023 -2.97938,-3.85649 -5.91475,-3.74821 -3.83975,0.14164 -1.67814,6.29416 -5.12714,6.15554 -3.44898,-0.1386 -3.3856,-4.83414 -4.0931,-3.73237 -0.7075,1.10177 -3.02486,4.22932 -4.01966,4.71972 -0.9948,0.4904 -12.1286,-6.94556 -13.47913,-10.19492 -1.35056,-3.24939 2.96869,-4.70626 3.16784,-7.24334 0.19924,-2.53708 -3.70953,-5.90012 -1.96053,-7.7272 1.74904,-1.82705 8.60514,-0.88778 8.82026,-2.0891 0.21508,-1.20132 -4.05464,-5.54481 -0.30878,-5.87171 3.74581,-0.3269 4.51081,4.50984 7.31417,6.32019 2.80332,1.81036 8.64728,2.81322 9.11898,4.47214 0.47171,1.65891 -4.83744,0.75577 -3.98932,2.65112 z"
   id="path450"
   sodipodi:nodetypes="zzscsscszzzzzzzzzzzz" /><path
   style="fill:#ff9097;fill-opacity:1;stroke:none;stroke-width:1px;stroke-linecap:butt;stroke-linejoin:miter;stroke-opacity:1"
   d="m 443.48027,257.40813 c 0,0 -7.41465,2.93216 -8.68215,9.52809 -1.2675,6.59593 -3.01796,15.36144 3.21426,14.82426 6.23222,-0.53718 9.00296,-5.58599 9.87258,-9.79231 0.86962,-4.20632 4.73426,-8.1063 4.73426,-8.1063 z"
   id="path452"
   sodipodi:nodetypes="czzzcc" /><path
   style="fill:none;stroke:#000000;stroke-width:8;stroke-linecap:round;stroke-linejoin:miter;stroke-dasharray:none;stroke-opacity:1"
   d="m 246.99328,232.6981 c 0,0 6.66374,-6.7522 13.50051,-7.96307 6.83676,-1.21088 18.0053,6.15143 25.55428,4.71144 7.54897,-1.43999 17.0858,-3.04836 17.05898,-10.67846 -0.0268,-7.6301 -10.38369,-6.45598 -10.38369,-6.45598"
   id="path454"
   sodipodi:nodetypes="czzzc" /><path
   style="fill:none;stroke:#000000;stroke-width:7.39057;stroke-linecap:round;stroke-linejoin:miter;stroke-dasharray:none;stroke-opacity:1"
   d="m 234.4236,235.19746 c 0,0 -6.16648,-6.03093 -11.87118,-6.33796 -5.7047,-0.30703 -14.0078,8.79951 -20.31799,8.35457 -6.31018,-0.44494 -14.25908,-0.79018 -15.06726,-8.64266 -0.80818,-7.85247 7.76192,-8.06649 7.76192,-8.06649"
   id="path456"
   sodipodi:nodetypes="czzzc" /><path
   style="fill:#ff8088;fill-opacity:1;stroke:none;stroke-width:1px;stroke-linecap:butt;stroke-linejoin:miter;stroke-opacity:1"
   d="m 438.01238,281.76048 c 6.23221,-0.53718 9.00295,-5.58599 9.87258,-9.79231 0.86962,-4.20632 4.73426,-8.1063 4.73426,-8.1063 -7.75468,2.44815 -5.39961,14.38045 -14.60684,17.89861 z"
   id="path458"
   sodipodi:nodetypes="czcc" /><path
   style="fill:none;stroke:#000000;stroke-width:4;stroke-linecap:round;stroke-linejoin:miter;stroke-dasharray:none;stroke-opacity:1"
   d="m 281.22375,169.74499 c 0,0 4.09708,-13.53611 23.81643,-18.58981 19.71936,-5.0537 33.85525,4.32053 33.85525,4.32053"
   id="path1610"
   sodipodi:nodetypes="czc" /></svg>
