<?xml version="1.0" encoding="UTF-8" standalone="no"?>
<!-- Created with Inkscape (http://www.inkscape.org/) -->

<svg
   version="1.1"
   id="svg2"
   xml:space="preserve"
   width="549.98669"
   height="349.46667"
   viewBox="0 0 549.98669 349.46667"
   sodipodi:docname="Blobviking.svg"
   inkscape:version="1.2 (dc2aeda, 2022-05-15)"
   xmlns:inkscape="http://www.inkscape.org/namespaces/inkscape"
   xmlns:sodipodi="http://sodipodi.sourceforge.net/DTD/sodipodi-0.dtd"
   xmlns="http://www.w3.org/2000/svg"
   xmlns:svg="http://www.w3.org/2000/svg"
   xmlns:rdf="http://www.w3.org/1999/02/22-rdf-syntax-ns#"
   xmlns:cc="http://creativecommons.org/ns#"
   xmlns:dc="http://purl.org/dc/elements/1.1/"><metadata
     id="metadata8"><rdf:RDF><cc:Work
         rdf:about=""><dc:format>image/svg+xml</dc:format><dc:type
           rdf:resource="http://purl.org/dc/dcmitype/StillImage" /></cc:Work></rdf:RDF></metadata><defs
     id="defs6" /><sodipodi:namedview
     pagecolor="#ffffff"
     bordercolor="#666666"
     borderopacity="1"
     objecttolerance="10"
     gridtolerance="10"
     guidetolerance="10"
     inkscape:pageopacity="0"
     inkscape:pageshadow="2"
     inkscape:window-width="1697"
     inkscape:window-height="821"
     id="namedview4"
     showgrid="false"
     inkscape:zoom="0.46416247"
     inkscape:cx="171.27623"
     inkscape:cy="80.790676"
     inkscape:window-x="1633"
     inkscape:window-y="116"
     inkscape:window-maximized="0"
     inkscape:current-layer="g10"
     inkscape:showpageshadow="0"
     inkscape:pagecheckerboard="0"
     inkscape:deskcolor="#d1d1d1" /><g
     id="g10"
     inkscape:groupmode="layer"
     inkscape:label="ink_ext_XXXXXX"
     transform="matrix(1.3333333,0,0,-1.3333333,0,349.46667)"><g
       id="g1380"
       transform="translate(-1.83998)"><path
         style="clip-rule:evenodd;fill:#b0f2ff;fill-opacity:1;fill-rule:evenodd;stroke-width:0.75;stroke-linecap:round;stroke-linejoin:round"
         inkscape:connector-curvature="0"
         id="path975"
         d="m 45.619698,76.514242 c 0,90.796488 73.605512,164.402018 164.402012,164.402018 90.79658,0 164.40158,-73.60553 164.40158,-164.402018 0,-14.718 -1.93425,-28.984501 -5.562,-42.558751 -21.6165,-3.41475 -303.044391,-3.41475 -317.825841,0.5505 -3.533625,13.40925 -5.415751,27.489001 -5.415751,42.008251 z" /><path
         d="m 411.657,34.65449 c 0,-19.13925 -91.14226,-34.6545 -203.57176,-34.6545 -112.43025,0 -203.57225,15.51525 -203.57225,34.6545 0,19.1385 91.142,34.65375 203.57225,34.65375 112.4295,0 203.57176,-15.51525 203.57176,-34.65375"
         id="path1213"
         inkscape:connector-curvature="0"
         style="clip-rule:evenodd;fill:#1e1f1b;fill-rule:evenodd;stroke-width:0.75;stroke-linecap:round;stroke-linejoin:round" /><g
         id="g985"
         transform="matrix(0.75000002,0,0,-0.75000002,1.1476572e-4,259.20974)"
         style="clip-rule:evenodd;fill-rule:evenodd;stroke-linecap:round;stroke-linejoin:round"><path
           id="path979"
           style="fill:#97da12;fill-opacity:1;stroke-width:2.0366"
           d="m 155.07767,52.68763 c 4.9342,0 8.90649,4.03517 8.90649,9.04747 0,0 0,10.85685 0,21.0883 0,10.23143 9.71781,26.86689 9.71781,40.30034 0,13.43345 -17.96394,26.86687 -17.96394,40.30037 0,13.4334 19.04522,26.8669 19.04522,40.3003 0,13.4335 -10.79908,27.888 -10.79908,40.3004 0,12.4123 0,34.1738 0,34.1738 0,5.0123 -3.97229,9.0475 -8.90649,9.0475 -4.93418,0 -8.90649,-4.0352 -8.90649,-9.0475 0,0 0,-21.7615 0,-34.1738 0,-12.4124 10.79909,-26.8669 10.79909,-40.3004 0,-13.4334 -19.04521,-26.8669 -19.04521,-40.3003 0,-13.4335 17.96394,-26.86692 17.96394,-40.30037 0,-13.43345 -9.71781,-30.06891 -9.71781,-40.30034 0,-10.23145 0,-21.0883 0,-21.0883 0,-5.0123 3.9723,-9.04747 8.90647,-9.04747 z"
           sodipodi:nodetypes="sszzzzzssszzzzzss" /><path
           id="path981"
           style="fill:#b6ee47;fill-opacity:1;stroke-width:2.0366"
           d="m 138.12252,34.07106 c 4.9342,0 8.9065,4.03517 8.9065,9.04747 0,0 0,26.37067 0,39.70487 0,13.3342 9.7178,26.86689 9.7178,40.30034 0,13.43345 -17.96394,26.86687 -17.96394,40.30037 0,13.4334 19.04521,26.8669 19.04521,40.3003 0,13.4335 -10.79908,27.888 -10.79908,40.3004 0,12.4123 0,34.1738 0,34.1738 0,5.0123 -3.97229,9.0475 -8.90649,9.0475 -4.93418,0 -8.90646,-4.0352 -8.90646,-9.0475 0,0 0,-21.7615 0,-34.1738 0,-12.4124 10.79907,-26.8669 10.79907,-40.3004 0,-13.4334 -19.04521,-26.8669 -19.04521,-40.3003 0,-13.4335 17.96393,-26.86692 17.96393,-40.30037 0,-13.43345 -9.71779,-26.96614 -9.71779,-40.30034 0,-13.3342 0,-39.70487 0,-39.70487 0,-5.0123 3.97228,-9.04747 8.90646,-9.04747 z"
           sodipodi:nodetypes="sszzzzzssszzzzzss" /><path
           id="path983"
           style="fill:#a6e22e;fill-opacity:1;stroke-width:2.0366"
           d="m 121.35619,66.49096 c 4.93419,0 8.90648,4.03517 8.90648,9.04747 0,0 0,-0.64592 0,7.28497 0,7.93088 9.71782,26.86689 9.71782,40.30034 0,13.43345 -17.96395,26.86687 -17.96395,40.30037 0,13.4334 19.04521,26.8669 19.04521,40.3003 0,13.4335 -10.79908,27.888 -10.79908,40.3004 0,12.4123 0,34.1738 0,34.1738 0,5.0123 -3.97229,9.0475 -8.90648,9.0475 -4.93419,0 -8.90648,-4.0352 -8.90648,-9.0475 0,0 0,-21.7615 0,-34.1738 0,-12.4124 10.79908,-26.8669 10.79908,-40.3004 0,-13.4334 -19.04521,-26.8669 -19.04521,-40.3003 0,-13.4335 17.96394,-26.86692 17.96394,-40.30037 0,-13.43345 -9.71781,-32.36946 -9.71781,-40.30034 0,-7.93089 0,-7.28497 0,-7.28497 0,-5.0123 3.97229,-9.04747 8.90648,-9.04747 z"
           sodipodi:nodetypes="sszzzzzssszzzzzss" /></g><g
         id="g993"
         transform="matrix(0.75000002,0,0,-0.75000002,1.1476572e-4,259.20974)"
         style="clip-rule:evenodd;fill-rule:evenodd;stroke-linecap:round;stroke-linejoin:round"><path
           id="path987"
           style="fill:#97da12;fill-opacity:1;stroke-width:1.83294"
           d="m 232.70847,73.040388 c 4.34916,0.871676 7.04788,5.120716 6.05094,9.527006 0,0 -2.15941,9.544194 -4.19443,18.538606 -2.03501,8.99441 3.22182,25.3353 0.54994,37.14458 -2.67189,11.80928 -21.17779,20.4451 -23.84967,32.2543 -2.67189,11.80931 11.44329,26.98307 8.77141,38.79237 -2.6719,11.80931 -15.06553,22.60848 -17.53433,33.52009 -2.46879,10.91162 -6.79711,30.04209 -6.79711,30.04209 -0.99694,4.40623 -5.30083,7.25183 -9.64999,6.38015 -4.34915,-0.87169 -7.04786,-5.12076 -6.05094,-9.52699 0,0 4.32832,-19.13046 6.79712,-30.04208 2.46879,-10.91161 14.86244,-21.71078 17.53432,-33.52009 2.6719,-11.8093 -11.4433,-26.98307 -8.7714,-38.79237 2.67188,-11.8092 21.17777,-20.44502 23.84966,-32.2543 2.67188,-11.80929 -2.58495,-28.15017 -0.54993,-37.144578 2.03501,-8.994416 4.19442,-18.53861 4.19442,-18.53861 0.99694,-4.4063 5.30084,-7.251849 9.64999,-6.380174 z"
           sodipodi:nodetypes="sszzzzzssszzzzzss" /><path
           id="path989"
           style="fill:#b6ee47;fill-opacity:1;stroke-width:1.83294"
           d="m 221.46645,53.679366 c 4.34916,0.871666 7.04788,5.120706 6.05095,9.526996 0,0 -5.24508,23.182325 -7.89722,34.904345 -2.65216,11.722033 3.22181,25.335303 0.54992,37.144573 -2.67189,11.80932 -21.17778,20.44503 -23.84966,32.25434 -2.6719,11.8093 11.44329,26.98306 8.7714,38.79237 -2.6719,11.8093 -15.06552,22.60837 -17.53433,33.52009 -2.46879,10.91161 -6.7971,30.04198 -6.7971,30.04198 -0.99694,4.40633 -5.30083,7.25184 -9.64999,6.38015 -4.34916,-0.87158 -7.04787,-5.12065 -6.05093,-9.52698 0,0 4.32831,-19.13037 6.7971,-30.04199 2.4688,-10.91171 14.86244,-21.71078 17.53432,-33.52009 2.6719,-11.8093 -11.44329,-26.98306 -8.7714,-38.79237 2.67189,-11.8093 21.17777,-20.44502 23.84967,-32.25433 2.67188,-11.80928 -3.20209,-25.42255 -0.54993,-37.144575 2.65214,-11.72203 7.89722,-34.904346 7.89722,-34.904346 0.99693,-4.40629 5.30083,-7.251838 9.64998,-6.380163 z"
           sodipodi:nodetypes="sszzzzzssszzzzzss" /><path
           id="path991"
           style="fill:#a6e22e;fill-opacity:1;stroke-width:1.83294"
           d="m 200.2398,79.217597 c 4.34916,0.871677 7.04788,5.120706 6.05094,9.527006 0,0 0.12846,-0.567833 -1.44896,6.404165 -1.57745,6.972002 3.2218,25.335302 0.54992,37.144572 -2.67189,11.80927 -21.17778,20.44508 -23.84967,32.25439 -2.67188,11.8092 11.4433,26.98306 8.77141,38.79227 -2.67188,11.8093 -15.06553,22.60847 -17.53431,33.52009 -2.46881,10.91171 -6.79712,30.04208 -6.79712,30.04208 -0.99693,4.40623 -5.30083,7.25184 -9.64999,6.38015 -4.34915,-0.87168 -7.04787,-5.12075 -6.05094,-9.52698 0,0 4.32831,-19.13037 6.79712,-30.04208 2.46879,-10.91162 14.86243,-21.71079 17.53432,-33.5201 2.67188,-11.8092 -11.44329,-26.98306 -8.77142,-38.79227 2.6719,-11.8093 21.17779,-20.44512 23.84967,-32.25438 2.6719,-11.80927 -2.12736,-30.172568 -0.54992,-37.144575 1.57743,-6.971996 1.44896,-6.404174 1.44896,-6.404174 0.99694,-4.40629 5.30084,-7.251839 9.64999,-6.380164 z"
           sodipodi:nodetypes="sszzzzzssszzzzzss" /></g><g
         id="g1001"
         transform="matrix(0.6937345,0,0,-0.6937345,7.1762208,243.47264)"
         style="clip-rule:evenodd;fill-rule:evenodd;stroke-linecap:round;stroke-linejoin:round"><path
           id="path995"
           style="fill:#97da12;fill-opacity:1;stroke-width:1.83294"
           d="m 74.62883,67.380015 c 4.34915,-0.871675 8.653049,1.973884 9.649993,6.380173 0,0 2.1594,9.544195 4.19442,18.53861 2.03501,8.994402 13.909357,21.901802 16.581247,33.711082 2.67188,11.80925 -10.490221,26.79204 -7.818335,38.60135 2.671895,11.8093 22.130845,20.25405 24.802735,32.06335 2.67188,11.80921 -3.9718,26.42392 -1.503,37.33554 2.4688,10.91171 6.79711,30.04208 6.79711,30.04208 0.99694,4.40623 -1.70179,8.6553 -6.05094,9.52699 -4.34915,0.87168 -8.65305,-1.97393 -9.64998,-6.38016 0,0 -4.32832,-19.13036 -6.79712,-30.04208 -2.46878,-10.91162 4.17489,-25.52633 1.503,-37.33553 -2.67188,-11.80931 -22.130838,-20.25405 -24.802729,-32.06336 -2.671891,-11.8093 10.490226,-26.7921 7.818336,-38.60135 C 86.681675,117.34744 74.807329,104.44004 72.772314,95.445631 70.7373,86.451225 68.577894,76.90702 68.577894,76.90702 67.580956,72.500731 70.279677,68.251691 74.62883,67.380015 Z"
           sodipodi:nodetypes="sszzzzzssszzzzzss" /><path
           id="path997"
           style="fill:#b6ee47;fill-opacity:1;stroke-width:1.83294"
           d="m 55.981209,54.009578 c 4.349159,-0.871676 8.653054,1.973873 9.649992,6.380162 0,0 5.245076,23.182326 7.897223,34.904345 2.652147,11.722035 13.909362,21.901805 16.581255,33.711095 2.671887,11.80932 -10.490222,26.79211 -7.818343,38.60132 2.671895,11.8093 22.130854,20.25405 24.802734,32.06335 2.6719,11.8093 -3.9718,26.42392 -1.503,37.33554 2.4688,10.91171 6.79711,30.04208 6.79711,30.04208 0.99695,4.40633 -1.70179,8.6553 -6.05093,9.52698 -4.34915,0.87169 -8.653048,-1.97382 -9.649986,-6.38015 0,0 -4.328319,-19.13037 -6.797118,-30.04208 -2.468791,-10.91162 4.174893,-25.52623 1.502997,-37.33554 -2.671885,-11.8093 -22.13084,-20.25405 -24.802731,-32.06335 -2.67188,-11.80921 10.490233,-26.792 7.818339,-38.60132 C 71.736864,120.34273 60.479646,110.16296 57.827499,98.440928 55.175352,86.718898 49.930278,63.536582 49.930278,63.536582 c -0.996939,-4.406299 1.701783,-8.655329 6.050931,-9.527004 z"
           sodipodi:nodetypes="sszzzzzssszzzzzss" /><path
           id="path999"
           style="fill:#a6e22e;fill-opacity:1;stroke-width:1.83294"
           d="m 47.651068,85.471688 c 4.349158,-0.871676 8.653054,1.973872 9.649992,6.380172 0,0 -0.128468,-0.567832 1.448965,6.404165 1.577438,6.972005 13.909364,21.901805 16.581252,33.711085 2.671888,11.80928 -10.490224,26.79207 -7.818333,38.60138 2.671879,11.8092 22.130846,20.25405 24.802721,32.06325 2.671896,11.8093 -3.971779,26.42402 -1.502987,37.33563 2.468789,10.91162 6.797108,30.04199 6.797108,30.04199 0.996938,4.40633 -1.701777,8.6554 -6.050938,9.52708 -4.349148,0.87169 -8.653051,-1.97392 -9.649981,-6.38015 0,0 -4.328321,-19.13047 -6.797114,-30.04208 -2.468792,-10.91162 4.174882,-25.52633 1.502991,-37.33564 -2.67188,-11.8092 -22.130835,-20.25395 -24.802725,-32.06325 -2.67189,-11.80931 10.490221,-26.7921 7.818334,-38.60137 -2.671888,-11.80928 -15.003815,-26.73909 -16.581253,-33.71108 -1.577438,-6.972009 -1.448965,-6.404178 -1.448965,-6.404178 -0.996937,-4.40629 1.701784,-8.65533 6.050933,-9.527004 z"
           sodipodi:nodetypes="sszzzzzssszzzzzss" /></g><path
         style="color:#000000;clip-rule:nonzero;fill:#ffb763;fill-opacity:1;fill-rule:nonzero;stroke-width:0.693262;stroke-linecap:round;stroke-linejoin:miter;-inkscape-stroke:none"
         d="m 290.59201,213.80768 c -3.21513,0.12378 -5.93081,-2.1712 -6.06596,-5.12627 -0.31296,-6.84281 -1.12011,-9.8496 -2.42079,-12.18154 -0.45549,-0.81664 -1.24174,-1.72895 -1.98995,-2.63777 -1.15988,2.60409 -2.73628,4.95159 -4.20877,7.10329 -2.76073,4.03415 -5.53642,7.13057 -5.53642,7.13057 -2.04245,2.28591 -5.71438,2.61719 -8.20148,0.73992 -2.48709,-1.87728 -2.8475,-5.25222 -0.80505,-7.53817 0,0 2.35788,-2.64635 4.67772,-6.03624 2.31976,-3.38989 4.0828,-7.8503 4.05909,-8.6195 v 0.0286 c -0.22786,-6.20345 2.11533,-11.93308 4.13392,-17.657 2.01852,-5.72392 3.82871,-11.36649 3.83167,-16.44327 0,-5.97375 -3.45434,-12.44082 -6.14087,-16.69509 -1.72718,2.43015 -2.98605,4.49227 -3.28232,5.98044 -2.52499,12.68483 -1.37833,8.44125 -2.14954,18.04643 -0.32592,4.05828 -2.67417,7.27191 -5.27798,9.67487 -2.60374,2.40297 -5.62261,4.20023 -8.50931,5.6546 -5.77346,2.90875 -11.303,4.44996 -11.303,4.44996 -3.07644,0.86995 -6.33757,-0.71739 -7.28349,-3.54517 -0.94554,-2.8272 0.78126,-5.82368 3.85713,-6.69309 0,0 4.59231,-1.31972 9.12801,-3.60488 2.26785,-1.14258 4.45008,-2.5259 5.85271,-3.82036 1.40264,-1.29446 1.86492,-2.29628 1.91373,-2.90389 0.567,-7.06111 0.5179,-8.62258 1.4957,-14.32603 -5.73274,2.99238 -11.97146,6.97173 -20.5807,14.5506 -2.32418,2.04543 -6.01223,1.97221 -8.23814,-0.16356 -2.22678,-2.136 -2.14773,-5.52682 0.17652,-7.57322 15.07689,-13.27249 25.27237,-17.54008 34.44702,-21.59809 0.3202,-0.43584 0.62058,-0.93628 0.93499,-1.35913 2.35361,-3.1655 4.54481,-6.06654 5.78069,-9.08552 1.23596,-3.01896 1.7245,-6.10134 0.47314,-10.55627 -0.69976,-2.49139 -2.10854,-5.47727 -4.29916,-8.89729 -1.95951,5.05031 -4.44126,10.27017 -7.15773,15.2788 -4.88394,9.00507 -9.84223,16.73039 -14.63471,21.06197 -2.29474,2.07423 -5.98453,2.04574 -8.24103,-0.0636 -2.25664,-2.10921 -2.22562,-5.50055 0.0695,-7.57452 1.25794,-1.13698 3.72313,-4.36995 6.44032,-8.44169 -3.33958,0.80966 -6.83348,1.5284 -10.61662,2.0407 -3.18404,0.43171 -6.14601,-1.59087 -6.61539,-4.51745 -0.46974,-2.92699 1.73165,-5.6496 4.91635,-6.08043 8.34342,-1.12981 15.29911,-3.1751 20.4112,-5.45726 3.59152,-7.224795 6.525,-14.640945 7.33424,-19.421145 2.02466,-11.9592 -1.66795,-34.714291 -1.66795,-34.714291 -0.51601,-2.919218 1.64011,-5.670345 4.81613,-6.145298 3.17658,-0.475012 6.17073,1.506863 6.6874,4.426613 0,0 0.35108,2.0403 0.78386,4.95234 0.74034,0.284663 2.72898,1.084088 6.41343,2.083433 4.2954,1.16511 9.69789,2.038245 12.74497,1.70187 8.50953,-0.939533 15.60131,-3.24741 21.98876,-6.577575 4.55349,-2.374013 13.53485,-5.684236 22.07779,-8.806433 8.54293,-3.122198 16.19252,-5.780543 16.19252,-5.780543 3.01049,-1.046535 6.37394,0.348338 7.5122,3.115485 1.1387,2.767013 -0.37899,5.858505 -3.38962,6.90471 0,0 -7.01173,2.463338 -14.34228,5.119756 5.15439,1.326885 10.06474,1.82343 14.74057,0.877522 3.14304,-0.635527 6.25159,1.191165 6.9431,4.080008 0.69153,2.888437 -1.2951,5.745382 -4.43756,6.38157 -11.18203,2.262022 -21.92563,-0.691823 -28.04077,-2.790278 -6.11505,-2.098455 -7.00305,-1.693162 -8.17176,-1.192357 1.53584,1.439737 1.8167,1.801627 4.28934,3.928065 3.65232,3.141075 8.07442,6.597585 11.90182,9.073883 0.97007,-0.640373 1.97889,-1.19634 3.00123,-1.556445 3.10219,-1.092796 6.32383,-1.305608 9.58416,-1.129351 6.52058,0.352463 13.24972,2.241158 18.42682,5.889548 2.55435,1.799768 3.03746,5.162033 1.07904,7.509593 -1.95814,2.347762 -5.61633,2.791807 -8.17046,0.99177 -2.44812,-1.725263 -7.72176,-3.430388 -11.89611,-3.682748 7.2957,6.967118 9.91744,15.393113 9.91744,15.393113 0.9854,2.815665 -0.69904,5.832515 -3.76246,6.738485 -3.06393,0.90656 -6.34719,-0.64184 -7.33287,-3.45817 0,0 -4.51797,-11.090988 -12.45262,-14.984163 -3.88185,-1.904655 -7.70752,-4.60068 -11.38067,-7.429177 -0.22446,1.58097 -0.43482,3.130237 -0.40257,4.433122 0.0808,3.261173 0.7749,5.55291 3.4772,8.366378 2.12944,2.217233 1.90057,5.601158 -0.51125,7.558913 -2.41254,1.958087 -6.09532,1.747732 -8.22548,-0.469898 -4.47359,-4.657507 -6.26678,-10.142948 -6.39224,-15.211335 -0.1149,-4.639695 0.86731,-8.988278 1.7668,-13.334266 -1.75653,-1.617997 -3.50988,-3.179692 -4.11694,-3.771082 -4.09198,1.547272 -8.46194,2.768407 -13.13625,3.608775 0.17282,2.39967 0.4761,5.48697 1.13414,8.91291 1.3852,7.212038 4.5709,15.032881 8.6266,18.103501 11.39499,8.627512 15.80479,7.660932 29.83287,10.387602 h 0.009 c 0.0557,0.0106 0.0869,0.014 0.1426,0.0246 5.08374,0.99371 18.27402,0.73077 29.34144,-0.0818 11.06742,-0.81258 20.46906,-1.95496 20.46906,-1.95496 3.19018,-0.38768 6.11838,1.67488 6.54061,4.60699 0.42259,2.93271 -1.82168,5.62489 -5.01245,6.0129 0,0 -5.54466,0.60183 -12.42579,1.2436 0.5902,0.5135 1.31716,1.11314 1.86998,1.57333 3.51364,2.92498 5.75784,4.31347 8.60541,4.25911 3.21752,-0.0618 5.88027,2.28576 5.94737,5.2431 0.0673,2.95733 -2.48688,5.40471 -5.70447,5.46637 -7.30459,0.13952 -12.65242,-3.6826 -16.67268,-7.02931 -4.02025,-3.34671 -7.35058,-6.44478 -10.89885,-7.28961 -3.54821,-0.84473 -6.64938,-0.60872 -9.65358,-0.57828 2.49614,2.27995 5.31276,4.67201 8.75937,7.06436 11.47952,7.96827 21.582,12.59174 21.582,12.59174 2.88142,1.31768 4.05504,4.53286 2.62131,7.18119 -1.43307,2.64815 -4.9303,3.72735 -7.81171,2.41061 0,0 -11.03416,-5.04138 -23.41519,-13.63544 -9.45905,-6.56573 -15.95194,-13.72338 -18.68533,-16.98972 -6.67288,-1.22578 -12.36579,-2.0502 -18.14156,-4.09821 1.81814,3.76264 3.77324,7.31177 5.00536,8.51564 2.03081,1.98422 4.15086,2.57762 7.99243,3.76845 3.84165,1.19084 9.13372,3.02877 13.88903,7.63035 2.8271,2.73579 5.64307,6.60509 8.39209,10.76269 7.64258,4.63751 12.03834,7.63477 17.77015,8.24565 3.19691,0.34088 5.48783,2.99925 5.11687,5.93759 -0.37089,2.93778 -3.26221,5.04324 -6.45862,4.70308 -2.08092,-0.22177 -3.98698,-0.64409 -5.80759,-1.17739 1.07449,1.94837 3.38681,5.97783 3.38681,5.97783 1.41493,2.65727 0.21787,5.86567 -2.67352,7.16562 -2.89111,1.30051 -6.38189,0.20024 -7.79617,-2.45735 0,0 -3.35556,-6.30377 -7.65914,-13.51989 -4.3035,-7.21612 -9.94448,-15.5739 -12.72097,-18.26063 -3.00615,-2.90898 -5.55124,-3.7379 -9.16323,-4.85756 -1.05604,-0.32734 -2.36915,-0.83865 -3.60149,-1.26956 -0.26734,4.35485 -0.0202,9.59365 0.59173,11.37022 2.11462,6.13802 5.3774,11.43706 9.9528,15.21005 4.69391,3.87073 19.11046,13.06556 19.11046,13.06556 2.65485,1.67218 3.33213,5.00595 1.51262,7.446 -1.81981,2.43975 -5.44683,3.06163 -8.10125,1.38899 0,0 -13.88209,-8.63189 -20.30382,-13.92751 -6.54041,-5.39335 -10.71143,-12.48883 -13.28169,-19.94948 -1.72045,-4.99315 -1.43496,-10.58681 -1.11288,-15.47357 0.23718,-3.59916 0.50611,-5.14769 0.70331,-6.53862 -3.43533,-4.20263 -5.72935,-9.43389 -7.66196,-14.21829 -1.73701,-4.30012 -2.75032,-7.41402 -3.23712,-8.95311 -7.09207,-6.268452 -9.75799,-15.485503 -11.24646,-23.235028 -0.72796,-3.790087 -1.08295,-7.223002 -1.28238,-9.93186 -4.00768,-0.31923 -7.85467,-1.173683 -11.15614,-2.06922 -0.7446,-0.201983 -1.1857,-0.375518 -1.86847,-0.578963 0.47653,6.122768 0.673,12.831008 -0.0819,18.977168 6.38898,7.538176 10.21023,14.122603 11.89474,20.119543 1.82305,6.49044 1.07274,12.30938 -0.85025,17.00664 -0.32056,0.783 -0.6981,1.49531 -1.06486,2.22108 1.79189,2.07174 10.99828,13.3059 10.99083,27.02292 0,5.25606 -1.29858,10.03813 -2.74987,14.5584 5.75617,-0.48408 15.43231,-0.6992 24.60023,2.51965 6.51791,2.28839 13.42176,6.05014 19.52141,10.17984 6.09958,4.1297 11.28436,8.38075 14.3861,12.87214 1.72522,2.4974 0.9209,5.80742 -1.79652,7.39278 -2.71712,1.58567 -6.3184,0.84638 -8.04325,-1.65121 -1.4858,-2.15141 -6.0591,-6.33351 -11.45834,-9.98901 -0.50155,-0.33958 -1.06732,-0.61524 -1.58327,-0.94893 -0.0846,0.49936 -0.23914,1.0929 -0.26271,1.53698 -0.11194,2.11026 0.0962,3.72787 2.43489,6.6866 1.89146,2.39313 1.31419,5.74247 -1.28947,7.48106 -2.60366,1.73849 -6.24776,1.20786 -8.13929,-1.18519 -3.69051,-4.66886 -4.85691,-9.54132 -4.64662,-13.50432 0.14911,-2.81021 0.67322,-4.97947 1.10724,-6.8995 -1.48153,-0.67298 -3.04904,-1.4939 -4.38811,-1.96405 -9.26395,-3.25255 -23.91978,-1.13671 -23.91978,-1.13671 -0.27298,0.29511 -0.57328,1.09137 1.51602,3.62466 2.08924,2.53327 5.1356,5.28546 7.46679,9.46513 2.3312,4.17966 3.34985,9.10887 3.69326,16.6185 0.13472,2.95511 -2.36221,5.45118 -5.57735,5.57541 z"
         id="path1003"
         sodipodi:nodetypes="ssscscscsccscccssscscssccccccssscsscscccccscsccsssscccccscccscssccsccccscsscsscccsscccscccccsscsccscccsccssscsscccccsssccscccscscscscsccsscccssccsscssssscsccscss" /></g><g
       id="g9036"
       transform="translate(0,3.8870765)"><path
         d="m 135.16346,116.66601 c -0.741,-1.297 -1.505,-2.166 -2.204,-3.046 -0.684,-0.902 -1.396,-1.586 -2.033,-2.317 -1.339,-1.356 -2.564,-2.534 -3.925,-3.587 -1.355,-1.067 -2.696,-2.166 -4.248,-3.302 -1.573,-1.138 -3.212,-2.367 -5.408,-3.777 l -0.08,-0.052 c -0.279,-0.178 -0.649,-0.097 -0.828,0.181 -0.024,0.038 -0.045,0.081 -0.06,0.121 -0.958,2.668 -0.638,5.275 0.147,7.675 0.822,2.392 2.251,4.582 4.119,6.304 1.857,1.717 4.1,3.079 6.6,3.582 2.458,0.574 5.103,0.454 7.67,-0.814 0.325,-0.16 0.459,-0.555 0.298,-0.88 -0.005,-0.011 -0.011,-0.022 -0.017,-0.033 l -0.031,-0.055"
         style="fill:#040606;fill-opacity:1;fill-rule:nonzero;stroke:none;stroke-width:0.1"
         id="path122"
         inkscape:connector-curvature="0" /><path
         d="m 240.65446,117.63401 c 2.568,1.268 5.213,1.388 7.671,0.814 2.499,-0.503 4.742,-1.865 6.6,-3.582 1.868,-1.722 3.297,-3.912 4.118,-6.304 0.785,-2.4 1.106,-5.007 0.147,-7.675 -0.112,-0.311 -0.455,-0.473 -0.766,-0.361 -0.042,0.015 -0.082,0.035 -0.119,0.058 l -0.083,0.053 c -2.195,1.41 -3.834,2.639 -5.407,3.777 -1.552,1.136 -2.894,2.235 -4.248,3.302 -1.362,1.053 -2.587,2.231 -3.925,3.587 -0.637,0.731 -1.35,1.415 -2.033,2.317 -0.7,0.88 -1.463,1.749 -2.205,3.046 l -0.029,0.053 c -0.181,0.316 -0.07,0.717 0.244,0.897 0.012,0.006 0.025,0.013 0.035,0.018"
         style="fill:#040606;fill-opacity:1;fill-rule:nonzero;stroke:none;stroke-width:0.1"
         id="path124"
         inkscape:connector-curvature="0" /><path
         d="m 106.26136,109.59201 c 0,0 91.4821,-43.691195 211.5081,-29.100895 l -36.07,38.634895 -131.348,17.178 -44.0901,-26.712"
         style="fill:#75797b;fill-opacity:1;fill-rule:nonzero;stroke:none;stroke-width:0.1"
         id="path126"
         inkscape:connector-curvature="0" /><path
         d="m 102.41176,66.616115 -31.512896,7.4211 c -5.0984,1.2007 0.9449,23.9338 12.2508,28.488795 11.3051,4.554 27.577796,-21.450995 27.577796,-21.450995 0.106,-4.8878 -5.7716,-15.0589 -8.3157,-14.4589"
         style="fill:#f5748f;fill-opacity:1;fill-rule:evenodd;stroke:none;stroke-width:0.1"
         id="path128"
         inkscape:connector-curvature="0" /><path
         d="m 96.824264,77.700015 c -6.0641,-6.4011 -17.3203,-5.4832 -22.8762,-4.3808 l 28.463696,-6.7031 c 0,0 15.4757,33.3169 -5.587496,11.0839"
         style="fill:#f36082;fill-opacity:1;fill-rule:evenodd;stroke:none;stroke-width:0.1"
         id="path130"
         inkscape:connector-curvature="0" /><path
         d="m 102.35586,39.695015 c 12.2126,-31.7328005 51.7896,-15.32 60.0526,-14.4149 6.684,0.7301 14.7,-4.5851 29.61,-5.0699 14.909,-0.4832 23.043,3.8109 35.855,1.9727 12.813,-1.8379 32.711,-19.5500005 73.13,-7.5039 53.413,16.1179 -12.755,143.606995 -97.959,143.606995 -85.205,0 -112.901496,-86.858995 -100.6886,-118.590995 v 0"
         style="fill:#f9b1bc;fill-opacity:1;fill-rule:evenodd;stroke:none;stroke-width:0.1"
         id="path132"
         inkscape:connector-curvature="0" /><path
         d="m 216.41246,157.24501 -49.686,-4.972 c -0.001,0 -0.001,0 -0.001,0 -2.589,-0.923 -5.093,-1.944 -7.521,-3.048 -0.167,-0.076 -0.337,-0.15 -0.504,-0.227 -0.649,-0.299 -1.289,-0.609 -1.927,-0.921 -0.257,-0.126 -0.516,-0.251 -0.77,-0.379 -0.599,-0.299 -1.19,-0.605 -1.778,-0.914 -0.284,-0.15 -0.568,-0.302 -0.849,-0.455 -0.565,-0.304 -1.127,-0.613 -1.682,-0.928 -0.294,-0.166 -0.584,-0.336 -0.875,-0.505 -0.543,-0.316 -1.085,-0.631 -1.618,-0.956 -0.28,-0.17 -0.554,-0.345 -0.832,-0.518 -1.733,-1.078 -3.416,-2.203 -5.051,-3.371 -0.372,-0.265 -0.746,-0.529 -1.113,-0.799 -0.382,-0.281 -0.757,-0.569 -1.134,-0.855 -0.393,-0.298 -0.785,-0.596 -1.172,-0.9 -0.355,-0.277 -0.705,-0.559 -1.054,-0.841 -0.403,-0.325 -0.803,-0.651 -1.199,-0.982 -0.326,-0.271 -0.65,-0.544 -0.972,-0.819 -0.419,-0.359 -0.834,-0.721 -1.246,-1.086 -0.289,-0.256 -0.58,-0.512 -0.865,-0.771 -0.459,-0.416 -0.911,-0.837 -1.36,-1.26 -0.231,-0.217 -0.465,-0.431 -0.692,-0.65 -0.668,-0.64 -1.328,-1.288 -1.974,-1.943 -0.006,-0.005 -0.011,-0.01 -0.016,-0.016 l 0.035,-0.449 c 0,0 39.745,-14.25 116.53,-10.087 18.09,0.981 35.01,-8.938 43.06,-25.168995 13.517,-27.2509 27.293,-67.004 1.808,-81.0169 2.902,0.598 5.906,1.3359 9.05,2.2719 50.582,15.2652 -6.08,130.405995 -84.592,142.565995"
         style="fill:#f8a2ad;fill-opacity:1;fill-rule:evenodd;stroke:none;stroke-width:0.1"
         id="path134"
         inkscape:connector-curvature="0" /><path
         d="m 122.43346,37.857115 c 0.851,0.5769 27.385,22.209 51.278,22.6488 16.208,0.302 29.801,2.025 49.477,-6.1129 19.675,-8.1398 41.836,-24.084 42.414,-24.4379 0.577,-0.3511 0.96,-2.357 0.543,-3.2519 -0.417,-0.8942 -1.765,-0.625 -2.249,-0.3063 -0.485,0.3211 -24.625,14.6403 -41.329,21.5481 -16.703,6.909 -31.04,6.0968 -49.476,6.114 -23.898,0.027 -48.053,-19.8179 -48.824,-19.9558 -0.772,-0.1633 -2.613,-0.691 -3.088,0.4218 -0.395,0.925 0.402,2.7571 1.254,3.3329 v -8e-4"
         style="fill:#a7505d;fill-opacity:1;fill-rule:nonzero;stroke:none;stroke-width:0.1"
         id="path136"
         inkscape:connector-curvature="0" /><path
         d="m 161.71646,87.089915 c 0.144,-11.5027 -8.915,-20.9469 -20.233,-21.0949 v 0 c -11.317,-0.1461 -20.608,9.0601 -20.752,20.5629 -0.145,11.5031 8.914,20.947095 20.232,21.095095 v 0 c 11.318,0.146 20.609,-9.059995 20.753,-20.563095"
         style="fill:#ffffff;fill-opacity:1;fill-rule:nonzero;stroke:none;stroke-width:0.1"
         id="path138"
         inkscape:connector-curvature="0" /><path
         d="m 142.15446,70.369215 c -8.835,-0.5402 -16.43,6.2969 -16.968,15.2769 -0.538,8.9789 6.185,16.703895 15.019,17.258895 8.835,0.554 16.441,-6.270995 16.994,-15.275995 0.526,-9.0071 -6.209,-16.72 -15.045,-17.2598"
         style="fill:#040606;fill-opacity:1;fill-rule:nonzero;stroke:none;stroke-width:0.1"
         id="path140"
         inkscape:connector-curvature="0" /><path
         d="m 157.51146,77.509015 -39.624,22.424 10.313,5.550995 5.001,5.474 22.213,3.56 7.331,-16.010995 -5.234,-20.998"
         style="fill:#f9b1bc;fill-opacity:1;fill-rule:nonzero;stroke:none;stroke-width:0.1"
         id="path142"
         inkscape:connector-curvature="0" /><path
         d="m 152.67446,92.903015 c -1.204,0.884 -1.98,1.743 -2.774,2.538 -0.819,0.781 -1.417,1.568 -2.07,2.284 -1.194,1.484 -2.225,2.835995 -3.115,4.309995 -0.906,1.466 -1.843,2.924 -2.795,4.596 -0.952,1.694 -1.984,3.462 -3.134,5.804 l -0.043,0.086 c -0.145,0.297 -0.023,0.655 0.274,0.802 0.041,0.019 0.085,0.035 0.127,0.045 2.76,0.648 5.314,0.032 7.608,-1.023 2.283,-1.09 4.295,-2.759 5.792,-4.811 1.494,-2.041 2.59,-4.426 2.805,-6.966 0.29,-2.507995 -0.133,-5.120995 -1.684,-7.527995 -0.197,-0.304 -0.604,-0.392 -0.909,-0.196 -0.011,0.007 -0.021,0.015 -0.031,0.022 l -0.051,0.037"
         style="fill:#040606;fill-opacity:1;fill-rule:nonzero;stroke:none;stroke-width:0.1"
         id="path144"
         inkscape:connector-curvature="0" /><path
         d="m 208.05846,88.700015 c 0.931,-14.6628 -10.819,-27.357 -26.252,-28.3601 -15.434,-1.0027 -28.713,10.0641 -29.669,24.7262 -0.956,14.6609 10.773,27.370895 26.205,28.396895 15.432,1.027 28.73,-10.019 29.71,-24.677795"
         style="fill:#f9b1bc;fill-opacity:1;fill-rule:nonzero;stroke:none;stroke-width:0.1"
         id="path146"
         inkscape:connector-curvature="0" /><path
         d="m 205.72546,79.291815 c -3.283,-9.7757 -12.592,-17.1578 -23.992,-17.8949 -14.82,-0.9629 -27.57,9.666 -28.485,23.7442 -0.417,6.4219 1.7,12.4539 5.533,17.208895 0,0 2.414,2.727 0.954,3.885 -1.46,1.158 -3.539,-2.091 -3.539,-2.091 -4.266,-5.315995 -6.621,-12.050995 -6.153,-19.220095 1.031,-15.7559 15.302,-27.6469 31.888,-26.5699 12.777,0.8281 23.206,9.1121 26.868,20.0761 0,0 0.86,2.2469 -0.648,2.786 -1.507,0.539 -2.426,-1.925 -2.426,-1.925 v 7e-4"
         style="fill:#a7505d;fill-opacity:1;fill-rule:nonzero;stroke:none;stroke-width:0.1"
         id="path148"
         inkscape:connector-curvature="0" /><path
         d="m 166.29946,78.066815 c 0,0 28.078,2.5954 32.018,20.9842 4.465,20.836995 64.93,7.432995 97.782,-20.2092 l 6.218,3.543 -7.86,24.099195 -122.558,30.521 -5.6,-58.938195"
         style="fill:#f8a2ad;fill-opacity:1;fill-rule:nonzero;stroke:none;stroke-width:0.1"
         id="path150"
         inkscape:connector-curvature="0" /><path
         d="m 254.09046,86.291115 c 0.144,-11.5032 -8.914,-20.9469 -20.233,-21.093 v 0 c -11.317,-0.1481 -20.608,9.0578 -20.752,20.5609 -0.144,11.503 8.915,20.946995 20.232,21.094995 0,0 0,0 0.001,0 11.317,0.146 20.608,-9.059995 20.752,-20.562895 v 0"
         style="fill:#ffffff;fill-opacity:1;fill-rule:nonzero;stroke:none;stroke-width:0.1"
         id="path152"
         inkscape:connector-curvature="0" /><path
         d="m 234.52846,69.570015 c -8.835,-0.5391 -16.429,6.298 -16.967,15.2769 -0.538,8.9801 6.184,16.705095 15.018,17.260095 8.835,0.554 16.441,-6.271995 16.994,-15.276895 0.526,-9.0051 -6.209,-16.7199 -15.045,-17.2601"
         style="fill:#040606;fill-opacity:1;fill-rule:nonzero;stroke:none;stroke-width:0.1"
         id="path154"
         inkscape:connector-curvature="0" /><path
         d="m 213.10346,77.509015 39.625,22.424 -10.313,5.550995 -5.219,1.052 -5.855,1.011 -23.472,-9.039995 5.234,-20.998"
         style="fill:#f9b1bc;fill-opacity:1;fill-rule:nonzero;stroke:none;stroke-width:0.1"
         id="path156"
         inkscape:connector-curvature="0" /><path
         d="m 188.76646,91.210015 -22.467,-13.1432 -3.735,0.9731 -9.408,21.494095 23.23,50.435 16.845,-4.411 -4.465,-55.347995"
         style="fill:#75797b;fill-opacity:1;fill-rule:nonzero;stroke:none;stroke-width:0.1"
         id="path158"
         inkscape:connector-curvature="0" /><path
         d="m 123.80246,128.60101 c 20.353,47.201 61.255,77.418 103.91,71.878 44.282,-5.751 76.893,-48.277 82.867,-101.899995 0.736,-6.606 -46.191,29.914995 -95.643,37.914995 -45.468,7.355 -93.9,-14.305 -91.134,-7.893"
         style="fill:#533f37;fill-opacity:1;fill-rule:nonzero;stroke:none;stroke-width:0.1"
         id="path160"
         inkscape:connector-curvature="0" /><path
         d="m 310.57946,98.579015 c -3.296,29.581995 -14.709,55.767995 -31.704,74.283995 6.19,-12.323 12.666,-35.977 -1.558,-36.559 -19.255,-0.788 -102.022,25.312 -136.094,7.587 0,0 55.004,-4.371 73.713,-7.397 49.452,-8 96.379,-44.520995 95.643,-37.914995"
         style="fill:#41322d;fill-opacity:1;fill-rule:nonzero;stroke:none;stroke-width:0.1"
         id="path162"
         inkscape:connector-curvature="0" /><path
         d="m 233.59846,199.48401 c 0,0 -20.164,-7.27 -26.444,-56.898 h -4.883 l 7.642,51.218 23.685,5.68"
         style="fill:#351f16;fill-opacity:1;fill-rule:nonzero;stroke:none;stroke-width:0.1"
         id="path164"
         inkscape:connector-curvature="0" /><path
         d="m 169.14246,146.88501 c 0,0 22.664,74.399 64.456,52.599 0,0 -22.444,-4.991 -28.955,-56.898 l -35.501,4.299"
         style="fill:#533f37;fill-opacity:1;fill-rule:nonzero;stroke:none;stroke-width:0.1"
         id="path166"
         inkscape:connector-curvature="0" /><path
         d="m 170.18246,149.99501 c -0.691,-1.964 -1.04,-3.11 -1.04,-3.11 l 35.501,-4.299 c 0.225,1.794 0.471,3.527 0.733,5.211 -12.078,1.58 -24.198,2.558 -35.194,2.198"
         style="fill:#41322d;fill-opacity:1;fill-rule:nonzero;stroke:none;stroke-width:0.1"
         id="path168"
         inkscape:connector-curvature="0" /><path
         d="m 169.14246,146.88501 2.824,-0.343 1.227,0.343 c 0,0 15.613,52.604 46.312,56.569 -32.767,1.168 -50.363,-56.569 -50.363,-56.569"
         style="fill:#64524c;fill-opacity:1;fill-rule:nonzero;stroke:none;stroke-width:0.1"
         id="path170"
         inkscape:connector-curvature="0" /><path
         d="m 121.80346,132.82901 c 0,0 46.717,41.517 189.718,-25.483 0,0 3.647,-6.911 4.473,-14.995995 0.404,-3.9441 1.775,-11.8589 1.775,-11.8589 l -6.593,0.4519 c -157.689,73.879995 -201.013,26.912995 -201.013,26.912995 l -3.9021,1.736 c 0,0 6.9781,8.51 8.6951,12.465 3.209,7.396 6.847,10.772 6.847,10.772"
         style="fill:#75797b;fill-opacity:1;fill-rule:nonzero;stroke:none;stroke-width:0.1"
         id="path172"
         inkscape:connector-curvature="0" /><path
         d="m 118.80346,135.82901 c 0,0 49.145,41.517 192.145,-25.483 0,0 3.809,-3.434 5.114,-13.968995 1.304,-10.5352 1.707,-15.8859 1.707,-15.8859 -46.428,23.768895 -85.658,35.525895 -115.289,40.908895 -71.474,12.985 -96.2191,-11.808 -96.2191,-11.808 0,0 2.4851,8.07 5.6951,15.465 3.209,7.395 6.847,10.772 6.847,10.772"
         style="fill:#d1d2d0;fill-opacity:1;fill-rule:nonzero;stroke:none;stroke-width:0.1"
         id="path174"
         inkscape:connector-curvature="0" /><path
         d="m 312.93746,52.820015 37.01,21.491 c 5.99,3.4762 -9.013,27.082995 -25.475,28.096995 -16.461,1.013 -25.794,-36.886095 -25.794,-36.886095 2.02,-5.95 11.27,-14.4379 14.259,-12.7019 v 0"
         style="fill:#f5748f;fill-opacity:1;fill-rule:evenodd;stroke:none;stroke-width:0.1"
         id="path176"
         inkscape:connector-curvature="0" /><path
         d="m 313.47846,97.050015 v 0 c 14.268,8.986995 28.828,-5.805 33.22,-14.1351 3.959,-7.5039 -26.623,-25.9168 -32.715,-29.4867 l 35.964,20.8828 c 5.99,3.4762 -9.013,27.082995 -25.475,28.096995 -4.123,0.254 -7.8,-1.935 -10.994,-5.357995"
         style="fill:#f36082;fill-opacity:1;fill-rule:evenodd;stroke:none;stroke-width:0.1"
         id="path178"
         inkscape:connector-curvature="0" /><path
         d="m 185.03146,92.184015 -22.467,-13.1441 -13.143,22.467095 17.741,38.517 21.7,-0.342 -3.831,-47.497995"
         style="fill:#d1d2d0;fill-opacity:1;fill-rule:nonzero;stroke:none;stroke-width:0.1"
         id="path180"
         inkscape:connector-curvature="0" /><path
         d="m 254.13146,179.81901 49.3,11.402 c 1.905,0.441 3.352,-1.696 2.237,-3.301 l -27.351,-39.375 c 0,0 -27.535,5.971 -24.186,31.274"
         style="fill:#beaf8e;fill-opacity:1;fill-rule:nonzero;stroke:none;stroke-width:0.1"
         id="path182"
         inkscape:connector-curvature="0" /><path
         d="m 171.73246,186.83701 -41.457,18.155 c -1.602,0.701 -3.227,-0.938 -2.511,-2.534 l 17.549,-39.124 c 0,0 25.19,0.707 26.419,23.503"
         style="fill:#beaf8e;fill-opacity:1;fill-rule:nonzero;stroke:none;stroke-width:0.1"
         id="path184"
         inkscape:connector-curvature="0" /><path
         d="m 274.41046,155.60901 c -6.844,-1.11 -15.593,5.065 -15.694,5.138 7.135,-9.485 19.601,-12.202 19.601,-12.202 l 25.936,37.337 c -0.002,-0.002 -22.959,-29.157 -29.843,-30.273"
         style="fill:#a99981;fill-opacity:1;fill-rule:nonzero;stroke:none;stroke-width:0.1"
         id="path186"
         inkscape:connector-curvature="0" /><path
         d="m 159.40946,167.21601 c 5.994,3.197 11.752,9.017 12.323,19.621 l -15.908,6.967 v 0 c 0,0 15.836,-14.706 3.585,-26.588"
         style="fill:#a99981;fill-opacity:1;fill-rule:nonzero;stroke:none;stroke-width:0.1"
         id="path188"
         inkscape:connector-curvature="0" /><path
         d="m 212.20946,94.021015 c -0.646,2.789 -0.16,5.391 0.961,7.652995 1.062,2.318 2.9,4.191 4.997,5.606 2.103,1.424 4.561,2.315 7.078,2.568 2.516,0.216 5.127,-0.068 7.505,-1.611 0.277,-0.181 0.357,-0.552 0.177,-0.829 -0.025,-0.038 -0.053,-0.073 -0.084,-0.103 l -0.071,-0.068 c -1.874,-1.815 -3.445,-3.13 -4.914,-4.401 -1.46,-1.252 -2.835,-2.306 -4.184,-3.380995 -1.336,-1.085 -2.764,-2.007 -4.39,-3.001 -0.857,-0.452 -1.686,-0.99 -2.721,-1.448 -1.016,-0.48 -2.037,-1.025 -3.469,-1.45 l -0.058,-0.018 c -0.348,-0.102 -0.714,0.096 -0.817,0.444 -0.004,0.013 -0.008,0.026 -0.01,0.039"
         style="fill:#040606;fill-opacity:1;fill-rule:nonzero;stroke:none;stroke-width:0.1"
         id="path190"
         inkscape:connector-curvature="0" /><path
         d="m 240.73746,79.586015 c 1.149,-0.0668 1.986,-1.25 1.871,-2.641 -0.115,-1.3918 -1.138,-2.4649 -2.286,-2.3981 -1.148,0.0692 -1.985,1.2512 -1.871,2.643 0.115,1.391 1.139,2.4652 2.286,2.3961"
         style="fill:#ffffff;fill-opacity:1;fill-rule:nonzero;stroke:none;stroke-width:0.1"
         id="path192"
         inkscape:connector-curvature="0" /><path
         d="m 146.96646,79.586015 c 1.148,-0.0668 1.985,-1.25 1.87,-2.641 -0.115,-1.3918 -1.138,-2.4649 -2.286,-2.3981 -1.148,0.0692 -1.985,1.2512 -1.87,2.643 0.114,1.391 1.138,2.4652 2.286,2.3961"
         style="fill:#ffffff;fill-opacity:1;fill-rule:nonzero;stroke:none;stroke-width:0.1"
         id="path194"
         inkscape:connector-curvature="0" /><path
         d="m 356.15846,125.68901 -56.507,-17.794 c 0,0 -8.953,-1.53 -13.629,8.633 -4.677,10.163 1.474,17.783 1.474,17.783 l 50.275,31.34 18.387,-39.962"
         style="fill:#75797b;fill-opacity:1;fill-rule:nonzero;stroke:none;stroke-width:0.1"
         id="path196"
         inkscape:connector-curvature="0" /><path
         d="m 309.73446,111.07101 14.175,4.463 c -10.367,-2.178 -22.381,27.525 -22.381,27.525 l -3.767,-2.349 11.973,-29.639"
         style="fill:#5f6263;fill-opacity:1;fill-rule:nonzero;stroke:none;stroke-width:0.1"
         id="path198"
         inkscape:connector-curvature="0" /><path
         d="m 324.98546,115.87201 c -10e-4,0 -10e-4,0 -10e-4,0 h 10e-4 v 0"
         style="fill:#5f6263;fill-opacity:1;fill-rule:nonzero;stroke:none;stroke-width:0.1"
         id="path200"
         inkscape:connector-curvature="0" /><path
         d="m 356.15846,125.68901 1.828,2.548 -17.215,37.414 h -3 l 18.387,-39.962"
         style="fill:#e8e8e6;fill-opacity:1;fill-rule:nonzero;stroke:none;stroke-width:0.1"
         id="path202"
         inkscape:connector-curvature="0" /><path
         d="m 344.85746,122.13001 11.301,3.559 -18.387,39.962 -10.055,-6.267 17.141,-37.254"
         style="fill:#d1d2d0;fill-opacity:1;fill-rule:nonzero;stroke:none;stroke-width:0.1"
         id="path204"
         inkscape:connector-curvature="0" /><path
         d="m 336.02746,54.027015 v 0 c -3.422,-1.575 -7.471,-0.0102 -8.945,3.4582 l -35.621,83.834795 c -0.847,1.99 0.044,4.293 2.009,5.197 v 0 c 1.965,0.905 4.293,0.083 5.255,-1.855 l 40.496,-81.590895 c 1.676,-3.3761 0.23,-7.4691 -3.194,-9.0441"
         style="fill:#845131;fill-opacity:1;fill-rule:nonzero;stroke:none;stroke-width:0.1"
         id="path206"
         inkscape:connector-curvature="0" /><path
         d="m 333.94546,57.377015 c -2.07,-1.702 -4.307,-1.607 -5.745,-1.6738 1.895,-2.1703 5.064,-2.9481 7.827,-1.6762 3.424,1.575 4.87,5.668 3.194,9.0441 l -8.197,16.5129 c 3.297,-9.7308 6.316,-19.4172 2.921,-22.207"
         style="fill:#533f37;fill-opacity:1;fill-rule:nonzero;stroke:none;stroke-width:0.1"
         id="path208"
         inkscape:connector-curvature="0" /></g></g></svg>
