<?xml version="1.0" encoding="UTF-8" standalone="no"?>
<!-- Created with Inkscape (http://www.inkscape.org/) -->

<svg
   xmlns:dc="http://purl.org/dc/elements/1.1/"
   xmlns:cc="http://creativecommons.org/ns#"
   xmlns:rdf="http://www.w3.org/1999/02/22-rdf-syntax-ns#"
   xmlns:svg="http://www.w3.org/2000/svg"
   xmlns="http://www.w3.org/2000/svg"
   xmlns:sodipodi="http://sodipodi.sourceforge.net/DTD/sodipodi-0.dtd"
   xmlns:inkscape="http://www.inkscape.org/namespaces/inkscape"
   width="450"
   height="330"
   viewBox="0 0 119.06249 87.312506"
   version="1.1"
   id="svg4016"
   inkscape:version="0.92.3 (2405546, 2018-03-11)"
   sodipodi:docname="blobheart.svg">
  <defs
     id="defs4010">
    <inkscape:path-effect
       effect="envelope"
       id="path-effect901"
       is_visible="true"
       yy="true"
       xx="true"
       bendpath1="M 7.6722202,123.7437 H 44.60882"
       bendpath2="m 44.60882,123.7437 v 22.18198"
       bendpath3="M 7.6722202,145.92568 H 44.60882"
       bendpath4="m 7.6722202,123.7437 v 22.18198" />
    <inkscape:path-effect
       effect="envelope"
       id="path-effect884"
       is_visible="true"
       yy="true"
       xx="true"
       bendpath1="M -86.430088,58.824827 C -8.2020285,-8.5478015 80.202521,26.500878 114.36724,127.82318 144.10566,69.9239 192.63868,-24.596869 307.83466,53.09893"
       bendpath2="M 350.46078,-328.62753 C 753.04128,209.45072 218.97857,307.53874 114.36724,463.74949"
       bendpath3="m 100.3706,522.28088 25.44843,-1.27242"
       bendpath4="M -159.59433,-216.65444 C -525.56063,244.87591 51.313937,335.37365 114.36724,463.74949"
       bendpath1-nodetypes="ccc"
       bendpath3-nodetypes="cc"
       bendpath2-nodetypes="cc"
       bendpath4-nodetypes="cc" />
    <inkscape:path-effect
       effect="envelope"
       id="path-effect882"
       is_visible="true"
       yy="true"
       xx="true"
       bendpath1="m 47.296575,202.57649 c 7.372026,-23.00248 25.834872,-24.59318 49.380025,-20.86682 5.51263,0.87246 11.9699,24.55612 17.92756,25.91009 4.38597,0.99679 12.16678,-21.88882 16.27703,-23.73465 35.7442,-16.05201 52.51984,12.50799 53.43815,31.06278"
       bendpath2="m 170.59834,187.05601 c 37.99875,45.88626 -5.84456,59.94505 -15.97035,87.1162"
       bendpath3="m 114.36749,309.01257 v 0"
       bendpath4="M 50.220724,196.50326 C 25.49318,247.31641 93.725283,268.5201 114.36749,309.01257"
       bendpath1-nodetypes="csssc"
       bendpath3-nodetypes="cc"
       bendpath2-nodetypes="cc"
       bendpath4-nodetypes="cc" />
    <inkscape:path-effect
       effect="envelope"
       id="path-effect880"
       is_visible="true"
       yy="true"
       xx="true"
       bendpath1="M -8.4871754,162.98802 249.77527,163.66283"
       bendpath2="M 193.31672,199.42741 V 285.194"
       bendpath3="M 41.448279,285.194 H 193.31672"
       bendpath4="M 41.448279,199.42741 V 285.194"
       bendpath1-nodetypes="cc" />
    <filter
       inkscape:collect="always"
       style="color-interpolation-filters:sRGB"
       id="filter1956"
       x="-0.18732294"
       width="1.3746459"
       y="-0.21301761"
       height="1.4260352">
      <feGaussianBlur
         inkscape:collect="always"
         stdDeviation="7.9369458"
         id="feGaussianBlur1958" />
    </filter>
  </defs>
  <sodipodi:namedview
     id="base"
     pagecolor="#ffffff"
     bordercolor="#666666"
     borderopacity="1.0"
     inkscape:pageopacity="0.0"
     inkscape:pageshadow="2"
     inkscape:zoom="0.98994949"
     inkscape:cx="136.48556"
     inkscape:cy="145.95775"
     inkscape:document-units="mm"
     inkscape:current-layer="layer1"
     showgrid="false"
     units="px"
     inkscape:window-width="2560"
     inkscape:window-height="1323"
     inkscape:window-x="2560"
     inkscape:window-y="27"
     inkscape:window-maximized="1"
     inkscape:snap-nodes="true" />
  <metadata
     id="metadata4013">
    <rdf:RDF>
      <cc:Work
         rdf:about="">
        <dc:format>image/svg+xml</dc:format>
        <dc:type
           rdf:resource="http://purl.org/dc/dcmitype/StillImage" />
        <dc:title></dc:title>
      </cc:Work>
    </rdf:RDF>
  </metadata>
  <g
     inkscape:label="Layer 1"
     inkscape:groupmode="layer"
     id="layer1"
     transform="translate(0,-209.68749)">
    <path
       inkscape:connector-curvature="0"
       id="path1732"
       d="m 201.74973,192.8856 c -2.9216,-0.0145 -5.90702,0.60737 -9.15657,2.0006 -6.93237,2.97223 -12.39136,9.21205 -14.45041,16.9998 -2.05904,7.78774 -1.40253,16.76816 3.6836,24.64973 5.08614,7.88156 16.74055,16.69084 24.08326,22.66657 7.34271,5.97574 19.00469,22.66581 19.00469,22.66581 0,0 11.66224,-16.69007 19.00496,-22.66581 7.34269,-5.97573 18.99686,-14.78501 24.08299,-22.66657 5.08614,-7.88157 5.74266,-16.86199 3.68362,-24.64973 -2.05906,-7.78775 -7.51806,-14.02757 -14.45043,-16.9998 -6.93236,-2.97222 -12.66261,-2.4343 -19.13531,0.30522 -6.47271,2.73952 -10.18372,7.35644 -13.18583,12.29645 -3.00211,-4.94001 -6.71286,-9.55693 -13.18557,-12.29645 -3.43862,-1.45537 -6.66784,-2.28937 -9.979,-2.30582 z"
       style="opacity:0.175;fill:#000000;fill-opacity:1;stroke:none;stroke-width:0.2804828px;stroke-linecap:butt;stroke-linejoin:miter;stroke-opacity:1;filter:url(#filter1956)"
       transform="matrix(0.8366382,0.01379219,-0.12180635,0.34313319,-94.307323,193.06232)" />
    <g
       id="g1728"
       transform="matrix(0.43451157,0,0,0.43451157,12.901333,143.69744)">
      <path
         inkscape:export-ydpi="250.44547"
         inkscape:export-xdpi="250.44547"
         inkscape:export-filename="/home/ash/Downloads/benthos.png"
         sodipodi:nodetypes="sszss"
         inkscape:connector-curvature="0"
         id="path1670"
         d="m 77.085932,298.36299 -16.53244,15.53481 c -2.67495,2.51341 -13.61485,-9.81589 -11.89953,-18.18311 1.7153,-8.36677 23.20461,-7.80565 23.20461,-7.80565 2.89628,1.8302 6.56217,9.19961 5.22736,10.45395 z"
         style="fill:#ff9197;fill-opacity:1;fill-rule:evenodd;stroke:none;stroke-width:1.85387349;stroke-miterlimit:4;stroke-dasharray:none;stroke-opacity:1" />
      <path
         inkscape:connector-curvature="0"
         id="path873"
         d="m 59.938232,161.34811 c -5.97543,-0.0297 -12.08138,1.24222 -18.72753,4.09174 -14.17847,6.07896 -25.34351,18.84099 -29.55479,34.76893 -4.2112699,15.92792 -2.8685399,34.29518 7.53391,50.41501 10.40246,16.11979 34.23871,34.13702 49.25642,46.35893 15.01772,12.22191 38.869458,46.35738 38.869458,46.35738 0,0 23.85226,-34.13547 38.86999,-46.35738 15.01769,-12.22191 38.85345,-30.23914 49.25589,-46.35893 10.40246,-16.11983 11.7452,-34.48709 7.53393,-50.41501 -4.21129,-15.92794 -15.37634,-28.68997 -29.55481,-34.76893 -14.17846,-6.07896 -25.89828,-4.97878 -39.13661,0.62425 -13.23834,5.60302 -20.82831,15.04579 -26.96839,25.14937 -6.14008,-10.10358 -13.729528,-19.54635 -26.967858,-25.14937 -7.03286,-2.97661 -13.63745,-4.68236 -20.40961,-4.71599 z"
         style="fill:#ffc7c7;fill-opacity:1;stroke:none;stroke-width:0.57365906px;stroke-linecap:butt;stroke-linejoin:miter;stroke-opacity:1" />
      <path
         style="opacity:1;fill:#b06264;fill-opacity:1;stroke:none;stroke-width:0.73990661;stroke-linecap:round;stroke-miterlimit:4;stroke-dasharray:none;stroke-opacity:1"
         d="m 54.984092,264.39187 c 0.65288,-0.44263 20.99592,-17.02709 39.31487,-17.3655 12.426388,-0.23119 22.847488,-1.55202 37.932618,4.68763 15.08509,6.24031 32.07579,18.46449 32.51824,18.73535 0.44236,0.26957 0.73598,1.80778 0.41625,2.49392 -0.3197,0.68518 -1.35292,0.47963 -1.72442,0.23451 -0.37156,-0.24599 -18.87952,-11.22374 -31.6858,-16.52052 -12.80628,-5.29678 -23.79814,-4.67506 -37.932588,-4.68763 -18.32215,-0.0211 -36.8419,15.1948 -37.43311,15.30035 -0.59129,0.12451 -2.00278,0.52961 -2.36705,-0.32399 -0.30336,-0.70842 0.30817,-2.11326 0.96106,-2.55472 z"
         id="path1676"
         inkscape:connector-curvature="0"
         sodipodi:nodetypes="cszzzzzszszc" />
      <path
         style="fill:#ffc7c7;fill-opacity:1;stroke:none;stroke-width:0.74608272"
         d="M 120.63179,225.41149 A 20.407578,21.482267 85.954687 0 1 100.50454,247.15366 20.407578,21.482267 85.954687 0 1 77.757792,228.19757 20.407578,21.482267 85.954687 0 1 97.848752,206.425 20.407578,21.482267 85.954687 0 1 120.62757,225.34627"
         id="path1686"
         inkscape:connector-curvature="0" />
      <path
         style="fill:#b06264;fill-opacity:1;stroke:none;stroke-width:0.80195206"
         d="m 118.84317,232.62401 c -2.51716,7.4953 -9.65407,13.15442 -18.39454,13.72026 -11.362038,0.73755 -21.137098,-7.4111 -21.838978,-18.20463 -0.32001,-4.92383 1.30349,-9.54878 4.24255,-13.19391 0,0 1.85087,-2.09021 0.73148,-2.9782 -1.11936,-0.88847 -2.71333,1.6027 -2.71333,1.6027 -3.27135,4.07591 -5.07624,9.23951 -4.71786,14.73583 0.79049,12.07955 11.73182,21.19643 24.447918,20.37099 9.79605,-0.63532 17.79228,-6.98614 20.59982,-15.39252 0,0 0.65909,-1.7224 -0.49675,-2.13566 -1.15581,-0.41329 -1.86044,1.47514 -1.86044,1.47514 z"
         id="path1688"
         inkscape:connector-curvature="0"
         sodipodi:nodetypes="cccczcccczc" />
      <g
         transform="matrix(0.92381376,0,0,0.92381376,91.142822,79.224868)"
         id="g918">
        <path
           style="opacity:1;fill:#fffefe;fill-opacity:1;stroke:none;stroke-width:5.60788155;stroke-linecap:round;stroke-miterlimit:4;stroke-dasharray:none;stroke-opacity:1"
           d="m -18.133593,140.51089 a 32.021201,32.545305 0.12912279 0 1 -31.612151,32.95841 32.021201,32.545305 0.12912279 0 1 -32.425134,-32.12688 32.021201,32.545305 0.12912279 0 1 31.612181,-32.95866 32.021201,32.545305 0.12912279 0 1 32.425104,32.12713 z"
           id="path1678"
           inkscape:connector-curvature="0" />
        <path
           style="fill:#000000;fill-opacity:1;stroke:none;stroke-width:6.61044073;stroke-miterlimit:4;stroke-dasharray:none;stroke-opacity:1"
           d="m -48.697249,166.6375 c -13.805076,0.84306 -25.671381,-9.83959 -26.511931,-23.86973 -0.840778,-14.02991 9.662611,-26.10008 23.466289,-26.96666 13.803623,-0.86559 25.686779,9.79802 26.551914,23.86759 0.820892,14.0719 -9.701294,26.12477 -23.506272,26.9688 z"
           id="path1680"
           inkscape:connector-curvature="0"
           sodipodi:nodetypes="ssscs"
           inkscape:export-filename="/home/ash/Downloads/benthos.png"
           inkscape:export-xdpi="250.44547"
           inkscape:export-ydpi="250.44547" />
        <path
           style="fill:#ffffff;fill-opacity:1;stroke:none;stroke-width:3.64715242px;stroke-linecap:butt;stroke-linejoin:miter;stroke-opacity:1"
           d="m -45.95291,124.75953 c 2.408726,-3.30156 11.165729,-0.37075 14.233271,5.11847 3.06753,5.48701 3.040364,13.91739 -2.042991,15.61913 -5.083849,1.69928 -4.711728,-4.92287 -7.376011,-9.59097 -2.665029,-4.66828 -7.223919,-7.84506 -4.814546,-11.14558 z"
           id="path1682"
           inkscape:connector-curvature="0"
           sodipodi:nodetypes="zzzzz" />
        <ellipse
           style="opacity:1;fill:#ffffff;fill-opacity:1;stroke:none;stroke-width:16.51700592;stroke-linecap:round;stroke-linejoin:miter;stroke-miterlimit:4;stroke-dasharray:none;stroke-dashoffset:0;stroke-opacity:1"
           id="ellipse1684"
           cx="-22.09721"
           cy="152.95804"
           rx="3.2529955"
           ry="3.9500124"
           transform="matrix(0.99826127,0.05894442,-0.08221311,0.99661477,0,0)" />
      </g>
      <g
         id="g928"
         transform="matrix(0.92381376,0,0,0.92381376,208.66771,79.224868)">
        <path
           inkscape:connector-curvature="0"
           id="path920"
           d="m -18.133593,140.51089 a 32.021201,32.545305 0.12912279 0 1 -31.612151,32.95841 32.021201,32.545305 0.12912279 0 1 -32.425134,-32.12688 32.021201,32.545305 0.12912279 0 1 31.612181,-32.95866 32.021201,32.545305 0.12912279 0 1 32.425104,32.12713 z"
           style="opacity:1;fill:#fffefe;fill-opacity:1;stroke:none;stroke-width:5.60788155;stroke-linecap:round;stroke-miterlimit:4;stroke-dasharray:none;stroke-opacity:1" />
        <path
           inkscape:export-ydpi="250.44547"
           inkscape:export-xdpi="250.44547"
           inkscape:export-filename="/home/ash/Downloads/benthos.png"
           sodipodi:nodetypes="ssscs"
           inkscape:connector-curvature="0"
           id="path922"
           d="m -48.697249,166.6375 c -13.805076,0.84306 -25.671381,-9.83959 -26.511931,-23.86973 -0.840778,-14.02991 9.662611,-26.10008 23.466289,-26.96666 13.803623,-0.86559 25.686779,9.79802 26.551914,23.86759 0.820892,14.0719 -9.701294,26.12477 -23.506272,26.9688 z"
           style="fill:#000000;fill-opacity:1;stroke:none;stroke-width:6.61044073;stroke-miterlimit:4;stroke-dasharray:none;stroke-opacity:1" />
        <path
           sodipodi:nodetypes="zzzzz"
           inkscape:connector-curvature="0"
           id="path924"
           d="m -45.95291,124.75953 c 2.408726,-3.30156 11.165729,-0.37075 14.233271,5.11847 3.06753,5.48701 3.040364,13.91739 -2.042991,15.61913 -5.083849,1.69928 -4.711728,-4.92287 -7.376011,-9.59097 -2.665029,-4.66828 -7.223919,-7.84506 -4.814546,-11.14558 z"
           style="fill:#ffffff;fill-opacity:1;stroke:none;stroke-width:3.64715242px;stroke-linecap:butt;stroke-linejoin:miter;stroke-opacity:1" />
        <ellipse
           transform="matrix(0.99826127,0.05894442,-0.08221311,0.99661477,0,0)"
           ry="3.9500124"
           rx="3.2529955"
           cy="152.95804"
           cx="-22.09721"
           id="ellipse926"
           style="opacity:1;fill:#ffffff;fill-opacity:1;stroke:none;stroke-width:16.51700592;stroke-linecap:round;stroke-linejoin:miter;stroke-miterlimit:4;stroke-dasharray:none;stroke-dashoffset:0;stroke-opacity:1" />
      </g>
      <path
         inkscape:export-ydpi="250.44547"
         inkscape:export-xdpi="250.44547"
         inkscape:export-filename="/home/ash/Downloads/benthos.png"
         style="fill:#ff9197;fill-opacity:1;fill-rule:evenodd;stroke:none;stroke-width:1.67292464;stroke-miterlimit:4;stroke-dasharray:none;stroke-opacity:1"
         d="m 145.86973,296.39265 18.63536,19.6244 c 3.01517,3.17536 15.3422,-9.50771 13.55751,-19.7825 -1.78467,-10.27494 -26.46448,-10.47197 -26.46448,-10.47197 -3.36489,2.11347 -7.23302,9.04554 -5.72839,10.63007 z"
         id="path1674"
         inkscape:connector-curvature="0"
         sodipodi:nodetypes="sszss" />
    </g>
  </g>
</svg>
