<?xml version="1.0" encoding="UTF-8" standalone="no"?>
<!-- Created with Inkscape (http://www.inkscape.org/) -->

<svg
   xmlns:dc="http://purl.org/dc/elements/1.1/"
   xmlns:cc="http://creativecommons.org/ns#"
   xmlns:rdf="http://www.w3.org/1999/02/22-rdf-syntax-ns#"
   xmlns:svg="http://www.w3.org/2000/svg"
   xmlns="http://www.w3.org/2000/svg"
   xmlns:sodipodi="http://sodipodi.sourceforge.net/DTD/sodipodi-0.dtd"
   xmlns:inkscape="http://www.inkscape.org/namespaces/inkscape"
   version="1.1"
   id="svg2"
   xml:space="preserve"
   width="542.85333"
   height="345.97333"
   viewBox="0 0 542.85333 345.97333"
   sodipodi:docname="Blobninja.svg"
   inkscape:version="0.92.4 (5da689c313, 2019-01-14)"><metadata
     id="metadata8"><rdf:RDF><cc:Work
         rdf:about=""><dc:format>image/svg+xml</dc:format><dc:type
           rdf:resource="http://purl.org/dc/dcmitype/StillImage" /><dc:title /></cc:Work></rdf:RDF></metadata><defs
     id="defs6"><linearGradient
       gradientTransform="matrix(0.75000002,0,0,-0.75000002,-459.20392,268.58709)"
       y1="290.63699"
       id="LinearGradient_2-7"
       x1="72.241203"
       y2="88.023102"
       x2="554.89301"
       gradientUnits="userSpaceOnUse"><stop
         stop-color="#ffc075"
         offset="0.00603622"
         id="stop1197-9" /><stop
         stop-color="#fd971f"
         offset="1"
         id="stop1199-3" /></linearGradient></defs><sodipodi:namedview
     pagecolor="#ffffff"
     bordercolor="#666666"
     borderopacity="1"
     objecttolerance="10"
     gridtolerance="10"
     guidetolerance="10"
     inkscape:pageopacity="0"
     inkscape:pageshadow="2"
     inkscape:window-width="3840"
     inkscape:window-height="2047"
     id="namedview4"
     showgrid="false"
     inkscape:zoom="1.9293649"
     inkscape:cx="311.96511"
     inkscape:cy="307.97868"
     inkscape:window-x="2560"
     inkscape:window-y="0"
     inkscape:window-maximized="1"
     inkscape:current-layer="g10" /><g
     id="g10"
     inkscape:groupmode="layer"
     inkscape:label="ink_ext_XXXXXX"
     transform="matrix(1.3333333,0,0,-1.3333333,0,345.97333)"><g
       id="g11428"
       transform="translate(454.68891,-9.3773341)"><path
         d="m -413.58419,85.891588 c 0,90.796502 73.60553,164.402022 164.40203,164.402022 90.7965,0 164.401497,-73.60552 164.401497,-164.402022 0,-14.718 -1.93425,-28.984501 -5.562,-42.558751 -21.616497,-3.41475 -303.044327,-3.41475 -317.825777,0.5505 -3.53362,13.40925 -5.41575,27.489001 -5.41575,42.008251 z"
         id="path1209-7"
         inkscape:connector-curvature="0"
         style="clip-rule:evenodd;opacity:1;fill:#9ff0ff;fill-rule:evenodd;stroke-width:0.75;stroke-linecap:round;stroke-linejoin:round" /><path
         d="m -208.04316,196.70506 c 47.25075,19.17533 112.198497,-14.74747 126.526497,-48.59797 17.47725,-41.2905 -24.319497,-97.497753 -24.319497,-97.497753 h -294.77978 c 0,0 -67.83878,70.229253 13.42163,100.325253 40.4874,14.99475 57.78765,-23.32875 102.97215,-18.49875 69.27,7.40475 31.68525,46.21275 76.179,64.26922 z"
         id="path1211-8"
         style="clip-rule:evenodd;opacity:1;fill:url(#LinearGradient_2-7);fill-rule:evenodd;stroke-width:0.75;stroke-linecap:round;stroke-linejoin:round"
         inkscape:connector-curvature="0" /><path
         d="m -47.546903,44.031837 c 0,-19.139251 -91.142257,-34.6545011 -203.571757,-34.6545011 -112.43025,0 -203.57225,15.5152501 -203.57225,34.6545011 0,19.1385 91.142,34.653751 203.57225,34.653751 112.4295,0 203.571757,-15.515251 203.571757,-34.653751"
         id="path1213"
         inkscape:connector-curvature="0"
         style="clip-rule:evenodd;opacity:1;fill:#272822;fill-rule:evenodd;stroke-width:0.75;stroke-linecap:round;stroke-linejoin:round;fill-opacity:1" /><path
         d="m -341.29566,192.87834 c -8.02725,11.24137 15.879,1.85025 25.9725,7.57807 10.0935,5.72775 -12.73125,10.99418 -9.4425,13.93155 8.26875,7.3845 25.12875,-1.07265 26.5635,3.5727 1.27575,4.13258 -8.31675,9.48353 0,11.6637 8.88525,2.32928 11.2905,-2.83357 19.5735,0 4.1805,1.43003 24.2085,7.52363 28.09875,6.33165 9.27975,-2.84362 -28.09875,-13.93395 -28.09875,-21.56805 0,-7.63417 28.09875,-1.76295 28.09875,-8.96857 0,-7.20555 -34.9635,2.55105 -28.09875,-12.54105 3.10725,-6.831 20.07225,3.96727 27.2085,-4.401 2.7915,-3.273 -18.408,-4.92225 -21.84,-10.6845 -0.99825,-1.677 -14.4225,-13.8045 -9.288,-20.2935 2.31525,-2.92575 20.4105,18.83025 26.19525,12.2565 5.784,-6.57375 -10.953,-14.94675 -7.81725,-19.569 2.9115,-4.29225 10.36425,-1.82775 18.97275,0 8.60925,1.8285 11.5965,14.77275 15.462,7.3125 3.8655,-7.4595 -20.8335,-41.787 -20.8335,-42.61125 0,-52.513503 -41.961,-46.621503 -75.94125,-46.621503 -0.52275,0 -21.85725,-6.28125 -28.992,-3.81375 -6.89475,2.385 14.21325,14.209501 -3.80325,14.209501 -17.343,0 -24.8988,-0.0735 -24.7935,6.81525 0.0772,5.06925 37.89675,-7.5075 35.44575,5.628755 -3.3735,18.080247 -35.44575,17.417247 -31.1325,21.156747 12.31275,10.67625 63.4545,-17.343747 60.08925,-9.93825 -3.84075,8.451 0.58575,12.56325 -3.84075,21.198 -3.53175,6.89025 -23.343,-12.747 -26.4885,-4.8 -4.7535,12.0075 25.82625,20.892 26.83425,22.227 9.63225,12.7575 -21.46275,9.237 -21.46275,16.5495 0,7.9995 33.9615,-5.06925 31.53375,12.86475 -0.54375,4.0185 -20.25975,-2.56875 -21.40725,0 -2.664,5.964 6.03525,5.7375 15.105,12.795 5.86575,4.5645 -15.105,0.2415 -21.873,9.71925 z"
         id="path1215-7"
         inkscape:connector-curvature="0"
         style="clip-rule:evenodd;opacity:1;fill:#a6e22e;fill-rule:evenodd;stroke-width:0.75;stroke-linecap:round;stroke-linejoin:round" /><path
         d="m -284.58741,195.39736 c -0.24225,4.0098 4.6575,6.78923 6.789,10.65758 2.1315,3.86827 -4.97325,4.263 -4.6575,8.05237 0.53625,6.43425 15.83475,12.28568 28.4985,18.31515 5.709,2.71785 2.48475,3.8223 3.4275,3.53355 3.8595,-1.18275 -0.3525,-3.79215 -6.58875,-6.9861 -8.7585,-4.48515 -21.51,-10.12312 -21.51,-14.58195 0,-7.63417 28.09875,-1.76295 28.09875,-8.96857 0,-7.20555 -34.9635,2.55105 -28.09875,-12.54105 3.10725,-6.831 20.07225,3.96727 27.2085,-4.401 2.7915,-3.273 -18.408,-4.92225 -21.84,-10.6845 -0.99825,-1.677 -14.4225,-13.8045 -9.288,-20.2935 2.31525,-2.92575 20.4105,18.83025 26.19525,12.2565 5.784,-6.57375 -10.953,-14.94675 -7.81725,-19.569 2.9115,-4.29225 10.36425,-1.82775 18.97275,0 8.60925,1.8285 11.5965,14.77275 15.462,7.3125 3.8655,-7.4595 -20.8335,-41.787 -20.8335,-42.61125 -4.02825,7.44825 -1.629,13.5615 -1.629,20.454 0,7.1745 -13.51575,-0.66675 -20.63025,10.22325 -2.74125,4.1955 -9.564,3.34725 -11.76825,4.42875 -11.65275,5.71875 -1.26525,19.55625 0.68325,22.32975 1.94925,2.77275 12.5655,9.47175 10.81875,12.4455 -2.02875,3.45525 -10.83075,-0.35625 -11.493,10.62802 z"
         id="path1217-4"
         inkscape:connector-curvature="0"
         style="clip-rule:evenodd;opacity:1;fill:#8bc615;fill-rule:evenodd;stroke-width:0.75;stroke-linecap:round;stroke-linejoin:round" /></g><g
       id="g1258"
       style="clip-rule:evenodd;opacity:1;fill-rule:evenodd;stroke-linecap:round;stroke-linejoin:round"
       transform="matrix(0.75000002,0,0,-0.75000002,-14.059071,251.97168)"><path
         id="path1254"
         d="m 112.58,70.0817 c 9.908,0 17.941,8.032 17.941,17.9414 0,9.908 -8.033,17.9409 -17.941,17.9409 -9.908,0 -17.9411,-8.0329 -17.9411,-17.9409 0,-9.9094 8.0331,-17.9414 17.9411,-17.9414"
         inkscape:connector-curvature="0"
         style="opacity:1;fill:#66d9ef" /><path
         id="path1256"
         d="m 116.72,75.1937 c 1.575,-0.0253 2.951,0.4747 4.214,1.2294 1.251,0.7626 2.333,1.836 3.143,3.0986 0.818,1.2534 1.368,2.7094 1.494,4.1974 0.175,1.476 -0.087,2.9786 -0.762,4.304 -0.187,0.3666 -0.636,0.5133 -1.003,0.3266 -0.121,-0.0626 -0.219,-0.1533 -0.288,-0.26 l -0.043,-0.0666 c -0.77,-1.2067 -1.226,-2.2574 -1.796,-3.216 -0.51,-0.972 -1.051,-1.8454 -1.597,-2.7267 -0.549,-0.8787 -1.133,-1.7573 -1.792,-2.668 -0.641,-0.9227 -1.378,-1.8773 -2.094,-2.9933 l -0.073,-0.1134 c -0.216,-0.3346 -0.118,-0.7826 0.217,-0.9973 0.117,-0.076 0.25,-0.112 0.38,-0.1147"
         inkscape:connector-curvature="0"
         style="opacity:1;fill:#ffffff" /></g><path
       inkscape:connector-curvature="0"
       id="path122"
       style="fill:#040606;fill-opacity:1;fill-rule:nonzero;stroke:none;stroke-width:0.1"
       d="m 127.074,128.15676 c -0.741,-1.297 -1.505,-2.165 -2.205,-3.045 -0.683,-0.904 -1.396,-1.587 -2.032,-2.318 -1.338,-1.356 -2.564,-2.535 -3.925,-3.588 -1.355,-1.067 -2.696,-2.165 -4.248,-3.3 -1.573,-1.14 -3.213,-2.367 -5.408,-3.778 l -0.08,-0.051 c -0.279,-0.179 -0.649,-0.098 -0.828,0.18 -0.024,0.038 -0.045,0.08 -0.06,0.121 -0.958,2.668 -0.638,5.275 0.148,7.674 0.821,2.394 2.25,4.583 4.118,6.305 1.857,1.718 4.1,3.079 6.6,3.582 2.458,0.574 5.103,0.453 7.67,-0.814 0.325,-0.161 0.459,-0.554 0.299,-0.88 -0.006,-0.011 -0.012,-0.023 -0.018,-0.034 l -0.031,-0.054" /><path
       inkscape:connector-curvature="0"
       id="path124"
       style="fill:#040606;fill-opacity:1;fill-rule:nonzero;stroke:none;stroke-width:0.1"
       d="m 232.566,129.12476 c 2.567,1.267 5.212,1.388 7.67,0.814 2.499,-0.503 4.743,-1.864 6.599,-3.582 1.869,-1.722 3.297,-3.911 4.119,-6.305 0.786,-2.399 1.106,-5.006 0.147,-7.674 -0.111,-0.311 -0.455,-0.473 -0.767,-0.361 -0.042,0.016 -0.082,0.035 -0.118,0.058 l -0.083,0.053 c -2.195,1.411 -3.834,2.638 -5.407,3.778 -1.553,1.135 -2.894,2.233 -4.248,3.3 -1.362,1.053 -2.587,2.232 -3.925,3.588 -0.637,0.731 -1.349,1.414 -2.033,2.318 -0.699,0.88 -1.464,1.748 -2.204,3.045 l -0.03,0.052 c -0.18,0.316 -0.071,0.718 0.245,0.898 0.01,0.006 0.023,0.013 0.035,0.018" /><path
       inkscape:connector-curvature="0"
       id="path126"
       style="fill:#f5748f;fill-opacity:1;fill-rule:evenodd;stroke:none;stroke-width:0.1"
       d="m 99.906999,67.510756 -29.6566,-12.9828 c -4.7984,-2.1012 -13.6136,19.7078 -7.3066,30.1378 6.3066,10.4301 34.9332,-0.5992 34.9332,-0.5992 3.019001,-3.8457 4.425001,-15.5066 2.03,-16.5558" /><path
       inkscape:connector-curvature="0"
       id="path128"
       style="fill:#f36082;fill-opacity:1;fill-rule:evenodd;stroke:none;stroke-width:0.1"
       d="m 88.784799,73.021656 c -1.007,-8.7598 -10.5598,-14.784 -15.6648,-17.2379 l 26.788,11.727 c 0,0 -7.6267,35.937004 -11.1232,5.5109" /><path
       inkscape:connector-curvature="0"
       id="path130"
       style="fill:#f9b1bc;fill-opacity:1;fill-rule:evenodd;stroke:none;stroke-width:0.1"
       d="m 99.611422,52.060396 c 12.212598,-31.7321 47.406638,-11.589719 55.669638,-10.685419 6.684,0.7301 13.80666,-6.716165 28.71666,-7.200165 14.909,-0.4832 24.07377,4.841673 36.88577,3.003473 12.812,-1.8379 30.29955,-19.944797 70.71955,-7.898697 53.413,16.1191 -11.44304,140.498172 -96.64804,140.498172 -85.205,0 -107.556478,-85.986564 -95.343578,-117.717364 v 0"
       sodipodi:nodetypes="cccccscc" /><path
       inkscape:connector-curvature="0"
       id="path132"
       style="fill:#2f3031;fill-opacity:1;fill-rule:evenodd;stroke:none;stroke-width:0.1"
       d="m 264.197,78.106856 c -15.256,-30.4211 -73.675,1.2699 -94.511,-0.6219 -20.838,-1.8934 -52.88,-17.9024 -63.628,3.5457 -10.748601,21.448104 8.611,59.214104 39.023,55.399104 12.626,-1.584 21.687,-9.217 33.907,-10.421 17.721,-1.747 33.439,14.567 53.453,8.467 21.058,-6.418 43.418,-33.115 31.756,-56.368904 z m -69.242,91.670904 c -85.205,0 -112.901501,-86.861204 -100.688601,-118.592004 v 0 C 106.479,19.453656 146.056,35.866556 154.319,36.770856 c 6.684,0.7301 14.7,-4.5859 29.61,-5.0691 14.909,-0.484 23.043,3.8101 35.855,1.9719 12.812,-1.8379 32.711,-19.55 73.131,-7.5039 53.413,16.1191 -12.755,143.608004 -97.96,143.608004" /><path
       inkscape:connector-curvature="0"
       id="path134"
       style="fill:#ffffff;fill-opacity:1;fill-rule:nonzero;stroke:none;stroke-width:0.1"
       d="m 153.627,98.580656 c 0.144,-11.502 -8.915,-20.9469 -20.233,-21.0938 v 0 c -11.317,-0.1472 -20.609,9.059 -20.752,20.5618 -0.144,11.503104 8.914,20.948104 20.232,21.094104 v 0 c 11.318,0.147 20.609,-9.059 20.753,-20.562104" /><path
       inkscape:connector-curvature="0"
       id="path136"
       style="fill:#040606;fill-opacity:1;fill-rule:nonzero;stroke:none;stroke-width:0.1"
       d="m 134.065,81.859956 c -8.835,-0.5402 -16.43,6.2969 -16.968,15.2769 -0.538,8.979904 6.185,16.703904 15.019,17.258904 8.835,0.554 16.441,-6.271 16.994,-15.274904 0.526,-9.007 -6.209,-16.7211 -15.045,-17.2609" /><path
       inkscape:connector-curvature="0"
       id="path138"
       style="fill:#f9b1bc;fill-opacity:1;fill-rule:nonzero;stroke:none;stroke-width:0.1"
       d="m 149.422,88.998656 -39.624,22.425104 10.313,5.551 5.001,5.475 22.213,3.559 7.331,-16.012 -5.234,-20.998104" /><path
       inkscape:connector-curvature="0"
       id="path140"
       style="fill:#040606;fill-opacity:1;fill-rule:nonzero;stroke:none;stroke-width:0.1"
       d="m 144.585,104.39376 c -1.204,0.884 -1.98,1.742 -2.774,2.538 -0.819,0.781 -1.417,1.568 -2.07,2.284 -1.194,1.485 -2.225,2.836 -3.116,4.309 -0.905,1.468 -1.842,2.925 -2.793,4.597 -0.953,1.693 -1.985,3.461 -3.135,5.803 l -0.043,0.086 c -0.146,0.297 -0.023,0.656 0.274,0.803 0.041,0.019 0.085,0.035 0.127,0.045 2.76,0.647 5.314,0.031 7.608,-1.023 2.283,-1.089 4.295,-2.759 5.792,-4.811 1.494,-2.041 2.59,-4.426 2.805,-6.966 0.29,-2.508 -0.133,-5.122 -1.684,-7.527 -0.197,-0.306 -0.604,-0.393 -0.909,-0.197 -0.011,0.007 -0.021,0.014 -0.031,0.022 l -0.051,0.037" /><path
       inkscape:connector-curvature="0"
       id="path142"
       style="fill:#f9b1bc;fill-opacity:1;fill-rule:nonzero;stroke:none;stroke-width:0.1"
       d="M 199.969,100.18966 C 200.9,85.527956 189.15,72.833756 173.717,71.830656 c -15.434,-1.002 -28.713,10.0641 -29.669,24.725 -0.956,14.661104 10.773,27.372104 26.205,28.399104 15.432,1.026 28.73,-10.02 29.71,-24.6792" /><path
       inkscape:connector-curvature="0"
       id="path144"
       style="fill:#a7505d;fill-opacity:1;fill-rule:nonzero;stroke:none;stroke-width:0.1"
       d="m 197.636,90.782556 c -3.283,-9.7769 -12.592,-17.1578 -23.992,-17.8957 -14.82,-0.9621 -27.57,9.6668 -28.485,23.745 -0.417,6.421904 1.7,12.453904 5.533,17.208904 0,0 2.414,2.726 0.954,3.884 -1.46,1.159 -3.539,-2.09 -3.539,-2.09 -4.266,-5.316 -6.621,-12.052 -6.153,-19.220904 1.031,-15.7539 15.302,-27.6461 31.888,-26.5699 12.777,0.8289 23.206,9.1117 26.868,20.0769 0,0 0.86,2.2457 -0.648,2.7848 -1.507,0.5402 -2.426,-1.9231 -2.426,-1.9231 v 0" /><path
       inkscape:connector-curvature="0"
       id="path146"
       style="fill:#ffffff;fill-opacity:1;fill-rule:nonzero;stroke:none;stroke-width:0.1"
       d="m 246.001,97.782556 c 0.144,-11.5027 -8.915,-20.9476 -20.232,-21.0937 v 0 c -11.318,-0.1481 -20.609,9.0578 -20.753,20.5609 -0.144,11.503004 8.914,20.948004 20.232,21.095004 v 0 c 11.318,0.147 20.61,-9.059 20.753,-20.562204 v 0" /><path
       inkscape:connector-curvature="0"
       id="path148"
       style="fill:#040606;fill-opacity:1;fill-rule:nonzero;stroke:none;stroke-width:0.1"
       d="m 226.44,81.060756 c -8.836,-0.5399 -16.431,6.298 -16.969,15.2769 -0.538,8.980104 6.185,16.705104 15.02,17.259104 8.835,0.555 16.44,-6.27 16.994,-15.275104 0.525,-9.007 -6.209,-16.7211 -15.045,-17.2609" /><path
       inkscape:connector-curvature="0"
       id="path150"
       style="fill:#f9b1bc;fill-opacity:1;fill-rule:nonzero;stroke:none;stroke-width:0.1"
       d="m 205.014,88.998656 39.624,22.425104 -10.312,5.551 -5.219,1.052 -5.856,1.012 -23.471,-9.042 5.234,-20.998104" /><path
       inkscape:connector-curvature="0"
       id="path152"
       style="fill:#f5748f;fill-opacity:1;fill-rule:evenodd;stroke:none;stroke-width:0.1"
       d="m 277.547,61.475556 33.344,-26.8308 c 5.395,-4.3418 22.043,18.1351 17.08,33.8628 -4.962,15.7282 -43.685,10.8364 -43.685,10.8364 -4.829,-4.0211 -9.431,-15.7012 -6.739,-17.8684 v 0" /><path
       inkscape:connector-curvature="0"
       id="path154"
       style="fill:#f36082;fill-opacity:1;fill-rule:evenodd;stroke:none;stroke-width:0.1"
       d="m 319.025,76.846656 v 0 c 13.51,-10.0918 4.929,-28.991 -1.269,-36.0809 -5.584,-6.3878 -33.746,15.5469 -39.265,19.9508 l 32.4,-26.0718 c 5.395,-4.3411 22.043,18.1351 17.08,33.8628 -1.243,3.9403 -4.605,6.5864 -8.946,8.3391" /><path
       inkscape:connector-curvature="0"
       id="path156"
       style="fill:#040606;fill-opacity:1;fill-rule:nonzero;stroke:none;stroke-width:0.1"
       d="m 204.12,105.51076 c -0.647,2.789 -0.16,5.392 0.962,7.653 1.061,2.319 2.899,4.192 4.996,5.607 2.103,1.425 4.561,2.315 7.079,2.567 2.515,0.217 5.126,-0.067 7.505,-1.611 0.277,-0.18 0.356,-0.551 0.175,-0.828 -0.024,-0.038 -0.052,-0.072 -0.083,-0.103 l -0.071,-0.068 c -1.875,-1.814 -3.444,-3.13 -4.914,-4.401 -1.46,-1.251 -2.836,-2.306 -4.185,-3.38 -1.336,-1.085 -2.763,-2.009 -4.389,-3.001 -0.857,-0.453 -1.686,-0.99 -2.721,-1.449 -1.017,-0.48 -2.036,-1.026 -3.469,-1.45 l -0.058,-0.017 c -0.348,-0.104 -0.714,0.095 -0.818,0.443 -0.003,0.013 -0.006,0.026 -0.009,0.038" /><path
       inkscape:connector-curvature="0"
       id="path158"
       style="fill:#ffffff;fill-opacity:1;fill-rule:nonzero;stroke:none;stroke-width:0.1"
       d="m 232.649,91.077956 c 1.147,-0.068 1.985,-1.2512 1.87,-2.643 -0.114,-1.3922 -1.139,-2.4641 -2.286,-2.3961 -1.148,0.0668 -1.985,1.25 -1.87,2.6418 0.114,1.3922 1.137,2.4641 2.286,2.3973" /><path
       inkscape:connector-curvature="0"
       id="path160"
       style="fill:#ffffff;fill-opacity:1;fill-rule:nonzero;stroke:none;stroke-width:0.1"
       d="m 138.877,91.077956 c 1.147,-0.068 1.985,-1.2512 1.87,-2.643 -0.115,-1.3922 -1.138,-2.4641 -2.286,-2.3961 -1.148,0.0668 -1.985,1.25 -1.871,2.6418 0.116,1.3922 1.139,2.4641 2.287,2.3973" /><path
       inkscape:connector-curvature="0"
       id="path162"
       style="fill:#2f3031;fill-opacity:1;fill-rule:evenodd;stroke:none;stroke-width:0.1"
       d="m 261.7,135.12176 c 0,0 11.655,31.562 29.847,40.238 0.804,0.384 1.576,-0.583 1.042,-1.298 -3.016,-4.044 -6.401,-12.069 6.367,-19.114 0.787,-0.435 0.47,-1.627 -0.429,-1.607 -8.338,0.182 -26.031,-1.849 -33.857,-21.07 l -2.97,2.851" /><path
       inkscape:connector-curvature="0"
       id="path164"
       style="fill:#2f3031;fill-opacity:1;fill-rule:evenodd;stroke:none;stroke-width:0.1"
       d="m 266.272,135.65576 c 0,0 14.586,0.852 24.285,7.515 14.572,10.012 39.42,15.805 48.619,1.754 0.388,-0.593 0.147,-1.389 -0.508,-1.658 -2.769,-1.139 -9.033,-4.707 -6.636,-13.074 0.304,-1.065 -0.932,-1.885 -1.78,-1.173 -5.685,4.776 -17.005,12.432 -29.276,10.359 -17.524,-2.961 -24.698,-8.778 -33.136,-7.301 l -1.568,3.578" /><path
       inkscape:connector-curvature="0"
       id="path166"
       style="fill:#2f3031;fill-opacity:1;fill-rule:evenodd;stroke:none;stroke-width:0.1"
       d="m 207.629,181.04076 -2.998,38.863 c -0.143,1.851 1.242,3.468 3.093,3.61 l 8.845,0.683 c 1.851,0.143 3.468,-1.242 3.61,-3.093 l 2.999,-38.863 -15.549,-1.2" /><path
       inkscape:connector-curvature="0"
       id="path168"
       style="fill:#ffffff;fill-opacity:1;fill-rule:evenodd;stroke:none;stroke-width:0.1"
       d="m 207.185,214.97676 5.397,3.227 5.83,-2.361 -5.398,-3.228 -5.829,2.362" /><path
       inkscape:connector-curvature="0"
       id="path170"
       style="fill:#ffffff;fill-opacity:1;fill-rule:evenodd;stroke:none;stroke-width:0.1"
       d="m 207.719,208.05476 5.398,3.227 5.829,-2.361 -5.398,-3.228 -5.829,2.362" /><path
       inkscape:connector-curvature="0"
       id="path172"
       style="fill:#ffffff;fill-opacity:1;fill-rule:evenodd;stroke:none;stroke-width:0.1"
       d="m 208.253,201.13276 5.398,3.227 5.829,-2.361 -5.398,-3.227 -5.829,2.361" /><path
       inkscape:connector-curvature="0"
       id="path174"
       style="fill:#ffffff;fill-opacity:1;fill-rule:evenodd;stroke:none;stroke-width:0.1"
       d="m 208.788,194.21076 5.397,3.227 5.829,-2.361 -5.397,-3.228 -5.829,2.362" /><path
       inkscape:connector-curvature="0"
       id="path176"
       style="fill:#ffffff;fill-opacity:1;fill-rule:evenodd;stroke:none;stroke-width:0.1"
       d="m 209.322,187.28876 5.397,3.227 5.829,-2.361 -5.397,-3.228 -5.829,2.362" /><path
       inkscape:connector-curvature="0"
       id="path178"
       style="fill:#2f3031;fill-opacity:1;fill-rule:evenodd;stroke:none;stroke-width:0.1"
       d="m 199.342,177.81076 v 0 c -0.11,1.422 0.954,2.664 2.376,2.775 l 27.372,2.111 c 1.422,0.11 2.664,-0.954 2.774,-2.376 v 0 c 0.109,-1.422 -0.954,-2.664 -2.376,-2.774 l -27.372,-2.112 c -1.423,-0.11 -2.664,0.954 -2.774,2.376" /><path
       inkscape:connector-curvature="0"
       id="path180"
       style="fill:#2f3031;fill-opacity:1;fill-rule:evenodd;stroke:none;stroke-width:0.1"
       d="m 208.994,143.74276 -2.55,33.037 18.56,1.432 2.549,-33.037 -18.559,-1.432" /><path
       inkscape:connector-curvature="0"
       id="path182"
       style="fill:#2f3031;fill-opacity:1;fill-rule:evenodd;stroke:none;stroke-width:0.1"
       d="m 247.011,174.30876 21.893,32.249 c 1.043,1.537 3.134,1.937 4.67,0.894 l 7.339,-4.983 c 1.537,-1.043 1.936,-3.133 0.893,-4.67 l -21.892,-32.249 -12.903,8.759" /><path
       inkscape:connector-curvature="0"
       id="path184"
       style="fill:#ffffff;fill-opacity:1;fill-rule:evenodd;stroke:none;stroke-width:0.1"
       d="m 267.828,201.11376 6.232,-0.844 3.083,-5.481 -6.231,0.844 -3.084,5.481" /><path
       inkscape:connector-curvature="0"
       id="path186"
       style="fill:#ffffff;fill-opacity:1;fill-rule:evenodd;stroke:none;stroke-width:0.1"
       d="m 263.928,195.36976 6.233,-0.844 3.083,-5.481 -6.232,0.844 -3.084,5.481" /><path
       inkscape:connector-curvature="0"
       id="path188"
       style="fill:#ffffff;fill-opacity:1;fill-rule:evenodd;stroke:none;stroke-width:0.1"
       d="m 260.029,189.62476 6.231,-0.843 3.084,-5.48 -6.231,0.843 -3.084,5.48" /><path
       inkscape:connector-curvature="0"
       id="path190"
       style="fill:#ffffff;fill-opacity:1;fill-rule:evenodd;stroke:none;stroke-width:0.1"
       d="m 256.129,183.88176 6.232,-0.843 3.084,-5.482 -6.233,0.844 -3.083,5.481" /><path
       inkscape:connector-curvature="0"
       id="path192"
       style="fill:#ffffff;fill-opacity:1;fill-rule:evenodd;stroke:none;stroke-width:0.1"
       d="m 252.23,178.13776 6.231,-0.843 3.084,-5.482 -6.232,0.844 -3.083,5.481" /><path
       inkscape:connector-curvature="0"
       id="path194"
       style="fill:#2f3031;fill-opacity:1;fill-rule:evenodd;stroke:none;stroke-width:0.1"
       d="m 238.518,176.95376 v 0 c 0.801,1.18 2.407,1.487 3.587,0.685 l 22.714,-15.419 c 1.18,-0.801 1.487,-2.407 0.686,-3.587 v 0 c -0.801,-1.18 -2.407,-1.488 -3.588,-0.686 l -22.712,15.419 c -1.181,0.801 -1.488,2.407 -0.687,3.588" /><path
       inkscape:connector-curvature="0"
       id="path196"
       style="fill:#2f3031;fill-opacity:1;fill-rule:evenodd;stroke:none;stroke-width:0.1"
       d="m 224.815,144.30276 18.611,27.415 15.402,-10.456 -18.612,-27.414 -15.401,10.455" /><path
       inkscape:connector-curvature="0"
       id="path198"
       style="fill:#e9e9e9;fill-opacity:1;fill-rule:nonzero;stroke:none;stroke-width:0.1"
       d="m 68.908999,89.408756 c -1.7051,0 -3.0867,1.382 -3.0867,3.0879 0,1.7051 1.3816,3.0859 3.0867,3.0859 1.7051,0 3.0875,-1.3808 3.0875,-3.0859 0,-1.7059 -1.3824,-3.0879 -3.0875,-3.0879 z m 15.0914,-1.023 c -0.5863,-0.2758 -1.2398,-0.4348 -1.9312,-0.4321 -2.4867,0.0063 -4.4961,2.0289 -4.4883,4.5153 0.0074,2.4867 2.0293,4.4957 4.5164,4.4879 0.6926,-0.0012 1.3457,-0.1653 1.9309,-0.4461 -0.0086,0.034 -0.0149,0.0699 -0.0247,0.1058 l 7.52,8.629204 -11.2809,-1.969 c -0.1004,0.105 -0.209,0.204 -0.3125,0.306 -0.0496,-0.643 -0.234,-1.286 -0.5754,-1.883 -1.2336,-2.159004 -3.984,-2.909004 -6.1429,-1.675 -2.1586,1.234 -2.9086,3.984 -1.6747,6.143 0.3438,0.602 0.8082,1.089 1.3418,1.459 -0.0492,0.013 -0.0968,0.031 -0.1464,0.043 l -3.8235,10.786 -3.8226,-10.786 c -0.0899,-0.022 -0.1762,-0.052 -0.2657,-0.077 0.5356,-0.365 1.0032,-0.848 1.3512,-1.447 1.2508,-2.149 0.5234,-4.904 -1.6254,-6.155004 -2.1492,-1.2511 -4.9055,-0.5242 -6.1562,1.625004 -0.3473,0.596 -0.5368,1.24 -0.591,1.885 -0.0387,-0.039 -0.0801,-0.075 -0.118,-0.114 l -11.261,2.078 7.436,-8.702904 c -0.0145,-0.0519 -0.0242,-0.1043 -0.0383,-0.1562 0.5863,0.2762 1.2395,0.4351 1.9316,0.4332 2.4864,-0.007 4.4961,-2.0301 4.4883,-4.516 -0.0082,-2.486 -2.0301,-4.4961 -4.5164,-4.4879 -0.6926,0.0019 -1.3461,0.1648 -1.9316,0.4469 0.0094,-0.0352 0.0156,-0.0711 0.025,-0.1059 l -7.5196,-8.6293 11.2809,1.968 c 0.1004,-0.1047 0.209,-0.2028 0.3121,-0.3059 0.0496,0.643 0.2344,1.286 0.5754,1.8828 1.234,2.1602 3.984,2.9094 6.1426,1.675 2.1594,-1.2328 2.9094,-3.984 1.6754,-6.1418 -0.3438,-0.6019 -0.8082,-1.0898 -1.3422,-1.4601 0.0496,-0.0129 0.0973,-0.0309 0.1469,-0.0418 l 3.8226,-10.7871 3.8235,10.7871 c 0.0898,0.0219 0.1761,0.0519 0.2652,0.0758 -0.5359,0.366 -1.0031,0.8492 -1.3508,1.4472 -1.2516,2.1489 -0.5234,4.9051 1.6254,6.1559 2.1492,1.2512 4.9051,0.5238 6.1559,-1.6258 0.3476,-0.5961 0.5371,-1.2402 0.5914,-1.8844 0.0386,0.0391 0.08,0.0742 0.1179,0.1133 l 11.261,-2.0769 -7.4367,8.7019 c 0.0148,0.052 0.025,0.1039 0.0386,0.1559" /><g
       id="g1264"
       style="clip-rule:evenodd;opacity:1;fill-rule:evenodd;stroke-linecap:round;stroke-linejoin:round"
       transform="matrix(0.75000002,0,0,-0.75000002,-14.059071,251.97168)"><path
         id="path1260"
         d="m 133.965,116.426 c 6.005,0 10.872,4.868 10.872,10.873 0,6.005 -4.867,10.873 -10.872,10.873 -6.006,0 -10.874,-4.868 -10.874,-10.873 0,-6.005 4.868,-10.873 10.874,-10.873"
         inkscape:connector-curvature="0"
         style="opacity:1;fill:#66d9ef" /><path
         id="path1262"
         d="m 136.474,119.523 c 0.954,-0.015 1.788,0.288 2.553,0.745 0.758,0.462 1.414,1.112 1.906,1.878 0.495,0.76 0.828,1.642 0.904,2.544 0.107,0.896 -0.052,1.805 -0.461,2.609 -0.113,0.223 -0.385,0.311 -0.607,0.197 -0.075,-0.037 -0.134,-0.093 -0.175,-0.157 l -0.026,-0.04 c -0.467,-0.732 -0.744,-1.369 -1.089,-1.949 -0.309,-0.59 -0.637,-1.119 -0.968,-1.654 -0.332,-0.532 -0.687,-1.064 -1.086,-1.616 -0.388,-0.56 -0.835,-1.138 -1.269,-1.814 l -0.045,-0.07 c -0.13,-0.202 -0.071,-0.473 0.133,-0.604 0.07,-0.045 0.151,-0.068 0.23,-0.069"
         inkscape:connector-curvature="0"
         style="opacity:1;fill:#ffffff" /></g><g
       id="g1270"
       style="clip-rule:evenodd;opacity:1;fill-rule:evenodd;stroke-linecap:round;stroke-linejoin:round"
       transform="matrix(0.75000002,0,0,-0.75000002,-14.059071,251.97168)"><path
         id="path1266"
         d="m 106.149,141.644 c 6.982,0 12.64,5.659 12.64,12.639 0,6.981 -5.658,12.641 -12.64,12.641 -6.9809,0 -12.6402,-5.66 -12.6402,-12.641 0,-6.98 5.6593,-12.639 12.6402,-12.639"
         inkscape:connector-curvature="0"
         style="opacity:1;fill:#66d9ef" /><path
         id="path1268"
         d="m 109.066,145.244 c 1.109,-0.016 2.079,0.335 2.969,0.867 0.881,0.539 1.644,1.293 2.215,2.184 0.576,0.883 0.964,1.909 1.052,2.956 0.124,1.04 -0.061,2.099 -0.537,3.032 -0.131,0.26 -0.448,0.363 -0.706,0.231 -0.086,-0.044 -0.155,-0.108 -0.203,-0.184 l -0.03,-0.047 c -0.543,-0.849 -0.865,-1.589 -1.266,-2.265 -0.359,-0.686 -0.74,-1.3 -1.125,-1.922 -0.387,-0.618 -0.798,-1.237 -1.263,-1.878 -0.451,-0.651 -0.97,-1.323 -1.475,-2.11 l -0.052,-0.08 c -0.151,-0.236 -0.083,-0.55 0.153,-0.702 0.083,-0.054 0.177,-0.079 0.268,-0.082"
         inkscape:connector-curvature="0"
         style="opacity:1;fill:#ffffff" /></g><g
       id="g1276"
       style="clip-rule:evenodd;opacity:1;fill-rule:evenodd;stroke-linecap:round;stroke-linejoin:round"
       transform="matrix(0.75000002,0,0,-0.75000002,-14.059071,251.97168)"><path
         id="path1272"
         d="m 132.52,173.844 c 3.663,0 6.633,2.97 6.633,6.634 0,3.662 -2.97,6.632 -6.633,6.632 -3.664,0 -6.633,-2.97 -6.633,-6.632 0,-3.664 2.969,-6.634 6.633,-6.634"
         inkscape:connector-curvature="0"
         style="opacity:1;fill:#66d9ef" /><path
         id="path1274"
         d="m 134.05,175.734 c 0.583,-0.008 1.092,0.176 1.558,0.454 0.463,0.283 0.862,0.679 1.163,1.146 0.301,0.464 0.505,1.002 0.551,1.552 0.066,0.545 -0.031,1.101 -0.281,1.592 -0.069,0.134 -0.235,0.189 -0.371,0.12 -0.045,-0.023 -0.081,-0.058 -0.107,-0.096 l -0.015,-0.024 c -0.285,-0.447 -0.454,-0.835 -0.665,-1.19 -0.188,-0.36 -0.388,-0.682 -0.59,-1.008 -0.203,-0.325 -0.418,-0.649 -0.662,-0.986 -0.237,-0.342 -0.51,-0.694 -0.775,-1.107 l -0.026,-0.041 c -0.081,-0.124 -0.044,-0.29 0.08,-0.37 0.044,-0.028 0.093,-0.041 0.14,-0.042"
         inkscape:connector-curvature="0"
         style="opacity:1;fill:#ffffff" /></g></g></svg>