<?xml version="1.0" encoding="UTF-8" standalone="no"?>
<svg
   style="fill-rule:evenodd;clip-rule:evenodd;stroke-linecap:round;stroke-linejoin:round;"
   xml:space="preserve"
   version="1.1"
   viewBox="0 0 554.893 345.613"
   id="svg1279"
   sodipodi:docname="Blobartist.svg"
   inkscape:version="1.2 (dc2aeda, 2022-05-15)"
   xmlns:inkscape="http://www.inkscape.org/namespaces/inkscape"
   xmlns:sodipodi="http://sodipodi.sourceforge.net/DTD/sodipodi-0.dtd"
   xmlns="http://www.w3.org/2000/svg"
   xmlns:svg="http://www.w3.org/2000/svg"
   xmlns:rdf="http://www.w3.org/1999/02/22-rdf-syntax-ns#"
   xmlns:cc="http://creativecommons.org/ns#"
   xmlns:dc="http://purl.org/dc/elements/1.1/"
   xmlns:vectornator="http://vectornator.io"><sodipodi:namedview
   pagecolor="#ffffff"
   bordercolor="#666666"
   borderopacity="1"
   objecttolerance="10"
   gridtolerance="10"
   guidetolerance="10"
   inkscape:pageopacity="0"
   inkscape:pageshadow="2"
   inkscape:window-width="1920"
   inkscape:window-height="1027"
   id="namedview1281"
   showgrid="false"
   inkscape:zoom="0.68281252"
   inkscape:cx="322.92905"
   inkscape:cy="216.0183"
   inkscape:window-x="1512"
   inkscape:window-y="25"
   inkscape:window-maximized="1"
   inkscape:current-layer="svg1279"
   inkscape:document-rotation="0"
   inkscape:pagecheckerboard="0"
   inkscape:snap-nodes="false"
   showguides="false"
   inkscape:showpageshadow="0"
   inkscape:deskcolor="#d1d1d1" />
<metadata
   id="metadata1190">
<vectornator:setting
   key="DynamicGuides"
   value="1" />
<vectornator:setting
   key="CMYKEnabledKey"
   value="0" />
<vectornator:setting
   key="Units"
   value="Points" />
<vectornator:setting
   key="GridSpacing"
   value="36" />
<vectornator:setting
   key="SnapToGuides"
   value="1" />
<vectornator:setting
   key="RulersVisible"
   value="1" />
<rdf:RDF><cc:Work
     rdf:about=""><dc:format>image/svg+xml</dc:format><dc:type
       rdf:resource="http://purl.org/dc/dcmitype/StillImage" /></cc:Work></rdf:RDF></metadata>
<defs
   id="defs1202" />



<style
   type="text/css"
   id="style2">
	.st0{fill-rule:evenodd;clip-rule:evenodd;fill:#F18F97;}
	.st1{fill-rule:evenodd;clip-rule:evenodd;fill:#EF7B88;}
	.st2{fill-rule:evenodd;clip-rule:evenodd;fill:#F8C6C8;}
	.st3{fill:#B16365;}
	.st4{fill:#FFFFFF;}
	.st5{fill:#020203;}
	.st6{fill:#F8C6C8;}
	.st7{fill:#183051;}
	.st8{fill:url(#SVGID_1_);}
	.st9{fill:#3D3D3B;}
	.st10{fill:#422A19;}
	.st11{fill:#754E24;}
	.st12{fill:#DADADA;}
</style><style
   id="style2647">svg {enable-background:new 0 0 288 288}</style><style
   id="style2649">.st3{fill:#375c93}.st4{fill:#8dc63f}</style><path
   style="clip-rule:evenodd;fill:#272822;fill-rule:evenodd;stroke-linecap:round;stroke-linejoin:round"
   inkscape:connector-curvature="0"
   id="path1622"
   d="m 548.87583,299.40701 c 0,25.519 -121.523,46.206 -271.429,46.206 -149.907,0 -271.4296588,-20.687 -271.4296588,-46.206 0,-25.518 121.5226588,-46.205 271.4296588,-46.205 149.906,0 271.429,20.687 271.429,46.205" /><g
   id="g4763"
   transform="translate(-11.22389,-2.5774879)"><path
     class="st0"
     d="m 144.63915,216.1554 c 0,0 14.9477,-6.70001 15.2809,-15.07023 0.33318,-8.37019 -10.33499,-28.53424 -20.33547,-3.72214 -9.85656,24.15184 5.05457,18.79237 5.05457,18.79237 z"
     id="path3821"
     style="stroke-width:0.838688" /><path
     id="path1148"
     style="fill:#f5c88e;fill-opacity:1;stroke:none;stroke-width:0.678061px;stroke-linecap:butt;stroke-linejoin:miter;stroke-opacity:1"
     d="m 98.628332,142.63328 c -9.09009,-1.4236 -17.61023,-0.78738 -24.71586,2.73946 -16.24144,8.06135 -24.23652,17.64592 -21.15802,41.92699 3.0785,24.28106 30.34767,65.75819 54.077388,73.01938 23.7297,7.26122 25.2154,1.07551 25.94941,-5.00592 0.734,-6.08142 -12.7684,-14.1276 -3.3526,-20.37918 9.4161,-6.25163 25.3545,29.30358 39.91753,25.11779 14.56302,-4.18581 21.62655,-18.35186 19.00725,-39.40892 -2.61928,-21.05706 -32.70198,-51.87141 -53.63438,-64.07871 -11.77449,-6.86662 -24.40378,-12.10048 -36.091018,-13.93084 z m 37.419228,58.51952 a 12.40198,7.8605562 37.222035 0 1 10.67563,5.95608 12.40198,7.8605562 37.222035 0 1 0.50978,12.75999 12.40198,7.8605562 37.222035 0 1 -15.49173,-5.30141 12.40198,7.8605562 37.222035 0 1 -0.51108,-12.76019 12.40198,7.8605562 37.222035 0 1 4.8174,-0.65447 z" /><path
     class="st0"
     d="m 183.03267,258.98066 c 0,0 3.05363,-30.87786 -10.5495,-39.28767 -13.60313,-8.4098 -57.26718,-9.80291 -25.50232,29.95012 30.80355,38.89615 36.05182,9.33755 36.05182,9.33755 z"
     id="path3819"
     style="stroke-width:1.59729" /><g
     id="g11054"
     transform="matrix(1.5972856,0,0,1.5972856,-147.04081,-488.94813)"
     style="fill:#ffc7c7;fill-opacity:1">
	<path
   id="path11052"
   class="st2"
   d="M 197.89539,476.59011 C 210.09539,508.29011 236.6,507 244.9,506.1 c 6.7,-0.7 14.7,4.6 29.6,5.1 14.9,0.5 23,-3.8 35.9,-2 12.8,1.8 46.72868,1.87861 66.00186,-17.2869 C 395.67504,472.7476 370.7,373.1 285.5,373.1 c -85.2,0 -99.90461,71.69011 -87.60461,103.49011 z"
   sodipodi:nodetypes="ccsczsc"
   style="fill:#ffc7c7;fill-opacity:1" />
</g><path
     style="fill:none;stroke:#b16365;stroke-width:4.79186;stroke-linecap:round;stroke-linejoin:miter;stroke-miterlimit:4;stroke-dasharray:none;stroke-opacity:1"
     d="m 378.98055,203.31304 c 0.63856,3.08802 1.12173,14.96161 -0.26547,22.30848 -1.38714,7.34688 -7.19142,12.79921 -10.80903,15.25057 -2.83904,1.92361 -16.34162,6.55829 -19.20642,12.01142 -2.86484,5.4533 -1.09168,15.70436 -1.09168,15.70436"
     id="path11056"
     sodipodi:nodetypes="czszc" /><path
     style="fill:none;stroke:#b16365;stroke-width:4.79186;stroke-linecap:round;stroke-linejoin:miter;stroke-miterlimit:4;stroke-dasharray:none;stroke-opacity:1"
     d="m 193.66752,202.09543 c -0.63855,3.08803 -1.12172,14.96161 0.26546,22.30848 1.38717,7.34689 7.19142,12.79921 10.80905,15.25057 2.83901,1.92361 16.34161,6.55829 19.2064,12.01142 2.86481,5.45329 1.09165,15.70436 1.09165,15.70436"
     id="path11058"
     sodipodi:nodetypes="czszc" /><path
     id="path11060"
     style="fill:#b16365;fill-opacity:1;stroke:none;stroke-width:2.26246px;stroke-linecap:round;stroke-linejoin:round;stroke-opacity:1"
     d="m 293.61937,248.42343 c -5.36297,-0.0928 -5.82696,2.75985 -9.64299,3.15713 -4.07041,0.42392 -7.18203,-3.81969 -13.54261,-2.60496 -6.36057,1.21475 -20.81774,13.57382 -20.81774,13.57382 0,0 0.32645,0.0539 0.38685,0.0654 3.30214,0.99189 12.13317,14.16152 33.43692,14.23207 19.93086,0.066 27.54411,-11.37369 32.80362,-13.81091 1.01608,-0.2628 1.7096,-0.45861 1.7096,-0.45861 0,0 -16.73863,-13.55138 -23.19496,-14.09477 -0.40352,-0.0341 -0.78114,-0.0531 -1.13869,-0.0593 z" /><g
     id="g11074"
     transform="matrix(1.975717,0,0,1.975717,-249.76531,-1495.9967)"><path
       style="fill:none;stroke:#000000;stroke-width:1px;stroke-linecap:round;stroke-linejoin:miter;stroke-opacity:1"
       d="m 234.94349,863.06781 1.52566,-2.15824"
       id="path11062" /><path
       style="fill:none;stroke:#000000;stroke-width:1px;stroke-linecap:round;stroke-linejoin:miter;stroke-opacity:1"
       d="m 259.91628,863.06781 -1.52566,-2.15824"
       id="path11064" /><path
       style="fill:none;stroke:#000000;stroke-width:1px;stroke-linecap:round;stroke-linejoin:miter;stroke-opacity:1"
       d="m 239.92418,865.16915 0.9431,-2.46906"
       id="path11066" /><path
       style="fill:none;stroke:#000000;stroke-width:1px;stroke-linecap:round;stroke-linejoin:miter;stroke-opacity:1"
       d="m 254.93556,865.16915 -0.9431,-2.46906"
       id="path11068" /><path
       style="fill:none;stroke:#000000;stroke-width:1px;stroke-linecap:round;stroke-linejoin:miter;stroke-opacity:1"
       d="m 249.97377,866.4621 -0.39836,-2.61286"
       id="path11070" /><path
       style="fill:none;stroke:#000000;stroke-width:1px;stroke-linecap:round;stroke-linejoin:miter;stroke-opacity:1"
       d="m 244.88598,866.4621 0.39836,-2.61286"
       id="path11072" /></g><g
     id="g11088"
     transform="matrix(1.975717,0,0,1.975717,-249.76531,-1495.9967)"><path
       style="fill:none;stroke:#000000;stroke-width:1px;stroke-linecap:round;stroke-linejoin:miter;stroke-opacity:1"
       d="m 234.94349,850.0504 1.52566,2.15824"
       id="path11076" /><path
       style="fill:none;stroke:#000000;stroke-width:1px;stroke-linecap:round;stroke-linejoin:miter;stroke-opacity:1"
       d="m 259.91628,850.0504 -1.52566,2.15824"
       id="path11078" /><path
       style="fill:none;stroke:#000000;stroke-width:1px;stroke-linecap:round;stroke-linejoin:miter;stroke-opacity:1"
       d="m 239.92418,847.94906 0.9431,2.46906"
       id="path11080" /><path
       style="fill:none;stroke:#000000;stroke-width:1px;stroke-linecap:round;stroke-linejoin:miter;stroke-opacity:1"
       d="m 254.93556,847.94906 -0.9431,2.46906"
       id="path11082" /><path
       style="fill:none;stroke:#000000;stroke-width:1px;stroke-linecap:round;stroke-linejoin:miter;stroke-opacity:1"
       d="m 249.97377,846.65611 -0.39836,2.61286"
       id="path11084" /><path
       style="fill:none;stroke:#000000;stroke-width:1px;stroke-linecap:round;stroke-linejoin:miter;stroke-opacity:1"
       d="m 244.88598,846.65611 0.39836,2.61286"
       id="path11086" /></g><path
     style="fill:#ffffff;fill-opacity:1;stroke:none;stroke-width:1.3305;stroke-linecap:round;stroke-linejoin:round;stroke-miterlimit:4;stroke-dasharray:none;stroke-opacity:1"
     d="m 239.75249,211.05394 c -25.31205,0.31296 -30.87674,-13.99571 -30.87674,-13.99571 0,0 6.14784,-15.87562 31.4599,-15.56266 25.31205,0.31296 31.08822,16.34768 31.08822,16.34768 0,0 -6.35933,12.89772 -31.67138,13.21069 z"
     id="path11090"
     sodipodi:nodetypes="zczcz" /><path
     style="fill:#000000;fill-opacity:1;stroke:none;stroke-width:1.3305px;stroke-linecap:butt;stroke-linejoin:miter;stroke-opacity:1"
     d="m 223.47575,184.26188 c 0,0 -2.2729,5.84944 -2.39094,11.91582 -0.11801,6.0664 1.78944,12.41877 1.78944,12.41877 0,0 3.60106,2.59062 15.08272,2.59062 11.48166,0 18.22505,-2.48572 18.22505,-2.48572 0,0 2.02661,-4.33544 2.17383,-11.94979 0.14721,-7.61434 -1.86669,-12.38801 -1.86669,-12.38801 0,0 -4.78106,-2.90189 -16.76859,-2.90703 -11.98753,-0.004 -16.24482,2.80534 -16.24482,2.80534 z"
     id="path11092"
     sodipodi:nodetypes="czczczczc" /><path
     id="path11094"
     class="st4"
     d="m 252.30304,188.16083 c 3.98917,1.17015 4.06369,10.69598 -0.20217,15.59197 -4.26588,4.896 -12.53433,7.60313 -15.90223,3.31714 -3.42086,-4.43816 3.27997,-6.25855 6.79186,-10.38043 3.81616,-4.2278 5.27046,-9.85097 9.31254,-8.52868 z"
     style="fill:#ffffff;fill-opacity:1;stroke-width:1.6109" /><path
     id="path11096"
     class="st4"
     d="m 236.02891,202.92591 c -2.86598,-0.82946 -2.9441,-7.66573 0.10468,-11.19053 3.04889,-3.5248 8.97598,-5.48902 11.40414,-2.42176 2.46655,3.17633 -0.0507,6.55351 -2.56047,9.52081 -2.72785,3.04406 -6.04407,5.03001 -8.94842,4.09148 z"
     style="fill:#f0fffe;fill-opacity:1;stroke-width:1.15611"
     sodipodi:nodetypes="ssccss" /><g
     id="g11110"
     transform="matrix(1.975717,0,0,1.975717,-162.34788,-1495.9967)"><path
       style="fill:none;stroke:#000000;stroke-width:1px;stroke-linecap:round;stroke-linejoin:miter;stroke-opacity:1"
       d="m 234.94349,863.06781 1.52566,-2.15824"
       id="path11098" /><path
       style="fill:none;stroke:#000000;stroke-width:1px;stroke-linecap:round;stroke-linejoin:miter;stroke-opacity:1"
       d="m 259.91628,863.06781 -1.52566,-2.15824"
       id="path11100" /><path
       style="fill:none;stroke:#000000;stroke-width:1px;stroke-linecap:round;stroke-linejoin:miter;stroke-opacity:1"
       d="m 239.92418,865.16915 0.9431,-2.46906"
       id="path11102" /><path
       style="fill:none;stroke:#000000;stroke-width:1px;stroke-linecap:round;stroke-linejoin:miter;stroke-opacity:1"
       d="m 254.93556,865.16915 -0.9431,-2.46906"
       id="path11104" /><path
       style="fill:none;stroke:#000000;stroke-width:1px;stroke-linecap:round;stroke-linejoin:miter;stroke-opacity:1"
       d="m 249.97377,866.4621 -0.39836,-2.61286"
       id="path11106" /><path
       style="fill:none;stroke:#000000;stroke-width:1px;stroke-linecap:round;stroke-linejoin:miter;stroke-opacity:1"
       d="m 244.88598,866.4621 0.39836,-2.61286"
       id="path11108" /></g><g
     id="g11124"
     transform="matrix(1.975717,0,0,1.975717,-162.34788,-1495.9967)"><path
       style="fill:none;stroke:#000000;stroke-width:1px;stroke-linecap:round;stroke-linejoin:miter;stroke-opacity:1"
       d="m 234.94349,850.0504 1.52566,2.15824"
       id="path11112" /><path
       style="fill:none;stroke:#000000;stroke-width:1px;stroke-linecap:round;stroke-linejoin:miter;stroke-opacity:1"
       d="m 259.91628,850.0504 -1.52566,2.15824"
       id="path11114" /><path
       style="fill:none;stroke:#000000;stroke-width:1px;stroke-linecap:round;stroke-linejoin:miter;stroke-opacity:1"
       d="m 239.92418,847.94906 0.9431,2.46906"
       id="path11116" /><path
       style="fill:none;stroke:#000000;stroke-width:1px;stroke-linecap:round;stroke-linejoin:miter;stroke-opacity:1"
       d="m 254.93556,847.94906 -0.9431,2.46906"
       id="path11118" /><path
       style="fill:none;stroke:#000000;stroke-width:1px;stroke-linecap:round;stroke-linejoin:miter;stroke-opacity:1"
       d="m 249.97377,846.65611 -0.39836,2.61286"
       id="path11120" /><path
       style="fill:none;stroke:#000000;stroke-width:1px;stroke-linecap:round;stroke-linejoin:miter;stroke-opacity:1"
       d="m 244.88598,846.65611 0.39836,2.61286"
       id="path11122" /></g><path
     style="fill:#ffffff;fill-opacity:1;stroke:none;stroke-width:1.3305;stroke-linecap:round;stroke-linejoin:round;stroke-miterlimit:4;stroke-dasharray:none;stroke-opacity:1"
     d="m 327.16993,211.05394 c -25.31207,0.31296 -30.87675,-13.99571 -30.87675,-13.99571 0,0 6.14784,-15.87562 31.45989,-15.56266 25.31206,0.31296 31.08823,16.34768 31.08823,16.34768 0,0 -6.35933,12.89772 -31.67137,13.21069 z"
     id="path11126"
     sodipodi:nodetypes="zczcz" /><path
     style="fill:#000000;fill-opacity:1;stroke:none;stroke-width:1.3305px;stroke-linecap:butt;stroke-linejoin:miter;stroke-opacity:1"
     d="m 310.89318,184.26188 c 0,0 -2.2729,5.84944 -2.39093,11.91582 -0.11802,6.0664 1.78942,12.41877 1.78942,12.41877 0,0 3.60107,2.59062 15.08272,2.59062 11.48167,0 18.22506,-2.48572 18.22506,-2.48572 0,0 2.0266,-4.33544 2.17382,-11.94979 0.14722,-7.61434 -1.86668,-12.38801 -1.86668,-12.38801 0,0 -4.78106,-2.90189 -16.7686,-2.90703 -11.98752,-0.004 -16.24481,2.80534 -16.24481,2.80534 z"
     id="path11128"
     sodipodi:nodetypes="czczczczc" /><path
     id="path11130"
     class="st4"
     d="m 339.72047,188.16083 c 3.98917,1.17015 4.0637,10.69598 -0.20217,15.59197 -4.26588,4.896 -12.53433,7.60313 -15.90222,3.31714 -3.42086,-4.43816 3.27995,-6.25855 6.79186,-10.38043 3.81614,-4.2278 5.27046,-9.85097 9.31253,-8.52868 z"
     style="fill:#ffffff;fill-opacity:1;stroke-width:1.6109" /><path
     id="path11132"
     class="st4"
     d="m 323.44633,202.92591 c -2.86598,-0.82946 -2.9441,-7.66573 0.10469,-11.19053 3.04888,-3.5248 8.97597,-5.48902 11.40413,-2.42176 2.46654,3.17633 -0.0507,6.55351 -2.56048,9.52081 -2.72784,3.04406 -6.04406,5.03001 -8.9484,4.09148 z"
     style="fill:#f0fffe;fill-opacity:1;stroke-width:1.15611"
     sodipodi:nodetypes="ssccss" /><g
     id="g11136"
     transform="matrix(1.0464526,0,0,1.3199312,9.213132,-381.29314)"
     style="fill:#ffc7c7;fill-opacity:1;stroke:none;stroke-opacity:1">
	<path
   id="path11134"
   class="st6"
   d="m 264.2,471.1 c -15.4,1 -28.7,-10.1 -29.7,-24.7 -1,-14.7 10.8,-27.4 26.2,-28.4 8.81797,-0.62579 2.62655,21.94697 8.16081,27.62525 4.19372,4.30285 14.02607,18.68676 15.53456,16.26029"
   sodipodi:nodetypes="cccsc"
   style="fill:#ffc7c7;fill-opacity:1;stroke:none;stroke-opacity:1" />
	
</g><path
     class="st7"
     d="m 404.42189,154.82783 c -65.61925,16.61169 -136.80622,16.29223 -213.03062,0 v -54.14801 h 213.03062 z"
     id="path11138"
     style="fill:#1e5d92;fill-opacity:1;stroke-width:1.45514" /><g
     id="g11142"
     transform="matrix(1.5972856,0,0,1.5972856,-147.04081,-488.94813)"
     style="fill:#f6b5b5;fill-opacity:1">
	<path
   id="path11140"
   class="st2"
   d="m 310.4,509.2 c 12.8,1.8 46.72868,1.8786 66.00186,-17.2869 14.24419,-14.16461 4.31905,-72.29026 -36.22514,-101.65955 C 383.45891,423.56896 398.45628,504.15948 310.4,509.2 Z"
   sodipodi:nodetypes="cscc"
   style="fill:#f6b5b5;fill-opacity:1" />
</g><path
     class="st8"
     d="m 454.49755,116.17348 c 14.78043,40.73074 -32.76796,76.35021 -150.45376,53.98821 -125.63376,-23.9592 -134.97613,-60.21762 -128.98028,-103.823513 5.8564,-43.605897 79.20087,-79.225366 148.50164,-24.598198 53.26536,41.689149 112.80544,24.438469 130.9324,74.433501 z"
     id="path11144"
     style="fill:#2b6fa9;fill-opacity:1;stroke-width:1.49239" /><path
     class="st9"
     d="m 322.5194,80.457738 2.91048,0.85984 C 369.685,54.418956 337.4706,23.083534 337.4706,23.083534 c 1.74126,21.166993 -4.74415,39.737059 -14.9512,57.374204 z"
     id="path11146"
     style="fill:#000000;fill-opacity:1;stroke-width:1.59729" /><path
     style="fill:none;stroke:#b16365;stroke-width:4.79186;stroke-linecap:round;stroke-linejoin:miter;stroke-miterlimit:4;stroke-dasharray:none;stroke-opacity:1"
     d="m 266.82003,177.09439 c 0,0 -17.20115,12.16365 -10.51515,41.07962 6.686,28.91599 41.11325,20.46044 41.11325,20.46044"
     id="path11148"
     sodipodi:nodetypes="czc" /><path
     class="st1"
     d="m 451.84004,239.69893 3.67375,-18.84798 -37.69594,11.66019 c -6.38914,1.91674 -4.79185,22.04253 1.91674,30.50816 0,0 15.97286,9.90317 32.10545,12.45882 z"
     id="path11150"
     style="stroke-width:1.59729" /><path
     class="st10"
     d="m 469.09073,73.581228 c -19.32717,22.04254 1.11809,54.627152 10.86154,58.141192 12.45882,4.63213 8.62533,-3.99321 30.50809,-21.88281 24.9177,-20.285532 16.6118,-52.390967 -12.13932,-84.336679 -1.27783,33.862454 -15.65339,32.584626 -29.23031,48.078297 z"
     id="path11152"
     style="stroke-width:1.59729" /><path
     class="st11"
     d="m 441.13823,332.18176 c 12.77828,-48.87695 25.2371,-97.75388 37.21674,-146.79054 l -17.4104,-4.15296 c -11.81992,52.23124 -21.2439,96.31632 -31.94571,148.06838 -0.63892,3.35431 1.59727,6.70861 4.95158,7.34752 v 0 c 3.3543,0.63892 6.38915,-1.27783 7.18779,-4.4724 z"
     id="path11154"
     style="stroke-width:1.59729" /><path
     class="st12"
     d="m 478.35497,189.54415 c 4.4724,-24.75792 7.8267,-43.28643 10.38236,-57.662 l -13.25746,-3.19457 c -4.15295,14.05611 -9.42399,32.10543 -16.45204,56.38418 z"
     id="path11156"
     style="stroke-width:1.59729" /><path
     class="st4"
     d="m 476.7577,130.92378 c -3.51404,11.66018 -9.90318,32.26517 -15.65341,52.39096 l 4.79187,1.1181 c 4.4724,-18.84797 9.90316,-41.20996 13.25746,-52.87015 z"
     id="path11158"
     style="fill:#ffffff;fill-opacity:1;stroke-width:1.59729" /><path
     class="st0"
     d="m 462.06267,220.85096 c 0,0 -27.15387,15.01448 -26.35522,30.98734 0.79864,15.97285 24.43848,52.71041 39.13351,3.9932 14.53528,-47.43937 -12.77829,-34.98054 -12.77829,-34.98054 z"
     id="path11160"
     style="stroke-width:1.59729" /><path
     class="st0"
     d="m 458.29554,280.00727 c 5.72317,-1.1564 11.63391,-7.89304 16.54542,-24.17577 6.46939,-21.1144 4.64861,-30.3631 0.63571,-34.1258 4.16926,16.81942 -9.35678,52.8813 -17.18113,58.30157 z"
     id="path11192"
     style="fill:#e17d85;fill-opacity:1;stroke-width:1.59729"
     sodipodi:nodetypes="cccc" /><path
     class="st8"
     d="m 454.49755,116.17348 c 13.12121,36.15842 -22.87812,68.28872 -113.46104,59.4019 87.10879,1.04277 120.64672,-45.26419 93.42794,-80.897292 -11.63944,-15.23762 -41.61309,-18.3962 -72.39495,-31.467469 40.78689,15.815499 78.62089,14.882059 92.42805,52.962861 z"
     id="path11194"
     style="fill:#2b679b;fill-opacity:1;stroke-width:1.49239"
     sodipodi:nodetypes="ccscc" /><path
     style="fill:#2b6fa9;fill-opacity:1;stroke:none;stroke-width:0.575359px;stroke-linecap:butt;stroke-linejoin:miter;stroke-opacity:1"
     d="m 75.717183,177.49782 c 0.121078,2.65129 3.646921,6.5054 3.592849,9.3973 -0.05408,2.89191 -1.400414,3.98068 -2.472249,5.86036 -1.071835,1.87968 -1.931146,5.46063 -3.954238,5.24489 -2.023092,-0.21575 -1.819736,-6.1176 -3.825519,-7.33797 -2.005774,-1.22037 -5.33167,2.78186 -6.569209,0.92495 -1.237529,-1.8569 0.977541,-3.72231 0.951472,-6.13261 -0.02606,-2.4103 -1.926959,-5.46359 -1.428018,-7.95926 0.49893,-2.49566 2.639986,-2.81762 3.700768,-5.29026 1.060782,-2.47263 -0.531302,-8.82279 2.099645,-9.42871 2.630948,-0.60592 2.951318,8.2462 4.860157,9.62419 1.908828,1.37797 3.611764,-1.44401 4.386398,0.085 0.774644,1.52894 -1.463143,2.36091 -1.342056,5.0122 z"
     id="path4691"
     sodipodi:nodetypes="zzzzzzzzzzzzz" /><path
     style="fill:#b72caf;fill-opacity:1;stroke:none;stroke-width:0.677201px;stroke-linecap:butt;stroke-linejoin:miter;stroke-opacity:1"
     d="m 95.88164,208.35272 c 3.059654,3.43518 -2.39333,8.7664 0.330421,12.34072 2.723745,3.57433 6.316049,-2.3667 8.311459,1.56627 1.9954,3.93297 -4.65569,4.11841 -6.010767,6.5894 -1.355072,2.471 0.08378,7.77318 -2.343785,7.72424 -2.427596,-0.0489 -5.458198,-4.77846 -7.042373,-7.00775 -1.584155,-2.22926 -0.716144,-3.37222 -2.625595,-5.40616 -1.909462,-2.03394 -6.117008,-0.46534 -8.16566,-3.93531 -2.048661,-3.46998 1.28794,-6.61602 1.071944,-9.82787 -0.216007,-3.21185 -4.012629,-7.67303 -1.942456,-8.91658 2.070151,-1.24358 7.092965,6.96078 10.399704,8.1138 3.306744,1.15304 4.957452,-4.67593 8.017108,-1.24076 z"
     id="path4693"
     sodipodi:nodetypes="zzzzzzzzzzzz" /><path
     style="fill:#fee45a;fill-opacity:1;stroke:none;stroke-width:0.49434px;stroke-linecap:butt;stroke-linejoin:miter;stroke-opacity:1"
     d="m 144.84232,175.81898 c 4.06472,1.13834 6.78661,0.5845 8.33817,2.20445 1.55155,1.61996 -2.14885,2.48849 -0.57236,3.62032 1.5765,1.13184 6.29846,-0.36976 9.08703,1.70311 2.78857,2.07288 2.98185,5.12064 2.94163,8.17954 -0.0402,3.05889 0.39594,8.78993 -4.42233,9.08495 -4.81827,0.29502 -12.93949,-5.79268 -15.63733,-8.69159 -2.69783,-2.89892 0.40388,-4.16525 -1.89958,-5.7275 -2.30346,-1.56226 -5.51434,0.87648 -7.90938,-0.56673 -2.39503,-1.44321 -3.16858,-4.05955 -3.09617,-5.71382 0.0724,-1.65428 4.192,-2.01903 3.13103,-3.32103 -1.06097,-1.30198 -7.49796,-3.30685 -6.00485,-5.51635 1.49317,-2.20945 11.97942,3.60632 16.04414,4.74465 z"
     id="path4695"
     sodipodi:nodetypes="zzzzzzzzzzzzz" /><path
     style="fill:#86d771;fill-opacity:1;stroke:none;stroke-width:0.395311px;stroke-linecap:butt;stroke-linejoin:miter;stroke-opacity:1"
     d="m 96.357188,154.67847 c 2.572659,0.48385 6.262912,-3.3365 9.454482,-3.01339 3.19159,0.32311 2.81587,3.29276 5.2834,3.61607 2.46753,0.32331 3.91983,-1.8819 6.11762,-1.5067 2.19778,0.37521 4.5534,2.03941 3.61494,3.31474 -0.93845,1.27532 -6.73245,-0.36566 -7.78605,1.20535 -1.05359,1.57102 7.10876,3.37425 5.83954,4.67076 -1.26921,1.2965 -6.95183,-0.75335 -5.83954,0 1.1123,0.75335 4.17111,3.01339 4.44918,3.61607 0.27807,0.60268 -12.30687,1.77423 -16.6844,0.90401 -4.377539,-0.87021 -4.768278,-3.19698 -7.786053,-4.36941 -3.017774,-1.17243 -8.349901,-1.08568 -10.010641,-2.56138 -1.660732,-1.47571 1.668444,-3.76675 0.278074,-4.36942 -1.390362,-0.60268 -8.028512,-0.79673 -7.229901,-2.41072 0.798611,-1.61399 6.917119,0.17101 10.010633,-0.15067 3.093515,-0.32167 6.176849,-2.18727 8.342206,-1.65736 2.165349,0.52991 -0.62615,2.22821 1.94651,2.71205 z"
     id="path4697"
     sodipodi:nodetypes="zzzzzzzzzzzzzzzzz" /></g></svg>
