<?xml version="1.0" encoding="UTF-8" standalone="no"?>
<!-- Created with Inkscape (http://www.inkscape.org/) -->

<svg
   version="1.1"
   id="svg2"
   xml:space="preserve"
   width="549.98669"
   height="349.46667"
   viewBox="0 0 549.98669 349.46667"
   sodipodi:docname="Blobpirate.svg"
   inkscape:version="1.2 (dc2aeda, 2022-05-15)"
   xmlns:inkscape="http://www.inkscape.org/namespaces/inkscape"
   xmlns:sodipodi="http://sodipodi.sourceforge.net/DTD/sodipodi-0.dtd"
   xmlns="http://www.w3.org/2000/svg"
   xmlns:svg="http://www.w3.org/2000/svg"
   xmlns:rdf="http://www.w3.org/1999/02/22-rdf-syntax-ns#"
   xmlns:cc="http://creativecommons.org/ns#"
   xmlns:dc="http://purl.org/dc/elements/1.1/"><metadata
     id="metadata8"><rdf:RDF><cc:Work
         rdf:about=""><dc:format>image/svg+xml</dc:format><dc:type
           rdf:resource="http://purl.org/dc/dcmitype/StillImage" /></cc:Work></rdf:RDF></metadata><defs
     id="defs6" /><sodipodi:namedview
     pagecolor="#ffffff"
     bordercolor="#666666"
     borderopacity="1"
     objecttolerance="10"
     gridtolerance="10"
     guidetolerance="10"
     inkscape:pageopacity="0"
     inkscape:pageshadow="2"
     inkscape:window-width="1785"
     inkscape:window-height="794"
     id="namedview4"
     showgrid="false"
     inkscape:zoom="0.44661907"
     inkscape:cx="79.486082"
     inkscape:cy="244.05586"
     inkscape:window-x="1562"
     inkscape:window-y="142"
     inkscape:window-maximized="0"
     inkscape:current-layer="g10"
     inkscape:showpageshadow="0"
     inkscape:pagecheckerboard="0"
     inkscape:deskcolor="#d1d1d1" /><g
     id="g10"
     inkscape:groupmode="layer"
     inkscape:label="ink_ext_XXXXXX"
     transform="matrix(1.3333333,0,0,-1.3333333,0,349.46667)"><path
       style="clip-rule:evenodd;fill:#b0f2ff;fill-opacity:1;fill-rule:evenodd;stroke-width:0.75;stroke-linecap:round;stroke-linejoin:round"
       inkscape:connector-curvature="0"
       id="path975"
       d="m 43.779718,76.514242 c 0,90.796488 73.605512,164.402018 164.402012,164.402018 90.79658,0 164.40158,-73.60553 164.40158,-164.402018 0,-14.718 -1.93425,-28.984501 -5.562,-42.558751 -21.6165,-3.41475 -303.044391,-3.41475 -317.825841,0.5505 -3.533625,13.40925 -5.415751,27.489001 -5.415751,42.008251 z" /><path
       d="m 409.81702,34.65449 c 0,-19.13925 -91.14226,-34.6545 -203.57176,-34.6545 -112.43025,0 -203.57225,15.51525 -203.57225,34.6545 0,19.1385 91.142,34.65375 203.57225,34.65375 112.4295,0 203.57176,-15.51525 203.57176,-34.65375"
       id="path1213"
       inkscape:connector-curvature="0"
       style="clip-rule:evenodd;fill:#2e2f28;fill-rule:evenodd;stroke-width:0.75;stroke-linecap:round;stroke-linejoin:round;fill-opacity:1" /><g
       id="g985"
       transform="matrix(0.75000002,0,0,-0.75000002,-1.8398652,259.20974)"
       style="clip-rule:evenodd;fill-rule:evenodd;stroke-linecap:round;stroke-linejoin:round"><path
         id="path979"
         style="fill:#97da12;fill-opacity:1;stroke-width:2.0366"
         d="m 155.07767,52.68763 c 4.9342,0 8.90649,4.03517 8.90649,9.04747 0,0 0,10.85685 0,21.0883 0,10.23143 9.71781,26.86689 9.71781,40.30034 0,13.43345 -17.96394,26.86687 -17.96394,40.30037 0,13.4334 19.04522,26.8669 19.04522,40.3003 0,13.4335 -10.79908,27.888 -10.79908,40.3004 0,12.4123 0,34.1738 0,34.1738 0,5.0123 -3.97229,9.0475 -8.90649,9.0475 -4.93418,0 -8.90649,-4.0352 -8.90649,-9.0475 0,0 0,-21.7615 0,-34.1738 0,-12.4124 10.79909,-26.8669 10.79909,-40.3004 0,-13.4334 -19.04521,-26.8669 -19.04521,-40.3003 0,-13.4335 17.96394,-26.86692 17.96394,-40.30037 0,-13.43345 -9.71781,-30.06891 -9.71781,-40.30034 0,-10.23145 0,-21.0883 0,-21.0883 0,-5.0123 3.9723,-9.04747 8.90647,-9.04747 z"
         sodipodi:nodetypes="sszzzzzssszzzzzss" /><path
         id="path981"
         style="fill:#b6ee47;fill-opacity:1;stroke-width:2.0366"
         d="m 138.12252,34.07106 c 4.9342,0 8.9065,4.03517 8.9065,9.04747 0,0 0,26.37067 0,39.70487 0,13.3342 9.7178,26.86689 9.7178,40.30034 0,13.43345 -17.96394,26.86687 -17.96394,40.30037 0,13.4334 19.04521,26.8669 19.04521,40.3003 0,13.4335 -10.79908,27.888 -10.79908,40.3004 0,12.4123 0,34.1738 0,34.1738 0,5.0123 -3.97229,9.0475 -8.90649,9.0475 -4.93418,0 -8.90646,-4.0352 -8.90646,-9.0475 0,0 0,-21.7615 0,-34.1738 0,-12.4124 10.79907,-26.8669 10.79907,-40.3004 0,-13.4334 -19.04521,-26.8669 -19.04521,-40.3003 0,-13.4335 17.96393,-26.86692 17.96393,-40.30037 0,-13.43345 -9.71779,-26.96614 -9.71779,-40.30034 0,-13.3342 0,-39.70487 0,-39.70487 0,-5.0123 3.97228,-9.04747 8.90646,-9.04747 z"
         sodipodi:nodetypes="sszzzzzssszzzzzss" /><path
         id="path983"
         style="fill:#a6e22e;fill-opacity:1;stroke-width:2.0366"
         d="m 121.35619,66.49096 c 4.93419,0 8.90648,4.03517 8.90648,9.04747 0,0 0,-0.64592 0,7.28497 0,7.93088 9.71782,26.86689 9.71782,40.30034 0,13.43345 -17.96395,26.86687 -17.96395,40.30037 0,13.4334 19.04521,26.8669 19.04521,40.3003 0,13.4335 -10.79908,27.888 -10.79908,40.3004 0,12.4123 0,34.1738 0,34.1738 0,5.0123 -3.97229,9.0475 -8.90648,9.0475 -4.93419,0 -8.90648,-4.0352 -8.90648,-9.0475 0,0 0,-21.7615 0,-34.1738 0,-12.4124 10.79908,-26.8669 10.79908,-40.3004 0,-13.4334 -19.04521,-26.8669 -19.04521,-40.3003 0,-13.4335 17.96394,-26.86692 17.96394,-40.30037 0,-13.43345 -9.71781,-32.36946 -9.71781,-40.30034 0,-7.93089 0,-7.28497 0,-7.28497 0,-5.0123 3.97229,-9.04747 8.90648,-9.04747 z"
         sodipodi:nodetypes="sszzzzzssszzzzzss" /></g><g
       id="g993"
       transform="matrix(0.75000002,0,0,-0.75000002,-1.8398652,259.20974)"
       style="clip-rule:evenodd;fill-rule:evenodd;stroke-linecap:round;stroke-linejoin:round"><path
         id="path987"
         style="fill:#97da12;fill-opacity:1;stroke-width:1.83294"
         d="m 232.70847,73.040388 c 4.34916,0.871676 7.04788,5.120716 6.05094,9.527006 0,0 -2.15941,9.544194 -4.19443,18.538606 -2.03501,8.99441 3.22182,25.3353 0.54994,37.14458 -2.67189,11.80928 -21.17779,20.4451 -23.84967,32.2543 -2.67189,11.80931 11.44329,26.98307 8.77141,38.79237 -2.6719,11.80931 -15.06553,22.60848 -17.53433,33.52009 -2.46879,10.91162 -6.79711,30.04209 -6.79711,30.04209 -0.99694,4.40623 -5.30083,7.25183 -9.64999,6.38015 -4.34915,-0.87169 -7.04786,-5.12076 -6.05094,-9.52699 0,0 4.32832,-19.13046 6.79712,-30.04208 2.46879,-10.91161 14.86244,-21.71078 17.53432,-33.52009 2.6719,-11.8093 -11.4433,-26.98307 -8.7714,-38.79237 2.67188,-11.8092 21.17777,-20.44502 23.84966,-32.2543 2.67188,-11.80929 -2.58495,-28.15017 -0.54993,-37.144578 2.03501,-8.994416 4.19442,-18.53861 4.19442,-18.53861 0.99694,-4.4063 5.30084,-7.251849 9.64999,-6.380174 z"
         sodipodi:nodetypes="sszzzzzssszzzzzss" /><path
         id="path989"
         style="fill:#b6ee47;fill-opacity:1;stroke-width:1.83294"
         d="m 221.46645,53.679366 c 4.34916,0.871666 7.04788,5.120706 6.05095,9.526996 0,0 -5.24508,23.182325 -7.89722,34.904345 -2.65216,11.722033 3.22181,25.335303 0.54992,37.144573 -2.67189,11.80932 -21.17778,20.44503 -23.84966,32.25434 -2.6719,11.8093 11.44329,26.98306 8.7714,38.79237 -2.6719,11.8093 -15.06552,22.60837 -17.53433,33.52009 -2.46879,10.91161 -6.7971,30.04198 -6.7971,30.04198 -0.99694,4.40633 -5.30083,7.25184 -9.64999,6.38015 -4.34916,-0.87158 -7.04787,-5.12065 -6.05093,-9.52698 0,0 4.32831,-19.13037 6.7971,-30.04199 2.4688,-10.91171 14.86244,-21.71078 17.53432,-33.52009 2.6719,-11.8093 -11.44329,-26.98306 -8.7714,-38.79237 2.67189,-11.8093 21.17777,-20.44502 23.84967,-32.25433 2.67188,-11.80928 -3.20209,-25.42255 -0.54993,-37.144575 2.65214,-11.72203 7.89722,-34.904346 7.89722,-34.904346 0.99693,-4.40629 5.30083,-7.251838 9.64998,-6.380163 z"
         sodipodi:nodetypes="sszzzzzssszzzzzss" /><path
         id="path991"
         style="fill:#a6e22e;fill-opacity:1;stroke-width:1.83294"
         d="m 200.2398,79.217597 c 4.34916,0.871677 7.04788,5.120706 6.05094,9.527006 0,0 0.12846,-0.567833 -1.44896,6.404165 -1.57745,6.972002 3.2218,25.335302 0.54992,37.144572 -2.67189,11.80927 -21.17778,20.44508 -23.84967,32.25439 -2.67188,11.8092 11.4433,26.98306 8.77141,38.79227 -2.67188,11.8093 -15.06553,22.60847 -17.53431,33.52009 -2.46881,10.91171 -6.79712,30.04208 -6.79712,30.04208 -0.99693,4.40623 -5.30083,7.25184 -9.64999,6.38015 -4.34915,-0.87168 -7.04787,-5.12075 -6.05094,-9.52698 0,0 4.32831,-19.13037 6.79712,-30.04208 2.46879,-10.91162 14.86243,-21.71079 17.53432,-33.5201 2.67188,-11.8092 -11.44329,-26.98306 -8.77142,-38.79227 2.6719,-11.8093 21.17779,-20.44512 23.84967,-32.25438 2.6719,-11.80927 -2.12736,-30.172568 -0.54992,-37.144575 1.57743,-6.971996 1.44896,-6.404174 1.44896,-6.404174 0.99694,-4.40629 5.30084,-7.251839 9.64999,-6.380164 z"
         sodipodi:nodetypes="sszzzzzssszzzzzss" /></g><g
       id="g1001"
       transform="matrix(0.6937345,0,0,-0.6937345,5.3362408,243.47264)"
       style="clip-rule:evenodd;fill-rule:evenodd;stroke-linecap:round;stroke-linejoin:round"><path
         id="path995"
         style="fill:#97da12;fill-opacity:1;stroke-width:1.83294"
         d="m 74.62883,67.380015 c 4.34915,-0.871675 8.653049,1.973884 9.649993,6.380173 0,0 2.1594,9.544195 4.19442,18.53861 2.03501,8.994402 13.909357,21.901802 16.581247,33.711082 2.67188,11.80925 -10.490221,26.79204 -7.818335,38.60135 2.671895,11.8093 22.130845,20.25405 24.802735,32.06335 2.67188,11.80921 -3.9718,26.42392 -1.503,37.33554 2.4688,10.91171 6.79711,30.04208 6.79711,30.04208 0.99694,4.40623 -1.70179,8.6553 -6.05094,9.52699 -4.34915,0.87168 -8.65305,-1.97393 -9.64998,-6.38016 0,0 -4.32832,-19.13036 -6.79712,-30.04208 -2.46878,-10.91162 4.17489,-25.52633 1.503,-37.33553 -2.67188,-11.80931 -22.130838,-20.25405 -24.802729,-32.06336 -2.671891,-11.8093 10.490226,-26.7921 7.818336,-38.60135 C 86.681675,117.34744 74.807329,104.44004 72.772314,95.445631 70.7373,86.451225 68.577894,76.90702 68.577894,76.90702 67.580956,72.500731 70.279677,68.251691 74.62883,67.380015 Z"
         sodipodi:nodetypes="sszzzzzssszzzzzss" /><path
         id="path997"
         style="fill:#b6ee47;fill-opacity:1;stroke-width:1.83294"
         d="m 55.981209,54.009578 c 4.349159,-0.871676 8.653054,1.973873 9.649992,6.380162 0,0 5.245076,23.182326 7.897223,34.904345 2.652147,11.722035 13.909362,21.901805 16.581255,33.711095 2.671887,11.80932 -10.490222,26.79211 -7.818343,38.60132 2.671895,11.8093 22.130854,20.25405 24.802734,32.06335 2.6719,11.8093 -3.9718,26.42392 -1.503,37.33554 2.4688,10.91171 6.79711,30.04208 6.79711,30.04208 0.99695,4.40633 -1.70179,8.6553 -6.05093,9.52698 -4.34915,0.87169 -8.653048,-1.97382 -9.649986,-6.38015 0,0 -4.328319,-19.13037 -6.797118,-30.04208 -2.468791,-10.91162 4.174893,-25.52623 1.502997,-37.33554 -2.671885,-11.8093 -22.13084,-20.25405 -24.802731,-32.06335 -2.67188,-11.80921 10.490233,-26.792 7.818339,-38.60132 C 71.736864,120.34273 60.479646,110.16296 57.827499,98.440928 55.175352,86.718898 49.930278,63.536582 49.930278,63.536582 c -0.996939,-4.406299 1.701783,-8.655329 6.050931,-9.527004 z"
         sodipodi:nodetypes="sszzzzzssszzzzzss" /><path
         id="path999"
         style="fill:#a6e22e;fill-opacity:1;stroke-width:1.83294"
         d="m 47.651068,85.471688 c 4.349158,-0.871676 8.653054,1.973872 9.649992,6.380172 0,0 -0.128468,-0.567832 1.448965,6.404165 1.577438,6.972005 13.909364,21.901805 16.581252,33.711085 2.671888,11.80928 -10.490224,26.79207 -7.818333,38.60138 2.671879,11.8092 22.130846,20.25405 24.802721,32.06325 2.671896,11.8093 -3.971779,26.42402 -1.502987,37.33563 2.468789,10.91162 6.797108,30.04199 6.797108,30.04199 0.996938,4.40633 -1.701777,8.6554 -6.050938,9.52708 -4.349148,0.87169 -8.653051,-1.97392 -9.649981,-6.38015 0,0 -4.328321,-19.13047 -6.797114,-30.04208 -2.468792,-10.91162 4.174882,-25.52633 1.502991,-37.33564 -2.67188,-11.8092 -22.130835,-20.25395 -24.802725,-32.06325 -2.67189,-11.80931 10.490221,-26.7921 7.818334,-38.60137 -2.671888,-11.80928 -15.003815,-26.73909 -16.581253,-33.71108 -1.577438,-6.972009 -1.448965,-6.404178 -1.448965,-6.404178 -0.996937,-4.40629 1.701784,-8.65533 6.050933,-9.527004 z"
         sodipodi:nodetypes="sszzzzzssszzzzzss" /></g><path
       style="color:#000000;clip-rule:nonzero;fill:#ffb763;fill-opacity:1;fill-rule:nonzero;stroke-width:0.693262;stroke-linecap:round;stroke-linejoin:miter;-inkscape-stroke:none"
       d="m 288.75203,213.80768 c -3.21513,0.12378 -5.93081,-2.1712 -6.06596,-5.12627 -0.31296,-6.84281 -1.12011,-9.8496 -2.42079,-12.18154 -0.45549,-0.81664 -1.24174,-1.72895 -1.98995,-2.63777 -1.15988,2.60409 -2.73628,4.95159 -4.20877,7.10329 -2.76073,4.03415 -5.53642,7.13057 -5.53642,7.13057 -2.04245,2.28591 -5.71438,2.61719 -8.20148,0.73992 -2.48709,-1.87728 -2.8475,-5.25222 -0.80505,-7.53817 0,0 2.35788,-2.64635 4.67772,-6.03624 2.31976,-3.38989 4.0828,-7.8503 4.05909,-8.6195 v 0.0286 c -0.22786,-6.20345 2.11533,-11.93308 4.13392,-17.657 2.01852,-5.72392 3.82871,-11.36649 3.83167,-16.44327 0,-5.97375 -3.45434,-12.44082 -6.14087,-16.69509 -1.72718,2.43015 -2.98605,4.49227 -3.28232,5.98044 -2.52499,12.68483 -1.37833,8.44125 -2.14954,18.04643 -0.32592,4.05828 -2.67417,7.27191 -5.27798,9.67487 -2.60374,2.40297 -5.62261,4.20023 -8.50931,5.6546 -5.77346,2.90875 -11.303,4.44996 -11.303,4.44996 -3.07644,0.86995 -6.33757,-0.71739 -7.28349,-3.54517 -0.94554,-2.8272 0.78126,-5.82368 3.85713,-6.69309 0,0 4.59231,-1.31972 9.12801,-3.60488 2.26785,-1.14258 4.45008,-2.5259 5.85271,-3.82036 1.40264,-1.29446 1.86492,-2.29628 1.91373,-2.90389 0.567,-7.06111 0.5179,-8.62258 1.4957,-14.32603 -5.73274,2.99238 -11.97146,6.97173 -20.5807,14.5506 -2.32418,2.04543 -6.01223,1.97221 -8.23814,-0.16356 -2.22678,-2.136 -2.14773,-5.52682 0.17652,-7.57322 15.07689,-13.27249 25.27237,-17.54008 34.44702,-21.59809 0.3202,-0.43584 0.62058,-0.93628 0.93499,-1.35913 2.35361,-3.1655 4.54481,-6.06654 5.78069,-9.08552 1.23596,-3.01896 1.7245,-6.10134 0.47314,-10.55627 -0.69976,-2.49139 -2.10854,-5.47727 -4.29916,-8.89729 -1.95951,5.05031 -4.44126,10.27017 -7.15773,15.2788 -4.88394,9.00507 -9.84223,16.73039 -14.63471,21.06197 -2.29474,2.07423 -5.98453,2.04574 -8.24103,-0.0636 -2.25664,-2.10921 -2.22562,-5.50055 0.0695,-7.57452 1.25794,-1.13698 3.72313,-4.36995 6.44032,-8.44169 -3.33958,0.80966 -6.83348,1.5284 -10.61662,2.0407 -3.18404,0.43171 -6.14601,-1.59087 -6.61539,-4.51745 -0.46974,-2.92699 1.73165,-5.6496 4.91635,-6.08043 8.34342,-1.12981 15.29911,-3.1751 20.4112,-5.45726 3.59152,-7.224795 6.525,-14.640945 7.33424,-19.421145 2.02466,-11.9592 -1.66795,-34.714291 -1.66795,-34.714291 -0.51601,-2.919218 1.64011,-5.670345 4.81613,-6.145298 3.17658,-0.475012 6.17073,1.506863 6.6874,4.426613 0,0 0.35108,2.0403 0.78386,4.95234 0.74034,0.284663 2.72898,1.084088 6.41343,2.083433 4.2954,1.16511 9.69789,2.038245 12.74497,1.70187 8.50953,-0.939533 15.60131,-3.24741 21.98876,-6.577575 4.55349,-2.374013 13.53485,-5.684236 22.07779,-8.806433 8.54293,-3.122198 16.19252,-5.780543 16.19252,-5.780543 3.01049,-1.046535 6.37394,0.348338 7.5122,3.115485 1.1387,2.767013 -0.37899,5.858505 -3.38962,6.90471 0,0 -7.01173,2.463338 -14.34228,5.119756 5.15439,1.326885 10.06474,1.82343 14.74057,0.877522 3.14304,-0.635527 6.25159,1.191165 6.9431,4.080008 0.69153,2.888437 -1.2951,5.745382 -4.43756,6.38157 -11.18203,2.262022 -21.92563,-0.691823 -28.04077,-2.790278 -6.11505,-2.098455 -7.00305,-1.693162 -8.17176,-1.192357 1.53584,1.439737 1.8167,1.801627 4.28934,3.928065 3.65232,3.141075 8.07442,6.597585 11.90182,9.073883 0.97007,-0.640373 1.97889,-1.19634 3.00123,-1.556445 3.10219,-1.092796 6.32383,-1.305608 9.58416,-1.129351 6.52058,0.352463 13.24972,2.241158 18.42682,5.889548 2.55435,1.799768 3.03746,5.162033 1.07904,7.509593 -1.95814,2.347762 -5.61633,2.791807 -8.17046,0.99177 -2.44812,-1.725263 -7.72176,-3.430388 -11.89611,-3.682748 7.2957,6.967118 9.91744,15.393113 9.91744,15.393113 0.9854,2.815665 -0.69904,5.832515 -3.76246,6.738485 -3.06393,0.90656 -6.34719,-0.64184 -7.33287,-3.45817 0,0 -4.51797,-11.090988 -12.45262,-14.984163 -3.88185,-1.904655 -7.70752,-4.60068 -11.38067,-7.429177 -0.22446,1.58097 -0.43482,3.130237 -0.40257,4.433122 0.0808,3.261173 0.7749,5.55291 3.4772,8.366378 2.12944,2.217233 1.90057,5.601158 -0.51125,7.558913 -2.41254,1.958087 -6.09532,1.747732 -8.22548,-0.469898 -4.47359,-4.657507 -6.26678,-10.142948 -6.39224,-15.211335 -0.1149,-4.639695 0.86731,-8.988278 1.7668,-13.334266 -1.75653,-1.617997 -3.50988,-3.179692 -4.11694,-3.771082 -4.09198,1.547272 -8.46194,2.768407 -13.13625,3.608775 0.17282,2.39967 0.4761,5.48697 1.13414,8.91291 1.3852,7.212038 4.5709,15.032881 8.6266,18.103501 11.39499,8.627512 15.80479,7.660932 29.83287,10.387602 h 0.009 c 0.0557,0.0106 0.0869,0.014 0.1426,0.0246 5.08374,0.99371 18.27402,0.73077 29.34144,-0.0818 11.06742,-0.81258 20.46906,-1.95496 20.46906,-1.95496 3.19018,-0.38768 6.11838,1.67488 6.54061,4.60699 0.42259,2.93271 -1.82168,5.62489 -5.01245,6.0129 0,0 -5.54466,0.60183 -12.42579,1.2436 0.5902,0.5135 1.31716,1.11314 1.86998,1.57333 3.51364,2.92498 5.75784,4.31347 8.60541,4.25911 3.21752,-0.0618 5.88027,2.28576 5.94737,5.2431 0.0673,2.95733 -2.48688,5.40471 -5.70447,5.46637 -7.30459,0.13952 -12.65242,-3.6826 -16.67268,-7.02931 -4.02025,-3.34671 -7.35058,-6.44478 -10.89885,-7.28961 -3.54821,-0.84473 -6.64938,-0.60872 -9.65358,-0.57828 2.49614,2.27995 5.31276,4.67201 8.75937,7.06436 11.47952,7.96827 21.582,12.59174 21.582,12.59174 2.88142,1.31768 4.05504,4.53286 2.62131,7.18119 -1.43307,2.64815 -4.9303,3.72735 -7.81171,2.41061 0,0 -11.03416,-5.04138 -23.41519,-13.63544 -9.45905,-6.56573 -15.95194,-13.72338 -18.68533,-16.98972 -6.67288,-1.22578 -12.36579,-2.0502 -18.14156,-4.09821 1.81814,3.76264 3.77324,7.31177 5.00536,8.51564 2.03081,1.98422 4.15086,2.57762 7.99243,3.76845 3.84165,1.19084 9.13372,3.02877 13.88903,7.63035 2.8271,2.73579 5.64307,6.60509 8.39209,10.76269 7.64258,4.63751 12.03834,7.63477 17.77015,8.24565 3.19691,0.34088 5.48783,2.99925 5.11687,5.93759 -0.37089,2.93778 -3.26221,5.04324 -6.45862,4.70308 -2.08092,-0.22177 -3.98698,-0.64409 -5.80759,-1.17739 1.07449,1.94837 3.38681,5.97783 3.38681,5.97783 1.41493,2.65727 0.21787,5.86567 -2.67352,7.16562 -2.89111,1.30051 -6.38189,0.20024 -7.79617,-2.45735 0,0 -3.35556,-6.30377 -7.65914,-13.51989 -4.3035,-7.21612 -9.94448,-15.5739 -12.72097,-18.26063 -3.00615,-2.90898 -5.55124,-3.7379 -9.16323,-4.85756 -1.05604,-0.32734 -2.36915,-0.83865 -3.60149,-1.26956 -0.26734,4.35485 -0.0202,9.59365 0.59173,11.37022 2.11462,6.13802 5.3774,11.43706 9.9528,15.21005 4.69391,3.87073 19.11046,13.06556 19.11046,13.06556 2.65485,1.67218 3.33213,5.00595 1.51262,7.446 -1.81981,2.43975 -5.44683,3.06163 -8.10125,1.38899 0,0 -13.88209,-8.63189 -20.30382,-13.92751 -6.54041,-5.39335 -10.71143,-12.48883 -13.28169,-19.94948 -1.72045,-4.99315 -1.43496,-10.58681 -1.11288,-15.47357 0.23718,-3.59916 0.50611,-5.14769 0.70331,-6.53862 -3.43533,-4.20263 -5.72935,-9.43389 -7.66196,-14.21829 -1.73701,-4.30012 -2.75032,-7.41402 -3.23712,-8.95311 -7.09207,-6.268452 -9.75799,-15.485503 -11.24646,-23.235028 -0.72796,-3.790087 -1.08295,-7.223002 -1.28238,-9.93186 -4.00768,-0.31923 -7.85467,-1.173683 -11.15614,-2.06922 -0.7446,-0.201983 -1.1857,-0.375518 -1.86847,-0.578963 0.47653,6.122768 0.673,12.831008 -0.0819,18.977168 6.38898,7.538176 10.21023,14.122603 11.89474,20.119543 1.82305,6.49044 1.07274,12.30938 -0.85025,17.00664 -0.32056,0.783 -0.6981,1.49531 -1.06486,2.22108 1.79189,2.07174 10.99828,13.3059 10.99083,27.02292 0,5.25606 -1.29858,10.03813 -2.74987,14.5584 5.75617,-0.48408 15.43231,-0.6992 24.60023,2.51965 6.51791,2.28839 13.42176,6.05014 19.52141,10.17984 6.09958,4.1297 11.28436,8.38075 14.3861,12.87214 1.72522,2.4974 0.9209,5.80742 -1.79652,7.39278 -2.71712,1.58567 -6.3184,0.84638 -8.04325,-1.65121 -1.4858,-2.15141 -6.0591,-6.33351 -11.45834,-9.98901 -0.50155,-0.33958 -1.06732,-0.61524 -1.58327,-0.94893 -0.0846,0.49936 -0.23914,1.0929 -0.26271,1.53698 -0.11194,2.11026 0.0962,3.72787 2.43489,6.6866 1.89146,2.39313 1.31419,5.74247 -1.28947,7.48106 -2.60366,1.73849 -6.24776,1.20786 -8.13929,-1.18519 -3.69051,-4.66886 -4.85691,-9.54132 -4.64662,-13.50432 0.14911,-2.81021 0.67322,-4.97947 1.10724,-6.8995 -1.48153,-0.67298 -3.04904,-1.4939 -4.38811,-1.96405 -9.26395,-3.25255 -23.91978,-1.13671 -23.91978,-1.13671 -0.27298,0.29511 -0.57328,1.09137 1.51602,3.62466 2.08924,2.53327 5.1356,5.28546 7.46679,9.46513 2.3312,4.17966 3.34985,9.10887 3.69326,16.6185 0.13472,2.95511 -2.36221,5.45118 -5.57735,5.57541 z"
       id="path1003"
       sodipodi:nodetypes="ssscscscsccscccssscscssccccccssscsscscccccscsccsssscccccscccscssccsccccscsscsscccsscccscccccsscsccscccsccssscsscccccsssccscccscscscscsccsscccssccsscssssscsccscss" /><g
       id="g10465"
       transform="translate(450.76681,-22.773933)"><path
         d="m -199.65913,194.7847 c 0,0 20.073,55.705 33.915,22.469 0,0 35.998,37.938 36.157,10.776 0,0 22.4,2.522 25.808,-11.313 3.695,-15.003 -7.281,-18.05 -14.732,-21.202 0,0 15.878,-26.985 -23.928,-12.177 0,0 5.883,-26.707 -36.479,-8.389 -42.361,18.318 -20.741,19.836 -20.741,19.836"
         style="fill:#3fbb6b;fill-opacity:1;fill-rule:nonzero;stroke:none;stroke-width:0.09999999"
         id="path106"
         inkscape:connector-curvature="0" /><path
         d="m -185.47913,125.8327 c 0,0 80.19,-0.615 82.753,21.901 1.523,13.391 -15.742,20.705 -33.63699,24.581 -59.96101,12.988 -60.06001,77.884 -122.76801,77.884 -40.912,0 -95.9534,-56.53 -107.3092,-88.27 -11.3567,-31.741 50.1942,-34.248 50.1942,-34.248 l 130.767,-1.848"
         style="fill:#484b4c;fill-opacity:1;fill-rule:nonzero;stroke:none;stroke-width:0.09999999"
         id="path108-5"
         inkscape:connector-curvature="0" /><path
         d="m -185.47913,125.8327 c 0,0 80.19,-0.615 82.753,21.901 1.523,13.391 -15.742,20.705 -33.63699,24.581 -59.96101,12.988 -60.06001,77.884 -122.76801,77.884 -40.912,0 -95.9534,-56.53 -107.3092,-88.27 -11.3567,-31.741 50.1942,-34.248 50.1942,-34.248 z"
         style="fill:none;stroke:#d1d2d0;stroke-width:5;stroke-linecap:butt;stroke-linejoin:miter;stroke-miterlimit:10;stroke-dasharray:none;stroke-opacity:1"
         id="path110"
         inkscape:connector-curvature="0" /><path
         d="m -312.28113,154.9817 c 9.368,-3.919 25.145,-7.609 51.64,-8.341 53.41,-1.477 104.639,1.17 115.99201,1.816 l -0.32601,0.137 c 0,0 -21.264,10.204 -74.257,5.998 -38.84,-3.083 -72.729,1.967 -88.061,4.885"
         style="fill:#171717;fill-opacity:1;fill-rule:nonzero;stroke:none;stroke-width:0.09999999"
         id="path112"
         inkscape:connector-curvature="0" /><path
         d="m -332.22813,83.438602 -28.7626,-14.8617 c -4.6539,-2.40431 -14.8512,18.79369 -9.2266,29.60779 5.6238,10.812898 34.8992,1.6449 34.8992,1.6449 3.26,-3.64369 5.412,-15.19099 3.09,-16.39099"
         style="fill:#f5748f;fill-opacity:1;fill-rule:evenodd;stroke:none;stroke-width:0.09999999"
         id="path114"
         inkscape:connector-curvature="0" /><path
         d="m -335.28613,84.639802 c 0,0 -15.0699,-8.3481 -21.7675,-11.46801 -6.6969,-3.1199 -11.2352,2.53401 -11.2363,2.5359 2.3406,-4.89999 5.3203,-8.1531 7.2992,-7.13079 l 26.1966,13.53669 -0.492,2.52621"
         style="fill:#f36082;fill-opacity:1;fill-rule:evenodd;stroke:none;stroke-width:0.09999999"
         id="path116"
         inkscape:connector-curvature="0" /><path
         d="m -341.16263,64.683502 c 12.2125,-31.7328 51.7895,-15.31871 60.0525,-14.41371 6.684,0.72891 14.7,-4.5863 29.61,-5.0703 14.90901,-0.48399 23.043,3.81021 35.855,1.9723 12.812,-1.83829 32.711,-19.54919 73.13,-7.50389 53.414,16.11799 -12.75399,143.607798 -97.96,143.607798 -85.204,0 -112.9004,-86.860198 -100.6875,-118.592198 v 0"
         style="fill:#f9b1bc;fill-opacity:1;fill-rule:evenodd;stroke:none;stroke-width:0.09999999"
         id="path118"
         inkscape:connector-curvature="0" /><path
         d="m -148.17013,38.157702 c 1.84401,0.445 3.71901,0.9328 5.655,1.5102 40.697,12.28159 11.968,89.204798 -41.702,125.142798 l -9.727,-18.611 c 0,0 18.952,-5.878 20.912,-16.303 2.06401,-10.977 0,-37.244008 0,-37.244008 0,0 43.751,-26.575 37.135,-39.7801 -3.795,-7.5719 -8.742,-12.16879 -12.273,-14.71489"
         style="fill:#f8a2ad;fill-opacity:1;fill-rule:evenodd;stroke:none;stroke-width:0.09999999"
         id="path120"
         inkscape:connector-curvature="0" /><path
         d="m -281.80213,112.0788 c 0.144,-11.50311 -8.915,-20.947198 -20.233,-21.092908 v 0 c -11.317,-0.14809 -20.608,9.057808 -20.752,20.560908 -0.144,11.5029 8.914,20.9469 20.232,21.0949 v 0 c 11.318,0.146 20.609,-9.06 20.753,-20.5629"
         style="fill:#ffffff;fill-opacity:1;fill-rule:nonzero;stroke:none;stroke-width:0.09999999"
         id="path122-8"
         inkscape:connector-curvature="0" /><path
         d="m -301.36413,95.357702 c -8.835,-0.53901 -16.43,6.298098 -16.968,15.276988 -0.538,8.98001 6.185,16.70501 15.019,17.26001 8.835,0.554 16.441,-6.272 16.994,-15.2768 0.526,-9.0063 -6.209,-16.720298 -15.045,-17.260198"
         style="fill:#040606;fill-opacity:1;fill-rule:nonzero;stroke:none;stroke-width:0.09999999"
         id="path124-9"
         inkscape:connector-curvature="0" /><path
         d="m -299.60713,122.1597 c 1.542,2.114 7.146,0.238 9.11,-3.27501 1.963,-3.5121 1.945,-8.90779 -1.308,-9.9969 -3.253,-1.08829 -3.016,3.15081 -4.721,6.13911 -1.705,2.9868 -4.623,5.0198 -3.081,7.1328 v 0"
         style="fill:#ffffff;fill-opacity:1;fill-rule:nonzero;stroke:none;stroke-width:0.09999999"
         id="path126-0"
         inkscape:connector-curvature="0" /><path
         d="m -292.15513,107.7968 c 1.148,-0.0672 1.986,-1.25 1.871,-2.64101 -0.115,-1.39219 -1.139,-2.46529 -2.286,-2.39809 -1.148,0.068 -1.986,1.2508 -1.871,2.643 0.115,1.39099 1.138,2.4648 2.286,2.3961"
         style="fill:#ffffff;fill-opacity:1;fill-rule:nonzero;stroke:none;stroke-width:0.09999999"
         id="path128-2"
         inkscape:connector-curvature="0" /><path
         d="m -235.46012,113.6886 c 0.93099,-14.662898 -10.81901,-27.355898 -26.25201,-28.359008 -15.434,-1.00269 -28.713,10.06411 -29.669,24.725008 -0.956,14.6611 10.773,27.3721 26.205,28.3981 15.431,1.026 28.73,-10.02 29.71001,-24.679"
         style="fill:#f9b1bc;fill-opacity:1;fill-rule:nonzero;stroke:none;stroke-width:0.09999999"
         id="path130-4"
         inkscape:connector-curvature="0" /><path
         d="m -237.79313,104.28159 c -3.28299,-9.776998 -12.59199,-17.158988 -23.99199,-17.895698 -14.82001,-0.96219 -27.57001,9.66601 -28.48501,23.743708 -0.417,6.4221 1.7,12.4551 5.533,17.2091 0,0 2.415,2.727 0.954,3.885 -1.46,1.158 -3.539,-2.091 -3.539,-2.091 -4.266,-5.316 -6.62,-12.05101 -6.153,-19.2199 1.031,-15.755098 15.302,-27.647308 31.88801,-26.570308 12.777,0.82811 23.20599,9.11211 26.868,20.076208 0,0 0.85999,2.24679 -0.64701,2.78589 -1.508,0.5391 -2.427,-1.923 -2.427,-1.923 v 0"
         style="fill:#a7505d;fill-opacity:1;fill-rule:nonzero;stroke:none;stroke-width:0.09999999"
         id="path132-7"
         inkscape:connector-curvature="0" /><path
         d="m -305.46513,139.0497 c -0.986,-1.123 -1.908,-1.821 -2.77,-2.543 -0.849,-0.748 -1.685,-1.275 -2.455,-1.863 -1.583,-1.062 -3.019,-1.971 -4.564,-2.73 -1.54,-0.774 -3.074,-1.581 -4.823,-2.383 -1.769,-0.802 -3.621,-1.676 -6.054,-2.619 l -0.089,-0.034 c -0.309,-0.12 -0.655,0.033 -0.775,0.342 -0.016,0.042 -0.028,0.088 -0.034,0.131 -0.405,2.806 0.43,5.296 1.68,7.489 1.284,2.181 3.123,4.04 5.297,5.353 2.163,1.31 4.634,2.195 7.183,2.188 2.524,0.07 5.091,-0.577 7.353,-2.333 0.287,-0.222 0.339,-0.636 0.116,-0.922 -0.008,-0.01 -0.015,-0.019 -0.024,-0.029 l -0.041,-0.047"
         style="fill:#040606;fill-opacity:1;fill-rule:nonzero;stroke:none;stroke-width:0.09999999"
         id="path134-6"
         inkscape:connector-curvature="0" /><path
         d="m -199.02513,140.0437 c 2.413,1.54 5.029,1.95 7.535,1.649 2.539,-0.227 4.919,-1.334 6.952,-2.839 2.046,-1.506 3.705,-3.527 4.784,-5.815 1.043,-2.298 1.648,-4.855 0.987,-7.612 -0.078,-0.322 -0.401,-0.52 -0.723,-0.443 -0.043,0.01 -0.085,0.025 -0.124,0.045 l -0.088,0.044 c -2.337,1.161 -4.101,2.202 -5.789,3.162 -1.667,0.96 -3.12,1.904 -4.583,2.816 -1.47,0.898 -2.817,1.935 -4.295,3.136 -0.713,0.657 -1.496,1.259 -2.273,2.082 -0.792,0.798 -1.647,1.577 -2.526,2.785 l -0.035,0.05 c -0.214,0.293 -0.148,0.704 0.145,0.918 0.01,0.007 0.022,0.015 0.033,0.022"
         style="fill:#040606;fill-opacity:1;fill-rule:nonzero;stroke:none;stroke-width:0.09999999"
         id="path136-5"
         inkscape:connector-curvature="0" /><path
         d="m -156.41913,87.218692 33.775,-26.286 c 5.464,-4.2539 21.746,18.4899 16.528,34.13521 -5.217,15.645688 -43.856,10.125798 -43.856,10.125798 -4.762,-4.0989 -9.17299,-15.853198 -6.447,-17.975008 v 0"
         style="fill:#f5748f;fill-opacity:1;fill-rule:evenodd;stroke:none;stroke-width:0.09999999"
         id="path138-7"
         inkscape:connector-curvature="0" /><path
         d="m -115.19613,103.2609 v 0 c 13.672,-9.872308 5.398,-28.907108 -0.684,-36.097298 -5.479,-6.477 -33.994,14.9973 -39.583,19.31089 l 32.819,-25.5418 c 5.464,-4.2539 21.746,18.4899 16.528,34.13521 -1.307,3.91989 -4.711,6.509788 -9.08,8.192998"
         style="fill:#f36082;fill-opacity:1;fill-rule:evenodd;stroke:none;stroke-width:0.09999999"
         id="path140-1"
         inkscape:connector-curvature="0" /><path
         sodipodi:nodetypes="sssss"
         inkscape:connector-curvature="0"
         id="path10348"
         d="m -181.5427,114.5859 c 0,-14.3419 -12.78352,-25.9683 -28.55281,-25.9683 -15.76929,0 -28.55282,11.6264 -28.55282,25.9683 0,14.3419 13.47974,20.05057 29.24902,20.05057 15.76929,0 27.85661,-5.70867 27.85661,-20.05057 z"
         style="opacity:1;fill:#1c1c1c;fill-opacity:1;stroke:none;stroke-width:1.32980275;stroke-linecap:round;stroke-linejoin:round;stroke-miterlimit:4;stroke-dasharray:none;stroke-dashoffset:0;stroke-opacity:1" /><path
         d="m -321.43213,62.258492 c 0.852,0.5774 27.386,22.209 51.28001,22.65 16.20799,0.3024 29.79999,2.025 49.47499,-6.1137 19.676,-8.139 41.837,-24.0832 42.414,-24.4363 0.578,-0.3519 0.96,-2.35899 0.543,-3.25269 -0.417,-0.89421 -1.764,-0.62621 -2.249,-0.3063 -0.484,0.32029 -24.625,14.6391 -41.328,21.5481 -16.703,6.90819 -31.04,6.09799 -49.47599,6.114 -23.89801,0.0282 -48.05301,-19.81871 -48.82501,-19.95701 -0.771,-0.1621 -2.612,-0.6898 -3.087,0.42311 -0.395,0.92419 0.402,2.7558 1.254,3.33199 l -9.8e-4,-10e-4"
         style="fill:#a7505d;fill-opacity:1;fill-rule:nonzero;stroke:none;stroke-width:0.09999999"
         id="path146-3"
         inkscape:connector-curvature="0" /><path
         d="m -307.29313,159.4767 c 0,0 -9.997,-1.812 -12.743,-13.277 0,0 7.294,5.519 28.6,3.166 21.306,-2.353 95.093,2.762 120.46801,-9.05 10.791,-5.024 17.601,-2.578 17.601,-2.578 0,0 7.69999,13.576 -8.62301,17.833 l -11.396,3.906 -132.465,4.838 -1.442,-4.838"
         style="fill:#be1c2e;fill-opacity:1;fill-rule:evenodd;stroke:none;stroke-width:0.09999999"
         id="path148-8"
         inkscape:connector-curvature="0" /><path
         d="m -169.80213,145.8267 c 0,0 4.66901,-32.4682 -3.23,-53.174008 0,0 19.213,-8.179 15.674,1.68 -3.53899,9.860998 8.327,-1.27609 8.327,-1.27609 0,0 -7.27899,58.315098 -20.771,52.770098"
         style="fill:#be1c2e;fill-opacity:1;fill-rule:evenodd;stroke:none;stroke-width:0.09999999"
         id="path150-5"
         inkscape:connector-curvature="0" /><path
         sodipodi:nodetypes="csc"
         id="path10378"
         d="m -226.14456,156.8713 c 0,0 12.55267,-26.59348 27.26551,-35.41873 33.10003,-19.85449 63.31726,-10.60148 63.31726,-10.60148"
         style="fill:none;fill-rule:evenodd;stroke:#1c1c1c;stroke-width:3;stroke-linecap:butt;stroke-linejoin:miter;stroke-miterlimit:4;stroke-dasharray:none;stroke-opacity:1"
         inkscape:connector-curvature="0" /><path
         d="m -144.97513,148.5937 c 0,0 -21.264,10.204 -74.257,5.998 -52.993,-4.206 -96.771,6.728 -96.771,6.728 0,0 -8.241,2.111 -13.029,6.53 v 13.116 l 60.018,27.07 59.164,-4.465 61.39401,-41.302 3.48099,-13.675"
         style="fill:#484b4c;fill-opacity:1;fill-rule:nonzero;stroke:none;stroke-width:0.09999999"
         id="path152-1"
         inkscape:connector-curvature="0" /><path
         d="m -252.46813,210.8377 c -1.89499,-0.346 -3.819,1.494 -4.296,4.109 -0.477,2.616 0.672,5.017 2.568,5.363 1.895,0.346 3.818,-1.494 4.296,-4.109 0.477,-2.616 -0.673,-5.017 -2.568,-5.363 z m -3.756,-6.124 h -3.555 c -0.84,0 -1.38499,0.883 -1.00999,1.635 l 1.77699,3.554 c 0.41601,0.833 1.60401,0.833 2.02101,0 l 1.77699,-3.554 c 0.376,-0.752 -0.17,-1.635 -1.01,-1.635 z m -7.311,6.124 c -1.89499,0.346 -3.04399,2.747 -2.56699,5.363 0.477,2.615 2.4,4.455 4.29499,4.109 1.896,-0.346 3.045,-2.747 2.568,-5.363 -0.477,-2.615 -2.401,-4.455 -4.296,-4.109 z m 19.269,5.193 c -0.85699,0.497 -1.393,1.388 -1.61299,2.354 -1.31201,5.764 -6.24201,10.05 -12.12201,10.05 -5.882,0 -10.811,-4.286 -12.123,-10.051 -0.21999,-0.965 -0.756,-1.856 -1.61199,-2.353 -2.08801,-1.213 -3.45101,-3.203 -3.45101,-5.457 0,-3.198 2.74,-5.873 6.404,-6.539 1.032,-0.187 1.782,-1.086 1.782,-2.134 v -0.066 c 0,-1.753 1.413,-3.168 3.156,-3.168 h 11.68701 c 1.74399,0 3.15699,1.413 3.15699,3.157 0,1.093 0.783,2.022 1.858,2.225 3.626,0.689 6.32801,3.349 6.32801,6.525 0,2.254 -1.365,4.245 -3.45101,5.457"
         style="fill:#ffffff;fill-opacity:1;fill-rule:evenodd;stroke:none;stroke-width:0.09999999"
         id="path154-0"
         inkscape:connector-curvature="0" /><path
         d="m -265.55513,173.8937 24.652,17.956 c 0.822,-1.28 2.634,-2.022 4.30901,-1.682 1.863,0.376 2.84199,1.936 2.18899,3.484 -0.65299,1.548 -2.69299,2.497 -4.554,2.121 -0.225,-0.045 -0.436,-0.11 -0.634,-0.188 0.135,0.164 0.261,0.345 0.373,0.545 0.93,1.657 0.65201,3.889 -0.621,4.985 -1.273,1.097 -3.058,0.643 -3.988,-1.014 -0.85299,-1.519 -0.678,-3.512 0.337,-4.679 l -24.669,-17.968 c -0.799,1.324 -2.643,2.101 -4.351,1.756 -1.861,-0.377 -2.841,-1.937 -2.188,-3.485 0.653,-1.547 2.692,-2.497 4.55401,-2.12 0.225,0.045 0.43599,0.11 0.63399,0.188 -0.135,-0.165 -0.261,-0.346 -0.37299,-0.546 -0.93,-1.657 -0.65201,-3.888 0.621,-4.985 1.27299,-1.097 3.05799,-0.643 3.98799,1.014 0.837,1.492 0.687,3.443 -0.279,4.618"
         style="fill:#ffffff;fill-opacity:1;fill-rule:evenodd;stroke:none;stroke-width:0.09999999"
         id="path156-8"
         inkscape:connector-curvature="0" /><path
         d="m -250.44812,173.8937 -24.65201,17.956 c -0.822,-1.28 -2.633,-2.022 -4.31,-1.682 -1.861,0.376 -2.841,1.936 -2.188,3.484 0.653,1.548 2.692,2.497 4.555,2.121 0.224,-0.045 0.435,-0.11 0.633,-0.188 -0.135,0.164 -0.261,0.345 -0.373,0.545 -0.93,1.657 -0.651,3.889 0.621,4.985 1.273,1.097 3.059,0.643 3.988,-1.014 0.853,-1.519 0.67801,-3.512 -0.337,-4.679 l 24.669,-17.968 c 0.8,1.324 2.643,2.101 4.35101,1.756 1.86199,-0.377 2.84199,-1.937 2.18799,-3.485 -0.653,-1.547 -2.69199,-2.497 -4.554,-2.12 -0.225,0.045 -0.43599,0.11 -0.63399,0.188 0.135,-0.165 0.261,-0.346 0.37299,-0.546 0.93,-1.657 0.652,-3.888 -0.621,-4.985 -1.27299,-1.097 -3.05799,-0.643 -3.987,1.014 -0.83799,1.492 -0.68799,3.443 0.27801,4.618"
         style="fill:#ffffff;fill-opacity:1;fill-rule:evenodd;stroke:none;stroke-width:0.09999999"
         id="path158-7"
         inkscape:connector-curvature="0" /></g></g></svg>
