<?xml version="1.0" encoding="UTF-8" standalone="no"?>
<!-- Created with Vectornator for iOS (http://vectornator.io/) -->

<svg
   xmlns:vectornator="http://vectornator.io"
   xmlns:dc="http://purl.org/dc/elements/1.1/"
   xmlns:cc="http://creativecommons.org/ns#"
   xmlns:rdf="http://www.w3.org/1999/02/22-rdf-syntax-ns#"
   xmlns:svg="http://www.w3.org/2000/svg"
   xmlns="http://www.w3.org/2000/svg"
   xmlns:sodipodi="http://sodipodi.sourceforge.net/DTD/sodipodi-0.dtd"
   xmlns:inkscape="http://www.inkscape.org/namespaces/inkscape"
   style="clip-rule:evenodd;fill-rule:evenodd;stroke-linecap:round;stroke-linejoin:round"
   xml:space="preserve"
   version="1.1"
   viewBox="0 0 554.89301 345.61301"
   id="svg1309"
   sodipodi:docname="Blobextended.svg"
   inkscape:version="0.92.4 (5da689c313, 2019-01-14)"
   width="554.89301"
   height="345.61301"><sodipodi:namedview
   pagecolor="#ffffff"
   bordercolor="#666666"
   borderopacity="1"
   objecttolerance="10"
   gridtolerance="10"
   guidetolerance="10"
   inkscape:pageopacity="0"
   inkscape:pageshadow="2"
   inkscape:window-width="3840"
   inkscape:window-height="2047"
   id="namedview1311"
   showgrid="false"
   inkscape:zoom="2.5559055"
   inkscape:cx="185.38345"
   inkscape:cy="134.78378"
   inkscape:window-x="2560"
   inkscape:window-y="0"
   inkscape:window-maximized="1"
   inkscape:current-layer="svg1309" />
<metadata
   id="metadata1236">
<vectornator:setting
   key="DynamicGuides"
   value="1" />
<vectornator:setting
   key="Units"
   value="Points" />
<vectornator:setting
   key="GridSpacing"
   value="36" />
<vectornator:setting
   key="SnapToGuides"
   value="1" />
<vectornator:setting
   key="RulersVisible"
   value="1" />
<rdf:RDF><cc:Work
     rdf:about=""><dc:format>image/svg+xml</dc:format><dc:type
       rdf:resource="http://purl.org/dc/dcmitype/StillImage" /><dc:title></dc:title></cc:Work></rdf:RDF></metadata>
<defs
   id="defs1238">

























</defs>
<path
   style="opacity:1;fill:#2e2f28;fill-opacity:1;stroke-width:7.85303116"
   inkscape:connector-curvature="0"
   id="path1240"
   d="m 547.2927,299.6767 c 0,25.37 -120.81417,45.93631 -269.84664,45.93631 -149.03168,0 -269.8457563,-20.56631 -269.8457563,-45.93631 0,-25.36921 120.8140763,-45.93552 269.8457563,-45.93552 149.03247,0 269.84664,20.56631 269.84664,45.93552" /><g
   id="g2556"
   transform="matrix(1.0276901,0,0,1.0276901,1.4783783,-16.69593)"><path
     d="M 127.57534,287.94086 87.836584,304.3705 c -6.430344,2.65746 -17.538876,-26.54504 -8.877006,-40.22329 8.660147,-13.67739 46.373062,1.75216 46.373062,1.75216 3.90451,5.18936 5.45185,20.71449 2.2427,22.04149 z"
     id="path1242"
     inkscape:connector-curvature="0"
     style="opacity:1;fill:#ff9197;stroke-width:8.60593319" /><path
     d="m 363.08068,193.37673 c 65.89255,-39.89112 116.76251,-94.737558 157.55035,-159.619457 -5.67148,36.566067 -6.27617,72.326017 16.3648,104.389167 -23.2587,17.62322 -39.98718,44.69835 -47.65056,84.89235 -25.02992,-3.88904 -49.19529,-0.62901 -70.24289,28.38927 -9.4883,-21.63448 -21.73939,-33.7499 -40.78568,-22.45206 l -15.05963,1.23411 -6.8235,-31.55105 z"
     id="path1244"
     inkscape:connector-curvature="0"
     style="opacity:1;fill:#d97f84;stroke-width:7.90385151" /><path
     d="M 119.69517,182.7671 C 74.371865,151.81502 39.381161,109.25865 11.325529,58.915145 c 3.900788,28.372294 4.317026,56.119805 -11.2564645,80.997875 15.9980675,13.67395 27.5047445,34.6819 32.7760545,65.86982 17.216934,-3.01815 33.83797,-0.48924 48.316138,22.02775 6.525881,-16.78679 14.952902,-26.18702 28.054023,-17.421 l 10.35867,0.95697 4.69297,-24.48042 z"
     id="path1246"
     inkscape:connector-curvature="0"
     style="opacity:1;fill:#d97f84;stroke-width:7.90385151" /><path
     d="m 0.0690645,139.91302 c 15.9980675,13.67395 27.5047445,34.6819 32.7760545,65.86982 17.216934,-3.01815 33.83797,-0.48924 48.316138,22.02775 6.525881,-16.78679 14.952902,-26.18702 28.054023,-17.421 l 10.35867,0.95697 c 0,0 -22.260601,-15.8014 -37.309325,0.15313 C 77.838066,216.1925 67.859775,203.81542 62.16796,200.6717 52.729757,195.45823 39.632467,198.30676 33.909151,187.59153 22.767095,166.73246 8.9410032,142.82172 0.0690645,139.91296 Z"
     id="path1248"
     inkscape:connector-curvature="0"
     style="opacity:1;fill:#ca6c71;stroke-width:7.90385151" /><path
     d="m 100.90815,285.50023 c 16.22132,42.14761 65.14776,19.25578 76.12463,18.05443 8.87788,-0.96994 23.16459,7.18253 42.96856,7.82625 19.80312,0.6408 38.61482,-4.33402 55.6322,-1.89337 17.01824,2.44151 35.4401,25.23861 89.12735,9.23939 45.58906,-13.75748 72.29241,-36.90915 22.73171,-88.64885 -12.88824,-13.45451 -21.47009,-56.00742 -48.08823,-75.02488 -30.31355,-21.65936 -85.30374,-29.25582 -110.58194,-29.25582 -21.47784,0 -40.88162,19.28075 -61.2992,32.9934 -15.80997,10.61714 -33.97709,15.27297 -43.14413,21.61728 -52.213915,36.13713 -35.039061,75.03594 -23.47095,105.09217 z"
     id="path1250"
     inkscape:connector-curvature="0"
     style="opacity:1;fill:#ffc7c7;stroke-width:8.60593319" /><path
     d="m 275.63354,309.48754 c 17.01824,2.44151 35.4401,25.23861 89.12735,9.23939 45.58906,-13.75748 72.29241,-36.90915 22.73171,-88.64885 -12.88824,-13.45451 -21.47009,-56.00742 -48.08823,-75.02488 14.74367,15.19037 18.84871,35.37477 42.32483,84.66267 4.13947,8.69197 32.3738,36.44348 7.08355,54.92646 -45.86102,33.51665 -82.68323,17.55442 -113.17921,14.84521 z"
     id="path1252"
     inkscape:connector-curvature="0"
     style="opacity:1;fill:#f7b5b5;stroke-width:8.60593319" /><path
     d="m 355.69971,294.0184 48.49614,29.65949 c 7.84603,4.79866 25.94431,-27.64652 16.72564,-47.51854 -9.21781,-19.87193 -59.39213,-6.82617 -59.39213,-6.82617 -5.67475,6.1205 -9.74536,22.29107 -5.82965,24.68522 z"
     id="path1254"
     inkscape:connector-curvature="0"
     style="opacity:1;fill:#ff9197;stroke-width:8.60593319" /><g
     transform="matrix(8.6059332,0,0,8.6059332,-68.377437,8.7360121)"
     id="g1278"
     style="opacity:1">
<path
   d="m 22.7695,32.4434 c 0.1314,-0.0891 4.2267,-3.4277 7.9144,-3.4959 2.5016,-0.0465 4.5994,-0.3124 7.6362,0.9437 3.0367,1.2562 6.4571,3.7171 6.5462,3.7716 0.089,0.0543 0.1481,0.3639 0.0838,0.502 -0.0644,0.138 -0.2724,0.0966 -0.3472,0.0472 -0.0748,-0.0495 -3.8006,-2.2594 -6.3786,-3.3257 -2.578,-1.0663 -4.7908,-0.9411 -7.6361,-0.9436 -3.6884,-0.0043 -7.4166,3.0588 -7.5356,3.0801 -0.1191,0.025 -0.4032,0.1066 -0.4765,-0.0653 -0.0611,-0.1426 0.062,-0.4254 0.1934,-0.5143 z"
   id="path1256"
   inkscape:connector-curvature="0"
   style="opacity:1;fill:#b06264" />
<path
   d="m 28.8325,24.8447 c 0.0222,1.7753 -1.3759,3.233 -3.1227,3.2556 -1.7468,0.0227 -3.1808,-1.3981 -3.203,-3.1735 -0.0222,-1.7754 1.3759,-3.2331 3.1227,-3.2557 1.7468,-0.0227 3.1808,1.3982 3.203,3.1736 z"
   id="path1258"
   inkscape:connector-curvature="0"
   style="opacity:1;fill:#fffefe" />
<path
   d="m 25.8134,27.4255 c -1.3637,0.0833 -2.5359,-0.972 -2.6189,-2.3579 -0.0831,-1.3859 0.9545,-2.5782 2.318,-2.6638 1.3636,-0.0855 2.5374,0.9678 2.6229,2.3577 0.0811,1.39 -0.9583,2.5806 -2.322,2.664 z"
   id="path1260"
   inkscape:connector-curvature="0"
   style="opacity:1;fill:#000000" />
<path
   d="m 26.0845,23.2887 c 0.2379,-0.3261 1.1029,-0.0366 1.406,0.5056 0.303,0.542 0.3003,1.3748 -0.2018,1.5429 -0.5022,0.1679 -0.4655,-0.4863 -0.7287,-0.9474 -0.2632,-0.4612 -0.7136,-0.775 -0.4756,-1.101 z"
   id="path1262"
   inkscape:connector-curvature="0"
   style="opacity:1;fill:#ffffff" />
<path
   d="m 26.8818,25.8754 c 0.0177,-0.2147 0.1757,-0.3803 0.3529,-0.3699 0.1771,0.0105 0.3064,0.1931 0.2887,0.4078 -0.0178,0.2148 -0.1757,0.3804 -0.3529,0.37 -0.1772,-0.0105 -0.3064,-0.1931 -0.2887,-0.4079 z"
   id="path1264"
   inkscape:connector-curvature="0"
   style="opacity:1;fill:#ffffff" />
<path
   d="m 35.9849,24.5963 c 0.1438,2.2631 -1.6697,4.2221 -4.0517,4.3769 -2.3821,0.1548 -4.4316,-1.5532 -4.5792,-3.816 -0.1475,-2.2629 1.6627,-4.2246 4.0445,-4.383 2.3818,-0.1585 4.4342,1.5464 4.5856,3.809"
   id="path1266"
   inkscape:connector-curvature="0"
   style="opacity:1;fill:#ffc7c7" />
<path
   d="m 35.6249,26.0482 c -0.5068,1.5089 -1.9435,2.6481 -3.703,2.762 -2.2873,0.1485 -4.2551,-1.4919 -4.3964,-3.6647 -0.0644,-0.9912 0.2624,-1.9223 0.8541,-2.6561 0,0 0.3726,-0.4207 0.1472,-0.5995 -0.2253,-0.1788 -0.5462,0.3226 -0.5462,0.3226 -0.6585,0.8206 -1.0219,1.86 -0.9497,2.9665 0.1591,2.4317 2.3617,4.267 4.9216,4.1008 1.972,-0.1279 3.5817,-1.4063 4.1469,-3.0986 0,0 0.1326,-0.3467 -0.1,-0.4299 -0.2327,-0.0832 -0.3746,0.2969 -0.3745,0.2969 z"
   id="path1268"
   inkscape:connector-curvature="0"
   style="opacity:1;fill:#b06264" />
<path
   d="m 42.6266,24.8135 c 0.0222,1.7754 -1.3759,3.2331 -3.1227,3.2557 -1.7468,0.0227 -3.1808,-1.3981 -3.203,-3.1735 -0.0222,-1.7754 1.3759,-3.2331 3.1227,-3.2557 1.7468,-0.0227 3.1808,1.3982 3.203,3.1735 z"
   id="path1270"
   inkscape:connector-curvature="0"
   style="opacity:1;fill:#fffefe" />
<path
   d="m 39.6074,27.3944 c -1.3636,0.0833 -2.5358,-0.972 -2.6189,-2.3579 -0.083,-1.3859 0.9545,-2.5782 2.3181,-2.6638 1.3635,-0.0856 2.5374,0.9678 2.6228,2.3577 0.0811,1.39 -0.9583,2.5806 -2.322,2.664 z"
   id="path1272"
   inkscape:connector-curvature="0"
   style="opacity:1;fill:#000000" />
<path
   d="m 39.8785,23.2576 c 0.238,-0.3261 1.103,-0.0366 1.406,0.5056 0.303,0.542 0.3004,1.3748 -0.2018,1.5429 -0.5022,0.1679 -0.4654,-0.4863 -0.7286,-0.9474 -0.2633,-0.4612 -0.7136,-0.775 -0.4756,-1.101 z"
   id="path1274"
   inkscape:connector-curvature="0"
   style="opacity:1;fill:#ffffff" />
<path
   d="m 40.6759,25.8443 c 0.0177,-0.2147 0.1757,-0.3804 0.3528,-0.3699 0.1772,0.0105 0.3064,0.193 0.2887,0.4078 -0.0177,0.2148 -0.1757,0.3804 -0.3528,0.3699 -0.1772,-0.0104 -0.3064,-0.193 -0.2887,-0.4078 z"
   id="path1276"
   inkscape:connector-curvature="0"
   style="opacity:1;fill:#ffffff" />
</g><path
     d="m 118.35753,100.01658 c 0.5981,2.161 52.70789,66.5531 52.70789,66.5531"
     id="path1280"
     inkscape:connector-curvature="0"
     style="opacity:1;fill:none;stroke:#572100;stroke-width:5.76547623;stroke-linecap:round;stroke-linejoin:round" /><path
     d="m 116.75941,99.700728 -14.9244,70.542842 43.9109,-33.6965 z"
     id="path1282"
     inkscape:connector-curvature="0"
     style="opacity:1;fill:#78dce8;fill-opacity:1;stroke-width:8.60593319" /><path
     style="opacity:1;fill:#ff6188;fill-opacity:1;stroke-width:8.60593319"
     inkscape:connector-curvature="0"
     id="path1284"
     d="m 420.21924,169.3374 -67.16242,50.92988 c -1.59039,4.25305 -1.67817,8.10678 4.4157,10.31937 l 82.56275,-26.2885 c -7.21436,-8.97169 -13.51992,-14.11206 -19.81603,-34.96075 z" /><path
     style="opacity:1;fill:#c04664;fill-opacity:1;stroke-width:8.60593319"
     inkscape:connector-curvature="0"
     id="path1286"
     d="m 420.21924,169.3374 c 18.55009,7.26508 21.18437,20.53113 19.81603,34.96075 -18.89348,-10.79274 -21.30142,-19.00189 -19.81603,-34.96075 z" /><path
     style="opacity:1;fill:#ff6188;fill-opacity:1;stroke-width:8.60593319"
     inkscape:connector-curvature="0"
     id="path1290"
     d="m 228.6047,138.71404 c 3.69624,5.40627 8.62572,9.8908 18.91584,12.71264 13.29444,3.64554 29.81783,4.94065 43.69576,3.38473 10.24536,-1.14803 16.25661,-4.48455 21.25579,-8.94154 0,0 -6.34429,-38.66816 -34.08121,-43.74742 -0.38212,-0.0707 -0.77627,-0.0864 -1.17128,-0.12251 -0.43717,-0.0393 -0.87607,-0.17434 -1.3012,-0.0997 -9.85293,1.73324 -47.3137,36.81273 -47.3137,36.81359 z" /><path
     style="opacity:1;fill:#78dce8;fill-opacity:1;stroke-width:8.60593319"
     inkscape:connector-curvature="0"
     id="path1292"
     d="m 290.94607,154.84157 c 10.35982,-1.13084 19.27472,-3.84084 24.3178,-8.33662 0,0 -2.72637,-41.28605 -38.04427,-44.5047 8.31678,4.34776 14.21185,34.72146 13.72647,52.84132 z" /><path
     style="opacity:1;fill:#ffd866;fill-opacity:1;stroke-width:8.60593319"
     inkscape:connector-curvature="0"
     id="path1294"
     d="m 225.17867,138.96792 c 3.70744,5.4226 12.10253,9.6627 22.43568,12.48459 2.53702,-18.09653 15.21185,-45.6071 29.60525,-49.45226 -35.31702,-3.218638 -52.04093,36.96767 -52.04093,36.96767 z" /><path
     style="opacity:1;fill:none;stroke:#000000;stroke-width:1.84882975;stroke-linecap:round;stroke-linejoin:round"
     inkscape:connector-curvature="0"
     id="path1296"
     d="m 277.47778,97.662871 -0.29433,4.203959" /><path
     style="opacity:1;fill:#ff6188;fill-opacity:1;stroke-width:8.60593319"
     inkscape:connector-curvature="0"
     id="path1298"
     d="m 277.68605,98.22742 c 0.0895,-2.248715 4.52501,-3.899106 9.90716,-3.685424 5.38128,0.213598 9.6722,2.210389 9.58269,4.459969 -0.0895,2.248715 -4.52412,3.899355 -9.90627,3.685035 -5.38215,-0.2136 -9.67222,-2.21 -9.58358,-4.45958 z" /><path
     style="opacity:1;fill:#78dce8;fill-opacity:1;stroke-width:8.60593319"
     inkscape:connector-curvature="0"
     id="path1300"
     d="m 257.62734,96.653357 c 0.15581,-2.245258 4.63774,-3.763248 10.0113,-3.390303 5.37266,0.373019 9.60248,2.496163 9.44672,4.741495 -0.15659,2.245261 -4.63861,3.763331 -10.01128,3.390701 -5.37354,-0.37302 -9.60337,-2.495685 -9.44674,-4.741893 z" /><path
     d="m 374.44945,305.48579 29.7464,18.1921 c 7.84603,4.79866 25.94431,-27.64652 16.72564,-47.51854 0.28828,9.76949 -4.56545,41.97029 -18.27557,41.09593 -8.2023,-0.52379 -28.19647,-11.76949 -28.19647,-11.76949 z"
     id="path1304"
     inkscape:connector-curvature="0"
     style="opacity:1;fill:#d37075;stroke-width:8.60593319" /><path
     d="m 520.63103,33.757273 c -5.67148,36.566067 -6.27617,72.326017 16.3648,104.389167 -23.2587,17.62322 -39.98718,44.69835 -47.65056,84.89235 -25.02992,-3.88904 -49.19529,-0.62901 -70.24289,28.38927 14.0644,-36.12088 40.35086,-30.39618 58.94636,-45.53745 8.35443,-6.803 10.73758,-19.66116 18.60639,-36.53049 7.37664,-15.81515 21.31547,-25.14997 23.02351,-35.27143 4.16888,-24.7076 -14.15586,-47.289219 0.95239,-100.331417 z"
     id="path1306"
     inkscape:connector-curvature="0"
     style="opacity:1;fill:#ca6c71;stroke-width:7.90385151" /></g>
</svg>