<?xml version="1.0" encoding="UTF-8" standalone="no"?>
<svg
   style="fill-rule:evenodd;clip-rule:evenodd;stroke-linecap:round;stroke-linejoin:round;"
   xml:space="preserve"
   version="1.1"
   viewBox="0 0 554.893 345.613"
   id="svg1279"
   sodipodi:docname="logo_hero.svg"
   inkscape:version="1.1 (1:1.1+202105261517+ce6663b3b7)"
   xmlns:inkscape="http://www.inkscape.org/namespaces/inkscape"
   xmlns:sodipodi="http://sodipodi.sourceforge.net/DTD/sodipodi-0.dtd"
   xmlns="http://www.w3.org/2000/svg"
   xmlns:svg="http://www.w3.org/2000/svg"
   xmlns:rdf="http://www.w3.org/1999/02/22-rdf-syntax-ns#"
   xmlns:cc="http://creativecommons.org/ns#"
   xmlns:dc="http://purl.org/dc/elements/1.1/"
   xmlns:vectornator="http://vectornator.io"><sodipodi:namedview
   pagecolor="#ffffff"
   bordercolor="#666666"
   borderopacity="1"
   objecttolerance="10"
   gridtolerance="10"
   guidetolerance="10"
   inkscape:pageopacity="0"
   inkscape:pageshadow="2"
   inkscape:window-width="1920"
   inkscape:window-height="1016"
   id="namedview1281"
   showgrid="false"
   inkscape:zoom="0.34140625"
   inkscape:cx="417.3913"
   inkscape:cy="784.98856"
   inkscape:window-x="1080"
   inkscape:window-y="27"
   inkscape:window-maximized="1"
   inkscape:current-layer="svg1279"
   inkscape:document-rotation="0"
   inkscape:pagecheckerboard="0" />
<metadata
   id="metadata1190">
<vectornator:setting
   key="DynamicGuides"
   value="1" />
<vectornator:setting
   key="CMYKEnabledKey"
   value="0" />
<vectornator:setting
   key="Units"
   value="Points" />
<vectornator:setting
   key="GridSpacing"
   value="36" />
<vectornator:setting
   key="SnapToGuides"
   value="1" />
<vectornator:setting
   key="RulersVisible"
   value="1" />
<rdf:RDF><cc:Work
     rdf:about=""><dc:format>image/svg+xml</dc:format><dc:type
       rdf:resource="http://purl.org/dc/dcmitype/StillImage" /></cc:Work></rdf:RDF></metadata>
<defs
   id="defs1202">











































</defs>



<path
   style="fill:#b0f2ff;fill-opacity:1"
   inkscape:connector-curvature="0"
   id="path44520"
   d="m 60.82611,243.59401 c 0,-121.062 98.14068,-219.202698 219.20268,-219.202698 121.0621,0 219.2021,98.140698 219.2021,219.202698 0,19.624 -2.579,38.646 -7.416,56.745 -28.822,4.553 -404.059179,4.553 -423.767779,-0.734 -4.7115,-17.879 -7.221,-36.652 -7.221001,-56.011 z" /><path
   style="fill:#1e1f1b"
   inkscape:connector-curvature="0"
   id="path44522"
   d="m 548.87589,299.40701 c 0,25.519 -121.523,46.206 -271.4291,46.206 -149.90699,0 -271.4296792,-20.687 -271.4296792,-46.206 0,-25.518 121.5226892,-46.205 271.4296792,-46.205 149.9061,0 271.4291,20.687 271.4291,46.205" /><g
   id="g9558"><path
     id="path44524"
     style="fill:#97da12;fill-opacity:1;stroke-width:2.0366"
     d="m 155.07767,52.68763 c 4.9342,0 8.90649,4.03517 8.90649,9.04747 0,0 0,10.85685 0,21.0883 0,10.23143 9.71781,26.86689 9.71781,40.30034 0,13.43345 -17.96394,26.86687 -17.96394,40.30037 0,13.4334 19.04522,26.8669 19.04522,40.3003 0,13.4335 -10.79908,27.888 -10.79908,40.3004 0,12.4123 0,34.1738 0,34.1738 0,5.0123 -3.97229,9.0475 -8.90649,9.0475 -4.93418,0 -8.90649,-4.0352 -8.90649,-9.0475 0,0 0,-21.7615 0,-34.1738 0,-12.4124 10.79909,-26.8669 10.79909,-40.3004 0,-13.4334 -19.04521,-26.8669 -19.04521,-40.3003 0,-13.4335 17.96394,-26.86692 17.96394,-40.30037 0,-13.43345 -9.71781,-30.06891 -9.71781,-40.30034 0,-10.23145 0,-21.0883 0,-21.0883 0,-5.0123 3.9723,-9.04747 8.90647,-9.04747 z"
     sodipodi:nodetypes="sszzzzzssszzzzzss" /><path
     id="path44526"
     style="fill:#b6ee47;fill-opacity:1;stroke-width:2.0366"
     d="m 138.12252,34.07106 c 4.9342,0 8.9065,4.03517 8.9065,9.04747 0,0 0,26.37067 0,39.70487 0,13.3342 9.7178,26.86689 9.7178,40.30034 0,13.43345 -17.96394,26.86687 -17.96394,40.30037 0,13.4334 19.04521,26.8669 19.04521,40.3003 0,13.4335 -10.79908,27.888 -10.79908,40.3004 0,12.4123 0,34.1738 0,34.1738 0,5.0123 -3.97229,9.0475 -8.90649,9.0475 -4.93418,0 -8.90646,-4.0352 -8.90646,-9.0475 0,0 0,-21.7615 0,-34.1738 0,-12.4124 10.79907,-26.8669 10.79907,-40.3004 0,-13.4334 -19.04521,-26.8669 -19.04521,-40.3003 0,-13.4335 17.96393,-26.86692 17.96393,-40.30037 0,-13.43345 -9.71779,-26.96614 -9.71779,-40.30034 0,-13.3342 0,-39.70487 0,-39.70487 0,-5.0123 3.97228,-9.04747 8.90646,-9.04747 z"
     sodipodi:nodetypes="sszzzzzssszzzzzss" /><path
     id="path44528"
     style="fill:#a6e22e;fill-opacity:1;stroke-width:2.0366"
     d="m 121.35619,66.49096 c 4.93419,0 8.90648,4.03517 8.90648,9.04747 0,0 0,-0.64592 0,7.28497 0,7.93088 9.71782,26.86689 9.71782,40.30034 0,13.43345 -17.96395,26.86687 -17.96395,40.30037 0,13.4334 19.04521,26.8669 19.04521,40.3003 0,13.4335 -10.79908,27.888 -10.79908,40.3004 0,12.4123 0,34.1738 0,34.1738 0,5.0123 -3.97229,9.0475 -8.90648,9.0475 -4.93419,0 -8.90648,-4.0352 -8.90648,-9.0475 0,0 0,-21.7615 0,-34.1738 0,-12.4124 10.79908,-26.8669 10.79908,-40.3004 0,-13.4334 -19.04521,-26.8669 -19.04521,-40.3003 0,-13.4335 17.96394,-26.86692 17.96394,-40.30037 0,-13.43345 -9.71781,-32.36946 -9.71781,-40.30034 0,-7.93089 0,-7.28497 0,-7.28497 0,-5.0123 3.97229,-9.04747 8.90648,-9.04747 z"
     sodipodi:nodetypes="sszzzzzssszzzzzss" /></g><g
   id="g9563"><path
     id="path44530"
     style="fill:#97da12;fill-opacity:1;stroke-width:1.83294"
     d="m 232.70847,73.040388 c 4.34916,0.871676 7.04788,5.120716 6.05094,9.527006 0,0 -2.15941,9.544194 -4.19443,18.538606 -2.03501,8.99441 3.22182,25.3353 0.54994,37.14458 -2.67189,11.80928 -21.17779,20.4451 -23.84967,32.2543 -2.67189,11.80931 11.44329,26.98307 8.77141,38.79237 -2.6719,11.80931 -15.06553,22.60848 -17.53433,33.52009 -2.46879,10.91162 -6.79711,30.04209 -6.79711,30.04209 -0.99694,4.40623 -5.30083,7.25183 -9.64999,6.38015 -4.34915,-0.87169 -7.04786,-5.12076 -6.05094,-9.52699 0,0 4.32832,-19.13046 6.79712,-30.04208 2.46879,-10.91161 14.86244,-21.71078 17.53432,-33.52009 2.6719,-11.8093 -11.4433,-26.98307 -8.7714,-38.79237 2.67188,-11.8092 21.17777,-20.44502 23.84966,-32.2543 2.67188,-11.80929 -2.58495,-28.15017 -0.54993,-37.144578 2.03501,-8.994416 4.19442,-18.53861 4.19442,-18.53861 0.99694,-4.4063 5.30084,-7.251849 9.64999,-6.380174 z"
     sodipodi:nodetypes="sszzzzzssszzzzzss" /><path
     id="path44532"
     style="fill:#b6ee47;fill-opacity:1;stroke-width:1.83294"
     d="m 221.46645,53.679366 c 4.34916,0.871666 7.04788,5.120706 6.05095,9.526996 0,0 -5.24508,23.182325 -7.89722,34.904345 -2.65216,11.722033 3.22181,25.335303 0.54992,37.144573 -2.67189,11.80932 -21.17778,20.44503 -23.84966,32.25434 -2.6719,11.8093 11.44329,26.98306 8.7714,38.79237 -2.6719,11.8093 -15.06552,22.60837 -17.53433,33.52009 -2.46879,10.91161 -6.7971,30.04198 -6.7971,30.04198 -0.99694,4.40633 -5.30083,7.25184 -9.64999,6.38015 -4.34916,-0.87158 -7.04787,-5.12065 -6.05093,-9.52698 0,0 4.32831,-19.13037 6.7971,-30.04199 2.4688,-10.91171 14.86244,-21.71078 17.53432,-33.52009 2.6719,-11.8093 -11.44329,-26.98306 -8.7714,-38.79237 2.67189,-11.8093 21.17777,-20.44502 23.84967,-32.25433 2.67188,-11.80928 -3.20209,-25.42255 -0.54993,-37.144575 2.65214,-11.72203 7.89722,-34.904346 7.89722,-34.904346 0.99693,-4.40629 5.30083,-7.251838 9.64998,-6.380163 z"
     sodipodi:nodetypes="sszzzzzssszzzzzss" /><path
     id="path44534"
     style="fill:#a6e22e;fill-opacity:1;stroke-width:1.83294"
     d="m 200.2398,79.217597 c 4.34916,0.871677 7.04788,5.120706 6.05094,9.527006 0,0 0.12846,-0.567833 -1.44896,6.404165 -1.57745,6.972002 3.2218,25.335302 0.54992,37.144572 -2.67189,11.80927 -21.17778,20.44508 -23.84967,32.25439 -2.67188,11.8092 11.4433,26.98306 8.77141,38.79227 -2.67188,11.8093 -15.06553,22.60847 -17.53431,33.52009 -2.46881,10.91171 -6.79712,30.04208 -6.79712,30.04208 -0.99693,4.40623 -5.30083,7.25184 -9.64999,6.38015 -4.34915,-0.87168 -7.04787,-5.12075 -6.05094,-9.52698 0,0 4.32831,-19.13037 6.79712,-30.04208 2.46879,-10.91162 14.86243,-21.71079 17.53432,-33.5201 2.67188,-11.8092 -11.44329,-26.98306 -8.77142,-38.79227 2.6719,-11.8093 21.17779,-20.44512 23.84967,-32.25438 2.6719,-11.80927 -2.12736,-30.172568 -0.54992,-37.144575 1.57743,-6.971996 1.44896,-6.404174 1.44896,-6.404174 0.99694,-4.40629 5.30084,-7.251839 9.64999,-6.380164 z"
     sodipodi:nodetypes="sszzzzzssszzzzzss" /></g><g
   id="g9553"
   transform="matrix(0.92497931,0,0,0.92497931,9.5681409,20.982794)"><path
     id="path44536"
     style="fill:#97da12;fill-opacity:1;stroke-width:1.83294"
     d="m 74.62883,67.380015 c 4.34915,-0.871675 8.653049,1.973884 9.649993,6.380173 0,0 2.1594,9.544195 4.19442,18.53861 2.03501,8.994402 13.909357,21.901802 16.581247,33.711082 2.67188,11.80925 -10.490221,26.79204 -7.818335,38.60135 2.671895,11.8093 22.130845,20.25405 24.802735,32.06335 2.67188,11.80921 -3.9718,26.42392 -1.503,37.33554 2.4688,10.91171 6.79711,30.04208 6.79711,30.04208 0.99694,4.40623 -1.70179,8.6553 -6.05094,9.52699 -4.34915,0.87168 -8.65305,-1.97393 -9.64998,-6.38016 0,0 -4.32832,-19.13036 -6.79712,-30.04208 -2.46878,-10.91162 4.17489,-25.52633 1.503,-37.33553 -2.67188,-11.80931 -22.130838,-20.25405 -24.802729,-32.06336 -2.671891,-11.8093 10.490226,-26.7921 7.818336,-38.60135 C 86.681675,117.34744 74.807329,104.44004 72.772314,95.445631 70.7373,86.451225 68.577894,76.90702 68.577894,76.90702 67.580956,72.500731 70.279677,68.251691 74.62883,67.380015 Z"
     sodipodi:nodetypes="sszzzzzssszzzzzss" /><path
     id="path44538"
     style="fill:#b6ee47;fill-opacity:1;stroke-width:1.83294"
     d="m 55.981209,54.009578 c 4.349159,-0.871676 8.653054,1.973873 9.649992,6.380162 0,0 5.245076,23.182326 7.897223,34.904345 2.652147,11.722035 13.909362,21.901805 16.581255,33.711095 2.671887,11.80932 -10.490222,26.79211 -7.818343,38.60132 2.671895,11.8093 22.130854,20.25405 24.802734,32.06335 2.6719,11.8093 -3.9718,26.42392 -1.503,37.33554 2.4688,10.91171 6.79711,30.04208 6.79711,30.04208 0.99695,4.40633 -1.70179,8.6553 -6.05093,9.52698 -4.34915,0.87169 -8.653048,-1.97382 -9.649986,-6.38015 0,0 -4.328319,-19.13037 -6.797118,-30.04208 -2.468791,-10.91162 4.174893,-25.52623 1.502997,-37.33554 -2.671885,-11.8093 -22.13084,-20.25405 -24.802731,-32.06335 -2.67188,-11.80921 10.490233,-26.792 7.818339,-38.60132 C 71.736864,120.34273 60.479646,110.16296 57.827499,98.440928 55.175352,86.718898 49.930278,63.536582 49.930278,63.536582 c -0.996939,-4.406299 1.701783,-8.655329 6.050931,-9.527004 z"
     sodipodi:nodetypes="sszzzzzssszzzzzss" /><path
     id="path44540"
     style="fill:#a6e22e;fill-opacity:1;stroke-width:1.83294"
     d="m 47.651068,85.471688 c 4.349158,-0.871676 8.653054,1.973872 9.649992,6.380172 0,0 -0.128468,-0.567832 1.448965,6.404165 1.577438,6.972005 13.909364,21.901805 16.581252,33.711085 2.671888,11.80928 -10.490224,26.79207 -7.818333,38.60138 2.671879,11.8092 22.130846,20.25405 24.802721,32.06325 2.671896,11.8093 -3.971779,26.42402 -1.502987,37.33563 2.468789,10.91162 6.797108,30.04199 6.797108,30.04199 0.996938,4.40633 -1.701777,8.6554 -6.050938,9.52708 -4.349148,0.87169 -8.653051,-1.97392 -9.649981,-6.38015 0,0 -4.328321,-19.13047 -6.797114,-30.04208 -2.468792,-10.91162 4.174882,-25.52633 1.502991,-37.33564 -2.67188,-11.8092 -22.130835,-20.25395 -24.802725,-32.06325 -2.67189,-11.80931 10.490221,-26.7921 7.818334,-38.60137 -2.671888,-11.80928 -15.003815,-26.73909 -16.581253,-33.71108 -1.577438,-6.972009 -1.448965,-6.404178 -1.448965,-6.404178 -0.996937,-4.40629 1.701784,-8.65533 6.050933,-9.527004 z"
     sodipodi:nodetypes="sszzzzzssszzzzzss" /></g><g
   id="g45028"
   transform="matrix(0.8929217,0,0,0.8929217,33.948662,32.828162)"><path
     id="path45008"
     style="clip-rule:evenodd;fill:#ffe9d0;fill-opacity:1;fill-rule:evenodd;stroke-width:2;stroke-linecap:round;stroke-linejoin:round"
     d="m 402.735,33.16461 c -31.5557,0 -56.96092,25.4032 -56.96092,56.959 v 34.4903 21.4648 128.08 c 0,9.1854 7.3947,16.5801 16.5801,16.5801 h 92.40632 c 9.1854,0 16.5801,-7.3947 16.5801,-16.5801 v -128.08 -21.4648 -34.4903 c 0,-31.5558 -25.4051,-56.959 -56.961,-56.959 z"
     sodipodi:nodetypes="ssccssssccsss" /><path
     id="path45010"
     style="clip-rule:evenodd;fill:#edc698;fill-opacity:1;fill-rule:evenodd;stroke-width:2;stroke-linecap:round;stroke-linejoin:round"
     d="m 415.9324,290.73881 h 38.8281 c 9.1854,0 16.5801,-7.3947 16.5801,-16.5801 v -128.08 -21.4648 -34.4903 c 0,-21.7104 -12.0254,-40.5086 -29.8058,-50.1252 7.2603,4.3514 23.1033,25.4674 23.1033,47.5409 v 184.859 c 0,22.1259 -34.7677,17.3792 -48.7057,18.3405 z"
     sodipodi:nodetypes="cssccsczsc" /><path
     id="path45012"
     style="fill:#ffe9d0;stroke-width:3.6344"
     d="m 521.67229,126.55275 a 64.855118,64.124031 0 0 1 -64.85512,64.12403 64.855118,64.124031 0 0 1 -64.85512,-64.12403 64.855118,64.124031 0 0 1 64.85512,-64.124031 64.855118,64.124031 0 0 1 64.85512,64.124031 z" /><path
     id="path45014"
     style="clip-rule:evenodd;fill:#edc698;fill-opacity:1;fill-rule:evenodd;stroke-width:3.6344;stroke-linecap:round;stroke-linejoin:round"
     d="m 521.6714,126.55291 c 0,35.4146 -29.0368,64.124 -64.8551,64.124 -7.9571,0 -15.5795,-1.4169 -22.6231,-4.0091 71.0629,2.6977 107.854,-67.3138 50.3706,-118.0903 21.937,10.282 37.1076,32.3771 37.1076,57.9754 z"
     sodipodi:nodetypes="ssccs" /><path
     id="path45016"
     style="fill:#ffe9d0;stroke-width:2.54864"
     d="m 493.92142,195.44337 a 40.55616,50.426926 0 0 1 -40.55616,50.42693 40.55616,50.426926 0 0 1 -40.55616,-50.42693 40.55616,50.426926 0 0 1 40.55616,-50.42692 40.55616,50.426926 0 0 1 40.55616,50.42692 z" /><path
     id="path45018"
     style="fill:#ffe9d0;stroke-width:1.69691"
     d="M 438.0997,88.820572 A 30.109919,30.109919 0 0 1 407.98978,118.93049 30.109919,30.109919 0 0 1 377.87986,88.820572 30.109919,30.109919 0 0 1 407.98978,58.710653 30.109919,30.109919 0 0 1 438.0997,88.820572 Z" /><path
     id="path45020"
     style="clip-rule:evenodd;fill:#edc698;fill-opacity:1;fill-rule:evenodd;stroke-width:1.69691;stroke-linecap:round;stroke-linejoin:round"
     d="m 438.0995,88.82053 c 0,16.6293 -13.4807,30.11 -30.1099,30.1099 -3.6942,0 -7.233,-0.6652 -10.5031,-1.8825 32.992,1.2667 50.0728,-31.6077 23.3853,-55.4502 10.1845,4.828 17.2277,15.2029 17.2277,27.2228 z"
     sodipodi:nodetypes="ssccs" /><path
     id="path45022"
     style="fill:#ffe9d0;stroke-width:2.69748"
     d="m 415.02357,140.17348 a 46.201702,49.586323 0 0 1 -46.2017,49.58632 46.201702,49.586323 0 0 1 -46.2017,-49.58632 46.201702,49.586323 0 0 1 46.2017,-49.586326 46.201702,49.586323 0 0 1 46.2017,49.586326 z" /><path
     id="path45024"
     style="clip-rule:evenodd;fill:#edc698;fill-opacity:1;fill-rule:evenodd;stroke-width:2.69748;stroke-linecap:round;stroke-linejoin:round"
     d="m 415.0231,140.17343 c 0,27.3857 -20.6853,49.5863 -46.20172,49.5863 -5.6685,0 -11.0986,-1.0956 -16.1163,-3.1004 50.62402,2.086 76.83342,-52.0527 35.88322,-91.3175 15.6274,7.9508 26.4348,25.0366 26.4348,44.8316 z"
     sodipodi:nodetypes="ssccs" /><path
     id="path45026"
     style="clip-rule:evenodd;fill:#edc698;fill-opacity:1;fill-rule:evenodd;stroke-width:2.54864;stroke-linecap:round;stroke-linejoin:round"
     d="m 493.9211,195.44321 c 0,27.8501 -18.1577,50.427 -40.5561,50.427 -4.9759,0 -9.7424,-1.1142 -14.1471,-3.1529 44.4382,2.1214 67.4449,-52.9351 31.4986,-92.8658 13.7178,8.0857 23.2046,25.4612 23.2046,45.5917 z"
     sodipodi:nodetypes="ssccs" /></g><g
   id="g44598"
   transform="translate(-1189.2735,-24.805038)"><path
     d="m 1353.8163,273.87404 -32.688,28.194 c -5.288,4.562 -25.087,-19.763 -21.149,-35.53 3.939,-15.766 44.746,-12.959 44.746,-12.959 5.358,3.714 11.73,18.02 9.091,20.295"
     opacity="1"
     fill="#ff9197"
     id="path44564" /><path
     d="m 1335.0793,274.57104 c 0.606,6.626 -5.247,19.638 -10.788,24.77 l 29.525,-25.46699 c 0,0 -19.706,-9.265 -18.527,0.697"
     opacity="1"
     fill="#fb7c83"
     id="path44566" /><path
     d="m 1337.7683,302.79505 c 16.284,42.31099 69.052,20.427 80.07,19.221 8.912,-0.974 19.6,6.11399 39.48,6.75999 19.879,0.643 30.724,-5.08199 47.807,-2.63099 17.083,2.45 43.615,26.067 97.508,10.005 71.217,-21.49 -17.007,-191.477 -130.613,-191.477 -113.607,0 -150.536,115.81499 -134.252,158.122 v 0"
     opacity="1"
     fill="#ffc7c7"
     id="path44568" /><path
     d="m 1364.5383,305.24604 c 1.135,-0.769 36.514,-29.61 68.372,-30.198 21.611,-0.403 39.734,-2.7 65.968,8.152 26.234,10.852 55.783,32.11 56.551,32.582 0.769,0.468 1.28,3.143 0.724,4.336 -0.556,1.192 -2.352,0.834 -2.999,0.408 -0.645,-0.42599 -32.833,-19.519 -55.104,-28.73099 -22.27,-9.21 -41.386,-8.12901 -65.968,-8.15101 -31.864,-0.037 -64.07,26.42501 -65.098,26.609 -1.03,0.216 -3.484,0.921 -4.118,-0.564 -0.528,-1.232 0.536,-3.676 1.672,-4.443 v 0"
     opacity="1"
     fill="#a7505d"
     id="path44570" /><path
     d="m 1416.9163,239.60204 c 0.192,15.338 -11.887,27.93 -26.976,28.127 v 0 c -15.091,0.195 -27.48,-12.08 -27.671,-27.417 -0.192,-15.33799 11.885,-27.93 26.976,-28.126 v 0 c 15.091,-0.196 27.479,12.07901 27.671,27.416"
     opacity="1"
     fill="#ffffff"
     id="path44572" /><path
     d="m 1390.8333,261.89704 c -11.78,0.721 -21.907,-8.395 -22.624,-20.36899 -0.717,-11.97201 8.245,-22.272 20.025,-23.012 11.78,-0.738 21.92,8.36099 22.659,20.36699 0.7,12.01 -8.279,22.29401 -20.06,23.014"
     opacity="1"
     fill="#040606"
     id="path44574" /><path
     d="m 1393.1763,226.16104 c 2.056,-2.81899 9.528,-0.317 12.146,4.368 2.618,4.683 2.594,11.876 -1.744,13.328 -4.338,1.45 -4.021,-4.2 -6.294,-8.184 -2.275,-3.984 -6.164,-6.695 -4.108,-9.511 v -10e-4"
     opacity="1"
     fill="#ffffff"
     id="path44576" /><path
     d="m 1403.1123,245.31204 c 1.53,0.089 2.646,1.66801 2.494,3.52401 -0.153,1.854 -1.518,3.28399 -3.049,3.19399 -1.531,-0.089 -2.647,-1.668 -2.493,-3.523 0.153,-1.85499 1.517,-3.285 3.048,-3.195"
     opacity="1"
     fill="#ffffff"
     id="path44578" /><path
     d="m 1536.0813,239.33404 c 0.192,15.337 -11.887,27.93 -26.976,28.124 v 0 c -15.091,0.198 -27.479,-12.077 -27.671,-27.414 -0.192,-15.338 11.886,-27.93 26.978,-28.127 v 0 c 15.089,-0.195 27.478,12.08 27.669,27.417 v 0"
     opacity="1"
     fill="#ffffff"
     id="path44580" /><path
     d="m 1510.0003,261.62905 c -11.782,0.71999 -21.908,-8.397 -22.624,-20.369 -0.718,-11.974 8.245,-22.274 20.025,-23.01401 11.779,-0.738 21.92,8.363 22.659,20.37001 0.7,12.008 -8.28,22.29299 -20.06,23.013"
     opacity="1"
     fill="#040606"
     id="path44582" /><path
     d="m 1512.3413,225.89304 c 2.056,-2.819 9.528,-0.317 12.147,4.367 2.617,4.682 2.593,11.877 -1.743,13.329 -4.339,1.451 -4.021,-4.201 -6.295,-8.185 -2.274,-3.983 -6.165,-6.694 -4.109,-9.511 v 0"
     opacity="1"
     fill="#ffffff"
     id="path44584" /><path
     d="m 1522.2783,245.04204 c 1.53,0.091 2.647,1.668 2.494,3.523 -0.154,1.856 -1.519,3.287 -3.048,3.197 -1.531,-0.091 -2.647,-1.668 -2.495,-3.524 0.153,-1.855 1.517,-3.286 3.049,-3.196"
     opacity="1"
     fill="#ffffff"
     id="path44586" /><path
     d="m 1478.7053,237.45704 c 1.241,19.55 -14.425,36.475 -35.003,37.812 -20.578,1.337 -38.284,-13.419 -39.558,-32.96699 -1.275,-19.548 14.364,-36.49601 34.938,-37.864 20.578,-1.369 38.307,13.359 39.615,32.904"
     opacity="1"
     fill="#ffc7c7"
     id="path44588" /><path
     d="m 1475.5943,250.00104 c -4.377,13.035 -16.789,22.876 -31.989,23.86 -19.76,1.283 -36.76,-12.89 -37.98,-31.66 -0.557,-8.563 2.267,-16.605 7.377,-22.945 0,0 3.219,-3.635 1.272,-5.179 -1.945,-1.545 -4.718,2.787 -4.718,2.787 -5.688,7.088 -8.828,16.069 -8.204,25.62801 1.374,21.007 20.402,36.86099 42.517,35.425 17.036,-1.10401 30.941,-12.14801 35.824,-26.768 0,0 1.147,-2.995 -0.864,-3.713 -2.009,-0.719 -3.235,2.565 -3.235,2.565 v 0"
     opacity="1"
     fill="#a7505d"
     id="path44590" /><path
     d="m 1519.4833,154.44504 c 0,3.417 63.826,23.922 84.538,98.941 21.131,76.54 -26.729,87.811 -26.621,87.806 0.419,-0.017 0.578,-0.044 1.089,-0.098 7.379,-0.777 15.401,-2.338 24.144,-4.944 60.801,-18.347 5.389,-144.93 -82.814,-181.565 -0.1,-0.041 -0.209,-0.061 -0.295,-0.122 -0.055,-0.039 -0.02,-0.003 -0.02,-0.003"
     opacity="1"
     fill="#f6aeae"
     id="path44592" /><path
     d="m 1584.0143,273.01304 39.294,41.381 c 6.358,6.695 32.35,-20.04899 28.588,-41.714 -3.763,-21.666 -55.803,-22.07999 -55.803,-22.07999 -7.095,4.457 -15.252,19.07299 -12.079,22.413 v 0"
     opacity="1"
     fill="#ff9197"
     id="path44594" /><path
     d="m 1641.5563,260.07104 v 0 c 16.058,15.736 1.285,34.28901 -8.163,42.55801 -8.514,7.449 -41.757,-21.644 -48.267,-28.44401 l 38.182,40.20901 c 6.358,6.695 32.35,-20.049 28.588,-41.714 -0.943,-5.427 -4.916,-9.52 -10.34,-12.609"
     opacity="1"
     fill="#fb7c83"
     id="path44596" /></g></svg>
