<?xml version="1.0" encoding="UTF-8" standalone="no"?>
<svg
   xmlns:vectornator="http://vectornator.io"
   xmlns:dc="http://purl.org/dc/elements/1.1/"
   xmlns:cc="http://creativecommons.org/ns#"
   xmlns:rdf="http://www.w3.org/1999/02/22-rdf-syntax-ns#"
   xmlns:svg="http://www.w3.org/2000/svg"
   xmlns="http://www.w3.org/2000/svg"
   xmlns:sodipodi="http://sodipodi.sourceforge.net/DTD/sodipodi-0.dtd"
   xmlns:inkscape="http://www.inkscape.org/namespaces/inkscape"
   style="fill-rule:evenodd;clip-rule:evenodd;stroke-linecap:round;stroke-linejoin:round;"
   xml:space="preserve"
   version="1.1"
   viewBox="0 0 554.893 345.613"
   id="svg1279"
   sodipodi:docname="logo_hero.svg"
   inkscape:version="1.0.1 (3bc2e813f5, 2020-09-07)"><sodipodi:namedview
   pagecolor="#ffffff"
   bordercolor="#666666"
   borderopacity="1"
   objecttolerance="10"
   gridtolerance="10"
   guidetolerance="10"
   inkscape:pageopacity="0"
   inkscape:pageshadow="2"
   inkscape:window-width="1920"
   inkscape:window-height="1016"
   id="namedview1281"
   showgrid="false"
   inkscape:zoom="0.68284468"
   inkscape:cx="582.93297"
   inkscape:cy="-19.171097"
   inkscape:window-x="1280"
   inkscape:window-y="27"
   inkscape:window-maximized="1"
   inkscape:current-layer="svg1279"
   inkscape:document-rotation="0" />
<metadata
   id="metadata1190">
<vectornator:setting
   key="DynamicGuides"
   value="1" />
<vectornator:setting
   key="CMYKEnabledKey"
   value="0" />
<vectornator:setting
   key="Units"
   value="Points" />
<vectornator:setting
   key="GridSpacing"
   value="36" />
<vectornator:setting
   key="SnapToGuides"
   value="1" />
<vectornator:setting
   key="RulersVisible"
   value="1" />
<rdf:RDF><cc:Work
     rdf:about=""><dc:format>image/svg+xml</dc:format><dc:type
       rdf:resource="http://purl.org/dc/dcmitype/StillImage" /></cc:Work></rdf:RDF></metadata>
<defs
   id="defs1202" />

<path
   style="opacity:1;fill:#a6f6ff;fill-opacity:1"
   inkscape:connector-curvature="0"
   id="path1209"
   d="m 60.8263,243.594 c 0,-121.062 98.1407,-219.2027 219.2027,-219.2027 121.062,0 219.202,98.1407 219.202,219.2027 0,19.624 -2.579,38.646 -7.416,56.745 -28.822,4.553 -404.0591,4.553 -423.7677,-0.734 -4.7115,-17.879 -7.221,-36.652 -7.221,-56.011 z" /><path
   inkscape:connector-curvature="0"
   style="opacity:1;fill:#ffe294;fill-opacity:1"
   id="path1211"
   d="m 334.881,95.8427 c 63.001,-25.5671 149.598,19.6633 168.702,64.7973 23.303,55.054 -32.426,129.997 -32.426,129.997 H 78.1173 c 0,0 -90.4517,-93.639 17.8955,-133.767 53.9832,-19.993 77.0502,31.105 137.2962,24.665 92.36,-9.873 42.247,-61.617 101.572,-85.6923 z" /><path
   style="opacity:1;fill:#1e1f1b"
   inkscape:connector-curvature="0"
   id="path1213"
   d="m 548.876,299.407 c 0,25.519 -121.523,46.206 -271.429,46.206 -149.907,0 -271.42966,-20.687 -271.42966,-46.206 0,-25.518 121.52266,-46.205 271.42966,-46.205 149.906,0 271.429,20.687 271.429,46.205" /><path
   style="clip-rule:evenodd;fill:#55dd64;fill-opacity:1;fill-rule:evenodd;stroke-width:1.06883;stroke-linecap:round;stroke-linejoin:round"
   inkscape:connector-curvature="0"
   id="path4340"
   d="m 163.53375,99.48783 c -12.05816,-15.19854 23.85271,-2.5016 39.01474,-10.24571 15.16202,-7.74399 -19.1243,-14.864293 -14.18414,-18.835697 12.42097,-9.983951 37.74734,1.450254 39.90255,-4.830349 1.91638,-5.587302 -12.49305,-12.821839 0,-15.769496 13.34704,-3.149207 16.96011,3.831004 29.40247,0 6.27973,-1.93341 36.36494,-10.172093 42.20872,-8.56051 13.9396,3.844657 -42.20872,18.838941 -42.20872,29.160355 0,10.321567 42.20872,2.383572 42.20872,12.125717 0,9.74199 -52.52065,-3.44908 -42.20872,16.95569 4.66758,9.23561 30.15159,-5.36381 40.87136,5.95022 4.19325,4.42516 -27.65162,6.655 -32.80702,14.44563 -1.4995,2.26735 -21.66489,18.66393 -13.95203,27.43716 3.47786,3.95567 30.65976,-25.45881 39.34934,-16.57099 8.68844,8.88783 -16.45312,20.20826 -11.74276,26.45764 4.37352,5.80314 15.56874,2.47113 28.50005,0 12.93242,-2.47217 17.41971,-19.97304 23.2263,-9.88665 5.80658,10.08536 -31.29515,56.49673 -31.29515,57.61116 0,70.99908 -63.03201,63.03302 -114.07556,63.03302 -0.78528,0 -32.83302,8.4924 -43.55054,5.15628 -10.35704,-3.22455 21.3505,-19.21149 -5.71308,-19.21149 -26.05191,0 -37.40189,0.0995 -37.243751,-9.21433 0.115903,-6.85372 55.550401,10.38077 53.245111,-7.61017 -5.5517,-43.32551 -29.86195,-13.73684 -37.32551,-23.27893 -7.46363,-9.54219 48.34397,-16.09764 51.04563,-30.96953 2.70165,-14.87184 -16.10519,0.85658 -19.60365,-6.84085 -3.49842,-7.69736 39.87828,-14.76474 41.39246,-16.56965 14.46913,-17.2484 -39.85715,-1.44868 -29.50178,-12.10551 7.53717,-7.75663 51.01544,6.85372 47.36858,-17.39336 -0.81678,-5.43305 -30.4333,3.47298 -32.15701,0 -4.00178,-8.0634 9.06587,-7.75722 22.69001,-17.29906 8.81124,-6.1713 -22.69007,-0.32624 -32.85662,-13.14059 z"
   sodipodi:nodetypes="cccccccssccccccccsscscszzzcscccc" /><path
   style="clip-rule:evenodd;fill:#00bf15;fill-opacity:1;fill-rule:evenodd;stroke-width:1.06883;stroke-linecap:round;stroke-linejoin:round"
   inkscape:connector-curvature="0"
   id="path4342"
   d="m 248.71835,96.08206 c -0.36368,-5.42132 6.99633,-9.17913 10.19816,-14.40922 3.20183,-5.22998 -7.47065,-5.763654 -6.99633,-10.886937 0.80554,-8.699272 23.78629,-16.610485 42.80923,-24.762376 8.57579,-3.674616 3.73248,-5.167811 5.14863,-4.777459 5.79756,1.599123 -0.52952,5.127082 -9.89736,9.445296 -13.15659,6.064038 -32.31137,13.686674 -32.31137,19.715059 0,10.321567 42.20873,2.383572 42.20873,12.125717 0,9.74199 -52.52065,-3.44908 -42.20873,16.95569 4.66759,9.23561 30.15165,-5.36381 40.87142,5.95022 4.19325,4.42516 -27.65168,6.655 -32.80707,14.44563 -1.49951,2.26735 -21.66489,18.66393 -13.95203,27.43716 3.47785,3.95567 30.65977,-25.45881 39.34934,-16.57099 8.68849,8.88783 -16.45312,20.20826 -11.74271,26.45764 4.37352,5.80314 15.56869,2.47113 28.50005,0 12.93242,-2.47217 17.41971,-19.97304 23.2263,-9.88665 5.80658,10.08536 -31.29515,56.49673 -31.29515,57.61116 -6.05106,-10.07017 -2.44703,-18.33539 -2.44703,-27.65419 0,-9.70003 -20.3028,0.90146 -30.98984,-13.82204 -4.11781,-5.67235 -14.36664,-4.5255 -17.67773,-5.98771 -17.50431,-7.73184 -1.90063,-26.44039 1.02632,-30.19021 2.92805,-3.74879 18.87535,-12.80593 16.25147,-16.82653 -3.04755,-4.67155 -16.26948,0.48164 -17.2643,-14.36926 z"
   sodipodi:nodetypes="csccccsscccccccccsccccc" />
<g
   id="g10"
   vectornator:layerName="g10">
<path
   d="M164.543+249.069L131.855+277.263C126.567+281.825+106.768+257.5+110.706+241.733C114.645+225.967+155.452+228.774+155.452+228.774C160.81+232.488+167.182+246.794+164.543+249.069"
   opacity="1"
   fill="#ff9197"
   id="path1220" />
<path
   d="M145.806+249.766C146.412+256.392+140.559+269.404+135.018+274.536L164.543+249.069C164.543+249.069+144.837+239.804+146.016+249.766"
   opacity="1"
   fill="#fb7c83"
   id="path1222" />
<path
   d="M148.495+277.99C164.779+320.301+217.547+298.417+228.565+297.211C237.477+296.237+248.165+303.325+268.045+303.971C287.924+304.614+298.769+298.889+315.852+301.34C332.935+303.79+359.467+327.407+413.36+311.345C484.577+289.855+396.353+119.868+282.747+119.868C169.14+119.868+132.211+235.683+148.495+277.99L148.495+277.99"
   opacity="1"
   fill="#ffc7c7"
   id="path1224" />
<path
   d="M175.265+280.441C176.4+279.672+211.779+250.831+243.637+250.243C265.248+249.84+283.371+247.543+309.605+258.395C335.839+269.247+365.388+290.505+366.156+290.977C366.925+291.445+367.436+294.12+366.88+295.313C366.324+296.505+364.528+296.147+363.881+295.721C363.236+295.295+331.048+276.202+308.777+266.99C286.507+257.78+267.391+258.861+242.809+258.839C210.945+258.802+178.739+285.264+177.711+285.448C176.681+285.664+174.227+286.369+173.593+284.884C173.065+283.652+174.129+281.208+175.265+280.441L175.265+280.441"
   opacity="1"
   fill="#a7505d"
   id="path1226" />
<path
   d="M227.643+214.797C227.835+230.135+215.756+242.727+200.667+242.924L200.667+242.924C185.576+243.119+173.187+230.844+172.996+215.507C172.804+200.169+184.881+187.577+199.972+187.381L199.972+187.381C215.063+187.185+227.451+199.46+227.643+214.797"
   opacity="1"
   fill="#ffffff"
   id="path1228" />
<path
   d="M201.56+237.092C189.78+237.813+179.653+228.697+178.936+216.723C178.219+204.751+187.181+194.451+198.961+193.711C210.741+192.973+220.881+202.072+221.62+214.078C222.32+226.088+213.341+236.372+201.56+237.092"
   opacity="1"
   fill="#040606"
   id="path1230" />
<path
   d="M203.903+201.356C205.959+198.537+213.431+201.039+216.049+205.724C218.667+210.407+218.643+217.6+214.305+219.052C209.967+220.502+210.284+214.852+208.011+210.868C205.736+206.884+201.847+204.173+203.903+201.357L203.903+201.356"
   opacity="1"
   fill="#ffffff"
   id="path1232" />
<path
   d="M213.839+220.507C215.369+220.596+216.485+222.175+216.333+224.031C216.18+225.885+214.815+227.315+213.284+227.225C211.753+227.136+210.637+225.557+210.791+223.702C210.944+221.847+212.308+220.417+213.839+220.507"
   opacity="1"
   fill="#ffffff"
   id="path1234" />
<path
   d="M346.808+214.529C347+229.866+334.921+242.459+319.832+242.653L319.832+242.653C304.741+242.851+292.353+230.576+292.161+215.239C291.969+199.901+304.047+187.309+319.139+187.112L319.139+187.112C334.228+186.917+346.617+199.192+346.808+214.529L346.808+214.529"
   opacity="1"
   fill="#ffffff"
   id="path1236" />
<path
   d="M320.727+236.824C308.945+237.544+298.819+228.427+298.103+216.455C297.385+204.481+306.348+194.181+318.128+193.441C329.907+192.703+340.048+201.804+340.787+213.811C341.487+225.819+332.507+236.104+320.727+236.824"
   opacity="1"
   fill="#040606"
   id="path1238" />
<path
   d="M323.068+201.088C325.124+198.269+332.596+200.771+335.215+205.455C337.832+210.137+337.808+217.332+333.472+218.784C329.133+220.235+329.451+214.583+327.177+210.599C324.903+206.616+321.012+203.905+323.068+201.088L323.068+201.088"
   opacity="1"
   fill="#ffffff"
   id="path1240" />
<path
   d="M333.005+220.237C334.535+220.328+335.652+221.905+335.499+223.76C335.345+225.616+333.98+227.047+332.451+226.957C330.92+226.866+329.804+225.289+329.956+223.433C330.109+221.578+331.473+220.147+333.005+220.237"
   opacity="1"
   fill="#ffffff"
   id="path1242" />
<path
   d="M289.432+212.652C290.673+232.202+275.007+249.127+254.429+250.464C233.851+251.801+216.145+237.045+214.871+217.497C213.596+197.949+229.235+181.001+249.809+179.633C270.387+178.264+288.116+192.992+289.424+212.537"
   opacity="1"
   fill="#ffc7c7"
   id="path1244" />
<path
   d="M286.321+225.196C281.944+238.231+269.532+248.072+254.332+249.056C234.572+250.339+217.572+236.166+216.352+217.396C215.795+208.833+218.619+200.791+223.729+194.451C223.729+194.451+226.948+190.816+225.001+189.272C223.056+187.727+220.283+192.059+220.283+192.059C214.595+199.147+211.455+208.128+212.079+217.687C213.453+238.694+232.481+254.548+254.596+253.112C271.632+252.008+285.537+240.964+290.42+226.344C290.42+226.344+291.567+223.349+289.556+222.631C287.547+221.912+286.321+225.196+286.321+225.196L286.321+225.196"
   opacity="1"
   fill="#a7505d"
   id="path1246" />
<path
   d="M330.21+129.64C330.21+133.057+394.036+153.562+414.748+228.581C435.879+305.121+388.019+316.392+388.127+316.387C388.546+316.37+388.705+316.343+389.216+316.289C396.595+315.512+404.617+313.951+413.36+311.345C474.161+292.998+418.749+166.415+330.546+129.78C330.446+129.739+330.337+129.719+330.251+129.658C330.196+129.619+330.231+129.655+330.231+129.655"
   opacity="1"
   fill="#f6aeae"
   id="path1248" />
<path
   d="M394.741+248.208L434.035+289.589C440.393+296.284+466.385+269.54+462.623+247.875C458.86+226.209+406.82+225.795+406.82+225.795C399.725+230.252+391.568+244.868+394.741+248.208L394.741+248.208"
   opacity="1"
   fill="#ff9197"
   id="path1250" />
<path
   d="M452.283+235.266L452.283+235.266C468.341+251.002+453.568+269.555+444.12+277.824C435.606+285.273+402.363+256.18+395.853+249.38L434.035+289.589C440.393+296.284+466.385+269.54+462.623+247.875C461.68+242.448+457.707+238.355+452.283+235.266"
   opacity="1"
   fill="#fb7c83"
   id="path1252" />
<g
   opacity="1"
   id="g1258">
<path
   d="M112.58+70.0817C122.488+70.0817+130.521+78.1137+130.521+88.0231C130.521+97.9311+122.488+105.964+112.58+105.964C102.672+105.964+94.6389+97.9311+94.6389+88.0231C94.6389+78.1137+102.672+70.0817+112.58+70.0817"
   opacity="1"
   fill="#66d9ef"
   id="path1254" />
<path
   d="M116.72+75.1937C118.295+75.1684+119.671+75.6684+120.934+76.4231C122.185+77.1857+123.267+78.2591+124.077+79.5217C124.895+80.7751+125.445+82.2311+125.571+83.7191C125.746+85.1951+125.484+86.6977+124.809+88.0231C124.622+88.3897+124.173+88.5364+123.806+88.3497C123.685+88.2871+123.587+88.1964+123.518+88.0897L123.475+88.0231C122.705+86.8164+122.249+85.7657+121.679+84.8071C121.169+83.8351+120.628+82.9617+120.082+82.0804C119.533+81.2017+118.949+80.3231+118.29+79.4124C117.649+78.4897+116.912+77.5351+116.196+76.4191L116.123+76.3057C115.907+75.9711+116.005+75.5231+116.34+75.3084C116.457+75.2324+116.59+75.1964+116.72+75.1937"
   opacity="1"
   fill="#ffffff"
   id="path1256" />
</g>
<g
   opacity="1"
   id="g1264">
<path
   d="M133.965+116.426C139.97+116.426+144.837+121.294+144.837+127.299C144.837+133.304+139.97+138.172+133.965+138.172C127.959+138.172+123.091+133.304+123.091+127.299C123.091+121.294+127.959+116.426+133.965+116.426"
   opacity="1"
   fill="#66d9ef"
   id="path1260" />
<path
   d="M136.474+119.523C137.428+119.508+138.262+119.811+139.027+120.268C139.785+120.73+140.441+121.38+140.933+122.146C141.428+122.906+141.761+123.788+141.837+124.69C141.944+125.586+141.785+126.495+141.376+127.299C141.263+127.522+140.991+127.61+140.769+127.496C140.694+127.459+140.635+127.403+140.594+127.339L140.568+127.299C140.101+126.567+139.824+125.93+139.479+125.35C139.17+124.76+138.842+124.231+138.511+123.696C138.179+123.164+137.824+122.632+137.425+122.08C137.037+121.52+136.59+120.942+136.156+120.266L136.111+120.196C135.981+119.994+136.04+119.723+136.244+119.592C136.314+119.547+136.395+119.524+136.474+119.523"
   opacity="1"
   fill="#ffffff"
   id="path1262" />
</g>
<g
   opacity="1"
   id="g1270">
<path
   d="M106.149+141.644C113.131+141.644+118.789+147.303+118.789+154.283C118.789+161.264+113.131+166.924+106.149+166.924C99.1681+166.924+93.5088+161.264+93.5088+154.283C93.5088+147.303+99.1681+141.644+106.149+141.644"
   opacity="1"
   fill="#66d9ef"
   id="path1266" />
<path
   d="M109.066+145.244C110.175+145.228+111.145+145.579+112.035+146.111C112.916+146.65+113.679+147.404+114.25+148.295C114.826+149.178+115.214+150.204+115.302+151.251C115.426+152.291+115.241+153.35+114.765+154.283C114.634+154.543+114.317+154.646+114.059+154.514C113.973+154.47+113.904+154.406+113.856+154.33L113.826+154.283C113.283+153.434+112.961+152.694+112.56+152.018C112.201+151.332+111.82+150.718+111.435+150.096C111.048+149.478+110.637+148.859+110.172+148.218C109.721+147.567+109.202+146.895+108.697+146.108L108.645+146.028C108.494+145.792+108.562+145.478+108.798+145.326C108.881+145.272+108.975+145.247+109.066+145.244"
   opacity="1"
   fill="#ffffff"
   id="path1268" />
</g>
<g
   opacity="1"
   id="g1276">
<path
   d="M132.52+173.844C136.183+173.844+139.153+176.814+139.153+180.478C139.153+184.14+136.183+187.11+132.52+187.11C128.856+187.11+125.887+184.14+125.887+180.478C125.887+176.814+128.856+173.844+132.52+173.844"
   opacity="1"
   fill="#66d9ef"
   id="path1272" />
<path
   d="M134.05+175.734C134.633+175.726+135.142+175.91+135.608+176.188C136.071+176.471+136.47+176.867+136.771+177.334C137.072+177.798+137.276+178.336+137.322+178.886C137.388+179.431+137.291+179.987+137.041+180.478C136.972+180.612+136.806+180.667+136.67+180.598C136.625+180.575+136.589+180.54+136.563+180.502L136.548+180.478C136.263+180.031+136.094+179.643+135.883+179.288C135.695+178.928+135.495+178.606+135.293+178.28C135.09+177.955+134.875+177.631+134.631+177.294C134.394+176.952+134.121+176.6+133.856+176.187L133.83+176.146C133.749+176.022+133.786+175.856+133.91+175.776C133.954+175.748+134.003+175.735+134.05+175.734"
   opacity="1"
   fill="#ffffff"
   id="path1274" />
</g>
</g>
</svg>
