<?xml version="1.0" encoding="UTF-8" standalone="no"?>
<svg
   style="fill-rule:evenodd;clip-rule:evenodd;stroke-linecap:round;stroke-linejoin:round;"
   xml:space="preserve"
   version="1.1"
   viewBox="0 0 554.893 345.613"
   id="svg1279"
   sodipodi:docname="logo_hero.svg"
   inkscape:version="1.1 (1:1.1+202105261517+ce6663b3b7)"
   xmlns:inkscape="http://www.inkscape.org/namespaces/inkscape"
   xmlns:sodipodi="http://sodipodi.sourceforge.net/DTD/sodipodi-0.dtd"
   xmlns="http://www.w3.org/2000/svg"
   xmlns:svg="http://www.w3.org/2000/svg"
   xmlns:rdf="http://www.w3.org/1999/02/22-rdf-syntax-ns#"
   xmlns:cc="http://creativecommons.org/ns#"
   xmlns:dc="http://purl.org/dc/elements/1.1/"
   xmlns:vectornator="http://vectornator.io"><g
   id="g1154"
   transform="translate(9.2139221,-399.22617)"><path
     style="fill:#b0f2ff;fill-opacity:1"
     inkscape:connector-curvature="0"
     id="path975"
     d="m 51.61219,642.82018 c 0,-121.06198 98.14068,-219.20268 219.20268,-219.20268 121.0621,0 219.2021,98.1407 219.2021,219.20268 0,19.624 -2.579,38.646 -7.416,56.745 -28.822,4.553 -404.059179,4.553 -423.767779,-0.734 -4.7115,-17.879 -7.221,-36.652 -7.221001,-56.011 z" /><path
     style="fill:#1e1f1b"
     inkscape:connector-curvature="0"
     id="path977"
     d="m 539.66197,698.63318 c 0,25.519 -121.523,46.206 -271.4291,46.206 -149.90699,0 -271.4296789,-20.687 -271.4296789,-46.206 0,-25.518 121.5226889,-46.205 271.4296789,-46.205 149.9061,0 271.4291,20.687 271.4291,46.205" /><g
     id="g985"
     transform="translate(-9.213919,399.22619)"><path
       id="path979"
       style="fill:#97da12;fill-opacity:1;stroke-width:2.0366"
       d="m 155.07767,52.68763 c 4.9342,0 8.90649,4.03517 8.90649,9.04747 0,0 0,10.85685 0,21.0883 0,10.23143 9.71781,26.86689 9.71781,40.30034 0,13.43345 -17.96394,26.86687 -17.96394,40.30037 0,13.4334 19.04522,26.8669 19.04522,40.3003 0,13.4335 -10.79908,27.888 -10.79908,40.3004 0,12.4123 0,34.1738 0,34.1738 0,5.0123 -3.97229,9.0475 -8.90649,9.0475 -4.93418,0 -8.90649,-4.0352 -8.90649,-9.0475 0,0 0,-21.7615 0,-34.1738 0,-12.4124 10.79909,-26.8669 10.79909,-40.3004 0,-13.4334 -19.04521,-26.8669 -19.04521,-40.3003 0,-13.4335 17.96394,-26.86692 17.96394,-40.30037 0,-13.43345 -9.71781,-30.06891 -9.71781,-40.30034 0,-10.23145 0,-21.0883 0,-21.0883 0,-5.0123 3.9723,-9.04747 8.90647,-9.04747 z"
       sodipodi:nodetypes="sszzzzzssszzzzzss" /><path
       id="path981"
       style="fill:#b6ee47;fill-opacity:1;stroke-width:2.0366"
       d="m 138.12252,34.07106 c 4.9342,0 8.9065,4.03517 8.9065,9.04747 0,0 0,26.37067 0,39.70487 0,13.3342 9.7178,26.86689 9.7178,40.30034 0,13.43345 -17.96394,26.86687 -17.96394,40.30037 0,13.4334 19.04521,26.8669 19.04521,40.3003 0,13.4335 -10.79908,27.888 -10.79908,40.3004 0,12.4123 0,34.1738 0,34.1738 0,5.0123 -3.97229,9.0475 -8.90649,9.0475 -4.93418,0 -8.90646,-4.0352 -8.90646,-9.0475 0,0 0,-21.7615 0,-34.1738 0,-12.4124 10.79907,-26.8669 10.79907,-40.3004 0,-13.4334 -19.04521,-26.8669 -19.04521,-40.3003 0,-13.4335 17.96393,-26.86692 17.96393,-40.30037 0,-13.43345 -9.71779,-26.96614 -9.71779,-40.30034 0,-13.3342 0,-39.70487 0,-39.70487 0,-5.0123 3.97228,-9.04747 8.90646,-9.04747 z"
       sodipodi:nodetypes="sszzzzzssszzzzzss" /><path
       id="path983"
       style="fill:#a6e22e;fill-opacity:1;stroke-width:2.0366"
       d="m 121.35619,66.49096 c 4.93419,0 8.90648,4.03517 8.90648,9.04747 0,0 0,-0.64592 0,7.28497 0,7.93088 9.71782,26.86689 9.71782,40.30034 0,13.43345 -17.96395,26.86687 -17.96395,40.30037 0,13.4334 19.04521,26.8669 19.04521,40.3003 0,13.4335 -10.79908,27.888 -10.79908,40.3004 0,12.4123 0,34.1738 0,34.1738 0,5.0123 -3.97229,9.0475 -8.90648,9.0475 -4.93419,0 -8.90648,-4.0352 -8.90648,-9.0475 0,0 0,-21.7615 0,-34.1738 0,-12.4124 10.79908,-26.8669 10.79908,-40.3004 0,-13.4334 -19.04521,-26.8669 -19.04521,-40.3003 0,-13.4335 17.96394,-26.86692 17.96394,-40.30037 0,-13.43345 -9.71781,-32.36946 -9.71781,-40.30034 0,-7.93089 0,-7.28497 0,-7.28497 0,-5.0123 3.97229,-9.04747 8.90648,-9.04747 z"
       sodipodi:nodetypes="sszzzzzssszzzzzss" /></g><g
     id="g993"
     transform="translate(-9.213919,399.22619)"><path
       id="path987"
       style="fill:#97da12;fill-opacity:1;stroke-width:1.83294"
       d="m 232.70847,73.040388 c 4.34916,0.871676 7.04788,5.120716 6.05094,9.527006 0,0 -2.15941,9.544194 -4.19443,18.538606 -2.03501,8.99441 3.22182,25.3353 0.54994,37.14458 -2.67189,11.80928 -21.17779,20.4451 -23.84967,32.2543 -2.67189,11.80931 11.44329,26.98307 8.77141,38.79237 -2.6719,11.80931 -15.06553,22.60848 -17.53433,33.52009 -2.46879,10.91162 -6.79711,30.04209 -6.79711,30.04209 -0.99694,4.40623 -5.30083,7.25183 -9.64999,6.38015 -4.34915,-0.87169 -7.04786,-5.12076 -6.05094,-9.52699 0,0 4.32832,-19.13046 6.79712,-30.04208 2.46879,-10.91161 14.86244,-21.71078 17.53432,-33.52009 2.6719,-11.8093 -11.4433,-26.98307 -8.7714,-38.79237 2.67188,-11.8092 21.17777,-20.44502 23.84966,-32.2543 2.67188,-11.80929 -2.58495,-28.15017 -0.54993,-37.144578 2.03501,-8.994416 4.19442,-18.53861 4.19442,-18.53861 0.99694,-4.4063 5.30084,-7.251849 9.64999,-6.380174 z"
       sodipodi:nodetypes="sszzzzzssszzzzzss" /><path
       id="path989"
       style="fill:#b6ee47;fill-opacity:1;stroke-width:1.83294"
       d="m 221.46645,53.679366 c 4.34916,0.871666 7.04788,5.120706 6.05095,9.526996 0,0 -5.24508,23.182325 -7.89722,34.904345 -2.65216,11.722033 3.22181,25.335303 0.54992,37.144573 -2.67189,11.80932 -21.17778,20.44503 -23.84966,32.25434 -2.6719,11.8093 11.44329,26.98306 8.7714,38.79237 -2.6719,11.8093 -15.06552,22.60837 -17.53433,33.52009 -2.46879,10.91161 -6.7971,30.04198 -6.7971,30.04198 -0.99694,4.40633 -5.30083,7.25184 -9.64999,6.38015 -4.34916,-0.87158 -7.04787,-5.12065 -6.05093,-9.52698 0,0 4.32831,-19.13037 6.7971,-30.04199 2.4688,-10.91171 14.86244,-21.71078 17.53432,-33.52009 2.6719,-11.8093 -11.44329,-26.98306 -8.7714,-38.79237 2.67189,-11.8093 21.17777,-20.44502 23.84967,-32.25433 2.67188,-11.80928 -3.20209,-25.42255 -0.54993,-37.144575 2.65214,-11.72203 7.89722,-34.904346 7.89722,-34.904346 0.99693,-4.40629 5.30083,-7.251838 9.64998,-6.380163 z"
       sodipodi:nodetypes="sszzzzzssszzzzzss" /><path
       id="path991"
       style="fill:#a6e22e;fill-opacity:1;stroke-width:1.83294"
       d="m 200.2398,79.217597 c 4.34916,0.871677 7.04788,5.120706 6.05094,9.527006 0,0 0.12846,-0.567833 -1.44896,6.404165 -1.57745,6.972002 3.2218,25.335302 0.54992,37.144572 -2.67189,11.80927 -21.17778,20.44508 -23.84967,32.25439 -2.67188,11.8092 11.4433,26.98306 8.77141,38.79227 -2.67188,11.8093 -15.06553,22.60847 -17.53431,33.52009 -2.46881,10.91171 -6.79712,30.04208 -6.79712,30.04208 -0.99693,4.40623 -5.30083,7.25184 -9.64999,6.38015 -4.34915,-0.87168 -7.04787,-5.12075 -6.05094,-9.52698 0,0 4.32831,-19.13037 6.79712,-30.04208 2.46879,-10.91162 14.86243,-21.71079 17.53432,-33.5201 2.67188,-11.8092 -11.44329,-26.98306 -8.77142,-38.79227 2.6719,-11.8093 21.17779,-20.44512 23.84967,-32.25438 2.6719,-11.80927 -2.12736,-30.172568 -0.54992,-37.144575 1.57743,-6.971996 1.44896,-6.404174 1.44896,-6.404174 0.99694,-4.40629 5.30084,-7.251839 9.64999,-6.380164 z"
       sodipodi:nodetypes="sszzzzzssszzzzzss" /></g><g
     id="g1001"
     transform="matrix(0.92497931,0,0,0.92497931,0.35422206,420.20899)"><path
       id="path995"
       style="fill:#97da12;fill-opacity:1;stroke-width:1.83294"
       d="m 74.62883,67.380015 c 4.34915,-0.871675 8.653049,1.973884 9.649993,6.380173 0,0 2.1594,9.544195 4.19442,18.53861 2.03501,8.994402 13.909357,21.901802 16.581247,33.711082 2.67188,11.80925 -10.490221,26.79204 -7.818335,38.60135 2.671895,11.8093 22.130845,20.25405 24.802735,32.06335 2.67188,11.80921 -3.9718,26.42392 -1.503,37.33554 2.4688,10.91171 6.79711,30.04208 6.79711,30.04208 0.99694,4.40623 -1.70179,8.6553 -6.05094,9.52699 -4.34915,0.87168 -8.65305,-1.97393 -9.64998,-6.38016 0,0 -4.32832,-19.13036 -6.79712,-30.04208 -2.46878,-10.91162 4.17489,-25.52633 1.503,-37.33553 -2.67188,-11.80931 -22.130838,-20.25405 -24.802729,-32.06336 -2.671891,-11.8093 10.490226,-26.7921 7.818336,-38.60135 C 86.681675,117.34744 74.807329,104.44004 72.772314,95.445631 70.7373,86.451225 68.577894,76.90702 68.577894,76.90702 67.580956,72.500731 70.279677,68.251691 74.62883,67.380015 Z"
       sodipodi:nodetypes="sszzzzzssszzzzzss" /><path
       id="path997"
       style="fill:#b6ee47;fill-opacity:1;stroke-width:1.83294"
       d="m 55.981209,54.009578 c 4.349159,-0.871676 8.653054,1.973873 9.649992,6.380162 0,0 5.245076,23.182326 7.897223,34.904345 2.652147,11.722035 13.909362,21.901805 16.581255,33.711095 2.671887,11.80932 -10.490222,26.79211 -7.818343,38.60132 2.671895,11.8093 22.130854,20.25405 24.802734,32.06335 2.6719,11.8093 -3.9718,26.42392 -1.503,37.33554 2.4688,10.91171 6.79711,30.04208 6.79711,30.04208 0.99695,4.40633 -1.70179,8.6553 -6.05093,9.52698 -4.34915,0.87169 -8.653048,-1.97382 -9.649986,-6.38015 0,0 -4.328319,-19.13037 -6.797118,-30.04208 -2.468791,-10.91162 4.174893,-25.52623 1.502997,-37.33554 -2.671885,-11.8093 -22.13084,-20.25405 -24.802731,-32.06335 -2.67188,-11.80921 10.490233,-26.792 7.818339,-38.60132 C 71.736864,120.34273 60.479646,110.16296 57.827499,98.440928 55.175352,86.718898 49.930278,63.536582 49.930278,63.536582 c -0.996939,-4.406299 1.701783,-8.655329 6.050931,-9.527004 z"
       sodipodi:nodetypes="sszzzzzssszzzzzss" /><path
       id="path999"
       style="fill:#a6e22e;fill-opacity:1;stroke-width:1.83294"
       d="m 47.651068,85.471688 c 4.349158,-0.871676 8.653054,1.973872 9.649992,6.380172 0,0 -0.128468,-0.567832 1.448965,6.404165 1.577438,6.972005 13.909364,21.901805 16.581252,33.711085 2.671888,11.80928 -10.490224,26.79207 -7.818333,38.60138 2.671879,11.8092 22.130846,20.25405 24.802721,32.06325 2.671896,11.8093 -3.971779,26.42402 -1.502987,37.33563 2.468789,10.91162 6.797108,30.04199 6.797108,30.04199 0.996938,4.40633 -1.701777,8.6554 -6.050938,9.52708 -4.349148,0.87169 -8.653051,-1.97392 -9.649981,-6.38015 0,0 -4.328321,-19.13047 -6.797114,-30.04208 -2.468792,-10.91162 4.174882,-25.52633 1.502991,-37.33564 -2.67188,-11.8092 -22.130835,-20.25395 -24.802725,-32.06325 -2.67189,-11.80931 10.490221,-26.7921 7.818334,-38.60137 -2.671888,-11.80928 -15.003815,-26.73909 -16.581253,-33.71108 -1.577438,-6.972009 -1.448965,-6.404178 -1.448965,-6.404178 -0.996937,-4.40629 1.701784,-8.65533 6.050933,-9.527004 z"
       sodipodi:nodetypes="sszzzzzssszzzzzss" /></g><path
     style="color:#000000;clip-rule:nonzero;fill:#ffb763;fill-opacity:1;fill-rule:nonzero;stroke-width:0.924349;stroke-linejoin:miter;-inkscape-stroke:none"
     d="m 378.24193,459.76227 c -4.28684,-0.16504 -7.90774,2.89493 -8.08795,6.83503 -0.41728,9.12374 -1.49348,13.1328 -3.22771,16.24205 -0.60733,1.08885 -1.65566,2.30527 -2.65327,3.51703 -1.54651,-3.47212 -3.64838,-6.60212 -5.6117,-9.47106 -3.68097,-5.37886 -7.38189,-9.50742 -7.38189,-9.50742 -2.72327,-3.04789 -7.61917,-3.48959 -10.9353,-0.98657 -3.31613,2.50305 -3.79667,7.00297 -1.0734,10.0509 0,0 3.14383,3.52847 6.23695,8.04832 3.09302,4.51985 5.44374,10.46706 5.41212,11.49267 v -0.0381 c -0.30381,8.27126 2.82045,15.91077 5.5119,23.54267 2.69136,7.63189 5.10494,15.15531 5.10889,21.92435 0,7.965 -4.60579,16.58777 -8.18783,22.26012 -2.3029,-3.2402 -3.9814,-5.98969 -4.37642,-7.97391 -3.36665,-16.91311 -1.83778,-11.255 -2.86606,-24.06191 -0.43455,-5.41104 -3.56556,-9.69588 -7.0373,-12.89983 -3.47165,-3.20396 -7.49682,-5.60031 -11.34575,-7.53947 -7.69794,-3.87833 -15.07067,-5.93327 -15.07067,-5.93327 -4.10192,-1.15994 -8.45009,0.95651 -9.71131,4.72689 -1.26073,3.7696 1.04168,7.76491 5.14283,8.92412 0,0 6.12309,1.75962 12.17068,4.8065 3.0238,1.52345 5.93344,3.36787 7.80362,5.09382 1.87018,1.72595 2.48656,3.0617 2.55164,3.87185 0.756,9.41481 0.69053,11.49678 1.99427,19.10137 -7.64366,-3.98983 -15.96195,-9.29564 -27.44094,-19.4008 -3.0989,-2.72724 -8.01631,-2.62961 -10.98418,0.21808 -2.96904,2.84801 -2.86365,7.3691 0.23535,10.09763 20.10253,17.69665 33.6965,23.38678 45.92937,28.79745 0.42693,0.58113 0.82744,1.24838 1.24665,1.81218 3.13815,4.22067 6.05975,8.08872 7.70759,12.11403 1.64794,4.02527 2.29933,8.13512 0.63085,14.07502 -0.93302,3.32185 -2.81139,7.30303 -5.73222,11.86305 -2.61268,-6.73374 -5.92167,-13.69355 -9.54363,-20.37173 -6.51193,-12.00676 -13.12298,-22.30719 -19.51295,-28.08262 -3.05966,-2.76564 -7.97938,-2.72766 -10.98804,0.0848 -3.00885,2.81228 -2.96749,7.33406 0.0926,10.09936 1.67725,1.51597 4.96417,5.82659 8.58709,11.25558 -4.45277,-1.07955 -9.1113,-2.03786 -14.15549,-2.72093 -4.24539,-0.57562 -8.19468,2.12116 -8.82052,6.02326 -0.62632,3.90266 2.30887,7.53281 6.55513,8.10724 11.12456,1.50642 20.39881,4.23347 27.21494,7.27635 4.78869,9.63306 8.69999,19.52126 9.77898,25.89486 2.69955,15.9456 -2.22393,46.28572 -2.22393,46.28572 -0.68802,3.89229 2.18681,7.56046 6.4215,8.19373 4.23545,0.63335 8.22765,-2.00915 8.91654,-5.90215 0,0 0.4681,-2.7204 1.04515,-6.60312 0.98711,-0.37955 3.63864,-1.44545 8.55123,-2.77791 5.7272,-1.55348 12.93053,-2.71766 16.9933,-2.26916 11.34604,1.25271 20.80174,4.32988 29.31835,8.7701 6.07131,3.16535 18.04646,7.57898 29.43704,11.74191 11.39058,4.16293 21.59003,7.70739 21.59003,7.70739 4.01399,1.39538 8.49859,-0.46445 10.01627,-4.15398 1.51826,-3.68935 -0.50532,-7.81134 -4.5195,-9.20628 0,0 -9.34897,-3.28445 -19.12304,-6.82634 6.87253,-1.76918 13.41966,-2.43124 19.6541,-1.17003 4.19072,0.84737 8.33545,-1.58822 9.25747,-5.44001 0.92203,-3.85125 -1.7268,-7.66051 -5.91675,-8.50876 -14.90938,-3.01603 -29.23418,0.92243 -37.38769,3.72037 -8.15341,2.79794 -9.3374,2.25755 -10.89568,1.58981 2.04778,-1.91965 2.42226,-2.40217 5.71911,-5.23742 4.86977,-4.1881 10.7659,-8.79678 15.8691,-12.09851 1.29342,0.85383 2.63852,1.59512 4.00164,2.07526 4.13625,1.45706 8.43177,1.74081 12.77888,1.5058 8.69411,-0.46995 17.66629,-2.98821 24.56909,-7.85273 3.4058,-2.39969 4.04995,-6.88271 1.43872,-10.01279 -2.61085,-3.13035 -7.48844,-3.72241 -10.89394,-1.32236 -3.26416,2.30035 -10.29568,4.57385 -15.86148,4.91033 9.72759,-9.28949 13.22325,-20.52415 13.22325,-20.52415 1.31386,-3.75422 -0.93205,-7.77669 -5.01662,-8.98464 -4.08524,-1.20875 -8.46291,0.85578 -9.77715,4.61089 0,0 -6.02397,14.78798 -16.6035,19.97888 -5.1758,2.53954 -10.27669,6.13424 -15.17423,9.90557 -0.29928,-2.10796 -0.57975,-4.17365 -0.53675,-5.91083 0.1077,-4.34823 1.0332,-7.40388 4.63626,-11.15517 2.83925,-2.95631 2.5341,-7.46821 -0.68166,-10.07855 -3.21673,-2.61078 -8.12709,-2.33031 -10.96731,0.62653 -5.96478,6.21001 -8.3557,13.52393 -8.52298,20.28178 -0.1532,6.18626 1.15641,11.98437 2.35573,17.77902 -2.34204,2.15733 -4.67984,4.23959 -5.48925,5.02811 -5.45598,-2.06303 -11.28259,-3.69121 -17.51501,-4.8117 0.23043,-3.19956 0.6348,-7.31596 1.51219,-11.88388 1.84694,-9.61605 6.09454,-20.04384 11.50213,-24.138 15.19332,-11.50335 21.07305,-10.21457 39.77716,-13.85014 h 0.0116 c 0.0742,-0.0142 0.1158,-0.0186 0.19013,-0.0328 6.77833,-1.32494 24.36537,-0.97436 39.12192,0.10908 14.75656,1.08345 27.29208,2.60662 27.29208,2.60662 4.25358,0.51691 8.15785,-2.23318 8.72082,-6.14266 0.56345,-3.91028 -2.42891,-7.49985 -6.68327,-8.0172 0,0 -7.39288,-0.80244 -16.56772,-1.65813 0.78694,-0.68467 1.75621,-1.48418 2.49331,-2.09777 4.68485,-3.89998 7.67712,-5.7513 11.47388,-5.67881 4.29003,0.0824 7.84036,-3.04769 7.92983,-6.9908 0.0897,-3.94311 -3.31584,-7.20628 -7.60596,-7.2885 -9.73946,-0.18603 -16.8699,4.91013 -22.23024,9.37241 -5.36034,4.46229 -9.80078,8.59305 -14.53181,9.71948 -4.73094,1.12631 -8.86583,0.81163 -12.87143,0.77104 3.32818,-3.03993 7.08368,-6.22934 11.67915,-9.41914 15.30603,-10.62436 28.77601,-16.78899 28.77601,-16.78899 3.84189,-1.75691 5.40672,-6.04381 3.49508,-9.57492 -1.91077,-3.53087 -6.57374,-4.9698 -10.41562,-3.21414 0,0 -14.71221,6.72183 -31.22025,18.18058 -12.61207,8.75431 -21.26926,18.29784 -24.91378,22.65296 -8.89717,1.63438 -16.48771,2.7336 -24.18874,5.46428 2.42419,-5.01685 5.03099,-9.74903 6.67382,-11.35418 2.70774,-2.64563 5.53447,-3.43683 10.65656,-5.02461 5.1222,-1.58778 12.1783,-4.03836 18.51871,-10.17379 3.76947,-3.64773 7.5241,-8.80679 11.18945,-14.35026 10.19011,-6.18334 16.05113,-10.17969 23.69354,-10.9942 4.26255,-0.4545 7.3171,-3.999 6.82249,-7.91678 -0.49452,-3.91705 -4.34961,-6.72432 -8.61149,-6.27078 -2.77456,0.2957 -5.31598,0.85879 -7.74345,1.56986 1.43265,-2.59783 4.51574,-7.97045 4.51574,-7.97045 1.88657,-3.54302 0.2905,-7.82089 -3.56469,-9.55415 -3.85481,-1.73402 -8.50919,-0.26699 -10.39489,3.27646 0,0 -4.47409,8.40503 -10.21219,18.02652 -5.738,9.6215 -13.25931,20.7652 -16.96129,24.34751 -4.00821,3.87864 -7.40166,4.98386 -12.21764,6.47675 -1.40806,0.43645 -3.15887,1.1182 -4.80199,1.69274 -0.35645,-5.80646 -0.027,-12.79153 0.78897,-15.16029 2.81949,-8.18403 7.16987,-15.24942 13.2704,-20.28007 6.25855,-5.16097 25.48061,-17.42074 25.48061,-17.42074 3.53981,-2.22958 4.44284,-6.6746 2.01683,-9.928 -2.42641,-3.253 -7.26244,-4.08217 -10.80167,-1.85199 0,0 -18.50945,11.50919 -27.07176,18.57001 -8.72054,7.19114 -14.2819,16.65178 -17.70891,26.59931 -2.29393,6.65753 -1.91328,14.11575 -1.48384,20.63143 0.31624,4.79887 0.67481,6.86358 0.93774,8.71816 -4.58043,5.6035 -7.63913,12.57852 -10.21594,18.95771 -2.31601,5.7335 -3.66709,9.88536 -4.31616,11.93749 -9.45609,8.35793 -13.01066,20.64733 -14.99528,30.98003 -0.97062,5.05345 -1.44393,9.63067 -1.70984,13.24248 -5.34357,0.42564 -10.47289,1.56491 -14.87486,2.75896 -0.99279,0.26931 -1.58093,0.50069 -2.49129,0.77195 0.63538,-8.16369 0.89734,-17.10801 -0.10924,-25.30289 8.51864,-10.0509 13.61364,-18.83013 15.85965,-26.82606 2.43074,-8.65392 1.43033,-16.4125 -1.13366,-22.67551 -0.42741,-1.04401 -0.9308,-1.99375 -1.41982,-2.96145 2.38919,-2.76231 14.66438,-17.7412 14.65445,-36.03056 0,-7.00807 -1.73144,-13.38417 -3.6665,-19.4112 7.6749,0.64544 20.57641,0.93227 32.80031,-3.35953 8.69055,-3.05118 17.89567,-8.06685 26.02854,-13.57312 8.13278,-5.50626 15.04581,-11.17433 19.18147,-17.16285 2.30029,-3.32986 1.22786,-7.74323 -2.39536,-9.85704 -3.62283,-2.11423 -8.42453,-1.1285 -10.72434,2.20161 -1.98106,2.86855 -8.07879,8.44469 -15.27778,13.31869 -0.66874,0.45277 -1.4231,0.82031 -2.11103,1.26523 -0.1128,-0.66581 -0.31885,-1.45719 -0.35028,-2.0493 -0.14925,-2.81368 0.12824,-4.9705 3.24652,-8.91547 2.52195,-3.19084 1.75226,-7.65663 -1.71929,-9.97474 -3.47155,-2.31799 -8.33034,-1.61049 -10.85238,1.58025 -4.92069,6.22514 -6.47588,12.72176 -6.1955,18.00576 0.19881,3.74695 0.89763,6.63929 1.47632,9.19933 -1.97537,0.8973 -4.06538,1.99187 -5.85081,2.61873 -12.35194,4.33674 -31.89304,1.51561 -31.89304,1.51561 -0.36397,-0.39348 -0.76438,-1.45515 2.02136,-4.83287 2.78565,-3.3777 6.84746,-7.04728 9.95572,-12.62017 3.10826,-5.57288 4.46647,-12.14516 4.92435,-22.158 0.17962,-3.94015 -3.14962,-7.26824 -7.43647,-7.43389 z"
     id="path1003"
     sodipodi:nodetypes="ssscscscsccscccssscscssccccccssscsscscccccscsccsssscccccscccscssccsccccscsscsscccsscccscccccsscsccscccsccssscsscccccsssccscccscscscscsccsscccssccsscssssscsccscss" /><g
     id="g1039"
     transform="translate(-1198.4873,374.42115)"><path
       d="m 1353.8163,273.87404 -32.688,28.194 c -5.288,4.562 -25.087,-19.763 -21.149,-35.53 3.939,-15.766 44.746,-12.959 44.746,-12.959 5.358,3.714 11.73,18.02 9.091,20.295"
       opacity="1"
       fill="#ff9197"
       id="path1005" /><path
       d="m 1335.0793,274.57104 c 0.606,6.626 -5.247,19.638 -10.788,24.77 l 29.525,-25.46699 c 0,0 -19.706,-9.265 -18.527,0.697"
       opacity="1"
       fill="#fb7c83"
       id="path1007" /><path
       d="m 1337.7683,302.79505 c 16.284,42.31099 69.052,20.427 80.07,19.221 8.912,-0.974 19.6,6.11399 39.48,6.75999 19.879,0.643 30.724,-5.08199 47.807,-2.63099 17.083,2.45 43.615,26.067 97.508,10.005 71.217,-21.49 -17.007,-191.477 -130.613,-191.477 -113.607,0 -150.536,115.81499 -134.252,158.122 v 0"
       opacity="1"
       fill="#ffc7c7"
       id="path1009" /><path
       d="m 1364.5383,305.24604 c 1.135,-0.769 36.514,-29.61 68.372,-30.198 21.611,-0.403 39.734,-2.7 65.968,8.152 26.234,10.852 55.783,32.11 56.551,32.582 0.769,0.468 1.28,3.143 0.724,4.336 -0.556,1.192 -2.352,0.834 -2.999,0.408 -0.645,-0.42599 -32.833,-19.519 -55.104,-28.73099 -22.27,-9.21 -41.386,-8.12901 -65.968,-8.15101 -31.864,-0.037 -64.07,26.42501 -65.098,26.609 -1.03,0.216 -3.484,0.921 -4.118,-0.564 -0.528,-1.232 0.536,-3.676 1.672,-4.443 v 0"
       opacity="1"
       fill="#a7505d"
       id="path1011" /><path
       d="m 1416.9163,239.60204 c 0.192,15.338 -11.887,27.93 -26.976,28.127 v 0 c -15.091,0.195 -27.48,-12.08 -27.671,-27.417 -0.192,-15.33799 11.885,-27.93 26.976,-28.126 v 0 c 15.091,-0.196 27.479,12.07901 27.671,27.416"
       opacity="1"
       fill="#ffffff"
       id="path1013" /><path
       d="m 1390.8333,261.89704 c -11.78,0.721 -21.907,-8.395 -22.624,-20.36899 -0.717,-11.97201 8.245,-22.272 20.025,-23.012 11.78,-0.738 21.92,8.36099 22.659,20.36699 0.7,12.01 -8.279,22.29401 -20.06,23.014"
       opacity="1"
       fill="#040606"
       id="path1015" /><path
       d="m 1393.1763,226.16104 c 2.056,-2.81899 9.528,-0.317 12.146,4.368 2.618,4.683 2.594,11.876 -1.744,13.328 -4.338,1.45 -4.021,-4.2 -6.294,-8.184 -2.275,-3.984 -6.164,-6.695 -4.108,-9.511 v -10e-4"
       opacity="1"
       fill="#ffffff"
       id="path1017" /><path
       d="m 1403.1123,245.31204 c 1.53,0.089 2.646,1.66801 2.494,3.52401 -0.153,1.854 -1.518,3.28399 -3.049,3.19399 -1.531,-0.089 -2.647,-1.668 -2.493,-3.523 0.153,-1.85499 1.517,-3.285 3.048,-3.195"
       opacity="1"
       fill="#ffffff"
       id="path1019" /><path
       d="m 1536.0813,239.33404 c 0.192,15.337 -11.887,27.93 -26.976,28.124 v 0 c -15.091,0.198 -27.479,-12.077 -27.671,-27.414 -0.192,-15.338 11.886,-27.93 26.978,-28.127 v 0 c 15.089,-0.195 27.478,12.08 27.669,27.417 v 0"
       opacity="1"
       fill="#ffffff"
       id="path1021" /><path
       d="m 1510.0003,261.62905 c -11.782,0.71999 -21.908,-8.397 -22.624,-20.369 -0.718,-11.974 8.245,-22.274 20.025,-23.01401 11.779,-0.738 21.92,8.363 22.659,20.37001 0.7,12.008 -8.28,22.29299 -20.06,23.013"
       opacity="1"
       fill="#040606"
       id="path1023" /><path
       d="m 1512.3413,225.89304 c 2.056,-2.819 9.528,-0.317 12.147,4.367 2.617,4.682 2.593,11.877 -1.743,13.329 -4.339,1.451 -4.021,-4.201 -6.295,-8.185 -2.274,-3.983 -6.165,-6.694 -4.109,-9.511 v 0"
       opacity="1"
       fill="#ffffff"
       id="path1025" /><path
       d="m 1522.2783,245.04204 c 1.53,0.091 2.647,1.668 2.494,3.523 -0.154,1.856 -1.519,3.287 -3.048,3.197 -1.531,-0.091 -2.647,-1.668 -2.495,-3.524 0.153,-1.855 1.517,-3.286 3.049,-3.196"
       opacity="1"
       fill="#ffffff"
       id="path1027" /><path
       d="m 1478.7053,237.45704 c 1.241,19.55 -14.425,36.475 -35.003,37.812 -20.578,1.337 -38.284,-13.419 -39.558,-32.96699 -1.275,-19.548 14.364,-36.49601 34.938,-37.864 20.578,-1.369 38.307,13.359 39.615,32.904"
       opacity="1"
       fill="#ffc7c7"
       id="path1029" /><path
       d="m 1475.5943,250.00104 c -4.377,13.035 -16.789,22.876 -31.989,23.86 -19.76,1.283 -36.76,-12.89 -37.98,-31.66 -0.557,-8.563 2.267,-16.605 7.377,-22.945 0,0 3.219,-3.635 1.272,-5.179 -1.945,-1.545 -4.718,2.787 -4.718,2.787 -5.688,7.088 -8.828,16.069 -8.204,25.62801 1.374,21.007 20.402,36.86099 42.517,35.425 17.036,-1.10401 30.941,-12.14801 35.824,-26.768 0,0 1.147,-2.995 -0.864,-3.713 -2.009,-0.719 -3.235,2.565 -3.235,2.565 v 0"
       opacity="1"
       fill="#a7505d"
       id="path1031" /><path
       d="m 1519.4833,154.44504 c 0,3.417 63.826,23.922 84.538,98.941 21.131,76.54 -26.729,87.811 -26.621,87.806 0.419,-0.017 0.578,-0.044 1.089,-0.098 7.379,-0.777 15.401,-2.338 24.144,-4.944 60.801,-18.347 5.389,-144.93 -82.814,-181.565 -0.1,-0.041 -0.209,-0.061 -0.295,-0.122 -0.055,-0.039 -0.02,-0.003 -0.02,-0.003"
       opacity="1"
       fill="#f6aeae"
       id="path1033" /><path
       d="m 1584.0143,273.01304 39.294,41.381 c 6.358,6.695 32.35,-20.04899 28.588,-41.714 -3.763,-21.666 -55.803,-22.07999 -55.803,-22.07999 -7.095,4.457 -15.252,19.07299 -12.079,22.413 v 0"
       opacity="1"
       fill="#ff9197"
       id="path1035" /><path
       d="m 1641.5563,260.07104 v 0 c 16.058,15.736 1.285,34.28901 -8.163,42.55801 -8.514,7.449 -41.757,-21.644 -48.267,-28.44401 l 38.182,40.20901 c 6.358,6.695 32.35,-20.049 28.588,-41.714 -0.943,-5.427 -4.916,-9.52 -10.34,-12.609"
       opacity="1"
       fill="#fb7c83"
       id="path1037" /></g></g><sodipodi:namedview
   pagecolor="#ffffff"
   bordercolor="#666666"
   borderopacity="1"
   objecttolerance="10"
   gridtolerance="10"
   guidetolerance="10"
   inkscape:pageopacity="0"
   inkscape:pageshadow="2"
   inkscape:window-width="1920"
   inkscape:window-height="1016"
   id="namedview1281"
   showgrid="false"
   inkscape:zoom="0.6828125"
   inkscape:cx="-56.384439"
   inkscape:cy="172.81465"
   inkscape:window-x="0"
   inkscape:window-y="27"
   inkscape:window-maximized="1"
   inkscape:current-layer="svg1279"
   inkscape:document-rotation="0"
   inkscape:pagecheckerboard="0"
   inkscape:snap-nodes="false" />
<metadata
   id="metadata1190">
<vectornator:setting
   key="DynamicGuides"
   value="1" />
<vectornator:setting
   key="CMYKEnabledKey"
   value="0" />
<vectornator:setting
   key="Units"
   value="Points" />
<vectornator:setting
   key="GridSpacing"
   value="36" />
<vectornator:setting
   key="SnapToGuides"
   value="1" />
<vectornator:setting
   key="RulersVisible"
   value="1" />
<rdf:RDF><cc:Work
     rdf:about=""><dc:format>image/svg+xml</dc:format><dc:type
       rdf:resource="http://purl.org/dc/dcmitype/StillImage" /></cc:Work></rdf:RDF></metadata>
<defs
   id="defs1202" />



</svg>
