<?xml version="1.0" encoding="UTF-8" standalone="no"?>
<svg
   style="clip-rule:evenodd;fill-rule:evenodd;stroke-linecap:round;stroke-linejoin:round"
   xml:space="preserve"
   version="1.1"
   viewBox="0 0 639.99999 399.99999"
   id="svg1279"
   sodipodi:docname="og_img.svg"
   inkscape:version="1.1 (1:1.1+202105261517+ce6663b3b7)"
   width="640"
   height="400"
   inkscape:export-filename="/home/ash/src/go/benthos/website/static/img/og_img.png"
   inkscape:export-xdpi="96"
   inkscape:export-ydpi="96"
   xmlns:inkscape="http://www.inkscape.org/namespaces/inkscape"
   xmlns:sodipodi="http://sodipodi.sourceforge.net/DTD/sodipodi-0.dtd"
   xmlns="http://www.w3.org/2000/svg"
   xmlns:svg="http://www.w3.org/2000/svg"
   xmlns:rdf="http://www.w3.org/1999/02/22-rdf-syntax-ns#"
   xmlns:cc="http://creativecommons.org/ns#"
   xmlns:dc="http://purl.org/dc/elements/1.1/"
   xmlns:vectornator="http://vectornator.io"><sodipodi:namedview
   pagecolor="#272822"
   bordercolor="#666666"
   borderopacity="1"
   objecttolerance="10"
   gridtolerance="10"
   guidetolerance="10"
   inkscape:pageopacity="1"
   inkscape:pageshadow="2"
   inkscape:window-width="1535"
   inkscape:window-height="752"
   id="namedview1281"
   showgrid="false"
   inkscape:zoom="0.68284468"
   inkscape:cx="373.43778"
   inkscape:cy="241.63621"
   inkscape:window-x="49"
   inkscape:window-y="231"
   inkscape:window-maximized="0"
   inkscape:current-layer="svg1279"
   inkscape:document-rotation="0"
   inkscape:pagecheckerboard="0" />
<metadata
   id="metadata1190">
<vectornator:setting
   key="DynamicGuides"
   value="1" />
<vectornator:setting
   key="CMYKEnabledKey"
   value="0" />
<vectornator:setting
   key="Units"
   value="Points" />
<vectornator:setting
   key="GridSpacing"
   value="36" />
<vectornator:setting
   key="SnapToGuides"
   value="1" />
<vectornator:setting
   key="RulersVisible"
   value="1" />
<rdf:RDF><cc:Work
     rdf:about=""><dc:format>image/svg+xml</dc:format><dc:type
       rdf:resource="http://purl.org/dc/dcmitype/StillImage" /></cc:Work></rdf:RDF></metadata>
<defs
   id="defs1202"><rect
     x="170.72559"
     y="254.86246"
     width="746.93762"
     height="146.25343"
     id="rect1038" /></defs>



<path
   style="clip-rule:evenodd;fill:#b0f2ff;fill-opacity:1;fill-rule:evenodd;stroke-width:0.573274;stroke-linecap:round;stroke-linejoin:round"
   inkscape:connector-curvature="0"
   id="path975"
   d="m 191.40968,215.13834 c 0,-69.40169 56.26151,-125.663195 125.6632,-125.663195 69.40175,0 125.66287,56.261505 125.66287,125.663195 0,11.24993 -1.47848,22.15475 -4.25141,32.53043 -16.5229,2.61012 -231.63662,2.61012 -242.93504,-0.42078 -2.70098,-10.24956 -4.13961,-21.01164 -4.13962,-32.10965 z" /><g
   id="g985"
   transform="matrix(0.573274,0,0,0.573274,156.53966,75.492235)"
   style="clip-rule:evenodd;fill-rule:evenodd;stroke-linecap:round;stroke-linejoin:round"><path
     id="path979"
     style="fill:#97da12;fill-opacity:1;stroke-width:2.0366"
     d="m 155.07767,52.68763 c 4.9342,0 8.90649,4.03517 8.90649,9.04747 0,0 0,10.85685 0,21.0883 0,10.23143 9.71781,26.86689 9.71781,40.30034 0,13.43345 -17.96394,26.86687 -17.96394,40.30037 0,13.4334 19.04522,26.8669 19.04522,40.3003 0,13.4335 -10.79908,27.888 -10.79908,40.3004 0,12.4123 0,34.1738 0,34.1738 0,5.0123 -3.97229,9.0475 -8.90649,9.0475 -4.93418,0 -8.90649,-4.0352 -8.90649,-9.0475 0,0 0,-21.7615 0,-34.1738 0,-12.4124 10.79909,-26.8669 10.79909,-40.3004 0,-13.4334 -19.04521,-26.8669 -19.04521,-40.3003 0,-13.4335 17.96394,-26.86692 17.96394,-40.30037 0,-13.43345 -9.71781,-30.06891 -9.71781,-40.30034 0,-10.23145 0,-21.0883 0,-21.0883 0,-5.0123 3.9723,-9.04747 8.90647,-9.04747 z"
     sodipodi:nodetypes="sszzzzzssszzzzzss" /><path
     id="path981"
     style="fill:#b6ee47;fill-opacity:1;stroke-width:2.0366"
     d="m 138.12252,34.07106 c 4.9342,0 8.9065,4.03517 8.9065,9.04747 0,0 0,26.37067 0,39.70487 0,13.3342 9.7178,26.86689 9.7178,40.30034 0,13.43345 -17.96394,26.86687 -17.96394,40.30037 0,13.4334 19.04521,26.8669 19.04521,40.3003 0,13.4335 -10.79908,27.888 -10.79908,40.3004 0,12.4123 0,34.1738 0,34.1738 0,5.0123 -3.97229,9.0475 -8.90649,9.0475 -4.93418,0 -8.90646,-4.0352 -8.90646,-9.0475 0,0 0,-21.7615 0,-34.1738 0,-12.4124 10.79907,-26.8669 10.79907,-40.3004 0,-13.4334 -19.04521,-26.8669 -19.04521,-40.3003 0,-13.4335 17.96393,-26.86692 17.96393,-40.30037 0,-13.43345 -9.71779,-26.96614 -9.71779,-40.30034 0,-13.3342 0,-39.70487 0,-39.70487 0,-5.0123 3.97228,-9.04747 8.90646,-9.04747 z"
     sodipodi:nodetypes="sszzzzzssszzzzzss" /><path
     id="path983"
     style="fill:#a6e22e;fill-opacity:1;stroke-width:2.0366"
     d="m 121.35619,66.49096 c 4.93419,0 8.90648,4.03517 8.90648,9.04747 0,0 0,-0.64592 0,7.28497 0,7.93088 9.71782,26.86689 9.71782,40.30034 0,13.43345 -17.96395,26.86687 -17.96395,40.30037 0,13.4334 19.04521,26.8669 19.04521,40.3003 0,13.4335 -10.79908,27.888 -10.79908,40.3004 0,12.4123 0,34.1738 0,34.1738 0,5.0123 -3.97229,9.0475 -8.90648,9.0475 -4.93419,0 -8.90648,-4.0352 -8.90648,-9.0475 0,0 0,-21.7615 0,-34.1738 0,-12.4124 10.79908,-26.8669 10.79908,-40.3004 0,-13.4334 -19.04521,-26.8669 -19.04521,-40.3003 0,-13.4335 17.96394,-26.86692 17.96394,-40.30037 0,-13.43345 -9.71781,-32.36946 -9.71781,-40.30034 0,-7.93089 0,-7.28497 0,-7.28497 0,-5.0123 3.97229,-9.04747 8.90648,-9.04747 z"
     sodipodi:nodetypes="sszzzzzssszzzzzss" /></g><g
   id="g993"
   transform="matrix(0.573274,0,0,0.573274,156.53966,75.492235)"
   style="clip-rule:evenodd;fill-rule:evenodd;stroke-linecap:round;stroke-linejoin:round"><path
     id="path987"
     style="fill:#97da12;fill-opacity:1;stroke-width:1.83294"
     d="m 232.70847,73.040388 c 4.34916,0.871676 7.04788,5.120716 6.05094,9.527006 0,0 -2.15941,9.544194 -4.19443,18.538606 -2.03501,8.99441 3.22182,25.3353 0.54994,37.14458 -2.67189,11.80928 -21.17779,20.4451 -23.84967,32.2543 -2.67189,11.80931 11.44329,26.98307 8.77141,38.79237 -2.6719,11.80931 -15.06553,22.60848 -17.53433,33.52009 -2.46879,10.91162 -6.79711,30.04209 -6.79711,30.04209 -0.99694,4.40623 -5.30083,7.25183 -9.64999,6.38015 -4.34915,-0.87169 -7.04786,-5.12076 -6.05094,-9.52699 0,0 4.32832,-19.13046 6.79712,-30.04208 2.46879,-10.91161 14.86244,-21.71078 17.53432,-33.52009 2.6719,-11.8093 -11.4433,-26.98307 -8.7714,-38.79237 2.67188,-11.8092 21.17777,-20.44502 23.84966,-32.2543 2.67188,-11.80929 -2.58495,-28.15017 -0.54993,-37.144578 2.03501,-8.994416 4.19442,-18.53861 4.19442,-18.53861 0.99694,-4.4063 5.30084,-7.251849 9.64999,-6.380174 z"
     sodipodi:nodetypes="sszzzzzssszzzzzss" /><path
     id="path989"
     style="fill:#b6ee47;fill-opacity:1;stroke-width:1.83294"
     d="m 221.46645,53.679366 c 4.34916,0.871666 7.04788,5.120706 6.05095,9.526996 0,0 -5.24508,23.182325 -7.89722,34.904345 -2.65216,11.722033 3.22181,25.335303 0.54992,37.144573 -2.67189,11.80932 -21.17778,20.44503 -23.84966,32.25434 -2.6719,11.8093 11.44329,26.98306 8.7714,38.79237 -2.6719,11.8093 -15.06552,22.60837 -17.53433,33.52009 -2.46879,10.91161 -6.7971,30.04198 -6.7971,30.04198 -0.99694,4.40633 -5.30083,7.25184 -9.64999,6.38015 -4.34916,-0.87158 -7.04787,-5.12065 -6.05093,-9.52698 0,0 4.32831,-19.13037 6.7971,-30.04199 2.4688,-10.91171 14.86244,-21.71078 17.53432,-33.52009 2.6719,-11.8093 -11.44329,-26.98306 -8.7714,-38.79237 2.67189,-11.8093 21.17777,-20.44502 23.84967,-32.25433 2.67188,-11.80928 -3.20209,-25.42255 -0.54993,-37.144575 2.65214,-11.72203 7.89722,-34.904346 7.89722,-34.904346 0.99693,-4.40629 5.30083,-7.251838 9.64998,-6.380163 z"
     sodipodi:nodetypes="sszzzzzssszzzzzss" /><path
     id="path991"
     style="fill:#a6e22e;fill-opacity:1;stroke-width:1.83294"
     d="m 200.2398,79.217597 c 4.34916,0.871677 7.04788,5.120706 6.05094,9.527006 0,0 0.12846,-0.567833 -1.44896,6.404165 -1.57745,6.972002 3.2218,25.335302 0.54992,37.144572 -2.67189,11.80927 -21.17778,20.44508 -23.84967,32.25439 -2.67188,11.8092 11.4433,26.98306 8.77141,38.79227 -2.67188,11.8093 -15.06553,22.60847 -17.53431,33.52009 -2.46881,10.91171 -6.79712,30.04208 -6.79712,30.04208 -0.99693,4.40623 -5.30083,7.25184 -9.64999,6.38015 -4.34915,-0.87168 -7.04787,-5.12075 -6.05094,-9.52698 0,0 4.32831,-19.13037 6.79712,-30.04208 2.46879,-10.91162 14.86243,-21.71079 17.53432,-33.5201 2.67188,-11.8092 -11.44329,-26.98306 -8.77142,-38.79227 2.6719,-11.8093 21.17779,-20.44512 23.84967,-32.25438 2.6719,-11.80927 -2.12736,-30.172568 -0.54992,-37.144575 1.57743,-6.971996 1.44896,-6.404174 1.44896,-6.404174 0.99694,-4.40629 5.30084,-7.251839 9.64999,-6.380164 z"
     sodipodi:nodetypes="sszzzzzssszzzzzss" /></g><path
   style="fill:#1e1f1b;stroke-width:0.872554"
   inkscape:connector-curvature="0"
   id="path1213"
   d="m 516.85485,262.93689 c 0,26.78916 -88.13488,48.50579 -196.85461,48.50579 -108.72044,0 -196.85509,-21.71663 -196.85509,-48.50579 0,-26.78811 88.13465,-48.50474 196.85509,-48.50474 108.71973,0 196.85461,21.71663 196.85461,48.50474" /><g
   id="g1001"
   transform="matrix(0.53026658,0,0,0.53026658,162.02483,87.521129)"
   style="clip-rule:evenodd;fill-rule:evenodd;stroke-linecap:round;stroke-linejoin:round"><path
     id="path995"
     style="fill:#97da12;fill-opacity:1;stroke-width:1.83294"
     d="m 74.62883,67.380015 c 4.34915,-0.871675 8.653049,1.973884 9.649993,6.380173 0,0 2.1594,9.544195 4.19442,18.53861 2.03501,8.994402 13.909357,21.901802 16.581247,33.711082 2.67188,11.80925 -10.490221,26.79204 -7.818335,38.60135 2.671895,11.8093 22.130845,20.25405 24.802735,32.06335 2.67188,11.80921 -3.9718,26.42392 -1.503,37.33554 2.4688,10.91171 6.79711,30.04208 6.79711,30.04208 0.99694,4.40623 -1.70179,8.6553 -6.05094,9.52699 -4.34915,0.87168 -8.65305,-1.97393 -9.64998,-6.38016 0,0 -4.32832,-19.13036 -6.79712,-30.04208 -2.46878,-10.91162 4.17489,-25.52633 1.503,-37.33553 -2.67188,-11.80931 -22.130838,-20.25405 -24.802729,-32.06336 -2.671891,-11.8093 10.490226,-26.7921 7.818336,-38.60135 C 86.681675,117.34744 74.807329,104.44004 72.772314,95.445631 70.7373,86.451225 68.577894,76.90702 68.577894,76.90702 67.580956,72.500731 70.279677,68.251691 74.62883,67.380015 Z"
     sodipodi:nodetypes="sszzzzzssszzzzzss" /><path
     id="path997"
     style="fill:#b6ee47;fill-opacity:1;stroke-width:1.83294"
     d="m 55.981209,54.009578 c 4.349159,-0.871676 8.653054,1.973873 9.649992,6.380162 0,0 5.245076,23.182326 7.897223,34.904345 2.652147,11.722035 13.909362,21.901805 16.581255,33.711095 2.671887,11.80932 -10.490222,26.79211 -7.818343,38.60132 2.671895,11.8093 22.130854,20.25405 24.802734,32.06335 2.6719,11.8093 -3.9718,26.42392 -1.503,37.33554 2.4688,10.91171 6.79711,30.04208 6.79711,30.04208 0.99695,4.40633 -1.70179,8.6553 -6.05093,9.52698 -4.34915,0.87169 -8.653048,-1.97382 -9.649986,-6.38015 0,0 -4.328319,-19.13037 -6.797118,-30.04208 -2.468791,-10.91162 4.174893,-25.52623 1.502997,-37.33554 -2.671885,-11.8093 -22.13084,-20.25405 -24.802731,-32.06335 -2.67188,-11.80921 10.490233,-26.792 7.818339,-38.60132 C 71.736864,120.34273 60.479646,110.16296 57.827499,98.440928 55.175352,86.718898 49.930278,63.536582 49.930278,63.536582 c -0.996939,-4.406299 1.701783,-8.655329 6.050931,-9.527004 z"
     sodipodi:nodetypes="sszzzzzssszzzzzss" /><path
     id="path999"
     style="fill:#a6e22e;fill-opacity:1;stroke-width:1.83294"
     d="m 47.651068,85.471688 c 4.349158,-0.871676 8.653054,1.973872 9.649992,6.380172 0,0 -0.128468,-0.567832 1.448965,6.404165 1.577438,6.972005 13.909364,21.901805 16.581252,33.711085 2.671888,11.80928 -10.490224,26.79207 -7.818333,38.60138 2.671879,11.8092 22.130846,20.25405 24.802721,32.06325 2.671896,11.8093 -3.971779,26.42402 -1.502987,37.33563 2.468789,10.91162 6.797108,30.04199 6.797108,30.04199 0.996938,4.40633 -1.701777,8.6554 -6.050938,9.52708 -4.349148,0.87169 -8.653051,-1.97392 -9.649981,-6.38015 0,0 -4.328321,-19.13047 -6.797114,-30.04208 -2.468792,-10.91162 4.174882,-25.52633 1.502991,-37.33564 -2.67188,-11.8092 -22.130835,-20.25395 -24.802725,-32.06325 -2.67189,-11.80931 10.490221,-26.7921 7.818334,-38.60137 -2.671888,-11.80928 -15.003815,-26.73909 -16.581253,-33.71108 -1.577438,-6.972009 -1.448965,-6.404178 -1.448965,-6.404178 -0.996937,-4.40629 1.701784,-8.65533 6.050933,-9.527004 z"
     sodipodi:nodetypes="sszzzzzssszzzzzss" /></g><path
   style="color:#000000;clip-rule:nonzero;fill:#ffb763;fill-opacity:1;fill-rule:nonzero;stroke-width:0.529905;stroke-linecap:round;stroke-linejoin:miter;-inkscape-stroke:none"
   d="m 378.65802,110.196 c -2.45753,-0.0946 -4.5333,1.65959 -4.63661,3.91834 -0.23921,5.23041 -0.85617,7.52869 -1.85036,9.31115 -0.34817,0.62421 -0.94915,1.32155 -1.52105,2.01622 -0.88658,-1.99047 -2.09152,-3.78483 -3.21704,-5.42951 -2.11021,-3.08356 -4.23185,-5.45036 -4.23185,-5.45036 -1.56118,-1.74727 -4.36787,-2.00049 -6.26892,-0.56557 -1.90105,1.43493 -2.17654,4.01461 -0.61536,5.76191 0,0 1.80228,2.02279 3.57549,4.6139 1.77314,2.59111 3.12075,6.00049 3.10263,6.58845 v -0.0218 c -0.17417,4.7417 1.61689,9.12123 3.15982,13.4964 1.54289,4.37516 2.92653,8.68814 2.9288,12.56866 0,4.56613 -2.64039,9.50933 -4.69387,12.76115 -1.3202,-1.85752 -2.28243,-3.43374 -2.50889,-4.57124 -1.93002,-9.69585 -1.05355,-6.45219 -1.64304,-13.79406 -0.24911,-3.10201 -2.04404,-5.5584 -4.0343,-7.39514 -1.99021,-1.83675 -4.29773,-3.21052 -6.50423,-4.32218 -4.41302,-2.22335 -8.63962,-3.40139 -8.63962,-3.40139 -2.35152,-0.66496 -4.84421,0.54834 -5.56723,2.7098 -0.72275,2.16101 0.59716,4.45142 2.94824,5.11596 0,0 3.51021,1.00875 6.97714,2.75544 1.73346,0.87336 3.40149,1.93072 4.47361,2.92016 1.07213,0.98944 1.42548,1.7552 1.46279,2.21963 0.4334,5.39727 0.39586,6.59081 1.14326,10.95032 -4.38191,-2.28727 -9.15057,-5.32895 -15.73118,-11.12197 -1.77652,-1.56346 -4.59554,-1.50749 -6.29694,0.12501 -1.70207,1.6327 -1.64166,4.22452 0.13492,5.78871 11.52426,10.14503 19.31733,13.40704 26.33012,16.50883 0.24474,0.33315 0.47434,0.71567 0.71466,1.03888 1.79903,2.4196 3.47391,4.63705 4.41857,6.94466 0.94472,2.30758 1.31814,4.66365 0.36164,8.06884 -0.53487,1.90433 -1.61169,4.18664 -3.28613,6.80078 -1.49778,-3.86028 -3.39474,-7.85016 -5.47112,-11.67859 -3.73311,-6.88316 -7.52306,-12.78813 -11.18626,-16.09903 -1.75402,-1.58547 -4.57437,-1.5637 -6.29915,0.0486 -1.7249,1.6122 -1.70119,4.20442 0.0531,5.7897 0.96153,0.86906 2.84583,3.34023 4.92276,6.45252 -2.55266,-0.61887 -5.22328,-1.16824 -8.11498,-1.55983 -2.43377,-0.32999 -4.6978,1.21601 -5.05657,3.45298 -0.35905,2.23729 1.32361,4.31836 3.75789,4.64767 6.37742,0.86359 11.6941,2.42694 15.60161,4.17134 2.74523,5.52238 4.98748,11.19103 5.60603,14.84485 1.54759,9.1412 -1.27491,26.5344 -1.27491,26.5344 -0.39443,2.23135 1.25364,4.33421 3.68127,4.69725 2.42807,0.36308 4.7167,-1.15179 5.11162,-3.38355 0,0 0.26835,-1.55953 0.59916,-3.7854 0.56588,-0.21758 2.08594,-0.82863 4.9022,-1.5925 3.28325,-0.89057 7.41274,-1.55796 9.74182,-1.30085 6.50439,0.71814 11.92509,2.48221 16.80744,5.02767 3.48053,1.81461 10.34557,4.34483 16.87549,6.73133 6.52993,2.3865 12.37701,4.41845 12.37701,4.41845 2.30111,0.79993 4.87202,-0.26626 5.74206,-2.38137 0.87038,-2.11501 -0.28968,-4.47804 -2.59091,-5.27772 0,0 -5.35952,-1.88289 -10.96274,-3.91337 3.93984,-1.01422 7.69315,-1.39376 11.26718,-0.67074 2.40243,0.48577 4.7785,-0.91048 5.30707,-3.11862 0.52858,-2.20782 -0.98993,-4.39157 -3.39192,-4.87785 -8.54715,-1.72901 -16.75919,0.5288 -21.43339,2.13279 -4.67413,1.60399 -5.35289,1.29419 -6.24621,0.9114 1.17394,-1.10049 1.38862,-1.3771 3.27862,-3.00248 2.79171,-2.40092 6.17181,-5.04296 9.09734,-6.93576 0.74149,0.48948 1.5126,0.91444 2.29403,1.1897 2.37121,0.83529 4.83372,0.99795 7.32581,0.86323 4.98411,-0.26941 10.12762,-1.71307 14.08481,-4.50177 1.95246,-1.37568 2.32174,-3.94567 0.82479,-5.74007 -1.49674,-1.79455 -4.29293,-2.13396 -6.24521,-0.75807 -1.87127,1.31873 -5.90225,2.62207 -9.09298,2.81496 5.57657,-5.32542 7.58054,-11.76596 7.58054,-11.76596 0.75321,-2.1522 -0.53431,-4.45818 -2.87589,-5.15066 -2.34196,-0.69295 -4.85157,0.4906 -5.60498,2.64331 0,0 -3.45339,8.47755 -9.51836,11.45337 -2.96715,1.45585 -5.89137,3.5166 -8.69899,5.6786 -0.17158,-1.20844 -0.33236,-2.39265 -0.30771,-3.38852 0.0617,-2.49273 0.59231,-4.24446 2.65785,-6.39497 1.62767,-1.69478 1.45273,-4.28134 -0.39078,-5.77777 -1.84407,-1.4967 -4.65905,-1.33591 -6.28727,0.35917 -3.41946,3.56004 -4.79011,7.75292 -4.88601,11.62702 -0.0878,3.54642 0.66294,6.87032 1.35048,10.19225 -1.34263,1.23674 -2.68283,2.43045 -3.14684,2.88248 -3.12777,-1.18268 -6.46802,-2.11607 -10.0409,-2.75842 0.1321,-1.83423 0.36391,-4.19405 0.8669,-6.81272 1.0588,-5.51263 3.49384,-11.49061 6.59387,-13.83769 8.70994,-6.59457 12.08063,-5.85574 22.80322,-7.93992 h 0.006 c 0.0425,-0.008 0.0664,-0.0107 0.10899,-0.0188 3.88585,-0.75956 13.96804,-0.55858 22.42758,0.0625 8.45955,0.62112 15.64584,1.49431 15.64584,1.49431 2.43847,0.29633 4.67668,-1.28022 4.99942,-3.52143 0.32301,-2.24166 -1.39242,-4.29947 -3.83134,-4.59605 0,0 -4.23815,-0.46002 -9.49784,-0.95057 0.45113,-0.3925 1.00679,-0.85083 1.42935,-1.20259 2.6857,-2.23576 4.40108,-3.29707 6.57768,-3.25552 2.45935,0.0473 4.49467,-1.74716 4.54596,-4.00764 0.0514,-2.26048 -1.90088,-4.13117 -4.3603,-4.17831 -5.58338,-0.10664 -9.67107,2.81485 -12.74402,5.37296 -3.07294,2.55812 -5.61853,4.92617 -8.33071,5.57193 -2.71213,0.64568 -5.08255,0.46529 -7.37885,0.44201 1.90795,-1.74271 4.06088,-3.57112 6.69535,-5.39974 8.77454,-6.09067 16.49654,-9.6247 16.49654,-9.6247 2.20245,-1.00718 3.09953,-3.46475 2.00364,-5.48905 -1.0954,-2.02415 -3.76856,-2.84905 -5.97101,-1.84258 0,0 -8.43413,3.85345 -17.89776,10.42245 -7.23017,5.01862 -12.19311,10.48968 -14.28242,12.98636 -5.10051,0.93695 -9.45197,1.5671 -13.86677,3.13252 1.38972,-2.87602 2.88413,-5.58886 3.82592,-6.50905 1.55228,-1.51667 3.17277,-1.97024 6.10913,-2.88048 2.93642,-0.91023 6.9815,-2.31509 10.61629,-5.83237 2.16094,-2.09114 4.31338,-5.0487 6.41463,-8.22663 5.84172,-3.54474 9.20169,-5.83575 13.58289,-6.30268 2.44361,-0.26056 4.1947,-2.29253 3.91115,-4.53849 -0.28349,-2.24555 -2.49352,-3.85488 -4.93674,-3.59488 -1.59059,0.16952 -3.04751,0.49232 -4.43912,0.89996 0.8213,-1.48926 2.58875,-4.56925 2.58875,-4.56925 1.08153,-2.03112 0.16654,-4.48351 -2.04354,-5.47714 -2.20986,-0.99407 -4.87809,-0.15307 -5.95911,1.8783 0,0 -2.56488,4.81839 -5.85439,10.33414 -3.28945,5.51575 -7.60122,11.90415 -9.72346,13.9578 -2.29781,2.22351 -4.24318,2.85711 -7.00406,3.71295 -0.80721,0.2502 -1.8109,0.64103 -2.75285,0.9704 -0.20435,-3.32869 -0.0155,-7.33305 0.45229,-8.691 1.61634,-4.69169 4.1103,-8.7421 7.60758,-11.62603 3.58786,-2.95865 14.60737,-9.98686 14.60737,-9.98686 2.02928,-1.27816 2.54696,-3.82638 1.15619,-5.69147 -1.391,-1.86486 -4.16337,-2.3402 -6.19231,-1.06169 0,0 -10.61099,6.59791 -15.51954,10.6457 -4.99926,4.12249 -8.18744,9.54603 -10.15206,15.24869 -1.31505,3.81659 -1.09683,8.0922 -0.85064,11.82746 0.18128,2.75107 0.38685,3.93472 0.53758,4.9979 -2.62584,3.21234 -4.37932,7.21094 -5.85653,10.86796 -1.32772,3.28687 -2.10225,5.66702 -2.47435,6.84345 -5.42093,4.79139 -7.45867,11.83658 -8.59641,17.76005 -0.55642,2.89701 -0.82776,5.52101 -0.9802,7.59157 -3.06333,0.244 -6.00384,0.89712 -8.52737,1.58164 -0.56915,0.15439 -0.90631,0.28703 -1.42819,0.44254 0.36424,-4.68003 0.51442,-9.80758 -0.0626,-14.50549 4.88352,-5.76193 7.80434,-10.79483 9.09193,-15.37868 1.39348,-4.96107 0.81997,-9.40887 -0.6499,-12.99929 -0.24502,-0.5985 -0.53361,-1.14296 -0.81395,-1.69772 1.36966,-1.58356 8.4067,-10.17057 8.40101,-20.65538 0,-4.01755 -0.99258,-7.6728 -2.10191,-11.12793 4.39983,0.37 11.79593,0.53444 18.80357,-1.92594 4.98207,-1.74916 10.25913,-4.62451 14.92149,-7.78111 4.66231,-3.1566 8.62537,-6.40596 10.99624,-9.83902 1.31869,-1.90892 0.7039,-4.43899 -1.37321,-5.65079 -2.07686,-1.21203 -4.82956,-0.64694 -6.14798,1.26213 -1.13569,1.64447 -4.63136,4.84112 -8.75835,7.63526 -0.38337,0.25956 -0.81583,0.47026 -1.2102,0.72532 -0.0647,-0.38169 -0.18279,-0.83536 -0.20081,-1.17481 -0.0856,-1.61301 0.0735,-2.84945 1.86115,-5.111 1.44576,-1.82923 1.00452,-4.38935 -0.98563,-5.71827 -1.99015,-1.32883 -4.77556,-0.92325 -6.22138,0.90593 -2.82091,3.56871 -3.71246,7.29305 -3.55172,10.32223 0.11397,2.14803 0.51458,3.80613 0.84633,5.27373 -1.13242,0.5144 -2.33057,1.14189 -3.35412,1.50125 -7.08104,2.48615 -18.28344,0.86886 -18.28344,0.86886 -0.20866,-0.22557 -0.4382,-0.8342 1.15878,-2.77056 1.59695,-1.93635 3.92548,-4.04002 5.70736,-7.23481 1.78189,-3.19479 2.56051,-6.9625 2.823,-12.70261 0.10298,-2.25878 -1.80559,-4.16669 -4.26313,-4.26166 z"
   id="path1003"
   sodipodi:nodetypes="ssscscscsccscccssscscssccccccssscsscscccccscsccsssscccccscccscssccsccccscsscsscccsscccscccccsscsccscccsccssscsscccccsssccscccscscscscsccsscccssccsscssssscsccscss" /><g
   id="g1039"
   transform="matrix(0.573274,0,0,0.573274,-525.23985,61.272152)"
   style="clip-rule:evenodd;fill-rule:evenodd;stroke-linecap:round;stroke-linejoin:round"><path
     d="m 1353.8163,273.87404 -32.688,28.194 c -5.288,4.562 -25.087,-19.763 -21.149,-35.53 3.939,-15.766 44.746,-12.959 44.746,-12.959 5.358,3.714 11.73,18.02 9.091,20.295"
     opacity="1"
     fill="#ff9197"
     id="path1005" /><path
     d="m 1335.0793,274.57104 c 0.606,6.626 -5.247,19.638 -10.788,24.77 l 29.525,-25.46699 c 0,0 -19.706,-9.265 -18.527,0.697"
     opacity="1"
     fill="#fb7c83"
     id="path1007" /><path
     d="m 1337.7683,302.79505 c 16.284,42.31099 69.052,20.427 80.07,19.221 8.912,-0.974 19.6,6.11399 39.48,6.75999 19.879,0.643 30.724,-5.08199 47.807,-2.63099 17.083,2.45 43.615,26.067 97.508,10.005 71.217,-21.49 -17.007,-191.477 -130.613,-191.477 -113.607,0 -150.536,115.81499 -134.252,158.122 v 0"
     opacity="1"
     fill="#ffc7c7"
     id="path1009" /><path
     d="m 1364.5383,305.24604 c 1.135,-0.769 36.514,-29.61 68.372,-30.198 21.611,-0.403 39.734,-2.7 65.968,8.152 26.234,10.852 55.783,32.11 56.551,32.582 0.769,0.468 1.28,3.143 0.724,4.336 -0.556,1.192 -2.352,0.834 -2.999,0.408 -0.645,-0.42599 -32.833,-19.519 -55.104,-28.73099 -22.27,-9.21 -41.386,-8.12901 -65.968,-8.15101 -31.864,-0.037 -64.07,26.42501 -65.098,26.609 -1.03,0.216 -3.484,0.921 -4.118,-0.564 -0.528,-1.232 0.536,-3.676 1.672,-4.443 v 0"
     opacity="1"
     fill="#a7505d"
     id="path1011" /><path
     d="m 1416.9163,239.60204 c 0.192,15.338 -11.887,27.93 -26.976,28.127 v 0 c -15.091,0.195 -27.48,-12.08 -27.671,-27.417 -0.192,-15.33799 11.885,-27.93 26.976,-28.126 v 0 c 15.091,-0.196 27.479,12.07901 27.671,27.416"
     opacity="1"
     fill="#ffffff"
     id="path1013" /><path
     d="m 1390.8333,261.89704 c -11.78,0.721 -21.907,-8.395 -22.624,-20.36899 -0.717,-11.97201 8.245,-22.272 20.025,-23.012 11.78,-0.738 21.92,8.36099 22.659,20.36699 0.7,12.01 -8.279,22.29401 -20.06,23.014"
     opacity="1"
     fill="#040606"
     id="path1015" /><path
     d="m 1393.1763,226.16104 c 2.056,-2.81899 9.528,-0.317 12.146,4.368 2.618,4.683 2.594,11.876 -1.744,13.328 -4.338,1.45 -4.021,-4.2 -6.294,-8.184 -2.275,-3.984 -6.164,-6.695 -4.108,-9.511 v -10e-4"
     opacity="1"
     fill="#ffffff"
     id="path1017" /><path
     d="m 1403.1123,245.31204 c 1.53,0.089 2.646,1.66801 2.494,3.52401 -0.153,1.854 -1.518,3.28399 -3.049,3.19399 -1.531,-0.089 -2.647,-1.668 -2.493,-3.523 0.153,-1.85499 1.517,-3.285 3.048,-3.195"
     opacity="1"
     fill="#ffffff"
     id="path1019" /><path
     d="m 1536.0813,239.33404 c 0.192,15.337 -11.887,27.93 -26.976,28.124 v 0 c -15.091,0.198 -27.479,-12.077 -27.671,-27.414 -0.192,-15.338 11.886,-27.93 26.978,-28.127 v 0 c 15.089,-0.195 27.478,12.08 27.669,27.417 v 0"
     opacity="1"
     fill="#ffffff"
     id="path1021" /><path
     d="m 1510.0003,261.62905 c -11.782,0.71999 -21.908,-8.397 -22.624,-20.369 -0.718,-11.974 8.245,-22.274 20.025,-23.01401 11.779,-0.738 21.92,8.363 22.659,20.37001 0.7,12.008 -8.28,22.29299 -20.06,23.013"
     opacity="1"
     fill="#040606"
     id="path1023" /><path
     d="m 1512.3413,225.89304 c 2.056,-2.819 9.528,-0.317 12.147,4.367 2.617,4.682 2.593,11.877 -1.743,13.329 -4.339,1.451 -4.021,-4.201 -6.295,-8.185 -2.274,-3.983 -6.165,-6.694 -4.109,-9.511 v 0"
     opacity="1"
     fill="#ffffff"
     id="path1025" /><path
     d="m 1522.2783,245.04204 c 1.53,0.091 2.647,1.668 2.494,3.523 -0.154,1.856 -1.519,3.287 -3.048,3.197 -1.531,-0.091 -2.647,-1.668 -2.495,-3.524 0.153,-1.855 1.517,-3.286 3.049,-3.196"
     opacity="1"
     fill="#ffffff"
     id="path1027" /><path
     d="m 1478.7053,237.45704 c 1.241,19.55 -14.425,36.475 -35.003,37.812 -20.578,1.337 -38.284,-13.419 -39.558,-32.96699 -1.275,-19.548 14.364,-36.49601 34.938,-37.864 20.578,-1.369 38.307,13.359 39.615,32.904"
     opacity="1"
     fill="#ffc7c7"
     id="path1029" /><path
     d="m 1475.5943,250.00104 c -4.377,13.035 -16.789,22.876 -31.989,23.86 -19.76,1.283 -36.76,-12.89 -37.98,-31.66 -0.557,-8.563 2.267,-16.605 7.377,-22.945 0,0 3.219,-3.635 1.272,-5.179 -1.945,-1.545 -4.718,2.787 -4.718,2.787 -5.688,7.088 -8.828,16.069 -8.204,25.62801 1.374,21.007 20.402,36.86099 42.517,35.425 17.036,-1.10401 30.941,-12.14801 35.824,-26.768 0,0 1.147,-2.995 -0.864,-3.713 -2.009,-0.719 -3.235,2.565 -3.235,2.565 v 0"
     opacity="1"
     fill="#a7505d"
     id="path1031" /><path
     d="m 1519.4833,154.44504 c 0,3.417 63.826,23.922 84.538,98.941 21.131,76.54 -26.729,87.811 -26.621,87.806 0.419,-0.017 0.578,-0.044 1.089,-0.098 7.379,-0.777 15.401,-2.338 24.144,-4.944 60.801,-18.347 5.389,-144.93 -82.814,-181.565 -0.1,-0.041 -0.209,-0.061 -0.295,-0.122 -0.055,-0.039 -0.02,-0.003 -0.02,-0.003"
     opacity="1"
     fill="#f6aeae"
     id="path1033" /><path
     d="m 1584.0143,273.01304 39.294,41.381 c 6.358,6.695 32.35,-20.04899 28.588,-41.714 -3.763,-21.666 -55.803,-22.07999 -55.803,-22.07999 -7.095,4.457 -15.252,19.07299 -12.079,22.413 v 0"
     opacity="1"
     fill="#ff9197"
     id="path1035" /><path
     d="m 1641.5563,260.07104 v 0 c 16.058,15.736 1.285,34.28901 -8.163,42.55801 -8.514,7.449 -41.757,-21.644 -48.267,-28.44401 l 38.182,40.20901 c 6.358,6.695 32.35,-20.049 28.588,-41.714 -0.943,-5.427 -4.916,-9.52 -10.34,-12.609"
     opacity="1"
     fill="#fb7c83"
     id="path1037" /></g><text
   xml:space="preserve"
   id="text1036"
   style="font-size:40px;line-height:1.25;font-family:sans-serif;text-align:center;white-space:pre;shape-inside:url(#rect1038);clip-rule:evenodd;fill-rule:evenodd;stroke-linecap:round;stroke-linejoin:round"
   transform="matrix(0.71627786,0,0,0.71627786,-70.712561,78.865534)"><tspan
     x="431.6556"
     y="292.16297"
     id="tspan2532"><tspan
       style="font-family:Ubuntu;-inkscape-font-specification:Ubuntu;fill:#ffffff"
       id="tspan2530">benthos.dev</tspan></tspan></text></svg>
