<?xml version="1.0" encoding="UTF-8" standalone="no"?>
<svg
   xmlns:vectornator="http://vectornator.io"
   xmlns:dc="http://purl.org/dc/elements/1.1/"
   xmlns:cc="http://creativecommons.org/ns#"
   xmlns:rdf="http://www.w3.org/1999/02/22-rdf-syntax-ns#"
   xmlns:svg="http://www.w3.org/2000/svg"
   xmlns="http://www.w3.org/2000/svg"
   xmlns:sodipodi="http://sodipodi.sourceforge.net/DTD/sodipodi-0.dtd"
   xmlns:inkscape="http://www.inkscape.org/namespaces/inkscape"
   style="clip-rule:evenodd;fill-rule:evenodd;stroke-linecap:round;stroke-linejoin:round"
   xml:space="preserve"
   version="1.1"
   viewBox="0 0 639.99999 399.99999"
   id="svg1279"
   sodipodi:docname="og_img.svg"
   inkscape:version="1.0.1 (3bc2e813f5, 2020-09-07)"
   width="640"
   height="400"
   inkscape:export-filename="/home/ash/src/go/benthos/website/static/img/og_img.png"
   inkscape:export-xdpi="96"
   inkscape:export-ydpi="96"><sodipodi:namedview
   pagecolor="#272822"
   bordercolor="#666666"
   borderopacity="1"
   objecttolerance="10"
   gridtolerance="10"
   guidetolerance="10"
   inkscape:pageopacity="1"
   inkscape:pageshadow="2"
   inkscape:window-width="1920"
   inkscape:window-height="1016"
   id="namedview1281"
   showgrid="false"
   inkscape:zoom="0.96568821"
   inkscape:cx="235.73666"
   inkscape:cy="178.83589"
   inkscape:window-x="1280"
   inkscape:window-y="27"
   inkscape:window-maximized="1"
   inkscape:current-layer="svg1279"
   inkscape:document-rotation="0" />
<metadata
   id="metadata1190">
<vectornator:setting
   key="DynamicGuides"
   value="1" />
<vectornator:setting
   key="CMYKEnabledKey"
   value="0" />
<vectornator:setting
   key="Units"
   value="Points" />
<vectornator:setting
   key="GridSpacing"
   value="36" />
<vectornator:setting
   key="SnapToGuides"
   value="1" />
<vectornator:setting
   key="RulersVisible"
   value="1" />
<rdf:RDF><cc:Work
     rdf:about=""><dc:format>image/svg+xml</dc:format><dc:type
       rdf:resource="http://purl.org/dc/dcmitype/StillImage" /><dc:title></dc:title></cc:Work></rdf:RDF></metadata>
<defs
   id="defs1202"><rect
     x="170.72559"
     y="254.86246"
     width="746.93762"
     height="146.25343"
     id="rect1038" /></defs>



<g
   id="g1115"
   transform="translate(0,9.931397)"><path
     style="fill:#a6f6ff;fill-opacity:1;stroke-width:0.57955"
     inkscape:connector-curvature="0"
     id="path1209"
     d="m 194.45779,205.66473 c 0,-70.16142 56.87739,-127.038804 127.0388,-127.038804 70.16141,0 127.0384,56.877384 127.0384,127.038804 0,11.37307 -1.49466,22.39726 -4.29795,32.88653 -16.70377,2.63869 -234.17222,2.63869 -245.59432,-0.4254 -2.73055,-10.36176 -4.18493,-21.24164 -4.18493,-32.46113 z" /><path
     inkscape:connector-curvature="0"
     style="fill:#ffe294;fill-opacity:1;stroke-width:0.57955"
     id="path1211"
     d="m 353.28603,120.03554 c 36.5122,-14.8174 86.69944,11.39586 97.77116,37.55324 13.50524,31.90651 -18.79248,75.33968 -18.79248,75.33968 H 204.47877 c 0,0 -52.42122,-54.26842 10.37134,-77.52459 31.28593,-11.58692 44.65439,18.02689 79.56993,14.29459 53.52719,-5.72189 24.48422,-35.7101 58.86599,-49.66292 z" /><path
     style="fill:#1e1f1b;stroke-width:0.872554"
     inkscape:connector-curvature="0"
     id="path1213"
     d="m 516.85485,253.00549 c 0,26.78916 -88.13488,48.50579 -196.85461,48.50579 -108.72044,0 -196.85509,-21.71663 -196.85509,-48.50579 0,-26.78811 88.13465,-48.50474 196.85509,-48.50474 108.71973,0 196.85461,21.71663 196.85461,48.50474" /><path
     style="clip-rule:evenodd;fill:#55dd64;fill-opacity:1;fill-rule:evenodd;stroke-width:0.61944;stroke-linecap:round;stroke-linejoin:round"
     inkscape:connector-curvature="0"
     id="path4340"
     d="m 253.98183,122.14808 c -6.98829,-8.80831 13.82383,-1.44981 22.61097,-5.9379 8.78714,-4.48802 -11.08347,-8.6146 -8.22041,-10.91622 7.19857,-5.786193 21.87646,0.8405 23.1255,-2.79943 1.11064,-3.238109 -7.24033,-7.430884 0,-9.139193 7.73527,-1.825119 9.82922,2.220255 17.04019,0 3.63941,-1.120512 21.07528,-5.895231 24.46203,-4.961241 8.07869,2.228167 -24.46203,10.918097 -24.46203,16.899864 0,5.98186 24.46203,1.3814 24.46203,7.02745 0,5.64596 -30.43831,-1.99891 -24.46203,9.82667 2.70509,5.35249 17.47434,-3.1086 23.68697,3.44844 2.43019,2.5646 -16.02548,3.8569 -19.01329,8.37196 -0.86903,1.31404 -12.55587,10.81667 -8.08589,15.90119 2.01559,2.2925 17.76885,-14.75464 22.80489,-9.60371 5.03538,5.15094 -9.5354,11.71168 -6.80552,15.33351 2.53467,3.36321 9.02286,1.43214 16.5172,0 7.49497,-1.43274 10.09558,-11.57536 13.46079,-5.7298 3.3652,5.84496 -18.13709,32.74265 -18.13709,33.38852 0,41.14747 -36.53016,36.53075 -66.11243,36.53075 -0.45511,0 -19.02835,4.92176 -25.23969,2.98831 -6.00242,-1.86879 12.37367,-11.13401 -3.31101,-11.13401 -15.09837,0 -21.67624,0.0576 -21.58459,-5.34015 0.0672,-3.97207 32.1942,6.01616 30.85817,-4.41047 -3.21749,-25.10928 -17.30648,-7.96119 -21.63198,-13.49129 -4.32554,-5.53018 28.01772,-9.32939 29.58347,-17.94838 1.56574,-8.61897 -9.33376,0.49643 -11.36129,-3.96461 -2.02751,-4.461 23.11144,-8.5569 23.98898,-9.60293 8.38557,-9.9963 -23.09919,-0.83958 -17.09775,-7.01574 4.36817,-4.49536 29.56598,3.97207 27.45244,-10.08032 -0.47337,-3.14872 -17.6376,2.01277 -18.63657,0 -2.31924,-4.67313 5.25412,-4.49569 13.14998,-10.02565 5.10655,-3.57658 -13.15002,-0.18908 -19.04204,-7.61562 z"
     sodipodi:nodetypes="cccccccssccccccccsscscszzzcscccc" /><path
     style="clip-rule:evenodd;fill:#00bf15;fill-opacity:1;fill-rule:evenodd;stroke-width:0.61944;stroke-linecap:round;stroke-linejoin:round"
     inkscape:connector-curvature="0"
     id="path4342"
     d="m 303.35052,120.17426 c -0.21077,-3.14192 4.05471,-5.31976 5.91033,-8.35085 1.85562,-3.03103 -4.32961,-3.34033 -4.05472,-6.30952 0.46686,-5.04166 13.78533,-9.626595 24.81007,-14.351019 4.9701,-2.129626 2.16316,-2.995006 2.98389,-2.768775 3.35997,0.926775 -0.30688,2.971398 -5.73602,5.474014 -7.62488,3.514405 -18.72603,7.93211 -18.72603,11.42585 0,5.98186 24.46205,1.3814 24.46205,7.02745 0,5.64596 -30.43831,-1.99891 -24.46205,9.82667 2.7051,5.35249 17.47438,-3.1086 23.68701,3.44844 2.43019,2.5646 -16.02551,3.8569 -19.01332,8.37196 -0.86904,1.31404 -12.55587,10.81667 -8.08589,15.90119 2.01559,2.2925 17.76885,-14.75464 22.80489,-9.60371 5.03541,5.15094 -9.5354,11.71168 -6.80549,15.33351 2.53467,3.36321 9.02283,1.43214 16.5172,0 7.49497,-1.43274 10.09558,-11.57536 13.46079,-5.7298 3.3652,5.84496 -18.13709,32.74265 -18.13709,33.38852 -3.50689,-5.83616 -1.41817,-10.62628 -1.41817,-16.02698 0,-5.62164 -11.76648,0.52245 -17.96015,-8.01055 -2.38647,-3.28741 -8.32618,-2.62276 -10.24512,-3.47018 -10.14461,-4.48098 -1.1015,-15.32351 0.5948,-17.49672 1.69695,-2.1726 10.9392,-7.42166 9.41853,-9.7518 -1.7662,-2.7074 -9.42897,0.27914 -10.00551,-8.3277 z"
     sodipodi:nodetypes="csccccsscccccccccsccccc" /><g
     id="g10"
     vectornator:layerName="g10"
     transform="matrix(0.57954943,0,0,0.57954943,159.20594,64.489963)">
<path
   d="m 164.543,249.069 -32.688,28.194 c -5.288,4.562 -25.087,-19.763 -21.149,-35.53 3.939,-15.766 44.746,-12.959 44.746,-12.959 5.358,3.714 11.73,18.02 9.091,20.295"
   opacity="1"
   fill="#ff9197"
   id="path1220" />
<path
   d="m 145.806,249.766 c 0.606,6.626 -5.247,19.638 -10.788,24.77 l 29.525,-25.467 c 0,0 -19.706,-9.265 -18.527,0.697"
   opacity="1"
   fill="#fb7c83"
   id="path1222" />
<path
   d="m 148.495,277.99 c 16.284,42.311 69.052,20.427 80.07,19.221 8.912,-0.974 19.6,6.114 39.48,6.76 19.879,0.643 30.724,-5.082 47.807,-2.631 17.083,2.45 43.615,26.067 97.508,10.005 71.217,-21.49 -17.007,-191.477 -130.613,-191.477 -113.607,0 -150.536,115.815 -134.252,158.122 v 0"
   opacity="1"
   fill="#ffc7c7"
   id="path1224" />
<path
   d="m 175.265,280.441 c 1.135,-0.769 36.514,-29.61 68.372,-30.198 21.611,-0.403 39.734,-2.7 65.968,8.152 26.234,10.852 55.783,32.11 56.551,32.582 0.769,0.468 1.28,3.143 0.724,4.336 -0.556,1.192 -2.352,0.834 -2.999,0.408 -0.645,-0.426 -32.833,-19.519 -55.104,-28.731 -22.27,-9.21 -41.386,-8.129 -65.968,-8.151 -31.864,-0.037 -64.07,26.425 -65.098,26.609 -1.03,0.216 -3.484,0.921 -4.118,-0.564 -0.528,-1.232 0.536,-3.676 1.672,-4.443 v 0"
   opacity="1"
   fill="#a7505d"
   id="path1226" />
<path
   d="m 227.643,214.797 c 0.192,15.338 -11.887,27.93 -26.976,28.127 v 0 c -15.091,0.195 -27.48,-12.08 -27.671,-27.417 -0.192,-15.338 11.885,-27.93 26.976,-28.126 v 0 c 15.091,-0.196 27.479,12.079 27.671,27.416"
   opacity="1"
   fill="#ffffff"
   id="path1228" />
<path
   d="m 201.56,237.092 c -11.78,0.721 -21.907,-8.395 -22.624,-20.369 -0.717,-11.972 8.245,-22.272 20.025,-23.012 11.78,-0.738 21.92,8.361 22.659,20.367 0.7,12.01 -8.279,22.294 -20.06,23.014"
   opacity="1"
   fill="#040606"
   id="path1230" />
<path
   d="m 203.903,201.356 c 2.056,-2.819 9.528,-0.317 12.146,4.368 2.618,4.683 2.594,11.876 -1.744,13.328 -4.338,1.45 -4.021,-4.2 -6.294,-8.184 -2.275,-3.984 -6.164,-6.695 -4.108,-9.511 v -0.001"
   opacity="1"
   fill="#ffffff"
   id="path1232" />
<path
   d="m 213.839,220.507 c 1.53,0.089 2.646,1.668 2.494,3.524 -0.153,1.854 -1.518,3.284 -3.049,3.194 -1.531,-0.089 -2.647,-1.668 -2.493,-3.523 0.153,-1.855 1.517,-3.285 3.048,-3.195"
   opacity="1"
   fill="#ffffff"
   id="path1234" />
<path
   d="m 346.808,214.529 c 0.192,15.337 -11.887,27.93 -26.976,28.124 v 0 c -15.091,0.198 -27.479,-12.077 -27.671,-27.414 -0.192,-15.338 11.886,-27.93 26.978,-28.127 v 0 c 15.089,-0.195 27.478,12.08 27.669,27.417 v 0"
   opacity="1"
   fill="#ffffff"
   id="path1236" />
<path
   d="m 320.727,236.824 c -11.782,0.72 -21.908,-8.397 -22.624,-20.369 -0.718,-11.974 8.245,-22.274 20.025,-23.014 11.779,-0.738 21.92,8.363 22.659,20.37 0.7,12.008 -8.28,22.293 -20.06,23.013"
   opacity="1"
   fill="#040606"
   id="path1238" />
<path
   d="m 323.068,201.088 c 2.056,-2.819 9.528,-0.317 12.147,4.367 2.617,4.682 2.593,11.877 -1.743,13.329 -4.339,1.451 -4.021,-4.201 -6.295,-8.185 -2.274,-3.983 -6.165,-6.694 -4.109,-9.511 v 0"
   opacity="1"
   fill="#ffffff"
   id="path1240" />
<path
   d="m 333.005,220.237 c 1.53,0.091 2.647,1.668 2.494,3.523 -0.154,1.856 -1.519,3.287 -3.048,3.197 -1.531,-0.091 -2.647,-1.668 -2.495,-3.524 0.153,-1.855 1.517,-3.286 3.049,-3.196"
   opacity="1"
   fill="#ffffff"
   id="path1242" />
<path
   d="m 289.432,212.652 c 1.241,19.55 -14.425,36.475 -35.003,37.812 -20.578,1.337 -38.284,-13.419 -39.558,-32.967 -1.275,-19.548 14.364,-36.496 34.938,-37.864 20.578,-1.369 38.307,13.359 39.615,32.904"
   opacity="1"
   fill="#ffc7c7"
   id="path1244" />
<path
   d="m 286.321,225.196 c -4.377,13.035 -16.789,22.876 -31.989,23.86 -19.76,1.283 -36.76,-12.89 -37.98,-31.66 -0.557,-8.563 2.267,-16.605 7.377,-22.945 0,0 3.219,-3.635 1.272,-5.179 -1.945,-1.545 -4.718,2.787 -4.718,2.787 -5.688,7.088 -8.828,16.069 -8.204,25.628 1.374,21.007 20.402,36.861 42.517,35.425 17.036,-1.104 30.941,-12.148 35.824,-26.768 0,0 1.147,-2.995 -0.864,-3.713 -2.009,-0.719 -3.235,2.565 -3.235,2.565 v 0"
   opacity="1"
   fill="#a7505d"
   id="path1246" />
<path
   d="m 330.21,129.64 c 0,3.417 63.826,23.922 84.538,98.941 21.131,76.54 -26.729,87.811 -26.621,87.806 0.419,-0.017 0.578,-0.044 1.089,-0.098 7.379,-0.777 15.401,-2.338 24.144,-4.944 60.801,-18.347 5.389,-144.93 -82.814,-181.565 -0.1,-0.041 -0.209,-0.061 -0.295,-0.122 -0.055,-0.039 -0.02,-0.003 -0.02,-0.003"
   opacity="1"
   fill="#f6aeae"
   id="path1248" />
<path
   d="m 394.741,248.208 39.294,41.381 c 6.358,6.695 32.35,-20.049 28.588,-41.714 -3.763,-21.666 -55.803,-22.08 -55.803,-22.08 -7.095,4.457 -15.252,19.073 -12.079,22.413 v 0"
   opacity="1"
   fill="#ff9197"
   id="path1250" />
<path
   d="m 452.283,235.266 v 0 c 16.058,15.736 1.285,34.289 -8.163,42.558 -8.514,7.449 -41.757,-21.644 -48.267,-28.444 l 38.182,40.209 c 6.358,6.695 32.35,-20.049 28.588,-41.714 -0.943,-5.427 -4.916,-9.52 -10.34,-12.609"
   opacity="1"
   fill="#fb7c83"
   id="path1252" />
<g
   opacity="1"
   id="g1258">
<path
   d="m 112.58,70.0817 c 9.908,0 17.941,8.032 17.941,17.9414 0,9.908 -8.033,17.9409 -17.941,17.9409 -9.908,0 -17.9411,-8.0329 -17.9411,-17.9409 0,-9.9094 8.0331,-17.9414 17.9411,-17.9414"
   opacity="1"
   fill="#66d9ef"
   id="path1254" />
<path
   d="m 116.72,75.1937 c 1.575,-0.0253 2.951,0.4747 4.214,1.2294 1.251,0.7626 2.333,1.836 3.143,3.0986 0.818,1.2534 1.368,2.7094 1.494,4.1974 0.175,1.476 -0.087,2.9786 -0.762,4.304 -0.187,0.3666 -0.636,0.5133 -1.003,0.3266 -0.121,-0.0626 -0.219,-0.1533 -0.288,-0.26 l -0.043,-0.0666 c -0.77,-1.2067 -1.226,-2.2574 -1.796,-3.216 -0.51,-0.972 -1.051,-1.8454 -1.597,-2.7267 -0.549,-0.8787 -1.133,-1.7573 -1.792,-2.668 -0.641,-0.9227 -1.378,-1.8773 -2.094,-2.9933 l -0.073,-0.1134 c -0.216,-0.3346 -0.118,-0.7826 0.217,-0.9973 0.117,-0.076 0.25,-0.112 0.38,-0.1147"
   opacity="1"
   fill="#ffffff"
   id="path1256" />
</g>
<g
   opacity="1"
   id="g1264">
<path
   d="m 133.965,116.426 c 6.005,0 10.872,4.868 10.872,10.873 0,6.005 -4.867,10.873 -10.872,10.873 -6.006,0 -10.874,-4.868 -10.874,-10.873 0,-6.005 4.868,-10.873 10.874,-10.873"
   opacity="1"
   fill="#66d9ef"
   id="path1260" />
<path
   d="m 136.474,119.523 c 0.954,-0.015 1.788,0.288 2.553,0.745 0.758,0.462 1.414,1.112 1.906,1.878 0.495,0.76 0.828,1.642 0.904,2.544 0.107,0.896 -0.052,1.805 -0.461,2.609 -0.113,0.223 -0.385,0.311 -0.607,0.197 -0.075,-0.037 -0.134,-0.093 -0.175,-0.157 l -0.026,-0.04 c -0.467,-0.732 -0.744,-1.369 -1.089,-1.949 -0.309,-0.59 -0.637,-1.119 -0.968,-1.654 -0.332,-0.532 -0.687,-1.064 -1.086,-1.616 -0.388,-0.56 -0.835,-1.138 -1.269,-1.814 l -0.045,-0.07 c -0.13,-0.202 -0.071,-0.473 0.133,-0.604 0.07,-0.045 0.151,-0.068 0.23,-0.069"
   opacity="1"
   fill="#ffffff"
   id="path1262" />
</g>
<g
   opacity="1"
   id="g1270">
<path
   d="m 106.149,141.644 c 6.982,0 12.64,5.659 12.64,12.639 0,6.981 -5.658,12.641 -12.64,12.641 -6.9809,0 -12.6402,-5.66 -12.6402,-12.641 0,-6.98 5.6593,-12.639 12.6402,-12.639"
   opacity="1"
   fill="#66d9ef"
   id="path1266" />
<path
   d="m 109.066,145.244 c 1.109,-0.016 2.079,0.335 2.969,0.867 0.881,0.539 1.644,1.293 2.215,2.184 0.576,0.883 0.964,1.909 1.052,2.956 0.124,1.04 -0.061,2.099 -0.537,3.032 -0.131,0.26 -0.448,0.363 -0.706,0.231 -0.086,-0.044 -0.155,-0.108 -0.203,-0.184 l -0.03,-0.047 c -0.543,-0.849 -0.865,-1.589 -1.266,-2.265 -0.359,-0.686 -0.74,-1.3 -1.125,-1.922 -0.387,-0.618 -0.798,-1.237 -1.263,-1.878 -0.451,-0.651 -0.97,-1.323 -1.475,-2.11 l -0.052,-0.08 c -0.151,-0.236 -0.083,-0.55 0.153,-0.702 0.083,-0.054 0.177,-0.079 0.268,-0.082"
   opacity="1"
   fill="#ffffff"
   id="path1268" />
</g>
<g
   opacity="1"
   id="g1276">
<path
   d="m 132.52,173.844 c 3.663,0 6.633,2.97 6.633,6.634 0,3.662 -2.97,6.632 -6.633,6.632 -3.664,0 -6.633,-2.97 -6.633,-6.632 0,-3.664 2.969,-6.634 6.633,-6.634"
   opacity="1"
   fill="#66d9ef"
   id="path1272" />
<path
   d="m 134.05,175.734 c 0.583,-0.008 1.092,0.176 1.558,0.454 0.463,0.283 0.862,0.679 1.163,1.146 0.301,0.464 0.505,1.002 0.551,1.552 0.066,0.545 -0.031,1.101 -0.281,1.592 -0.069,0.134 -0.235,0.189 -0.371,0.12 -0.045,-0.023 -0.081,-0.058 -0.107,-0.096 l -0.015,-0.024 c -0.285,-0.447 -0.454,-0.835 -0.665,-1.19 -0.188,-0.36 -0.388,-0.682 -0.59,-1.008 -0.203,-0.325 -0.418,-0.649 -0.662,-0.986 -0.237,-0.342 -0.51,-0.694 -0.775,-1.107 l -0.026,-0.041 c -0.081,-0.124 -0.044,-0.29 0.08,-0.37 0.044,-0.028 0.093,-0.041 0.14,-0.042"
   opacity="1"
   fill="#ffffff"
   id="path1274" />
</g>
</g><text
     xml:space="preserve"
     id="text1036"
     style="font-size:40px;line-height:1.25;font-family:sans-serif;text-align:center;white-space:pre;shape-inside:url(#rect1038);clip-rule:evenodd;fill-rule:evenodd;stroke-linecap:round;stroke-linejoin:round;"
     transform="matrix(0.71627786,0,0,0.71627786,-70.712561,68.934137)"><tspan
       x="431.65625"
       y="292.16297"><tspan
         style="font-style:normal;font-variant:normal;font-weight:normal;font-stretch:normal;font-family:Ubuntu;-inkscape-font-specification:Ubuntu;fill:#ffffff;fill-opacity:1">benthos.dev</tspan></tspan></text></g></svg>
