<?xml version="1.0" encoding="UTF-8" standalone="no"?>
<!-- Created with Inkscape (http://www.inkscape.org/) -->

<svg
   xmlns:dc="http://purl.org/dc/elements/1.1/"
   xmlns:cc="http://creativecommons.org/ns#"
   xmlns:rdf="http://www.w3.org/1999/02/22-rdf-syntax-ns#"
   xmlns:svg="http://www.w3.org/2000/svg"
   xmlns="http://www.w3.org/2000/svg"
   xmlns:sodipodi="http://sodipodi.sourceforge.net/DTD/sodipodi-0.dtd"
   xmlns:inkscape="http://www.inkscape.org/namespaces/inkscape"
   version="1.1"
   id="svg2"
   xml:space="preserve"
   width="556.02667"
   height="364.17334"
   viewBox="0 0 556.02667 364.17334"
   sodipodi:docname="teacher_blob.svg"
   inkscape:version="0.92.4 (5da689c313, 2019-01-14)"><metadata
     id="metadata8"><rdf:RDF><cc:Work
         rdf:about=""><dc:format>image/svg+xml</dc:format><dc:type
           rdf:resource="http://purl.org/dc/dcmitype/StillImage" /><dc:title></dc:title></cc:Work></rdf:RDF></metadata><defs
     id="defs6"><clipPath
   clipPathUnits="userSpaceOnUse"
   id="clipPath20"><path
     d="m 4010.22,848.531 h -848.09 c -177.85,383.869 -599.27,792.609 -1081.72,792.609 -597.95,0 -912.67,-427.79 -1005,-792.609 H 159.996 V 2571.3 H 4010.22 V 848.531"
     id="path18"
     inkscape:connector-curvature="0" /></clipPath><linearGradient
   x1="0"
   y1="0"
   x2="1"
   y2="0"
   gradientUnits="userSpaceOnUse"
   gradientTransform="matrix(-2946.5,-2946.5,-2946.5,2946.5,3558.36,3183.16)"
   spreadMethod="pad"
   id="linearGradient26"><stop
     style="stop-opacity:1;stop-color:#1a2f50"
     offset="0"
     id="stop22" /><stop
     style="stop-opacity:1;stop-color:#3f79be"
     offset="1"
     id="stop24" /></linearGradient><clipPath
   clipPathUnits="userSpaceOnUse"
   id="clipPath74"><path
     d="m 1461.89,692.82 c -238.49,0 -250.16,186.559 -250.73,423.7 -0.05,20.38 15.53,36.97 34.76,36.97 h 431.94 c 6.64,0 12.84,-1.97 18.11,-5.4 -15.97,-10.2 -30.77,-21.92 -44.17,-34.89 -0.5,2.81 -1.88,5.36 -4.47,7.42 -2.21,1.75 -4.56,2.5 -6.96,2.5 -13.46,0 -28.43,-23.41 -28.43,-23.41 -4.64,-5.77 -9.05,-11.72 -13.22,-17.81 -36.28,32.94 -84.12,52.92 -136.45,52.92 -0.88,0 -1.78,-0.01 -2.66,-0.02 h -0.01 c -113.18,-1.47 -203.76,-95.92 -202.32,-210.941 1.43,-114.14 92.89,-205.66 204.87,-205.648 0.88,0 1.77,0.008 2.66,0.019 51.09,0.668 97.58,20.282 133.07,52.168 7.27,-10.628 15.26,-20.757 23.91,-30.328 -36.59,-30.25 -87.92,-47.25 -159.9,-47.25"
     id="path72"
     inkscape:connector-curvature="0" /></clipPath>










































</defs><sodipodi:namedview
     pagecolor="#ffffff"
     bordercolor="#666666"
     borderopacity="1"
     objecttolerance="10"
     gridtolerance="10"
     guidetolerance="10"
     inkscape:pageopacity="0"
     inkscape:pageshadow="2"
     inkscape:window-width="3840"
     inkscape:window-height="2047"
     id="namedview4"
     showgrid="false"
     inkscape:zoom="2.5921721"
     inkscape:cx="267.66437"
     inkscape:cy="147.45249"
     inkscape:window-x="2560"
     inkscape:window-y="0"
     inkscape:window-maximized="1"
     inkscape:current-layer="g10" /><g
     id="g10"
     inkscape:groupmode="layer"
     inkscape:label="ink_ext_XXXXXX"
     transform="matrix(1.3333333,0,0,-1.3333333,0,364.17333)"><g
       id="g14"
       transform="scale(0.1)"
       style="fill:#272822;fill-opacity:1"><g
         clip-path="url(#clipPath20)"
         id="g16"
         style="fill:#272822;fill-opacity:1"><path
           inkscape:connector-curvature="0"
           id="path28"
           style="fill:#272822;fill-opacity:1;fill-rule:nonzero;stroke:none"
           d="m 4010.22,848.531 h -848.09 c -177.85,383.869 -599.27,792.609 -1081.72,792.609 -597.95,0 -912.67,-427.79 -1005,-792.609 H 159.996 V 2571.3 H 4010.22 V 848.531" /></g></g><path
       inkscape:connector-curvature="0"
       id="path34"
       style="fill:#272822;fill-opacity:1;fill-rule:nonzero;stroke:none;stroke-width:0.1"
       d="M 409.638,28.1941 C 409.638,12.623 318.496,0 206.067,0 93.6371,0 2.49492,12.623 2.49492,28.1941 c 0,15.5707 91.14218,28.193 203.57208,28.193 112.429,0 203.571,-12.6223 203.571,-28.193" /><path
       inkscape:connector-curvature="0"
       id="path36"
       style="fill:#f5748f;fill-opacity:1;fill-rule:evenodd;stroke:none;stroke-width:0.1"
       d="M 115.304,66.0969 86.5414,51.2359 c -4.6539,-2.4039 -14.8508,18.793 -9.2266,29.6071 5.6239,10.814 34.8992,1.6449 34.8992,1.6449 3.26,-3.6438 5.412,-15.1899 3.09,-16.391" /><path
       inkscape:connector-curvature="0"
       id="path38"
       style="fill:#f36082;fill-opacity:1;fill-rule:evenodd;stroke:none;stroke-width:0.1"
       d="m 112.246,67.2988 c 0,0 -15.0694,-8.3476 -21.7671,-11.4679 -6.6969,-3.12 -11.2355,2.5339 -11.2367,2.5363 2.341,-4.9012 5.3203,-8.1531 7.2992,-7.1313 l 26.1976,13.536 -0.493,2.5269" /><path
       inkscape:connector-curvature="0"
       id="path40"
       style="fill:#f9b1bc;fill-opacity:1;fill-rule:evenodd;stroke:none;stroke-width:0.1"
       d="m 107.353,45.5219 c 12.213,-31.7321 51.789,-15.3188 60.053,-14.4149 6.684,0.7309 14.7,-4.5859 29.609,-5.0691 6.529,-0.2117 11.759,0.493 16.651,1.1973 6.28,0.9039 12.003,1.8089 19.205,0.775 12.811,-1.8372 32.71,-19.54926 73.13,-7.5032 53.413,16.118 -12.755,143.607 -97.96,143.607 -85.204,0 -112.9012,-86.8601 -100.688,-118.5921" /><path
       inkscape:connector-curvature="0"
       id="path42"
       style="fill:#a7505d;fill-opacity:1;fill-rule:nonzero;stroke:none;stroke-width:0.1"
       d="m 127.43,43.684 c 0.852,0.5769 27.385,22.2082 51.279,22.65 16.208,0.3012 29.8,2.0242 49.476,-6.1149 19.676,-8.1382 41.837,-24.0832 42.414,-24.4359 0.577,-0.3523 0.96,-2.357 0.543,-3.2531 -0.417,-0.8942 -1.764,-0.625 -2.25,-0.3063 -0.484,0.3223 -24.624,14.6403 -41.328,21.5481 -16.703,6.909 -31.04,6.098 -49.475,6.114 -23.898,0.0282 -48.054,-19.8179 -48.825,-19.9558 -0.771,-0.1629 -2.612,-0.691 -3.087,0.4219 -0.396,0.925 0.401,2.757 1.253,3.332" /><path
       inkscape:connector-curvature="0"
       id="path44"
       style="fill:#ffffff;fill-opacity:1;fill-rule:nonzero;stroke:none;stroke-width:0.1"
       d="m 166.713,92.918 c 0.144,-11.5032 -8.914,-20.9481 -20.232,-21.095 -11.318,-0.1468 -20.609,9.0602 -20.753,20.5629 -0.144,11.5021 8.914,20.9471 20.232,21.0941 h 0.001 c 11.317,0.147 20.609,-9.059 20.752,-20.562" /><path
       inkscape:connector-curvature="0"
       id="path46"
       style="fill:#040606;fill-opacity:1;fill-rule:nonzero;stroke:none;stroke-width:0.1"
       d="m 147.152,76.1961 c -8.836,-0.5402 -16.43,6.298 -16.969,15.2769 -0.538,8.98 6.185,16.704 15.019,17.259 8.835,0.555 16.441,-6.27 16.995,-15.275 0.525,-9.007 -6.209,-16.7211 -15.045,-17.2609" /><path
       inkscape:connector-curvature="0"
       id="path48"
       style="fill:#ffffff;fill-opacity:1;fill-rule:nonzero;stroke:none;stroke-width:0.1"
       d="m 148.908,102.999 c 1.542,2.113 7.146,0.237 9.11,-3.276 1.963,-3.5121 1.946,-8.9082 -1.308,-9.9968 -3.253,-1.0883 -3.015,3.1508 -4.72,6.1386 -1.706,2.9872 -4.624,5.0202 -3.082,7.1332 v 10e-4" /><path
       inkscape:connector-curvature="0"
       id="path50"
       style="fill:#ffffff;fill-opacity:1;fill-rule:nonzero;stroke:none;stroke-width:0.1"
       d="m 156.361,88.6352 c 1.148,-0.0672 1.985,-1.2512 1.87,-2.6411 -0.115,-1.3921 -1.138,-2.4652 -2.286,-2.398 -1.148,0.0687 -1.985,1.2508 -1.87,2.643 0.114,1.3918 1.138,2.4648 2.286,2.3961" /><path
       inkscape:connector-curvature="0"
       id="path52"
       style="fill:#040606;fill-opacity:1;fill-rule:nonzero;stroke:none;stroke-width:0.1"
       d="m 154.85,127.115 c -1.307,-0.723 -2.412,-1.066 -3.467,-1.454 -1.053,-0.416 -2.017,-0.63 -2.941,-0.923 -1.848,-0.462 -3.508,-0.831 -5.219,-1.021 -1.711,-0.207 -3.428,-0.448 -5.344,-0.611 -1.937,-0.154 -3.975,-0.35 -6.583,-0.413 l -0.096,-0.002 c -0.331,-0.008 -0.605,0.254 -0.614,0.584 l 0.012,0.135 c 0.569,2.777 2.199,4.837 4.118,6.478 1.946,1.617 4.306,2.744 6.796,3.242 2.48,0.501 5.104,0.497 7.5,-0.373 2.398,-0.789 4.595,-2.268 6.128,-4.685 0.195,-0.307 0.104,-0.713 -0.203,-0.907 l -0.032,-0.02 -0.055,-0.03" /><path
       inkscape:connector-curvature="0"
       id="path54"
       style="fill:#f5748f;fill-opacity:1;fill-rule:evenodd;stroke:none;stroke-width:0.1"
       d="m 292.037,67.859 29.471,-31.0352 c 4.768,-5.0218 24.262,15.0364 21.44,31.2852 -2.822,16.2492 -41.852,16.5609 -41.852,16.5609 -5.321,-3.3418 -11.438,-14.3051 -9.059,-16.8109" /><path
       inkscape:connector-curvature="0"
       id="path56"
       style="fill:#f36082;fill-opacity:1;fill-rule:evenodd;stroke:none;stroke-width:0.1"
       d="m 335.193,77.5648 v 0 c 12.045,-11.8019 1.022,-29.3886 -6.065,-35.5886 -6.386,-5.5883 -31.374,19.9047 -36.257,25.0047 l 28.637,-30.1571 c 4.768,-5.0218 24.262,15.0364 21.44,31.2852 -0.707,4.0699 -3.686,7.141 -7.755,9.4558" /><path
       inkscape:connector-curvature="0"
       id="path58"
       style="fill:#ffffff;fill-opacity:1;fill-rule:nonzero;stroke:none;stroke-width:0.1"
       d="m 256.088,93.1191 c 0.143,-11.5031 -8.915,-20.9472 -20.233,-21.0941 -11.318,-0.1469 -20.609,9.059 -20.753,20.5621 -0.143,11.5029 8.914,20.9469 20.233,21.0939 11.318,0.147 20.609,-9.059 20.753,-20.5619" /><path
       inkscape:connector-curvature="0"
       id="path60"
       style="fill:#040606;fill-opacity:1;fill-rule:nonzero;stroke:none;stroke-width:0.1"
       d="m 236.526,76.3969 c -8.836,-0.5387 -16.43,6.298 -16.969,15.2781 -0.538,8.979 6.185,16.705 15.02,17.259 8.835,0.554 16.44,-6.271 16.994,-15.2758 0.525,-9.0062 -6.209,-16.7211 -15.045,-17.2613" /><path
       inkscape:connector-curvature="0"
       id="path62"
       style="fill:#ffffff;fill-opacity:1;fill-rule:nonzero;stroke:none;stroke-width:0.1"
       d="m 238.283,103.2 c 1.541,2.113 7.146,0.237 9.109,-3.275 1.963,-3.5121 1.947,-8.9078 -1.307,-9.9969 -3.254,-1.0871 -3.016,3.1508 -4.721,6.1379 -1.706,2.9879 -4.624,5.022 -3.082,7.134 h 10e-4" /><path
       inkscape:connector-curvature="0"
       id="path64"
       style="fill:#ffffff;fill-opacity:1;fill-rule:nonzero;stroke:none;stroke-width:0.1"
       d="m 245.735,88.8379 c 1.148,-0.0688 1.985,-1.2508 1.87,-2.643 -0.114,-1.3918 -1.137,-2.4648 -2.286,-2.3961 -1.147,0.0672 -1.985,1.25 -1.87,2.641 0.114,1.3922 1.138,2.4653 2.286,2.3981" /><path
       inkscape:connector-curvature="0"
       id="path66"
       style="fill:#040606;fill-opacity:1;fill-rule:nonzero;stroke:none;stroke-width:0.1"
       d="m 231.547,128.683 c 1.733,2.28 4.047,3.567 6.503,4.148 2.462,0.664 5.077,0.445 7.504,-0.265 2.44,-0.708 4.695,-2.031 6.497,-3.807 1.773,-1.798 3.221,-3.989 3.552,-6.804 0.039,-0.329 -0.196,-0.627 -0.524,-0.665 l -0.132,-0.001 -0.099,0.011 c -2.593,0.283 -4.608,0.652 -6.524,0.97 -1.895,0.325 -3.586,0.71 -5.273,1.062 -1.689,0.335 -3.311,0.844 -5.114,1.462 -0.895,0.37 -1.838,0.664 -2.852,1.168 -1.018,0.475 -2.089,0.913 -3.33,1.744 l -0.051,0.033 c -0.302,0.202 -0.383,0.61 -0.181,0.912 l 0.024,0.032" /><g
       id="g68"
       transform="scale(0.1)"><g
         clip-path="url(#clipPath74)"
         id="g70"><path
           inkscape:connector-curvature="0"
           id="path76"
           style="fill:#fcd6db;fill-opacity:1;fill-rule:nonzero;stroke:none"
           d="m 1211.11,692.82 h 484.859 v 460.668 H 1211.11 Z" /></g></g><path
       inkscape:connector-curvature="0"
       id="path78"
       style="fill:#ffffff;fill-opacity:1;fill-rule:nonzero;stroke:none;stroke-width:0.1"
       d="m 146.215,71.8211 c -11.198,-0.0012 -20.344,9.1508 -20.487,20.5648 -0.144,11.5021 8.914,20.9471 20.232,21.0941 h 0.001 c 0.088,10e-4 0.178,0.002 0.266,0.002 5.233,0 10.017,-1.998 13.645,-5.292 -0.906,-1.324 -1.699,-2.72 -2.369,-4.176 -2.914,2.949 -6.923,4.75 -11.297,4.75 -0.332,0 -0.667,-0.011 -1.004,-0.032 -8.834,-0.555 -15.557,-8.279 -15.019,-17.259 0.519,-8.646 7.579,-15.307 15.991,-15.307 0.324,0 0.65,0.0102 0.978,0.0301 4.084,0.25 7.72,2.0328 10.397,4.768 0.64,-1.3711 1.39,-2.6821 2.239,-3.9243 -3.549,-3.1886 -8.198,-5.15 -13.307,-5.2168 -0.089,-0.0011 -0.178,-0.0019 -0.266,-0.0019" /><path
       inkscape:connector-curvature="0"
       id="path80"
       style="fill:#6f7375;fill-opacity:1;fill-rule:nonzero;stroke:none;stroke-width:0.1"
       d="m 146.174,76.166 c -8.412,0 -15.472,6.661 -15.991,15.307 -0.538,8.98 6.185,16.704 15.019,17.259 0.337,0.021 0.672,0.032 1.004,0.032 4.374,0 8.383,-1.801 11.297,-4.75 -0.367,-0.798 -0.697,-1.613 -0.987,-2.444 -1.594,1.438 -3.757,2.318 -5.433,2.318 -0.941,0 -1.728,-0.277 -2.175,-0.889 v -10e-4 c -1.542,-2.113 1.376,-4.146 3.082,-7.1332 1.364,-2.391 1.484,-5.5808 3.143,-6.2046 0.046,-0.434 0.102,-0.868 0.168,-1.2954 -0.661,-0.3976 -1.149,-1.1898 -1.226,-2.1257 -0.115,-1.3922 0.722,-2.5743 1.87,-2.643 0.034,-0.002 0.069,-0.0031 0.103,-0.0031 0.142,0 0.282,0.0179 0.417,0.0511 0.315,-0.916 0.678,-1.8101 1.084,-2.68 -2.677,-2.7352 -6.313,-4.518 -10.397,-4.768 -0.328,-0.0199 -0.654,-0.0301 -0.978,-0.0301" /><path
       inkscape:connector-curvature="0"
       id="path82"
       style="fill:#ffffff;fill-opacity:1;fill-rule:nonzero;stroke:none;stroke-width:0.1"
       d="m 155.133,89.6602 c -1.659,0.6238 -1.779,3.8136 -3.143,6.2046 -1.706,2.9872 -4.624,5.0202 -3.082,7.1332 v 10e-4 c 0.447,0.612 1.234,0.889 2.175,0.889 1.676,0 3.839,-0.88 5.433,-2.318 -1.186,-3.3899 -1.722,-7.0438 -1.476,-10.818 0.024,-0.3668 0.055,-0.7301 0.093,-1.0918" /><path
       inkscape:connector-curvature="0"
       id="path84"
       style="fill:#ffffff;fill-opacity:1;fill-rule:nonzero;stroke:none;stroke-width:0.1"
       d="m 156.048,83.593 c -0.034,0 -0.069,0.0011 -0.103,0.0031 -1.148,0.0687 -1.985,1.2508 -1.87,2.643 0.077,0.9359 0.565,1.7281 1.226,2.1257 0.25,-1.6257 0.643,-3.2027 1.164,-4.7207 -0.135,-0.0332 -0.275,-0.0511 -0.417,-0.0511" /><path
       inkscape:connector-curvature="0"
       id="path86"
       style="fill:#f9b1bc;fill-opacity:1;fill-rule:nonzero;stroke:none;stroke-width:0.1"
       d="m 213.055,94.527 c 0.932,-14.6629 -10.818,-27.3559 -26.252,-28.359 -15.434,-1.0032 -28.713,10.0629 -29.669,24.7242 -0.956,14.6618 10.773,27.3718 26.205,28.3988 15.432,1.026 28.73,-10.02 29.711,-24.6789 l 0.005,-0.0851" /><path
       inkscape:connector-curvature="0"
       id="path88"
       style="fill:#a7505d;fill-opacity:1;fill-rule:nonzero;stroke:none;stroke-width:0.1"
       d="m 210.722,85.1191 c -3.283,-9.775 -12.591,-17.157 -23.992,-17.8961 -14.82,-0.9609 -27.57,9.6668 -28.485,23.745 -0.417,6.4218 1.701,12.455 5.534,17.209 0,0 2.414,2.727 0.954,3.885 -1.46,1.158 -3.539,-2.091 -3.539,-2.091 -4.267,-5.316 -6.621,-12.0499 -6.154,-19.219 1.032,-15.7559 15.302,-27.6481 31.888,-26.5711 12.777,0.8281 23.207,9.1132 26.869,20.0773 0,0 0.859,2.2469 -0.648,2.7859 -1.508,0.5391 -2.427,-1.925 -2.427,-1.925" /><path
       inkscape:connector-curvature="0"
       id="path90"
       style="fill:#fcd6db;fill-opacity:1;fill-rule:nonzero;stroke:none;stroke-width:0.1"
       d="m 235.563,69.282 c -12.78,0 -19.047,5.3578 -22.12,13.9809 0.124,0.3293 0.242,0.6609 0.354,0.9953 0,0 0.859,2.2469 -0.648,2.7859 -0.148,0.0528 -0.291,0.077 -0.428,0.077 -0.099,0 -0.195,-0.0129 -0.288,-0.0359 0.562,2.3859 0.785,4.8839 0.622,7.4418 l -0.005,0.0851 c -0.224,3.3418 -1.087,6.4959 -2.471,9.3619 -0.063,2.484 -0.083,5.051 -0.089,7.678 -0.005,2.038 1.554,3.697 3.477,3.697 h 43.194 c 1.923,0 3.481,-1.659 3.477,-3.697 -0.058,-23.7141 -1.225,-42.37 -25.075,-42.37 m 0.038,44.401 c -0.088,0 -0.178,0 -0.266,-0.002 -11.319,-0.147 -20.376,-9.591 -20.233,-21.0939 0.143,-11.4133 9.288,-20.5641 20.485,-20.5641 0.089,0 0.179,8e-4 0.268,0.002 11.318,0.1469 20.376,9.591 20.233,21.0941 -0.143,11.4129 -9.289,20.5639 -20.487,20.5639" /><path
       inkscape:connector-curvature="0"
       id="path92"
       style="fill:#ffffff;fill-opacity:1;fill-rule:nonzero;stroke:none;stroke-width:0.1"
       d="m 235.587,72.023 c -11.197,0 -20.342,9.1508 -20.485,20.5641 -0.143,11.5029 8.914,20.9469 20.233,21.0939 0.088,0.002 0.178,0.002 0.266,0.002 11.198,0 20.344,-9.151 20.487,-20.5639 0.143,-11.5031 -8.915,-20.9472 -20.233,-21.0941 -0.089,-0.0012 -0.179,-0.002 -0.268,-0.002 m -0.008,36.943 c -0.331,0 -0.667,-0.011 -1.002,-0.032 -8.835,-0.554 -15.558,-8.28 -15.02,-17.259 0.519,-8.648 7.58,-15.3078 15.993,-15.3078 0.323,0 0.649,0.0098 0.976,0.0297 8.836,0.5402 15.57,8.2551 15.045,17.2613 -0.533,8.6628 -7.59,15.3078 -15.992,15.3078" /><path
       inkscape:connector-curvature="0"
       id="path94"
       style="fill:#6f7375;fill-opacity:1;fill-rule:nonzero;stroke:none;stroke-width:0.1"
       d="m 235.55,76.3672 c -8.413,0 -15.474,6.6598 -15.993,15.3078 -0.538,8.979 6.185,16.705 15.02,17.259 0.335,0.021 0.671,0.032 1.002,0.032 8.402,0 15.459,-6.645 15.992,-15.3078 0.525,-9.0062 -6.209,-16.7211 -15.045,-17.2613 -0.327,-0.0199 -0.653,-0.0297 -0.976,-0.0297 m 10.083,12.4738 c -1.107,0 -2.073,-1.0512 -2.184,-2.4012 -0.115,-1.391 0.723,-2.5738 1.87,-2.641 0.035,-0.0027 0.069,-0.0039 0.104,-0.0039 1.106,0 2.071,1.0512 2.182,2.4 0.115,1.3922 -0.722,2.5742 -1.87,2.643 -0.034,0.0019 -0.068,0.0031 -0.102,0.0031 m -7.351,14.359 c -1.542,-2.112 1.376,-4.1461 3.082,-7.134 1.519,-2.6601 1.496,-6.3129 3.771,-6.3129 0.279,0 0.594,0.0559 0.95,0.175 3.254,1.0891 3.27,6.4848 1.307,9.9969 -1.394,2.495 -4.627,4.164 -6.935,4.164 -0.94,0 -1.728,-0.277 -2.174,-0.889 h -10e-4" /><path
       inkscape:connector-curvature="0"
       id="path96"
       style="fill:#ffffff;fill-opacity:1;fill-rule:nonzero;stroke:none;stroke-width:0.1"
       d="m 245.135,89.7531 c -2.275,0 -2.252,3.6528 -3.771,6.3129 -1.706,2.9879 -4.624,5.022 -3.082,7.134 h 10e-4 c 0.446,0.612 1.234,0.889 2.174,0.889 2.308,0 5.541,-1.669 6.935,-4.164 1.963,-3.5121 1.947,-8.9078 -1.307,-9.9969 -0.356,-0.1191 -0.671,-0.175 -0.95,-0.175" /><path
       inkscape:connector-curvature="0"
       id="path98"
       style="fill:#ffffff;fill-opacity:1;fill-rule:nonzero;stroke:none;stroke-width:0.1"
       d="m 245.423,83.7949 c -0.035,0 -0.069,0.0012 -0.104,0.0039 -1.147,0.0672 -1.985,1.25 -1.87,2.641 0.111,1.35 1.077,2.4012 2.184,2.4012 0.034,0 0.068,-0.0012 0.102,-0.0031 1.148,-0.0688 1.985,-1.2508 1.87,-2.643 -0.111,-1.3488 -1.076,-2.4 -2.182,-2.4" /><path
       inkscape:connector-curvature="0"
       id="path100"
       style="fill:#fcd6db;fill-opacity:1;fill-rule:nonzero;stroke:none;stroke-width:0.1"
       d="m 212.335,87.0559 c -1.168,4.9351 -1.597,10.6711 -1.756,16.9181 1.384,-2.866 2.247,-6.0201 2.471,-9.3619 l 0.005,-0.0851 c 0.163,-2.5579 -0.06,-5.0559 -0.622,-7.4418 -0.033,-0.0082 -0.066,-0.018 -0.098,-0.0293" /><path
       inkscape:connector-curvature="0"
       id="path102"
       style="fill:#d09ea5;fill-opacity:1;fill-rule:nonzero;stroke:none;stroke-width:0.1"
       d="m 213.443,83.2629 c -0.429,1.2031 -0.795,2.4691 -1.108,3.793 0.032,0.0113 0.065,0.0211 0.098,0.0293 0.093,0.023 0.189,0.0359 0.288,0.0359 0.137,0 0.28,-0.0242 0.428,-0.077 1.507,-0.539 0.648,-2.7859 0.648,-2.7859 -0.112,-0.3344 -0.23,-0.666 -0.354,-0.9953" /><path
       inkscape:connector-curvature="0"
       id="path104"
       style="fill:#593016;fill-opacity:1;fill-rule:nonzero;stroke:none;stroke-width:0.1"
       d="m 121.116,112.844 h 140.242 v 6 H 121.116 Z" /><path
       inkscape:connector-curvature="0"
       id="path106"
       style="fill:#593016;fill-opacity:1;fill-rule:nonzero;stroke:none;stroke-width:0.1"
       d="M 97.3891,42.8059 91.5969,42.1309 80.3813,151.935 83.0207,152.243 97.3891,42.8059" /><path
       inkscape:connector-curvature="0"
       id="path108"
       style="fill:#ffffff;fill-opacity:1;fill-rule:nonzero;stroke:none;stroke-width:0.1"
       d="m 277.931,184.395 h 1 v 57.6512 h -1 z" /><path
       inkscape:connector-curvature="0"
       id="path110"
       style="fill:#ffffff;fill-opacity:1;fill-rule:nonzero;stroke:none;stroke-width:0.1"
       d="m 268.719,192.002 h 112.104 v 1 H 268.719 Z" /><path
       inkscape:connector-curvature="0"
       id="path112"
       style="fill:#ffffff;fill-opacity:1;fill-rule:nonzero;stroke:none;stroke-width:0.1"
       d="m 272.332,236.62 6.099,5.545 6.1,-5.545 0.672,0.739 -6.772,6.157 -6.771,-6.157 0.672,-0.739" /><path
       inkscape:connector-curvature="0"
       id="path114"
       style="fill:#ffffff;fill-opacity:1;fill-rule:nonzero;stroke:none;stroke-width:0.1"
       d="m 375.48,198.601 5.545,-6.099 -5.545,-6.099 0.74,-0.673 6.157,6.772 -6.157,6.771 -0.74,-0.672" /><path
       inkscape:connector-curvature="0"
       id="path116"
       style="fill:#ffffff;fill-opacity:1;fill-rule:nonzero;stroke:none;stroke-width:0.1"
       d="m 378.776,215.22 c -1.659,0.001 -3.194,-0.536 -4.612,-1.443 -2.483,-1.592 -4.65,-4.3 -6.796,-7.452 -3.213,-4.729 -6.371,-10.482 -10.195,-15.021 -1.911,-2.27 -3.984,-4.233 -6.297,-5.622 -2.314,-1.389 -4.862,-2.211 -7.773,-2.212 -2.183,0.002 -4.002,0.555 -5.598,1.526 -2.791,1.696 -4.903,4.728 -6.771,8.368 -2.807,5.457 -5.05,12.231 -8.472,17.687 -1.713,2.728 -3.728,5.133 -6.281,6.86 -2.55,1.729 -5.637,2.764 -9.417,2.762 -0.221,0 -0.444,-0.004 -0.669,-0.011 -5.902,-0.183 -10.63,-2.041 -14.366,-4.721 -5.607,-4.023 -8.993,-9.864 -10.988,-14.687 -1.995,-4.827 -2.599,-8.648 -2.603,-8.674 l -0.215,-1.357 1.037,0.902 0.024,0.021 c 0.575,0.484 10.841,8.926 29.667,8.925 9.685,-0.008 15.11,-3.176 19.762,-6.399 2.324,-1.612 4.446,-3.247 6.792,-4.492 2.345,-1.244 4.925,-2.087 8.098,-2.085 6.405,0.017 13.251,4.444 19.591,8.796 3.167,2.18 6.201,4.353 8.947,5.968 2.743,1.62 5.205,2.66 7.135,2.652 v 1 c -2.277,-0.007 -4.835,-1.144 -7.642,-2.79 -4.204,-2.475 -8.959,-6.148 -13.807,-9.192 -4.844,-3.049 -9.777,-5.442 -14.224,-5.434 -2.995,0.001 -5.382,0.78 -7.629,1.969 -3.369,1.78 -6.4,4.52 -10.453,6.836 -4.054,2.315 -9.14,4.175 -16.57,4.171 -19.754,0 -30.293,-9.144 -30.348,-9.192 l 0.328,-0.377 0.494,-0.079 c 0,0.001 0.015,0.097 0.051,0.29 0.268,1.444 1.675,8.062 5.687,14.357 2.005,3.149 4.656,6.214 8.133,8.531 3.478,2.317 7.778,3.893 13.131,4.062 0.214,0.006 0.427,0.01 0.637,0.01 5.479,-0.008 9.266,-2.236 12.269,-5.643 4.498,-5.112 7.074,-12.922 10.211,-19.504 1.574,-3.291 3.293,-6.282 5.524,-8.479 2.225,-2.197 5.001,-3.582 8.535,-3.577 4.732,-0.002 8.611,2.062 11.899,5.093 4.936,4.549 8.644,11.279 12.285,16.837 1.818,2.779 3.617,5.262 5.502,7.025 1.891,1.765 3.83,2.794 5.987,2.795 v 1" /><path
       inkscape:connector-curvature="0"
       id="path118"
       style="fill:#ffffff;fill-opacity:1;fill-rule:nonzero;stroke:none;stroke-width:0.1"
       d="m 278.25,192.036 c 0.031,-0.01 11.946,-4.664 25.484,-4.667 6.598,-0.005 11.4,2.227 15.066,5.559 5.5,4.996 8.51,12.386 11.734,18.46 1.608,3.038 3.266,5.743 5.258,7.661 1.997,1.917 4.289,3.061 7.311,3.067 1.841,-0.002 3.485,-0.561 5.024,-1.562 2.693,-1.749 5.033,-4.888 7.218,-8.634 3.284,-5.618 6.225,-12.567 9.775,-18.149 1.777,-2.791 3.708,-5.245 5.941,-7.019 2.229,-1.773 4.781,-2.859 7.715,-2.857 v 1 c -4.078,10e-4 -7.331,2.262 -10.222,5.789 -4.329,5.283 -7.682,13.328 -11.404,20.08 -1.865,3.377 -3.825,6.436 -6.094,8.68 -2.262,2.241 -4.874,3.674 -7.953,3.672 -2.189,10e-4 -4.078,-0.571 -5.718,-1.566 -2.871,-1.744 -4.977,-4.731 -6.914,-8.185 -2.9,-5.186 -5.432,-11.471 -9.319,-16.419 -1.943,-2.475 -4.216,-4.615 -7.037,-6.138 -2.822,-1.523 -6.197,-2.438 -10.381,-2.439 -6.655,-0.001 -12.945,1.15 -17.565,2.302 -2.31,0.575 -4.203,1.151 -5.516,1.582 -0.657,0.215 -1.169,0.395 -1.515,0.52 -0.347,0.125 -0.524,0.195 -0.525,0.195 l -0.363,-0.932" /><path
       inkscape:connector-curvature="0"
       id="path120"
       style="fill:#ffffff;fill-opacity:1;fill-rule:nonzero;stroke:none;stroke-width:0.1"
       d="m 52.823,188.017 v 0.5 H 42.7188 l -4e-4,15.792 h 9.6046 v -16.292 h 0.5 v 0.5 -0.5 h 0.5 v 17.292 H 41.7188 V 187.517 H 53.323 v 0.5 h -0.5" /><path
       inkscape:connector-curvature="0"
       id="path122"
       style="fill:#ffffff;fill-opacity:1;fill-rule:nonzero;stroke:none;stroke-width:0.1"
       d="m 71.0785,188.017 v 0.5 H 60.9738 v 27.997 h 9.6047 v -28.497 h 0.5 v 0.5 -0.5 h 0.5 v 29.497 H 59.9738 v -29.997 h 11.6047 v 0.5 h -0.5" /><path
       inkscape:connector-curvature="0"
       id="path124"
       style="fill:#ffffff;fill-opacity:1;fill-rule:nonzero;stroke:none;stroke-width:0.1"
       d="m 89.3344,188.017 v 0.5 H 79.2297 v 37.506 h 9.6047 v -38.006 h 0.5 v 0.5 -0.5 h 0.5 v 39.006 H 78.2297 v -39.506 h 11.6047 v 0.5 h -0.5" /><path
       inkscape:connector-curvature="0"
       id="path126"
       style="fill:#ffffff;fill-opacity:1;fill-rule:nonzero;stroke:none;stroke-width:0.1"
       d="m 107.59,188.017 v 0.5 H 97.4852 v 50.326 h 9.6048 v -50.826 h 0.5 v 0.5 -0.5 h 0.5 v 51.826 H 96.4852 V 187.517 H 108.09 v 0.5 h -0.5" /><path
       inkscape:connector-curvature="0"
       id="path128"
       style="fill:#ffffff;fill-opacity:1;fill-rule:nonzero;stroke:none;stroke-width:0.1"
       d="M 52.823,188.017 H 42.2188 v 9.451 H 52.823 v -9.451" /><path
       inkscape:connector-curvature="0"
       id="path130"
       style="fill:#ffffff;fill-opacity:1;fill-rule:nonzero;stroke:none;stroke-width:0.1"
       d="M 71.0785,188.017 H 60.4738 v 16.321 h 10.6047 v -16.321" /><path
       inkscape:connector-curvature="0"
       id="path132"
       style="fill:#ffffff;fill-opacity:1;fill-rule:nonzero;stroke:none;stroke-width:0.1"
       d="M 89.3344,188.017 H 78.7297 v 21.673 h 10.6047 v -21.673" /><path
       inkscape:connector-curvature="0"
       id="path134"
       style="fill:#ffffff;fill-opacity:1;fill-rule:nonzero;stroke:none;stroke-width:0.1"
       d="M 107.59,188.017 H 96.9852 v 28.888 H 107.59 v -28.888" /><path
       inkscape:connector-curvature="0"
       id="path146"
       style="fill:#ffffff;fill-opacity:1;fill-rule:nonzero;stroke:none;stroke-width:0.1"
       d="m 355.812,148.417 h -0.5 c 0,-4.487 -1.817,-8.545 -4.757,-11.486 -2.941,-2.941 -6.999,-4.758 -11.487,-4.758 -4.487,0 -8.545,1.817 -11.486,4.758 -2.94,2.941 -4.758,6.999 -4.758,11.486 0,4.487 1.818,8.545 4.758,11.486 2.941,2.941 6.999,4.758 11.486,4.758 4.488,0 8.546,-1.817 11.487,-4.758 2.94,-2.941 4.757,-6.999 4.757,-11.486 h 0.5 0.5 c 0,9.524 -7.719,17.244 -17.244,17.244 -9.523,0 -17.244,-7.72 -17.244,-17.244 0,-9.524 7.721,-17.244 17.244,-17.244 9.525,0 17.244,7.72 17.244,17.244 h -0.5" /><path
       inkscape:connector-curvature="0"
       id="path148"
       style="fill:#ffffff;fill-opacity:1;fill-rule:nonzero;stroke:none;stroke-width:0.1"
       d="m 376.145,148.417 h -0.5 c 0,-4.487 -1.817,-8.545 -4.757,-11.486 -2.941,-2.941 -6.999,-4.758 -11.487,-4.758 -4.487,0 -8.545,1.817 -11.486,4.758 -2.94,2.941 -4.758,6.999 -4.758,11.486 0,4.487 1.818,8.545 4.758,11.486 2.941,2.941 6.999,4.758 11.486,4.758 4.488,0 8.546,-1.817 11.487,-4.758 2.94,-2.941 4.757,-6.999 4.757,-11.486 h 0.5 0.5 c 0,9.524 -7.719,17.244 -17.244,17.244 -9.523,0 -17.244,-7.72 -17.244,-17.244 0,-9.524 7.721,-17.244 17.244,-17.244 9.525,0 17.244,7.72 17.244,17.244 h -0.5" /><path
       inkscape:connector-curvature="0"
       id="path150"
       style="fill:#ffffff;fill-opacity:1;fill-rule:nonzero;stroke:none;stroke-width:0.1;stroke-opacity:1"
       d="m 342.657,148.417 c 0,-5.419 2.586,-10.222 6.578,-13.282 3.992,3.06 6.577,7.863 6.577,13.282 0,5.419 -2.585,10.222 -6.577,13.283 -3.992,-3.061 -6.578,-7.864 -6.578,-13.283" /><g
       aria-label="AB"
       transform="scale(1,-1)"
       style="font-variant:normal;font-weight:bold;font-size:15.0394001px;font-family:Arial;-inkscape-font-specification:Arial-BoldMT;writing-mode:lr-tb;fill:#ffffff;fill-opacity:1;fill-rule:nonzero;stroke:none"
       id="text156"><path
         d="m 336.64515,-143.00301 -0.91793,-2.64364 h -3.94344 l -0.91793,2.64364 h -2.16632 l 3.77454,-10.34693 h 2.55552 l 3.75985,10.34693 z m -2.89332,-8.7534 -0.0441,0.16156 q -0.0734,0.26436 -0.17625,0.60216 -0.10281,0.3378 -1.26307,3.71579 h 2.9741 l -1.02074,-2.9741 -0.31577,-0.99871 z"
         style=""
         id="path3136" /><path
         d="m 369.57925,-145.95508 q 0,1.40995 -1.05746,2.18101 -1.05746,0.77106 -2.93738,0.77106 h -5.17714 v -10.34693 h 4.73653 q 1.89461,0 2.86395,0.66091 0.97668,0.65357 0.97668,1.93868 0,0.88121 -0.49202,1.49072 -0.48466,0.60216 -1.48337,0.81512 1.25573,0.14687 1.90929,0.7931 0.66092,0.63888 0.66092,1.69633 z m -2.77583,-4.50153 q 0,-0.69763 -0.44795,-0.99137 -0.44061,-0.29374 -1.31448,-0.29374 h -2.4674 v 2.56287 h 2.48209 q 0.91793,0 1.32916,-0.31577 0.41858,-0.32311 0.41858,-0.96199 z m 0.60216,4.33263 q 0,-1.454 -2.08554,-1.454 h -2.74645 v 2.96676 h 2.82723 q 1.04277,0 1.52009,-0.37452 0.48467,-0.38186 0.48467,-1.13824 z"
         style=""
         id="path3138" /></g><g
       aria-label="A"
       transform="scale(1,-1)"
       style="font-variant:normal;font-weight:bold;font-size:12.04839993px;font-family:Arial;-inkscape-font-specification:Arial-BoldMT;writing-mode:lr-tb;fill:#ffffff;fill-opacity:1;fill-rule:nonzero;stroke:none"
       id="text160"><path
         d="m 341.72834,-115.3018 -0.73537,-2.11789 h -3.15918 l -0.73537,2.11789 h -1.73549 l 3.02387,-8.28916 h 2.04728 l 3.0121,8.28916 z m -2.3179,-7.01255 -0.0353,0.12943 q -0.0588,0.21179 -0.14119,0.4824 -0.0824,0.27062 -1.01188,2.97681 h 2.38262 l -0.81774,-2.38262 -0.25297,-0.80009 z"
         style=""
         id="path3133" /></g><path
       inkscape:connector-curvature="0"
       id="path162"
       style="fill:#ffffff;fill-opacity:1;fill-rule:nonzero;stroke:none;stroke-width:0.1"
       d="m 346.813,115.733 h 16.2621 v 1 H 346.813 Z" /><g
       id="g164"><g
   aria-label="B"
   transform="matrix(1,0,0,-1,335.211,102.684)"
   style="font-variant:normal;font-weight:bold;font-size:12.04839993px;font-family:Arial;-inkscape-font-specification:Arial-BoldMT;writing-mode:lr-tb;fill:#ffffff;fill-opacity:1;fill-rule:nonzero;stroke:none"
   id="text168"><path
     d="m 8.1538488,-2.3649691 q 0,1.1295375 -0.8471531,1.74725328 Q 6.4595425,0 4.9534925,0 H 0.80597207 V -8.289158 H 4.6005121 q 1.517816,0 2.294373,0.5294707 0.78244,0.5235877 0.78244,1.5531141 0,0.7059609 -0.3941615,1.1942506 -0.3882785,0.4824066 -1.1883675,0.6530138 1.0059943,0.1176602 1.529582,0.6353649 0.5294707,0.5118217 0.5294707,1.3589748 z m -2.223777,-3.6062838 q 0,-0.5588857 -0.3588634,-0.794206 Q 5.2182279,-7.0007793 4.51815,-7.0007793 H 2.5414594 v 2.0531698 H 4.529916 q 0.735376,0 1.0648244,-0.2529694 0.3353314,-0.2588523 0.3353314,-0.770674 z m 0.4824067,3.4709746 q 0,-1.1648355 -1.6707742,-1.1648355 H 2.5414594 v 2.3767351 h 2.264958 q 0.8353871,0 1.2177826,-0.3000334 0.3882785,-0.3059164 0.3882785,-0.9118662 z"
     style=""
     id="path3130" /></g>
</g><path
       inkscape:connector-curvature="0"
       id="path170"
       style="fill:#ffffff;fill-opacity:1;fill-rule:nonzero;stroke:none;stroke-width:0.1"
       d="m 346.961,103.115 h 16.2609 v 1 H 346.961 Z" /><g
       aria-label="Educational
stuff"
       transform="matrix(0.55542881,0,0,-0.55542881,49.850657,264.59621)"
       style="font-style:normal;font-weight:normal;font-size:40px;line-height:1.25;font-family:sans-serif;letter-spacing:0px;word-spacing:0px;fill:#000000;fill-opacity:1;stroke:none"
       id="flowRoot3083"><path
         d="m 156.09574,59.779686 c 5.82033,0 9.84378,0.468751 12.01176,1.425786 0.19531,0.09766 0.39062,0.136719 0.5664,0.136719 0.72266,0 1.17188,-0.546877 1.19141,-1.210942 0.0195,-0.566408 -0.21484,-0.996097 -0.72265,-1.230473 -2.14845,-0.957034 -5.68362,-1.48438 -10.6641,-1.64063 -2.55861,-0.07813 -4.96096,-0.05859 -7.18753,0.07813 l -1.40625,0.09766 c -0.625,0.03906 -1.19141,0.60547 -1.19141,1.250004 0,3.925795 0.13672,7.539088 0.13672,10.800818 0,4.316421 -0.39063,13.710985 -0.39063,14.433643 0,0.722659 0.625,1.32813 1.26954,1.32813 9.21878,0 15.11723,-0.09766 17.67584,-0.332032 0.76172,-0.05859 1.11328,-0.644534 1.11328,-1.250005 0,-0.644533 -0.42969,-1.367192 -1.21094,-1.289067 -2.32423,0.195314 -7.71487,0.312501 -16.25006,0.332033 l 0.0977,-1.875007 c 0.0977,-2.050788 0.17578,-4.804704 0.21485,-8.281278 l 14.1602,0.09766 c 0.82032,0.01953 1.23047,-0.625003 1.23047,-1.269536 0,-0.625002 -0.41015,-1.269536 -1.21094,-1.269536 l -14.1602,-0.09766 c 0,-2.988292 -0.0391,-6.36721 -0.11719,-10.117223 1.23047,-0.07813 3.20314,-0.117187 4.84377,-0.117187 z"
         style="font-style:normal;font-variant:normal;font-weight:normal;font-stretch:normal;font-size:40.00013733px;font-family:Chilanka;-inkscape-font-specification:'Chilanka, Normal';font-variant-ligatures:normal;font-variant-caps:normal;font-variant-numeric:normal;font-feature-settings:normal;text-align:start;writing-mode:lr-tb;text-anchor:start;fill:#ffffff;fill-opacity:1"
         id="path3093" /><path
         d="m 192.87321,76.908651 c 0,-0.273439 0,-0.546877 0,-0.800784 0,-0.605471 -0.0391,-0.996098 -0.11719,-1.230473 -0.0195,-0.87891 -0.0195,-2.011726 -0.0195,-3.398449 0,-2.226571 0.0195,-5.117206 0.0391,-8.632843 l 0.0391,-4.785172 c 0.0195,-0.820316 -0.625,-1.250005 -1.26953,-1.250005 -0.625,0 -1.26954,0.410158 -1.26954,1.230473 l -0.0391,4.765642 c -0.0195,2.714853 -0.0195,4.882829 -0.0195,6.503928 -2.59767,-2.714853 -5.15627,-4.16017 -7.63675,-4.355483 -0.23437,-0.01953 -0.48828,-0.01953 -0.72266,-0.01953 -2.14844,0 -3.94532,0.800784 -5.33205,2.500009 -1.69922,2.031257 -2.75391,4.941423 -2.75391,7.871121 0,5.78127 3.98439,9.824252 9.668,9.824252 2.81251,0 5.11721,-1.445317 6.93362,-4.29689 0.0391,1.132817 0.0977,2.050789 0.15625,2.714853 0.0586,0.703128 0.54688,1.347661 1.23047,1.347661 1.03516,0 1.38673,-0.839846 1.38673,-1.875006 0,-1.718756 -0.27344,-4.179702 -0.27344,-6.113302 z m -9.4141,5.683613 c -4.39454,0 -7.12893,-3.007823 -7.12893,-7.402369 0,-3.828138 2.16798,-7.734402 5.62502,-7.734402 0.11719,0 0.23438,0.01953 0.35156,0.01953 2.46095,0.214844 5.07815,2.128913 7.91019,5.761738 v 1.77735 c -0.0977,0.253907 -0.23438,0.644533 -0.42969,1.19141 -1.54298,4.257827 -3.63283,6.386741 -6.32815,6.386741 z"
         style="font-style:normal;font-variant:normal;font-weight:normal;font-stretch:normal;font-size:40.00013733px;font-family:Chilanka;-inkscape-font-specification:'Chilanka, Normal';font-variant-ligatures:normal;font-variant-caps:normal;font-variant-numeric:normal;font-feature-settings:normal;text-align:start;writing-mode:lr-tb;text-anchor:start;fill:#ffffff;fill-opacity:1"
         id="path3095" /><path
         d="m 210.99827,66.986742 -0.13672,2.246101 c -0.0586,1.269536 -0.0781,2.480477 -0.0781,3.613294 0,0.566408 0.0195,1.132816 0.0195,1.660162 -0.72266,3.808606 -2.20704,6.406272 -4.43361,7.832058 -0.83985,0.546877 -1.6211,0.781252 -2.34376,0.781252 -1.75782,0 -3.06642,-1.464848 -3.75001,-3.339855 -0.48829,-1.347661 -0.72266,-2.890635 -0.72266,-4.648453 0,-2.324227 0.42969,-5.000017 1.26953,-8.046903 0.25391,-0.859378 -0.50781,-1.582037 -1.19141,-1.582037 -0.54687,0 -1.11328,0.351564 -1.26953,0.917972 -0.87891,3.320324 -1.32813,6.230491 -1.32813,8.789093 0,4.804704 1.71875,8.847687 4.98048,10.058628 0.70313,0.253907 1.38673,0.371095 2.05079,0.371095 3.18361,0 5.83987,-2.636727 7.14846,-4.882829 0.42969,2.910166 1.13282,4.609391 2.10939,5.117205 1.05469,0.546877 2.03125,0 2.03125,-0.996097 0,-0.44922 -0.21484,-0.898441 -0.64453,-1.132816 -0.0391,-0.03906 -0.0781,-0.117188 -0.15625,-0.253908 -0.72266,-1.34766 -1.13282,-4.257827 -1.21094,-8.769561 0.23437,-1.347661 0.35156,-2.773447 0.35156,-4.277358 0,-1.093754 -0.0586,-2.22657 -0.17578,-3.398449 -0.0586,-0.605471 -0.625,-1.152348 -1.25001,-1.152348 -0.58593,0 -1.11328,0.44922 -1.26953,1.093754 z"
         style="font-style:normal;font-variant:normal;font-weight:normal;font-stretch:normal;font-size:40.00013733px;font-family:Chilanka;-inkscape-font-specification:'Chilanka, Normal';font-variant-ligatures:normal;font-variant-caps:normal;font-variant-numeric:normal;font-feature-settings:normal;text-align:start;writing-mode:lr-tb;text-anchor:start;fill:#ffffff;fill-opacity:1"
         id="path3097" /><path
         d="m 221.3694,77.650841 c 0,-1.015629 0.21484,-2.109383 0.625,-3.222668 1.11329,-2.988291 3.80861,-5.722676 7.53909,-5.722676 0.76172,0 1.58204,0.117188 2.44142,0.371096 0.13671,0.03906 0.27343,0.05859 0.39062,0.05859 0.72266,0 1.19141,-0.683596 1.19141,-1.328129 0,-0.488283 -0.25391,-0.976566 -0.85938,-1.152348 -1.15234,-0.351564 -2.2461,-0.527345 -3.32032,-0.527345 -4.88283,0 -8.32034,3.632825 -9.76566,7.441431 -0.50781,1.367193 -0.78125,2.714854 -0.78125,4.023452 0,0.976566 0.15625,1.9336 0.42969,2.871103 0.87891,2.949229 3.4961,5.03908 7.48049,5.03908 1.77735,0 3.84767,-0.429689 6.1719,-1.269535 0.44922,-0.156251 0.85938,-0.625003 0.85938,-1.230473 0,-0.683597 -0.60547,-1.230473 -1.26954,-1.230473 -0.15625,0 -0.29297,0.01953 -0.44922,0.07813 -2.03126,0.74219 -3.78907,1.093754 -5.29299,1.093754 -3.45704,0 -5.39064,-2.089851 -5.39064,-5.292987 z"
         style="font-style:normal;font-variant:normal;font-weight:normal;font-stretch:normal;font-size:40.00013733px;font-family:Chilanka;-inkscape-font-specification:'Chilanka, Normal';font-variant-ligatures:normal;font-variant-caps:normal;font-variant-numeric:normal;font-feature-settings:normal;text-align:start;writing-mode:lr-tb;text-anchor:start;fill:#ffffff;fill-opacity:1"
         id="path3099" /><path
         d="m 254.94373,71.654726 c -0.25391,-2.695321 -1.3086,-4.550797 -3.22267,-5.566425 -1.07422,-0.566408 -2.22657,-0.859378 -3.45704,-0.859378 -0.97657,0 -1.99219,0.175782 -3.04689,0.527346 -2.75391,0.878909 -4.82423,2.656259 -6.17189,5.312518 -0.91797,1.816412 -1.38672,3.71095 -1.38672,5.703144 0,3.085949 0.91797,5.488301 2.5,6.972681 0.87891,0.820315 2.12892,1.445317 3.6133,1.445317 0.50781,0 1.03516,-0.07813 1.60157,-0.234376 0.91797,-0.09766 1.79688,-0.488283 2.65625,-1.171879 1.40626,-1.132816 2.73439,-2.695321 3.98439,-4.707047 0.0195,2.285164 0.23438,4.199233 0.64454,5.703144 0.17578,0.644534 0.66406,0.917972 1.17188,0.917972 0.64453,0 1.32813,-0.468751 1.32813,-1.19141 0,-0.117188 -0.0195,-0.234376 -0.0586,-0.371095 -0.37109,-1.406255 -0.56641,-3.222667 -0.56641,-5.4883 0,-1.621099 0.0977,-3.457043 0.29297,-5.507832 0.11719,-0.390626 0.17578,-0.722658 0.17578,-1.035159 0,-0.156251 -0.0195,-0.312501 -0.0586,-0.449221 z m -2.53907,0.175782 c -0.0195,0.273439 -0.0586,0.546877 -0.0781,0.800784 -1.21094,3.613294 -3.78907,7.441432 -5.7422,8.984406 -0.66407,0.527346 -1.09376,0.781253 -1.3086,0.800784 -0.56641,0.05859 -0.97657,0.214845 -1.48438,0.214845 -0.74219,0 -1.40626,-0.273439 -1.9922,-0.820316 -0.9375,-0.878909 -1.60156,-2.753915 -1.60156,-5.000017 0,-1.601568 0.39062,-3.183605 1.21094,-4.785173 0.97656,-1.914069 2.50001,-3.183604 4.58986,-3.847669 0.85938,-0.273439 1.64063,-0.410158 2.34376,-0.410158 2.40235,0 3.82813,1.562506 4.06251,4.062514 z"
         style="font-style:normal;font-variant:normal;font-weight:normal;font-stretch:normal;font-size:40.00013733px;font-family:Chilanka;-inkscape-font-specification:'Chilanka, Normal';font-variant-ligatures:normal;font-variant-caps:normal;font-variant-numeric:normal;font-feature-settings:normal;text-align:start;writing-mode:lr-tb;text-anchor:start;fill:#ffffff;fill-opacity:1"
         id="path3101" /><path
         d="m 266.07658,84.60399 c 0,-0.507815 -0.3125,-0.937504 -0.70313,-1.152348 -0.33203,-0.175782 -0.64453,-0.703128 -0.9375,-1.562505 -0.64453,-1.91407 -0.95704,-5.214862 -0.95704,-9.941441 0,-1.03516 0,-2.148445 0.0391,-3.320324 1.01563,0 2.01172,0.01953 3.02735,0.01953 h 0.0195 c 0.80079,0 1.21094,-0.625003 1.21094,-1.250005 0,-0.644533 -0.41015,-1.269535 -1.23047,-1.289067 l -2.94923,-0.01953 c 0.0586,-1.210942 0.17578,-4.726579 0.17578,-6.855492 0,-0.390627 -0.0195,-0.722659 -0.0195,-0.996097 -0.0195,-0.800784 -0.64453,-1.191411 -1.26953,-1.191411 -0.625,0 -1.26954,0.410158 -1.26954,1.210942 0,0.29297 0.0195,0.625002 0.0195,1.03516 0,2.089851 -0.11718,5.625019 -0.17578,6.777367 l -3.92579,-0.01953 c -0.66407,0 -1.26954,0.605471 -1.26954,1.230473 0,0.683596 0.58594,1.308599 1.26954,1.308599 1.28906,0 2.5586,0.01953 3.84767,0.01953 -0.0391,1.289067 -0.0586,2.51954 -0.0586,3.671888 0,2.304695 0.0781,4.335952 0.23438,6.074239 0.35156,4.00392 1.36719,6.464866 3.04688,7.363307 0.19532,0.09766 0.39063,0.15625 0.58594,0.15625 0.6836,0 1.28907,-0.566408 1.28907,-1.269535 z"
         style="font-style:normal;font-variant:normal;font-weight:normal;font-stretch:normal;font-size:40.00013733px;font-family:Chilanka;-inkscape-font-specification:'Chilanka, Normal';font-variant-ligatures:normal;font-variant-caps:normal;font-variant-numeric:normal;font-feature-settings:normal;text-align:start;writing-mode:lr-tb;text-anchor:start;fill:#ffffff;fill-opacity:1"
         id="path3103" /><path
         d="m 271.72114,61.498441 c 0,1.113286 0.83984,2.031257 1.79688,2.031257 0.44922,0 0.95703,-0.136719 1.52344,-0.429689 1.01563,-0.351563 1.66016,-1.250004 1.66016,-2.207038 0,-1.015629 -0.97656,-2.304696 -2.1875,-2.304696 -1.25001,0 -2.79298,1.464849 -2.79298,2.910166 z m 3.16407,20.546946 c 0.19531,-3.906263 0.19531,-7.031274 0.19531,-11.26957 0,-1.289067 -0.0195,-2.597665 -0.0391,-3.984389 0,-0.820315 -0.60547,-1.210941 -1.23047,-1.210941 -0.64454,0 -1.28907,0.410157 -1.28907,1.250004 0.0195,1.015629 0.0195,2.089851 0.0195,3.183605 0,3.007823 0.0195,12.324261 -0.56641,13.65239 -0.0586,0.175782 -0.0976,0.351564 -0.0976,0.507815 0,0.722658 0.60547,1.289067 1.28906,1.289067 1.21095,0 1.64064,-1.32813 1.71876,-3.417981 z"
         style="font-style:normal;font-variant:normal;font-weight:normal;font-stretch:normal;font-size:40.00013733px;font-family:Chilanka;-inkscape-font-specification:'Chilanka, Normal';font-variant-ligatures:normal;font-variant-caps:normal;font-variant-numeric:normal;font-feature-settings:normal;text-align:start;writing-mode:lr-tb;text-anchor:start;fill:#ffffff;fill-opacity:1"
         id="path3105" /><path
         d="m 290.64698,64.975016 c -0.15625,-0.05859 -0.3125,-0.07813 -0.46875,-0.05859 -2.30469,0.09766 -4.35548,0.976566 -6.17189,2.636728 -1.81642,1.660162 -2.89064,3.769544 -3.26173,6.367209 -0.0781,0.546877 -0.11719,1.074223 -0.11719,1.582037 0,1.992194 0.56641,3.828138 1.66016,5.527363 1.64063,2.500008 4.29689,4.394546 8.14456,4.394546 2.07032,0 4.04298,-0.625002 5.58596,-1.621099 2.40235,-1.542974 4.33595,-4.492203 4.33595,-8.066434 0,-2.402352 -0.625,-4.355484 -1.73829,-5.957052 -2.07032,-3.007823 -4.72658,-4.609391 -7.96878,-4.804704 z m 7.14847,10.625036 c 0,1.425787 -0.3711,2.871104 -1.13282,4.062514 -1.13282,1.796882 -3.49611,3.242199 -6.1719,3.242199 -0.91797,0 -1.85547,-0.156251 -2.81251,-0.546877 -2.28516,-0.917972 -4.53126,-3.476574 -4.53126,-6.81643 0,-4.375015 3.04688,-7.851589 7.0508,-8.085965 0.0977,0.03906 0.21485,0.05859 0.3125,0.05859 3.67189,0.234376 7.28519,3.5547 7.28519,8.085965 z"
         style="font-style:normal;font-variant:normal;font-weight:normal;font-stretch:normal;font-size:40.00013733px;font-family:Chilanka;-inkscape-font-specification:'Chilanka, Normal';font-variant-ligatures:normal;font-variant-caps:normal;font-variant-numeric:normal;font-feature-settings:normal;text-align:start;writing-mode:lr-tb;text-anchor:start;fill:#ffffff;fill-opacity:1"
         id="path3107" /><path
         d="m 305.52984,65.111735 c -0.64453,0 -1.3086,0.488283 -1.3086,1.250004 0,0.332033 0.17579,0.664065 0.46876,1.03516 0.33203,0.410158 0.70312,1.347661 1.11328,2.851573 0.41016,1.503911 0.64453,3.750012 0.70313,6.738304 -0.25391,1.621099 -0.39063,3.378918 -0.39063,5.292987 0,0.566408 0.0195,1.132816 0.0391,1.718756 0.0391,0.781252 0.66407,1.171879 1.28907,1.171879 0.58594,0 1.15235,-0.351564 1.23047,-1.074223 l 0.0781,-0.761721 c 0.19531,-1.894538 0.29297,-3.789076 0.29297,-5.664082 0,-0.175782 0,-0.332032 0,-0.507814 0.72266,-4.160171 2.83204,-8.691436 6.69924,-9.257845 0.3125,-0.03906 0.625,-0.05859 0.91797,-0.05859 3.32033,0 5.56643,2.67579 6.19143,5.664081 0.13672,0.703128 0.21484,1.406255 0.21484,2.128914 0,2.441415 -0.80078,5.03908 -2.42188,7.871121 -0.56641,0.957034 0.3125,1.875006 1.13282,1.875006 0.41016,0 0.83984,-0.195313 1.07422,-0.605471 1.83594,-3.203136 2.75392,-6.250021 2.75392,-9.121125 0,-0.917972 -0.0977,-1.796881 -0.27344,-2.67579 -0.83985,-4.062514 -3.94533,-7.695339 -8.65238,-7.695339 -0.42968,0 -0.85937,0.03906 -1.30859,0.09766 -2.83205,0.410157 -5.09768,2.22657 -6.8555,5.410174 -0.42969,-2.363289 -1.11328,-4.101576 -2.05078,-5.234393 -0.25391,-0.312501 -0.60548,-0.44922 -0.93751,-0.44922 z"
         style="font-style:normal;font-variant:normal;font-weight:normal;font-stretch:normal;font-size:40.00013733px;font-family:Chilanka;-inkscape-font-specification:'Chilanka, Normal';font-variant-ligatures:normal;font-variant-caps:normal;font-variant-numeric:normal;font-feature-settings:normal;text-align:start;writing-mode:lr-tb;text-anchor:start;fill:#ffffff;fill-opacity:1"
         id="path3109" /><path
         d="m 346.81905,71.654726 c -0.25391,-2.695321 -1.3086,-4.550797 -3.22267,-5.566425 -1.07422,-0.566408 -2.22657,-0.859378 -3.45704,-0.859378 -0.97657,0 -1.99219,0.175782 -3.04688,0.527346 -2.75392,0.878909 -4.82424,2.656259 -6.1719,5.312518 -0.91797,1.816412 -1.38672,3.71095 -1.38672,5.703144 0,3.085949 0.91797,5.488301 2.5,6.972681 0.87891,0.820315 2.12892,1.445317 3.6133,1.445317 0.50781,0 1.03516,-0.07813 1.60157,-0.234376 0.91797,-0.09766 1.79688,-0.488283 2.65625,-1.171879 1.40626,-1.132816 2.73439,-2.695321 3.98439,-4.707047 0.0195,2.285164 0.23438,4.199233 0.64454,5.703144 0.17578,0.644534 0.66406,0.917972 1.17188,0.917972 0.64453,0 1.32813,-0.468751 1.32813,-1.19141 0,-0.117188 -0.0195,-0.234376 -0.0586,-0.371095 -0.37109,-1.406255 -0.56641,-3.222667 -0.56641,-5.4883 0,-1.621099 0.0977,-3.457043 0.29297,-5.507832 0.11719,-0.390626 0.17578,-0.722658 0.17578,-1.035159 0,-0.156251 -0.0195,-0.312501 -0.0586,-0.449221 z m -2.53907,0.175782 c -0.0195,0.273439 -0.0586,0.546877 -0.0781,0.800784 -1.21094,3.613294 -3.78907,7.441432 -5.7422,8.984406 -0.66407,0.527346 -1.09376,0.781253 -1.3086,0.800784 -0.56641,0.05859 -0.97657,0.214845 -1.48438,0.214845 -0.74219,0 -1.40626,-0.273439 -1.9922,-0.820316 -0.9375,-0.878909 -1.60156,-2.753915 -1.60156,-5.000017 0,-1.601568 0.39062,-3.183605 1.21094,-4.785173 0.97656,-1.914069 2.50001,-3.183604 4.58986,-3.847669 0.85938,-0.273439 1.64063,-0.410158 2.34376,-0.410158 2.40235,0 3.82813,1.562506 4.06251,4.062514 z"
         style="font-style:normal;font-variant:normal;font-weight:normal;font-stretch:normal;font-size:40.00013733px;font-family:Chilanka;-inkscape-font-specification:'Chilanka, Normal';font-variant-ligatures:normal;font-variant-caps:normal;font-variant-numeric:normal;font-feature-settings:normal;text-align:start;writing-mode:lr-tb;text-anchor:start;fill:#ffffff;fill-opacity:1"
         id="path3111" /><path
         d="m 352.93236,56.537487 c -0.66407,0 -1.28907,0.527346 -1.3086,1.210942 -0.44922,10.664099 -0.6836,18.183656 -0.6836,22.558671 0,2.050788 0.0586,3.41798 0.15625,4.082045 0.11719,0.722659 0.66407,1.054691 1.21094,1.054691 0.64454,0 1.3086,-0.44922 1.3086,-1.210941 0,-0.05859 0,-0.13672 -0.0195,-0.214845 -0.0977,-0.585939 -0.13672,-1.796881 -0.13672,-3.632825 0,-4.218764 0.23438,-11.71879 0.6836,-22.519608 0.0391,-0.703128 -0.56641,-1.32813 -1.21094,-1.32813 z"
         style="font-style:normal;font-variant:normal;font-weight:normal;font-stretch:normal;font-size:40.00013733px;font-family:Chilanka;-inkscape-font-specification:'Chilanka, Normal';font-variant-ligatures:normal;font-variant-caps:normal;font-variant-numeric:normal;font-feature-settings:normal;text-align:start;writing-mode:lr-tb;text-anchor:start;fill:#ffffff;fill-opacity:1"
         id="path3113" /><path
         d="m 148.43946,125.66048 c 0,0.46875 0.0586,0.95703 0.21484,1.46485 0.58594,2.03125 2.32423,3.57423 4.37502,4.1211 0.74219,0.19532 1.89454,0.29297 3.43751,0.29297 0.6836,0 1.56251,-0.0586 2.34376,-0.0586 1.79688,0 2.98829,0.58594 3.5547,1.71875 0.17578,0.3711 0.27344,0.72266 0.27344,1.07423 0,0.60547 -0.27344,1.19141 -0.78126,1.75782 -0.95703,1.03516 -2.34375,1.5625 -4.14063,1.5625 -2.89064,0 -5.07815,-0.91797 -6.89456,-2.51954 -0.23438,-0.19531 -0.52735,-0.29297 -0.83985,-0.29297 -0.68359,0 -1.26953,0.54688 -1.26953,1.25001 0,0.35156 0.15625,0.72265 0.42969,0.95703 2.03125,1.77735 4.58986,2.83204 7.69534,3.12501 0.29297,0.0195 0.5664,0.0391 0.83984,0.0391 1.34766,0 2.6172,-0.27343 3.84767,-0.83984 1.9336,-0.87891 3.10548,-2.26564 3.53517,-4.16017 0.0781,-0.3125 0.0977,-0.62501 0.0977,-0.93751 0,-0.70312 -0.17578,-1.40625 -0.52735,-2.12891 -1.09375,-2.18751 -3.10548,-3.14454 -6.46486,-3.14454 -0.6836,0 -1.42579,0.0781 -2.05079,0.0781 -1.89454,0 -3.26173,-0.37109 -4.06252,-1.11328 -0.72266,-0.66407 -1.09375,-1.38673 -1.09375,-2.16798 0,-0.29297 0.0586,-0.58594 0.15625,-0.89844 0.48828,-1.46485 2.07032,-2.18751 4.74611,-2.18751 2.6172,0 5.35158,1.42579 6.83596,2.85158 0.25391,0.23437 0.54688,0.33203 0.89844,0.33203 0.74219,-0.0195 1.23047,-0.64454 1.23047,-1.28907 0,-0.3125 -0.11718,-0.625 -0.39062,-0.87891 -2.46095,-2.34376 -5.5469,-3.5547 -9.31644,-3.5547 -3.43751,0 -6.67971,1.89454 -6.67971,5.5469 z"
         style="font-style:normal;font-variant:normal;font-weight:normal;font-stretch:normal;font-size:40.00013733px;font-family:Chilanka;-inkscape-font-specification:'Chilanka, Normal';font-variant-ligatures:normal;font-variant-caps:normal;font-variant-numeric:normal;font-feature-settings:normal;text-align:start;writing-mode:lr-tb;text-anchor:start;fill:#ffffff;fill-opacity:1"
         id="path3115" /><path
         d="m 179.27941,139.3324 c 0,-0.50782 -0.3125,-0.9375 -0.70313,-1.15235 -0.33203,-0.17578 -0.64453,-0.70313 -0.9375,-1.5625 -0.64453,-1.91407 -0.95704,-5.21487 -0.95704,-9.94145 0,-1.03515 0,-2.14844 0.0391,-3.32032 1.01563,0 2.01172,0.0195 3.02735,0.0195 h 0.0195 c 0.80079,0 1.21094,-0.625 1.21094,-1.25 0,-0.64454 -0.41015,-1.26954 -1.23047,-1.28907 l -2.94923,-0.0195 c 0.0586,-1.21094 0.17578,-4.72658 0.17578,-6.85549 0,-0.39063 -0.0195,-0.72266 -0.0195,-0.9961 -0.0195,-0.80078 -0.64453,-1.19141 -1.26953,-1.19141 -0.62501,0 -1.26954,0.41016 -1.26954,1.21094 0,0.29297 0.0195,0.625 0.0195,1.03516 0,2.08985 -0.11719,5.62502 -0.17578,6.77737 l -3.92579,-0.0195 c -0.66407,0 -1.26954,0.60547 -1.26954,1.23047 0,0.6836 0.58594,1.3086 1.26954,1.3086 1.28906,0 2.5586,0.0195 3.84767,0.0195 -0.0391,1.28907 -0.0586,2.51954 -0.0586,3.67189 0,2.30469 0.0781,4.33595 0.23438,6.07424 0.35156,4.00392 1.36719,6.46486 3.04688,7.3633 0.19532,0.0977 0.39063,0.15625 0.58594,0.15625 0.6836,0 1.28907,-0.5664 1.28907,-1.26953 z"
         style="font-style:normal;font-variant:normal;font-weight:normal;font-stretch:normal;font-size:40.00013733px;font-family:Chilanka;-inkscape-font-specification:'Chilanka, Normal';font-variant-ligatures:normal;font-variant-caps:normal;font-variant-numeric:normal;font-feature-settings:normal;text-align:start;writing-mode:lr-tb;text-anchor:start;fill:#ffffff;fill-opacity:1"
         id="path3117" /><path
         d="m 198.88885,121.71515 -0.13672,2.2461 c -0.0586,1.26954 -0.0781,2.48048 -0.0781,3.6133 0,0.5664 0.0195,1.13281 0.0195,1.66016 -0.72266,3.8086 -2.20704,6.40627 -4.43361,7.83206 -0.83985,0.54687 -1.6211,0.78125 -2.34376,0.78125 -1.75782,0 -3.06641,-1.46485 -3.75001,-3.33986 -0.48828,-1.34766 -0.72266,-2.89063 -0.72266,-4.64845 0,-2.32423 0.42969,-5.00002 1.26954,-8.0469 0.2539,-0.85938 -0.50782,-1.58204 -1.19141,-1.58204 -0.54688,0 -1.11329,0.35156 -1.26954,0.91797 -0.87891,3.32033 -1.32813,6.23049 -1.32813,8.78909 0,4.80471 1.71876,8.84769 4.98049,10.05863 0.70312,0.25391 1.38672,0.3711 2.05078,0.3711 3.18361,0 5.83987,-2.63673 7.14847,-4.88283 0.42969,2.91017 1.13281,4.60939 2.10938,5.1172 1.05469,0.54688 2.03126,0 2.03126,-0.99609 0,-0.44922 -0.21485,-0.89844 -0.64454,-1.13282 -0.0391,-0.0391 -0.0781,-0.11719 -0.15625,-0.25391 -0.72266,-1.34766 -1.13281,-4.25782 -1.21094,-8.76956 0.23438,-1.34766 0.35156,-2.77345 0.35156,-4.27736 0,-1.09375 -0.0586,-2.22657 -0.17578,-3.39845 -0.0586,-0.60547 -0.625,-1.15234 -1.25,-1.15234 -0.58594,0 -1.11329,0.44922 -1.26954,1.09375 z"
         style="font-style:normal;font-variant:normal;font-weight:normal;font-stretch:normal;font-size:40.00013733px;font-family:Chilanka;-inkscape-font-specification:'Chilanka, Normal';font-variant-ligatures:normal;font-variant-caps:normal;font-variant-numeric:normal;font-feature-settings:normal;text-align:start;writing-mode:lr-tb;text-anchor:start;fill:#ffffff;fill-opacity:1"
         id="path3119" /><path
         d="m 207.99044,123.31672 h 3.43752 c -0.0195,1.48438 -0.0195,5.31252 -0.0586,11.50394 l -0.0195,3.8672 c 0,0.82032 0.64453,1.23048 1.26954,1.23048 0.64453,0 1.26953,-0.41016 1.26953,-1.21094 l 0.0195,-3.88674 c 0.0391,-6.23049 0.0391,-10.05862 0.0586,-11.50394 h 3.32032 c 0.6836,0 1.26954,-0.58594 1.26954,-1.26954 0,-0.68359 -0.58594,-1.26953 -1.26954,-1.26953 h -3.30079 c 0.0195,-1.69923 0.0391,-3.00783 0.0586,-3.9258 0.0586,-1.69922 1.69923,-2.79298 3.6133,-2.79298 0.37109,0 0.76172,0.0391 1.13281,0.11719 1.3086,0.29297 2.38282,1.15235 3.30079,2.5586 0.25391,0.41016 0.62501,0.56641 0.9961,0.56641 0.6836,0 1.36719,-0.56641 1.36719,-1.26953 0,-0.21485 -0.0586,-0.44922 -0.21484,-0.6836 -1.28907,-1.99219 -2.9297,-3.22267 -4.90236,-3.65236 -0.58594,-0.13671 -1.15235,-0.19531 -1.71876,-0.19531 -3.28126,0 -6.03517,2.10938 -6.1133,5.37111 -0.0195,0.87891 -0.0391,2.16798 -0.0586,3.90627 h -3.45705 c -0.68359,0 -1.26953,0.58594 -1.26953,1.26953 0,0.6836 0.58594,1.26954 1.26953,1.26954 z"
         style="font-style:normal;font-variant:normal;font-weight:normal;font-stretch:normal;font-size:40.00013733px;font-family:Chilanka;-inkscape-font-specification:'Chilanka, Normal';font-variant-ligatures:normal;font-variant-caps:normal;font-variant-numeric:normal;font-feature-settings:normal;text-align:start;writing-mode:lr-tb;text-anchor:start;fill:#ffffff;fill-opacity:1"
         id="path3121" /><path
         d="m 222.678,123.31672 h 3.43751 c -0.0195,1.48438 -0.0195,5.31252 -0.0586,11.50394 l -0.0195,3.8672 c 0,0.82032 0.64454,1.23048 1.26954,1.23048 0.64453,0 1.26953,-0.41016 1.26953,-1.21094 l 0.0195,-3.88674 c 0.0391,-6.23049 0.0391,-10.05862 0.0586,-11.50394 h 3.32032 c 0.6836,0 1.26954,-0.58594 1.26954,-1.26954 0,-0.68359 -0.58594,-1.26953 -1.26954,-1.26953 h -3.30079 c 0.0195,-1.69923 0.0391,-3.00783 0.0586,-3.9258 0.0586,-1.69922 1.69922,-2.79298 3.61329,-2.79298 0.37109,0 0.76172,0.0391 1.13282,0.11719 1.30859,0.29297 2.38282,1.15235 3.30079,2.5586 0.25391,0.41016 0.625,0.56641 0.9961,0.56641 0.68359,0 1.36719,-0.56641 1.36719,-1.26953 0,-0.21485 -0.0586,-0.44922 -0.21485,-0.6836 -1.28906,-1.99219 -2.92969,-3.22267 -4.90236,-3.65236 -0.58594,-0.13671 -1.15235,-0.19531 -1.71875,-0.19531 -3.28126,0 -6.03518,2.10938 -6.11331,5.37111 -0.0195,0.87891 -0.0391,2.16798 -0.0586,3.90627 H 222.678 c -0.6836,0 -1.26954,0.58594 -1.26954,1.26953 0,0.6836 0.58594,1.26954 1.26954,1.26954 z"
         style="font-style:normal;font-variant:normal;font-weight:normal;font-stretch:normal;font-size:40.00013733px;font-family:Chilanka;-inkscape-font-specification:'Chilanka, Normal';font-variant-ligatures:normal;font-variant-caps:normal;font-variant-numeric:normal;font-feature-settings:normal;text-align:start;writing-mode:lr-tb;text-anchor:start;fill:#ffffff;fill-opacity:1"
         id="path3123" /></g></g></svg>