<?xml version="1.0" encoding="UTF-8" standalone="no"?>
<svg
   id="Layer_1"
   data-name="Layer 1"
   viewBox="0 0 750 240"
   version="1.1"
   sodipodi:docname="aurora2.svg"
   width="750"
   height="240"
   inkscape:version="1.1.1 (c3084ef, 2021-09-22)"
   xmlns:inkscape="http://www.inkscape.org/namespaces/inkscape"
   xmlns:sodipodi="http://sodipodi.sourceforge.net/DTD/sodipodi-0.dtd"
   xmlns="http://www.w3.org/2000/svg"
   xmlns:svg="http://www.w3.org/2000/svg">
  <sodipodi:namedview
     id="namedview28"
     pagecolor="#505050"
     bordercolor="#eeeeee"
     borderopacity="1"
     inkscape:pageshadow="0"
     inkscape:pageopacity="0"
     inkscape:pagecheckerboard="0"
     showgrid="false"
     height="260px"
     inkscape:zoom="0.41635101"
     inkscape:cx="194.54738"
     inkscape:cy="49.237301"
     inkscape:window-width="1920"
     inkscape:window-height="1027"
     inkscape:window-x="1229"
     inkscape:window-y="25"
     inkscape:window-maximized="1"
     inkscape:current-layer="Layer_1" />
  <defs
     id="defs11">
    <style
       id="style9">.cls-1{fill:#fff;}.cls-2{fill:#70d44b;}</style>
  </defs>
  <g
     id="g117"
     transform="translate(-20.993329,-24)">
    <path
       class="cls-1"
       d="m 393.62,108.7 a 1,1 0 0 1 1,1 v 41.48 c 0,19.66 -12.31,29.35 -28.54,29.35 -16.23,0 -28.54,-9.69 -28.54,-29.35 v -41.5 a 1,1 0 0 1 1,-1 h 9.64 a 1,1 0 0 1 1,1 v 40.77 c 0,13.72 7.16,19.16 16.95,19.16 9.79,0 16.87,-5.44 16.87,-19.16 v -40.77 a 1,1 0 0 1 1,-1 z"
       id="path13" />
    <path
       class="cls-1"
       d="m 562.59,144 c -0.1,20.77 -15.94,36.51 -36.61,36.51 -20.67,0 -36.61,-15.74 -36.61,-36.51 0,-20.77 15.94,-36.51 36.61,-36.51 20.67,0 36.51,15.74 36.61,36.51 z m -61.72,0 c 0,14.72 10.79,25.61 25.11,25.61 14.32,0 25,-10.89 25,-25.61 0,-14.72 -10.79,-25.61 -25,-25.61 -14.21,0 -25.11,10.89 -25.11,25.61 z"
       id="path15" />
    <path
       class="cls-1"
       d="m 662.77,179.3 h -10 a 1,1 0 0 1 -0.91,-1.34 l 26.41,-68.22 a 1.47,1.47 0 0 1 1.37,-0.94 h 12.49 a 1.46,1.46 0 0 1 1.37,0.94 L 719.93,178 a 1,1 0 0 1 -0.91,1.34 H 709 a 1,1 0 0 1 -0.92,-0.64 l -21.3,-56.17 a 1,1 0 0 0 -1.83,0 l -21.3,56.17 a 1,1 0 0 1 -0.88,0.6 z"
       id="path17" />
    <path
       class="cls-1"
       d="m 263,179.3 h -10 a 1,1 0 0 1 -0.91,-1.34 l 26.41,-68.22 a 1.46,1.46 0 0 1 1.37,-0.94 h 12.49 a 1.47,1.47 0 0 1 1.37,0.94 L 320.12,178 a 1,1 0 0 1 -0.91,1.34 h -10 a 1,1 0 0 1 -0.92,-0.64 L 287,122.49 a 1,1 0 0 0 -1.83,0 l -21.3,56.17 A 1,1 0 0 1 263,179.3 Z"
       id="path19" />
    <path
       class="cls-1"
       d="m 633.42,177.71 -19.81,-25.3 c 11.18,-2.12 17.72,-9.67 17.72,-21.25 0,-13.3 -8.66,-22.36 -24,-22.36 h -27.6 a 1.47,1.47 0 0 0 -1.47,1.47 v 0 a 9.41,9.41 0 0 0 9.41,9.41 h 18.49 c 9.26,0 13.69,4.73 13.69,11.58 0,6.85 -4.33,11.68 -13.69,11.68 h -26.43 a 1.47,1.47 0 0 0 -1.47,1.47 v 33.91 a 1,1 0 0 0 1,1 h 9.42 a 1,1 0 0 0 1,-1 V 153 h 10.88 l 17.2,22.45 a 9.78,9.78 0 0 0 7.77,3.84 h 7.16 a 1,1 0 0 0 0.73,-1.58 z"
       id="path21" />
    <path
       class="cls-1"
       d="m 473.49,177.71 -19.81,-25.3 c 11.18,-2.12 17.73,-9.67 17.73,-21.25 0,-13.3 -8.66,-22.36 -24,-22.36 H 419.8 a 1.47,1.47 0 0 0 -1.47,1.47 v 0 a 9.42,9.42 0 0 0 9.41,9.41 h 18.49 c 9.27,0 13.7,4.73 13.7,11.58 0,6.85 -4.33,11.68 -13.7,11.68 H 419.8 a 1.47,1.47 0 0 0 -1.47,1.47 v 33.91 a 1,1 0 0 0 1,1 h 9.43 a 1,1 0 0 0 1,-1 V 153 h 10.87 l 17.2,22.45 a 9.81,9.81 0 0 0 7.77,3.84 h 7.16 a 1,1 0 0 0 0.73,-1.58 z"
       id="path23" />
    <path
       class="cls-2"
       d="m 144,83 a 15.92,15.92 0 0 1 14.31,8.84 l 45,90 A 16,16 0 0 1 189,205 H 99 A 16,16 0 0 1 84.69,181.84 l 45,-90 A 15.92,15.92 0 0 1 144,83 m 0,-11 a 27,27 0 0 0 -24.15,14.92 l -45,90 A 27,27 0 0 0 99,216 h 90 a 27,27 0 0 0 24.15,-39.08 l -45,-90 A 27,27 0 0 0 144,72 Z"
       id="path25" />
  </g>
</svg>
