<?xml version="1.0" encoding="UTF-8" standalone="no"?>
<svg
   width="409"
   height="73"
   viewBox="0 0 409 73"
   fill="none"
   version="1.1"
   id="svg1847"
   sodipodi:docname="community.svg"
   inkscape:version="1.1 (1:1.1+202105261517+ce6663b3b7)"
   xmlns:inkscape="http://www.inkscape.org/namespaces/inkscape"
   xmlns:sodipodi="http://sodipodi.sourceforge.net/DTD/sodipodi-0.dtd"
   xmlns="http://www.w3.org/2000/svg"
   xmlns:svg="http://www.w3.org/2000/svg">
  <defs
     id="defs1851" />
  <sodipodi:namedview
     id="namedview1849"
     pagecolor="#ffffff"
     bordercolor="#666666"
     borderopacity="1.0"
     inkscape:pageshadow="2"
     inkscape:pageopacity="0.0"
     inkscape:pagecheckerboard="0"
     showgrid="false"
     inkscape:zoom="0.32915648"
     inkscape:cx="271.90715"
     inkscape:cy="455.71031"
     inkscape:window-width="1920"
     inkscape:window-height="1016"
     inkscape:window-x="1280"
     inkscape:window-y="27"
     inkscape:window-maximized="1"
     inkscape:current-layer="svg1847" />
  <path
     d="M76.2876 24.3072C51.3028 37.8871 26.3161 10.7055 1.33126 23.8747C1.06413 24.0162 0.743164 23.8248 0.743164 23.5238V4.49565C0.743164 4.34813 0.822903 4.21257 0.952482 4.14279C25.9373 -9.43707 50.9241 17.7446 75.9089 4.57539C76.176 4.43385 76.497 4.62523 76.497 4.92625V23.9544C76.497 24.0999 76.4172 24.2375 76.2876 24.3072Z"
     fill="black"
     id="path1823"
     style="fill:#ffffff;fill-opacity:1" />
  <path
     d="M76.2876 50.223C51.3028 63.8029 26.316 36.6212 1.33125 49.7904C1.06412 49.9319 0.743164 49.7406 0.743164 49.4396V30.4114C0.743164 30.2639 0.822902 30.1283 0.952481 30.0585C25.9373 16.4787 50.9241 43.6603 75.9089 30.4911C76.176 30.3496 76.4969 30.541 76.4969 30.842V49.8702C76.4969 50.0157 76.4172 50.1532 76.2876 50.223Z"
     fill="black"
     id="path1825"
     style="fill:#ffffff;fill-opacity:1" />
  <path
     d="M0.743164 56.2994V72.1818C0.743164 72.5366 1.17177 72.714 1.42296 72.4628L21.5316 52.3542C21.5316 52.3542 15.7903 51.5727 9.73793 52.7469C4.54481 53.7556 1.64025 55.492 0.92059 55.9645C0.808953 56.0402 0.743164 56.1658 0.743164 56.2994Z"
     fill="black"
     id="path1827"
     style="fill:#ffffff;fill-opacity:1" />
  <path
     d="M112.427 15.8206C119.568 15.8206 124.38 19.546 125.932 25.9621H118.119C117.291 23.5302 115.377 21.9779 112.375 21.9779C108.34 21.9779 105.649 25.0308 105.649 30.619C105.649 36.2072 108.34 39.2082 112.375 39.2082C115.377 39.2082 117.239 37.863 118.119 35.2758H125.932C124.38 41.3815 119.568 45.4174 112.427 45.4174C104.148 45.4174 98.25 39.6222 98.25 30.619C98.25 21.6158 104.148 15.8206 112.427 15.8206Z"
     fill="black"
     id="path1829"
     style="fill:#ffffff;fill-opacity:1" />
  <path
     d="M144.334 45.4174C136.055 45.4174 129.794 39.6222 129.794 30.619C129.794 21.564 136.262 15.8206 144.541 15.8206C152.819 15.8206 159.287 21.564 159.287 30.619C159.287 39.6222 152.664 45.4174 144.334 45.4174ZM144.334 39.1048C148.163 39.1048 151.836 36.3107 151.836 30.619C151.836 24.8755 148.266 22.1332 144.437 22.1332C140.608 22.1332 137.141 24.8755 137.141 30.619C137.141 36.3107 140.453 39.1048 144.334 39.1048Z"
     fill="black"
     id="path1831"
     style="fill:#ffffff;fill-opacity:1" />
  <path
     d="M201.838 29.1184C201.838 24.565 199.82 22.1848 195.992 22.1848C192.111 22.1848 190.093 24.565 190.093 29.1184V44.9516H182.849V29.1184C182.849 24.565 180.831 22.1848 177.002 22.1848C173.07 22.1848 171.052 24.565 171.052 29.1184V44.9516H163.808V16.2862H171.052V19.753C172.863 17.3728 175.398 15.8723 178.968 15.8723C183.418 15.8723 186.574 17.7867 188.541 21.357C190.403 18.0972 193.663 15.8723 197.854 15.8723C204.736 15.8723 209.082 20.2186 209.082 28.1352V44.9516H201.838V29.1184Z"
     fill="black"
     id="path1833"
     style="fill:#ffffff;fill-opacity:1" />
  <path
     d="M252.494 29.1184C252.494 24.565 250.476 22.1848 246.647 22.1848C242.767 22.1848 240.749 24.565 240.749 29.1184V44.9516H233.505V29.1184C233.505 24.565 231.487 22.1848 227.658 22.1848C223.725 22.1848 221.707 24.565 221.707 29.1184V44.9516H214.463V16.2862H221.707V19.753C223.518 17.3728 226.054 15.8723 229.624 15.8723C234.074 15.8723 237.23 17.7867 239.196 21.357C241.059 18.0972 244.319 15.8723 248.51 15.8723C255.392 15.8723 259.738 20.2186 259.738 28.1352V44.9516H252.494V29.1184Z"
     fill="black"
     id="path1835"
     style="fill:#ffffff;fill-opacity:1" />
  <path
     d="M290.544 44.8269H283.248V41.2049C281.437 43.6368 278.798 45.1891 275.228 45.1891C268.553 45.1891 264.259 40.8427 264.259 32.9778V16.1614H271.503V31.943C271.503 36.548 273.52 39.0317 277.349 39.0317C281.282 39.0317 283.248 36.548 283.248 31.943V16.1614H290.544V44.8269Z"
     fill="black"
     id="path1837"
     style="fill:#ffffff;fill-opacity:1" />
  <path
     d="M314.966 28.9812C314.966 24.3761 312.948 21.8924 309.119 21.8924C305.187 21.8924 303.169 24.3761 303.169 28.9812V44.8144H295.925V16.149H303.169V19.7192C305.032 17.2873 307.619 15.7351 311.293 15.7351C317.967 15.7351 322.21 20.0814 322.21 27.9981V44.8144H314.966V28.9812Z"
     fill="black"
     id="path1839"
     style="fill:#ffffff;fill-opacity:1" />
  <path
     d="M326.836 6.93114C326.836 4.55098 328.699 2.68823 331.286 2.68823C333.821 2.68823 335.736 4.55098 335.736 6.93114C335.736 9.3113 333.821 11.174 331.286 11.174C328.699 11.174 326.836 9.3113 326.836 6.93114ZM327.612 16.1413H334.856V44.8067H327.612V16.1413Z"
     fill="black"
     id="path1841"
     style="fill:#ffffff;fill-opacity:1" />
  <path
     d="M342.79 22.0917H339.375V16.1413H342.79V9.05249H350.086V16.1413H352.885L355.467 22.0917H350.086V35.9587C350.086 37.8732 350.862 38.7011 353.139 38.7011H355.467V44.8067H351.949C346.464 44.8067 342.79 42.4783 342.79 35.907V22.0917Z"
     fill="black"
     id="path1843"
     style="fill:#ffffff;fill-opacity:1" />
  <path
     d="M380.223 16.1416H387.932L370.185 58.3636H362.475L368.684 44.0826L357.197 16.1416H365.321L372.72 36.166L380.223 16.1416Z"
     fill="black"
     id="path1845"
     style="fill:#ffffff;fill-opacity:1" />
</svg>
