<svg width="169" height="40" viewBox="0 0 169 40" fill="none" xmlns="http://www.w3.org/2000/svg">
    <path fill-rule="evenodd" clip-rule="evenodd" d="M1 31.6742C1 32.7439 1.86858 33.6111 2.94009 33.6111H8.94012C10.0116 33.6111 10.8802 32.7439 10.8802 31.6742V27.1913C10.8802 26.6609 11.311 26.2308 11.8423 26.2308H15.7362C16.8077 26.2308 17.6763 25.3636 17.6763 24.2938V17.5143L20.0597 17.5143C21.1315 17.5143 22 16.6469 22 15.5772V8.32582C22 7.25602 21.1314 6.38889 20.0597 6.38889L2.94009 6.38889C1.86858 6.38889 1 7.25606 1 8.32582L1 31.6742ZM16.6981 17.5143H7.67996C6.60824 17.5143 5.73969 16.6469 5.73969 15.5772V12.9139C5.73969 11.8441 6.60832 10.977 7.67996 10.977H15.7362C16.8077 10.977 17.6763 11.8442 17.6763 12.9139L17.6763 16.5377L20.0597 16.5377C20.5911 16.5377 21.0218 16.1077 21.0218 15.5772V8.32582C21.0218 7.79544 20.5912 7.36547 20.0597 7.36547L2.94009 7.36547C2.40882 7.36547 1.97818 7.79541 1.97818 8.32582L1.97818 31.6742C1.97818 32.2046 2.40882 32.6345 2.94009 32.6345H8.94012C9.4714 32.6345 9.90203 32.2046 9.90203 31.6742V27.1913C9.90203 26.1215 10.7708 25.2542 11.8423 25.2542H15.7362C16.2675 25.2542 16.6981 24.8242 16.6981 24.2938V17.5143ZM16.6981 16.5377V12.9139C16.6981 12.3835 16.2675 11.9536 15.7362 11.9536H7.67996C7.14847 11.9536 6.71787 12.3835 6.71787 12.9139V15.5772C6.71787 16.1077 7.14855 16.5377 7.67996 16.5377H16.6981Z" fill="white" stroke="white" stroke-width="0.6" stroke-miterlimit="10"/>
    <path d="M47 11.352V14.29H39.434V18.944H45.232V21.83H39.434V29.5H35.794V11.352H47ZM55.9771 29.734C54.5904 29.734 53.3424 29.4307 52.2331 28.824C51.1238 28.2 50.2484 27.3247 49.6071 26.198C48.9831 25.0713 48.6711 23.7713 48.6711 22.298C48.6711 20.8247 48.9918 19.5247 49.6331 18.398C50.2918 17.2713 51.1844 16.4047 52.3111 15.798C53.4378 15.174 54.6944 14.862 56.0811 14.862C57.4678 14.862 58.7244 15.174 59.8511 15.798C60.9778 16.4047 61.8618 17.2713 62.5031 18.398C63.1618 19.5247 63.4911 20.8247 63.4911 22.298C63.4911 23.7713 63.1531 25.0713 62.4771 26.198C61.8184 27.3247 60.9171 28.2 59.7731 28.824C58.6464 29.4307 57.3811 29.734 55.9771 29.734ZM55.9771 26.562C56.6358 26.562 57.2511 26.406 57.8231 26.094C58.4124 25.7647 58.8804 25.2793 59.2271 24.638C59.5738 23.9967 59.7471 23.2167 59.7471 22.298C59.7471 20.9287 59.3831 19.88 58.6551 19.152C57.9444 18.4067 57.0691 18.034 56.0291 18.034C54.9891 18.034 54.1138 18.4067 53.4031 19.152C52.7098 19.88 52.3631 20.9287 52.3631 22.298C52.3631 23.6673 52.7011 24.7247 53.3771 25.47C54.0704 26.198 54.9371 26.562 55.9771 26.562ZM69.8012 17.332C70.2692 16.5693 70.8759 15.9713 71.6212 15.538C72.3839 15.1047 73.2505 14.888 74.2212 14.888V18.71H73.2592C72.1152 18.71 71.2485 18.9787 70.6592 19.516C70.0872 20.0533 69.8012 20.9893 69.8012 22.324V29.5H66.1612V15.096H69.8012V17.332ZM94.5609 14.888C96.3289 14.888 97.7502 15.434 98.8249 16.526C99.9169 17.6007 100.463 19.1087 100.463 21.05V29.5H96.8229V21.544C96.8229 20.4173 96.5369 19.5593 95.9649 18.97C95.3929 18.3633 94.6129 18.06 93.6249 18.06C92.6369 18.06 91.8482 18.3633 91.2589 18.97C90.6869 19.5593 90.4009 20.4173 90.4009 21.544V29.5H86.7609V21.544C86.7609 20.4173 86.4749 19.5593 85.9029 18.97C85.3309 18.3633 84.5509 18.06 83.5629 18.06C82.5576 18.06 81.7602 18.3633 81.1709 18.97C80.5989 19.5593 80.3129 20.4173 80.3129 21.544V29.5H76.6729V15.096H80.3129V16.838C80.7809 16.2313 81.3789 15.7547 82.1069 15.408C82.8522 15.0613 83.6669 14.888 84.5509 14.888C85.6776 14.888 86.6829 15.1307 87.5669 15.616C88.4509 16.084 89.1356 16.76 89.6209 17.644C90.0889 16.812 90.7649 16.1447 91.6489 15.642C92.5502 15.1393 93.5209 14.888 94.5609 14.888ZM102.981 22.246C102.981 20.79 103.267 19.4987 103.839 18.372C104.428 17.2453 105.217 16.3787 106.205 15.772C107.21 15.1653 108.328 14.862 109.559 14.862C110.634 14.862 111.57 15.0787 112.367 15.512C113.182 15.9453 113.832 16.4913 114.317 17.15V15.096H117.983V29.5H114.317V27.394C113.849 28.07 113.199 28.6333 112.367 29.084C111.552 29.5173 110.608 29.734 109.533 29.734C108.32 29.734 107.21 29.422 106.205 28.798C105.217 28.174 104.428 27.2987 103.839 26.172C103.267 25.028 102.981 23.7193 102.981 22.246ZM114.317 22.298C114.317 21.414 114.144 20.66 113.797 20.036C113.45 19.3947 112.982 18.9093 112.393 18.58C111.804 18.2333 111.171 18.06 110.495 18.06C109.819 18.06 109.195 18.2247 108.623 18.554C108.051 18.8833 107.583 19.3687 107.219 20.01C106.872 20.634 106.699 21.3793 106.699 22.246C106.699 23.1127 106.872 23.8753 107.219 24.534C107.583 25.1753 108.051 25.6693 108.623 26.016C109.212 26.3627 109.836 26.536 110.495 26.536C111.171 26.536 111.804 26.3713 112.393 26.042C112.982 25.6953 113.45 25.21 113.797 24.586C114.144 23.9447 114.317 23.182 114.317 22.298ZM129.52 14.888C131.236 14.888 132.623 15.434 133.68 16.526C134.737 17.6007 135.266 19.1087 135.266 21.05V29.5H131.626V21.544C131.626 20.4 131.34 19.5247 130.768 18.918C130.196 18.294 129.416 17.982 128.428 17.982C127.423 17.982 126.625 18.294 126.036 18.918C125.464 19.5247 125.178 20.4 125.178 21.544V29.5H121.538V15.096H125.178V16.89C125.663 16.266 126.279 15.7807 127.024 15.434C127.787 15.07 128.619 14.888 129.52 14.888ZM137.792 22.298C137.792 20.8073 138.095 19.5073 138.702 18.398C139.308 17.2713 140.149 16.4047 141.224 15.798C142.298 15.174 143.529 14.862 144.916 14.862C146.701 14.862 148.174 15.3127 149.336 16.214C150.514 17.098 151.303 18.346 151.702 19.958H147.776C147.568 19.334 147.212 18.8487 146.71 18.502C146.224 18.138 145.618 17.956 144.89 17.956C143.85 17.956 143.026 18.3373 142.42 19.1C141.813 19.8453 141.51 20.9113 141.51 22.298C141.51 23.6673 141.813 24.7333 142.42 25.496C143.026 26.2413 143.85 26.614 144.89 26.614C146.363 26.614 147.325 25.9553 147.776 24.638H151.702C151.303 26.198 150.514 27.4373 149.336 28.356C148.157 29.2747 146.684 29.734 144.916 29.734C143.529 29.734 142.298 29.4307 141.224 28.824C140.149 28.2 139.308 27.3333 138.702 26.224C138.095 25.0973 137.792 23.7887 137.792 22.298ZM167.758 21.986C167.758 22.506 167.724 22.974 167.654 23.39H157.124C157.211 24.43 157.575 25.2447 158.216 25.834C158.858 26.4233 159.646 26.718 160.582 26.718C161.934 26.718 162.896 26.1373 163.468 24.976H167.394C166.978 26.3627 166.181 27.5067 165.002 28.408C163.824 29.292 162.376 29.734 160.66 29.734C159.274 29.734 158.026 29.4307 156.916 28.824C155.824 28.2 154.966 27.3247 154.342 26.198C153.736 25.0713 153.432 23.7713 153.432 22.298C153.432 20.8073 153.736 19.4987 154.342 18.372C154.949 17.2453 155.798 16.3787 156.89 15.772C157.982 15.1653 159.239 14.862 160.66 14.862C162.03 14.862 163.252 15.1567 164.326 15.746C165.418 16.3353 166.259 17.176 166.848 18.268C167.455 19.3427 167.758 20.582 167.758 21.986ZM163.988 20.946C163.971 20.01 163.633 19.2647 162.974 18.71C162.316 18.138 161.51 17.852 160.556 17.852C159.655 17.852 158.892 18.1293 158.268 18.684C157.662 19.2213 157.289 19.9753 157.15 20.946H163.988Z" fill="white"/>
</svg>