<svg width="544" height="79" viewBox="0 0 544 79" fill="none" xmlns="http://www.w3.org/2000/svg">
<path d="M3.07046e-06 0H78.0757V9.18537H9.18537L9.18537 45.9269L55.1122 45.9269V55.1122H6.61432e-07L3.07046e-06 0Z" fill="url(#paint0_linear)"/>
<path d="M22.9634 22.9634L22.9634 32.1488L68.8903 32.1488L68.8903 68.8903L8.03011e-07 68.8903L0 78.0757L78.0757 78.0757V22.9634L22.9634 22.9634Z" fill="url(#paint1_linear)"/>
<path d="M190.407 33.2835L171.045 1.15845H156.576L183.64 45.6068V76.7839H196.965V45.6068L223.925 1.15845H209.768L190.407 33.2835Z" fill="white"/>
<path d="M292.051 1.15845H279.247V54.1384L244.271 1.15845H230.531V76.7839H243.335V21.2761L280.392 76.7839H292.051V1.15845Z" fill="white"/>
<path d="M327.918 1.15845L299.604 76.7839H312.824L319.174 59.5101H351.443L357.897 76.7839H371.325L343.012 1.15845H327.918ZM335.204 16.115L347.071 47.7134H323.546L335.204 16.115Z" fill="white"/>
<path d="M378.923 76.7839H403.905C427.118 76.7839 441.483 62.038 441.483 38.9712C441.483 15.9044 427.118 1.15845 403.905 1.15845H378.923V76.7839ZM391.934 65.1979V12.7445H403.801C419.311 12.7445 428.367 22.9613 428.367 38.9712C428.367 54.8757 419.311 65.1979 403.905 65.1979H391.934Z" fill="white"/>
<path d="M464.714 1.15845H451.39V76.7839H464.714V1.15845Z" fill="white"/>
<path d="M500.593 1.15845L472.279 76.7839H485.499L491.849 59.5101H524.118L530.572 76.7839H544L515.686 1.15845H500.593ZM507.879 16.115L519.746 47.7134H496.221L507.879 16.115Z" fill="white"/>
<path d="M99.9265 63.1536C105.756 72.8437 116.857 77.9427 129.66 77.9427C145.066 77.9427 157.974 68.7792 157.974 53.9279C157.974 37.4968 143.505 34.6529 131.43 31.9144C121.333 29.5972 115.607 28.2279 115.607 21.5922C115.607 15.5885 121.124 11.4808 129.14 11.4808C137.884 11.4808 143.401 16.0099 147.564 22.5402L157.349 14.0086C152.353 6.10902 142.36 0 129.556 0C114.462 0 102.596 8.95287 102.596 22.9615C102.596 37.7074 114.671 41.0779 125.913 43.8164C137.051 46.555 144.858 47.6082 144.858 55.2972C144.858 62.5648 138.508 66.4619 130.077 66.4619C121.541 66.4619 114.324 63.7747 109.12 55.5591L99.9265 63.1536Z" fill="white"/>
<defs>
<linearGradient id="paint0_linear" x1="78.0757" y1="0" x2="78.0757" y2="78.0757" gradientUnits="userSpaceOnUse">
<stop stop-color="#00D1FF"/>
<stop offset="1" stop-color="#0050EC"/>
</linearGradient>
<linearGradient id="paint1_linear" x1="78.0757" y1="0" x2="78.0757" y2="78.0757" gradientUnits="userSpaceOnUse">
<stop stop-color="#00D1FF"/>
<stop offset="1" stop-color="#0050EC"/>
</linearGradient>
</defs>
</svg>
