<svg xmlns="http://www.w3.org/2000/svg" viewBox="0 0 229.54 190.55"><defs><style>.cls-1{fill:#fff;}</style></defs><g id="Ebene_2" data-name="Ebene 2"><g id="Ebene_1-2" data-name="Ebene 1"><path class="cls-1" d="M139.73,59.89,115.05,73.63,90.37,59.89V34.5H81.59v28a4.41,4.41,0,0,0,2.25,3.84l28.81,16a4.42,4.42,0,0,0,2.13.55h.54a4.42,4.42,0,0,0,2.13-.55l28.8-16a4.39,4.39,0,0,0,2.26-3.84v-28h-8.78Z"/><path class="cls-1" d="M146.25,16.59l-28.8-16A4.42,4.42,0,0,0,115.32,0h-.54a4.42,4.42,0,0,0-2.13.55l-28.81,16a4.38,4.38,0,0,0-2.25,3.83v3l8,0L115.05,9.26l25.43,14.16,8-.09V20.42A4.37,4.37,0,0,0,146.25,16.59Z"/><path class="cls-1" d="M26.65,152.53V118.75h7.74v33.72c0,5.73-3.66,8.72-9,8.72H9c-5,0-9-3-9-8.72V118.75H7.8v33.78c0,1.1.43,1.77,1.35,1.77H25.24C26.22,154.3,26.65,153.63,26.65,152.53Z"/><path class="cls-1" d="M47.62,118.75h7.31l19.7,29.94V118.75h7.31v42.44H74.63l-19.7-30v30H47.62Z"/><path class="cls-1" d="M97.3,118.75h7.32v42.44H97.3Z"/><path class="cls-1" d="M127.91,125.64H116.26v-6.89h30.67v6.89h-11.7v35.55h-7.32Z"/><path class="cls-1" d="M157.11,118.75h28.42v6.89h-21.1V135.7H181v6.89H164.43V154.3H186v6.89H157.11Z"/><path class="cls-1" d="M229.54,127.47v25c0,5.73-3.72,8.72-9,8.72H197.29V118.75h23.23C225.82,118.75,229.54,121.74,229.54,127.47ZM220.4,154.3c.91,0,1.34-.67,1.34-1.77V127.34c0-1-.43-1.7-1.34-1.7H204.61V154.3Z"/><path class="cls-1" d="M1.93,179.82v10.51H.17V176.22H2L7.39,187l5.37-10.78h1.83v14.11H12.8V179.82L7.33,190.55Z"/><path class="cls-1" d="M23.55,176.22l6.39,14.11H28L26.9,188H20l-.91,2.35H17.29l5.43-14.11Zm-.42,3.44-2.5,6.63h5.5Z"/><path class="cls-1" d="M32.64,176.22h1.83l7.36,11.09V176.22h1.82v14.11H41.83l-7.36-11.11v11.11H32.64Z"/><path class="cls-1" d="M57.22,188.16V176.22h1.87v11.64a2.36,2.36,0,0,1-2.56,2.47H50.61a2.36,2.36,0,0,1-2.56-2.47V176.22h1.87v11.94c0,.3.12.49.43.49h6.44C57.1,188.65,57.22,188.46,57.22,188.16Z"/><path class="cls-1" d="M63.49,176.22h8.86v1.68h-7v4.38h6.07V184H65.31v6.37H63.49Z"/><path class="cls-1" d="M79.63,176.22,86,190.33h-2L83,188H76.06l-.91,2.35H73.36l5.44-14.11Zm-.42,3.44-2.5,6.63h5.5Z"/><path class="cls-1" d="M88.35,187.86v-9.17a2.36,2.36,0,0,1,2.56-2.47H96.4a2.27,2.27,0,0,1,2.48,2.47v1.48H97.05v-1.79c0-.3-.12-.48-.42-.48H90.22v10.75h6.41c.3,0,.42-.19.42-.49v-1.77h1.83v1.47a2.27,2.27,0,0,1-2.48,2.47H90.91A2.36,2.36,0,0,1,88.35,187.86Z"/><path class="cls-1" d="M105.61,177.9h-4.07v-1.68h10v1.68h-4.09v12.43h-1.83Z"/><path class="cls-1" d="M123.64,188.16V176.22h1.87v11.64a2.36,2.36,0,0,1-2.56,2.47H117a2.36,2.36,0,0,1-2.56-2.47V176.22h1.87v11.94c0,.3.12.49.43.49h6.44C123.52,188.65,123.64,188.46,123.64,188.16Z"/><path class="cls-1" d="M140.6,190.33h-2.19l-4.67-5.7h-2v5.7h-1.82V176.22h7.26a2.36,2.36,0,0,1,2.55,2.47v3.47a2.36,2.36,0,0,1-2.55,2.47h-1.24ZM131.73,183h6.13V177.9h-6.13Z"/><path class="cls-1" d="M143.78,176.22h1.83v14.11h-1.83Z"/><path class="cls-1" d="M150.47,176.22h1.83l7.36,11.09V176.22h1.83v14.11h-1.83l-7.36-11.11v11.11h-1.83Z"/><path class="cls-1" d="M174,190.33h-5.52a2.36,2.36,0,0,1-2.55-2.47v-9.17a2.36,2.36,0,0,1,2.55-2.47h5.5a2.27,2.27,0,0,1,2.47,2.47v1.38h-1.82v-1.69c0-.3-.12-.48-.43-.48h-6.41v10.75h6.39c.31,0,.43-.19.43-.49v-3.31h-3v-1.68h4.82v4.69A2.27,2.27,0,0,1,174,190.33Z"/><path class="cls-1" d="M187.53,176.22h1.82v6.36h6.76v-6.36h1.82v14.11h-1.82v-6h-6.76v6h-1.82Z"/><path class="cls-1" d="M211.5,188.16V176.22h1.86v11.64a2.36,2.36,0,0,1-2.55,2.47h-5.92a2.36,2.36,0,0,1-2.56-2.47V176.22h1.87v11.94c0,.3.12.49.42.49h6.45C211.38,188.65,211.5,188.46,211.5,188.16Z"/><path class="cls-1" d="M227.8,180.29c0,1.56-.18,2.31-1.17,2.9,1,.61,1.22,1.91,1.22,3.33,0,2.71-1,3.81-3.17,3.81h-6.91V176.22h6.71C226.83,176.22,227.8,177.17,227.8,180.29Zm-1.9,2v-3.9c0-.3-.14-.48-.45-.48,0,0-5.86,0-5.86,0v4.36Zm-.45,6.37c.31,0,.45-.19.45-.49V183.9h-6.31v4.75Z"/></g></g></svg>