<svg width="253" height="45" viewBox="0 0 253 45" fill="none" xmlns="http://www.w3.org/2000/svg">
<path d="M76.4323 33.8761L69.9531 10.3013H74.3794L79.5114 30.5219H78.3886L83.745 10.3013H88.0432L93.3996 30.5219H92.2448L97.3768 10.3013H101.803L95.3559 33.8761H90.6412L85.2525 14.1301H86.5357L81.1473 33.8761H76.4323Z" fill="#FFF8F0"/>
<path d="M106.872 34.256C105.674 34.256 104.627 34.0552 103.729 33.6548C102.831 33.254 102.135 32.6847 101.644 31.9458C101.152 31.2078 100.906 30.3321 100.906 29.3194C100.906 28.3913 101.12 27.5526 101.548 26.8036C101.975 26.0552 102.633 25.4271 103.52 24.9209C104.407 24.4144 105.525 24.056 106.872 23.8451L112.678 22.9271V25.9333L107.642 26.8194C106.765 26.9672 106.113 27.2416 105.685 27.6423C105.257 28.0433 105.044 28.56 105.044 29.1928C105.044 29.8048 105.279 30.2955 105.749 30.6643C106.219 31.0335 106.818 31.2179 107.545 31.2179C108.465 31.2179 109.272 31.0233 109.967 30.6327C110.662 30.2424 111.202 29.7148 111.587 29.0504C111.972 28.386 112.164 27.6423 112.164 26.8194V22.3893C112.164 21.609 111.865 20.9652 111.266 20.459C110.667 19.9528 109.865 19.6995 108.861 19.6995C107.941 19.6995 107.134 19.9423 106.439 20.4274C105.744 20.913 105.225 21.5459 104.883 22.3259L101.612 20.7438C101.954 19.8577 102.488 19.0825 103.216 18.4181C103.942 17.7534 104.803 17.2367 105.798 16.8673C106.792 16.4984 107.866 16.3137 109.021 16.3137C110.432 16.3137 111.672 16.5723 112.742 17.089C113.811 17.6062 114.65 18.318 115.259 19.2249C115.869 20.1321 116.173 21.1868 116.173 22.3893V33.8761H112.389V30.8699H113.223C112.795 31.5874 112.265 32.199 111.635 32.7052C111.004 33.2117 110.293 33.5967 109.502 33.8603C108.711 34.1237 107.834 34.256 106.872 34.256Z" fill="#FFF8F0"/>
<path d="M118.898 33.876V16.6932H122.651V20.3957L122.331 19.8576C122.736 18.6131 123.367 17.7429 124.223 17.2471C125.078 16.7516 126.115 16.5034 127.334 16.5034H128.36V20.0158H126.853C125.655 20.0158 124.693 20.3799 123.966 21.1075C123.239 21.8354 122.876 22.8639 122.876 24.193V33.876H118.898Z" fill="#FFF8F0"/>
<path d="M129.449 40.205V16.6933H133.202V20.1741L132.817 19.3199C133.415 18.3919 134.239 17.6586 135.287 17.1205C136.334 16.5825 137.532 16.3137 138.879 16.3137C140.525 16.3137 142.011 16.7091 143.337 17.5001C144.663 18.2915 145.711 19.3622 146.48 20.7122C147.25 22.0625 147.635 23.5918 147.635 25.3005C147.635 26.9672 147.255 28.4807 146.497 29.8414C145.737 31.2021 144.695 32.278 143.369 33.0693C142.043 33.8603 140.547 34.256 138.879 34.256C137.575 34.256 136.388 33.9974 135.319 33.4805C134.249 32.9638 133.405 32.2202 132.785 31.2498L133.426 30.4903V40.205H129.449ZM138.43 30.6485C139.413 30.6485 140.29 30.4164 141.06 29.9523C141.83 29.4884 142.428 28.8555 142.856 28.0535C143.283 27.252 143.498 26.3344 143.498 25.3005C143.498 24.2672 143.283 23.3496 142.856 22.5475C142.428 21.7461 141.83 21.1132 141.06 20.6488C140.29 20.1852 139.413 19.9528 138.43 19.9528C137.489 19.9528 136.634 20.1795 135.864 20.633C135.094 21.087 134.495 21.7199 134.068 22.5317C133.64 23.3439 133.426 24.2672 133.426 25.3005C133.426 26.3344 133.64 27.252 134.068 28.0535C134.495 28.8555 135.094 29.4884 135.864 29.9523C136.634 30.4164 137.489 30.6485 138.43 30.6485Z" fill="#FFF8F0"/>
<path d="M158.51 34.256C156.992 34.256 155.592 33.9813 154.309 33.4331C153.026 32.8849 151.925 32.1197 151.005 31.1389C150.085 30.1578 149.412 29.0241 148.984 27.737L152.449 26.2497C153.026 27.6635 153.865 28.7551 154.966 29.525C156.067 30.2955 157.313 30.6801 158.703 30.6801C159.515 30.6801 160.215 30.5535 160.804 30.3002C161.392 30.0473 161.852 29.699 162.183 29.2559C162.514 28.8129 162.68 28.2859 162.68 27.6739C162.68 26.9144 162.456 26.2974 162.007 25.8228C161.557 25.3479 160.895 24.9841 160.018 24.7308L155.463 23.2754C153.624 22.7057 152.234 21.8569 151.294 20.728C150.353 19.5997 149.882 18.2652 149.882 16.7249C149.882 15.396 150.22 14.2201 150.893 13.1966C151.566 12.1735 152.497 11.3721 153.683 10.7917C154.87 10.2116 156.233 9.92139 157.773 9.92139C159.206 9.92139 160.516 10.1696 161.702 10.665C162.889 11.1611 163.909 11.8467 164.765 12.722C165.62 13.5977 166.262 14.6157 166.689 15.7756L163.258 17.2629C162.787 16.0605 162.071 15.1324 161.109 14.4781C160.147 13.8247 159.035 13.4973 157.773 13.4973C157.024 13.4973 156.361 13.6239 155.785 13.8768C155.207 14.1301 154.763 14.4838 154.453 14.9369C154.143 15.391 153.988 15.9234 153.988 16.5351C153.988 17.2314 154.212 17.8484 154.662 18.3862C155.111 18.9243 155.795 19.3306 156.715 19.6045L161.013 20.9336C162.937 21.5244 164.375 22.3577 165.326 23.4336C166.277 24.5095 166.753 25.8386 166.753 27.4206C166.753 28.7497 166.401 29.9314 165.695 30.9649C164.99 31.9988 164.022 32.8056 162.793 33.3857C161.563 33.9655 160.136 34.256 158.51 34.256Z" fill="#FFF8F0"/>
<path d="M176.952 34.0655C175.028 34.0655 173.542 33.5436 172.494 32.4993C171.446 31.455 170.922 29.9835 170.922 28.085V20.2053H167.875V16.6929H168.26C169.094 16.6929 169.746 16.4665 170.217 16.0127C170.687 15.5593 170.922 14.9208 170.922 14.0982V12.769H174.899V16.6929H178.876V20.2053H174.899V27.8949C174.899 28.4646 174.996 28.955 175.188 29.3664C175.381 29.7779 175.696 30.0892 176.134 30.2999C176.572 30.5111 177.133 30.6163 177.818 30.6163C177.967 30.6163 178.149 30.6061 178.364 30.5847C178.577 30.5638 178.78 30.5427 178.973 30.5215V33.8758C178.674 33.9178 178.337 33.9598 177.963 34.0024C177.588 34.0444 177.251 34.0655 176.952 34.0655Z" fill="#FFF8F0"/>
<path d="M181.023 33.8758V16.693H184.776V20.3955L184.455 19.8574C184.861 18.6129 185.492 17.7426 186.348 17.2468C187.203 16.7514 188.24 16.5032 189.459 16.5032H190.485V20.0156H188.978C187.78 20.0156 186.817 20.3797 186.091 21.1072C185.364 21.8351 185.001 22.8636 185.001 24.1927V33.8758H181.023Z" fill="#FFF8F0"/>
<path d="M199.788 34.256C198.013 34.256 196.457 33.8553 195.121 33.0535C193.785 32.2518 192.742 31.1705 191.994 29.8098C191.245 28.4491 190.871 26.9252 190.871 25.2373C190.871 23.5284 191.25 22.0047 192.01 20.6645C192.769 19.3253 193.795 18.2652 195.089 17.4843C196.382 16.7043 197.852 16.3137 199.5 16.3137C200.825 16.3137 202.006 16.5351 203.044 16.9781C204.08 17.4212 204.957 18.0331 205.673 18.8134C206.39 19.5943 206.941 20.4858 207.325 21.4875C207.71 22.4897 207.903 23.5602 207.903 24.6993C207.903 24.9951 207.886 25.2901 207.854 25.5853C207.822 25.8809 207.775 26.155 207.71 26.408H194.111V23.3701H205.433L203.541 24.7627C203.754 23.7712 203.706 22.8851 203.396 22.1045C203.086 21.3242 202.589 20.7072 201.905 20.2534C201.22 19.7999 200.418 19.5729 199.5 19.5729C198.58 19.5729 197.767 19.7999 197.062 20.2534C196.356 20.7072 195.816 21.3608 195.442 22.2153C195.068 23.0695 194.923 24.0876 195.009 25.2689C194.901 26.3874 195.051 27.3575 195.458 28.1801C195.864 29.003 196.446 29.6466 197.206 30.1105C197.965 30.5746 198.836 30.8067 199.82 30.8067C200.825 30.8067 201.675 30.5904 202.37 30.1578C203.064 29.7258 203.615 29.1719 204.022 28.4965L207.261 30.0473C206.919 30.8491 206.384 31.5716 205.658 32.2148C204.931 32.8587 204.07 33.3595 203.076 33.7179C202.081 34.0763 200.985 34.256 199.788 34.256Z" fill="#FFF8F0"/>
<path d="M215.087 34.256C213.89 34.256 212.842 34.0552 211.944 33.6548C211.046 33.254 210.351 32.6847 209.859 31.9458C209.367 31.2078 209.121 30.3321 209.121 29.3194C209.121 28.3913 209.335 27.5526 209.763 26.8036C210.19 26.0552 210.848 25.4271 211.735 24.9209C212.622 24.4144 213.74 24.056 215.087 23.8451L220.893 22.9271V25.9333L215.857 26.8194C214.98 26.9672 214.328 27.2416 213.9 27.6423C213.472 28.0433 213.259 28.56 213.259 29.1928C213.259 29.8048 213.494 30.2955 213.964 30.6643C214.434 31.0335 215.033 31.2179 215.761 31.2179C216.68 31.2179 217.487 31.0233 218.182 30.6327C218.877 30.2424 219.417 29.7148 219.802 29.0504C220.187 28.386 220.379 27.6423 220.379 26.8194V22.3893C220.379 21.609 220.08 20.9652 219.481 20.459C218.883 19.9528 218.081 19.6995 217.075 19.6995C216.156 19.6995 215.349 19.9423 214.654 20.4274C213.959 20.913 213.44 21.5459 213.098 22.3259L209.827 20.7438C210.169 19.8577 210.704 19.0825 211.431 18.4181C212.157 17.7534 213.019 17.2367 214.013 16.8673C215.007 16.4984 216.081 16.3137 217.236 16.3137C218.647 16.3137 219.887 16.5723 220.957 17.089C222.026 17.6062 222.865 18.318 223.475 19.2249C224.084 20.1321 224.388 21.1868 224.388 22.3893V33.8761H220.604V30.8699H221.438C221.01 31.5874 220.481 32.199 219.85 32.7052C219.219 33.2117 218.508 33.5967 217.717 33.8603C216.926 34.1237 216.049 34.256 215.087 34.256Z" fill="#FFF8F0"/>
<path d="M227.117 33.8761V16.6933H230.87V20.5856L230.42 19.9528C230.762 18.7503 231.415 17.8433 232.377 17.2314C233.339 16.6197 234.462 16.3137 235.745 16.3137C237.156 16.3137 238.407 16.6829 239.498 17.4212C240.588 18.1598 241.294 19.1299 241.615 20.3323L240.492 20.4274C241.026 19.0563 241.823 18.0278 242.882 17.3419C243.94 16.6567 245.163 16.3137 246.554 16.3137C247.773 16.3137 248.868 16.5881 249.841 17.1363C250.814 17.6851 251.584 18.4497 252.151 19.4305C252.717 20.4116 253.001 21.5348 253.001 22.8008V33.8761H249.024V23.7816C249.024 22.9801 248.879 22.2996 248.59 21.7407C248.302 21.1818 247.901 20.7438 247.388 20.4274C246.875 20.111 246.265 19.9528 245.56 19.9528C244.854 19.9528 244.239 20.111 243.715 20.4274C243.191 20.7438 242.78 21.1818 242.481 21.7407C242.181 22.2996 242.031 22.9801 242.031 23.7816V33.8761H238.054V23.7816C238.054 22.9801 237.91 22.2996 237.621 21.7407C237.333 21.1818 236.932 20.7438 236.418 20.4274C235.905 20.111 235.296 19.9528 234.59 19.9528C233.885 19.9528 233.27 20.111 232.746 20.4274C232.222 20.7438 231.816 21.1818 231.527 21.7407C231.239 22.2996 231.094 22.9801 231.094 23.7816V33.8761L227.117 33.8761Z" fill="#FFF8F0"/>
<path d="M3.87625 25.5038L2.58676 26.7745V26.7715L0 29.3235V29.7654L2.58676 32.3175V32.3175L6.45528 36.1342V22.9624L3.87625 25.4992V25.5038Z" fill="#E52344"/>
<path d="M12.9234 27.3885L10.3367 24.8478V19.1305L8.96996 20.4713V23.5033L7.74219 22.2996V37.4065L10.3367 39.9738V39.9661L11.6262 41.2384L14.213 43.7905V15.3062L12.9311 16.5708L12.9234 27.3885Z" fill="#E52344"/>
<path d="M20.6707 23.9716L18.086 26.5216L18.0881 17.3835V11.4795L16.7941 12.7561V16.1068L16.7995 27.7908L15.5 29.0729V44.1777L19.3821 40.3476L21.9702 37.7942V7.64941L20.6707 8.9315V23.9716Z" fill="#E52344"/>
<path d="M28.4339 16.3168L25.8458 18.8702V3.83013L24.5464 5.11215L24.5463 20.1414L23.2632 21.4182L23.2578 36.5283L25.8458 33.9749V33.9749L27.1454 32.6928V32.7036L29.728 30.1556L29.728 30.1449L29.728 28.8628V0L28.4285 1.28208L28.4339 16.3168Z" fill="#E52344"/>
<path d="M36.8306 5.71567L36.1863 5.08001V20.1416L33.5982 17.5883L33.5983 2.45122L32.9594 1.82094L32.9594 1.89637L32.3151 1.26074L32.3096 16.3062L31.0156 15.0403V30.1343L33.5982 32.6822L34.8868 33.9535V33.9535L37.4804 36.5123V6.28119L36.8306 5.64018V5.71567Z" fill="#E52344"/>
<path d="M44.5861 13.3701L43.9418 12.7237V16.1496L43.9363 26.7671V27.7907L42.6423 26.5139L41.3537 25.2427V10.1056L40.6986 9.45922L40.6985 9.53465L40.0651 8.89893V19.9744V23.9606L38.7657 22.6893L38.7656 37.7833L41.3537 40.3367L42.6423 41.6079L45.2249 44.1559V28.0384L45.2249 14.8837V13.9249L44.5861 13.2946V13.3701Z" fill="#E52344"/>
<path d="M52.9787 21.5073L51.6969 20.2503V23.5871L49.1101 26.1354V17.7211L47.8207 16.4641V16.487L47.8284 27.3981L46.5234 28.6837V43.7905L49.1101 41.2384L50.3996 39.9662V39.9738L52.9865 37.4141V35.6924L52.9787 21.5759V21.5073Z" fill="#E52344"/>
<path d="M58.1498 26.5659V26.572L56.8681 25.3181V25.3165L54.2812 22.7874V36.1344L56.8681 33.5899V33.5822L58.1498 32.3177L60.7367 29.7655V29.1027L58.1498 26.5659Z" fill="#E52344"/>
</svg>
