<svg width="128" height="35" viewBox="0 0 128 35" fill="none" xmlns="http://www.w3.org/2000/svg">
<rect width="128" height="35" fill="#147355"/>
<rect x="8.34357" width="5.12393" height="35" fill="#085B4F"/>
<rect x="13.4675" width="5.81104" height="35" fill="#49985C"/>
<rect x="19.2785" width="3.47485" height="35" fill="#5DA563"/>
<rect x="22.7534" width="5.81104" height="35" fill="#147355"/>
<rect x="28.5644" width="5.12393" height="35" fill="#147355"/>
<rect x="33.6884" width="2.02209" height="35" fill="#5DA563"/>
<rect x="35.7104" width="4.88834" height="35" fill="#085B4F"/>
<rect x="40.5988" width="4.02454" height="35" fill="#49985C"/>
<rect x="44.6233" width="4.88834" height="35" fill="#147355"/>
<rect x="49.5313" width="8.36319" height="35" fill="#147355"/>
<rect x="57.8945" width="2.84663" height="35" fill="#49985C"/>
<rect x="60.7411" width="4.88834" height="35" fill="#085B4F"/>
<rect x="65.6295" width="5.02577" height="35" fill="#147355"/>
<rect x="70.6748" width="4.90798" height="35" fill="#147355"/>
<rect x="75.5828" width="3.37669" height="35" fill="#5DA563"/>
<rect x="78.9595" width="4.88834" height="35" fill="#147355"/>
<rect x="83.8478" width="5.08466" height="35" fill="#085B4F"/>
<rect x="88.9325" width="4.88834" height="35" fill="#49985C"/>
<rect x="93.8209" width="3.39632" height="35" fill="#49985C"/>
<rect x="97.2172" width="4.88834" height="35" fill="#147355"/>
<rect x="102.106" width="2.84663" height="35" fill="#5DA563"/>
<rect x="104.972" width="4.88834" height="35" fill="#085B4F"/>
<rect x="109.86" width="4.88834" height="35" fill="#147355"/>
<rect x="114.748" width="4.88834" height="35" fill="#49985C"/>
<path fill-rule="evenodd" clip-rule="evenodd" d="M28.27 27.1514H24.2651L21.0454 17.7108L17.8258 27.1514H13.8601L8.38284 8H13.5068L16.1178 18.1163L19.3374 8H22.8123L26.0319 18.1163L28.643 8H33.7669L28.27 27.1514V27.1514Z" fill="white"/>
<path fill-rule="evenodd" clip-rule="evenodd" d="M35.7497 27.1514V8H40.638V27.1514H35.7497V27.1514Z" fill="white"/>
<path fill-rule="evenodd" clip-rule="evenodd" d="M44.6626 27.1514V8H49.5509V22.962H57.9141V27.1514H44.6626V27.1514Z" fill="white"/>
<path fill-rule="evenodd" clip-rule="evenodd" d="M73.5411 25.2787C72.1669 26.5915 70.2429 27.1707 68.162 27.1707H60.7804V8.01931H68.162C70.2233 8.01931 72.1669 8.57918 73.5411 9.91128C75.8577 12.1508 75.6025 14.5833 75.6025 17.6143C75.6025 20.5874 75.8577 23.0393 73.5411 25.2787V25.2787ZM70.184 13.2705C69.7325 12.6334 69.065 12.1894 67.8282 12.1894H65.6687V22.9427H67.8282C69.065 22.9427 69.7325 22.518 70.184 21.8616C70.5767 21.321 70.7141 20.8191 70.7141 17.5564C70.7141 14.3516 70.5767 13.8111 70.184 13.2705V13.2705Z" fill="white"/>
<path fill-rule="evenodd" clip-rule="evenodd" d="M97.2564 27.1514V8H102.145V27.1514H97.2564V27.1514Z" fill="white"/>
<path fill-rule="evenodd" clip-rule="evenodd" d="M114.788 12.1894V27.1514H109.899V12.1894H105.011V8H119.696V12.1894H114.788V12.1894Z" fill="white"/>
<path fill-rule="evenodd" clip-rule="evenodd" d="M91.4454 17.5757C92.2503 17.093 93.8798 16.3401 93.8798 13.6566C93.8798 9.9885 91.2295 8 87.6761 8H78.9988V17.5757V27.1514H87.6761C91.2295 27.1514 93.8798 25.1629 93.8798 21.4948C93.8798 18.8113 92.2503 18.0583 91.4454 17.5757V17.5757ZM83.8871 12.228H87.1853C88.5202 12.228 88.9718 13.116 88.9718 13.9269C88.9718 14.7377 88.5202 15.5872 87.1853 15.5872H83.8871V12.228V12.228ZM87.1853 22.9234H83.8871V19.5642H87.1853C88.5202 19.5642 88.9718 20.433 88.9718 21.2245C88.9718 22.0353 88.5202 22.9234 87.1853 22.9234V22.9234Z" fill="white"/>
</svg>
