<?xml version="1.0" encoding="UTF-8" standalone="no"?>
<!-- Created with Inkscape (http://www.inkscape.org/) -->

<svg
   xmlns:dc="http://purl.org/dc/elements/1.1/"
   xmlns:cc="http://creativecommons.org/ns#"
   xmlns:rdf="http://www.w3.org/1999/02/22-rdf-syntax-ns#"
   xmlns:svg="http://www.w3.org/2000/svg"
   xmlns="http://www.w3.org/2000/svg"
   xmlns:sodipodi="http://sodipodi.sourceforge.net/DTD/sodipodi-0.dtd"
   xmlns:inkscape="http://www.inkscape.org/namespaces/inkscape"
   width="1850"
   height="300"
   viewBox="0 0 489.47917 79.375002"
   version="1.1"
   id="svg8"
   inkscape:version="0.92.3 (2405546, 2018-03-11)"
   sodipodi:docname="banner.svg"
   inkscape:export-filename="/home/ash/src/dev/spooky/static/images/introducing-benthos-lab/banner.png"
   inkscape:export-xdpi="96"
   inkscape:export-ydpi="96">
  <defs
     id="defs2">
    <filter
       inkscape:collect="always"
       style="color-interpolation-filters:sRGB"
       id="filter1295"
       x="-0.0087137148"
       width="1.0174274"
       y="-0.027208265"
       height="1.0544165">
      <feGaussianBlur
         inkscape:collect="always"
         stdDeviation="0.65528738"
         id="feGaussianBlur1297" />
    </filter>
  </defs>
  <sodipodi:namedview
     id="base"
     pagecolor="#ffffff"
     bordercolor="#666666"
     borderopacity="1.0"
     inkscape:pageopacity="0.0"
     inkscape:pageshadow="2"
     inkscape:zoom="0.98994948"
     inkscape:cx="629.16808"
     inkscape:cy="89.595175"
     inkscape:document-units="mm"
     inkscape:current-layer="layer1"
     showgrid="false"
     units="px"
     inkscape:window-width="2560"
     inkscape:window-height="1376"
     inkscape:window-x="2560"
     inkscape:window-y="27"
     inkscape:window-maximized="1"
     inkscape:snap-nodes="false" />
  <metadata
     id="metadata5">
    <rdf:RDF>
      <cc:Work
         rdf:about="">
        <dc:format>image/svg+xml</dc:format>
        <dc:type
           rdf:resource="http://purl.org/dc/dcmitype/StillImage" />
        <dc:title />
      </cc:Work>
    </rdf:RDF>
  </metadata>
  <g
     inkscape:label="Layer 1"
     inkscape:groupmode="layer"
     id="layer1"
     transform="translate(0,-217.62501)">
    <rect
       style="opacity:1;fill:#272822;fill-opacity:1;stroke:none;stroke-width:2.70666337;stroke-linecap:round;stroke-linejoin:round;stroke-miterlimit:4;stroke-dasharray:none;stroke-dashoffset:0;stroke-opacity:1"
       id="rect9779"
       width="489.47916"
       height="79.375"
       x="5.0862632e-06"
       y="217.62502" />
    <path
       style="fill:none;stroke:#fffdbb;stroke-width:0.79374999;stroke-linecap:round;stroke-linejoin:round;stroke-miterlimit:4;stroke-dasharray:none;stroke-opacity:1;filter:url(#filter1295)"
       d="m 343.24211,320.89158 -27.21429,14.1741 6.61458,1.88989 -4.7247,4.34672 13.79613,2.26786"
       id="path1429"
       inkscape:connector-curvature="0"
       transform="matrix(-1.5529248,-1.293323,1.293323,-1.5529248,431.77685,1169.2192)" />
    <path
       inkscape:connector-curvature="0"
       id="path1445"
       d="m 313.7641,226.97577 60.59343,13.18555 -7.82771,-11.48965 12.95883,-0.63957 -18.4913,-21.36466"
       style="fill:none;stroke:#fffdbb;stroke-width:1.60413313;stroke-linecap:round;stroke-linejoin:round;stroke-miterlimit:4;stroke-dasharray:none;stroke-opacity:1" />
    <path
       inkscape:connector-curvature="0"
       id="path1423"
       d="m 147.32381,268.82994 0.89558,-26.47866 8.36461,4.72124 5.03711,-18.15449 14.41055,29.58781 4.76232,-14.86019 2.13509,8.91413 13.14889,-35.47329 6.48171,10.10111 4.31515,-7.80056"
       style="fill:none;stroke:#fffdbb;stroke-width:1.58749998;stroke-linecap:round;stroke-linejoin:round;stroke-miterlimit:4;stroke-dasharray:none;stroke-opacity:1;filter:url(#filter1295)"
       transform="matrix(2.0209552,0,0,2.0209552,-232.35785,-213.83534)" />
    <path
       style="fill:none;stroke:#fffdbb;stroke-width:1.58749998;stroke-linecap:round;stroke-linejoin:round;stroke-miterlimit:4;stroke-dasharray:none;stroke-opacity:1;filter:url(#filter1295)"
       d="m 257.41684,237.62931 24.24284,-10.68677 -0.62246,9.58486 18.54147,-3.34248 -20.39988,25.82534 15.45443,-2.16009 -7.10378,5.79281 37.66468,-3.55229 -6.28636,10.22381 8.90044,0.50146"
       id="path1425"
       inkscape:connector-curvature="0"
       transform="matrix(2.0209552,0,0,2.0209552,-232.35785,-213.83534)" />
    <path
       style="fill:none;stroke:#fffdbb;stroke-width:0.79374999;stroke-linecap:round;stroke-linejoin:round;stroke-miterlimit:4;stroke-dasharray:none;stroke-opacity:1;filter:url(#filter1295)"
       d="m 271.95385,255.8006 30.04913,-11.71726 -0.56698,8.50446 13.04019,-3.96875 -13.98512,18.33185 6.42559,-1.51191 -0.56698,3.2128"
       id="path1427"
       inkscape:connector-curvature="0"
       transform="matrix(2.0209552,0,0,2.0209552,-232.35785,-213.83534)" />
    <path
       style="fill:none;stroke:#fffdbb;stroke-width:0.79374999;stroke-linecap:round;stroke-linejoin:round;stroke-miterlimit:4;stroke-dasharray:none;stroke-opacity:1;filter:url(#filter1295)"
       d="m 160.60246,313.14633 6.2366,10.77232 -4.7247,0.37797 12.4732,5.10268 -2.26785,1.5119"
       id="path1431"
       inkscape:connector-curvature="0"
       transform="matrix(-1.8237581,0.87072741,-0.87072741,-1.8237581,724.25222,655.82023)" />
    <path
       style="fill:none;stroke:#fffdbb;stroke-width:0.79374999;stroke-linecap:round;stroke-linejoin:round;stroke-miterlimit:4;stroke-dasharray:none;stroke-opacity:1;filter:url(#filter1295)"
       d="m 188.42113,224.99554 -17.3869,-5.66964 7.74851,12.28423 -9.82738,1.32291 7.9375,11.71726 -15.875,7.55953 4.34672,16.06399"
       id="path1435"
       inkscape:connector-curvature="0"
       transform="matrix(2.0209552,0,0,2.0209552,-232.35785,-213.83534)" />
    <path
       style="fill:none;stroke:#fffdbb;stroke-width:3.20826626;stroke-linecap:round;stroke-linejoin:round;stroke-miterlimit:4;stroke-dasharray:none;stroke-opacity:1"
       d="m 65.37696,329.45791 1.809932,-53.51219 16.904496,9.54142 10.179785,-36.6894 29.123077,59.79563 9.62443,-30.03178 4.31491,18.01507 26.57332,-71.68994 13.09925,20.4139 8.72072,-15.76459"
       id="path1439"
       inkscape:connector-curvature="0" />
    <path
       inkscape:connector-curvature="0"
       id="path1441"
       d="m 287.87003,266.40285 48.9937,-21.5975 -1.25797,19.37058 37.47148,-6.755 -41.22723,52.19186 31.23271,-4.36546 -14.35643,11.70702 76.11863,-7.17902 -12.70445,20.66186 17.98739,1.01343"
       style="fill:none;stroke:#fffdbb;stroke-width:3.20826626;stroke-linecap:round;stroke-linejoin:round;stroke-miterlimit:4;stroke-dasharray:none;stroke-opacity:1" />
    <path
       inkscape:connector-curvature="0"
       id="path1443"
       d="m 317.24868,303.1262 60.72795,-23.68005 -1.14583,17.18713 26.35363,-8.02067 -28.26331,37.04784 12.98584,-3.05549 -1.14584,6.49293"
       style="fill:none;stroke:#fffdbb;stroke-width:1.60413313;stroke-linecap:round;stroke-linejoin:round;stroke-miterlimit:4;stroke-dasharray:none;stroke-opacity:1" />
    <path
       inkscape:connector-curvature="0"
       id="path1447"
       d="m 158.68714,224.55801 -20.75381,-14.21572 8.28759,-4.80324 -27.19114,1.5547 2.81956,-4.73202"
       style="fill:none;stroke:#fffdbb;stroke-width:1.60413313;stroke-linecap:round;stroke-linejoin:round;stroke-miterlimit:4;stroke-dasharray:none;stroke-opacity:1" />
    <path
       style="fill:none;stroke:#fffdbb;stroke-width:3.20826626;stroke-linecap:round;stroke-linejoin:round;stroke-miterlimit:4;stroke-dasharray:none;stroke-opacity:1;opacity:0.581"
       d="m 11.819746,197.36161 3.952435,53.39675 16.50866,-10.21107 11.641569,36.25211 26.704,-60.91446 10.819907,29.62211 3.589688,-18.17349 29.424255,70.56768 12.27083,-20.92228 9.34536,15.40251"
       id="path931"
       inkscape:connector-curvature="0" />
    <path
       transform="matrix(0.94947422,1.7840288,1.7840288,-0.94947422,-656.52843,-36.254533)"
       inkscape:connector-curvature="0"
       id="path927"
       d="m 257.41684,237.62931 24.24284,-10.68677 -0.62246,9.58486 18.54147,-3.34248 -20.39988,25.82534 15.45443,-2.16009 -7.10378,5.79281 37.66468,-3.55229 -6.28636,10.22381 8.90044,0.50146"
       style="fill:none;stroke:#fffdbb;stroke-width:1.58749998;stroke-linecap:round;stroke-linejoin:round;stroke-miterlimit:4;stroke-dasharray:none;stroke-opacity:1;filter:url(#filter1295);opacity:0.581" />
    <path
       inkscape:connector-curvature="0"
       id="path1451"
       d="m 148.43281,240.87056 -35.13816,-11.45809 15.6594,24.82589 -19.86069,2.67352 16.04133,23.68007 -32.08267,15.27747 8.78453,32.4646"
       style="fill:none;stroke:#fffdbb;stroke-width:1.60413313;stroke-linecap:round;stroke-linejoin:round;stroke-miterlimit:4;stroke-dasharray:none;stroke-opacity:1" />
    <g
       id="g921">
      <path
         style="fill:#ff9197;fill-opacity:1;fill-rule:evenodd;stroke:none;stroke-width:2.42755628;stroke-miterlimit:4;stroke-dasharray:none;stroke-opacity:1"
         d="m 155.311,263.43166 -21.64844,20.34207 c -3.50273,3.29117 -17.82801,-12.85346 -15.58183,-23.80988 2.24608,-10.95592 30.38526,-10.22116 30.38526,-10.22116 3.79257,2.39659 8.59287,12.04646 6.84501,13.68897 z"
         id="path1455"
         inkscape:connector-curvature="0"
         sodipodi:nodetypes="sszss"
         inkscape:export-filename="/home/ash/Downloads/benthos.png"
         inkscape:export-xdpi="250.44547"
         inkscape:export-ydpi="250.44547" />
      <path
         style="fill:#ffc7c7;fill-opacity:1;fill-rule:evenodd;stroke:none;stroke-width:2.42755628;stroke-miterlimit:4;stroke-dasharray:none;stroke-opacity:1"
         d="m 143.4015,304.55609 c 11.2061,29.11664 47.52015,14.05656 55.10295,13.22652 6.13292,-0.66997 13.48813,4.20777 27.16854,4.65202 13.68043,0.44335 21.14374,-3.49674 32.89995,-1.81032 11.75622,1.68651 30.0143,17.93805 67.10239,6.88522 49.01009,-14.78948 -11.70351,-131.77008 -89.88491,-131.77008 -78.18131,0 -103.59514,79.70031 -92.38892,108.81664 z"
         id="path1457"
         inkscape:connector-curvature="0"
         sodipodi:nodetypes="zszzczz"
         inkscape:export-filename="/home/ash/Downloads/benthos.png"
         inkscape:export-xdpi="250.44547"
         inkscape:export-ydpi="250.44547" />
      <path
         inkscape:export-ydpi="179.75954"
         inkscape:export-xdpi="179.75954"
         inkscape:export-filename="/home/ash/Pictures/benthoses/professor_benthos.png"
         style="fill:#ffffff;fill-opacity:1;stroke:none;stroke-width:0.72350162px;stroke-linecap:butt;stroke-linejoin:miter;stroke-opacity:1"
         d="m 331.99071,197.02419 -8.09253,23.37572 19.50918,-11.12658 -13.58029,17.39178 28.38502,11.90969 -21.34834,6.23057 13.65873,15.54128 -22.28785,-11.74159 7.21519,20.54147 -15.09615,-15.72209 -7.05107,-4.72269 -2.19922,-7.61602 -9.4108,-0.26472 0.45225,-8.50188 -6.87427,-0.58051 1.35184,-7.85856 -10.24783,-2.54773 2.85943,-5.83175 -14.53529,-10.36664 20.12987,5.40089 -1.89695,-22.3055 11.97069,18.18667 3.22536,-12.83235 3.03123,13.72267 9.595,-6.28543 -1.81868,10.62763 z"
         id="path1459"
         inkscape:connector-curvature="0"
         sodipodi:nodetypes="ccccccccccccccccccccccccccc" />
      <g
         id="g1497"
         transform="matrix(1.3257064,0,0,1.3257064,-87.019158,-44.578557)">
        <path
           sodipodi:nodetypes="zzzzzz"
           inkscape:connector-curvature="0"
           id="path1463"
           d="m 200.53889,209.27277 c -1.0959,1.64782 0.61215,11.99603 4.72476,15.82796 4.11266,3.83191 11.60919,0.31554 16.30043,2.78764 4.69124,2.472 4.77952,-12.18873 0,-16.34775 -4.77952,-4.15889 -12.70346,-0.0336 -14.26883,-1.22841 -1.56535,-1.19542 -5.66051,-2.6872 -6.75636,-1.03944 z"
           style="fill:#000000;fill-opacity:1;stroke:none;stroke-width:0.52287358px;stroke-linecap:butt;stroke-linejoin:miter;stroke-opacity:1"
           inkscape:export-filename="/home/ash/Pictures/benthoses/professor_benthos.png"
           inkscape:export-xdpi="179.75954"
           inkscape:export-ydpi="179.75954" />
        <path
           style="fill:none;stroke:#000000;stroke-width:0.62868452;stroke-linecap:round;stroke-linejoin:miter;stroke-miterlimit:4;stroke-dasharray:none;stroke-opacity:1"
           d="m 218.87552,223.06911 c 0,0 0.23284,10.8496 -5.575,11.52843 -4.54484,0.53106 -4.36632,-1.64952 -8.2074,-4.2933 -3.62954,-2.49812 -8.50894,-2.7129 -8.23483,-5.62875"
           id="path1465"
           inkscape:connector-curvature="0"
           sodipodi:nodetypes="cssc"
           inkscape:export-filename="/home/ash/Pictures/benthoses/professor_benthos.png"
           inkscape:export-xdpi="179.75954"
           inkscape:export-ydpi="179.75954" />
        <path
           sodipodi:nodetypes="ssscs"
           inkscape:connector-curvature="0"
           id="path1467"
           d="m 210.26988,222.4432 c -1.62018,0.0768 -2.99624,-1.17378 -3.07431,-2.79392 -0.078,-1.62018 1.17146,-2.99712 2.7916,-3.07643 1.62006,-0.0793 2.99802,1.16898 3.07883,2.79372 0.0757,1.62499 -1.17598,2.99993 -2.79612,3.07663 z"
           style="fill:#000000;fill-opacity:1;stroke:#ffffff;stroke-width:7.31380796;stroke-miterlimit:4;stroke-dasharray:none;stroke-opacity:1"
           inkscape:export-filename="/home/ash/Pictures/benthoses/professor_benthos.png"
           inkscape:export-xdpi="179.75954"
           inkscape:export-ydpi="179.75954" />
        <path
           transform="matrix(0.9993991,-0.03466186,0.03935641,0.99922524,0,0)"
           d="m 237.16924,229.94028 a 16.644495,14.602841 0 0 1 -16.47096,14.74197 16.644495,14.602841 0 0 1 -16.81622,-14.43881 16.644495,14.602841 0 0 1 16.4441,-14.76503 16.644495,14.602841 0 0 1 16.84249,14.41524"
           sodipodi:open="true"
           sodipodi:end="6.2704097"
           sodipodi:start="6.2736034"
           sodipodi:ry="14.602841"
           sodipodi:rx="16.644495"
           sodipodi:cy="230.0802"
           sodipodi:cx="220.52551"
           sodipodi:type="arc"
           id="path1469"
           style="fill:#000000;fill-opacity:1;stroke:none;stroke-width:0.55268508"
           inkscape:export-filename="/home/ash/Pictures/benthoses/professor_benthos.png"
           inkscape:export-xdpi="179.75954"
           inkscape:export-ydpi="179.75954" />
        <path
           style="fill:#ffc7c7;fill-opacity:1;stroke:none;stroke-width:0.55268502"
           id="path1471"
           sodipodi:type="arc"
           sodipodi:cx="222.42322"
           sodipodi:cy="229.05051"
           sodipodi:rx="16.042475"
           sodipodi:ry="14.996225"
           sodipodi:start="6.2736034"
           sodipodi:end="6.2704097"
           sodipodi:open="true"
           d="m 238.46496,228.90682 a 16.042475,14.996225 0 0 1 -15.87522,15.1391 16.042475,14.996225 0 0 1 -16.20799,-14.82778 16.042475,14.996225 0 0 1 15.84933,-15.16278 16.042475,14.996225 0 0 1 16.2333,14.80357"
           transform="rotate(-2.1166912)"
           inkscape:export-filename="/home/ash/Pictures/benthoses/professor_benthos.png"
           inkscape:export-xdpi="179.75954"
           inkscape:export-ydpi="179.75954" />
        <path
           sodipodi:nodetypes="zzzzzzz"
           inkscape:connector-curvature="0"
           id="path1473"
           d="m 228.8729,209.61402 c 2.34581,7.5943 5.2654,8.95715 4.81084,11.96049 -0.45455,3.0033 3.86891,-0.88422 6.48144,0.46775 2.61259,1.35197 4.8978,6.22605 9.04664,6.80732 4.14904,0.58132 5.48754,-2.36926 8.4597,-6.67371 2.97218,-4.30446 1.1174,-8.27512 -0.13361,-16.43725 -1.25097,-8.16228 -31.01086,-3.71876 -28.66494,3.8754 z"
           style="fill:#000000;fill-opacity:1;stroke:none;stroke-width:0.52287358px;stroke-linecap:butt;stroke-linejoin:miter;stroke-opacity:1"
           inkscape:export-filename="/home/ash/Pictures/benthoses/professor_benthos.png"
           inkscape:export-xdpi="179.75954"
           inkscape:export-ydpi="179.75954" />
        <path
           style="fill:#ffffff;fill-opacity:1;stroke:none;stroke-width:8.72459221;stroke-miterlimit:4;stroke-dasharray:none;stroke-opacity:1"
           d="m 252.3312,229.36265 c -4.76146,0.22535 -8.80522,-3.44957 -9.0346,-8.21089 -0.22922,-4.76128 3.44259,-8.80788 8.20384,-9.04103 4.76107,-0.2331 8.81054,3.43554 9.04821,8.21027 0.22225,4.77541 -3.45605,8.81615 -8.21745,9.04165 z"
           id="path1475"
           inkscape:connector-curvature="0"
           sodipodi:nodetypes="ssscs"
           inkscape:export-filename="/home/ash/Pictures/benthoses/professor_benthos.png"
           inkscape:export-xdpi="179.75954"
           inkscape:export-ydpi="179.75954" />
        <path
           sodipodi:nodetypes="czc"
           inkscape:connector-curvature="0"
           id="path1477"
           d="m 228.69246,191.31076 c 0,0 -3.25277,31.14245 10.25162,24.19421 13.50439,-6.94829 29.20094,1.22813 27.59768,-17.4743"
           style="fill:#ffc7c7;fill-opacity:1;stroke:#000000;stroke-width:1.25736904;stroke-linecap:round;stroke-linejoin:miter;stroke-miterlimit:4;stroke-dasharray:none;stroke-opacity:1"
           inkscape:export-filename="/home/ash/Pictures/benthoses/professor_benthos.png"
           inkscape:export-xdpi="179.75954"
           inkscape:export-ydpi="179.75954" />
        <path
           style="fill:#ffc7c7;fill-opacity:1;stroke:#000000;stroke-width:1.25736904;stroke-linecap:round;stroke-linejoin:miter;stroke-miterlimit:4;stroke-dasharray:none;stroke-opacity:1"
           d="m 225.41787,195.56844 c 0,0 0.57797,24.59454 -11.07128,20.95702 -11.64932,-3.63752 -14.62819,3.47745 -13.91355,-12.32164"
           id="path1479"
           inkscape:connector-curvature="0"
           sodipodi:nodetypes="czc"
           inkscape:export-filename="/home/ash/Pictures/benthoses/professor_benthos.png"
           inkscape:export-xdpi="179.75954"
           inkscape:export-ydpi="179.75954" />
        <path
           style="fill:none;stroke:#000000;stroke-width:0.62868452;stroke-linecap:round;stroke-linejoin:miter;stroke-miterlimit:4;stroke-dasharray:none;stroke-opacity:1"
           d="m 268.08677,207.6914 c -6.59707,4.33317 -4.50836,7.57466 2.55139,13.41831"
           id="path1481"
           inkscape:connector-curvature="0"
           sodipodi:nodetypes="cc"
           inkscape:export-filename="/home/ash/Pictures/benthoses/professor_benthos.png"
           inkscape:export-xdpi="179.75954"
           inkscape:export-ydpi="179.75954" />
        <path
           sodipodi:nodetypes="ssscs"
           inkscape:connector-curvature="0"
           id="path1483"
           d="m 252.05435,223.52135 c -1.53726,0.0726 -2.84274,-1.1137 -2.91678,-2.65089 -0.0742,-1.53713 1.11143,-2.84364 2.64856,-2.91884 1.53713,-0.0752 2.84452,1.1091 2.92122,2.6506 0.0718,1.54178 -1.1158,2.8463 -2.653,2.91913 z"
           style="fill:#ffffff;fill-opacity:1;stroke:#000000;stroke-width:0.31235546;stroke-miterlimit:4;stroke-dasharray:none;stroke-opacity:1"
           inkscape:export-filename="/home/ash/Pictures/benthoses/professor_benthos.png"
           inkscape:export-xdpi="179.75954"
           inkscape:export-ydpi="179.75954" />
        <path
           style="fill:#000000;fill-opacity:1;stroke:none;stroke-width:0.12188669;stroke-miterlimit:4;stroke-dasharray:none;stroke-opacity:1"
           d="m 251.9738,221.82312 c -0.59978,0.0282 -1.10931,-0.43459 -1.13823,-1.03437 -0.0287,-0.5999 0.43371,-1.10972 1.03356,-1.13905 0.59978,-0.0295 1.10999,0.43281 1.13994,1.03436 0.0274,0.60156 -0.43542,1.11063 -1.03527,1.13906 z"
           id="path1485"
           inkscape:connector-curvature="0"
           sodipodi:nodetypes="ssscs"
           inkscape:export-filename="/home/ash/Pictures/benthoses/professor_benthos.png"
           inkscape:export-xdpi="179.75954"
           inkscape:export-ydpi="179.75954" />
        <path
           sodipodi:nodetypes="czzc"
           inkscape:connector-curvature="0"
           id="path1487"
           d="m 242.02237,221.65163 c 0,0 2.20727,6.93955 9.72135,7.66637 7.51416,0.72689 15.29793,-6.27494 19.19405,-2.65812 3.89626,3.61679 3.59096,13.04039 3.59096,13.04039"
           style="fill:none;stroke:#000000;stroke-width:0.62868452;stroke-linecap:round;stroke-linejoin:miter;stroke-miterlimit:4;stroke-dasharray:none;stroke-opacity:1"
           inkscape:export-filename="/home/ash/Pictures/benthoses/professor_benthos.png"
           inkscape:export-xdpi="179.75954"
           inkscape:export-ydpi="179.75954" />
        <path
           sodipodi:nodetypes="cc"
           inkscape:connector-curvature="0"
           id="path1489"
           d="m 231.29549,238.29093 c -0.24137,6.34867 2.53012,7.25201 5.2952,8.16743"
           style="fill:none;stroke:#000000;stroke-width:0.62868452;stroke-linecap:round;stroke-linejoin:miter;stroke-miterlimit:4;stroke-dasharray:none;stroke-opacity:1"
           inkscape:export-filename="/home/ash/Pictures/benthoses/professor_benthos.png"
           inkscape:export-xdpi="179.75954"
           inkscape:export-ydpi="179.75954" />
        <path
           sodipodi:nodetypes="czc"
           inkscape:connector-curvature="0"
           id="path1491"
           d="m 196.47567,229.96721 c 16.00813,6.4595 15.98412,20.79346 36.76438,20.90621 20.7802,0.11267 23.35539,-14.34341 34.9574,-19.01626"
           style="fill:none;stroke:#000000;stroke-width:1.25736904;stroke-linecap:round;stroke-linejoin:miter;stroke-miterlimit:4;stroke-dasharray:none;stroke-opacity:1"
           inkscape:export-filename="/home/ash/Pictures/benthoses/professor_benthos.png"
           inkscape:export-xdpi="179.75954"
           inkscape:export-ydpi="179.75954" />
        <path
           sodipodi:nodetypes="cssc"
           inkscape:connector-curvature="0"
           id="path1493"
           d="m 210.55146,244.94885 c 0,0 6.09572,9.38783 11.9064,9.26059 3.45908,-0.0757 0.86678,3.05175 0.0375,6.43684 -0.56375,2.30121 1.44187,4.87963 1.44187,4.87963"
           style="fill:none;stroke:#000000;stroke-width:0.62868452;stroke-linecap:round;stroke-linejoin:miter;stroke-miterlimit:4;stroke-dasharray:none;stroke-opacity:1"
           inkscape:export-filename="/home/ash/Pictures/benthoses/professor_benthos.png"
           inkscape:export-xdpi="179.75954"
           inkscape:export-ydpi="179.75954" />
        <path
           style="fill:none;stroke:#000000;stroke-width:0.62868452;stroke-linecap:round;stroke-linejoin:miter;stroke-miterlimit:4;stroke-dasharray:none;stroke-opacity:1"
           d="m 254.93298,247.35323 c 0,0 -4.79298,4.44437 -8.73265,6.58892 -3.03899,1.65419 -0.86678,3.05178 -0.0377,6.43684 0.56367,2.30124 -3.04555,9.02237 -3.04555,9.02237"
           id="path1495"
           inkscape:connector-curvature="0"
           sodipodi:nodetypes="cssc"
           inkscape:export-filename="/home/ash/Pictures/benthoses/professor_benthos.png"
           inkscape:export-xdpi="179.75954"
           inkscape:export-ydpi="179.75954" />
      </g>
      <path
         style="fill:#ffffff;fill-opacity:1;stroke:none;stroke-width:0.66182262px;stroke-linecap:butt;stroke-linejoin:miter;stroke-opacity:1"
         d="m 141.36958,201.74662 9.18675,20.67919 -18.64398,-8.63055 13.72537,14.80028 -24.94957,13.05384 19.94077,4.02545 -11.24573,15.22315 19.40523,-12.42831 -4.98542,19.28172 12.54187,-15.49948 6.06099,-4.85072 1.41463,-7.11195 8.55713,-0.9703 -1.0706,-7.71408 6.22085,-1.06124 -1.84087,-7.0582 9.14306,-3.11584 -3.05785,-5.09399 12.4456,-10.57462 -17.92955,6.48177 0.001,-20.47748 -9.50228,17.50374 -3.93368,-11.4464 -1.69988,12.74237 -9.23255,-4.9857 2.48099,9.54594 z"
         id="path1499"
         inkscape:connector-curvature="0"
         sodipodi:nodetypes="ccccccccccccccccccccccccccc"
         inkscape:export-filename="/home/ash/Pictures/benthoses/professor_benthos.png"
         inkscape:export-xdpi="179.75954"
         inkscape:export-ydpi="179.75954" />
      <g
         id="g872">
        <path
           inkscape:export-ydpi="250.44547"
           inkscape:export-xdpi="250.44547"
           inkscape:export-filename="/home/ash/Downloads/benthos.png"
           style="fill:#ff9197;fill-opacity:1;fill-rule:evenodd;stroke:none;stroke-width:2.42755628;stroke-miterlimit:4;stroke-dasharray:none;stroke-opacity:1"
           d="m 308.21243,264.71147 35.64875,16.47213 c 5.76799,2.66538 15.591,-21.04514 7.67638,-33.94323 -7.9147,-12.89834 -41.2993,0.0663 -41.2993,0.0663 -3.40435,4.65372 -4.90415,16.07477 -2.02583,17.40481 z"
           id="path1461"
           inkscape:connector-curvature="0"
           sodipodi:nodetypes="sszss" />
        <rect
           style="opacity:1;fill:#e1ffff;fill-opacity:1;stroke:none;stroke-width:1.35886538;stroke-linecap:round;stroke-linejoin:miter;stroke-miterlimit:4;stroke-dasharray:none;stroke-dashoffset:0;stroke-opacity:1"
           id="rect1501"
           width="14.689526"
           height="6.2781558"
           x="-394.83295"
           y="154.10539"
           ry="2.0927186"
           transform="matrix(-0.97640421,-0.21595096,-0.21595096,0.97640421,0,0)" />
        <rect
           style="opacity:1;fill:#e1ffff;fill-opacity:1;stroke:none;stroke-width:1.65734863;stroke-linecap:round;stroke-linejoin:miter;stroke-miterlimit:4;stroke-dasharray:none;stroke-dashoffset:0;stroke-opacity:1"
           id="rect1503"
           width="9.5218716"
           height="29.088795"
           x="-392.24911"
           y="157.13985"
           transform="matrix(-0.97640421,-0.21595096,-0.21595096,0.97640421,0,0)" />
        <path
           style="opacity:1;fill:#e1ffff;fill-opacity:1;stroke:none;stroke-width:1.52787483;stroke-linecap:round;stroke-linejoin:miter;stroke-miterlimit:4;stroke-dasharray:none;stroke-dashoffset:0;stroke-opacity:1"
           d="m 338.29228,251.08183 5.77404,1.27702 13.36321,46.12948 -0.56772,2.56692 c -0.32548,1.47163 -1.59435,2.43365 -2.84502,2.15704 l -46.19237,-10.21634 c -1.25064,-0.27662 -1.99547,-1.68402 -1.67001,-3.15563 l 0.56774,-2.56692 z"
           id="path1505"
           inkscape:connector-curvature="0"
           sodipodi:nodetypes="cccsssscc" />
        <path
           sodipodi:nodetypes="ccsssscc"
           inkscape:connector-curvature="0"
           id="path1507"
           d="m 354.08873,286.95597 3.3408,11.53236 -0.56772,2.56692 c -0.32548,1.47163 -1.59435,2.43365 -2.84502,2.15704 l -46.19237,-10.21634 c -1.25064,-0.27662 -1.99547,-1.68402 -1.67001,-3.15563 l 0.56774,-2.56692 z"
           style="opacity:1;fill:#56cbe3;fill-opacity:1;stroke:none;stroke-width:1.52787483;stroke-linecap:round;stroke-linejoin:miter;stroke-miterlimit:4;stroke-dasharray:none;stroke-dashoffset:0;stroke-opacity:1" />
      </g>
      <g
         id="g886">
        <rect
           ry="1.8922814"
           y="268.41327"
           x="63.546085"
           height="5.6768441"
           width="13.282584"
           id="rect1511"
           style="opacity:1;fill:#e1ffff;fill-opacity:1;stroke:none;stroke-width:1.2287153;stroke-linecap:round;stroke-linejoin:miter;stroke-miterlimit:4;stroke-dasharray:none;stroke-dashoffset:0;stroke-opacity:1"
           transform="rotate(-13.070498)" />
        <rect
           y="271.15714"
           x="65.882439"
           height="26.302713"
           width="8.6098804"
           id="rect1513"
           style="opacity:1;fill:#e1ffff;fill-opacity:1;stroke:none;stroke-width:1.49861026;stroke-linecap:round;stroke-linejoin:miter;stroke-miterlimit:4;stroke-dasharray:none;stroke-dashoffset:0;stroke-opacity:1"
           transform="rotate(-13.070498)" />
        <path
           sodipodi:nodetypes="cccsssscc"
           inkscape:connector-curvature="0"
           id="path1515"
           d="m 135.35518,260.83391 -5.20865,1.20927 -11.64645,41.83533 0.53761,2.3156 c 0.30818,1.32752 1.46457,2.18534 2.59277,1.92341 l 41.66923,-9.67412 c 1.1282,-0.26193 1.78836,-1.5415 1.48014,-2.86902 l -0.53757,-2.31556 z"
           style="opacity:1;fill:#e1ffff;fill-opacity:1;stroke:none;stroke-width:1.38153744;stroke-linecap:round;stroke-linejoin:miter;stroke-miterlimit:4;stroke-dasharray:none;stroke-dashoffset:0;stroke-opacity:1" />
        <path
           style="opacity:1;fill:#6ee356;fill-opacity:1;stroke:none;stroke-width:1.38153744;stroke-linecap:round;stroke-linejoin:miter;stroke-miterlimit:4;stroke-dasharray:none;stroke-dashoffset:0;stroke-opacity:1"
           d="m 121.41169,293.41969 -2.91161,10.45882 0.53761,2.3156 c 0.30818,1.32752 1.46457,2.18534 2.59277,1.92341 l 41.66923,-9.67412 c 1.1282,-0.26193 1.78836,-1.5415 1.48014,-2.86902 l -0.53757,-2.31556 z"
           id="path1517"
           inkscape:connector-curvature="0"
           sodipodi:nodetypes="ccsssscc" />
      </g>
    </g>
    <path
       transform="matrix(-1.8712871,-0.76324584,-0.76324584,1.8712871,876.40403,-99.758743)"
       inkscape:connector-curvature="0"
       id="path923"
       d="m 343.24211,320.89158 -27.21429,14.1741 6.61458,1.88989 -4.7247,4.34672 13.79613,2.26786"
       style="fill:none;stroke:#fffdbb;stroke-width:0.79374999;stroke-linecap:round;stroke-linejoin:round;stroke-miterlimit:4;stroke-dasharray:none;stroke-opacity:1;filter:url(#filter1295);opacity:0.581" />
    <path
       style="fill:none;stroke:#fffdbb;stroke-width:1.60413313;stroke-linecap:round;stroke-linejoin:round;stroke-miterlimit:4;stroke-dasharray:none;stroke-opacity:1;opacity:0.581"
       d="m -10.819693,238.74341 40.10742,47.295 -13.820234,-1.51202 5.523657,11.74008 -27.5474589,-6.28604"
       id="path925"
       inkscape:connector-curvature="0" />
    <path
       transform="matrix(0.94947422,1.7840288,1.7840288,-0.94947422,-656.52843,-36.254533)"
       inkscape:connector-curvature="0"
       id="path929"
       d="m 271.95385,255.8006 30.04913,-11.71726 -0.56698,8.50446 13.04019,-3.96875 -13.98512,18.33185 6.42559,-1.51191 -0.56698,3.2128"
       style="fill:none;stroke:#fffdbb;stroke-width:0.79374999;stroke-linecap:round;stroke-linejoin:round;stroke-miterlimit:4;stroke-dasharray:none;stroke-opacity:1;filter:url(#filter1295);opacity:0.581" />
    <path
       style="fill:none;stroke:#fffdbb;stroke-width:1.60413313;stroke-linecap:round;stroke-linejoin:round;stroke-miterlimit:4;stroke-dasharray:none;stroke-opacity:1;opacity:0.581"
       d="m 58.040357,206.04289 7.626954,64.73375 14.633871,-9.08626 5.300952,27.03229 19.426026,-42.35548 3.40366,12.89896 5.19339,-4.06198"
       id="path933"
       inkscape:connector-curvature="0" />
    <g
       id="g958">
      <path
         inkscape:connector-curvature="0"
         id="path935"
         d="m 147.32381,268.82994 0.89558,-26.47866 8.36461,4.72124 5.03711,-18.15449 14.41055,29.58781 4.76232,-14.86019 2.13509,8.91413 13.14889,-35.47329 6.48171,10.10111 4.31515,-7.80056"
         style="fill:none;stroke:#fffdbb;stroke-width:1.58749998;stroke-linecap:round;stroke-linejoin:round;stroke-miterlimit:4;stroke-dasharray:none;stroke-opacity:1;filter:url(#filter1295);opacity:0.52974504"
         transform="matrix(2.0132525,0.17627895,-0.17627895,2.0132525,123.731,-251.21375)" />
      <path
         style="fill:none;stroke:#fffdbb;stroke-width:0.79374999;stroke-linecap:round;stroke-linejoin:round;stroke-miterlimit:4;stroke-dasharray:none;stroke-opacity:1;filter:url(#filter1295);opacity:0.52974504"
         d="m 160.60246,313.14633 6.2366,10.77232 -4.7247,0.37797 12.4732,5.10268 -2.26785,1.5119"
         id="path937"
         inkscape:connector-curvature="0"
         transform="matrix(-1.8927567,0.70833039,-0.70833039,-1.8927567,1000.8388,698.56804)" />
      <path
         style="fill:none;stroke:#fffdbb;stroke-width:0.79374999;stroke-linecap:round;stroke-linejoin:round;stroke-miterlimit:4;stroke-dasharray:none;stroke-opacity:1;filter:url(#filter1295);opacity:0.52974504"
         d="m 188.42113,224.99554 -17.3869,-5.66964 7.74851,12.28423 -9.82738,1.32291 7.9375,11.71726 -15.875,7.55953 4.34672,16.06399"
         id="path939"
         inkscape:connector-curvature="0"
         transform="matrix(2.0132525,0.17627895,-0.17627895,2.0132525,123.731,-251.21375)" />
      <path
         style="fill:none;stroke:#fffdbb;stroke-width:3.20826626;stroke-linecap:round;stroke-linejoin:round;stroke-miterlimit:4;stroke-dasharray:none;stroke-opacity:1;opacity:0.52974504"
         d="m 372.94196,315.97887 6.47066,-53.15036 16.00782,10.97956 13.34124,-35.66163 23.79637,62.108 12.20728,-29.07781 2.72709,18.32277 32.72524,-69.09883 11.2687,21.47869 10.06256,-14.94384"
         id="path941"
         inkscape:connector-curvature="0" />
      <path
         inkscape:connector-curvature="0"
         id="path943"
         d="m 475.04646,219.61782 -19.43474,-15.97181 8.67497,-4.06203 -27.22312,-0.82299 3.22156,-4.46805"
         style="fill:none;stroke:#fffdbb;stroke-width:1.60413313;stroke-linecap:round;stroke-linejoin:round;stroke-miterlimit:4;stroke-dasharray:none;stroke-opacity:1;opacity:0.52974504" />
      <path
         inkscape:connector-curvature="0"
         id="path945"
         d="m 463.40833,234.97376 -34.0048,-14.47937 13.43427,26.09717 -20.01819,0.93097 13.91468,24.98903 -33.29297,12.42081 5.91931,33.1071"
         style="fill:none;stroke:#fffdbb;stroke-width:1.60413313;stroke-linecap:round;stroke-linejoin:round;stroke-miterlimit:4;stroke-dasharray:none;stroke-opacity:1;opacity:0.52974504" />
      <path
         style="opacity:0.52974504;fill:none;stroke:#fffdbb;stroke-width:1.60413313;stroke-linecap:round;stroke-linejoin:round;stroke-miterlimit:4;stroke-dasharray:none;stroke-opacity:1"
         d="m 376.39827,192.3943 1.95145,65.15228 15.37064,-7.77518 2.92285,27.39164 23.04646,-40.4996 2.26556,13.14668 5.52791,-3.5935"
         id="path949"
         inkscape:connector-curvature="0" />
    </g>
  </g>
</svg>
