<?xml version="1.0" encoding="UTF-8" standalone="no"?>
<!-- Created with Inkscape (http://www.inkscape.org/) -->

<svg
   xmlns:osb="http://www.openswatchbook.org/uri/2009/osb"
   xmlns:dc="http://purl.org/dc/elements/1.1/"
   xmlns:cc="http://creativecommons.org/ns#"
   xmlns:rdf="http://www.w3.org/1999/02/22-rdf-syntax-ns#"
   xmlns:svg="http://www.w3.org/2000/svg"
   xmlns="http://www.w3.org/2000/svg"
   xmlns:sodipodi="http://sodipodi.sourceforge.net/DTD/sodipodi-0.dtd"
   xmlns:inkscape="http://www.inkscape.org/namespaces/inkscape"
   width="400"
   height="300"
   viewBox="0 0 105.83334 79.374999"
   version="1.1"
   id="svg7516"
   inkscape:version="0.92.3 (2405546, 2018-03-11)"
   sodipodi:docname="logo_dark.svg"
   inkscape:export-filename="/home/ash/Downloads/test.png"
   inkscape:export-xdpi="96"
   inkscape:export-ydpi="96">
  <defs
     id="defs7510">
    <linearGradient
       id="linearGradient5074"
       osb:paint="solid">
      <stop
         style="stop-color:#ff8787;stop-opacity:1;"
         offset="0"
         id="stop5072" />
    </linearGradient>
  </defs>
  <sodipodi:namedview
     id="base"
     pagecolor="#ffffff"
     bordercolor="#666666"
     borderopacity="1.0"
     inkscape:pageopacity="0"
     inkscape:pageshadow="2"
     inkscape:zoom="1.4142136"
     inkscape:cx="153.98344"
     inkscape:cy="100.1628"
     inkscape:document-units="mm"
     inkscape:current-layer="layer1"
     showgrid="false"
     inkscape:window-width="2560"
     inkscape:window-height="1376"
     inkscape:window-x="2560"
     inkscape:window-y="27"
     inkscape:window-maximized="1"
     inkscape:snap-nodes="false"
     units="px" />
  <metadata
     id="metadata7513">
    <rdf:RDF>
      <cc:Work
         rdf:about="">
        <dc:format>image/svg+xml</dc:format>
        <dc:type
           rdf:resource="http://purl.org/dc/dcmitype/StillImage" />
        <dc:title></dc:title>
      </cc:Work>
    </rdf:RDF>
  </metadata>
  <g
     inkscape:label="Layer 1"
     inkscape:groupmode="layer"
     id="layer1"
     transform="translate(0,-217.62501)">
    <g
       transform="matrix(0.97274789,0,0,0.97274789,-0.00502766,-47.686125)"
       id="g974" />
    <g
       id="g1822"
       transform="matrix(1.3253096,0,0,1.3253096,7.9072945,-118.46593)">
      <g
         id="g1785">
        <path
           inkscape:export-ydpi="250.44547"
           inkscape:export-xdpi="250.44547"
           inkscape:export-filename="/home/ash/Downloads/benthos.png"
           sodipodi:nodetypes="sszss"
           inkscape:connector-curvature="0"
           id="path4003"
           d="m 11.128299,281.45649 -5.9855963,5.6244 c -0.9684716,0.90998 -4.9292755,-3.55386 -4.3082375,-6.58322 0.621028,-3.0292 8.4012588,-2.82605 8.4012588,-2.82605 1.048602,0.66263 2.375847,3.33073 1.892575,3.78487 z"
           style="fill:#ff9197;fill-opacity:1;fill-rule:evenodd;stroke:none;stroke-width:0.67119741;stroke-miterlimit:4;stroke-dasharray:none;stroke-opacity:1" />
        <path
           inkscape:export-ydpi="250.44547"
           inkscape:export-xdpi="250.44547"
           inkscape:export-filename="/home/ash/Downloads/benthos.png"
           sodipodi:nodetypes="zszzczz"
           inkscape:connector-curvature="0"
           id="path4005"
           d="m 7.3128969,288.54224 c 3.0983821,8.05049 13.1388901,3.88651 15.2354671,3.65701 1.6957,-0.18524 3.729344,1.16342 7.511857,1.28625 3.782512,0.12258 5.846051,-0.96682 9.09654,-0.50054 3.250486,0.4663 8.29868,4.95971 18.553206,1.90369 13.550846,-4.08915 -3.235916,-36.43323 -24.852362,-36.43323 -21.616435,0 -28.6431235,22.03642 -25.5447081,30.08682 z"
           style="fill:#ffc7c7;fill-opacity:1;fill-rule:evenodd;stroke:none;stroke-width:0.67119741;stroke-miterlimit:4;stroke-dasharray:none;stroke-opacity:1" />
        <path
           inkscape:export-ydpi="250.44547"
           inkscape:export-xdpi="250.44547"
           inkscape:export-filename="/home/ash/Downloads/benthos.png"
           style="fill:#ff9197;fill-opacity:1;fill-rule:evenodd;stroke:none;stroke-width:0.67119741;stroke-miterlimit:4;stroke-dasharray:none;stroke-opacity:1"
           d="m 54.167381,282.87543 7.476733,7.87355 c 1.209716,1.27399 6.15547,-3.81461 5.439435,-7.93698 -0.716035,-4.12243 -10.617865,-4.20148 -10.617865,-4.20148 -1.350035,0.84795 -2.901976,3.62918 -2.298303,4.26491 z"
           id="path4007"
           inkscape:connector-curvature="0"
           sodipodi:nodetypes="sszss" />
        <g
           id="g4223"
           transform="translate(4.3020463,146.06685)">
          <path
             sodipodi:nodetypes="cszzzzzszszc"
             inkscape:connector-curvature="0"
             id="path4201"
             d="m 8.1044741,142.94171 c 0.216042,-0.14647 6.9476509,-5.63435 13.0094799,-5.74633 4.111955,-0.0765 7.560345,-0.51357 12.552087,1.55116 4.991732,2.06495 10.614035,6.10999 10.760445,6.19962 0.14638,0.0892 0.24354,0.5982 0.13774,0.82525 -0.10579,0.22673 -0.44769,0.15871 -0.57062,0.0776 -0.12295,-0.0814 -6.247324,-3.71399 -10.484985,-5.46672 -4.23766,-1.75273 -7.87492,-1.547 -12.552076,-1.55116 -6.062888,-0.007 -12.1911639,5.02803 -12.3867999,5.06296 -0.195658,0.0412 -0.662729,0.17525 -0.783266,-0.10721 -0.100386,-0.23442 0.101974,-0.69929 0.318016,-0.84537 z"
             style="opacity:1;fill:#b06264;fill-opacity:1;stroke:none;stroke-width:0.2448387;stroke-linecap:round;stroke-miterlimit:4;stroke-dasharray:none;stroke-opacity:1" />
          <path
             style="opacity:1;fill:#fffefe;fill-opacity:1;stroke:none;stroke-width:0.91057765;stroke-linecap:round;stroke-miterlimit:4;stroke-dasharray:none;stroke-opacity:1"
             d="m 18.07067,130.45115 a 5.1994305,5.2845316 0.12912279 0 1 -5.133011,5.35161 5.1994305,5.2845316 0.12912279 0 1 -5.2650189,-5.21659 5.1994305,5.2845316 0.12912279 0 1 5.1330159,-5.35165 5.1994305,5.2845316 0.12912279 0 1 5.265014,5.21663 z"
             id="path4203"
             inkscape:connector-curvature="0" />
          <path
             style="fill:#000000;fill-opacity:1;stroke:none;stroke-width:1.07336783;stroke-miterlimit:4;stroke-dasharray:none;stroke-opacity:1"
             d="m 13.107908,134.69345 c -2.241594,0.13689 -4.1683809,-1.5977 -4.3048649,-3.87584 -0.136521,-2.2781 1.5689629,-4.23799 3.8103299,-4.3787 2.241358,-0.14055 4.170881,1.59095 4.311357,3.87549 0.133292,2.28492 -1.575244,4.242 -3.816822,4.37905 z"
             id="path4205"
             inkscape:connector-curvature="0"
             sodipodi:nodetypes="ssscs"
             inkscape:export-filename="/home/ash/Downloads/benthos.png"
             inkscape:export-xdpi="250.44547"
             inkscape:export-ydpi="250.44547" />
          <path
             style="fill:#ffffff;fill-opacity:1;stroke:none;stroke-width:0.59220499px;stroke-linecap:butt;stroke-linejoin:miter;stroke-opacity:1"
             d="m 13.553519,127.89353 c 0.391116,-0.53609 1.813031,-0.0602 2.311122,0.83111 0.498089,0.89095 0.493678,2.25983 -0.33173,2.53615 -0.825488,0.27592 -0.765065,-0.79935 -1.197677,-1.55733 -0.432733,-0.75801 -1.172981,-1.27384 -0.78176,-1.80976 z"
             id="path4207"
             inkscape:connector-curvature="0"
             sodipodi:nodetypes="zzzzz" />
          <ellipse
             style="opacity:1;fill:#ffffff;fill-opacity:1;stroke:none;stroke-width:2.6819427;stroke-linecap:round;stroke-linejoin:miter;stroke-miterlimit:4;stroke-dasharray:none;stroke-dashoffset:0;stroke-opacity:1"
             id="ellipse4209"
             cx="26.213116"
             cy="131.07529"
             rx="0.5282039"
             ry="0.6413818"
             transform="matrix(0.99826127,0.05894442,-0.08221311,0.99661477,0,0)" />
          <path
             inkscape:connector-curvature="0"
             id="path4211"
             d="m 29.827617,130.04291 a 6.7529665,7.1085864 85.954687 0 1 -6.660206,7.19459 6.7529665,7.1085864 85.954687 0 1 -7.52701,-6.27266 6.7529665,7.1085864 85.954687 0 1 6.648197,-7.20465 6.7529665,7.1085864 85.954687 0 1 7.537621,6.26114"
             style="fill:#ffc7c7;fill-opacity:1;stroke:none;stroke-width:0.24688239" />
          <path
             sodipodi:nodetypes="cccczcccczc"
             inkscape:connector-curvature="0"
             id="path4213"
             d="m 29.235752,132.42957 c -0.83294,2.48023 -3.194576,4.35286 -6.08684,4.5401 -3.759757,0.24406 -6.994371,-2.45237 -7.226625,-6.024 -0.105893,-1.62932 0.431332,-3.15974 1.40388,-4.36593 0,0 0.612462,-0.69166 0.24205,-0.9855 -0.370402,-0.294 -0.897853,0.53034 -0.897853,0.53034 -1.082507,1.34874 -1.679752,3.0574 -1.561163,4.87616 0.261576,3.99718 3.882116,7.014 8.089936,6.74086 3.24156,-0.21023 5.88755,-2.31175 6.816577,-5.09346 0,0 0.218096,-0.56995 -0.164377,-0.7067 -0.382463,-0.13676 -0.615627,0.48813 -0.615627,0.48813 z"
             style="fill:#b06264;fill-opacity:1;stroke:none;stroke-width:0.26536983" />
          <path
             inkscape:connector-curvature="0"
             id="path4215"
             d="m 40.744956,130.40002 a 5.1994308,5.2845318 0.129123 0 1 -5.133011,5.35161 5.1994308,5.2845318 0.129123 0 1 -5.265019,-5.21659 5.1994308,5.2845318 0.129123 0 1 5.133017,-5.35165 5.1994308,5.2845318 0.129123 0 1 5.265013,5.21663 z"
             style="opacity:1;fill:#fffefe;fill-opacity:1;stroke:none;stroke-width:0.91057771;stroke-linecap:round;stroke-miterlimit:4;stroke-dasharray:none;stroke-opacity:1" />
          <path
             inkscape:export-ydpi="250.44547"
             inkscape:export-xdpi="250.44547"
             inkscape:export-filename="/home/ash/Downloads/benthos.png"
             sodipodi:nodetypes="ssscs"
             inkscape:connector-curvature="0"
             id="path4217"
             d="m 35.782194,134.64233 c -2.241594,0.13691 -4.168382,-1.5977 -4.304865,-3.87585 -0.136515,-2.2781 1.568963,-4.23799 3.81033,-4.3787 2.241358,-0.14059 4.170881,1.59095 4.311357,3.87549 0.133294,2.28493 -1.575244,4.242 -3.816822,4.37906 z"
             style="fill:#000000;fill-opacity:1;stroke:none;stroke-width:1.07336783;stroke-miterlimit:4;stroke-dasharray:none;stroke-opacity:1" />
          <path
             sodipodi:nodetypes="zzzzz"
             inkscape:connector-curvature="0"
             id="path4219"
             d="m 36.227805,127.84241 c 0.391117,-0.53609 1.81303,-0.0601 2.311123,0.83111 0.498088,0.89094 0.493677,2.25982 -0.331731,2.53614 -0.825488,0.27593 -0.765065,-0.79934 -1.197676,-1.55732 -0.432734,-0.75801 -1.172982,-1.27384 -0.781761,-1.80977 z"
             style="fill:#ffffff;fill-opacity:1;stroke:none;stroke-width:0.59220499px;stroke-linecap:butt;stroke-linejoin:miter;stroke-opacity:1" />
          <ellipse
             transform="matrix(0.99826127,0.05894442,-0.08221311,0.99661477,0,0)"
             ry="0.64138186"
             rx="0.5282039"
             cy="129.68732"
             cx="48.812588"
             id="ellipse4221"
             style="opacity:1;fill:#ffffff;fill-opacity:1;stroke:none;stroke-width:2.6819427;stroke-linecap:round;stroke-linejoin:miter;stroke-miterlimit:4;stroke-dasharray:none;stroke-dashoffset:0;stroke-opacity:1" />
        </g>
      </g>
    </g>
    <g
       aria-label="Benthos"
       transform="matrix(0.50406644,0,0,0.50406644,26.667797,157.63134)"
       style="font-style:normal;font-weight:normal;font-size:40px;line-height:1.25;font-family:sans-serif;letter-spacing:0px;word-spacing:0px;fill:#000000;fill-opacity:1;stroke:#272822;stroke-opacity:1;stroke-width:1.04979547;stroke-miterlimit:4;stroke-dasharray:none"
       id="flowRoot842">
      <path
         d="m -30.855469,234.76227 h 9.960938 q 5.820312,0 8.632812,1.73829 2.8320315,1.71875 2.8320315,5.37109 0,2.40234 -1.2304685,4.10156 -1.230469,1.69922 -3.242188,2.1875 v 0.19531 q 2.65625,0.70313 3.847656,2.34375 1.1914067,1.64063 1.1914067,4.25782 0,3.88672 -2.9296877,6.13281 -2.910156,2.22656 -7.949218,2.22656 h -11.113282 z m 7.714844,10.95704 h 2.324219 q 1.660156,0 2.558594,-0.6836 0.917968,-0.68359 0.917968,-2.03125 0,-2.40234 -3.632812,-2.40234 h -2.167969 z m 0,5.64453 v 5.99609 h 2.714844 q 3.613281,0 3.613281,-3.04687 0,-1.42579 -0.976562,-2.1875 -0.957032,-0.76172 -2.792969,-0.76172 z"
         style="font-style:normal;font-variant:normal;font-weight:800;font-stretch:normal;font-family:'Open Sans';-inkscape-font-specification:'Open Sans Ultra-Bold';fill:#ffffff;fill-opacity:1;stroke:#272822;stroke-opacity:1;stroke-width:1.04979547;stroke-miterlimit:4;stroke-dasharray:none"
         id="path866" />
      <path
         d="m 6.3320312,263.70759 q -5.5273437,0 -8.59375,-2.92969 -3.0468749,-2.94922 -3.0468749,-8.37891 0,-5.60547 2.8320312,-8.59375 2.83203125,-3.00781 8.0859375,-3.00781 5,0 7.714844,2.61719 2.734375,2.59765 2.734375,7.5 v 3.39844 H 2.40625 q 0.078125,1.85546 1.3476563,2.91015 1.2890624,1.05469 3.4960937,1.05469 2.0117188,0 3.691406,-0.37109 1.699219,-0.39063 3.671875,-1.3086 v 5.48828 q -1.796875,0.91797 -3.710937,1.26953 -1.9140627,0.35157 -4.5703128,0.35157 z M 5.8828125,245.99274 q -1.3476563,0 -2.265625,0.85938 Q 2.71875,247.69196 2.5625,249.50837 H 9.125 q -0.039063,-1.60156 -0.9179687,-2.5586 -0.8593751,-0.95703 -2.3242188,-0.95703 z"
         style="font-style:normal;font-variant:normal;font-weight:800;font-stretch:normal;font-family:'Open Sans';-inkscape-font-specification:'Open Sans Ultra-Bold';fill:#ffffff;fill-opacity:1;stroke:#272822;stroke-opacity:1;stroke-width:1.04979547;stroke-miterlimit:4;stroke-dasharray:none"
         id="path868" />
      <path
         d="m 34.378906,263.31696 v -12.07031 q 0,-2.20703 -0.644531,-3.32031 -0.625,-1.13282 -2.03125,-1.13282 -1.933594,0 -2.792969,1.54297 -0.859375,1.54297 -0.859375,5.29297 v 9.6875 h -7.636719 v -22.1289 h 5.761719 l 0.957031,2.73437 h 0.449219 q 0.976563,-1.5625 2.695313,-2.34375 1.738281,-0.78125 3.984375,-0.78125 3.671875,0 5.703125,2.12891 2.050781,2.1289 2.050781,5.99609 v 14.39453 z"
         style="font-style:normal;font-variant:normal;font-weight:800;font-stretch:normal;font-family:'Open Sans';-inkscape-font-specification:'Open Sans Ultra-Bold';fill:#ffffff;fill-opacity:1;stroke:#272822;stroke-opacity:1;stroke-width:1.04979547;stroke-miterlimit:4;stroke-dasharray:none"
         id="path870" />
      <path
         d="m 58.050781,257.67243 q 1.542969,0 3.691406,-0.76172 v 5.56641 q -1.542968,0.66406 -2.949218,0.9375 -1.386719,0.29297 -3.261719,0.29297 -3.847656,0 -5.546875,-1.875 -1.699219,-1.89453 -1.699219,-5.80078 v -9.1211 h -2.675781 v -3.10547 l 3.398437,-2.40234 1.972657,-4.64844 h 5 v 4.4336 h 5.429687 v 5.72265 h -5.429687 v 8.61328 q 0,2.14844 2.070312,2.14844 z"
         style="font-style:normal;font-variant:normal;font-weight:800;font-stretch:normal;font-family:'Open Sans';-inkscape-font-specification:'Open Sans Ultra-Bold';fill:#ffffff;fill-opacity:1;stroke:#272822;stroke-opacity:1;stroke-width:1.04979547;stroke-miterlimit:4;stroke-dasharray:none"
         id="path872" />
      <path
         d="m 79.574219,263.31696 v -12.07031 q 0,-4.45313 -2.636719,-4.45313 -1.875,0 -2.773438,1.58204 -0.878906,1.5625 -0.878906,5.21484 v 9.72656 h -7.636719 v -30.39062 h 7.636719 v 4.3164 q 0,2.92969 -0.3125,6.67969 h 0.351563 q 1.09375,-1.71875 2.597656,-2.42187 1.503906,-0.70313 3.496094,-0.70313 3.710937,0 5.761718,2.14844 2.070313,2.1289 2.070313,5.97656 v 14.39453 z"
         style="font-style:normal;font-variant:normal;font-weight:800;font-stretch:normal;font-family:'Open Sans';-inkscape-font-specification:'Open Sans Ultra-Bold';fill:#ffffff;fill-opacity:1;stroke:#272822;stroke-opacity:1;stroke-width:1.04979547;stroke-miterlimit:4;stroke-dasharray:none"
         id="path874" />
      <path
         d="m 113.57813,252.20368 q 0,5.42969 -2.92969,8.47656 -2.91016,3.02735 -8.16406,3.02735 -5.039068,0 -8.027349,-3.10547 -2.96875,-3.10547 -2.96875,-8.39844 0,-5.41016 2.910156,-8.39844 2.929688,-3.00781 8.203123,-3.00781 3.26172,0 5.76172,1.38672 2.5,1.38672 3.84766,3.98437 1.36719,2.57813 1.36719,6.03516 z m -14.335943,0 q 0,2.85156 0.761723,4.35547 0.76172,1.48437 2.55859,1.48437 1.77734,0 2.5,-1.48437 0.74219,-1.50391 0.74219,-4.35547 0,-2.83203 -0.74219,-4.27734 -0.74219,-1.44532 -2.53906,-1.44532 -1.75781,0 -2.51953,1.44532 -0.761723,1.42578 -0.761723,4.27734 z"
         style="font-style:normal;font-variant:normal;font-weight:800;font-stretch:normal;font-family:'Open Sans';-inkscape-font-specification:'Open Sans Ultra-Bold';fill:#ffffff;fill-opacity:1;stroke:#272822;stroke-opacity:1;stroke-width:1.04979547;stroke-miterlimit:4;stroke-dasharray:none"
         id="path876" />
      <path
         d="m 135.00391,256.52009 q 0,3.55468 -2.42188,5.37109 -2.42187,1.81641 -6.95312,1.81641 -2.46094,0 -4.27735,-0.27344 -1.8164,-0.25391 -3.71093,-0.95703 v -6.11328 q 1.77734,0.78125 3.88671,1.28906 2.12891,0.50781 3.78907,0.50781 2.48047,0 2.48047,-1.13281 0,-0.58594 -0.70313,-1.03516 -0.68359,-0.46875 -4.02344,-1.79687 -3.04687,-1.25 -4.25781,-2.83203 -1.21094,-1.60157 -1.21094,-4.04297 0,-3.08594 2.38282,-4.80469 2.38281,-1.71875 6.73828,-1.71875 2.1875,0 4.10156,0.48828 1.93359,0.46875 4.0039,1.38672 l -2.07031,4.92188 q -1.52344,-0.6836 -3.22265,-1.15235 -1.69922,-0.48828 -2.77344,-0.48828 -1.875,0 -1.875,0.91797 0,0.56641 0.64453,0.97656 0.66406,0.39063 3.78906,1.6211 2.32422,0.95703 3.45703,1.875 1.15235,0.91796 1.67969,2.16796 0.54688,1.23047 0.54688,3.00782 z"
         style="font-style:normal;font-variant:normal;font-weight:800;font-stretch:normal;font-family:'Open Sans';-inkscape-font-specification:'Open Sans Ultra-Bold';fill:#ffffff;fill-opacity:1;stroke:#272822;stroke-opacity:1;stroke-width:1.04979547;stroke-miterlimit:4;stroke-dasharray:none"
         id="path878" />
    </g>
  </g>
</svg>
